<?xml version="1.0" encoding="UTF-8" standalone="no"?>
<!DOCTYPE svg PUBLIC "-//W3C//DTD SVG 1.1//EN"
 "http://www.w3.org/Graphics/SVG/1.1/DTD/svg11.dtd">
<!-- Generated by graphviz version 2.43.0 (0)
 -->
<!-- Title: %3 Pages: 1 -->
<svg width="366pt" height="325pt"
 viewBox="0.00 0.00 366.00 325.00" xmlns="http://www.w3.org/2000/svg" xmlns:xlink="http://www.w3.org/1999/xlink">
<g id="graph0" class="graph" transform="scale(1 1) rotate(0) translate(4 321)">
<title>%3</title>
<polygon fill="white" stroke="transparent" points="-4,4 -4,-321 362,-321 362,4 -4,4"/>
<g id="clust1" class="cluster">
<title>clusterPattern</title>
<polygon fill="none" stroke="black" points="8,-91 8,-309 97,-309 97,-91 8,-91"/>
</g>
<g id="clust2" class="cluster">
<title>clusterHost</title>
<polygon fill="none" stroke="black" points="105,-8 105,-226 350,-226 350,-8 105,-8"/>
</g>
<!-- node_0 -->
<g id="node1" class="node">
<title>node_0</title>
<polygon fill="none" stroke="black" points="89,-218 35,-218 35,-182 89,-182 89,-218"/>
<text text-anchor="start" x="46.5" y="-197.9" font-family="Fira Mono Medium" font-weight="bold" font-size="12.00">bank</text>
</g>
<!-- node_2 -->
<g id="node2" class="node">
<title>node_2</title>
<polygon fill="none" stroke="black" points="83,-135 21,-135 21,-99 83,-99 83,-135"/>
<text text-anchor="middle" x="52" y="-113.9" font-family="Fira Mono Medium" font-size="12.00">node_2</text>
</g>
<!-- node_0&#45;&gt;node_2 -->
<g id="edge1" class="edge">
<title>node_0&#45;&gt;node_2</title>
<path fill="none" stroke="black" d="M52.32,-181.71C49.74,-176.22 47.31,-170.01 46,-164 44.68,-157.95 44.7,-151.39 45.36,-145.16"/>
<polygon fill="black" stroke="black" points="48.84,-145.59 46.98,-135.16 41.93,-144.47 48.84,-145.59"/>
<text text-anchor="middle" x="73.5" y="-156" font-family="Fira Mono Medium" font-size="10.00">has&#45;cargo</text>
</g>
<!-- node_3 -->
<g id="node4" class="node">
<title>node_3</title>
<polygon fill="none" stroke="black" points="235,-135 113,-135 113,-99 235,-99 235,-135"/>
<text text-anchor="start" x="158.5" y="-120.4" font-family="Fira Mono Medium" font-weight="bold" font-size="12.00">bank</text>
<text text-anchor="start" x="121" y="-108.4" font-family="Fira Mono Medium" font-style="italic" font-size="12.00">location:</text>
<text text-anchor="start" x="189" y="-108.4" font-family="Fira Mono Medium" font-size="12.00"> left</text>
</g>
<!-- node_0&#45;&gt;node_3 -->
<g id="edge8" class="edge">
<title>node_0&#45;&gt;node_3</title>
<path fill="none" stroke="#ff0000" d="M85.75,-181.82C102.09,-170.01 123.97,-154.18 141.86,-141.24"/>
<polygon fill="#ff0000" stroke="#ff0000" points="144.23,-143.85 150.28,-135.15 140.13,-138.18 144.23,-143.85"/>
</g>
<!-- node_8 -->
<g id="node7" class="node">
<title>node_8</title>
<polygon fill="none" stroke="black" points="182.5,-52 113.5,-52 113.5,-16 182.5,-16 182.5,-52"/>
<text text-anchor="start" x="121.5" y="-31.9" font-family="Fira Mono Medium" font-weight="bold" font-size="12.00">cabbage</text>
</g>
<!-- node_2&#45;&gt;node_8 -->
<g id="edge9" class="edge">
<title>node_2&#45;&gt;node_8</title>
<path fill="none" stroke="#ff0000" d="M72.36,-98.82C86.11,-87.22 104.44,-71.75 119.61,-58.95"/>
<polygon fill="#ff0000" stroke="#ff0000" points="122.28,-61.28 127.67,-52.15 117.77,-55.93 122.28,-61.28"/>
</g>
<!-- node_1 -->
<g id="node3" class="node">
<title>node_1</title>
<polygon fill="none" stroke="black" points="89,-301 35,-301 35,-265 89,-265 89,-301"/>
<text text-anchor="start" x="46.5" y="-280.9" font-family="Fira Mono Medium" font-weight="bold" font-size="12.00">boat</text>
</g>
<!-- node_1&#45;&gt;node_0 -->
<g id="edge2" class="edge">
<title>node_1&#45;&gt;node_0</title>
<path fill="none" stroke="black" d="M62,-264.82C62,-254.19 62,-240.31 62,-228.2"/>
<polygon fill="black" stroke="black" points="65.5,-228.15 62,-218.15 58.5,-228.15 65.5,-228.15"/>
<text text-anchor="middle" x="68.5" y="-239" font-family="Fira Mono Medium" font-size="10.00">at</text>
</g>
<!-- node_5 -->
<g id="node9" class="node">
<title>node_5</title>
<polygon fill="none" stroke="black" points="180,-218 126,-218 126,-182 180,-182 180,-218"/>
<text text-anchor="start" x="137.5" y="-197.9" font-family="Fira Mono Medium" font-weight="bold" font-size="12.00">boat</text>
</g>
<!-- node_1&#45;&gt;node_5 -->
<g id="edge7" class="edge">
<title>node_1&#45;&gt;node_5</title>
<path fill="none" stroke="#ff0000" d="M81.3,-264.82C94.33,-253.22 111.71,-237.75 126.09,-224.95"/>
<polygon fill="#ff0000" stroke="#ff0000" points="128.59,-227.42 133.73,-218.15 123.93,-222.19 128.59,-227.42"/>
</g>
<!-- node_6 -->
<g id="node5" class="node">
<title>node_6</title>
<polygon fill="none" stroke="black" points="255,-52 201,-52 201,-16 255,-16 255,-52"/>
<text text-anchor="start" x="212.5" y="-31.9" font-family="Fira Mono Medium" font-weight="bold" font-size="12.00">wolf</text>
</g>
<!-- node_3&#45;&gt;node_6 -->
<g id="edge3" class="edge">
<title>node_3&#45;&gt;node_6</title>
<path fill="none" stroke="black" d="M185.45,-98.82C192.83,-87.76 202.55,-73.18 210.84,-60.75"/>
<polygon fill="black" stroke="black" points="213.93,-62.42 216.56,-52.15 208.11,-58.53 213.93,-62.42"/>
<text text-anchor="middle" x="231.5" y="-73" font-family="Fira Mono Medium" font-size="10.00">has&#45;cargo</text>
</g>
<!-- node_7 -->
<g id="node6" class="node">
<title>node_7</title>
<polygon fill="none" stroke="black" points="327,-52 273,-52 273,-16 327,-16 327,-52"/>
<text text-anchor="start" x="284.5" y="-31.9" font-family="Fira Mono Medium" font-weight="bold" font-size="12.00">goat</text>
</g>
<!-- node_3&#45;&gt;node_7 -->
<g id="edge4" class="edge">
<title>node_3&#45;&gt;node_7</title>
<path fill="none" stroke="black" d="M230.45,-98.92C241.8,-94.11 253.24,-88.18 263,-81 270.6,-75.41 277.51,-67.9 283.25,-60.57"/>
<polygon fill="black" stroke="black" points="286.32,-62.3 289.43,-52.17 280.68,-58.16 286.32,-62.3"/>
<text text-anchor="middle" x="301.5" y="-73" font-family="Fira Mono Medium" font-size="10.00">has&#45;cargo</text>
</g>
<!-- node_3&#45;&gt;node_8 -->
<g id="edge5" class="edge">
<title>node_3&#45;&gt;node_8</title>
<path fill="none" stroke="black" d="M146.31,-98.87C140.53,-93.87 135.22,-87.88 132,-81 129.18,-74.97 129.6,-68.3 131.55,-61.95"/>
<polygon fill="black" stroke="black" points="134.93,-62.95 135.61,-52.37 128.48,-60.21 134.93,-62.95"/>
<text text-anchor="middle" x="159.5" y="-73" font-family="Fira Mono Medium" font-size="10.00">has&#45;cargo</text>
</g>
<!-- node_4 -->
<g id="node8" class="node">
<title>node_4</title>
<polygon fill="none" stroke="black" points="335,-218 205,-218 205,-182 335,-182 335,-218"/>
<text text-anchor="start" x="254.5" y="-203.4" font-family="Fira Mono Medium" font-weight="bold" font-size="12.00">bank</text>
<text text-anchor="start" x="213" y="-191.4" font-family="Fira Mono Medium" font-style="italic" font-size="12.00">location:</text>
<text text-anchor="start" x="281" y="-191.4" font-family="Fira Mono Medium" font-size="12.00"> right</text>
</g>
<!-- node_5&#45;&gt;node_3 -->
<g id="edge6" class="edge">
<title>node_5&#45;&gt;node_3</title>
<path fill="none" stroke="black" d="M157.45,-181.82C160.24,-171.08 163.88,-157.03 167.04,-144.84"/>
<polygon fill="black" stroke="black" points="170.43,-145.71 169.55,-135.15 163.66,-143.95 170.43,-145.71"/>
<text text-anchor="middle" x="170.5" y="-156" font-family="Fira Mono Medium" font-size="10.00">at</text>
</g>
</g>
</svg>
