<?xml version="1.0" encoding="UTF-8" standalone="no"?>
<!DOCTYPE svg PUBLIC "-//W3C//DTD SVG 1.1//EN"
 "http://www.w3.org/Graphics/SVG/1.1/DTD/svg11.dtd">
<!-- Generated by graphviz version 2.43.0 (0)
 -->
<!-- Title: %3 Pages: 1 -->
<svg width="498pt" height="112pt"
 viewBox="0.00 0.00 498.00 112.00" xmlns="http://www.w3.org/2000/svg" xmlns:xlink="http://www.w3.org/1999/xlink">
<g id="graph0" class="graph" transform="scale(1 1) rotate(0) translate(4 108)">
<title>%3</title>
<polygon fill="white" stroke="transparent" points="-4,4 -4,-108 494,-108 494,4 -4,4"/>
<!-- node_0 -->
<g id="node1" class="node">
<title>node_0</title>
<polygon fill="none" stroke="black" points="275,-43 153,-43 153,-7 275,-7 275,-43"/>
<text text-anchor="start" x="198.5" y="-28.4" font-family="Fira Mono Medium" font-weight="bold" font-size="12.00">side</text>
<text text-anchor="start" x="161" y="-16.4" font-family="Fira Mono Medium" font-style="italic" font-size="12.00">location:</text>
<text text-anchor="start" x="229" y="-16.4" font-family="Fira Mono Medium" font-size="12.00"> left</text>
</g>
<!-- node_1 -->
<g id="node2" class="node">
<title>node_1</title>
<polygon fill="none" stroke="black" points="490,-70 360,-70 360,-34 490,-34 490,-70"/>
<text text-anchor="start" x="409.5" y="-55.4" font-family="Fira Mono Medium" font-weight="bold" font-size="12.00">side</text>
<text text-anchor="start" x="368" y="-43.4" font-family="Fira Mono Medium" font-style="italic" font-size="12.00">location:</text>
<text text-anchor="start" x="436" y="-43.4" font-family="Fira Mono Medium" font-size="12.00"> right</text>
</g>
<!-- node_0&#45;&gt;node_1 -->
<g id="edge1" class="edge">
<title>node_0&#45;&gt;node_1</title>
<path fill="none" stroke="black" d="M275.17,-32.77C298.49,-35.79 325.42,-39.26 349.91,-42.43"/>
<polygon fill="black" stroke="black" points="349.51,-45.91 359.88,-43.72 350.41,-38.96 349.51,-45.91"/>
<text text-anchor="middle" x="317.5" y="-43" font-family="Fira Mono Medium" font-size="10.00">opposite</text>
</g>
<!-- node_1&#45;&gt;node_0 -->
<g id="edge2" class="edge">
<title>node_1&#45;&gt;node_0</title>
<path fill="none" stroke="black" d="M386.49,-33.98C372.82,-28.33 357.02,-22.83 342,-20 323.79,-16.57 303.87,-15.93 285.32,-16.62"/>
<polygon fill="black" stroke="black" points="284.98,-13.13 275.17,-17.13 285.33,-20.12 284.98,-13.13"/>
<text text-anchor="middle" x="317.5" y="-23" font-family="Fira Mono Medium" font-size="10.00">opposite</text>
</g>
<!-- node_2 -->
<g id="node3" class="node">
<title>node_2</title>
<polygon fill="none" stroke="black" points="73,-36 19,-36 19,0 73,0 73,-36"/>
<text text-anchor="start" x="30.5" y="-15.9" font-family="Fira Mono Medium" font-weight="bold" font-size="12.00">boat</text>
</g>
<!-- node_2&#45;&gt;node_0 -->
<g id="edge3" class="edge">
<title>node_2&#45;&gt;node_0</title>
<path fill="none" stroke="black" d="M73.2,-17.85C90.7,-17.86 114.24,-18.08 135,-19 137.55,-19.11 140.15,-19.24 142.78,-19.38"/>
<polygon fill="black" stroke="black" points="142.79,-22.89 152.98,-19.99 143.2,-15.9 142.79,-22.89"/>
<text text-anchor="middle" x="122.5" y="-22" font-family="Fira Mono Medium" font-size="10.00">at</text>
</g>
<!-- node_3 -->
<g id="node4" class="node">
<title>node_3</title>
<polygon fill="none" stroke="black" points="260,-104 168,-104 168,-68 260,-68 260,-104"/>
<text text-anchor="start" x="195" y="-89.4" font-family="Fira Mono Medium" font-weight="bold" font-size="12.00">cargo</text>
<text text-anchor="start" x="176" y="-77.4" font-family="Fira Mono Medium" font-style="italic" font-size="12.00">kind:</text>
<text text-anchor="start" x="214" y="-77.4" font-family="Fira Mono Medium" font-size="12.00"> goat</text>
</g>
<!-- node_3&#45;&gt;node_1 -->
<g id="edge4" class="edge">
<title>node_3&#45;&gt;node_1</title>
<path fill="none" stroke="black" d="M260.09,-78.66C286.29,-74.4 319.95,-68.93 349.94,-64.05"/>
<polygon fill="black" stroke="black" points="350.65,-67.48 359.96,-62.42 349.52,-60.57 350.65,-67.48"/>
<text text-anchor="middle" x="317.5" y="-76" font-family="Fira Mono Medium" font-size="10.00">at</text>
</g>
<!-- node_4 -->
<g id="node5" class="node">
<title>node_4</title>
<polygon fill="none" stroke="black" points="92,-97 0,-97 0,-61 92,-61 92,-97"/>
<text text-anchor="start" x="27" y="-82.4" font-family="Fira Mono Medium" font-weight="bold" font-size="12.00">cargo</text>
<text text-anchor="start" x="8" y="-70.4" font-family="Fira Mono Medium" font-style="italic" font-size="12.00">kind:</text>
<text text-anchor="start" x="46" y="-70.4" font-family="Fira Mono Medium" font-size="12.00"> wolf</text>
</g>
<!-- node_4&#45;&gt;node_0 -->
<g id="edge6" class="edge">
<title>node_4&#45;&gt;node_0</title>
<path fill="none" stroke="black" d="M92.36,-64.24C109.53,-58.66 129.42,-52.19 148.04,-46.13"/>
<polygon fill="black" stroke="black" points="149.21,-49.43 157.64,-43.01 147.05,-42.77 149.21,-49.43"/>
<text text-anchor="middle" x="122.5" y="-61" font-family="Fira Mono Medium" font-size="10.00">at</text>
</g>
<!-- node_4&#45;&gt;node_3 -->
<g id="edge5" class="edge">
<title>node_4&#45;&gt;node_3</title>
<path fill="none" stroke="black" d="M92.36,-80.91C112.57,-81.77 136.56,-82.78 157.8,-83.67"/>
<polygon fill="black" stroke="black" points="157.84,-87.18 167.98,-84.1 158.14,-80.18 157.84,-87.18"/>
<text text-anchor="middle" x="122.5" y="-85" font-family="Fira Mono Medium" font-size="10.00">eats</text>
</g>
</g>
</svg>
