<?xml version="1.0" encoding="UTF-8" standalone="no"?>
<!DOCTYPE svg PUBLIC "-//W3C//DTD SVG 1.1//EN"
 "http://www.w3.org/Graphics/SVG/1.1/DTD/svg11.dtd">
<!-- Generated by graphviz version 2.43.0 (0)
 -->
<!-- Title: %3 Pages: 1 -->
<svg width="815pt" height="192pt"
 viewBox="0.00 0.00 815.00 192.00" xmlns="http://www.w3.org/2000/svg" xmlns:xlink="http://www.w3.org/1999/xlink">
<g id="graph0" class="graph" transform="scale(1 1) rotate(0) translate(4 188)">
<title>%3</title>
<polygon fill="white" stroke="transparent" points="-4,4 -4,-188 811,-188 811,4 -4,4"/>
<!-- node_0 -->
<g id="node1" class="node">
<title>node_0</title>
<polygon fill="none" stroke="black" points="592,-120 470,-120 470,-84 592,-84 592,-120"/>
<text text-anchor="start" x="515.5" y="-105.4" font-family="Fira Mono Medium" font-weight="bold" font-size="12.00">side</text>
<text text-anchor="start" x="478" y="-93.4" font-family="Fira Mono Medium" font-style="italic" font-size="12.00">location:</text>
<text text-anchor="start" x="546" y="-93.4" font-family="Fira Mono Medium" font-size="12.00"> left</text>
</g>
<!-- node_1 -->
<g id="node2" class="node">
<title>node_1</title>
<polygon fill="none" stroke="black" points="807,-154 677,-154 677,-118 807,-118 807,-154"/>
<text text-anchor="start" x="726.5" y="-139.4" font-family="Fira Mono Medium" font-weight="bold" font-size="12.00">side</text>
<text text-anchor="start" x="685" y="-127.4" font-family="Fira Mono Medium" font-style="italic" font-size="12.00">location:</text>
<text text-anchor="start" x="753" y="-127.4" font-family="Fira Mono Medium" font-size="12.00"> right</text>
</g>
<!-- node_0&#45;&gt;node_1 -->
<g id="edge1" class="edge">
<title>node_0&#45;&gt;node_1</title>
<path fill="none" stroke="black" d="M592.17,-111.79C615.49,-115.58 642.42,-119.96 666.91,-123.95"/>
<polygon fill="black" stroke="black" points="666.45,-127.42 676.88,-125.57 667.57,-120.51 666.45,-127.42"/>
<text text-anchor="middle" x="634.5" y="-125" font-family="Fira Mono Medium" font-size="10.00">opposite</text>
</g>
<!-- node_1&#45;&gt;node_0 -->
<g id="edge2" class="edge">
<title>node_1&#45;&gt;node_0</title>
<path fill="none" stroke="black" d="M707.29,-117.98C692.85,-111.23 675.53,-104.38 659,-101 640.86,-97.29 620.97,-96.12 602.41,-96.23"/>
<polygon fill="black" stroke="black" points="602.19,-92.73 592.26,-96.41 602.32,-99.73 602.19,-92.73"/>
<text text-anchor="middle" x="634.5" y="-104" font-family="Fira Mono Medium" font-size="10.00">opposite</text>
</g>
<!-- node_2 -->
<g id="node3" class="node">
<title>node_2</title>
<polygon fill="none" stroke="black" points="390.5,-36 336.5,-36 336.5,0 390.5,0 390.5,-36"/>
<text text-anchor="start" x="348" y="-15.9" font-family="Fira Mono Medium" font-weight="bold" font-size="12.00">boat</text>
</g>
<!-- node_2&#45;&gt;node_0 -->
<g id="edge3" class="edge">
<title>node_2&#45;&gt;node_0</title>
<path fill="none" stroke="black" d="M390.76,-30.31C400.31,-34.85 411.18,-40.09 421,-45 443.03,-56.02 467.33,-68.68 487.39,-79.26"/>
<polygon fill="black" stroke="black" points="485.81,-82.39 496.28,-83.97 489.08,-76.2 485.81,-82.39"/>
<text text-anchor="middle" x="445.5" y="-64" font-family="Fira Mono Medium" font-size="10.00">at</text>
</g>
<!-- node_3 -->
<g id="node4" class="node">
<title>node_3</title>
<polygon fill="none" stroke="black" points="421,-90 306,-90 306,-54 421,-54 421,-90"/>
<text text-anchor="start" x="344.5" y="-75.4" font-family="Fira Mono Medium" font-weight="bold" font-size="12.00">cargo</text>
<text text-anchor="start" x="314" y="-63.4" font-family="Fira Mono Medium" font-style="italic" font-size="12.00">kind:</text>
<text text-anchor="start" x="352" y="-63.4" font-family="Fira Mono Medium" font-size="12.00"> cabbage</text>
</g>
<!-- node_3&#45;&gt;node_0 -->
<g id="edge4" class="edge">
<title>node_3&#45;&gt;node_0</title>
<path fill="none" stroke="black" d="M421.46,-82.32C433.78,-84.56 446.95,-86.94 459.71,-89.26"/>
<polygon fill="black" stroke="black" points="459.37,-92.75 469.84,-91.09 460.62,-85.87 459.37,-92.75"/>
<text text-anchor="middle" x="445.5" y="-90" font-family="Fira Mono Medium" font-size="10.00">at</text>
</g>
<!-- node_4 -->
<g id="node5" class="node">
<title>node_4</title>
<polygon fill="none" stroke="black" points="245,-144 153,-144 153,-108 245,-108 245,-144"/>
<text text-anchor="start" x="180" y="-129.4" font-family="Fira Mono Medium" font-weight="bold" font-size="12.00">cargo</text>
<text text-anchor="start" x="161" y="-117.4" font-family="Fira Mono Medium" font-style="italic" font-size="12.00">kind:</text>
<text text-anchor="start" x="199" y="-117.4" font-family="Fira Mono Medium" font-size="12.00"> goat</text>
</g>
<!-- node_4&#45;&gt;node_0 -->
<g id="edge6" class="edge">
<title>node_4&#45;&gt;node_0</title>
<path fill="none" stroke="black" d="M245.19,-122.71C300.57,-118.69 395.01,-111.82 459.86,-107.1"/>
<polygon fill="black" stroke="black" points="460.28,-110.58 470,-106.36 459.77,-103.6 460.28,-110.58"/>
<text text-anchor="middle" x="363.5" y="-120" font-family="Fira Mono Medium" font-size="10.00">at</text>
</g>
<!-- node_4&#45;&gt;node_3 -->
<g id="edge5" class="edge">
<title>node_4&#45;&gt;node_3</title>
<path fill="none" stroke="black" d="M243.86,-107.98C250.25,-105.54 256.77,-103.14 263,-101 273.66,-97.34 285.06,-93.73 296.21,-90.38"/>
<polygon fill="black" stroke="black" points="297.32,-93.7 305.9,-87.49 295.32,-86.99 297.32,-93.7"/>
<text text-anchor="middle" x="275.5" y="-104" font-family="Fira Mono Medium" font-size="10.00">eats</text>
</g>
<!-- node_5 -->
<g id="node6" class="node">
<title>node_5</title>
<polygon fill="none" stroke="black" points="92,-168 0,-168 0,-132 92,-132 92,-168"/>
<text text-anchor="start" x="27" y="-153.4" font-family="Fira Mono Medium" font-weight="bold" font-size="12.00">cargo</text>
<text text-anchor="start" x="8" y="-141.4" font-family="Fira Mono Medium" font-style="italic" font-size="12.00">kind:</text>
<text text-anchor="start" x="46" y="-141.4" font-family="Fira Mono Medium" font-size="12.00"> wolf</text>
</g>
<!-- node_5&#45;&gt;node_1 -->
<g id="edge8" class="edge">
<title>node_5&#45;&gt;node_1</title>
<path fill="none" stroke="black" d="M92.32,-160.56C122.17,-166.6 162.2,-173 198,-173 198,-173 198,-173 532,-173 577.18,-173 627.02,-164.51 666.7,-155.67"/>
<polygon fill="black" stroke="black" points="667.59,-159.06 676.56,-153.42 666.03,-152.23 667.59,-159.06"/>
<text text-anchor="middle" x="363.5" y="-176" font-family="Fira Mono Medium" font-size="10.00">at</text>
</g>
<!-- node_5&#45;&gt;node_4 -->
<g id="edge7" class="edge">
<title>node_5&#45;&gt;node_4</title>
<path fill="none" stroke="black" d="M92.3,-142.8C108.2,-140.27 126.24,-137.41 142.86,-134.76"/>
<polygon fill="black" stroke="black" points="143.66,-138.18 152.99,-133.15 142.56,-131.27 143.66,-138.18"/>
<text text-anchor="middle" x="122.5" y="-142" font-family="Fira Mono Medium" font-size="10.00">eats</text>
</g>
</g>
</svg>
