<?xml version="1.0" encoding="UTF-8" standalone="no"?>
<!DOCTYPE svg PUBLIC "-//W3C//DTD SVG 1.1//EN"
 "http://www.w3.org/Graphics/SVG/1.1/DTD/svg11.dtd">
<!-- Generated by graphviz version 2.43.0 (0)
 -->
<!-- Title: %3 Pages: 1 -->
<svg width="651pt" height="190pt"
 viewBox="0.00 0.00 651.00 190.00" xmlns="http://www.w3.org/2000/svg" xmlns:xlink="http://www.w3.org/1999/xlink">
<g id="graph0" class="graph" transform="scale(1 1) rotate(0) translate(4 186)">
<title>%3</title>
<polygon fill="white" stroke="transparent" points="-4,4 -4,-186 647,-186 647,4 -4,4"/>
<!-- node_0 -->
<g id="node1" class="node">
<title>node_0</title>
<polygon fill="none" stroke="black" points="428,-90 306,-90 306,-54 428,-54 428,-90"/>
<text text-anchor="start" x="351.5" y="-75.4" font-family="Fira Mono Medium" font-weight="bold" font-size="12.00">side</text>
<text text-anchor="start" x="314" y="-63.4" font-family="Fira Mono Medium" font-style="italic" font-size="12.00">location:</text>
<text text-anchor="start" x="382" y="-63.4" font-family="Fira Mono Medium" font-size="12.00"> left</text>
</g>
<!-- node_1 -->
<g id="node2" class="node">
<title>node_1</title>
<polygon fill="none" stroke="black" points="643,-110 513,-110 513,-74 643,-74 643,-110"/>
<text text-anchor="start" x="562.5" y="-95.4" font-family="Fira Mono Medium" font-weight="bold" font-size="12.00">side</text>
<text text-anchor="start" x="521" y="-83.4" font-family="Fira Mono Medium" font-style="italic" font-size="12.00">location:</text>
<text text-anchor="start" x="589" y="-83.4" font-family="Fira Mono Medium" font-size="12.00"> right</text>
</g>
<!-- node_0&#45;&gt;node_1 -->
<g id="edge1" class="edge">
<title>node_0&#45;&gt;node_1</title>
<path fill="none" stroke="black" d="M428.17,-77.76C451.49,-79.99 478.42,-82.57 502.91,-84.91"/>
<polygon fill="black" stroke="black" points="502.59,-88.4 512.88,-85.86 503.26,-81.43 502.59,-88.4"/>
<text text-anchor="middle" x="470.5" y="-87" font-family="Fira Mono Medium" font-size="10.00">opposite</text>
</g>
<!-- node_1&#45;&gt;node_0 -->
<g id="edge2" class="edge">
<title>node_1&#45;&gt;node_0</title>
<path fill="none" stroke="black" d="M530.81,-73.95C519.29,-70.25 506.84,-66.9 495,-65 476.7,-62.06 456.74,-61.81 438.18,-62.79"/>
<polygon fill="black" stroke="black" points="437.79,-59.3 428.03,-63.45 438.24,-66.29 437.79,-59.3"/>
<text text-anchor="middle" x="470.5" y="-68" font-family="Fira Mono Medium" font-size="10.00">opposite</text>
</g>
<!-- node_2 -->
<g id="node3" class="node">
<title>node_2</title>
<polygon fill="none" stroke="black" points="394,-182 340,-182 340,-146 394,-146 394,-182"/>
<text text-anchor="start" x="351.5" y="-161.9" font-family="Fira Mono Medium" font-weight="bold" font-size="12.00">boat</text>
</g>
<!-- node_2&#45;&gt;node_1 -->
<g id="edge3" class="edge">
<title>node_2&#45;&gt;node_1</title>
<path fill="none" stroke="black" d="M394.26,-159.04C420.28,-153.75 461.04,-144.41 495,-132 508.16,-127.19 522.01,-120.93 534.51,-114.79"/>
<polygon fill="black" stroke="black" points="536.4,-117.76 543.77,-110.15 533.27,-111.51 536.4,-117.76"/>
<text text-anchor="middle" x="470.5" y="-149" font-family="Fira Mono Medium" font-size="10.00">at</text>
</g>
<!-- node_3 -->
<g id="node4" class="node">
<title>node_3</title>
<polygon fill="none" stroke="black" points="424.5,-36 309.5,-36 309.5,0 424.5,0 424.5,-36"/>
<text text-anchor="start" x="348" y="-21.4" font-family="Fira Mono Medium" font-weight="bold" font-size="12.00">cargo</text>
<text text-anchor="start" x="317.5" y="-9.4" font-family="Fira Mono Medium" font-style="italic" font-size="12.00">kind:</text>
<text text-anchor="start" x="355.5" y="-9.4" font-family="Fira Mono Medium" font-size="12.00"> cabbage</text>
</g>
<!-- node_3&#45;&gt;node_1 -->
<g id="edge4" class="edge">
<title>node_3&#45;&gt;node_1</title>
<path fill="none" stroke="black" d="M424.58,-28.06C446.91,-32.88 472.54,-39.49 495,-48 509.85,-53.63 525.39,-61.42 538.9,-68.89"/>
<polygon fill="black" stroke="black" points="537.46,-72.1 547.89,-73.98 540.91,-66.01 537.46,-72.1"/>
<text text-anchor="middle" x="470.5" y="-51" font-family="Fira Mono Medium" font-size="10.00">at</text>
</g>
<!-- node_4 -->
<g id="node5" class="node">
<title>node_4</title>
<polygon fill="none" stroke="black" points="245,-90 153,-90 153,-54 245,-54 245,-90"/>
<text text-anchor="start" x="180" y="-75.4" font-family="Fira Mono Medium" font-weight="bold" font-size="12.00">cargo</text>
<text text-anchor="start" x="161" y="-63.4" font-family="Fira Mono Medium" font-style="italic" font-size="12.00">kind:</text>
<text text-anchor="start" x="199" y="-63.4" font-family="Fira Mono Medium" font-size="12.00"> goat</text>
</g>
<!-- node_4&#45;&gt;node_0 -->
<g id="edge6" class="edge">
<title>node_4&#45;&gt;node_0</title>
<path fill="none" stroke="black" d="M245.36,-72C260.78,-72 278.4,-72 295.33,-72"/>
<polygon fill="black" stroke="black" points="295.75,-75.5 305.75,-72 295.75,-68.5 295.75,-75.5"/>
<text text-anchor="middle" x="275.5" y="-75" font-family="Fira Mono Medium" font-size="10.00">at</text>
</g>
<!-- node_4&#45;&gt;node_3 -->
<g id="edge5" class="edge">
<title>node_4&#45;&gt;node_3</title>
<path fill="none" stroke="black" d="M245.36,-57.24C262.53,-51.66 282.42,-45.19 301.04,-39.13"/>
<polygon fill="black" stroke="black" points="302.21,-42.43 310.64,-36.01 300.05,-35.77 302.21,-42.43"/>
<text text-anchor="middle" x="275.5" y="-55" font-family="Fira Mono Medium" font-size="10.00">eats</text>
</g>
<!-- node_5 -->
<g id="node6" class="node">
<title>node_5</title>
<polygon fill="none" stroke="black" points="92,-113 0,-113 0,-77 92,-77 92,-113"/>
<text text-anchor="start" x="27" y="-98.4" font-family="Fira Mono Medium" font-weight="bold" font-size="12.00">cargo</text>
<text text-anchor="start" x="8" y="-86.4" font-family="Fira Mono Medium" font-style="italic" font-size="12.00">kind:</text>
<text text-anchor="start" x="46" y="-86.4" font-family="Fira Mono Medium" font-size="12.00"> wolf</text>
</g>
<!-- node_5&#45;&gt;node_1 -->
<g id="edge8" class="edge">
<title>node_5&#45;&gt;node_1</title>
<path fill="none" stroke="black" d="M92.06,-99.01C98.08,-99.42 104.19,-99.77 110,-100 121.1,-100.44 123.89,-100.02 135,-100 295,-99.78 335.15,-106.03 495,-99 497.41,-98.89 499.86,-98.77 502.33,-98.64"/>
<polygon fill="black" stroke="black" points="502.81,-102.11 512.57,-98 502.38,-95.13 502.81,-102.11"/>
<text text-anchor="middle" x="275.5" y="-104" font-family="Fira Mono Medium" font-size="10.00">at</text>
</g>
<!-- node_5&#45;&gt;node_4 -->
<g id="edge7" class="edge">
<title>node_5&#45;&gt;node_4</title>
<path fill="none" stroke="black" d="M92.3,-88.1C108.2,-85.68 126.24,-82.93 142.86,-80.4"/>
<polygon fill="black" stroke="black" points="143.63,-83.82 152.99,-78.86 142.57,-76.9 143.63,-83.82"/>
<text text-anchor="middle" x="122.5" y="-88" font-family="Fira Mono Medium" font-size="10.00">eats</text>
</g>
</g>
</svg>
