<?xml version="1.0" encoding="UTF-8" standalone="no"?>
<!DOCTYPE svg PUBLIC "-//W3C//DTD SVG 1.1//EN"
 "http://www.w3.org/Graphics/SVG/1.1/DTD/svg11.dtd">
<!-- Generated by graphviz version 2.43.0 (0)
 -->
<!-- Title: %3 Pages: 1 -->
<svg width="651pt" height="151pt"
 viewBox="0.00 0.00 651.00 151.00" xmlns="http://www.w3.org/2000/svg" xmlns:xlink="http://www.w3.org/1999/xlink">
<g id="graph0" class="graph" transform="scale(1 1) rotate(0) translate(4 147)">
<title>%3</title>
<polygon fill="white" stroke="transparent" points="-4,4 -4,-147 647,-147 647,4 -4,4"/>
<!-- node_0 -->
<g id="node1" class="node">
<title>node_0</title>
<polygon fill="none" stroke="black" points="428,-96 306,-96 306,-60 428,-60 428,-96"/>
<text text-anchor="start" x="351.5" y="-81.4" font-family="Fira Mono Medium" font-weight="bold" font-size="12.00">side</text>
<text text-anchor="start" x="314" y="-69.4" font-family="Fira Mono Medium" font-style="italic" font-size="12.00">location:</text>
<text text-anchor="start" x="382" y="-69.4" font-family="Fira Mono Medium" font-size="12.00"> left</text>
</g>
<!-- node_1 -->
<g id="node2" class="node">
<title>node_1</title>
<polygon fill="none" stroke="black" points="643,-70 513,-70 513,-34 643,-34 643,-70"/>
<text text-anchor="start" x="562.5" y="-55.4" font-family="Fira Mono Medium" font-weight="bold" font-size="12.00">side</text>
<text text-anchor="start" x="521" y="-43.4" font-family="Fira Mono Medium" font-style="italic" font-size="12.00">location:</text>
<text text-anchor="start" x="589" y="-43.4" font-family="Fira Mono Medium" font-size="12.00"> right</text>
</g>
<!-- node_0&#45;&gt;node_1 -->
<g id="edge1" class="edge">
<title>node_0&#45;&gt;node_1</title>
<path fill="none" stroke="black" d="M416.55,-59.95C426.18,-57.08 436.31,-54.55 446,-53 464.19,-50.08 483.98,-48.91 502.55,-48.68"/>
<polygon fill="black" stroke="black" points="502.73,-52.18 512.71,-48.63 502.7,-45.18 502.73,-52.18"/>
<text text-anchor="middle" x="470.5" y="-56" font-family="Fira Mono Medium" font-size="10.00">opposite</text>
</g>
<!-- node_1&#45;&gt;node_0 -->
<g id="edge2" class="edge">
<title>node_1&#45;&gt;node_0</title>
<path fill="none" stroke="black" d="M512.57,-61.65C506.63,-62.47 500.71,-63.27 495,-64 476.62,-66.36 456.72,-68.67 438.23,-70.71"/>
<polygon fill="black" stroke="black" points="437.69,-67.25 428.13,-71.81 438.45,-74.21 437.69,-67.25"/>
<text text-anchor="middle" x="470.5" y="-72" font-family="Fira Mono Medium" font-size="10.00">opposite</text>
</g>
<!-- node_2 -->
<g id="node3" class="node">
<title>node_2</title>
<polygon fill="none" stroke="black" points="226,-143 172,-143 172,-107 226,-107 226,-143"/>
<text text-anchor="start" x="183.5" y="-122.9" font-family="Fira Mono Medium" font-weight="bold" font-size="12.00">boat</text>
</g>
<!-- node_2&#45;&gt;node_0 -->
<g id="edge3" class="edge">
<title>node_2&#45;&gt;node_0</title>
<path fill="none" stroke="black" d="M226.3,-117.55C245.11,-112.23 271.35,-104.8 296.02,-97.81"/>
<polygon fill="black" stroke="black" points="297.07,-101.15 305.74,-95.06 295.16,-94.42 297.07,-101.15"/>
<text text-anchor="middle" x="275.5" y="-110" font-family="Fira Mono Medium" font-size="10.00">at</text>
</g>
<!-- node_3 -->
<g id="node4" class="node">
<title>node_3</title>
<polygon fill="none" stroke="black" points="424.5,-36 309.5,-36 309.5,0 424.5,0 424.5,-36"/>
<text text-anchor="start" x="348" y="-21.4" font-family="Fira Mono Medium" font-weight="bold" font-size="12.00">cargo</text>
<text text-anchor="start" x="317.5" y="-9.4" font-family="Fira Mono Medium" font-style="italic" font-size="12.00">kind:</text>
<text text-anchor="start" x="355.5" y="-9.4" font-family="Fira Mono Medium" font-size="12.00"> cabbage</text>
</g>
<!-- node_3&#45;&gt;node_1 -->
<g id="edge4" class="edge">
<title>node_3&#45;&gt;node_1</title>
<path fill="none" stroke="black" d="M424.78,-23.36C446.79,-25.78 472.14,-29.01 495,-33 497.52,-33.44 500.08,-33.91 502.66,-34.4"/>
<polygon fill="black" stroke="black" points="502.19,-37.87 512.68,-36.39 503.55,-31.01 502.19,-37.87"/>
<text text-anchor="middle" x="470.5" y="-36" font-family="Fira Mono Medium" font-size="10.00">at</text>
</g>
<!-- node_4 -->
<g id="node5" class="node">
<title>node_4</title>
<polygon fill="none" stroke="black" points="245,-42 153,-42 153,-6 245,-6 245,-42"/>
<text text-anchor="start" x="180" y="-27.4" font-family="Fira Mono Medium" font-weight="bold" font-size="12.00">cargo</text>
<text text-anchor="start" x="161" y="-15.4" font-family="Fira Mono Medium" font-style="italic" font-size="12.00">kind:</text>
<text text-anchor="start" x="199" y="-15.4" font-family="Fira Mono Medium" font-size="12.00"> goat</text>
</g>
<!-- node_4&#45;&gt;node_0 -->
<g id="edge6" class="edge">
<title>node_4&#45;&gt;node_0</title>
<path fill="none" stroke="black" d="M245.36,-38.76C262.53,-44.34 282.42,-50.81 301.04,-56.87"/>
<polygon fill="black" stroke="black" points="300.05,-60.23 310.64,-59.99 302.21,-53.57 300.05,-60.23"/>
<text text-anchor="middle" x="275.5" y="-55" font-family="Fira Mono Medium" font-size="10.00">at</text>
</g>
<!-- node_4&#45;&gt;node_3 -->
<g id="edge5" class="edge">
<title>node_4&#45;&gt;node_3</title>
<path fill="none" stroke="black" d="M245.06,-20.04C251.09,-19.62 257.19,-19.26 263,-19 274.72,-18.48 287.21,-18.16 299.29,-17.97"/>
<polygon fill="black" stroke="black" points="299.36,-21.47 309.31,-17.84 299.27,-14.47 299.36,-21.47"/>
<text text-anchor="middle" x="275.5" y="-22" font-family="Fira Mono Medium" font-size="10.00">eats</text>
</g>
<!-- node_5 -->
<g id="node6" class="node">
<title>node_5</title>
<polygon fill="none" stroke="black" points="92,-69 0,-69 0,-33 92,-33 92,-69"/>
<text text-anchor="start" x="27" y="-54.4" font-family="Fira Mono Medium" font-weight="bold" font-size="12.00">cargo</text>
<text text-anchor="start" x="8" y="-42.4" font-family="Fira Mono Medium" font-style="italic" font-size="12.00">kind:</text>
<text text-anchor="start" x="46" y="-42.4" font-family="Fira Mono Medium" font-size="12.00"> wolf</text>
</g>
<!-- node_5&#45;&gt;node_0 -->
<g id="edge8" class="edge">
<title>node_5&#45;&gt;node_0</title>
<path fill="none" stroke="black" d="M92.03,-54.81C145.06,-59.3 233.79,-66.81 295.86,-72.06"/>
<polygon fill="black" stroke="black" points="295.71,-75.56 305.97,-72.92 296.3,-68.59 295.71,-75.56"/>
<text text-anchor="middle" x="199" y="-70" font-family="Fira Mono Medium" font-size="10.00">at</text>
</g>
<!-- node_5&#45;&gt;node_4 -->
<g id="edge7" class="edge">
<title>node_5&#45;&gt;node_4</title>
<path fill="none" stroke="black" d="M92.3,-42.9C108.2,-40.06 126.24,-36.83 142.86,-33.86"/>
<polygon fill="black" stroke="black" points="143.76,-37.25 152.99,-32.05 142.53,-30.36 143.76,-37.25"/>
<text text-anchor="middle" x="122.5" y="-42" font-family="Fira Mono Medium" font-size="10.00">eats</text>
</g>
</g>
</svg>
