<?xml version="1.0" encoding="UTF-8" standalone="no"?>
<!DOCTYPE svg PUBLIC "-//W3C//DTD SVG 1.1//EN"
 "http://www.w3.org/Graphics/SVG/1.1/DTD/svg11.dtd">
<!-- Generated by graphviz version 2.43.0 (0)
 -->
<!-- Title: %3 Pages: 1 -->
<svg width="509pt" height="132pt"
 viewBox="0.00 0.00 509.00 132.00" xmlns="http://www.w3.org/2000/svg" xmlns:xlink="http://www.w3.org/1999/xlink">
<g id="graph0" class="graph" transform="scale(1 1) rotate(0) translate(4 128)">
<title>%3</title>
<polygon fill="white" stroke="transparent" points="-4,4 -4,-128 505,-128 505,4 -4,4"/>
<!-- node_0 -->
<g id="node1" class="node">
<title>node_0</title>
<polygon fill="none" stroke="black" points="286,-63 164,-63 164,-27 286,-27 286,-63"/>
<text text-anchor="start" x="209.5" y="-48.4" font-family="Fira Mono Medium" font-weight="bold" font-size="12.00">side</text>
<text text-anchor="start" x="172" y="-36.4" font-family="Fira Mono Medium" font-style="italic" font-size="12.00">location:</text>
<text text-anchor="start" x="240" y="-36.4" font-family="Fira Mono Medium" font-size="12.00"> left</text>
</g>
<!-- node_1 -->
<g id="node2" class="node">
<title>node_1</title>
<polygon fill="none" stroke="black" points="501,-90 371,-90 371,-54 501,-54 501,-90"/>
<text text-anchor="start" x="420.5" y="-75.4" font-family="Fira Mono Medium" font-weight="bold" font-size="12.00">side</text>
<text text-anchor="start" x="379" y="-63.4" font-family="Fira Mono Medium" font-style="italic" font-size="12.00">location:</text>
<text text-anchor="start" x="447" y="-63.4" font-family="Fira Mono Medium" font-size="12.00"> right</text>
</g>
<!-- node_0&#45;&gt;node_1 -->
<g id="edge1" class="edge">
<title>node_0&#45;&gt;node_1</title>
<path fill="none" stroke="black" d="M286.17,-52.77C309.49,-55.79 336.42,-59.26 360.91,-62.43"/>
<polygon fill="black" stroke="black" points="360.51,-65.91 370.88,-63.72 361.41,-58.96 360.51,-65.91"/>
<text text-anchor="middle" x="328.5" y="-63" font-family="Fira Mono Medium" font-size="10.00">opposite</text>
</g>
<!-- node_1&#45;&gt;node_0 -->
<g id="edge2" class="edge">
<title>node_1&#45;&gt;node_0</title>
<path fill="none" stroke="black" d="M397.49,-53.98C383.82,-48.33 368.02,-42.83 353,-40 334.79,-36.57 314.87,-35.93 296.32,-36.62"/>
<polygon fill="black" stroke="black" points="295.98,-33.13 286.17,-37.13 296.33,-40.12 295.98,-33.13"/>
<text text-anchor="middle" x="328.5" y="-43" font-family="Fira Mono Medium" font-size="10.00">opposite</text>
</g>
<!-- node_2 -->
<g id="node3" class="node">
<title>node_2</title>
<polygon fill="none" stroke="black" points="84.5,-90 30.5,-90 30.5,-54 84.5,-54 84.5,-90"/>
<text text-anchor="start" x="42" y="-69.9" font-family="Fira Mono Medium" font-weight="bold" font-size="12.00">boat</text>
</g>
<!-- node_2&#45;&gt;node_0 -->
<g id="edge3" class="edge">
<title>node_2&#45;&gt;node_0</title>
<path fill="none" stroke="black" d="M84.72,-67.72C103.39,-64.68 129.4,-60.43 153.9,-56.44"/>
<polygon fill="black" stroke="black" points="154.61,-59.87 163.92,-54.8 153.49,-52.96 154.61,-59.87"/>
<text text-anchor="middle" x="139.5" y="-62" font-family="Fira Mono Medium" font-size="10.00">at</text>
</g>
<!-- node_3 -->
<g id="node4" class="node">
<title>node_3</title>
<polygon fill="none" stroke="black" points="115,-36 0,-36 0,0 115,0 115,-36"/>
<text text-anchor="start" x="38.5" y="-21.4" font-family="Fira Mono Medium" font-weight="bold" font-size="12.00">cargo</text>
<text text-anchor="start" x="8" y="-9.4" font-family="Fira Mono Medium" font-style="italic" font-size="12.00">kind:</text>
<text text-anchor="start" x="46" y="-9.4" font-family="Fira Mono Medium" font-size="12.00"> cabbage</text>
</g>
<!-- node_3&#45;&gt;node_0 -->
<g id="edge4" class="edge">
<title>node_3&#45;&gt;node_0</title>
<path fill="none" stroke="black" d="M115.46,-27.29C127.78,-29.3 140.95,-31.45 153.71,-33.53"/>
<polygon fill="black" stroke="black" points="153.4,-37.03 163.84,-35.18 154.53,-30.12 153.4,-37.03"/>
<text text-anchor="middle" x="139.5" y="-34" font-family="Fira Mono Medium" font-size="10.00">at</text>
</g>
<!-- node_4 -->
<g id="node5" class="node">
<title>node_4</title>
<polygon fill="none" stroke="black" points="271,-124 179,-124 179,-88 271,-88 271,-124"/>
<text text-anchor="start" x="206" y="-109.4" font-family="Fira Mono Medium" font-weight="bold" font-size="12.00">cargo</text>
<text text-anchor="start" x="187" y="-97.4" font-family="Fira Mono Medium" font-style="italic" font-size="12.00">kind:</text>
<text text-anchor="start" x="225" y="-97.4" font-family="Fira Mono Medium" font-size="12.00"> wolf</text>
</g>
<!-- node_4&#45;&gt;node_1 -->
<g id="edge5" class="edge">
<title>node_4&#45;&gt;node_1</title>
<path fill="none" stroke="black" d="M271.09,-98.66C297.29,-94.4 330.95,-88.93 360.94,-84.05"/>
<polygon fill="black" stroke="black" points="361.65,-87.48 370.96,-82.42 360.52,-80.57 361.65,-87.48"/>
<text text-anchor="middle" x="328.5" y="-96" font-family="Fira Mono Medium" font-size="10.00">at</text>
</g>
</g>
</svg>
