<?xml version="1.0" encoding="UTF-8" standalone="no"?>
<!DOCTYPE svg PUBLIC "-//W3C//DTD SVG 1.1//EN"
 "http://www.w3.org/Graphics/SVG/1.1/DTD/svg11.dtd">
<!-- Generated by graphviz version 2.43.0 (0)
 -->
<!-- Title: %3 Pages: 1 -->
<svg width="498pt" height="128pt"
 viewBox="0.00 0.00 498.00 128.00" xmlns="http://www.w3.org/2000/svg" xmlns:xlink="http://www.w3.org/1999/xlink">
<g id="graph0" class="graph" transform="scale(1 1) rotate(0) translate(4 124)">
<title>%3</title>
<polygon fill="white" stroke="transparent" points="-4,4 -4,-124 494,-124 494,4 -4,4"/>
<!-- node_0 -->
<g id="node1" class="node">
<title>node_0</title>
<polygon fill="none" stroke="black" points="275,-36 153,-36 153,0 275,0 275,-36"/>
<text text-anchor="start" x="198.5" y="-21.4" font-family="Fira Mono Medium" font-weight="bold" font-size="12.00">side</text>
<text text-anchor="start" x="161" y="-9.4" font-family="Fira Mono Medium" font-style="italic" font-size="12.00">location:</text>
<text text-anchor="start" x="229" y="-9.4" font-family="Fira Mono Medium" font-size="12.00"> left</text>
</g>
<!-- node_1 -->
<g id="node2" class="node">
<title>node_1</title>
<polygon fill="none" stroke="black" points="490,-80 360,-80 360,-44 490,-44 490,-80"/>
<text text-anchor="start" x="409.5" y="-65.4" font-family="Fira Mono Medium" font-weight="bold" font-size="12.00">side</text>
<text text-anchor="start" x="368" y="-53.4" font-family="Fira Mono Medium" font-style="italic" font-size="12.00">location:</text>
<text text-anchor="start" x="436" y="-53.4" font-family="Fira Mono Medium" font-size="12.00"> right</text>
</g>
<!-- node_0&#45;&gt;node_1 -->
<g id="edge1" class="edge">
<title>node_0&#45;&gt;node_1</title>
<path fill="none" stroke="black" d="M275.17,-30.67C298.49,-35.58 325.42,-41.25 349.91,-46.4"/>
<polygon fill="black" stroke="black" points="349.37,-49.87 359.88,-48.5 350.82,-43.02 349.37,-49.87"/>
<text text-anchor="middle" x="317.5" y="-46" font-family="Fira Mono Medium" font-size="10.00">opposite</text>
</g>
<!-- node_1&#45;&gt;node_0 -->
<g id="edge2" class="edge">
<title>node_1&#45;&gt;node_0</title>
<path fill="none" stroke="black" d="M397.24,-43.8C381.82,-34.41 361.65,-23.92 342,-19 323.95,-14.48 304.01,-12.83 285.37,-12.65"/>
<polygon fill="black" stroke="black" points="285.16,-9.15 275.18,-12.69 285.19,-16.15 285.16,-9.15"/>
<text text-anchor="middle" x="317.5" y="-22" font-family="Fira Mono Medium" font-size="10.00">opposite</text>
</g>
<!-- node_2 -->
<g id="node3" class="node">
<title>node_2</title>
<polygon fill="none" stroke="black" points="73,-36 19,-36 19,0 73,0 73,-36"/>
<text text-anchor="start" x="30.5" y="-15.9" font-family="Fira Mono Medium" font-weight="bold" font-size="12.00">boat</text>
</g>
<!-- node_2&#45;&gt;node_0 -->
<g id="edge3" class="edge">
<title>node_2&#45;&gt;node_0</title>
<path fill="none" stroke="black" d="M73.3,-18C92.02,-18 118.12,-18 142.69,-18"/>
<polygon fill="black" stroke="black" points="142.74,-21.5 152.74,-18 142.74,-14.5 142.74,-21.5"/>
<text text-anchor="middle" x="122.5" y="-21" font-family="Fira Mono Medium" font-size="10.00">at</text>
</g>
<!-- node_3 -->
<g id="node4" class="node">
<title>node_3</title>
<polygon fill="none" stroke="black" points="260,-93 168,-93 168,-57 260,-57 260,-93"/>
<text text-anchor="start" x="195" y="-78.4" font-family="Fira Mono Medium" font-weight="bold" font-size="12.00">cargo</text>
<text text-anchor="start" x="176" y="-66.4" font-family="Fira Mono Medium" font-style="italic" font-size="12.00">kind:</text>
<text text-anchor="start" x="214" y="-66.4" font-family="Fira Mono Medium" font-size="12.00"> goat</text>
</g>
<!-- node_3&#45;&gt;node_1 -->
<g id="edge4" class="edge">
<title>node_3&#45;&gt;node_1</title>
<path fill="none" stroke="black" d="M260.09,-72.2C286.29,-70.57 319.95,-68.47 349.94,-66.61"/>
<polygon fill="black" stroke="black" points="350.19,-70.1 359.96,-65.98 349.76,-63.11 350.19,-70.1"/>
<text text-anchor="middle" x="317.5" y="-73" font-family="Fira Mono Medium" font-size="10.00">at</text>
</g>
<!-- node_4 -->
<g id="node5" class="node">
<title>node_4</title>
<polygon fill="none" stroke="black" points="92,-120 0,-120 0,-84 92,-84 92,-120"/>
<text text-anchor="start" x="27" y="-105.4" font-family="Fira Mono Medium" font-weight="bold" font-size="12.00">cargo</text>
<text text-anchor="start" x="8" y="-93.4" font-family="Fira Mono Medium" font-style="italic" font-size="12.00">kind:</text>
<text text-anchor="start" x="46" y="-93.4" font-family="Fira Mono Medium" font-size="12.00"> wolf</text>
</g>
<!-- node_4&#45;&gt;node_1 -->
<g id="edge6" class="edge">
<title>node_4&#45;&gt;node_1</title>
<path fill="none" stroke="black" d="M92.07,-105.21C98.09,-105.54 104.19,-105.82 110,-106 165,-107.74 245.44,-106.12 275,-102 305.43,-97.76 312.32,-92.93 342,-85 344.75,-84.27 347.54,-83.51 350.36,-82.75"/>
<polygon fill="black" stroke="black" points="351.3,-86.12 360.03,-80.11 349.46,-79.37 351.3,-86.12"/>
<text text-anchor="middle" x="214" y="-109" font-family="Fira Mono Medium" font-size="10.00">at</text>
</g>
<!-- node_4&#45;&gt;node_3 -->
<g id="edge5" class="edge">
<title>node_4&#45;&gt;node_3</title>
<path fill="none" stroke="black" d="M92.36,-94.62C112.66,-91.32 136.78,-87.4 158.09,-83.93"/>
<polygon fill="black" stroke="black" points="158.67,-87.38 167.98,-82.32 157.55,-80.47 158.67,-87.38"/>
<text text-anchor="middle" x="122.5" y="-94" font-family="Fira Mono Medium" font-size="10.00">eats</text>
</g>
</g>
</svg>
