<?xml version="1.0" encoding="UTF-8" standalone="no"?>
<!DOCTYPE svg PUBLIC "-//W3C//DTD SVG 1.1//EN"
 "http://www.w3.org/Graphics/SVG/1.1/DTD/svg11.dtd">
<!-- Generated by graphviz version 2.43.0 (0)
 -->
<!-- Title: %3 Pages: 1 -->
<svg width="448pt" height="105pt"
 viewBox="0.00 0.00 448.00 105.00" xmlns="http://www.w3.org/2000/svg" xmlns:xlink="http://www.w3.org/1999/xlink">
<g id="graph0" class="graph" transform="scale(1 1) rotate(0) translate(4 101)">
<title>%3</title>
<polygon fill="white" stroke="transparent" points="-4,4 -4,-101 444,-101 444,4 -4,4"/>
<!-- node_0 -->
<g id="node1" class="node">
<title>node_0</title>
<polygon fill="none" stroke="black" points="225,-36 103,-36 103,0 225,0 225,-36"/>
<text text-anchor="start" x="148.5" y="-21.4" font-family="Fira Mono Medium" font-weight="bold" font-size="12.00">side</text>
<text text-anchor="start" x="111" y="-9.4" font-family="Fira Mono Medium" font-style="italic" font-size="12.00">location:</text>
<text text-anchor="start" x="179" y="-9.4" font-family="Fira Mono Medium" font-size="12.00"> left</text>
</g>
<!-- node_1 -->
<g id="node2" class="node">
<title>node_1</title>
<polygon fill="none" stroke="black" points="440,-63 310,-63 310,-27 440,-27 440,-63"/>
<text text-anchor="start" x="359.5" y="-48.4" font-family="Fira Mono Medium" font-weight="bold" font-size="12.00">side</text>
<text text-anchor="start" x="318" y="-36.4" font-family="Fira Mono Medium" font-style="italic" font-size="12.00">location:</text>
<text text-anchor="start" x="386" y="-36.4" font-family="Fira Mono Medium" font-size="12.00"> right</text>
</g>
<!-- node_0&#45;&gt;node_1 -->
<g id="edge1" class="edge">
<title>node_0&#45;&gt;node_1</title>
<path fill="none" stroke="black" d="M225.17,-25.77C248.49,-28.79 275.42,-32.26 299.91,-35.43"/>
<polygon fill="black" stroke="black" points="299.51,-38.91 309.88,-36.72 300.41,-31.96 299.51,-38.91"/>
<text text-anchor="middle" x="267.5" y="-36" font-family="Fira Mono Medium" font-size="10.00">opposite</text>
</g>
<!-- node_1&#45;&gt;node_0 -->
<g id="edge2" class="edge">
<title>node_1&#45;&gt;node_0</title>
<path fill="none" stroke="black" d="M336.49,-26.98C322.82,-21.33 307.02,-15.83 292,-13 273.79,-9.57 253.87,-8.93 235.32,-9.62"/>
<polygon fill="black" stroke="black" points="234.98,-6.13 225.17,-10.13 235.33,-13.12 234.98,-6.13"/>
<text text-anchor="middle" x="267.5" y="-16" font-family="Fira Mono Medium" font-size="10.00">opposite</text>
</g>
<!-- node_2 -->
<g id="node3" class="node">
<title>node_2</title>
<polygon fill="none" stroke="black" points="54,-36 0,-36 0,0 54,0 54,-36"/>
<text text-anchor="start" x="11.5" y="-15.9" font-family="Fira Mono Medium" font-weight="bold" font-size="12.00">boat</text>
</g>
<!-- node_2&#45;&gt;node_0 -->
<g id="edge3" class="edge">
<title>node_2&#45;&gt;node_0</title>
<path fill="none" stroke="black" d="M54.03,-18C65.25,-18 78.97,-18 92.84,-18"/>
<polygon fill="black" stroke="black" points="92.93,-21.5 102.93,-18 92.93,-14.5 92.93,-21.5"/>
<text text-anchor="middle" x="78.5" y="-21" font-family="Fira Mono Medium" font-size="10.00">at</text>
</g>
<!-- node_3 -->
<g id="node4" class="node">
<title>node_3</title>
<polygon fill="none" stroke="black" points="210,-97 118,-97 118,-61 210,-61 210,-97"/>
<text text-anchor="start" x="145" y="-82.4" font-family="Fira Mono Medium" font-weight="bold" font-size="12.00">cargo</text>
<text text-anchor="start" x="126" y="-70.4" font-family="Fira Mono Medium" font-style="italic" font-size="12.00">kind:</text>
<text text-anchor="start" x="164" y="-70.4" font-family="Fira Mono Medium" font-size="12.00"> wolf</text>
</g>
<!-- node_3&#45;&gt;node_1 -->
<g id="edge4" class="edge">
<title>node_3&#45;&gt;node_1</title>
<path fill="none" stroke="black" d="M210.09,-71.66C236.29,-67.4 269.95,-61.93 299.94,-57.05"/>
<polygon fill="black" stroke="black" points="300.65,-60.48 309.96,-55.42 299.52,-53.57 300.65,-60.48"/>
<text text-anchor="middle" x="267.5" y="-69" font-family="Fira Mono Medium" font-size="10.00">at</text>
</g>
</g>
</svg>
