<?xml version="1.0" encoding="UTF-8" standalone="no"?>
<!DOCTYPE svg PUBLIC "-//W3C//DTD SVG 1.1//EN"
 "http://www.w3.org/Graphics/SVG/1.1/DTD/svg11.dtd">
<!-- Generated by graphviz version 2.43.0 (0)
 -->
<!-- Title: %3 Pages: 1 -->
<svg width="815pt" height="182pt"
 viewBox="0.00 0.00 815.00 182.00" xmlns="http://www.w3.org/2000/svg" xmlns:xlink="http://www.w3.org/1999/xlink">
<g id="graph0" class="graph" transform="scale(1 1) rotate(0) translate(4 178)">
<title>%3</title>
<polygon fill="white" stroke="transparent" points="-4,4 -4,-178 811,-178 811,4 -4,4"/>
<!-- node_0 -->
<g id="node1" class="node">
<title>node_0</title>
<polygon fill="none" stroke="black" points="592,-36 470,-36 470,0 592,0 592,-36"/>
<text text-anchor="start" x="515.5" y="-21.4" font-family="Fira Mono Medium" font-weight="bold" font-size="12.00">side</text>
<text text-anchor="start" x="478" y="-9.4" font-family="Fira Mono Medium" font-style="italic" font-size="12.00">location:</text>
<text text-anchor="start" x="546" y="-9.4" font-family="Fira Mono Medium" font-size="12.00"> left</text>
</g>
<!-- node_1 -->
<g id="node2" class="node">
<title>node_1</title>
<polygon fill="none" stroke="black" points="807,-82 677,-82 677,-46 807,-46 807,-82"/>
<text text-anchor="start" x="726.5" y="-67.4" font-family="Fira Mono Medium" font-weight="bold" font-size="12.00">side</text>
<text text-anchor="start" x="685" y="-55.4" font-family="Fira Mono Medium" font-style="italic" font-size="12.00">location:</text>
<text text-anchor="start" x="753" y="-55.4" font-family="Fira Mono Medium" font-size="12.00"> right</text>
</g>
<!-- node_0&#45;&gt;node_1 -->
<g id="edge1" class="edge">
<title>node_0&#45;&gt;node_1</title>
<path fill="none" stroke="black" d="M592.08,-26.27C613.34,-29.63 637.35,-33.93 659,-39 664.34,-40.25 669.85,-41.66 675.36,-43.16"/>
<polygon fill="black" stroke="black" points="674.67,-46.6 685.25,-45.93 676.56,-39.86 674.67,-46.6"/>
<text text-anchor="middle" x="634.5" y="-42" font-family="Fira Mono Medium" font-size="10.00">opposite</text>
</g>
<!-- node_1&#45;&gt;node_0 -->
<g id="edge2" class="edge">
<title>node_1&#45;&gt;node_0</title>
<path fill="none" stroke="black" d="M718.51,-46C702.85,-34.65 680.9,-21.05 659,-15 641.06,-10.05 621.15,-8.69 602.52,-9.09"/>
<polygon fill="black" stroke="black" points="602.18,-5.6 592.32,-9.48 602.45,-12.59 602.18,-5.6"/>
<text text-anchor="middle" x="634.5" y="-18" font-family="Fira Mono Medium" font-size="10.00">opposite</text>
</g>
<!-- node_2 -->
<g id="node3" class="node">
<title>node_2</title>
<polygon fill="none" stroke="black" points="558,-174 504,-174 504,-138 558,-138 558,-174"/>
<text text-anchor="start" x="515.5" y="-153.9" font-family="Fira Mono Medium" font-weight="bold" font-size="12.00">boat</text>
</g>
<!-- node_2&#45;&gt;node_1 -->
<g id="edge3" class="edge">
<title>node_2&#45;&gt;node_1</title>
<path fill="none" stroke="black" d="M558.29,-152.4C584.7,-148.1 626.07,-139.47 659,-124 678.4,-114.89 697.85,-100.91 712.94,-88.74"/>
<polygon fill="black" stroke="black" points="715.37,-91.27 720.85,-82.2 710.91,-85.87 715.37,-91.27"/>
<text text-anchor="middle" x="634.5" y="-143" font-family="Fira Mono Medium" font-size="10.00">at</text>
</g>
<!-- node_3 -->
<g id="node4" class="node">
<title>node_3</title>
<polygon fill="none" stroke="black" points="421,-36 306,-36 306,0 421,0 421,-36"/>
<text text-anchor="start" x="344.5" y="-21.4" font-family="Fira Mono Medium" font-weight="bold" font-size="12.00">cargo</text>
<text text-anchor="start" x="314" y="-9.4" font-family="Fira Mono Medium" font-style="italic" font-size="12.00">kind:</text>
<text text-anchor="start" x="352" y="-9.4" font-family="Fira Mono Medium" font-size="12.00"> cabbage</text>
</g>
<!-- node_3&#45;&gt;node_0 -->
<g id="edge4" class="edge">
<title>node_3&#45;&gt;node_0</title>
<path fill="none" stroke="black" d="M421.46,-18C433.78,-18 446.95,-18 459.71,-18"/>
<polygon fill="black" stroke="black" points="459.84,-21.5 469.84,-18 459.84,-14.5 459.84,-21.5"/>
<text text-anchor="middle" x="445.5" y="-21" font-family="Fira Mono Medium" font-size="10.00">at</text>
</g>
<!-- node_4 -->
<g id="node5" class="node">
<title>node_4</title>
<polygon fill="none" stroke="black" points="245,-82 153,-82 153,-46 245,-46 245,-82"/>
<text text-anchor="start" x="180" y="-67.4" font-family="Fira Mono Medium" font-weight="bold" font-size="12.00">cargo</text>
<text text-anchor="start" x="161" y="-55.4" font-family="Fira Mono Medium" font-style="italic" font-size="12.00">kind:</text>
<text text-anchor="start" x="199" y="-55.4" font-family="Fira Mono Medium" font-size="12.00"> goat</text>
</g>
<!-- node_4&#45;&gt;node_1 -->
<g id="edge6" class="edge">
<title>node_4&#45;&gt;node_1</title>
<path fill="none" stroke="black" d="M245.19,-64C338.38,-64 552.64,-64 666.58,-64"/>
<polygon fill="black" stroke="black" points="666.62,-67.5 676.62,-64 666.62,-60.5 666.62,-67.5"/>
<text text-anchor="middle" x="445.5" y="-67" font-family="Fira Mono Medium" font-size="10.00">at</text>
</g>
<!-- node_4&#45;&gt;node_3 -->
<g id="edge5" class="edge">
<title>node_4&#45;&gt;node_3</title>
<path fill="none" stroke="black" d="M242.69,-45.93C249.42,-43.41 256.35,-41 263,-39 273.48,-35.84 284.73,-32.98 295.75,-30.45"/>
<polygon fill="black" stroke="black" points="296.77,-33.81 305.77,-28.24 295.25,-26.98 296.77,-33.81"/>
<text text-anchor="middle" x="275.5" y="-42" font-family="Fira Mono Medium" font-size="10.00">eats</text>
</g>
<!-- node_5 -->
<g id="node6" class="node">
<title>node_5</title>
<polygon fill="none" stroke="black" points="92,-105 0,-105 0,-69 92,-69 92,-105"/>
<text text-anchor="start" x="27" y="-90.4" font-family="Fira Mono Medium" font-weight="bold" font-size="12.00">cargo</text>
<text text-anchor="start" x="8" y="-78.4" font-family="Fira Mono Medium" font-style="italic" font-size="12.00">kind:</text>
<text text-anchor="start" x="46" y="-78.4" font-family="Fira Mono Medium" font-size="12.00"> wolf</text>
</g>
<!-- node_5&#45;&gt;node_1 -->
<g id="edge8" class="edge">
<title>node_5&#45;&gt;node_1</title>
<path fill="none" stroke="black" d="M92.32,-97.56C122.17,-103.6 162.2,-110 198,-110 198,-110 198,-110 532,-110 582.39,-110 638.05,-97.09 679.25,-84.95"/>
<polygon fill="black" stroke="black" points="680.31,-88.28 688.87,-82.05 678.29,-81.58 680.31,-88.28"/>
<text text-anchor="middle" x="363.5" y="-113" font-family="Fira Mono Medium" font-size="10.00">at</text>
</g>
<!-- node_5&#45;&gt;node_4 -->
<g id="edge7" class="edge">
<title>node_5&#45;&gt;node_4</title>
<path fill="none" stroke="black" d="M92.3,-80.1C108.2,-77.68 126.24,-74.93 142.86,-72.4"/>
<polygon fill="black" stroke="black" points="143.63,-75.82 152.99,-70.86 142.57,-68.9 143.63,-75.82"/>
<text text-anchor="middle" x="122.5" y="-79" font-family="Fira Mono Medium" font-size="10.00">eats</text>
</g>
</g>
</svg>
