<?xml version="1.0" encoding="UTF-8" standalone="no"?>
<!DOCTYPE svg PUBLIC "-//W3C//DTD SVG 1.1//EN"
 "http://www.w3.org/Graphics/SVG/1.1/DTD/svg11.dtd">
<!-- Generated by graphviz version 2.43.0 (0)
 -->
<!-- Title: %3 Pages: 1 -->
<svg width="651pt" height="136pt"
 viewBox="0.00 0.00 651.00 136.00" xmlns="http://www.w3.org/2000/svg" xmlns:xlink="http://www.w3.org/1999/xlink">
<g id="graph0" class="graph" transform="scale(1 1) rotate(0) translate(4 132)">
<title>%3</title>
<polygon fill="white" stroke="transparent" points="-4,4 -4,-132 647,-132 647,4 -4,4"/>
<!-- node_0 -->
<g id="node1" class="node">
<title>node_0</title>
<polygon fill="none" stroke="black" points="428,-36 306,-36 306,0 428,0 428,-36"/>
<text text-anchor="start" x="351.5" y="-21.4" font-family="Fira Mono Medium" font-weight="bold" font-size="12.00">side</text>
<text text-anchor="start" x="314" y="-9.4" font-family="Fira Mono Medium" font-style="italic" font-size="12.00">location:</text>
<text text-anchor="start" x="382" y="-9.4" font-family="Fira Mono Medium" font-size="12.00"> left</text>
</g>
<!-- node_1 -->
<g id="node2" class="node">
<title>node_1</title>
<polygon fill="none" stroke="black" points="643,-80 513,-80 513,-44 643,-44 643,-80"/>
<text text-anchor="start" x="562.5" y="-65.4" font-family="Fira Mono Medium" font-weight="bold" font-size="12.00">side</text>
<text text-anchor="start" x="521" y="-53.4" font-family="Fira Mono Medium" font-style="italic" font-size="12.00">location:</text>
<text text-anchor="start" x="589" y="-53.4" font-family="Fira Mono Medium" font-size="12.00"> right</text>
</g>
<!-- node_0&#45;&gt;node_1 -->
<g id="edge1" class="edge">
<title>node_0&#45;&gt;node_1</title>
<path fill="none" stroke="black" d="M428.01,-7.41C449.48,-5.64 473.64,-6 495,-12 513.52,-17.2 532,-27.87 546.71,-38.02"/>
<polygon fill="black" stroke="black" points="544.75,-40.91 554.92,-43.89 548.82,-35.22 544.75,-40.91"/>
<text text-anchor="middle" x="470.5" y="-15" font-family="Fira Mono Medium" font-size="10.00">opposite</text>
</g>
<!-- node_1&#45;&gt;node_0 -->
<g id="edge2" class="edge">
<title>node_1&#45;&gt;node_0</title>
<path fill="none" stroke="black" d="M512.88,-48.5C489.18,-43.51 462.2,-37.83 438,-32.74"/>
<polygon fill="black" stroke="black" points="438.68,-29.3 428.17,-30.67 437.24,-36.15 438.68,-29.3"/>
<text text-anchor="middle" x="470.5" y="-46" font-family="Fira Mono Medium" font-size="10.00">opposite</text>
</g>
<!-- node_2 -->
<g id="node3" class="node">
<title>node_2</title>
<polygon fill="none" stroke="black" points="226,-74 172,-74 172,-38 226,-38 226,-74"/>
<text text-anchor="start" x="183.5" y="-53.9" font-family="Fira Mono Medium" font-weight="bold" font-size="12.00">boat</text>
</g>
<!-- node_2&#45;&gt;node_0 -->
<g id="edge3" class="edge">
<title>node_2&#45;&gt;node_0</title>
<path fill="none" stroke="black" d="M226.3,-49.98C245.02,-45.69 271.12,-39.72 295.69,-34.09"/>
<polygon fill="black" stroke="black" points="296.77,-37.44 305.74,-31.79 295.21,-30.61 296.77,-37.44"/>
<text text-anchor="middle" x="275.5" y="-44" font-family="Fira Mono Medium" font-size="10.00">at</text>
</g>
<!-- node_3 -->
<g id="node4" class="node">
<title>node_3</title>
<polygon fill="none" stroke="black" points="424.5,-93 309.5,-93 309.5,-57 424.5,-57 424.5,-93"/>
<text text-anchor="start" x="348" y="-78.4" font-family="Fira Mono Medium" font-weight="bold" font-size="12.00">cargo</text>
<text text-anchor="start" x="317.5" y="-66.4" font-family="Fira Mono Medium" font-style="italic" font-size="12.00">kind:</text>
<text text-anchor="start" x="355.5" y="-66.4" font-family="Fira Mono Medium" font-size="12.00"> cabbage</text>
</g>
<!-- node_3&#45;&gt;node_1 -->
<g id="edge4" class="edge">
<title>node_3&#45;&gt;node_1</title>
<path fill="none" stroke="black" d="M424.56,-71.48C448.57,-69.99 476.9,-68.23 502.57,-66.63"/>
<polygon fill="black" stroke="black" points="502.88,-70.12 512.64,-66 502.44,-63.13 502.88,-70.12"/>
<text text-anchor="middle" x="470.5" y="-73" font-family="Fira Mono Medium" font-size="10.00">at</text>
</g>
<!-- node_4 -->
<g id="node5" class="node">
<title>node_4</title>
<polygon fill="none" stroke="black" points="245,-128 153,-128 153,-92 245,-92 245,-128"/>
<text text-anchor="start" x="180" y="-113.4" font-family="Fira Mono Medium" font-weight="bold" font-size="12.00">cargo</text>
<text text-anchor="start" x="161" y="-101.4" font-family="Fira Mono Medium" font-style="italic" font-size="12.00">kind:</text>
<text text-anchor="start" x="199" y="-101.4" font-family="Fira Mono Medium" font-size="12.00"> goat</text>
</g>
<!-- node_4&#45;&gt;node_1 -->
<g id="edge6" class="edge">
<title>node_4&#45;&gt;node_1</title>
<path fill="none" stroke="black" d="M245.08,-110.8C251.11,-110.88 257.2,-110.95 263,-111 336.44,-111.58 355.45,-113.44 428,-102 458.35,-97.22 465.32,-92.93 495,-85 497.75,-84.27 500.54,-83.51 503.36,-82.75"/>
<polygon fill="black" stroke="black" points="504.3,-86.12 513.03,-80.11 502.46,-79.37 504.3,-86.12"/>
<text text-anchor="middle" x="367" y="-114" font-family="Fira Mono Medium" font-size="10.00">at</text>
</g>
<!-- node_4&#45;&gt;node_3 -->
<g id="edge5" class="edge">
<title>node_4&#45;&gt;node_3</title>
<path fill="none" stroke="black" d="M245.36,-100.44C262.05,-96.92 281.31,-92.86 299.47,-89.03"/>
<polygon fill="black" stroke="black" points="300.36,-92.42 309.42,-86.93 298.92,-85.57 300.36,-92.42"/>
<text text-anchor="middle" x="275.5" y="-99" font-family="Fira Mono Medium" font-size="10.00">eats</text>
</g>
<!-- node_5 -->
<g id="node6" class="node">
<title>node_5</title>
<polygon fill="none" stroke="black" points="92,-43 0,-43 0,-7 92,-7 92,-43"/>
<text text-anchor="start" x="27" y="-28.4" font-family="Fira Mono Medium" font-weight="bold" font-size="12.00">cargo</text>
<text text-anchor="start" x="8" y="-16.4" font-family="Fira Mono Medium" font-style="italic" font-size="12.00">kind:</text>
<text text-anchor="start" x="46" y="-16.4" font-family="Fira Mono Medium" font-size="12.00"> wolf</text>
</g>
<!-- node_5&#45;&gt;node_0 -->
<g id="edge8" class="edge">
<title>node_5&#45;&gt;node_0</title>
<path fill="none" stroke="black" d="M92.1,-21.36C110.91,-20.02 133,-18.66 153,-18 200.63,-16.43 254.29,-16.44 295.83,-16.84"/>
<polygon fill="black" stroke="black" points="295.81,-20.34 305.85,-16.94 295.88,-13.34 295.81,-20.34"/>
<text text-anchor="middle" x="199" y="-21" font-family="Fira Mono Medium" font-size="10.00">at</text>
</g>
<!-- node_5&#45;&gt;node_4 -->
<g id="edge7" class="edge">
<title>node_5&#45;&gt;node_4</title>
<path fill="none" stroke="black" d="M79.02,-43.03C101.85,-55.87 132.71,-73.25 157.28,-87.08"/>
<polygon fill="black" stroke="black" points="155.59,-90.14 166.02,-92 159.03,-84.04 155.59,-90.14"/>
<text text-anchor="middle" x="122.5" y="-75" font-family="Fira Mono Medium" font-size="10.00">eats</text>
</g>
</g>
</svg>
