<?xml version="1.0" encoding="UTF-8" standalone="no"?>
<!DOCTYPE svg PUBLIC "-//W3C//DTD SVG 1.1//EN"
 "http://www.w3.org/Graphics/SVG/1.1/DTD/svg11.dtd">
<!-- Generated by graphviz version 2.43.0 (0)
 -->
<!-- Title: %3 Pages: 1 -->
<svg width="639pt" height="136pt"
 viewBox="0.00 0.00 639.00 136.00" xmlns="http://www.w3.org/2000/svg" xmlns:xlink="http://www.w3.org/1999/xlink">
<g id="graph0" class="graph" transform="scale(1 1) rotate(0) translate(4 132)">
<title>%3</title>
<polygon fill="white" stroke="transparent" points="-4,4 -4,-132 635,-132 635,4 -4,4"/>
<!-- node_0 -->
<g id="node1" class="node">
<title>node_0</title>
<polygon fill="none" stroke="black" points="416,-36 294,-36 294,0 416,0 416,-36"/>
<text text-anchor="start" x="339.5" y="-21.4" font-family="Fira Mono Medium" font-weight="bold" font-size="12.00">side</text>
<text text-anchor="start" x="302" y="-9.4" font-family="Fira Mono Medium" font-style="italic" font-size="12.00">location:</text>
<text text-anchor="start" x="370" y="-9.4" font-family="Fira Mono Medium" font-size="12.00"> left</text>
</g>
<!-- node_1 -->
<g id="node2" class="node">
<title>node_1</title>
<polygon fill="none" stroke="black" points="631,-69 501,-69 501,-33 631,-33 631,-69"/>
<text text-anchor="start" x="550.5" y="-54.4" font-family="Fira Mono Medium" font-weight="bold" font-size="12.00">side</text>
<text text-anchor="start" x="509" y="-42.4" font-family="Fira Mono Medium" font-style="italic" font-size="12.00">location:</text>
<text text-anchor="start" x="577" y="-42.4" font-family="Fira Mono Medium" font-size="12.00"> right</text>
</g>
<!-- node_0&#45;&gt;node_1 -->
<g id="edge1" class="edge">
<title>node_0&#45;&gt;node_1</title>
<path fill="none" stroke="black" d="M416.17,-27.5C439.49,-31.18 466.42,-35.43 490.91,-39.3"/>
<polygon fill="black" stroke="black" points="490.46,-42.77 500.88,-40.88 491.55,-35.86 490.46,-42.77"/>
<text text-anchor="middle" x="458.5" y="-40" font-family="Fira Mono Medium" font-size="10.00">opposite</text>
</g>
<!-- node_1&#45;&gt;node_0 -->
<g id="edge2" class="edge">
<title>node_1&#45;&gt;node_0</title>
<path fill="none" stroke="black" d="M532.14,-32.85C517.55,-25.78 499.89,-18.54 483,-15 464.88,-11.2 444.98,-10.21 426.43,-10.6"/>
<polygon fill="black" stroke="black" points="426.15,-7.11 416.28,-10.95 426.39,-14.11 426.15,-7.11"/>
<text text-anchor="middle" x="458.5" y="-18" font-family="Fira Mono Medium" font-size="10.00">opposite</text>
</g>
<!-- node_2 -->
<g id="node3" class="node">
<title>node_2</title>
<polygon fill="none" stroke="black" points="382,-128 328,-128 328,-92 382,-92 382,-128"/>
<text text-anchor="start" x="339.5" y="-107.9" font-family="Fira Mono Medium" font-weight="bold" font-size="12.00">boat</text>
</g>
<!-- node_2&#45;&gt;node_1 -->
<g id="edge3" class="edge">
<title>node_2&#45;&gt;node_1</title>
<path fill="none" stroke="black" d="M382.42,-103.92C408.21,-97.86 448.5,-88.01 483,-78 489.14,-76.22 495.51,-74.28 501.86,-72.29"/>
<polygon fill="black" stroke="black" points="503.33,-75.49 511.8,-69.13 501.21,-68.82 503.33,-75.49"/>
<text text-anchor="middle" x="458.5" y="-94" font-family="Fira Mono Medium" font-size="10.00">at</text>
</g>
<!-- node_3 -->
<g id="node4" class="node">
<title>node_3</title>
<polygon fill="none" stroke="black" points="245,-36 153,-36 153,0 245,0 245,-36"/>
<text text-anchor="start" x="180" y="-21.4" font-family="Fira Mono Medium" font-weight="bold" font-size="12.00">cargo</text>
<text text-anchor="start" x="161" y="-9.4" font-family="Fira Mono Medium" font-style="italic" font-size="12.00">kind:</text>
<text text-anchor="start" x="199" y="-9.4" font-family="Fira Mono Medium" font-size="12.00"> goat</text>
</g>
<!-- node_3&#45;&gt;node_0 -->
<g id="edge4" class="edge">
<title>node_3&#45;&gt;node_0</title>
<path fill="none" stroke="black" d="M245.37,-18C257.34,-18 270.55,-18 283.51,-18"/>
<polygon fill="black" stroke="black" points="283.82,-21.5 293.82,-18 283.82,-14.5 283.82,-21.5"/>
<text text-anchor="middle" x="269.5" y="-21" font-family="Fira Mono Medium" font-size="10.00">at</text>
</g>
<!-- node_4 -->
<g id="node5" class="node">
<title>node_4</title>
<polygon fill="none" stroke="black" points="92,-59 0,-59 0,-23 92,-23 92,-59"/>
<text text-anchor="start" x="27" y="-44.4" font-family="Fira Mono Medium" font-weight="bold" font-size="12.00">cargo</text>
<text text-anchor="start" x="8" y="-32.4" font-family="Fira Mono Medium" font-style="italic" font-size="12.00">kind:</text>
<text text-anchor="start" x="46" y="-32.4" font-family="Fira Mono Medium" font-size="12.00"> wolf</text>
</g>
<!-- node_4&#45;&gt;node_1 -->
<g id="edge6" class="edge">
<title>node_4&#45;&gt;node_1</title>
<path fill="none" stroke="black" d="M92.07,-44.12C98.09,-44.47 104.2,-44.77 110,-45 253.91,-50.68 289.99,-48.34 434,-50 452.33,-50.21 472.09,-50.39 490.58,-50.53"/>
<polygon fill="black" stroke="black" points="490.67,-54.03 500.7,-50.61 490.73,-47.03 490.67,-54.03"/>
<text text-anchor="middle" x="269.5" y="-52" font-family="Fira Mono Medium" font-size="10.00">at</text>
</g>
<!-- node_4&#45;&gt;node_3 -->
<g id="edge5" class="edge">
<title>node_4&#45;&gt;node_3</title>
<path fill="none" stroke="black" d="M92.3,-34.1C108.2,-31.68 126.24,-28.93 142.86,-26.4"/>
<polygon fill="black" stroke="black" points="143.63,-29.82 152.99,-24.86 142.57,-22.9 143.63,-29.82"/>
<text text-anchor="middle" x="122.5" y="-33" font-family="Fira Mono Medium" font-size="10.00">eats</text>
</g>
</g>
</svg>
