<?xml version="1.0" encoding="UTF-8" standalone="no"?>
<!DOCTYPE svg PUBLIC "-//W3C//DTD SVG 1.1//EN"
 "http://www.w3.org/Graphics/SVG/1.1/DTD/svg11.dtd">
<!-- Generated by graphviz version 2.43.0 (0)
 -->
<!-- Title: %3 Pages: 1 -->
<svg width="815pt" height="123pt"
 viewBox="0.00 0.00 815.00 122.74" xmlns="http://www.w3.org/2000/svg" xmlns:xlink="http://www.w3.org/1999/xlink">
<g id="graph0" class="graph" transform="scale(1 1) rotate(0) translate(4 118.74)">
<title>%3</title>
<polygon fill="white" stroke="transparent" points="-4,4 -4,-118.74 811,-118.74 811,4 -4,4"/>
<!-- node_0 -->
<g id="node1" class="node">
<title>node_0</title>
<polygon fill="none" stroke="black" points="592,-60.74 470,-60.74 470,-24.74 592,-24.74 592,-60.74"/>
<text text-anchor="start" x="515.5" y="-46.14" font-family="Fira Mono Medium" font-weight="bold" font-size="12.00">side</text>
<text text-anchor="start" x="478" y="-34.14" font-family="Fira Mono Medium" font-style="italic" font-size="12.00">location:</text>
<text text-anchor="start" x="546" y="-34.14" font-family="Fira Mono Medium" font-size="12.00"> left</text>
</g>
<!-- node_1 -->
<g id="node2" class="node">
<title>node_1</title>
<polygon fill="none" stroke="black" points="807,-63.74 677,-63.74 677,-27.74 807,-27.74 807,-63.74"/>
<text text-anchor="start" x="726.5" y="-49.14" font-family="Fira Mono Medium" font-weight="bold" font-size="12.00">side</text>
<text text-anchor="start" x="685" y="-37.14" font-family="Fira Mono Medium" font-style="italic" font-size="12.00">location:</text>
<text text-anchor="start" x="753" y="-37.14" font-family="Fira Mono Medium" font-size="12.00"> right</text>
</g>
<!-- node_0&#45;&gt;node_1 -->
<g id="edge1" class="edge">
<title>node_0&#45;&gt;node_1</title>
<path fill="none" stroke="black" d="M592.17,-43.61C615.38,-43.94 642.18,-44.32 666.58,-44.67"/>
<polygon fill="black" stroke="black" points="666.83,-48.18 676.88,-44.82 666.93,-41.18 666.83,-48.18"/>
<text text-anchor="middle" x="634.5" y="-46.74" font-family="Fira Mono Medium" font-size="10.00">opposite</text>
</g>
<!-- node_1&#45;&gt;node_0 -->
<g id="edge2" class="edge">
<title>node_1&#45;&gt;node_0</title>
<path fill="none" stroke="black" d="M676.74,-31.13C670.76,-30.16 664.79,-29.34 659,-28.74 637.34,-26.52 631.69,-26.81 610,-28.74 607.48,-28.97 604.92,-29.23 602.34,-29.53"/>
<polygon fill="black" stroke="black" points="601.79,-26.07 592.32,-30.82 602.69,-33.01 601.79,-26.07"/>
<text text-anchor="middle" x="634.5" y="-31.74" font-family="Fira Mono Medium" font-size="10.00">opposite</text>
</g>
<!-- node_2 -->
<g id="node3" class="node">
<title>node_2</title>
<polygon fill="none" stroke="black" points="558,-114.74 504,-114.74 504,-78.74 558,-78.74 558,-114.74"/>
<text text-anchor="start" x="515.5" y="-94.64" font-family="Fira Mono Medium" font-weight="bold" font-size="12.00">boat</text>
</g>
<!-- node_2&#45;&gt;node_1 -->
<g id="edge3" class="edge">
<title>node_2&#45;&gt;node_1</title>
<path fill="none" stroke="black" d="M558.05,-90.39C585.17,-83.77 628.9,-73.1 666.81,-63.85"/>
<polygon fill="black" stroke="black" points="667.94,-67.17 676.82,-61.4 666.28,-60.37 667.94,-67.17"/>
<text text-anchor="middle" x="634.5" y="-79.74" font-family="Fira Mono Medium" font-size="10.00">at</text>
</g>
<!-- node_3 -->
<g id="node4" class="node">
<title>node_3</title>
<polygon fill="none" stroke="black" points="421,-59.74 306,-59.74 306,-23.74 421,-23.74 421,-59.74"/>
<text text-anchor="start" x="344.5" y="-45.14" font-family="Fira Mono Medium" font-weight="bold" font-size="12.00">cargo</text>
<text text-anchor="start" x="314" y="-33.14" font-family="Fira Mono Medium" font-style="italic" font-size="12.00">kind:</text>
<text text-anchor="start" x="352" y="-33.14" font-family="Fira Mono Medium" font-size="12.00"> cabbage</text>
</g>
<!-- node_3&#45;&gt;node_0 -->
<g id="edge4" class="edge">
<title>node_3&#45;&gt;node_0</title>
<path fill="none" stroke="black" d="M421.46,-42.09C433.78,-42.16 446.95,-42.24 459.71,-42.32"/>
<polygon fill="black" stroke="black" points="459.81,-45.82 469.84,-42.38 459.86,-38.82 459.81,-45.82"/>
<text text-anchor="middle" x="445.5" y="-44.74" font-family="Fira Mono Medium" font-size="10.00">at</text>
</g>
<!-- node_4 -->
<g id="node5" class="node">
<title>node_4</title>
<polygon fill="none" stroke="black" points="245,-59.74 153,-59.74 153,-23.74 245,-23.74 245,-59.74"/>
<text text-anchor="start" x="180" y="-45.14" font-family="Fira Mono Medium" font-weight="bold" font-size="12.00">cargo</text>
<text text-anchor="start" x="161" y="-33.14" font-family="Fira Mono Medium" font-style="italic" font-size="12.00">kind:</text>
<text text-anchor="start" x="199" y="-33.14" font-family="Fira Mono Medium" font-size="12.00"> goat</text>
</g>
<!-- node_4&#45;&gt;node_1 -->
<g id="edge6" class="edge">
<title>node_4&#45;&gt;node_1</title>
<path fill="none" stroke="black" d="M245.18,-27.59C263.81,-22.45 285.74,-17.28 306,-14.74 461.71,4.78 504.86,6.71 659,-22.74 663.08,-23.52 667.26,-24.41 671.46,-25.37"/>
<polygon fill="black" stroke="black" points="670.73,-28.79 681.27,-27.73 672.36,-21.99 670.73,-28.79"/>
<text text-anchor="middle" x="445.5" y="-3.74" font-family="Fira Mono Medium" font-size="10.00">at</text>
</g>
<!-- node_4&#45;&gt;node_3 -->
<g id="edge5" class="edge">
<title>node_4&#45;&gt;node_3</title>
<path fill="none" stroke="black" d="M245.27,-41.74C260.82,-41.74 278.58,-41.74 295.49,-41.74"/>
<polygon fill="black" stroke="black" points="295.88,-45.24 305.88,-41.74 295.88,-38.24 295.88,-45.24"/>
<text text-anchor="middle" x="275.5" y="-44.74" font-family="Fira Mono Medium" font-size="10.00">eats</text>
</g>
<!-- node_5 -->
<g id="node6" class="node">
<title>node_5</title>
<polygon fill="none" stroke="black" points="92,-82.74 0,-82.74 0,-46.74 92,-46.74 92,-82.74"/>
<text text-anchor="start" x="27" y="-68.14" font-family="Fira Mono Medium" font-weight="bold" font-size="12.00">cargo</text>
<text text-anchor="start" x="8" y="-56.14" font-family="Fira Mono Medium" font-style="italic" font-size="12.00">kind:</text>
<text text-anchor="start" x="46" y="-56.14" font-family="Fira Mono Medium" font-size="12.00"> wolf</text>
</g>
<!-- node_5&#45;&gt;node_0 -->
<g id="edge8" class="edge">
<title>node_5&#45;&gt;node_0</title>
<path fill="none" stroke="black" d="M92.1,-68.92C162.58,-74.62 302.98,-82.62 421,-68.74 433.78,-67.24 447.23,-64.78 460.15,-61.95"/>
<polygon fill="black" stroke="black" points="460.94,-65.36 469.91,-59.73 459.39,-58.54 460.94,-65.36"/>
<text text-anchor="middle" x="275.5" y="-78.74" font-family="Fira Mono Medium" font-size="10.00">at</text>
</g>
<!-- node_5&#45;&gt;node_4 -->
<g id="edge7" class="edge">
<title>node_5&#45;&gt;node_4</title>
<path fill="none" stroke="black" d="M92.3,-57.84C108.2,-55.42 126.24,-52.67 142.86,-50.14"/>
<polygon fill="black" stroke="black" points="143.63,-53.56 152.99,-48.6 142.57,-46.64 143.63,-53.56"/>
<text text-anchor="middle" x="122.5" y="-56.74" font-family="Fira Mono Medium" font-size="10.00">eats</text>
</g>
</g>
</svg>
