<?xml version="1.0" encoding="UTF-8" standalone="no"?>
<!DOCTYPE svg PUBLIC "-//W3C//DTD SVG 1.1//EN"
 "http://www.w3.org/Graphics/SVG/1.1/DTD/svg11.dtd">
<!-- Generated by graphviz version 2.43.0 (0)
 -->
<!-- Title: %3 Pages: 1 -->
<svg width="815pt" height="191pt"
 viewBox="0.00 0.00 815.00 191.00" xmlns="http://www.w3.org/2000/svg" xmlns:xlink="http://www.w3.org/1999/xlink">
<g id="graph0" class="graph" transform="scale(1 1) rotate(0) translate(4 187)">
<title>%3</title>
<polygon fill="white" stroke="transparent" points="-4,4 -4,-187 811,-187 811,4 -4,4"/>
<!-- node_0 -->
<g id="node1" class="node">
<title>node_0</title>
<polygon fill="none" stroke="black" points="592,-83 470,-83 470,-47 592,-47 592,-83"/>
<text text-anchor="start" x="515.5" y="-68.4" font-family="Fira Mono Medium" font-weight="bold" font-size="12.00">side</text>
<text text-anchor="start" x="478" y="-56.4" font-family="Fira Mono Medium" font-style="italic" font-size="12.00">location:</text>
<text text-anchor="start" x="546" y="-56.4" font-family="Fira Mono Medium" font-size="12.00"> left</text>
</g>
<!-- node_1 -->
<g id="node2" class="node">
<title>node_1</title>
<polygon fill="none" stroke="black" points="807,-124 677,-124 677,-88 807,-88 807,-124"/>
<text text-anchor="start" x="726.5" y="-109.4" font-family="Fira Mono Medium" font-weight="bold" font-size="12.00">side</text>
<text text-anchor="start" x="685" y="-97.4" font-family="Fira Mono Medium" font-style="italic" font-size="12.00">location:</text>
<text text-anchor="start" x="753" y="-97.4" font-family="Fira Mono Medium" font-size="12.00"> right</text>
</g>
<!-- node_0&#45;&gt;node_1 -->
<g id="edge1" class="edge">
<title>node_0&#45;&gt;node_1</title>
<path fill="none" stroke="black" d="M592.17,-76.8C615.49,-81.38 642.42,-86.66 666.91,-91.47"/>
<polygon fill="black" stroke="black" points="666.39,-94.93 676.88,-93.42 667.74,-88.06 666.39,-94.93"/>
<text text-anchor="middle" x="634.5" y="-92" font-family="Fira Mono Medium" font-size="10.00">opposite</text>
</g>
<!-- node_1&#45;&gt;node_0 -->
<g id="edge2" class="edge">
<title>node_1&#45;&gt;node_0</title>
<path fill="none" stroke="black" d="M713.03,-87.94C697.73,-79.14 678.05,-69.5 659,-65 640.89,-60.73 620.93,-59.27 602.29,-59.24"/>
<polygon fill="black" stroke="black" points="602.06,-55.74 592.1,-59.36 602.14,-62.74 602.06,-55.74"/>
<text text-anchor="middle" x="634.5" y="-68" font-family="Fira Mono Medium" font-size="10.00">opposite</text>
</g>
<!-- node_2 -->
<g id="node3" class="node">
<title>node_2</title>
<polygon fill="none" stroke="black" points="558,-183 504,-183 504,-147 558,-147 558,-183"/>
<text text-anchor="start" x="515.5" y="-162.9" font-family="Fira Mono Medium" font-weight="bold" font-size="12.00">boat</text>
</g>
<!-- node_2&#45;&gt;node_1 -->
<g id="edge3" class="edge">
<title>node_2&#45;&gt;node_1</title>
<path fill="none" stroke="black" d="M558.42,-158.92C584.21,-152.86 624.5,-143.01 659,-133 665.14,-131.22 671.51,-129.28 677.86,-127.29"/>
<polygon fill="black" stroke="black" points="679.33,-130.49 687.8,-124.13 677.21,-123.82 679.33,-130.49"/>
<text text-anchor="middle" x="634.5" y="-149" font-family="Fira Mono Medium" font-size="10.00">at</text>
</g>
<!-- node_3 -->
<g id="node4" class="node">
<title>node_3</title>
<polygon fill="none" stroke="black" points="421,-36 306,-36 306,0 421,0 421,-36"/>
<text text-anchor="start" x="344.5" y="-21.4" font-family="Fira Mono Medium" font-weight="bold" font-size="12.00">cargo</text>
<text text-anchor="start" x="314" y="-9.4" font-family="Fira Mono Medium" font-style="italic" font-size="12.00">kind:</text>
<text text-anchor="start" x="352" y="-9.4" font-family="Fira Mono Medium" font-size="12.00"> cabbage</text>
</g>
<!-- node_3&#45;&gt;node_0 -->
<g id="edge4" class="edge">
<title>node_3&#45;&gt;node_0</title>
<path fill="none" stroke="black" d="M421.46,-34.17C433.9,-37.71 447.21,-41.49 460.09,-45.15"/>
<polygon fill="black" stroke="black" points="459.26,-48.55 469.84,-47.91 461.17,-41.82 459.26,-48.55"/>
<text text-anchor="middle" x="445.5" y="-44" font-family="Fira Mono Medium" font-size="10.00">at</text>
</g>
<!-- node_4 -->
<g id="node5" class="node">
<title>node_4</title>
<polygon fill="none" stroke="black" points="245,-90 153,-90 153,-54 245,-54 245,-90"/>
<text text-anchor="start" x="180" y="-75.4" font-family="Fira Mono Medium" font-weight="bold" font-size="12.00">cargo</text>
<text text-anchor="start" x="161" y="-63.4" font-family="Fira Mono Medium" font-style="italic" font-size="12.00">kind:</text>
<text text-anchor="start" x="199" y="-63.4" font-family="Fira Mono Medium" font-size="12.00"> goat</text>
</g>
<!-- node_4&#45;&gt;node_0 -->
<g id="edge6" class="edge">
<title>node_4&#45;&gt;node_0</title>
<path fill="none" stroke="black" d="M245.19,-71.04C300.57,-69.87 395.01,-67.86 459.86,-66.49"/>
<polygon fill="black" stroke="black" points="460.07,-69.98 470,-66.27 459.93,-62.99 460.07,-69.98"/>
<text text-anchor="middle" x="363.5" y="-72" font-family="Fira Mono Medium" font-size="10.00">at</text>
</g>
<!-- node_4&#45;&gt;node_3 -->
<g id="edge5" class="edge">
<title>node_4&#45;&gt;node_3</title>
<path fill="none" stroke="black" d="M243.86,-53.98C250.25,-51.54 256.77,-49.14 263,-47 273.66,-43.34 285.06,-39.73 296.21,-36.38"/>
<polygon fill="black" stroke="black" points="297.32,-39.7 305.9,-33.49 295.32,-32.99 297.32,-39.7"/>
<text text-anchor="middle" x="275.5" y="-50" font-family="Fira Mono Medium" font-size="10.00">eats</text>
</g>
<!-- node_5 -->
<g id="node6" class="node">
<title>node_5</title>
<polygon fill="none" stroke="black" points="92,-114 0,-114 0,-78 92,-78 92,-114"/>
<text text-anchor="start" x="27" y="-99.4" font-family="Fira Mono Medium" font-weight="bold" font-size="12.00">cargo</text>
<text text-anchor="start" x="8" y="-87.4" font-family="Fira Mono Medium" font-style="italic" font-size="12.00">kind:</text>
<text text-anchor="start" x="46" y="-87.4" font-family="Fira Mono Medium" font-size="12.00"> wolf</text>
</g>
<!-- node_5&#45;&gt;node_1 -->
<g id="edge8" class="edge">
<title>node_5&#45;&gt;node_1</title>
<path fill="none" stroke="black" d="M92.32,-106.56C122.17,-112.6 162.2,-119 198,-119 198,-119 198,-119 532,-119 576.65,-119 626.56,-116.01 666.4,-112.9"/>
<polygon fill="black" stroke="black" points="666.88,-116.37 676.57,-112.08 666.32,-109.39 666.88,-116.37"/>
<text text-anchor="middle" x="363.5" y="-122" font-family="Fira Mono Medium" font-size="10.00">at</text>
</g>
<!-- node_5&#45;&gt;node_4 -->
<g id="edge7" class="edge">
<title>node_5&#45;&gt;node_4</title>
<path fill="none" stroke="black" d="M92.3,-88.8C108.2,-86.27 126.24,-83.41 142.86,-80.76"/>
<polygon fill="black" stroke="black" points="143.66,-84.18 152.99,-79.15 142.56,-77.27 143.66,-84.18"/>
<text text-anchor="middle" x="122.5" y="-88" font-family="Fira Mono Medium" font-size="10.00">eats</text>
</g>
</g>
</svg>
