<?xml version="1.0" encoding="UTF-8" standalone="no"?>
<!DOCTYPE svg PUBLIC "-//W3C//DTD SVG 1.1//EN"
 "http://www.w3.org/Graphics/SVG/1.1/DTD/svg11.dtd">
<!-- Generated by graphviz version 2.43.0 (0)
 -->
<!-- Title: %3 Pages: 1 -->
<svg width="815pt" height="159pt"
 viewBox="0.00 0.00 815.00 159.00" xmlns="http://www.w3.org/2000/svg" xmlns:xlink="http://www.w3.org/1999/xlink">
<g id="graph0" class="graph" transform="scale(1 1) rotate(0) translate(4 155)">
<title>%3</title>
<polygon fill="white" stroke="transparent" points="-4,4 -4,-155 811,-155 811,4 -4,4"/>
<!-- node_0 -->
<g id="node1" class="node">
<title>node_0</title>
<polygon fill="none" stroke="black" points="592,-90 470,-90 470,-54 592,-54 592,-90"/>
<text text-anchor="start" x="515.5" y="-75.4" font-family="Fira Mono Medium" font-weight="bold" font-size="12.00">side</text>
<text text-anchor="start" x="478" y="-63.4" font-family="Fira Mono Medium" font-style="italic" font-size="12.00">location:</text>
<text text-anchor="start" x="546" y="-63.4" font-family="Fira Mono Medium" font-size="12.00"> left</text>
</g>
<!-- node_1 -->
<g id="node2" class="node">
<title>node_1</title>
<polygon fill="none" stroke="black" points="807,-117 677,-117 677,-81 807,-81 807,-117"/>
<text text-anchor="start" x="726.5" y="-102.4" font-family="Fira Mono Medium" font-weight="bold" font-size="12.00">side</text>
<text text-anchor="start" x="685" y="-90.4" font-family="Fira Mono Medium" font-style="italic" font-size="12.00">location:</text>
<text text-anchor="start" x="753" y="-90.4" font-family="Fira Mono Medium" font-size="12.00"> right</text>
</g>
<!-- node_0&#45;&gt;node_1 -->
<g id="edge1" class="edge">
<title>node_0&#45;&gt;node_1</title>
<path fill="none" stroke="black" d="M592.17,-79.77C615.49,-82.79 642.42,-86.26 666.91,-89.43"/>
<polygon fill="black" stroke="black" points="666.51,-92.91 676.88,-90.72 667.41,-85.96 666.51,-92.91"/>
<text text-anchor="middle" x="634.5" y="-90" font-family="Fira Mono Medium" font-size="10.00">opposite</text>
</g>
<!-- node_1&#45;&gt;node_0 -->
<g id="edge2" class="edge">
<title>node_1&#45;&gt;node_0</title>
<path fill="none" stroke="black" d="M703.49,-80.98C689.82,-75.33 674.02,-69.83 659,-67 640.79,-63.57 620.87,-62.93 602.32,-63.62"/>
<polygon fill="black" stroke="black" points="601.98,-60.13 592.17,-64.13 602.33,-67.12 601.98,-60.13"/>
<text text-anchor="middle" x="634.5" y="-70" font-family="Fira Mono Medium" font-size="10.00">opposite</text>
</g>
<!-- node_2 -->
<g id="node3" class="node">
<title>node_2</title>
<polygon fill="none" stroke="black" points="558,-151 504,-151 504,-115 558,-115 558,-151"/>
<text text-anchor="start" x="515.5" y="-130.9" font-family="Fira Mono Medium" font-weight="bold" font-size="12.00">boat</text>
</g>
<!-- node_2&#45;&gt;node_1 -->
<g id="edge3" class="edge">
<title>node_2&#45;&gt;node_1</title>
<path fill="none" stroke="black" d="M558.05,-128.76C585.17,-124.35 628.9,-117.24 666.81,-111.07"/>
<polygon fill="black" stroke="black" points="667.51,-114.5 676.82,-109.44 666.39,-107.59 667.51,-114.5"/>
<text text-anchor="middle" x="634.5" y="-123" font-family="Fira Mono Medium" font-size="10.00">at</text>
</g>
<!-- node_3 -->
<g id="node4" class="node">
<title>node_3</title>
<polygon fill="none" stroke="black" points="421,-36 306,-36 306,0 421,0 421,-36"/>
<text text-anchor="start" x="344.5" y="-21.4" font-family="Fira Mono Medium" font-weight="bold" font-size="12.00">cargo</text>
<text text-anchor="start" x="314" y="-9.4" font-family="Fira Mono Medium" font-style="italic" font-size="12.00">kind:</text>
<text text-anchor="start" x="352" y="-9.4" font-family="Fira Mono Medium" font-size="12.00"> cabbage</text>
</g>
<!-- node_3&#45;&gt;node_0 -->
<g id="edge4" class="edge">
<title>node_3&#45;&gt;node_0</title>
<path fill="none" stroke="black" d="M420.07,-36.13C434.47,-40.83 450.12,-45.93 464.96,-50.78"/>
<polygon fill="black" stroke="black" points="463.98,-54.14 474.58,-53.92 466.16,-47.49 463.98,-54.14"/>
<text text-anchor="middle" x="445.5" y="-48" font-family="Fira Mono Medium" font-size="10.00">at</text>
</g>
<!-- node_4 -->
<g id="node5" class="node">
<title>node_4</title>
<polygon fill="none" stroke="black" points="245,-83 153,-83 153,-47 245,-47 245,-83"/>
<text text-anchor="start" x="180" y="-68.4" font-family="Fira Mono Medium" font-weight="bold" font-size="12.00">cargo</text>
<text text-anchor="start" x="161" y="-56.4" font-family="Fira Mono Medium" font-style="italic" font-size="12.00">kind:</text>
<text text-anchor="start" x="199" y="-56.4" font-family="Fira Mono Medium" font-size="12.00"> goat</text>
</g>
<!-- node_4&#45;&gt;node_0 -->
<g id="edge6" class="edge">
<title>node_4&#45;&gt;node_0</title>
<path fill="none" stroke="black" d="M245.19,-65.96C300.57,-67.13 395.01,-69.14 459.86,-70.51"/>
<polygon fill="black" stroke="black" points="459.93,-74.01 470,-70.73 460.07,-67.02 459.93,-74.01"/>
<text text-anchor="middle" x="363.5" y="-73" font-family="Fira Mono Medium" font-size="10.00">at</text>
</g>
<!-- node_4&#45;&gt;node_3 -->
<g id="edge5" class="edge">
<title>node_4&#45;&gt;node_3</title>
<path fill="none" stroke="black" d="M245.27,-51.91C260.97,-47.37 278.91,-42.18 295.97,-37.24"/>
<polygon fill="black" stroke="black" points="297.25,-40.52 305.88,-34.38 295.3,-33.79 297.25,-40.52"/>
<text text-anchor="middle" x="275.5" y="-49" font-family="Fira Mono Medium" font-size="10.00">eats</text>
</g>
<!-- node_5 -->
<g id="node6" class="node">
<title>node_5</title>
<polygon fill="none" stroke="black" points="92,-106 0,-106 0,-70 92,-70 92,-106"/>
<text text-anchor="start" x="27" y="-91.4" font-family="Fira Mono Medium" font-weight="bold" font-size="12.00">cargo</text>
<text text-anchor="start" x="8" y="-79.4" font-family="Fira Mono Medium" font-style="italic" font-size="12.00">kind:</text>
<text text-anchor="start" x="46" y="-79.4" font-family="Fira Mono Medium" font-size="12.00"> wolf</text>
</g>
<!-- node_5&#45;&gt;node_0 -->
<g id="edge8" class="edge">
<title>node_5&#45;&gt;node_0</title>
<path fill="none" stroke="black" d="M92.07,-91.21C98.09,-91.54 104.19,-91.82 110,-92 261.96,-96.82 300.72,-100.1 452,-85 454.51,-84.75 457.06,-84.47 459.64,-84.16"/>
<polygon fill="black" stroke="black" points="460.17,-87.62 469.64,-82.86 459.27,-80.68 460.17,-87.62"/>
<text text-anchor="middle" x="275.5" y="-99" font-family="Fira Mono Medium" font-size="10.00">at</text>
</g>
<!-- node_5&#45;&gt;node_4 -->
<g id="edge7" class="edge">
<title>node_5&#45;&gt;node_4</title>
<path fill="none" stroke="black" d="M92.3,-81.1C108.2,-78.68 126.24,-75.93 142.86,-73.4"/>
<polygon fill="black" stroke="black" points="143.63,-76.82 152.99,-71.86 142.57,-69.9 143.63,-76.82"/>
<text text-anchor="middle" x="122.5" y="-80" font-family="Fira Mono Medium" font-size="10.00">eats</text>
</g>
</g>
</svg>
