<?xml version="1.0" encoding="UTF-8" standalone="no"?>
<!DOCTYPE svg PUBLIC "-//W3C//DTD SVG 1.1//EN"
 "http://www.w3.org/Graphics/SVG/1.1/DTD/svg11.dtd">
<!-- Generated by graphviz version 2.43.0 (0)
 -->
<!-- Title: %3 Pages: 1 -->
<svg width="815pt" height="152pt"
 viewBox="0.00 0.00 815.00 151.92" xmlns="http://www.w3.org/2000/svg" xmlns:xlink="http://www.w3.org/1999/xlink">
<g id="graph0" class="graph" transform="scale(1 1) rotate(0) translate(4 147.92)">
<title>%3</title>
<polygon fill="white" stroke="transparent" points="-4,4 -4,-147.92 811,-147.92 811,4 -4,4"/>
<!-- node_0 -->
<g id="node1" class="node">
<title>node_0</title>
<polygon fill="none" stroke="black" points="592,-84.92 470,-84.92 470,-48.92 592,-48.92 592,-84.92"/>
<text text-anchor="start" x="515.5" y="-70.32" font-family="Fira Mono Medium" font-weight="bold" font-size="12.00">side</text>
<text text-anchor="start" x="478" y="-58.32" font-family="Fira Mono Medium" font-style="italic" font-size="12.00">location:</text>
<text text-anchor="start" x="546" y="-58.32" font-family="Fira Mono Medium" font-size="12.00"> left</text>
</g>
<!-- node_1 -->
<g id="node2" class="node">
<title>node_1</title>
<polygon fill="none" stroke="black" points="807,-50.92 677,-50.92 677,-14.92 807,-14.92 807,-50.92"/>
<text text-anchor="start" x="726.5" y="-36.32" font-family="Fira Mono Medium" font-weight="bold" font-size="12.00">side</text>
<text text-anchor="start" x="685" y="-24.32" font-family="Fira Mono Medium" font-style="italic" font-size="12.00">location:</text>
<text text-anchor="start" x="753" y="-24.32" font-family="Fira Mono Medium" font-size="12.00"> right</text>
</g>
<!-- node_0&#45;&gt;node_1 -->
<g id="edge1" class="edge">
<title>node_0&#45;&gt;node_1</title>
<path fill="none" stroke="black" d="M566.77,-48.76C579.95,-42.82 595.31,-36.96 610,-33.92 628.13,-30.17 647.99,-28.71 666.63,-28.45"/>
<polygon fill="black" stroke="black" points="666.85,-31.95 676.84,-28.43 666.83,-24.95 666.85,-31.95"/>
<text text-anchor="middle" x="634.5" y="-36.92" font-family="Fira Mono Medium" font-size="10.00">opposite</text>
</g>
<!-- node_1&#45;&gt;node_0 -->
<g id="edge2" class="edge">
<title>node_1&#45;&gt;node_0</title>
<path fill="none" stroke="black" d="M676.88,-43.36C653.28,-47.19 626.44,-51.56 602.32,-55.48"/>
<polygon fill="black" stroke="black" points="601.48,-52.08 592.17,-57.14 602.6,-58.98 601.48,-52.08"/>
<text text-anchor="middle" x="634.5" y="-56.92" font-family="Fira Mono Medium" font-size="10.00">opposite</text>
</g>
<!-- node_2 -->
<g id="node3" class="node">
<title>node_2</title>
<polygon fill="none" stroke="black" points="390.5,-143.92 336.5,-143.92 336.5,-107.92 390.5,-107.92 390.5,-143.92"/>
<text text-anchor="start" x="348" y="-123.82" font-family="Fira Mono Medium" font-weight="bold" font-size="12.00">boat</text>
</g>
<!-- node_2&#45;&gt;node_0 -->
<g id="edge3" class="edge">
<title>node_2&#45;&gt;node_0</title>
<path fill="none" stroke="black" d="M390.72,-116.58C411.92,-109.02 442.6,-98.08 469.77,-88.39"/>
<polygon fill="black" stroke="black" points="470.97,-91.68 479.22,-85.03 468.62,-85.09 470.97,-91.68"/>
<text text-anchor="middle" x="445.5" y="-100.92" font-family="Fira Mono Medium" font-size="10.00">at</text>
</g>
<!-- node_3 -->
<g id="node4" class="node">
<title>node_3</title>
<polygon fill="none" stroke="black" points="421,-51.92 306,-51.92 306,-15.92 421,-15.92 421,-51.92"/>
<text text-anchor="start" x="344.5" y="-37.32" font-family="Fira Mono Medium" font-weight="bold" font-size="12.00">cargo</text>
<text text-anchor="start" x="314" y="-25.32" font-family="Fira Mono Medium" font-style="italic" font-size="12.00">kind:</text>
<text text-anchor="start" x="352" y="-25.32" font-family="Fira Mono Medium" font-size="12.00"> cabbage</text>
</g>
<!-- node_3&#45;&gt;node_0 -->
<g id="edge4" class="edge">
<title>node_3&#45;&gt;node_0</title>
<path fill="none" stroke="black" d="M421.46,-45.28C433.78,-47.74 446.95,-50.36 459.71,-52.91"/>
<polygon fill="black" stroke="black" points="459.34,-56.4 469.84,-54.93 460.71,-49.54 459.34,-56.4"/>
<text text-anchor="middle" x="445.5" y="-52.92" font-family="Fira Mono Medium" font-size="10.00">at</text>
</g>
<!-- node_4 -->
<g id="node5" class="node">
<title>node_4</title>
<polygon fill="none" stroke="black" points="245,-51.92 153,-51.92 153,-15.92 245,-15.92 245,-51.92"/>
<text text-anchor="start" x="180" y="-37.32" font-family="Fira Mono Medium" font-weight="bold" font-size="12.00">cargo</text>
<text text-anchor="start" x="161" y="-25.32" font-family="Fira Mono Medium" font-style="italic" font-size="12.00">kind:</text>
<text text-anchor="start" x="199" y="-25.32" font-family="Fira Mono Medium" font-size="12.00"> goat</text>
</g>
<!-- node_4&#45;&gt;node_1 -->
<g id="edge6" class="edge">
<title>node_4&#45;&gt;node_1</title>
<path fill="none" stroke="black" d="M245.18,-19.77C263.81,-14.63 285.74,-9.46 306,-6.92 432,8.87 579.79,-7.22 666.61,-20.18"/>
<polygon fill="black" stroke="black" points="666.22,-23.66 676.64,-21.7 667.28,-16.74 666.22,-23.66"/>
<text text-anchor="middle" x="445.5" y="-3.92" font-family="Fira Mono Medium" font-size="10.00">at</text>
</g>
<!-- node_4&#45;&gt;node_3 -->
<g id="edge5" class="edge">
<title>node_4&#45;&gt;node_3</title>
<path fill="none" stroke="black" d="M245.27,-33.92C260.82,-33.92 278.58,-33.92 295.49,-33.92"/>
<polygon fill="black" stroke="black" points="295.88,-37.42 305.88,-33.92 295.88,-30.42 295.88,-37.42"/>
<text text-anchor="middle" x="275.5" y="-36.92" font-family="Fira Mono Medium" font-size="10.00">eats</text>
</g>
<!-- node_5 -->
<g id="node6" class="node">
<title>node_5</title>
<polygon fill="none" stroke="black" points="92,-74.92 0,-74.92 0,-38.92 92,-38.92 92,-74.92"/>
<text text-anchor="start" x="27" y="-60.32" font-family="Fira Mono Medium" font-weight="bold" font-size="12.00">cargo</text>
<text text-anchor="start" x="8" y="-48.32" font-family="Fira Mono Medium" font-style="italic" font-size="12.00">kind:</text>
<text text-anchor="start" x="46" y="-48.32" font-family="Fira Mono Medium" font-size="12.00"> wolf</text>
</g>
<!-- node_5&#45;&gt;node_0 -->
<g id="edge8" class="edge">
<title>node_5&#45;&gt;node_0</title>
<path fill="none" stroke="black" d="M92.07,-60.06C98.09,-60.39 104.2,-60.7 110,-60.92 232.94,-65.7 376.25,-66.79 459.69,-66.97"/>
<polygon fill="black" stroke="black" points="459.81,-70.47 469.81,-66.99 459.82,-63.47 459.81,-70.47"/>
<text text-anchor="middle" x="275.5" y="-67.92" font-family="Fira Mono Medium" font-size="10.00">at</text>
</g>
<!-- node_5&#45;&gt;node_4 -->
<g id="edge7" class="edge">
<title>node_5&#45;&gt;node_4</title>
<path fill="none" stroke="black" d="M92.3,-50.02C108.2,-47.6 126.24,-44.85 142.86,-42.32"/>
<polygon fill="black" stroke="black" points="143.63,-45.75 152.99,-40.78 142.57,-38.83 143.63,-45.75"/>
<text text-anchor="middle" x="122.5" y="-48.92" font-family="Fira Mono Medium" font-size="10.00">eats</text>
</g>
</g>
</svg>
