<?xml version="1.0" encoding="UTF-8" standalone="no"?>
<!DOCTYPE svg PUBLIC "-//W3C//DTD SVG 1.1//EN"
 "http://www.w3.org/Graphics/SVG/1.1/DTD/svg11.dtd">
<!-- Generated by graphviz version 2.43.0 (0)
 -->
<!-- Title: %3 Pages: 1 -->
<svg width="345pt" height="213pt"
 viewBox="0.00 0.00 345.00 213.00" xmlns="http://www.w3.org/2000/svg" xmlns:xlink="http://www.w3.org/1999/xlink">
<g id="graph0" class="graph" transform="scale(1 1) rotate(0) translate(4 209)">
<title>%3</title>
<polygon fill="white" stroke="transparent" points="-4,4 -4,-209 341,-209 341,4 -4,4"/>
<!-- node_0 -->
<g id="node1" class="node">
<title>node_0</title>
<polygon fill="none" stroke="black" points="122,-205 0,-205 0,-169 122,-169 122,-205"/>
<text text-anchor="start" x="45.5" y="-190.4" font-family="Fira Mono Medium" font-weight="bold" font-size="12.00">side</text>
<text text-anchor="start" x="8" y="-178.4" font-family="Fira Mono Medium" font-style="italic" font-size="12.00">location:</text>
<text text-anchor="start" x="76" y="-178.4" font-family="Fira Mono Medium" font-size="12.00"> left</text>
</g>
<!-- node_1 -->
<g id="node2" class="node">
<title>node_1</title>
<polygon fill="none" stroke="black" points="337,-140 207,-140 207,-104 337,-104 337,-140"/>
<text text-anchor="start" x="256.5" y="-125.4" font-family="Fira Mono Medium" font-weight="bold" font-size="12.00">side</text>
<text text-anchor="start" x="215" y="-113.4" font-family="Fira Mono Medium" font-style="italic" font-size="12.00">location:</text>
<text text-anchor="start" x="283" y="-113.4" font-family="Fira Mono Medium" font-size="12.00"> right</text>
</g>
<!-- node_0&#45;&gt;node_1 -->
<g id="edge1" class="edge">
<title>node_0&#45;&gt;node_1</title>
<path fill="none" stroke="black" d="M122.19,-182.52C143.68,-179.75 167.8,-175.26 189,-168 205.09,-162.49 221.66,-153.85 235.66,-145.53"/>
<polygon fill="black" stroke="black" points="237.75,-148.36 244.46,-140.15 234.1,-142.39 237.75,-148.36"/>
<text text-anchor="middle" x="164.5" y="-182" font-family="Fira Mono Medium" font-size="10.00">opposite</text>
</g>
<!-- node_1&#45;&gt;node_0 -->
<g id="edge2" class="edge">
<title>node_1&#45;&gt;node_0</title>
<path fill="none" stroke="black" d="M206.84,-136.23C185.4,-141.49 161.5,-147.92 140,-155 130.92,-157.99 121.4,-161.54 112.25,-165.16"/>
<polygon fill="black" stroke="black" points="110.84,-161.96 102.88,-168.95 113.46,-168.44 110.84,-161.96"/>
<text text-anchor="middle" x="164.5" y="-158" font-family="Fira Mono Medium" font-size="10.00">opposite</text>
</g>
<!-- node_2 -->
<g id="node3" class="node">
<title>node_2</title>
<polygon fill="none" stroke="black" points="88,-144 34,-144 34,-108 88,-108 88,-144"/>
<text text-anchor="start" x="45.5" y="-123.9" font-family="Fira Mono Medium" font-weight="bold" font-size="12.00">boat</text>
</g>
<!-- node_2&#45;&gt;node_1 -->
<g id="edge3" class="edge">
<title>node_2&#45;&gt;node_1</title>
<path fill="none" stroke="black" d="M88.35,-124.78C103.46,-124.14 122.79,-123.4 140,-123 158.32,-122.58 178.09,-122.32 196.57,-122.17"/>
<polygon fill="black" stroke="black" points="196.72,-125.67 206.7,-122.1 196.67,-118.67 196.72,-125.67"/>
<text text-anchor="middle" x="164.5" y="-126" font-family="Fira Mono Medium" font-size="10.00">at</text>
</g>
<!-- node_3 -->
<g id="node4" class="node">
<title>node_3</title>
<polygon fill="none" stroke="black" points="118.5,-90 3.5,-90 3.5,-54 118.5,-54 118.5,-90"/>
<text text-anchor="start" x="42" y="-75.4" font-family="Fira Mono Medium" font-weight="bold" font-size="12.00">cargo</text>
<text text-anchor="start" x="11.5" y="-63.4" font-family="Fira Mono Medium" font-style="italic" font-size="12.00">kind:</text>
<text text-anchor="start" x="49.5" y="-63.4" font-family="Fira Mono Medium" font-size="12.00"> cabbage</text>
</g>
<!-- node_3&#45;&gt;node_1 -->
<g id="edge4" class="edge">
<title>node_3&#45;&gt;node_1</title>
<path fill="none" stroke="black" d="M118.56,-85.53C142.68,-91.3 171.15,-98.11 196.91,-104.28"/>
<polygon fill="black" stroke="black" points="196.1,-107.68 206.64,-106.6 197.73,-100.87 196.1,-107.68"/>
<text text-anchor="middle" x="164.5" y="-104" font-family="Fira Mono Medium" font-size="10.00">at</text>
</g>
<!-- node_4 -->
<g id="node5" class="node">
<title>node_4</title>
<polygon fill="none" stroke="black" points="107,-36 15,-36 15,0 107,0 107,-36"/>
<text text-anchor="start" x="42" y="-21.4" font-family="Fira Mono Medium" font-weight="bold" font-size="12.00">cargo</text>
<text text-anchor="start" x="23" y="-9.4" font-family="Fira Mono Medium" font-style="italic" font-size="12.00">kind:</text>
<text text-anchor="start" x="61" y="-9.4" font-family="Fira Mono Medium" font-size="12.00"> wolf</text>
</g>
<!-- node_4&#45;&gt;node_1 -->
<g id="edge5" class="edge">
<title>node_4&#45;&gt;node_1</title>
<path fill="none" stroke="black" d="M102.37,-36.1C108.94,-39.06 115.66,-42.11 122,-45 151.85,-58.62 159.78,-61.07 189,-76 202.94,-83.12 217.94,-91.36 231.25,-98.88"/>
<polygon fill="black" stroke="black" points="229.74,-102.05 240.16,-103.95 233.2,-95.96 229.74,-102.05"/>
<text text-anchor="middle" x="164.5" y="-79" font-family="Fira Mono Medium" font-size="10.00">at</text>
</g>
</g>
</svg>
