<?xml version="1.0" encoding="UTF-8" standalone="no"?>
<!DOCTYPE svg PUBLIC "-//W3C//DTD SVG 1.1//EN"
 "http://www.w3.org/Graphics/SVG/1.1/DTD/svg11.dtd">
<!-- Generated by graphviz version 2.43.0 (0)
 -->
<!-- Title: %3 Pages: 1 -->
<svg width="498pt" height="206pt"
 viewBox="0.00 0.00 498.00 206.00" xmlns="http://www.w3.org/2000/svg" xmlns:xlink="http://www.w3.org/1999/xlink">
<g id="graph0" class="graph" transform="scale(1 1) rotate(0) translate(4 202)">
<title>%3</title>
<polygon fill="white" stroke="transparent" points="-4,4 -4,-202 494,-202 494,4 -4,4"/>
<!-- node_0 -->
<g id="node1" class="node">
<title>node_0</title>
<polygon fill="none" stroke="black" points="275,-198 153,-198 153,-162 275,-162 275,-198"/>
<text text-anchor="start" x="198.5" y="-183.4" font-family="Fira Mono Medium" font-weight="bold" font-size="12.00">side</text>
<text text-anchor="start" x="161" y="-171.4" font-family="Fira Mono Medium" font-style="italic" font-size="12.00">location:</text>
<text text-anchor="start" x="229" y="-171.4" font-family="Fira Mono Medium" font-size="12.00"> left</text>
</g>
<!-- node_1 -->
<g id="node2" class="node">
<title>node_1</title>
<polygon fill="none" stroke="black" points="490,-133 360,-133 360,-97 490,-97 490,-133"/>
<text text-anchor="start" x="409.5" y="-118.4" font-family="Fira Mono Medium" font-weight="bold" font-size="12.00">side</text>
<text text-anchor="start" x="368" y="-106.4" font-family="Fira Mono Medium" font-style="italic" font-size="12.00">location:</text>
<text text-anchor="start" x="436" y="-106.4" font-family="Fira Mono Medium" font-size="12.00"> right</text>
</g>
<!-- node_0&#45;&gt;node_1 -->
<g id="edge1" class="edge">
<title>node_0&#45;&gt;node_1</title>
<path fill="none" stroke="black" d="M275.19,-175.52C296.68,-172.75 320.8,-168.26 342,-161 358.09,-155.49 374.66,-146.85 388.66,-138.53"/>
<polygon fill="black" stroke="black" points="390.75,-141.36 397.46,-133.15 387.1,-135.39 390.75,-141.36"/>
<text text-anchor="middle" x="317.5" y="-175" font-family="Fira Mono Medium" font-size="10.00">opposite</text>
</g>
<!-- node_1&#45;&gt;node_0 -->
<g id="edge2" class="edge">
<title>node_1&#45;&gt;node_0</title>
<path fill="none" stroke="black" d="M359.84,-129.23C338.4,-134.49 314.5,-140.92 293,-148 283.92,-150.99 274.4,-154.54 265.25,-158.16"/>
<polygon fill="black" stroke="black" points="263.84,-154.96 255.88,-161.95 266.46,-161.44 263.84,-154.96"/>
<text text-anchor="middle" x="317.5" y="-151" font-family="Fira Mono Medium" font-size="10.00">opposite</text>
</g>
<!-- node_2 -->
<g id="node3" class="node">
<title>node_2</title>
<polygon fill="none" stroke="black" points="241,-137 187,-137 187,-101 241,-101 241,-137"/>
<text text-anchor="start" x="198.5" y="-116.9" font-family="Fira Mono Medium" font-weight="bold" font-size="12.00">boat</text>
</g>
<!-- node_2&#45;&gt;node_1 -->
<g id="edge3" class="edge">
<title>node_2&#45;&gt;node_1</title>
<path fill="none" stroke="black" d="M241.35,-117.78C256.46,-117.14 275.79,-116.4 293,-116 311.32,-115.58 331.09,-115.32 349.57,-115.17"/>
<polygon fill="black" stroke="black" points="349.72,-118.67 359.7,-115.1 349.67,-111.67 349.72,-118.67"/>
<text text-anchor="middle" x="317.5" y="-119" font-family="Fira Mono Medium" font-size="10.00">at</text>
</g>
<!-- node_3 -->
<g id="node4" class="node">
<title>node_3</title>
<polygon fill="none" stroke="black" points="260,-36 168,-36 168,0 260,0 260,-36"/>
<text text-anchor="start" x="195" y="-21.4" font-family="Fira Mono Medium" font-weight="bold" font-size="12.00">cargo</text>
<text text-anchor="start" x="176" y="-9.4" font-family="Fira Mono Medium" font-style="italic" font-size="12.00">kind:</text>
<text text-anchor="start" x="214" y="-9.4" font-family="Fira Mono Medium" font-size="12.00"> goat</text>
</g>
<!-- node_3&#45;&gt;node_1 -->
<g id="edge4" class="edge">
<title>node_3&#45;&gt;node_1</title>
<path fill="none" stroke="black" d="M260.22,-23.08C285.28,-27.17 316.45,-34.39 342,-47 363.61,-57.66 384.46,-75.09 399.73,-89.63"/>
<polygon fill="black" stroke="black" points="397.59,-92.42 407.18,-96.92 402.48,-87.42 397.59,-92.42"/>
<text text-anchor="middle" x="317.5" y="-50" font-family="Fira Mono Medium" font-size="10.00">at</text>
</g>
<!-- node_4 -->
<g id="node5" class="node">
<title>node_4</title>
<polygon fill="none" stroke="black" points="92,-63 0,-63 0,-27 92,-27 92,-63"/>
<text text-anchor="start" x="27" y="-48.4" font-family="Fira Mono Medium" font-weight="bold" font-size="12.00">cargo</text>
<text text-anchor="start" x="8" y="-36.4" font-family="Fira Mono Medium" font-style="italic" font-size="12.00">kind:</text>
<text text-anchor="start" x="46" y="-36.4" font-family="Fira Mono Medium" font-size="12.00"> wolf</text>
</g>
<!-- node_4&#45;&gt;node_1 -->
<g id="edge6" class="edge">
<title>node_4&#45;&gt;node_1</title>
<path fill="none" stroke="black" d="M92.15,-51.21C138.26,-57.76 211.84,-68.82 275,-81 299.39,-85.7 325.87,-91.51 349.65,-96.99"/>
<polygon fill="black" stroke="black" points="349.13,-100.46 359.66,-99.32 350.71,-93.65 349.13,-100.46"/>
<text text-anchor="middle" x="214" y="-84" font-family="Fira Mono Medium" font-size="10.00">at</text>
</g>
<!-- node_4&#45;&gt;node_3 -->
<g id="edge5" class="edge">
<title>node_4&#45;&gt;node_3</title>
<path fill="none" stroke="black" d="M92.36,-37.62C112.66,-34.32 136.78,-30.4 158.09,-26.93"/>
<polygon fill="black" stroke="black" points="158.67,-30.38 167.98,-25.32 157.55,-23.47 158.67,-30.38"/>
<text text-anchor="middle" x="122.5" y="-38" font-family="Fira Mono Medium" font-size="10.00">eats</text>
</g>
</g>
</svg>
