<?xml version="1.0" encoding="UTF-8" standalone="no"?>
<!DOCTYPE svg PUBLIC "-//W3C//DTD SVG 1.1//EN"
 "http://www.w3.org/Graphics/SVG/1.1/DTD/svg11.dtd">
<!-- Generated by graphviz version 2.43.0 (0)
 -->
<!-- Title: %3 Pages: 1 -->
<svg width="651pt" height="238pt"
 viewBox="0.00 0.00 651.00 238.00" xmlns="http://www.w3.org/2000/svg" xmlns:xlink="http://www.w3.org/1999/xlink">
<g id="graph0" class="graph" transform="scale(1 1) rotate(0) translate(4 234)">
<title>%3</title>
<polygon fill="white" stroke="transparent" points="-4,4 -4,-234 647,-234 647,4 -4,4"/>
<!-- node_0 -->
<g id="node1" class="node">
<title>node_0</title>
<polygon fill="none" stroke="black" points="428,-230 306,-230 306,-194 428,-194 428,-230"/>
<text text-anchor="start" x="351.5" y="-215.4" font-family="Fira Mono Medium" font-weight="bold" font-size="12.00">side</text>
<text text-anchor="start" x="314" y="-203.4" font-family="Fira Mono Medium" font-style="italic" font-size="12.00">location:</text>
<text text-anchor="start" x="382" y="-203.4" font-family="Fira Mono Medium" font-size="12.00"> left</text>
</g>
<!-- node_1 -->
<g id="node2" class="node">
<title>node_1</title>
<polygon fill="none" stroke="black" points="643,-145 513,-145 513,-109 643,-109 643,-145"/>
<text text-anchor="start" x="562.5" y="-130.4" font-family="Fira Mono Medium" font-weight="bold" font-size="12.00">side</text>
<text text-anchor="start" x="521" y="-118.4" font-family="Fira Mono Medium" font-style="italic" font-size="12.00">location:</text>
<text text-anchor="start" x="589" y="-118.4" font-family="Fira Mono Medium" font-size="12.00"> right</text>
</g>
<!-- node_0&#45;&gt;node_1 -->
<g id="edge1" class="edge">
<title>node_0&#45;&gt;node_1</title>
<path fill="none" stroke="black" d="M428.21,-207.6C449.93,-204.47 474.2,-199.12 495,-190 515.86,-180.85 536.19,-165.29 551.38,-151.93"/>
<polygon fill="black" stroke="black" points="553.77,-154.49 558.84,-145.19 549.07,-149.3 553.77,-154.49"/>
<text text-anchor="middle" x="470.5" y="-207" font-family="Fira Mono Medium" font-size="10.00">opposite</text>
</g>
<!-- node_1&#45;&gt;node_0 -->
<g id="edge2" class="edge">
<title>node_1&#45;&gt;node_0</title>
<path fill="none" stroke="black" d="M527.59,-145.1C502.95,-154.32 472.76,-165.9 446,-177 436.34,-181.01 426.08,-185.46 416.3,-189.81"/>
<polygon fill="black" stroke="black" points="414.79,-186.65 407.09,-193.93 417.65,-193.04 414.79,-186.65"/>
<text text-anchor="middle" x="470.5" y="-180" font-family="Fira Mono Medium" font-size="10.00">opposite</text>
</g>
<!-- node_2 -->
<g id="node3" class="node">
<title>node_2</title>
<polygon fill="none" stroke="black" points="394,-175 340,-175 340,-139 394,-139 394,-175"/>
<text text-anchor="start" x="351.5" y="-154.9" font-family="Fira Mono Medium" font-weight="bold" font-size="12.00">boat</text>
</g>
<!-- node_2&#45;&gt;node_1 -->
<g id="edge3" class="edge">
<title>node_2&#45;&gt;node_1</title>
<path fill="none" stroke="black" d="M394.34,-152.84C409.45,-150.48 428.78,-147.51 446,-145 464.31,-142.33 484.07,-139.56 502.55,-137.02"/>
<polygon fill="black" stroke="black" points="503.24,-140.46 512.67,-135.63 502.29,-133.52 503.24,-140.46"/>
<text text-anchor="middle" x="470.5" y="-148" font-family="Fira Mono Medium" font-size="10.00">at</text>
</g>
<!-- node_3 -->
<g id="node4" class="node">
<title>node_3</title>
<polygon fill="none" stroke="black" points="424.5,-36 309.5,-36 309.5,0 424.5,0 424.5,-36"/>
<text text-anchor="start" x="348" y="-21.4" font-family="Fira Mono Medium" font-weight="bold" font-size="12.00">cargo</text>
<text text-anchor="start" x="317.5" y="-9.4" font-family="Fira Mono Medium" font-style="italic" font-size="12.00">kind:</text>
<text text-anchor="start" x="355.5" y="-9.4" font-family="Fira Mono Medium" font-size="12.00"> cabbage</text>
</g>
<!-- node_3&#45;&gt;node_1 -->
<g id="edge4" class="edge">
<title>node_3&#45;&gt;node_1</title>
<path fill="none" stroke="black" d="M424.75,-24.16C447.6,-28.33 473.55,-35.32 495,-47 519.54,-60.37 541.84,-83.15 556.97,-101"/>
<polygon fill="black" stroke="black" points="554.33,-103.31 563.4,-108.8 559.74,-98.85 554.33,-103.31"/>
<text text-anchor="middle" x="470.5" y="-50" font-family="Fira Mono Medium" font-size="10.00">at</text>
</g>
<!-- node_4 -->
<g id="node5" class="node">
<title>node_4</title>
<polygon fill="none" stroke="black" points="245,-83 153,-83 153,-47 245,-47 245,-83"/>
<text text-anchor="start" x="180" y="-68.4" font-family="Fira Mono Medium" font-weight="bold" font-size="12.00">cargo</text>
<text text-anchor="start" x="161" y="-56.4" font-family="Fira Mono Medium" font-style="italic" font-size="12.00">kind:</text>
<text text-anchor="start" x="199" y="-56.4" font-family="Fira Mono Medium" font-size="12.00"> goat</text>
</g>
<!-- node_4&#45;&gt;node_1 -->
<g id="edge6" class="edge">
<title>node_4&#45;&gt;node_1</title>
<path fill="none" stroke="black" d="M245.23,-65.76C303.78,-67.67 408.55,-74.3 495,-97 504.14,-99.4 513.69,-102.41 522.91,-105.59"/>
<polygon fill="black" stroke="black" points="521.78,-108.9 532.37,-108.95 524.12,-102.3 521.78,-108.9"/>
<text text-anchor="middle" x="367" y="-86" font-family="Fira Mono Medium" font-size="10.00">at</text>
</g>
<!-- node_4&#45;&gt;node_3 -->
<g id="edge5" class="edge">
<title>node_4&#45;&gt;node_3</title>
<path fill="none" stroke="black" d="M245.08,-52.1C251.1,-50.38 257.2,-48.65 263,-47 274.85,-43.64 287.46,-40.08 299.66,-36.64"/>
<polygon fill="black" stroke="black" points="300.65,-40 309.32,-33.92 298.75,-33.26 300.65,-40"/>
<text text-anchor="middle" x="275.5" y="-50" font-family="Fira Mono Medium" font-size="10.00">eats</text>
</g>
<!-- node_5 -->
<g id="node6" class="node">
<title>node_5</title>
<polygon fill="none" stroke="black" points="92,-106 0,-106 0,-70 92,-70 92,-106"/>
<text text-anchor="start" x="27" y="-91.4" font-family="Fira Mono Medium" font-weight="bold" font-size="12.00">cargo</text>
<text text-anchor="start" x="8" y="-79.4" font-family="Fira Mono Medium" font-style="italic" font-size="12.00">kind:</text>
<text text-anchor="start" x="46" y="-79.4" font-family="Fira Mono Medium" font-size="12.00"> wolf</text>
</g>
<!-- node_5&#45;&gt;node_1 -->
<g id="edge8" class="edge">
<title>node_5&#45;&gt;node_1</title>
<path fill="none" stroke="black" d="M92.08,-91.61C98.1,-92.09 104.2,-92.56 110,-93 248.68,-103.55 410.57,-115.19 502.72,-121.74"/>
<polygon fill="black" stroke="black" points="502.56,-125.24 512.78,-122.46 503.05,-118.26 502.56,-125.24"/>
<text text-anchor="middle" x="275.5" y="-110" font-family="Fira Mono Medium" font-size="10.00">at</text>
</g>
<!-- node_5&#45;&gt;node_4 -->
<g id="edge7" class="edge">
<title>node_5&#45;&gt;node_4</title>
<path fill="none" stroke="black" d="M92.3,-81.1C108.2,-78.68 126.24,-75.93 142.86,-73.4"/>
<polygon fill="black" stroke="black" points="143.63,-76.82 152.99,-71.86 142.57,-69.9 143.63,-76.82"/>
<text text-anchor="middle" x="122.5" y="-81" font-family="Fira Mono Medium" font-size="10.00">eats</text>
</g>
</g>
</svg>
