<?xml version="1.0" encoding="UTF-8" standalone="no"?>
<!DOCTYPE svg PUBLIC "-//W3C//DTD SVG 1.1//EN"
 "http://www.w3.org/Graphics/SVG/1.1/DTD/svg11.dtd">
<!-- Generated by graphviz version 2.43.0 (0)
 -->
<!-- Title: %3 Pages: 1 -->
<svg width="651pt" height="152pt"
 viewBox="0.00 0.00 651.00 152.00" xmlns="http://www.w3.org/2000/svg" xmlns:xlink="http://www.w3.org/1999/xlink">
<g id="graph0" class="graph" transform="scale(1 1) rotate(0) translate(4 148)">
<title>%3</title>
<polygon fill="white" stroke="transparent" points="-4,4 -4,-148 647,-148 647,4 -4,4"/>
<!-- node_0 -->
<g id="node1" class="node">
<title>node_0</title>
<polygon fill="none" stroke="black" points="428,-90 306,-90 306,-54 428,-54 428,-90"/>
<text text-anchor="start" x="351.5" y="-75.4" font-family="Fira Mono Medium" font-weight="bold" font-size="12.00">side</text>
<text text-anchor="start" x="314" y="-63.4" font-family="Fira Mono Medium" font-style="italic" font-size="12.00">location:</text>
<text text-anchor="start" x="382" y="-63.4" font-family="Fira Mono Medium" font-size="12.00"> left</text>
</g>
<!-- node_1 -->
<g id="node2" class="node">
<title>node_1</title>
<polygon fill="none" stroke="black" points="643,-92 513,-92 513,-56 643,-56 643,-92"/>
<text text-anchor="start" x="562.5" y="-77.4" font-family="Fira Mono Medium" font-weight="bold" font-size="12.00">side</text>
<text text-anchor="start" x="521" y="-65.4" font-family="Fira Mono Medium" font-style="italic" font-size="12.00">location:</text>
<text text-anchor="start" x="589" y="-65.4" font-family="Fira Mono Medium" font-size="12.00"> right</text>
</g>
<!-- node_0&#45;&gt;node_1 -->
<g id="edge1" class="edge">
<title>node_0&#45;&gt;node_1</title>
<path fill="none" stroke="black" d="M428.17,-72.58C451.38,-72.8 478.18,-73.05 502.58,-73.29"/>
<polygon fill="black" stroke="black" points="502.85,-76.79 512.88,-73.39 502.91,-69.79 502.85,-76.79"/>
<text text-anchor="middle" x="470.5" y="-76" font-family="Fira Mono Medium" font-size="10.00">opposite</text>
</g>
<!-- node_1&#45;&gt;node_0 -->
<g id="edge2" class="edge">
<title>node_1&#45;&gt;node_0</title>
<path fill="none" stroke="black" d="M512.74,-59.38C506.76,-58.42 500.79,-57.59 495,-57 473.34,-54.78 467.68,-54.93 446,-57 443.48,-57.24 440.92,-57.52 438.33,-57.84"/>
<polygon fill="black" stroke="black" points="437.73,-54.39 428.3,-59.23 438.69,-61.33 437.73,-54.39"/>
<text text-anchor="middle" x="470.5" y="-60" font-family="Fira Mono Medium" font-size="10.00">opposite</text>
</g>
<!-- node_2 -->
<g id="node3" class="node">
<title>node_2</title>
<polygon fill="none" stroke="black" points="394,-144 340,-144 340,-108 394,-108 394,-144"/>
<text text-anchor="start" x="351.5" y="-123.9" font-family="Fira Mono Medium" font-weight="bold" font-size="12.00">boat</text>
</g>
<!-- node_2&#45;&gt;node_1 -->
<g id="edge3" class="edge">
<title>node_2&#45;&gt;node_1</title>
<path fill="none" stroke="black" d="M394.05,-119.52C421.17,-112.77 464.9,-101.89 502.81,-92.46"/>
<polygon fill="black" stroke="black" points="503.96,-95.78 512.82,-89.97 502.27,-88.99 503.96,-95.78"/>
<text text-anchor="middle" x="470.5" y="-109" font-family="Fira Mono Medium" font-size="10.00">at</text>
</g>
<!-- node_3 -->
<g id="node4" class="node">
<title>node_3</title>
<polygon fill="none" stroke="black" points="424.5,-36 309.5,-36 309.5,0 424.5,0 424.5,-36"/>
<text text-anchor="start" x="348" y="-21.4" font-family="Fira Mono Medium" font-weight="bold" font-size="12.00">cargo</text>
<text text-anchor="start" x="317.5" y="-9.4" font-family="Fira Mono Medium" font-style="italic" font-size="12.00">kind:</text>
<text text-anchor="start" x="355.5" y="-9.4" font-family="Fira Mono Medium" font-size="12.00"> cabbage</text>
</g>
<!-- node_3&#45;&gt;node_1 -->
<g id="edge4" class="edge">
<title>node_3&#45;&gt;node_1</title>
<path fill="none" stroke="black" d="M424.56,-25.05C446.77,-28.53 472.33,-33.42 495,-40 506.22,-43.25 517.98,-47.56 528.99,-52.01"/>
<polygon fill="black" stroke="black" points="527.85,-55.33 538.43,-55.94 530.54,-48.87 527.85,-55.33"/>
<text text-anchor="middle" x="470.5" y="-43" font-family="Fira Mono Medium" font-size="10.00">at</text>
</g>
<!-- node_4 -->
<g id="node5" class="node">
<title>node_4</title>
<polygon fill="none" stroke="black" points="245,-42 153,-42 153,-6 245,-6 245,-42"/>
<text text-anchor="start" x="180" y="-27.4" font-family="Fira Mono Medium" font-weight="bold" font-size="12.00">cargo</text>
<text text-anchor="start" x="161" y="-15.4" font-family="Fira Mono Medium" font-style="italic" font-size="12.00">kind:</text>
<text text-anchor="start" x="199" y="-15.4" font-family="Fira Mono Medium" font-size="12.00"> goat</text>
</g>
<!-- node_4&#45;&gt;node_0 -->
<g id="edge6" class="edge">
<title>node_4&#45;&gt;node_0</title>
<path fill="none" stroke="black" d="M245.36,-37.12C260.93,-41.62 278.74,-46.77 295.81,-51.7"/>
<polygon fill="black" stroke="black" points="295.17,-55.16 305.75,-54.58 297.11,-48.44 295.17,-55.16"/>
<text text-anchor="middle" x="275.5" y="-52" font-family="Fira Mono Medium" font-size="10.00">at</text>
</g>
<!-- node_4&#45;&gt;node_3 -->
<g id="edge5" class="edge">
<title>node_4&#45;&gt;node_3</title>
<path fill="none" stroke="black" d="M245.06,-20.04C251.09,-19.62 257.19,-19.26 263,-19 274.72,-18.48 287.21,-18.16 299.29,-17.97"/>
<polygon fill="black" stroke="black" points="299.36,-21.47 309.31,-17.84 299.27,-14.47 299.36,-21.47"/>
<text text-anchor="middle" x="275.5" y="-22" font-family="Fira Mono Medium" font-size="10.00">eats</text>
</g>
<!-- node_5 -->
<g id="node6" class="node">
<title>node_5</title>
<polygon fill="none" stroke="black" points="92,-69 0,-69 0,-33 92,-33 92,-69"/>
<text text-anchor="start" x="27" y="-54.4" font-family="Fira Mono Medium" font-weight="bold" font-size="12.00">cargo</text>
<text text-anchor="start" x="8" y="-42.4" font-family="Fira Mono Medium" font-style="italic" font-size="12.00">kind:</text>
<text text-anchor="start" x="46" y="-42.4" font-family="Fira Mono Medium" font-size="12.00"> wolf</text>
</g>
<!-- node_5&#45;&gt;node_0 -->
<g id="edge8" class="edge">
<title>node_5&#45;&gt;node_0</title>
<path fill="none" stroke="black" d="M92.03,-53.96C145.06,-57.46 233.79,-63.3 295.86,-67.38"/>
<polygon fill="black" stroke="black" points="295.76,-70.88 305.97,-68.05 296.22,-63.9 295.76,-70.88"/>
<text text-anchor="middle" x="199" y="-66" font-family="Fira Mono Medium" font-size="10.00">at</text>
</g>
<!-- node_5&#45;&gt;node_4 -->
<g id="edge7" class="edge">
<title>node_5&#45;&gt;node_4</title>
<path fill="none" stroke="black" d="M92.3,-42.9C108.2,-40.06 126.24,-36.83 142.86,-33.86"/>
<polygon fill="black" stroke="black" points="143.76,-37.25 152.99,-32.05 142.53,-30.36 143.76,-37.25"/>
<text text-anchor="middle" x="122.5" y="-42" font-family="Fira Mono Medium" font-size="10.00">eats</text>
</g>
</g>
</svg>
