<?xml version="1.0" encoding="UTF-8" standalone="no"?>
<!DOCTYPE svg PUBLIC "-//W3C//DTD SVG 1.1//EN"
 "http://www.w3.org/Graphics/SVG/1.1/DTD/svg11.dtd">
<!-- Generated by graphviz version 2.43.0 (0)
 -->
<!-- Title: %3 Pages: 1 -->
<svg width="651pt" height="141pt"
 viewBox="0.00 0.00 651.00 141.00" xmlns="http://www.w3.org/2000/svg" xmlns:xlink="http://www.w3.org/1999/xlink">
<g id="graph0" class="graph" transform="scale(1 1) rotate(0) translate(4 137)">
<title>%3</title>
<polygon fill="white" stroke="transparent" points="-4,4 -4,-137 647,-137 647,4 -4,4"/>
<!-- node_0 -->
<g id="node1" class="node">
<title>node_0</title>
<polygon fill="none" stroke="black" points="428,-47 306,-47 306,-11 428,-11 428,-47"/>
<text text-anchor="start" x="351.5" y="-32.4" font-family="Fira Mono Medium" font-weight="bold" font-size="12.00">side</text>
<text text-anchor="start" x="314" y="-20.4" font-family="Fira Mono Medium" font-style="italic" font-size="12.00">location:</text>
<text text-anchor="start" x="382" y="-20.4" font-family="Fira Mono Medium" font-size="12.00"> left</text>
</g>
<!-- node_1 -->
<g id="node2" class="node">
<title>node_1</title>
<polygon fill="none" stroke="black" points="643,-91 513,-91 513,-55 643,-55 643,-91"/>
<text text-anchor="start" x="562.5" y="-76.4" font-family="Fira Mono Medium" font-weight="bold" font-size="12.00">side</text>
<text text-anchor="start" x="521" y="-64.4" font-family="Fira Mono Medium" font-style="italic" font-size="12.00">location:</text>
<text text-anchor="start" x="589" y="-64.4" font-family="Fira Mono Medium" font-size="12.00"> right</text>
</g>
<!-- node_0&#45;&gt;node_1 -->
<g id="edge1" class="edge">
<title>node_0&#45;&gt;node_1</title>
<path fill="none" stroke="black" d="M428.01,-18.41C449.48,-16.64 473.64,-17 495,-23 513.52,-28.2 532,-38.87 546.71,-49.02"/>
<polygon fill="black" stroke="black" points="544.75,-51.91 554.92,-54.89 548.82,-46.22 544.75,-51.91"/>
<text text-anchor="middle" x="470.5" y="-26" font-family="Fira Mono Medium" font-size="10.00">opposite</text>
</g>
<!-- node_1&#45;&gt;node_0 -->
<g id="edge2" class="edge">
<title>node_1&#45;&gt;node_0</title>
<path fill="none" stroke="black" d="M512.88,-59.5C489.18,-54.51 462.2,-48.83 438,-43.74"/>
<polygon fill="black" stroke="black" points="438.68,-40.3 428.17,-41.67 437.24,-47.15 438.68,-40.3"/>
<text text-anchor="middle" x="470.5" y="-58" font-family="Fira Mono Medium" font-size="10.00">opposite</text>
</g>
<!-- node_2 -->
<g id="node3" class="node">
<title>node_2</title>
<polygon fill="none" stroke="black" points="226,-36 172,-36 172,0 226,0 226,-36"/>
<text text-anchor="start" x="183.5" y="-15.9" font-family="Fira Mono Medium" font-weight="bold" font-size="12.00">boat</text>
</g>
<!-- node_2&#45;&gt;node_0 -->
<g id="edge3" class="edge">
<title>node_2&#45;&gt;node_0</title>
<path fill="none" stroke="black" d="M226.22,-17.5C243.73,-17.37 267.27,-17.56 288,-19 290.5,-19.17 293.05,-19.37 295.62,-19.6"/>
<polygon fill="black" stroke="black" points="295.31,-23.08 305.6,-20.55 295.98,-16.12 295.31,-23.08"/>
<text text-anchor="middle" x="275.5" y="-22" font-family="Fira Mono Medium" font-size="10.00">at</text>
</g>
<!-- node_3 -->
<g id="node4" class="node">
<title>node_3</title>
<polygon fill="none" stroke="black" points="424.5,-104 309.5,-104 309.5,-68 424.5,-68 424.5,-104"/>
<text text-anchor="start" x="348" y="-89.4" font-family="Fira Mono Medium" font-weight="bold" font-size="12.00">cargo</text>
<text text-anchor="start" x="317.5" y="-77.4" font-family="Fira Mono Medium" font-style="italic" font-size="12.00">kind:</text>
<text text-anchor="start" x="355.5" y="-77.4" font-family="Fira Mono Medium" font-size="12.00"> cabbage</text>
</g>
<!-- node_3&#45;&gt;node_1 -->
<g id="edge4" class="edge">
<title>node_3&#45;&gt;node_1</title>
<path fill="none" stroke="black" d="M424.56,-82.48C448.57,-80.99 476.9,-79.23 502.57,-77.63"/>
<polygon fill="black" stroke="black" points="502.88,-81.12 512.64,-77 502.44,-74.13 502.88,-81.12"/>
<text text-anchor="middle" x="470.5" y="-84" font-family="Fira Mono Medium" font-size="10.00">at</text>
</g>
<!-- node_4 -->
<g id="node5" class="node">
<title>node_4</title>
<polygon fill="none" stroke="black" points="245,-104 153,-104 153,-68 245,-68 245,-104"/>
<text text-anchor="start" x="180" y="-89.4" font-family="Fira Mono Medium" font-weight="bold" font-size="12.00">cargo</text>
<text text-anchor="start" x="161" y="-77.4" font-family="Fira Mono Medium" font-style="italic" font-size="12.00">kind:</text>
<text text-anchor="start" x="199" y="-77.4" font-family="Fira Mono Medium" font-size="12.00"> goat</text>
</g>
<!-- node_4&#45;&gt;node_0 -->
<g id="edge6" class="edge">
<title>node_4&#45;&gt;node_0</title>
<path fill="none" stroke="black" d="M245.36,-70.42C263.34,-64.25 284.32,-57.05 303.69,-50.4"/>
<polygon fill="black" stroke="black" points="305.03,-53.64 313.35,-47.08 302.75,-47.02 305.03,-53.64"/>
<text text-anchor="middle" x="275.5" y="-68" font-family="Fira Mono Medium" font-size="10.00">at</text>
</g>
<!-- node_4&#45;&gt;node_3 -->
<g id="edge5" class="edge">
<title>node_4&#45;&gt;node_3</title>
<path fill="none" stroke="black" d="M245.36,-86C261.97,-86 281.13,-86 299.22,-86"/>
<polygon fill="black" stroke="black" points="299.42,-89.5 309.42,-86 299.42,-82.5 299.42,-89.5"/>
<text text-anchor="middle" x="275.5" y="-89" font-family="Fira Mono Medium" font-size="10.00">eats</text>
</g>
<!-- node_5 -->
<g id="node6" class="node">
<title>node_5</title>
<polygon fill="none" stroke="black" points="92,-132 0,-132 0,-96 92,-96 92,-132"/>
<text text-anchor="start" x="27" y="-117.4" font-family="Fira Mono Medium" font-weight="bold" font-size="12.00">cargo</text>
<text text-anchor="start" x="8" y="-105.4" font-family="Fira Mono Medium" font-style="italic" font-size="12.00">kind:</text>
<text text-anchor="start" x="46" y="-105.4" font-family="Fira Mono Medium" font-size="12.00"> wolf</text>
</g>
<!-- node_5&#45;&gt;node_1 -->
<g id="edge8" class="edge">
<title>node_5&#45;&gt;node_1</title>
<path fill="none" stroke="black" d="M92.11,-117.55C163.68,-122.37 307.47,-128.68 428,-113 456.61,-109.28 487.53,-101.6 513.75,-93.96"/>
<polygon fill="black" stroke="black" points="514.97,-97.25 523.55,-91.05 512.97,-90.54 514.97,-97.25"/>
<text text-anchor="middle" x="275.5" y="-125" font-family="Fira Mono Medium" font-size="10.00">at</text>
</g>
<!-- node_5&#45;&gt;node_4 -->
<g id="edge7" class="edge">
<title>node_5&#45;&gt;node_4</title>
<path fill="none" stroke="black" d="M92.3,-105.6C108.2,-102.65 126.24,-99.31 142.86,-96.23"/>
<polygon fill="black" stroke="black" points="143.79,-99.61 152.99,-94.35 142.52,-92.73 143.79,-99.61"/>
<text text-anchor="middle" x="122.5" y="-104" font-family="Fira Mono Medium" font-size="10.00">eats</text>
</g>
</g>
</svg>
