<?xml version="1.0" encoding="UTF-8" standalone="no"?>
<!DOCTYPE svg PUBLIC "-//W3C//DTD SVG 1.1//EN"
 "http://www.w3.org/Graphics/SVG/1.1/DTD/svg11.dtd">
<!-- Generated by graphviz version 2.43.0 (0)
 -->
<!-- Title: %3 Pages: 1 -->
<svg width="448pt" height="159pt"
 viewBox="0.00 0.00 448.00 159.00" xmlns="http://www.w3.org/2000/svg" xmlns:xlink="http://www.w3.org/1999/xlink">
<g id="graph0" class="graph" transform="scale(1 1) rotate(0) translate(4 155)">
<title>%3</title>
<polygon fill="white" stroke="transparent" points="-4,4 -4,-155 444,-155 444,4 -4,4"/>
<!-- node_0 -->
<g id="node1" class="node">
<title>node_0</title>
<polygon fill="none" stroke="black" points="225,-36 103,-36 103,0 225,0 225,-36"/>
<text text-anchor="start" x="148.5" y="-21.4" font-family="Fira Mono Medium" font-weight="bold" font-size="12.00">side</text>
<text text-anchor="start" x="111" y="-9.4" font-family="Fira Mono Medium" font-style="italic" font-size="12.00">location:</text>
<text text-anchor="start" x="179" y="-9.4" font-family="Fira Mono Medium" font-size="12.00"> left</text>
</g>
<!-- node_1 -->
<g id="node2" class="node">
<title>node_1</title>
<polygon fill="none" stroke="black" points="440,-80 310,-80 310,-44 440,-44 440,-80"/>
<text text-anchor="start" x="359.5" y="-65.4" font-family="Fira Mono Medium" font-weight="bold" font-size="12.00">side</text>
<text text-anchor="start" x="318" y="-53.4" font-family="Fira Mono Medium" font-style="italic" font-size="12.00">location:</text>
<text text-anchor="start" x="386" y="-53.4" font-family="Fira Mono Medium" font-size="12.00"> right</text>
</g>
<!-- node_0&#45;&gt;node_1 -->
<g id="edge1" class="edge">
<title>node_0&#45;&gt;node_1</title>
<path fill="none" stroke="black" d="M225.17,-30.67C248.49,-35.58 275.42,-41.25 299.91,-46.4"/>
<polygon fill="black" stroke="black" points="299.37,-49.87 309.88,-48.5 300.82,-43.02 299.37,-49.87"/>
<text text-anchor="middle" x="267.5" y="-46" font-family="Fira Mono Medium" font-size="10.00">opposite</text>
</g>
<!-- node_1&#45;&gt;node_0 -->
<g id="edge2" class="edge">
<title>node_1&#45;&gt;node_0</title>
<path fill="none" stroke="black" d="M347.24,-43.8C331.82,-34.41 311.65,-23.92 292,-19 273.95,-14.48 254.01,-12.83 235.37,-12.65"/>
<polygon fill="black" stroke="black" points="235.16,-9.15 225.18,-12.69 235.19,-16.15 235.16,-9.15"/>
<text text-anchor="middle" x="267.5" y="-22" font-family="Fira Mono Medium" font-size="10.00">opposite</text>
</g>
<!-- node_2 -->
<g id="node3" class="node">
<title>node_2</title>
<polygon fill="none" stroke="black" points="54,-36 0,-36 0,0 54,0 54,-36"/>
<text text-anchor="start" x="11.5" y="-15.9" font-family="Fira Mono Medium" font-weight="bold" font-size="12.00">boat</text>
</g>
<!-- node_2&#45;&gt;node_0 -->
<g id="edge3" class="edge">
<title>node_2&#45;&gt;node_0</title>
<path fill="none" stroke="black" d="M54.03,-18C65.25,-18 78.97,-18 92.84,-18"/>
<polygon fill="black" stroke="black" points="92.93,-21.5 102.93,-18 92.93,-14.5 92.93,-21.5"/>
<text text-anchor="middle" x="78.5" y="-21" font-family="Fira Mono Medium" font-size="10.00">at</text>
</g>
<!-- node_3 -->
<g id="node4" class="node">
<title>node_3</title>
<polygon fill="none" stroke="black" points="221.5,-151 106.5,-151 106.5,-115 221.5,-115 221.5,-151"/>
<text text-anchor="start" x="145" y="-136.4" font-family="Fira Mono Medium" font-weight="bold" font-size="12.00">cargo</text>
<text text-anchor="start" x="114.5" y="-124.4" font-family="Fira Mono Medium" font-style="italic" font-size="12.00">kind:</text>
<text text-anchor="start" x="152.5" y="-124.4" font-family="Fira Mono Medium" font-size="12.00"> cabbage</text>
</g>
<!-- node_3&#45;&gt;node_1 -->
<g id="edge4" class="edge">
<title>node_3&#45;&gt;node_1</title>
<path fill="none" stroke="black" d="M218.01,-114.99C246.26,-105.4 281.2,-93.52 310.85,-83.45"/>
<polygon fill="black" stroke="black" points="312.34,-86.64 320.68,-80.11 310.09,-80.01 312.34,-86.64"/>
<text text-anchor="middle" x="267.5" y="-108" font-family="Fira Mono Medium" font-size="10.00">at</text>
</g>
<!-- node_4 -->
<g id="node5" class="node">
<title>node_4</title>
<polygon fill="none" stroke="black" points="210,-97 118,-97 118,-61 210,-61 210,-97"/>
<text text-anchor="start" x="145" y="-82.4" font-family="Fira Mono Medium" font-weight="bold" font-size="12.00">cargo</text>
<text text-anchor="start" x="126" y="-70.4" font-family="Fira Mono Medium" font-style="italic" font-size="12.00">kind:</text>
<text text-anchor="start" x="164" y="-70.4" font-family="Fira Mono Medium" font-size="12.00"> wolf</text>
</g>
<!-- node_4&#45;&gt;node_1 -->
<g id="edge5" class="edge">
<title>node_4&#45;&gt;node_1</title>
<path fill="none" stroke="black" d="M210.09,-75.33C236.29,-73.2 269.95,-70.46 299.94,-68.02"/>
<polygon fill="black" stroke="black" points="300.27,-71.51 309.96,-67.21 299.71,-64.53 300.27,-71.51"/>
<text text-anchor="middle" x="267.5" y="-75" font-family="Fira Mono Medium" font-size="10.00">at</text>
</g>
</g>
</svg>
