<?xml version="1.0" encoding="UTF-8" standalone="no"?>
<!DOCTYPE svg PUBLIC "-//W3C//DTD SVG 1.1//EN"
 "http://www.w3.org/Graphics/SVG/1.1/DTD/svg11.dtd">
<!-- Generated by graphviz version 2.43.0 (0)
 -->
<!-- Title: %3 Pages: 1 -->
<svg width="639pt" height="132pt"
 viewBox="0.00 0.00 639.00 132.00" xmlns="http://www.w3.org/2000/svg" xmlns:xlink="http://www.w3.org/1999/xlink">
<g id="graph0" class="graph" transform="scale(1 1) rotate(0) translate(4 128)">
<title>%3</title>
<polygon fill="white" stroke="transparent" points="-4,4 -4,-128 635,-128 635,4 -4,4"/>
<!-- node_0 -->
<g id="node1" class="node">
<title>node_0</title>
<polygon fill="none" stroke="black" points="416,-63 294,-63 294,-27 416,-27 416,-63"/>
<text text-anchor="start" x="339.5" y="-48.4" font-family="Fira Mono Medium" font-weight="bold" font-size="12.00">side</text>
<text text-anchor="start" x="302" y="-36.4" font-family="Fira Mono Medium" font-style="italic" font-size="12.00">location:</text>
<text text-anchor="start" x="370" y="-36.4" font-family="Fira Mono Medium" font-size="12.00"> left</text>
</g>
<!-- node_1 -->
<g id="node2" class="node">
<title>node_1</title>
<polygon fill="none" stroke="black" points="631,-90 501,-90 501,-54 631,-54 631,-90"/>
<text text-anchor="start" x="550.5" y="-75.4" font-family="Fira Mono Medium" font-weight="bold" font-size="12.00">side</text>
<text text-anchor="start" x="509" y="-63.4" font-family="Fira Mono Medium" font-style="italic" font-size="12.00">location:</text>
<text text-anchor="start" x="577" y="-63.4" font-family="Fira Mono Medium" font-size="12.00"> right</text>
</g>
<!-- node_0&#45;&gt;node_1 -->
<g id="edge1" class="edge">
<title>node_0&#45;&gt;node_1</title>
<path fill="none" stroke="black" d="M416.17,-52.77C439.49,-55.79 466.42,-59.26 490.91,-62.43"/>
<polygon fill="black" stroke="black" points="490.51,-65.91 500.88,-63.72 491.41,-58.96 490.51,-65.91"/>
<text text-anchor="middle" x="458.5" y="-63" font-family="Fira Mono Medium" font-size="10.00">opposite</text>
</g>
<!-- node_1&#45;&gt;node_0 -->
<g id="edge2" class="edge">
<title>node_1&#45;&gt;node_0</title>
<path fill="none" stroke="black" d="M527.49,-53.98C513.82,-48.33 498.02,-42.83 483,-40 464.79,-36.57 444.87,-35.93 426.32,-36.62"/>
<polygon fill="black" stroke="black" points="425.98,-33.13 416.17,-37.13 426.33,-40.12 425.98,-33.13"/>
<text text-anchor="middle" x="458.5" y="-43" font-family="Fira Mono Medium" font-size="10.00">opposite</text>
</g>
<!-- node_2 -->
<g id="node3" class="node">
<title>node_2</title>
<polygon fill="none" stroke="black" points="382,-124 328,-124 328,-88 382,-88 382,-124"/>
<text text-anchor="start" x="339.5" y="-103.9" font-family="Fira Mono Medium" font-weight="bold" font-size="12.00">boat</text>
</g>
<!-- node_2&#45;&gt;node_1 -->
<g id="edge3" class="edge">
<title>node_2&#45;&gt;node_1</title>
<path fill="none" stroke="black" d="M382.05,-101.76C409.17,-97.35 452.9,-90.24 490.81,-84.07"/>
<polygon fill="black" stroke="black" points="491.51,-87.5 500.82,-82.44 490.39,-80.59 491.51,-87.5"/>
<text text-anchor="middle" x="458.5" y="-96" font-family="Fira Mono Medium" font-size="10.00">at</text>
</g>
<!-- node_3 -->
<g id="node4" class="node">
<title>node_3</title>
<polygon fill="none" stroke="black" points="245,-36 153,-36 153,0 245,0 245,-36"/>
<text text-anchor="start" x="180" y="-21.4" font-family="Fira Mono Medium" font-weight="bold" font-size="12.00">cargo</text>
<text text-anchor="start" x="161" y="-9.4" font-family="Fira Mono Medium" font-style="italic" font-size="12.00">kind:</text>
<text text-anchor="start" x="199" y="-9.4" font-family="Fira Mono Medium" font-size="12.00"> goat</text>
</g>
<!-- node_3&#45;&gt;node_0 -->
<g id="edge4" class="edge">
<title>node_3&#45;&gt;node_0</title>
<path fill="none" stroke="black" d="M245.37,-25.95C257.46,-28.07 270.81,-30.41 283.89,-32.71"/>
<polygon fill="black" stroke="black" points="283.36,-36.17 293.82,-34.45 284.57,-29.27 283.36,-36.17"/>
<text text-anchor="middle" x="269.5" y="-34" font-family="Fira Mono Medium" font-size="10.00">at</text>
</g>
<!-- node_4 -->
<g id="node5" class="node">
<title>node_4</title>
<polygon fill="none" stroke="black" points="92,-63 0,-63 0,-27 92,-27 92,-63"/>
<text text-anchor="start" x="27" y="-48.4" font-family="Fira Mono Medium" font-weight="bold" font-size="12.00">cargo</text>
<text text-anchor="start" x="8" y="-36.4" font-family="Fira Mono Medium" font-style="italic" font-size="12.00">kind:</text>
<text text-anchor="start" x="46" y="-36.4" font-family="Fira Mono Medium" font-size="12.00"> wolf</text>
</g>
<!-- node_4&#45;&gt;node_0 -->
<g id="edge6" class="edge">
<title>node_4&#45;&gt;node_0</title>
<path fill="none" stroke="black" d="M92.07,-48.21C98.09,-48.54 104.19,-48.82 110,-49 168.51,-50.86 234.94,-49.54 283.7,-47.94"/>
<polygon fill="black" stroke="black" points="283.95,-51.43 293.82,-47.6 283.71,-44.44 283.95,-51.43"/>
<text text-anchor="middle" x="199" y="-52" font-family="Fira Mono Medium" font-size="10.00">at</text>
</g>
<!-- node_4&#45;&gt;node_3 -->
<g id="edge5" class="edge">
<title>node_4&#45;&gt;node_3</title>
<path fill="none" stroke="black" d="M92.3,-36.9C108.2,-34.06 126.24,-30.83 142.86,-27.86"/>
<polygon fill="black" stroke="black" points="143.76,-31.25 152.99,-26.05 142.53,-24.36 143.76,-31.25"/>
<text text-anchor="middle" x="122.5" y="-37" font-family="Fira Mono Medium" font-size="10.00">eats</text>
</g>
</g>
</svg>
