<?xml version="1.0" encoding="UTF-8" standalone="no"?>
<!DOCTYPE svg PUBLIC "-//W3C//DTD SVG 1.1//EN"
 "http://www.w3.org/Graphics/SVG/1.1/DTD/svg11.dtd">
<!-- Generated by graphviz version 2.43.0 (0)
 -->
<!-- Title: %3 Pages: 1 -->
<svg width="498pt" height="152pt"
 viewBox="0.00 0.00 498.00 152.00" xmlns="http://www.w3.org/2000/svg" xmlns:xlink="http://www.w3.org/1999/xlink">
<g id="graph0" class="graph" transform="scale(1 1) rotate(0) translate(4 148)">
<title>%3</title>
<polygon fill="white" stroke="transparent" points="-4,4 -4,-148 494,-148 494,4 -4,4"/>
<!-- node_0 -->
<g id="node1" class="node">
<title>node_0</title>
<polygon fill="none" stroke="black" points="275,-90 153,-90 153,-54 275,-54 275,-90"/>
<text text-anchor="start" x="198.5" y="-75.4" font-family="Fira Mono Medium" font-weight="bold" font-size="12.00">side</text>
<text text-anchor="start" x="161" y="-63.4" font-family="Fira Mono Medium" font-style="italic" font-size="12.00">location:</text>
<text text-anchor="start" x="229" y="-63.4" font-family="Fira Mono Medium" font-size="12.00"> left</text>
</g>
<!-- node_1 -->
<g id="node2" class="node">
<title>node_1</title>
<polygon fill="none" stroke="black" points="490,-92 360,-92 360,-56 490,-56 490,-92"/>
<text text-anchor="start" x="409.5" y="-77.4" font-family="Fira Mono Medium" font-weight="bold" font-size="12.00">side</text>
<text text-anchor="start" x="368" y="-65.4" font-family="Fira Mono Medium" font-style="italic" font-size="12.00">location:</text>
<text text-anchor="start" x="436" y="-65.4" font-family="Fira Mono Medium" font-size="12.00"> right</text>
</g>
<!-- node_0&#45;&gt;node_1 -->
<g id="edge1" class="edge">
<title>node_0&#45;&gt;node_1</title>
<path fill="none" stroke="black" d="M275.17,-72.58C298.38,-72.8 325.18,-73.05 349.58,-73.29"/>
<polygon fill="black" stroke="black" points="349.85,-76.79 359.88,-73.39 349.91,-69.79 349.85,-76.79"/>
<text text-anchor="middle" x="317.5" y="-76" font-family="Fira Mono Medium" font-size="10.00">opposite</text>
</g>
<!-- node_1&#45;&gt;node_0 -->
<g id="edge2" class="edge">
<title>node_1&#45;&gt;node_0</title>
<path fill="none" stroke="black" d="M359.74,-59.38C353.76,-58.42 347.79,-57.59 342,-57 320.34,-54.78 314.68,-54.93 293,-57 290.48,-57.24 287.92,-57.52 285.33,-57.84"/>
<polygon fill="black" stroke="black" points="284.73,-54.39 275.3,-59.23 285.69,-61.33 284.73,-54.39"/>
<text text-anchor="middle" x="317.5" y="-60" font-family="Fira Mono Medium" font-size="10.00">opposite</text>
</g>
<!-- node_2 -->
<g id="node3" class="node">
<title>node_2</title>
<polygon fill="none" stroke="black" points="241,-144 187,-144 187,-108 241,-108 241,-144"/>
<text text-anchor="start" x="198.5" y="-123.9" font-family="Fira Mono Medium" font-weight="bold" font-size="12.00">boat</text>
</g>
<!-- node_2&#45;&gt;node_1 -->
<g id="edge3" class="edge">
<title>node_2&#45;&gt;node_1</title>
<path fill="none" stroke="black" d="M241.05,-119.52C268.17,-112.77 311.9,-101.89 349.81,-92.46"/>
<polygon fill="black" stroke="black" points="350.96,-95.78 359.82,-89.97 349.27,-88.99 350.96,-95.78"/>
<text text-anchor="middle" x="317.5" y="-109" font-family="Fira Mono Medium" font-size="10.00">at</text>
</g>
<!-- node_3 -->
<g id="node4" class="node">
<title>node_3</title>
<polygon fill="none" stroke="black" points="260,-36 168,-36 168,0 260,0 260,-36"/>
<text text-anchor="start" x="195" y="-21.4" font-family="Fira Mono Medium" font-weight="bold" font-size="12.00">cargo</text>
<text text-anchor="start" x="176" y="-9.4" font-family="Fira Mono Medium" font-style="italic" font-size="12.00">kind:</text>
<text text-anchor="start" x="214" y="-9.4" font-family="Fira Mono Medium" font-size="12.00"> goat</text>
</g>
<!-- node_3&#45;&gt;node_1 -->
<g id="edge4" class="edge">
<title>node_3&#45;&gt;node_1</title>
<path fill="none" stroke="black" d="M260.22,-23.35C284.72,-26.87 315.35,-32.27 342,-40 353.22,-43.25 364.98,-47.56 375.99,-52.01"/>
<polygon fill="black" stroke="black" points="374.85,-55.33 385.43,-55.94 377.54,-48.87 374.85,-55.33"/>
<text text-anchor="middle" x="317.5" y="-43" font-family="Fira Mono Medium" font-size="10.00">at</text>
</g>
<!-- node_4 -->
<g id="node5" class="node">
<title>node_4</title>
<polygon fill="none" stroke="black" points="92,-63 0,-63 0,-27 92,-27 92,-63"/>
<text text-anchor="start" x="27" y="-48.4" font-family="Fira Mono Medium" font-weight="bold" font-size="12.00">cargo</text>
<text text-anchor="start" x="8" y="-36.4" font-family="Fira Mono Medium" font-style="italic" font-size="12.00">kind:</text>
<text text-anchor="start" x="46" y="-36.4" font-family="Fira Mono Medium" font-size="12.00"> wolf</text>
</g>
<!-- node_4&#45;&gt;node_0 -->
<g id="edge6" class="edge">
<title>node_4&#45;&gt;node_0</title>
<path fill="none" stroke="black" d="M92.36,-52.38C107.93,-54.91 125.74,-57.81 142.81,-60.58"/>
<polygon fill="black" stroke="black" points="142.32,-64.05 152.75,-62.2 143.44,-57.14 142.32,-64.05"/>
<text text-anchor="middle" x="122.5" y="-62" font-family="Fira Mono Medium" font-size="10.00">at</text>
</g>
<!-- node_4&#45;&gt;node_3 -->
<g id="edge5" class="edge">
<title>node_4&#45;&gt;node_3</title>
<path fill="none" stroke="black" d="M92.06,-37.03C98.09,-35.99 104.19,-34.96 110,-34 125.53,-31.44 142.39,-28.77 157.89,-26.37"/>
<polygon fill="black" stroke="black" points="158.5,-29.81 167.85,-24.83 157.43,-22.9 158.5,-29.81"/>
<text text-anchor="middle" x="122.5" y="-37" font-family="Fira Mono Medium" font-size="10.00">eats</text>
</g>
</g>
</svg>
