<?xml version="1.0" encoding="UTF-8" standalone="no"?>
<!DOCTYPE svg PUBLIC "-//W3C//DTD SVG 1.1//EN"
 "http://www.w3.org/Graphics/SVG/1.1/DTD/svg11.dtd">
<!-- Generated by graphviz version 2.43.0 (0)
 -->
<!-- Title: %3 Pages: 1 -->
<svg width="639pt" height="145pt"
 viewBox="0.00 0.00 639.00 145.00" xmlns="http://www.w3.org/2000/svg" xmlns:xlink="http://www.w3.org/1999/xlink">
<g id="graph0" class="graph" transform="scale(1 1) rotate(0) translate(4 141)">
<title>%3</title>
<polygon fill="white" stroke="transparent" points="-4,4 -4,-141 635,-141 635,4 -4,4"/>
<!-- node_0 -->
<g id="node1" class="node">
<title>node_0</title>
<polygon fill="none" stroke="black" points="416,-90 294,-90 294,-54 416,-54 416,-90"/>
<text text-anchor="start" x="339.5" y="-75.4" font-family="Fira Mono Medium" font-weight="bold" font-size="12.00">side</text>
<text text-anchor="start" x="302" y="-63.4" font-family="Fira Mono Medium" font-style="italic" font-size="12.00">location:</text>
<text text-anchor="start" x="370" y="-63.4" font-family="Fira Mono Medium" font-size="12.00"> left</text>
</g>
<!-- node_1 -->
<g id="node2" class="node">
<title>node_1</title>
<polygon fill="none" stroke="black" points="631,-90 501,-90 501,-54 631,-54 631,-90"/>
<text text-anchor="start" x="550.5" y="-75.4" font-family="Fira Mono Medium" font-weight="bold" font-size="12.00">side</text>
<text text-anchor="start" x="509" y="-63.4" font-family="Fira Mono Medium" font-style="italic" font-size="12.00">location:</text>
<text text-anchor="start" x="577" y="-63.4" font-family="Fira Mono Medium" font-size="12.00"> right</text>
</g>
<!-- node_0&#45;&gt;node_1 -->
<g id="edge1" class="edge">
<title>node_0&#45;&gt;node_1</title>
<path fill="none" stroke="black" d="M416.17,-72C439.38,-72 466.18,-72 490.58,-72"/>
<polygon fill="black" stroke="black" points="490.88,-75.5 500.88,-72 490.88,-68.5 490.88,-75.5"/>
<text text-anchor="middle" x="458.5" y="-75" font-family="Fira Mono Medium" font-size="10.00">opposite</text>
</g>
<!-- node_1&#45;&gt;node_0 -->
<g id="edge2" class="edge">
<title>node_1&#45;&gt;node_0</title>
<path fill="none" stroke="black" d="M500.69,-59.1C494.73,-58.25 488.77,-57.52 483,-57 461.31,-55.03 455.68,-54.93 434,-57 431.48,-57.24 428.92,-57.52 426.33,-57.84"/>
<polygon fill="black" stroke="black" points="425.73,-54.39 416.3,-59.23 426.69,-61.33 425.73,-54.39"/>
<text text-anchor="middle" x="458.5" y="-60" font-family="Fira Mono Medium" font-size="10.00">opposite</text>
</g>
<!-- node_2 -->
<g id="node3" class="node">
<title>node_2</title>
<polygon fill="none" stroke="black" points="226,-137 172,-137 172,-101 226,-101 226,-137"/>
<text text-anchor="start" x="183.5" y="-116.9" font-family="Fira Mono Medium" font-weight="bold" font-size="12.00">boat</text>
</g>
<!-- node_2&#45;&gt;node_0 -->
<g id="edge3" class="edge">
<title>node_2&#45;&gt;node_0</title>
<path fill="none" stroke="black" d="M226.12,-111.03C242.35,-106.08 264.03,-99.46 284.92,-93.08"/>
<polygon fill="black" stroke="black" points="286.22,-96.35 294.76,-90.08 284.17,-89.65 286.22,-96.35"/>
<text text-anchor="middle" x="269.5" y="-102" font-family="Fira Mono Medium" font-size="10.00">at</text>
</g>
<!-- node_3 -->
<g id="node4" class="node">
<title>node_3</title>
<polygon fill="none" stroke="black" points="245,-36 153,-36 153,0 245,0 245,-36"/>
<text text-anchor="start" x="180" y="-21.4" font-family="Fira Mono Medium" font-weight="bold" font-size="12.00">cargo</text>
<text text-anchor="start" x="161" y="-9.4" font-family="Fira Mono Medium" font-style="italic" font-size="12.00">kind:</text>
<text text-anchor="start" x="199" y="-9.4" font-family="Fira Mono Medium" font-size="12.00"> goat</text>
</g>
<!-- node_3&#45;&gt;node_0 -->
<g id="edge4" class="edge">
<title>node_3&#45;&gt;node_0</title>
<path fill="none" stroke="black" d="M245.37,-33.91C260.21,-39.11 276.95,-44.98 292.77,-50.53"/>
<polygon fill="black" stroke="black" points="291.87,-53.92 302.47,-53.93 294.19,-47.32 291.87,-53.92"/>
<text text-anchor="middle" x="269.5" y="-47" font-family="Fira Mono Medium" font-size="10.00">at</text>
</g>
<!-- node_4 -->
<g id="node5" class="node">
<title>node_4</title>
<polygon fill="none" stroke="black" points="92,-63 0,-63 0,-27 92,-27 92,-63"/>
<text text-anchor="start" x="27" y="-48.4" font-family="Fira Mono Medium" font-weight="bold" font-size="12.00">cargo</text>
<text text-anchor="start" x="8" y="-36.4" font-family="Fira Mono Medium" font-style="italic" font-size="12.00">kind:</text>
<text text-anchor="start" x="46" y="-36.4" font-family="Fira Mono Medium" font-size="12.00"> wolf</text>
</g>
<!-- node_4&#45;&gt;node_0 -->
<g id="edge6" class="edge">
<title>node_4&#45;&gt;node_0</title>
<path fill="none" stroke="black" d="M92.3,-48.98C142.83,-53.43 225.2,-60.67 284.03,-65.85"/>
<polygon fill="black" stroke="black" points="283.72,-69.33 293.99,-66.72 284.34,-62.36 283.72,-69.33"/>
<text text-anchor="middle" x="199" y="-66" font-family="Fira Mono Medium" font-size="10.00">at</text>
</g>
<!-- node_4&#45;&gt;node_3 -->
<g id="edge5" class="edge">
<title>node_4&#45;&gt;node_3</title>
<path fill="none" stroke="black" d="M92.3,-36.9C108.2,-34.06 126.24,-30.83 142.86,-27.86"/>
<polygon fill="black" stroke="black" points="143.76,-31.25 152.99,-26.05 142.53,-24.36 143.76,-31.25"/>
<text text-anchor="middle" x="122.5" y="-37" font-family="Fira Mono Medium" font-size="10.00">eats</text>
</g>
</g>
</svg>
