<?xml version="1.0" encoding="UTF-8" standalone="no"?>
<!DOCTYPE svg PUBLIC "-//W3C//DTD SVG 1.1//EN"
 "http://www.w3.org/Graphics/SVG/1.1/DTD/svg11.dtd">
<!-- Generated by graphviz version 2.43.0 (0)
 -->
<!-- Title: %3 Pages: 1 -->
<svg width="345pt" height="159pt"
 viewBox="0.00 0.00 345.00 159.00" xmlns="http://www.w3.org/2000/svg" xmlns:xlink="http://www.w3.org/1999/xlink">
<g id="graph0" class="graph" transform="scale(1 1) rotate(0) translate(4 155)">
<title>%3</title>
<polygon fill="white" stroke="transparent" points="-4,4 -4,-155 341,-155 341,4 -4,4"/>
<!-- node_0 -->
<g id="node1" class="node">
<title>node_0</title>
<polygon fill="none" stroke="black" points="122,-151 0,-151 0,-115 122,-115 122,-151"/>
<text text-anchor="start" x="45.5" y="-136.4" font-family="Fira Mono Medium" font-weight="bold" font-size="12.00">side</text>
<text text-anchor="start" x="8" y="-124.4" font-family="Fira Mono Medium" font-style="italic" font-size="12.00">location:</text>
<text text-anchor="start" x="76" y="-124.4" font-family="Fira Mono Medium" font-size="12.00"> left</text>
</g>
<!-- node_1 -->
<g id="node2" class="node">
<title>node_1</title>
<polygon fill="none" stroke="black" points="337,-107 207,-107 207,-71 337,-71 337,-107"/>
<text text-anchor="start" x="256.5" y="-92.4" font-family="Fira Mono Medium" font-weight="bold" font-size="12.00">side</text>
<text text-anchor="start" x="215" y="-80.4" font-family="Fira Mono Medium" font-style="italic" font-size="12.00">location:</text>
<text text-anchor="start" x="283" y="-80.4" font-family="Fira Mono Medium" font-size="12.00"> right</text>
</g>
<!-- node_0&#45;&gt;node_1 -->
<g id="edge1" class="edge">
<title>node_0&#45;&gt;node_1</title>
<path fill="none" stroke="black" d="M122.24,-128.65C143.51,-126.39 167.48,-123.01 189,-118 197.86,-115.94 207.08,-113.24 216.02,-110.32"/>
<polygon fill="black" stroke="black" points="217.22,-113.61 225.56,-107.09 214.97,-106.98 217.22,-113.61"/>
<text text-anchor="middle" x="164.5" y="-129" font-family="Fira Mono Medium" font-size="10.00">opposite</text>
</g>
<!-- node_1&#45;&gt;node_0 -->
<g id="edge2" class="edge">
<title>node_1&#45;&gt;node_0</title>
<path fill="none" stroke="black" d="M206.86,-93.95C185.42,-96.36 161.51,-99.89 140,-105 132.32,-106.82 124.35,-109.15 116.57,-111.68"/>
<polygon fill="black" stroke="black" points="115.2,-108.45 106.85,-114.97 117.45,-115.08 115.2,-108.45"/>
<text text-anchor="middle" x="164.5" y="-108" font-family="Fira Mono Medium" font-size="10.00">opposite</text>
</g>
<!-- node_2 -->
<g id="node3" class="node">
<title>node_2</title>
<polygon fill="none" stroke="black" points="88,-90 34,-90 34,-54 88,-54 88,-90"/>
<text text-anchor="start" x="45.5" y="-69.9" font-family="Fira Mono Medium" font-weight="bold" font-size="12.00">boat</text>
</g>
<!-- node_2&#45;&gt;node_1 -->
<g id="edge3" class="edge">
<title>node_2&#45;&gt;node_1</title>
<path fill="none" stroke="black" d="M88.35,-70.79C114.08,-69.95 154.34,-69.51 189,-73 191.53,-73.25 194.09,-73.55 196.67,-73.88"/>
<polygon fill="black" stroke="black" points="196.32,-77.36 206.71,-75.29 197.3,-70.43 196.32,-77.36"/>
<text text-anchor="middle" x="164.5" y="-76" font-family="Fira Mono Medium" font-size="10.00">at</text>
</g>
<!-- node_3 -->
<g id="node4" class="node">
<title>node_3</title>
<polygon fill="none" stroke="black" points="107,-36 15,-36 15,0 107,0 107,-36"/>
<text text-anchor="start" x="42" y="-21.4" font-family="Fira Mono Medium" font-weight="bold" font-size="12.00">cargo</text>
<text text-anchor="start" x="23" y="-9.4" font-family="Fira Mono Medium" font-style="italic" font-size="12.00">kind:</text>
<text text-anchor="start" x="61" y="-9.4" font-family="Fira Mono Medium" font-size="12.00"> wolf</text>
</g>
<!-- node_3&#45;&gt;node_1 -->
<g id="edge4" class="edge">
<title>node_3&#45;&gt;node_1</title>
<path fill="none" stroke="black" d="M107.05,-29.83C131.5,-36.57 162.14,-45.55 189,-55 199.35,-58.64 210.29,-62.89 220.68,-67.12"/>
<polygon fill="black" stroke="black" points="219.47,-70.4 230.05,-70.99 222.14,-63.93 219.47,-70.4"/>
<text text-anchor="middle" x="164.5" y="-58" font-family="Fira Mono Medium" font-size="10.00">at</text>
</g>
</g>
</svg>
