<?xml version="1.0" encoding="UTF-8" standalone="no"?>
<!DOCTYPE svg PUBLIC "-//W3C//DTD SVG 1.1//EN"
 "http://www.w3.org/Graphics/SVG/1.1/DTD/svg11.dtd">
<!-- Generated by graphviz version 2.43.0 (0)
 -->
<!-- Title: %3 Pages: 1 -->
<svg width="815pt" height="183pt"
 viewBox="0.00 0.00 815.00 183.00" xmlns="http://www.w3.org/2000/svg" xmlns:xlink="http://www.w3.org/1999/xlink">
<g id="graph0" class="graph" transform="scale(1 1) rotate(0) translate(4 179)">
<title>%3</title>
<polygon fill="white" stroke="transparent" points="-4,4 -4,-179 811,-179 811,4 -4,4"/>
<!-- node_0 -->
<g id="node1" class="node">
<title>node_0</title>
<polygon fill="none" stroke="black" points="592,-79 470,-79 470,-43 592,-43 592,-79"/>
<text text-anchor="start" x="515.5" y="-64.4" font-family="Fira Mono Medium" font-weight="bold" font-size="12.00">side</text>
<text text-anchor="start" x="478" y="-52.4" font-family="Fira Mono Medium" font-style="italic" font-size="12.00">location:</text>
<text text-anchor="start" x="546" y="-52.4" font-family="Fira Mono Medium" font-size="12.00"> left</text>
</g>
<!-- node_1 -->
<g id="node2" class="node">
<title>node_1</title>
<polygon fill="none" stroke="black" points="807,-123 677,-123 677,-87 807,-87 807,-123"/>
<text text-anchor="start" x="726.5" y="-108.4" font-family="Fira Mono Medium" font-weight="bold" font-size="12.00">side</text>
<text text-anchor="start" x="685" y="-96.4" font-family="Fira Mono Medium" font-style="italic" font-size="12.00">location:</text>
<text text-anchor="start" x="753" y="-96.4" font-family="Fira Mono Medium" font-size="12.00"> right</text>
</g>
<!-- node_0&#45;&gt;node_1 -->
<g id="edge1" class="edge">
<title>node_0&#45;&gt;node_1</title>
<path fill="none" stroke="black" d="M592.17,-73.67C615.49,-78.58 642.42,-84.25 666.91,-89.4"/>
<polygon fill="black" stroke="black" points="666.37,-92.87 676.88,-91.5 667.82,-86.02 666.37,-92.87"/>
<text text-anchor="middle" x="634.5" y="-89" font-family="Fira Mono Medium" font-size="10.00">opposite</text>
</g>
<!-- node_1&#45;&gt;node_0 -->
<g id="edge2" class="edge">
<title>node_1&#45;&gt;node_0</title>
<path fill="none" stroke="black" d="M714.24,-86.8C698.82,-77.41 678.65,-66.92 659,-62 640.95,-57.48 621.01,-55.83 602.37,-55.65"/>
<polygon fill="black" stroke="black" points="602.16,-52.15 592.18,-55.69 602.19,-59.15 602.16,-52.15"/>
<text text-anchor="middle" x="634.5" y="-65" font-family="Fira Mono Medium" font-size="10.00">opposite</text>
</g>
<!-- node_2 -->
<g id="node3" class="node">
<title>node_2</title>
<polygon fill="none" stroke="black" points="390.5,-36 336.5,-36 336.5,0 390.5,0 390.5,-36"/>
<text text-anchor="start" x="348" y="-15.9" font-family="Fira Mono Medium" font-weight="bold" font-size="12.00">boat</text>
</g>
<!-- node_2&#45;&gt;node_0 -->
<g id="edge3" class="edge">
<title>node_2&#45;&gt;node_0</title>
<path fill="none" stroke="black" d="M390.72,-24.81C409.47,-29.68 435.64,-36.48 460.23,-42.87"/>
<polygon fill="black" stroke="black" points="459.36,-46.26 469.92,-45.39 461.12,-39.49 459.36,-46.26"/>
<text text-anchor="middle" x="445.5" y="-43" font-family="Fira Mono Medium" font-size="10.00">at</text>
</g>
<!-- node_3 -->
<g id="node4" class="node">
<title>node_3</title>
<polygon fill="none" stroke="black" points="421,-90 306,-90 306,-54 421,-54 421,-90"/>
<text text-anchor="start" x="344.5" y="-75.4" font-family="Fira Mono Medium" font-weight="bold" font-size="12.00">cargo</text>
<text text-anchor="start" x="314" y="-63.4" font-family="Fira Mono Medium" font-style="italic" font-size="12.00">kind:</text>
<text text-anchor="start" x="352" y="-63.4" font-family="Fira Mono Medium" font-size="12.00"> cabbage</text>
</g>
<!-- node_3&#45;&gt;node_0 -->
<g id="edge4" class="edge">
<title>node_3&#45;&gt;node_0</title>
<path fill="none" stroke="black" d="M421.46,-68.21C433.78,-67.4 446.95,-66.52 459.71,-65.67"/>
<polygon fill="black" stroke="black" points="460.09,-69.15 469.84,-65 459.63,-62.17 460.09,-69.15"/>
<text text-anchor="middle" x="445.5" y="-70" font-family="Fira Mono Medium" font-size="10.00">at</text>
</g>
<!-- node_4 -->
<g id="node5" class="node">
<title>node_4</title>
<polygon fill="none" stroke="black" points="245,-136 153,-136 153,-100 245,-100 245,-136"/>
<text text-anchor="start" x="180" y="-121.4" font-family="Fira Mono Medium" font-weight="bold" font-size="12.00">cargo</text>
<text text-anchor="start" x="161" y="-109.4" font-family="Fira Mono Medium" font-style="italic" font-size="12.00">kind:</text>
<text text-anchor="start" x="199" y="-109.4" font-family="Fira Mono Medium" font-size="12.00"> goat</text>
</g>
<!-- node_4&#45;&gt;node_1 -->
<g id="edge6" class="edge">
<title>node_4&#45;&gt;node_1</title>
<path fill="none" stroke="black" d="M245.19,-116.91C338.38,-114.67 552.64,-109.53 666.58,-106.79"/>
<polygon fill="black" stroke="black" points="666.71,-110.29 676.62,-106.55 666.54,-103.29 666.71,-110.29"/>
<text text-anchor="middle" x="445.5" y="-115" font-family="Fira Mono Medium" font-size="10.00">at</text>
</g>
<!-- node_4&#45;&gt;node_3 -->
<g id="edge5" class="edge">
<title>node_4&#45;&gt;node_3</title>
<path fill="none" stroke="black" d="M242.69,-99.93C249.42,-97.41 256.35,-95 263,-93 273.48,-89.84 284.73,-86.98 295.75,-84.45"/>
<polygon fill="black" stroke="black" points="296.77,-87.81 305.77,-82.24 295.25,-80.98 296.77,-87.81"/>
<text text-anchor="middle" x="275.5" y="-96" font-family="Fira Mono Medium" font-size="10.00">eats</text>
</g>
<!-- node_5 -->
<g id="node6" class="node">
<title>node_5</title>
<polygon fill="none" stroke="black" points="92,-159 0,-159 0,-123 92,-123 92,-159"/>
<text text-anchor="start" x="27" y="-144.4" font-family="Fira Mono Medium" font-weight="bold" font-size="12.00">cargo</text>
<text text-anchor="start" x="8" y="-132.4" font-family="Fira Mono Medium" font-style="italic" font-size="12.00">kind:</text>
<text text-anchor="start" x="46" y="-132.4" font-family="Fira Mono Medium" font-size="12.00"> wolf</text>
</g>
<!-- node_5&#45;&gt;node_1 -->
<g id="edge8" class="edge">
<title>node_5&#45;&gt;node_1</title>
<path fill="none" stroke="black" d="M92.32,-151.56C122.17,-157.6 162.2,-164 198,-164 198,-164 198,-164 532,-164 588.66,-164 650.83,-143.66 692.51,-126.87"/>
<polygon fill="black" stroke="black" points="693.95,-130.06 701.86,-123.02 691.28,-123.59 693.95,-130.06"/>
<text text-anchor="middle" x="363.5" y="-167" font-family="Fira Mono Medium" font-size="10.00">at</text>
</g>
<!-- node_5&#45;&gt;node_4 -->
<g id="edge7" class="edge">
<title>node_5&#45;&gt;node_4</title>
<path fill="none" stroke="black" d="M92.3,-134.1C108.2,-131.68 126.24,-128.93 142.86,-126.4"/>
<polygon fill="black" stroke="black" points="143.63,-129.82 152.99,-124.86 142.57,-122.9 143.63,-129.82"/>
<text text-anchor="middle" x="122.5" y="-133" font-family="Fira Mono Medium" font-size="10.00">eats</text>
</g>
</g>
</svg>
