<?xml version="1.0" encoding="UTF-8" standalone="no"?>
<!DOCTYPE svg PUBLIC "-//W3C//DTD SVG 1.1//EN"
 "http://www.w3.org/Graphics/SVG/1.1/DTD/svg11.dtd">
<!-- Generated by graphviz version 2.43.0 (0)
 -->
<!-- Title: %3 Pages: 1 -->
<svg width="486pt" height="159pt"
 viewBox="0.00 0.00 486.00 159.00" xmlns="http://www.w3.org/2000/svg" xmlns:xlink="http://www.w3.org/1999/xlink">
<g id="graph0" class="graph" transform="scale(1 1) rotate(0) translate(4 155)">
<title>%3</title>
<polygon fill="white" stroke="transparent" points="-4,4 -4,-155 482,-155 482,4 -4,4"/>
<!-- node_0 -->
<g id="node1" class="node">
<title>node_0</title>
<polygon fill="none" stroke="black" points="263,-36 141,-36 141,0 263,0 263,-36"/>
<text text-anchor="start" x="186.5" y="-21.4" font-family="Fira Mono Medium" font-weight="bold" font-size="12.00">side</text>
<text text-anchor="start" x="149" y="-9.4" font-family="Fira Mono Medium" font-style="italic" font-size="12.00">location:</text>
<text text-anchor="start" x="217" y="-9.4" font-family="Fira Mono Medium" font-size="12.00"> left</text>
</g>
<!-- node_1 -->
<g id="node2" class="node">
<title>node_1</title>
<polygon fill="none" stroke="black" points="478,-80 348,-80 348,-44 478,-44 478,-80"/>
<text text-anchor="start" x="397.5" y="-65.4" font-family="Fira Mono Medium" font-weight="bold" font-size="12.00">side</text>
<text text-anchor="start" x="356" y="-53.4" font-family="Fira Mono Medium" font-style="italic" font-size="12.00">location:</text>
<text text-anchor="start" x="424" y="-53.4" font-family="Fira Mono Medium" font-size="12.00"> right</text>
</g>
<!-- node_0&#45;&gt;node_1 -->
<g id="edge1" class="edge">
<title>node_0&#45;&gt;node_1</title>
<path fill="none" stroke="black" d="M263.17,-30.67C286.49,-35.58 313.42,-41.25 337.91,-46.4"/>
<polygon fill="black" stroke="black" points="337.37,-49.87 347.88,-48.5 338.82,-43.02 337.37,-49.87"/>
<text text-anchor="middle" x="305.5" y="-46" font-family="Fira Mono Medium" font-size="10.00">opposite</text>
</g>
<!-- node_1&#45;&gt;node_0 -->
<g id="edge2" class="edge">
<title>node_1&#45;&gt;node_0</title>
<path fill="none" stroke="black" d="M385.24,-43.8C369.82,-34.41 349.65,-23.92 330,-19 311.95,-14.48 292.01,-12.83 273.37,-12.65"/>
<polygon fill="black" stroke="black" points="273.16,-9.15 263.18,-12.69 273.19,-16.15 273.16,-9.15"/>
<text text-anchor="middle" x="305.5" y="-22" font-family="Fira Mono Medium" font-size="10.00">opposite</text>
</g>
<!-- node_2 -->
<g id="node3" class="node">
<title>node_2</title>
<polygon fill="none" stroke="black" points="229,-151 175,-151 175,-115 229,-115 229,-151"/>
<text text-anchor="start" x="186.5" y="-130.9" font-family="Fira Mono Medium" font-weight="bold" font-size="12.00">boat</text>
</g>
<!-- node_2&#45;&gt;node_1 -->
<g id="edge3" class="edge">
<title>node_2&#45;&gt;node_1</title>
<path fill="none" stroke="black" d="M229.05,-124.15C258.87,-114.02 308.78,-97.07 348.94,-83.42"/>
<polygon fill="black" stroke="black" points="350.32,-86.65 358.66,-80.12 348.07,-80.02 350.32,-86.65"/>
<text text-anchor="middle" x="305.5" y="-108" font-family="Fira Mono Medium" font-size="10.00">at</text>
</g>
<!-- node_3 -->
<g id="node4" class="node">
<title>node_3</title>
<polygon fill="none" stroke="black" points="259.5,-97 144.5,-97 144.5,-61 259.5,-61 259.5,-97"/>
<text text-anchor="start" x="183" y="-82.4" font-family="Fira Mono Medium" font-weight="bold" font-size="12.00">cargo</text>
<text text-anchor="start" x="152.5" y="-70.4" font-family="Fira Mono Medium" font-style="italic" font-size="12.00">kind:</text>
<text text-anchor="start" x="190.5" y="-70.4" font-family="Fira Mono Medium" font-size="12.00"> cabbage</text>
</g>
<!-- node_3&#45;&gt;node_1 -->
<g id="edge4" class="edge">
<title>node_3&#45;&gt;node_1</title>
<path fill="none" stroke="black" d="M259.56,-74.4C283.57,-72.45 311.9,-70.14 337.57,-68.05"/>
<polygon fill="black" stroke="black" points="337.96,-71.53 347.64,-67.23 337.39,-64.56 337.96,-71.53"/>
<text text-anchor="middle" x="305.5" y="-75" font-family="Fira Mono Medium" font-size="10.00">at</text>
</g>
<!-- node_4 -->
<g id="node5" class="node">
<title>node_4</title>
<polygon fill="none" stroke="black" points="92,-36 0,-36 0,0 92,0 92,-36"/>
<text text-anchor="start" x="27" y="-21.4" font-family="Fira Mono Medium" font-weight="bold" font-size="12.00">cargo</text>
<text text-anchor="start" x="8" y="-9.4" font-family="Fira Mono Medium" font-style="italic" font-size="12.00">kind:</text>
<text text-anchor="start" x="46" y="-9.4" font-family="Fira Mono Medium" font-size="12.00"> wolf</text>
</g>
<!-- node_4&#45;&gt;node_0 -->
<g id="edge5" class="edge">
<title>node_4&#45;&gt;node_0</title>
<path fill="none" stroke="black" d="M92.37,-18C104.34,-18 117.55,-18 130.51,-18"/>
<polygon fill="black" stroke="black" points="130.82,-21.5 140.82,-18 130.82,-14.5 130.82,-21.5"/>
<text text-anchor="middle" x="116.5" y="-21" font-family="Fira Mono Medium" font-size="10.00">at</text>
</g>
</g>
</svg>
