<?xml version="1.0" encoding="UTF-8" standalone="no"?>
<!DOCTYPE svg PUBLIC "-//W3C//DTD SVG 1.1//EN"
 "http://www.w3.org/Graphics/SVG/1.1/DTD/svg11.dtd">
<!-- Generated by graphviz version 2.43.0 (0)
 -->
<!-- Title: %3 Pages: 1 -->
<svg width="638pt" height="239pt"
 viewBox="0.00 0.00 638.00 239.00" xmlns="http://www.w3.org/2000/svg" xmlns:xlink="http://www.w3.org/1999/xlink">
<g id="graph0" class="graph" transform="scale(1 1) rotate(0) translate(4 235)">
<title>%3</title>
<polygon fill="white" stroke="transparent" points="-4,4 -4,-235 634,-235 634,4 -4,4"/>
<!-- node_0 -->
<g id="node1" class="node">
<title>node_0</title>
<polygon fill="none" stroke="black" points="275,-140 153,-140 153,-104 275,-104 275,-140"/>
<text text-anchor="start" x="198.5" y="-125.4" font-family="Fira Mono Medium" font-weight="bold" font-size="12.00">side</text>
<text text-anchor="start" x="161" y="-113.4" font-family="Fira Mono Medium" font-style="italic" font-size="12.00">location:</text>
<text text-anchor="start" x="229" y="-113.4" font-family="Fira Mono Medium" font-size="12.00"> left</text>
</g>
<!-- node_1 -->
<g id="node2" class="node">
<title>node_1</title>
<polygon fill="none" stroke="black" points="630,-137 500,-137 500,-101 630,-101 630,-137"/>
<text text-anchor="start" x="549.5" y="-122.4" font-family="Fira Mono Medium" font-weight="bold" font-size="12.00">side</text>
<text text-anchor="start" x="508" y="-110.4" font-family="Fira Mono Medium" font-style="italic" font-size="12.00">location:</text>
<text text-anchor="start" x="576" y="-110.4" font-family="Fira Mono Medium" font-size="12.00"> right</text>
</g>
<!-- node_0&#45;&gt;node_1 -->
<g id="edge1" class="edge">
<title>node_0&#45;&gt;node_1</title>
<path fill="none" stroke="black" d="M275.39,-131.23C281.33,-131.92 287.28,-132.53 293,-133 376.72,-139.85 398.43,-141.44 482,-133 484.51,-132.75 487.07,-132.46 489.64,-132.15"/>
<polygon fill="black" stroke="black" points="490.19,-135.61 499.66,-130.84 489.29,-128.67 490.19,-135.61"/>
<text text-anchor="middle" x="393.5" y="-141" font-family="Fira Mono Medium" font-size="10.00">opposite</text>
</g>
<!-- node_1&#45;&gt;node_0 -->
<g id="edge2" class="edge">
<title>node_1&#45;&gt;node_0</title>
<path fill="none" stroke="black" d="M499.92,-119.55C439.24,-120.07 348.33,-120.85 285.6,-121.39"/>
<polygon fill="black" stroke="black" points="285.36,-117.89 275.39,-121.48 285.42,-124.89 285.36,-117.89"/>
<text text-anchor="middle" x="393.5" y="-123" font-family="Fira Mono Medium" font-size="10.00">opposite</text>
</g>
<!-- node_2 -->
<g id="node3" class="node">
<title>node_2</title>
<polygon fill="none" stroke="black" points="420.5,-231 366.5,-231 366.5,-195 420.5,-195 420.5,-231"/>
<text text-anchor="start" x="378" y="-210.9" font-family="Fira Mono Medium" font-weight="bold" font-size="12.00">boat</text>
</g>
<!-- node_2&#45;&gt;node_1 -->
<g id="edge3" class="edge">
<title>node_2&#45;&gt;node_1</title>
<path fill="none" stroke="black" d="M420.6,-205.28C438.45,-199.49 462.34,-190.74 482,-180 500.79,-169.73 520.08,-155.59 535.23,-143.51"/>
<polygon fill="black" stroke="black" points="537.63,-146.07 543.19,-137.05 533.22,-140.64 537.63,-146.07"/>
<text text-anchor="middle" x="475.5" y="-188" font-family="Fira Mono Medium" font-size="10.00">at</text>
</g>
<!-- node_3 -->
<g id="node4" class="node">
<title>node_3</title>
<polygon fill="none" stroke="black" points="451,-36 336,-36 336,0 451,0 451,-36"/>
<text text-anchor="start" x="374.5" y="-21.4" font-family="Fira Mono Medium" font-weight="bold" font-size="12.00">cargo</text>
<text text-anchor="start" x="344" y="-9.4" font-family="Fira Mono Medium" font-style="italic" font-size="12.00">kind:</text>
<text text-anchor="start" x="382" y="-9.4" font-family="Fira Mono Medium" font-size="12.00"> cabbage</text>
</g>
<!-- node_3&#45;&gt;node_1 -->
<g id="edge4" class="edge">
<title>node_3&#45;&gt;node_1</title>
<path fill="none" stroke="black" d="M451.02,-33.03C461.65,-36.87 472.42,-41.51 482,-47 503.75,-59.46 524.93,-78.28 540.31,-93.56"/>
<polygon fill="black" stroke="black" points="537.87,-96.06 547.38,-100.73 542.85,-91.15 537.87,-96.06"/>
<text text-anchor="middle" x="475.5" y="-50" font-family="Fira Mono Medium" font-size="10.00">at</text>
</g>
<!-- node_4 -->
<g id="node5" class="node">
<title>node_4</title>
<polygon fill="none" stroke="black" points="260,-86 168,-86 168,-50 260,-50 260,-86"/>
<text text-anchor="start" x="195" y="-71.4" font-family="Fira Mono Medium" font-weight="bold" font-size="12.00">cargo</text>
<text text-anchor="start" x="176" y="-59.4" font-family="Fira Mono Medium" font-style="italic" font-size="12.00">kind:</text>
<text text-anchor="start" x="214" y="-59.4" font-family="Fira Mono Medium" font-size="12.00"> goat</text>
</g>
<!-- node_4&#45;&gt;node_1 -->
<g id="edge6" class="edge">
<title>node_4&#45;&gt;node_1</title>
<path fill="none" stroke="black" d="M260.27,-74.62C318.45,-83.12 420.25,-97.99 489.83,-108.16"/>
<polygon fill="black" stroke="black" points="489.45,-111.64 499.85,-109.63 490.46,-104.72 489.45,-111.64"/>
<text text-anchor="middle" x="393.5" y="-104" font-family="Fira Mono Medium" font-size="10.00">at</text>
</g>
<!-- node_4&#45;&gt;node_3 -->
<g id="edge5" class="edge">
<title>node_4&#45;&gt;node_3</title>
<path fill="none" stroke="black" d="M260.25,-55.25C280.2,-49.63 304.05,-42.92 325.97,-36.74"/>
<polygon fill="black" stroke="black" points="327.2,-40.03 335.88,-33.95 325.31,-33.29 327.2,-40.03"/>
<text text-anchor="middle" x="305.5" y="-49" font-family="Fira Mono Medium" font-size="10.00">eats</text>
</g>
<!-- node_5 -->
<g id="node6" class="node">
<title>node_5</title>
<polygon fill="none" stroke="black" points="92,-113 0,-113 0,-77 92,-77 92,-113"/>
<text text-anchor="start" x="27" y="-98.4" font-family="Fira Mono Medium" font-weight="bold" font-size="12.00">cargo</text>
<text text-anchor="start" x="8" y="-86.4" font-family="Fira Mono Medium" font-style="italic" font-size="12.00">kind:</text>
<text text-anchor="start" x="46" y="-86.4" font-family="Fira Mono Medium" font-size="12.00"> wolf</text>
</g>
<!-- node_5&#45;&gt;node_0 -->
<g id="edge8" class="edge">
<title>node_5&#45;&gt;node_0</title>
<path fill="none" stroke="black" d="M92.36,-102.38C107.93,-104.91 125.74,-107.81 142.81,-110.58"/>
<polygon fill="black" stroke="black" points="142.32,-114.05 152.75,-112.2 143.44,-107.14 142.32,-114.05"/>
<text text-anchor="middle" x="122.5" y="-112" font-family="Fira Mono Medium" font-size="10.00">at</text>
</g>
<!-- node_5&#45;&gt;node_4 -->
<g id="edge7" class="edge">
<title>node_5&#45;&gt;node_4</title>
<path fill="none" stroke="black" d="M92.06,-87.03C98.09,-85.99 104.19,-84.96 110,-84 125.53,-81.44 142.39,-78.77 157.89,-76.37"/>
<polygon fill="black" stroke="black" points="158.5,-79.81 167.85,-74.83 157.43,-72.9 158.5,-79.81"/>
<text text-anchor="middle" x="122.5" y="-87" font-family="Fira Mono Medium" font-size="10.00">eats</text>
</g>
</g>
</svg>
