<?xml version="1.0" encoding="UTF-8" standalone="no"?>
<!DOCTYPE svg PUBLIC "-//W3C//DTD SVG 1.1//EN"
 "http://www.w3.org/Graphics/SVG/1.1/DTD/svg11.dtd">
<!-- Generated by graphviz version 2.43.0 (0)
 -->
<!-- Title: %3 Pages: 1 -->
<svg width="509pt" height="152pt"
 viewBox="0.00 0.00 509.00 152.00" xmlns="http://www.w3.org/2000/svg" xmlns:xlink="http://www.w3.org/1999/xlink">
<g id="graph0" class="graph" transform="scale(1 1) rotate(0) translate(4 148)">
<title>%3</title>
<polygon fill="white" stroke="transparent" points="-4,4 -4,-148 505,-148 505,4 -4,4"/>
<!-- node_0 -->
<g id="node1" class="node">
<title>node_0</title>
<polygon fill="none" stroke="black" points="286,-90 164,-90 164,-54 286,-54 286,-90"/>
<text text-anchor="start" x="209.5" y="-75.4" font-family="Fira Mono Medium" font-weight="bold" font-size="12.00">side</text>
<text text-anchor="start" x="172" y="-63.4" font-family="Fira Mono Medium" font-style="italic" font-size="12.00">location:</text>
<text text-anchor="start" x="240" y="-63.4" font-family="Fira Mono Medium" font-size="12.00"> left</text>
</g>
<!-- node_1 -->
<g id="node2" class="node">
<title>node_1</title>
<polygon fill="none" stroke="black" points="501,-90 371,-90 371,-54 501,-54 501,-90"/>
<text text-anchor="start" x="420.5" y="-75.4" font-family="Fira Mono Medium" font-weight="bold" font-size="12.00">side</text>
<text text-anchor="start" x="379" y="-63.4" font-family="Fira Mono Medium" font-style="italic" font-size="12.00">location:</text>
<text text-anchor="start" x="447" y="-63.4" font-family="Fira Mono Medium" font-size="12.00"> right</text>
</g>
<!-- node_0&#45;&gt;node_1 -->
<g id="edge1" class="edge">
<title>node_0&#45;&gt;node_1</title>
<path fill="none" stroke="black" d="M286.17,-72C309.38,-72 336.18,-72 360.58,-72"/>
<polygon fill="black" stroke="black" points="360.88,-75.5 370.88,-72 360.88,-68.5 360.88,-75.5"/>
<text text-anchor="middle" x="328.5" y="-75" font-family="Fira Mono Medium" font-size="10.00">opposite</text>
</g>
<!-- node_1&#45;&gt;node_0 -->
<g id="edge2" class="edge">
<title>node_1&#45;&gt;node_0</title>
<path fill="none" stroke="black" d="M370.69,-59.1C364.73,-58.25 358.77,-57.52 353,-57 331.31,-55.03 325.68,-54.93 304,-57 301.48,-57.24 298.92,-57.52 296.33,-57.84"/>
<polygon fill="black" stroke="black" points="295.73,-54.39 286.3,-59.23 296.69,-61.33 295.73,-54.39"/>
<text text-anchor="middle" x="328.5" y="-60" font-family="Fira Mono Medium" font-size="10.00">opposite</text>
</g>
<!-- node_2 -->
<g id="node3" class="node">
<title>node_2</title>
<polygon fill="none" stroke="black" points="84.5,-144 30.5,-144 30.5,-108 84.5,-108 84.5,-144"/>
<text text-anchor="start" x="42" y="-123.9" font-family="Fira Mono Medium" font-weight="bold" font-size="12.00">boat</text>
</g>
<!-- node_2&#45;&gt;node_0 -->
<g id="edge3" class="edge">
<title>node_2&#45;&gt;node_0</title>
<path fill="none" stroke="black" d="M84.72,-117.44C104.69,-110.93 133.06,-101.67 158.99,-93.21"/>
<polygon fill="black" stroke="black" points="160.36,-96.45 168.78,-90.02 158.19,-89.79 160.36,-96.45"/>
<text text-anchor="middle" x="139.5" y="-103" font-family="Fira Mono Medium" font-size="10.00">at</text>
</g>
<!-- node_3 -->
<g id="node4" class="node">
<title>node_3</title>
<polygon fill="none" stroke="black" points="115,-90 0,-90 0,-54 115,-54 115,-90"/>
<text text-anchor="start" x="38.5" y="-75.4" font-family="Fira Mono Medium" font-weight="bold" font-size="12.00">cargo</text>
<text text-anchor="start" x="8" y="-63.4" font-family="Fira Mono Medium" font-style="italic" font-size="12.00">kind:</text>
<text text-anchor="start" x="46" y="-63.4" font-family="Fira Mono Medium" font-size="12.00"> cabbage</text>
</g>
<!-- node_3&#45;&gt;node_0 -->
<g id="edge4" class="edge">
<title>node_3&#45;&gt;node_0</title>
<path fill="none" stroke="black" d="M115.46,-72C127.78,-72 140.95,-72 153.71,-72"/>
<polygon fill="black" stroke="black" points="153.84,-75.5 163.84,-72 153.84,-68.5 153.84,-75.5"/>
<text text-anchor="middle" x="139.5" y="-75" font-family="Fira Mono Medium" font-size="10.00">at</text>
</g>
<!-- node_4 -->
<g id="node5" class="node">
<title>node_4</title>
<polygon fill="none" stroke="black" points="103.5,-36 11.5,-36 11.5,0 103.5,0 103.5,-36"/>
<text text-anchor="start" x="38.5" y="-21.4" font-family="Fira Mono Medium" font-weight="bold" font-size="12.00">cargo</text>
<text text-anchor="start" x="19.5" y="-9.4" font-family="Fira Mono Medium" font-style="italic" font-size="12.00">kind:</text>
<text text-anchor="start" x="57.5" y="-9.4" font-family="Fira Mono Medium" font-size="12.00"> wolf</text>
</g>
<!-- node_4&#45;&gt;node_0 -->
<g id="edge5" class="edge">
<title>node_4&#45;&gt;node_0</title>
<path fill="none" stroke="black" d="M103.72,-32.76C120.84,-38.34 140.67,-44.81 159.23,-50.87"/>
<polygon fill="black" stroke="black" points="158.21,-54.22 168.8,-53.99 160.38,-47.56 158.21,-54.22"/>
<text text-anchor="middle" x="139.5" y="-48" font-family="Fira Mono Medium" font-size="10.00">at</text>
</g>
</g>
</svg>
