<?xml version="1.0" encoding="UTF-8" standalone="no"?>
<!DOCTYPE svg PUBLIC "-//W3C//DTD SVG 1.1//EN"
 "http://www.w3.org/Graphics/SVG/1.1/DTD/svg11.dtd">
<!-- Generated by graphviz version 2.43.0 (0)
 -->
<!-- Title: %3 Pages: 1 -->
<svg width="486pt" height="132pt"
 viewBox="0.00 0.00 486.00 132.00" xmlns="http://www.w3.org/2000/svg" xmlns:xlink="http://www.w3.org/1999/xlink">
<g id="graph0" class="graph" transform="scale(1 1) rotate(0) translate(4 128)">
<title>%3</title>
<polygon fill="white" stroke="transparent" points="-4,4 -4,-128 482,-128 482,4 -4,4"/>
<!-- node_0 -->
<g id="node1" class="node">
<title>node_0</title>
<polygon fill="none" stroke="black" points="263,-63 141,-63 141,-27 263,-27 263,-63"/>
<text text-anchor="start" x="186.5" y="-48.4" font-family="Fira Mono Medium" font-weight="bold" font-size="12.00">side</text>
<text text-anchor="start" x="149" y="-36.4" font-family="Fira Mono Medium" font-style="italic" font-size="12.00">location:</text>
<text text-anchor="start" x="217" y="-36.4" font-family="Fira Mono Medium" font-size="12.00"> left</text>
</g>
<!-- node_1 -->
<g id="node2" class="node">
<title>node_1</title>
<polygon fill="none" stroke="black" points="478,-90 348,-90 348,-54 478,-54 478,-90"/>
<text text-anchor="start" x="397.5" y="-75.4" font-family="Fira Mono Medium" font-weight="bold" font-size="12.00">side</text>
<text text-anchor="start" x="356" y="-63.4" font-family="Fira Mono Medium" font-style="italic" font-size="12.00">location:</text>
<text text-anchor="start" x="424" y="-63.4" font-family="Fira Mono Medium" font-size="12.00"> right</text>
</g>
<!-- node_0&#45;&gt;node_1 -->
<g id="edge1" class="edge">
<title>node_0&#45;&gt;node_1</title>
<path fill="none" stroke="black" d="M263.17,-52.77C286.49,-55.79 313.42,-59.26 337.91,-62.43"/>
<polygon fill="black" stroke="black" points="337.51,-65.91 347.88,-63.72 338.41,-58.96 337.51,-65.91"/>
<text text-anchor="middle" x="305.5" y="-63" font-family="Fira Mono Medium" font-size="10.00">opposite</text>
</g>
<!-- node_1&#45;&gt;node_0 -->
<g id="edge2" class="edge">
<title>node_1&#45;&gt;node_0</title>
<path fill="none" stroke="black" d="M374.49,-53.98C360.82,-48.33 345.02,-42.83 330,-40 311.79,-36.57 291.87,-35.93 273.32,-36.62"/>
<polygon fill="black" stroke="black" points="272.98,-33.13 263.17,-37.13 273.33,-40.12 272.98,-33.13"/>
<text text-anchor="middle" x="305.5" y="-43" font-family="Fira Mono Medium" font-size="10.00">opposite</text>
</g>
<!-- node_2 -->
<g id="node3" class="node">
<title>node_2</title>
<polygon fill="none" stroke="black" points="73,-90 19,-90 19,-54 73,-54 73,-90"/>
<text text-anchor="start" x="30.5" y="-69.9" font-family="Fira Mono Medium" font-weight="bold" font-size="12.00">boat</text>
</g>
<!-- node_2&#45;&gt;node_0 -->
<g id="edge3" class="edge">
<title>node_2&#45;&gt;node_0</title>
<path fill="none" stroke="black" d="M73.12,-67.42C89.05,-64.63 110.24,-60.91 130.78,-57.31"/>
<polygon fill="black" stroke="black" points="131.54,-60.73 140.78,-55.56 130.33,-53.84 131.54,-60.73"/>
<text text-anchor="middle" x="116.5" y="-63" font-family="Fira Mono Medium" font-size="10.00">at</text>
</g>
<!-- node_3 -->
<g id="node4" class="node">
<title>node_3</title>
<polygon fill="none" stroke="black" points="259.5,-124 144.5,-124 144.5,-88 259.5,-88 259.5,-124"/>
<text text-anchor="start" x="183" y="-109.4" font-family="Fira Mono Medium" font-weight="bold" font-size="12.00">cargo</text>
<text text-anchor="start" x="152.5" y="-97.4" font-family="Fira Mono Medium" font-style="italic" font-size="12.00">kind:</text>
<text text-anchor="start" x="190.5" y="-97.4" font-family="Fira Mono Medium" font-size="12.00"> cabbage</text>
</g>
<!-- node_3&#45;&gt;node_1 -->
<g id="edge4" class="edge">
<title>node_3&#45;&gt;node_1</title>
<path fill="none" stroke="black" d="M259.56,-96.8C283.57,-92.89 311.9,-88.28 337.57,-84.11"/>
<polygon fill="black" stroke="black" points="338.33,-87.53 347.64,-82.47 337.21,-80.62 338.33,-87.53"/>
<text text-anchor="middle" x="305.5" y="-96" font-family="Fira Mono Medium" font-size="10.00">at</text>
</g>
<!-- node_4 -->
<g id="node5" class="node">
<title>node_4</title>
<polygon fill="none" stroke="black" points="92,-36 0,-36 0,0 92,0 92,-36"/>
<text text-anchor="start" x="27" y="-21.4" font-family="Fira Mono Medium" font-weight="bold" font-size="12.00">cargo</text>
<text text-anchor="start" x="8" y="-9.4" font-family="Fira Mono Medium" font-style="italic" font-size="12.00">kind:</text>
<text text-anchor="start" x="46" y="-9.4" font-family="Fira Mono Medium" font-size="12.00"> wolf</text>
</g>
<!-- node_4&#45;&gt;node_0 -->
<g id="edge5" class="edge">
<title>node_4&#45;&gt;node_0</title>
<path fill="none" stroke="black" d="M92.37,-25.95C104.46,-28.07 117.81,-30.41 130.89,-32.71"/>
<polygon fill="black" stroke="black" points="130.36,-36.17 140.82,-34.45 131.57,-29.27 130.36,-36.17"/>
<text text-anchor="middle" x="116.5" y="-33" font-family="Fira Mono Medium" font-size="10.00">at</text>
</g>
</g>
</svg>
