<?xml version="1.0" encoding="UTF-8" standalone="no"?>
<!DOCTYPE svg PUBLIC "-//W3C//DTD SVG 1.1//EN"
 "http://www.w3.org/Graphics/SVG/1.1/DTD/svg11.dtd">
<!-- Generated by graphviz version 2.43.0 (0)
 -->
<!-- Title: %3 Pages: 1 -->
<svg width="639pt" height="121pt"
 viewBox="0.00 0.00 639.00 121.00" xmlns="http://www.w3.org/2000/svg" xmlns:xlink="http://www.w3.org/1999/xlink">
<g id="graph0" class="graph" transform="scale(1 1) rotate(0) translate(4 117)">
<title>%3</title>
<polygon fill="white" stroke="transparent" points="-4,4 -4,-117 635,-117 635,4 -4,4"/>
<!-- node_0 -->
<g id="node1" class="node">
<title>node_0</title>
<polygon fill="none" stroke="black" points="416,-83 294,-83 294,-47 416,-47 416,-83"/>
<text text-anchor="start" x="339.5" y="-68.4" font-family="Fira Mono Medium" font-weight="bold" font-size="12.00">side</text>
<text text-anchor="start" x="302" y="-56.4" font-family="Fira Mono Medium" font-style="italic" font-size="12.00">location:</text>
<text text-anchor="start" x="370" y="-56.4" font-family="Fira Mono Medium" font-size="12.00"> left</text>
</g>
<!-- node_1 -->
<g id="node2" class="node">
<title>node_1</title>
<polygon fill="none" stroke="black" points="631,-110 501,-110 501,-74 631,-74 631,-110"/>
<text text-anchor="start" x="550.5" y="-95.4" font-family="Fira Mono Medium" font-weight="bold" font-size="12.00">side</text>
<text text-anchor="start" x="509" y="-83.4" font-family="Fira Mono Medium" font-style="italic" font-size="12.00">location:</text>
<text text-anchor="start" x="577" y="-83.4" font-family="Fira Mono Medium" font-size="12.00"> right</text>
</g>
<!-- node_0&#45;&gt;node_1 -->
<g id="edge1" class="edge">
<title>node_0&#45;&gt;node_1</title>
<path fill="none" stroke="black" d="M416.17,-72.77C439.49,-75.79 466.42,-79.26 490.91,-82.43"/>
<polygon fill="black" stroke="black" points="490.51,-85.91 500.88,-83.72 491.41,-78.96 490.51,-85.91"/>
<text text-anchor="middle" x="458.5" y="-83" font-family="Fira Mono Medium" font-size="10.00">opposite</text>
</g>
<!-- node_1&#45;&gt;node_0 -->
<g id="edge2" class="edge">
<title>node_1&#45;&gt;node_0</title>
<path fill="none" stroke="black" d="M527.49,-73.98C513.82,-68.33 498.02,-62.83 483,-60 464.79,-56.57 444.87,-55.93 426.32,-56.62"/>
<polygon fill="black" stroke="black" points="425.98,-53.13 416.17,-57.13 426.33,-60.12 425.98,-53.13"/>
<text text-anchor="middle" x="458.5" y="-63" font-family="Fira Mono Medium" font-size="10.00">opposite</text>
</g>
<!-- node_2 -->
<g id="node3" class="node">
<title>node_2</title>
<polygon fill="none" stroke="black" points="226,-36 172,-36 172,0 226,0 226,-36"/>
<text text-anchor="start" x="183.5" y="-15.9" font-family="Fira Mono Medium" font-weight="bold" font-size="12.00">boat</text>
</g>
<!-- node_2&#45;&gt;node_0 -->
<g id="edge3" class="edge">
<title>node_2&#45;&gt;node_0</title>
<path fill="none" stroke="black" d="M226.12,-25.97C242.35,-30.92 264.03,-37.54 284.92,-43.92"/>
<polygon fill="black" stroke="black" points="284.17,-47.35 294.76,-46.92 286.22,-40.65 284.17,-47.35"/>
<text text-anchor="middle" x="269.5" y="-44" font-family="Fira Mono Medium" font-size="10.00">at</text>
</g>
<!-- node_3 -->
<g id="node4" class="node">
<title>node_3</title>
<polygon fill="none" stroke="black" points="245,-90 153,-90 153,-54 245,-54 245,-90"/>
<text text-anchor="start" x="180" y="-75.4" font-family="Fira Mono Medium" font-weight="bold" font-size="12.00">cargo</text>
<text text-anchor="start" x="161" y="-63.4" font-family="Fira Mono Medium" font-style="italic" font-size="12.00">kind:</text>
<text text-anchor="start" x="199" y="-63.4" font-family="Fira Mono Medium" font-size="12.00"> goat</text>
</g>
<!-- node_3&#45;&gt;node_0 -->
<g id="edge4" class="edge">
<title>node_3&#45;&gt;node_0</title>
<path fill="none" stroke="black" d="M245.37,-69.94C257.34,-69.39 270.55,-68.79 283.51,-68.2"/>
<polygon fill="black" stroke="black" points="283.99,-71.69 293.82,-67.74 283.67,-64.69 283.99,-71.69"/>
<text text-anchor="middle" x="269.5" y="-73" font-family="Fira Mono Medium" font-size="10.00">at</text>
</g>
<!-- node_4 -->
<g id="node5" class="node">
<title>node_4</title>
<polygon fill="none" stroke="black" points="92,-113 0,-113 0,-77 92,-77 92,-113"/>
<text text-anchor="start" x="27" y="-98.4" font-family="Fira Mono Medium" font-weight="bold" font-size="12.00">cargo</text>
<text text-anchor="start" x="8" y="-86.4" font-family="Fira Mono Medium" font-style="italic" font-size="12.00">kind:</text>
<text text-anchor="start" x="46" y="-86.4" font-family="Fira Mono Medium" font-size="12.00"> wolf</text>
</g>
<!-- node_4&#45;&gt;node_1 -->
<g id="edge6" class="edge">
<title>node_4&#45;&gt;node_1</title>
<path fill="none" stroke="black" d="M92.07,-98.21C98.09,-98.54 104.19,-98.82 110,-99 275.7,-104.26 317.27,-99.42 483,-95 485.55,-94.93 488.15,-94.86 490.78,-94.78"/>
<polygon fill="black" stroke="black" points="491.1,-98.27 500.99,-94.46 490.89,-91.28 491.1,-98.27"/>
<text text-anchor="middle" x="269.5" y="-104" font-family="Fira Mono Medium" font-size="10.00">at</text>
</g>
<!-- node_4&#45;&gt;node_3 -->
<g id="edge5" class="edge">
<title>node_4&#45;&gt;node_3</title>
<path fill="none" stroke="black" d="M92.3,-88.1C108.2,-85.68 126.24,-82.93 142.86,-80.4"/>
<polygon fill="black" stroke="black" points="143.63,-83.82 152.99,-78.86 142.57,-76.9 143.63,-83.82"/>
<text text-anchor="middle" x="122.5" y="-87" font-family="Fira Mono Medium" font-size="10.00">eats</text>
</g>
</g>
</svg>
