<?xml version="1.0" encoding="UTF-8" standalone="no"?>
<!DOCTYPE svg PUBLIC "-//W3C//DTD SVG 1.1//EN"
 "http://www.w3.org/Graphics/SVG/1.1/DTD/svg11.dtd">
<!-- Generated by graphviz version 2.43.0 (0)
 -->
<!-- Title: %3 Pages: 1 -->
<svg width="509pt" height="159pt"
 viewBox="0.00 0.00 509.00 159.00" xmlns="http://www.w3.org/2000/svg" xmlns:xlink="http://www.w3.org/1999/xlink">
<g id="graph0" class="graph" transform="scale(1 1) rotate(0) translate(4 155)">
<title>%3</title>
<polygon fill="white" stroke="transparent" points="-4,4 -4,-155 505,-155 505,4 -4,4"/>
<!-- node_0 -->
<g id="node1" class="node">
<title>node_0</title>
<polygon fill="none" stroke="black" points="286,-36 164,-36 164,0 286,0 286,-36"/>
<text text-anchor="start" x="209.5" y="-21.4" font-family="Fira Mono Medium" font-weight="bold" font-size="12.00">side</text>
<text text-anchor="start" x="172" y="-9.4" font-family="Fira Mono Medium" font-style="italic" font-size="12.00">location:</text>
<text text-anchor="start" x="240" y="-9.4" font-family="Fira Mono Medium" font-size="12.00"> left</text>
</g>
<!-- node_1 -->
<g id="node2" class="node">
<title>node_1</title>
<polygon fill="none" stroke="black" points="501,-80 371,-80 371,-44 501,-44 501,-80"/>
<text text-anchor="start" x="420.5" y="-65.4" font-family="Fira Mono Medium" font-weight="bold" font-size="12.00">side</text>
<text text-anchor="start" x="379" y="-53.4" font-family="Fira Mono Medium" font-style="italic" font-size="12.00">location:</text>
<text text-anchor="start" x="447" y="-53.4" font-family="Fira Mono Medium" font-size="12.00"> right</text>
</g>
<!-- node_0&#45;&gt;node_1 -->
<g id="edge1" class="edge">
<title>node_0&#45;&gt;node_1</title>
<path fill="none" stroke="black" d="M286.17,-30.67C309.49,-35.58 336.42,-41.25 360.91,-46.4"/>
<polygon fill="black" stroke="black" points="360.37,-49.87 370.88,-48.5 361.82,-43.02 360.37,-49.87"/>
<text text-anchor="middle" x="328.5" y="-46" font-family="Fira Mono Medium" font-size="10.00">opposite</text>
</g>
<!-- node_1&#45;&gt;node_0 -->
<g id="edge2" class="edge">
<title>node_1&#45;&gt;node_0</title>
<path fill="none" stroke="black" d="M408.24,-43.8C392.82,-34.41 372.65,-23.92 353,-19 334.95,-14.48 315.01,-12.83 296.37,-12.65"/>
<polygon fill="black" stroke="black" points="296.16,-9.15 286.18,-12.69 296.19,-16.15 296.16,-9.15"/>
<text text-anchor="middle" x="328.5" y="-22" font-family="Fira Mono Medium" font-size="10.00">opposite</text>
</g>
<!-- node_2 -->
<g id="node3" class="node">
<title>node_2</title>
<polygon fill="none" stroke="black" points="252,-151 198,-151 198,-115 252,-115 252,-151"/>
<text text-anchor="start" x="209.5" y="-130.9" font-family="Fira Mono Medium" font-weight="bold" font-size="12.00">boat</text>
</g>
<!-- node_2&#45;&gt;node_1 -->
<g id="edge3" class="edge">
<title>node_2&#45;&gt;node_1</title>
<path fill="none" stroke="black" d="M252.05,-124.15C281.87,-114.02 331.78,-97.07 371.94,-83.42"/>
<polygon fill="black" stroke="black" points="373.32,-86.65 381.66,-80.12 371.07,-80.02 373.32,-86.65"/>
<text text-anchor="middle" x="328.5" y="-108" font-family="Fira Mono Medium" font-size="10.00">at</text>
</g>
<!-- node_3 -->
<g id="node4" class="node">
<title>node_3</title>
<polygon fill="none" stroke="black" points="115,-36 0,-36 0,0 115,0 115,-36"/>
<text text-anchor="start" x="38.5" y="-21.4" font-family="Fira Mono Medium" font-weight="bold" font-size="12.00">cargo</text>
<text text-anchor="start" x="8" y="-9.4" font-family="Fira Mono Medium" font-style="italic" font-size="12.00">kind:</text>
<text text-anchor="start" x="46" y="-9.4" font-family="Fira Mono Medium" font-size="12.00"> cabbage</text>
</g>
<!-- node_3&#45;&gt;node_0 -->
<g id="edge4" class="edge">
<title>node_3&#45;&gt;node_0</title>
<path fill="none" stroke="black" d="M115.46,-18C127.78,-18 140.95,-18 153.71,-18"/>
<polygon fill="black" stroke="black" points="153.84,-21.5 163.84,-18 153.84,-14.5 153.84,-21.5"/>
<text text-anchor="middle" x="139.5" y="-21" font-family="Fira Mono Medium" font-size="10.00">at</text>
</g>
<!-- node_4 -->
<g id="node5" class="node">
<title>node_4</title>
<polygon fill="none" stroke="black" points="271,-97 179,-97 179,-61 271,-61 271,-97"/>
<text text-anchor="start" x="206" y="-82.4" font-family="Fira Mono Medium" font-weight="bold" font-size="12.00">cargo</text>
<text text-anchor="start" x="187" y="-70.4" font-family="Fira Mono Medium" font-style="italic" font-size="12.00">kind:</text>
<text text-anchor="start" x="225" y="-70.4" font-family="Fira Mono Medium" font-size="12.00"> wolf</text>
</g>
<!-- node_4&#45;&gt;node_1 -->
<g id="edge5" class="edge">
<title>node_4&#45;&gt;node_1</title>
<path fill="none" stroke="black" d="M271.09,-75.33C297.29,-73.2 330.95,-70.46 360.94,-68.02"/>
<polygon fill="black" stroke="black" points="361.27,-71.51 370.96,-67.21 360.71,-64.53 361.27,-71.51"/>
<text text-anchor="middle" x="328.5" y="-75" font-family="Fira Mono Medium" font-size="10.00">at</text>
</g>
</g>
</svg>
