<?xml version="1.0" encoding="UTF-8" standalone="no"?>
<!DOCTYPE svg PUBLIC "-//W3C//DTD SVG 1.1//EN"
 "http://www.w3.org/Graphics/SVG/1.1/DTD/svg11.dtd">
<!-- Generated by graphviz version 2.43.0 (0)
 -->
<!-- Title: %3 Pages: 1 -->
<svg width="815pt" height="183pt"
 viewBox="0.00 0.00 815.00 183.00" xmlns="http://www.w3.org/2000/svg" xmlns:xlink="http://www.w3.org/1999/xlink">
<g id="graph0" class="graph" transform="scale(1 1) rotate(0) translate(4 179)">
<title>%3</title>
<polygon fill="white" stroke="transparent" points="-4,4 -4,-179 811,-179 811,4 -4,4"/>
<!-- node_0 -->
<g id="node1" class="node">
<title>node_0</title>
<polygon fill="none" stroke="black" points="592,-109 470,-109 470,-73 592,-73 592,-109"/>
<text text-anchor="start" x="515.5" y="-94.4" font-family="Fira Mono Medium" font-weight="bold" font-size="12.00">side</text>
<text text-anchor="start" x="478" y="-82.4" font-family="Fira Mono Medium" font-style="italic" font-size="12.00">location:</text>
<text text-anchor="start" x="546" y="-82.4" font-family="Fira Mono Medium" font-size="12.00"> left</text>
</g>
<!-- node_1 -->
<g id="node2" class="node">
<title>node_1</title>
<polygon fill="none" stroke="black" points="807,-109 677,-109 677,-73 807,-73 807,-109"/>
<text text-anchor="start" x="726.5" y="-94.4" font-family="Fira Mono Medium" font-weight="bold" font-size="12.00">side</text>
<text text-anchor="start" x="685" y="-82.4" font-family="Fira Mono Medium" font-style="italic" font-size="12.00">location:</text>
<text text-anchor="start" x="753" y="-82.4" font-family="Fira Mono Medium" font-size="12.00"> right</text>
</g>
<!-- node_0&#45;&gt;node_1 -->
<g id="edge1" class="edge">
<title>node_0&#45;&gt;node_1</title>
<path fill="none" stroke="black" d="M592.17,-91C615.38,-91 642.18,-91 666.58,-91"/>
<polygon fill="black" stroke="black" points="666.88,-94.5 676.88,-91 666.88,-87.5 666.88,-94.5"/>
<text text-anchor="middle" x="634.5" y="-94" font-family="Fira Mono Medium" font-size="10.00">opposite</text>
</g>
<!-- node_1&#45;&gt;node_0 -->
<g id="edge2" class="edge">
<title>node_1&#45;&gt;node_0</title>
<path fill="none" stroke="black" d="M676.69,-78.1C670.73,-77.25 664.77,-76.52 659,-76 637.31,-74.03 631.68,-73.93 610,-76 607.48,-76.24 604.92,-76.52 602.33,-76.84"/>
<polygon fill="black" stroke="black" points="601.73,-73.39 592.3,-78.23 602.69,-80.33 601.73,-73.39"/>
<text text-anchor="middle" x="634.5" y="-79" font-family="Fira Mono Medium" font-size="10.00">opposite</text>
</g>
<!-- node_2 -->
<g id="node3" class="node">
<title>node_2</title>
<polygon fill="none" stroke="black" points="390.5,-175 336.5,-175 336.5,-139 390.5,-139 390.5,-175"/>
<text text-anchor="start" x="348" y="-154.9" font-family="Fira Mono Medium" font-weight="bold" font-size="12.00">boat</text>
</g>
<!-- node_2&#45;&gt;node_0 -->
<g id="edge3" class="edge">
<title>node_2&#45;&gt;node_0</title>
<path fill="none" stroke="black" d="M390.69,-147.89C408.16,-141.7 431.58,-133.18 452,-125 461.26,-121.29 471.05,-117.18 480.47,-113.13"/>
<polygon fill="black" stroke="black" points="481.93,-116.31 489.71,-109.11 479.15,-109.88 481.93,-116.31"/>
<text text-anchor="middle" x="445.5" y="-132" font-family="Fira Mono Medium" font-size="10.00">at</text>
</g>
<!-- node_3 -->
<g id="node4" class="node">
<title>node_3</title>
<polygon fill="none" stroke="black" points="421,-36 306,-36 306,0 421,0 421,-36"/>
<text text-anchor="start" x="344.5" y="-21.4" font-family="Fira Mono Medium" font-weight="bold" font-size="12.00">cargo</text>
<text text-anchor="start" x="314" y="-9.4" font-family="Fira Mono Medium" font-style="italic" font-size="12.00">kind:</text>
<text text-anchor="start" x="352" y="-9.4" font-family="Fira Mono Medium" font-size="12.00"> cabbage</text>
</g>
<!-- node_3&#45;&gt;node_0 -->
<g id="edge4" class="edge">
<title>node_3&#45;&gt;node_0</title>
<path fill="none" stroke="black" d="M421.12,-34.98C431.53,-38.6 442.2,-42.66 452,-47 465.5,-52.98 479.71,-60.57 492.26,-67.77"/>
<polygon fill="black" stroke="black" points="490.66,-70.89 501.06,-72.9 494.19,-64.84 490.66,-70.89"/>
<text text-anchor="middle" x="445.5" y="-50" font-family="Fira Mono Medium" font-size="10.00">at</text>
</g>
<!-- node_4 -->
<g id="node5" class="node">
<title>node_4</title>
<polygon fill="none" stroke="black" points="245,-83 153,-83 153,-47 245,-47 245,-83"/>
<text text-anchor="start" x="180" y="-68.4" font-family="Fira Mono Medium" font-weight="bold" font-size="12.00">cargo</text>
<text text-anchor="start" x="161" y="-56.4" font-family="Fira Mono Medium" font-style="italic" font-size="12.00">kind:</text>
<text text-anchor="start" x="199" y="-56.4" font-family="Fira Mono Medium" font-size="12.00"> goat</text>
</g>
<!-- node_4&#45;&gt;node_0 -->
<g id="edge6" class="edge">
<title>node_4&#45;&gt;node_0</title>
<path fill="none" stroke="black" d="M245.19,-68.56C300.57,-72.92 395.01,-80.36 459.86,-85.47"/>
<polygon fill="black" stroke="black" points="459.75,-88.98 470,-86.27 460.3,-82 459.75,-88.98"/>
<text text-anchor="middle" x="363.5" y="-86" font-family="Fira Mono Medium" font-size="10.00">at</text>
</g>
<!-- node_4&#45;&gt;node_3 -->
<g id="edge5" class="edge">
<title>node_4&#45;&gt;node_3</title>
<path fill="none" stroke="black" d="M245.27,-51.91C260.97,-47.37 278.91,-42.18 295.97,-37.24"/>
<polygon fill="black" stroke="black" points="297.25,-40.52 305.88,-34.38 295.3,-33.79 297.25,-40.52"/>
<text text-anchor="middle" x="275.5" y="-49" font-family="Fira Mono Medium" font-size="10.00">eats</text>
</g>
<!-- node_5 -->
<g id="node6" class="node">
<title>node_5</title>
<polygon fill="none" stroke="black" points="92,-106 0,-106 0,-70 92,-70 92,-106"/>
<text text-anchor="start" x="27" y="-91.4" font-family="Fira Mono Medium" font-weight="bold" font-size="12.00">cargo</text>
<text text-anchor="start" x="8" y="-79.4" font-family="Fira Mono Medium" font-style="italic" font-size="12.00">kind:</text>
<text text-anchor="start" x="46" y="-79.4" font-family="Fira Mono Medium" font-size="12.00"> wolf</text>
</g>
<!-- node_5&#45;&gt;node_0 -->
<g id="edge8" class="edge">
<title>node_5&#45;&gt;node_0</title>
<path fill="none" stroke="black" d="M92.06,-91.9C98.09,-92.33 104.19,-92.71 110,-93 261.82,-100.57 300.1,-102.83 452,-97 454.55,-96.9 457.15,-96.79 459.78,-96.66"/>
<polygon fill="black" stroke="black" points="460.19,-100.14 469.98,-96.08 459.8,-93.15 460.19,-100.14"/>
<text text-anchor="middle" x="275.5" y="-103" font-family="Fira Mono Medium" font-size="10.00">at</text>
</g>
<!-- node_5&#45;&gt;node_4 -->
<g id="edge7" class="edge">
<title>node_5&#45;&gt;node_4</title>
<path fill="none" stroke="black" d="M92.3,-81.1C108.2,-78.68 126.24,-75.93 142.86,-73.4"/>
<polygon fill="black" stroke="black" points="143.63,-76.82 152.99,-71.86 142.57,-69.9 143.63,-76.82"/>
<text text-anchor="middle" x="122.5" y="-81" font-family="Fira Mono Medium" font-size="10.00">eats</text>
</g>
</g>
</svg>
