<?xml version="1.0" encoding="UTF-8" standalone="no"?>
<!DOCTYPE svg PUBLIC "-//W3C//DTD SVG 1.1//EN"
 "http://www.w3.org/Graphics/SVG/1.1/DTD/svg11.dtd">
<!-- Generated by graphviz version 2.43.0 (0)
 -->
<!-- Title: %3 Pages: 1 -->
<svg width="421pt" height="260pt"
 viewBox="0.00 0.00 421.00 260.00" xmlns="http://www.w3.org/2000/svg" xmlns:xlink="http://www.w3.org/1999/xlink">
<g id="graph0" class="graph" transform="scale(1 1) rotate(0) translate(4 256)">
<title>%3</title>
<polygon fill="white" stroke="transparent" points="-4,4 -4,-256 417,-256 417,4 -4,4"/>
<!-- node_0 -->
<g id="node1" class="node">
<title>node_0</title>
<polygon fill="none" stroke="black" points="129,-144 0,-144 0,-108 129,-108 129,-144"/>
<text text-anchor="start" x="8" y="-123.9" font-family="Fira Mono Medium" font-weight="bold" font-size="12.00">person&#45;register</text>
</g>
<!-- node_1 -->
<g id="node2" class="node">
<title>node_1</title>
<polygon fill="none" stroke="black" points="409.5,-252 211.5,-252 211.5,-216 409.5,-216 409.5,-252"/>
<text text-anchor="start" x="299" y="-237.4" font-family="Fira Mono Medium" font-weight="bold" font-size="12.00">man</text>
<text text-anchor="start" x="219.5" y="-225.4" font-family="Fira Mono Medium" font-style="italic" font-size="12.00">full&#45;name:</text>
<text text-anchor="start" x="295.5" y="-225.4" font-family="Fira Mono Medium" font-size="12.00"> Homer Simpson</text>
</g>
<!-- node_0&#45;&gt;node_1 -->
<g id="edge1" class="edge">
<title>node_0&#45;&gt;node_1</title>
<path fill="none" stroke="black" d="M92.29,-144.02C120.17,-162.08 165.6,-189.65 208,-207 213.01,-209.05 218.22,-210.99 223.52,-212.81"/>
<polygon fill="black" stroke="black" points="222.55,-216.17 233.14,-215.97 224.73,-209.52 222.55,-216.17"/>
<text text-anchor="middle" x="168.5" y="-201" font-family="Fira Mono Medium" font-size="10.00">persons</text>
</g>
<!-- node_2 -->
<g id="node3" class="node">
<title>node_2</title>
<polygon fill="none" stroke="black" points="405.5,-198 215.5,-198 215.5,-162 405.5,-162 405.5,-198"/>
<text text-anchor="start" x="299" y="-183.4" font-family="Fira Mono Medium" font-weight="bold" font-size="12.00">man</text>
<text text-anchor="start" x="223.5" y="-171.4" font-family="Fira Mono Medium" font-style="italic" font-size="12.00">full&#45;name:</text>
<text text-anchor="start" x="299.5" y="-171.4" font-family="Fira Mono Medium" font-size="12.00"> Bart Simpson</text>
</g>
<!-- node_0&#45;&gt;node_2 -->
<g id="edge2" class="edge">
<title>node_0&#45;&gt;node_2</title>
<path fill="none" stroke="black" d="M129.29,-140.12C156.44,-146.13 188.61,-153.25 218.2,-159.79"/>
<polygon fill="black" stroke="black" points="217.61,-163.25 228.13,-161.99 219.12,-156.41 217.61,-163.25"/>
<text text-anchor="middle" x="168.5" y="-156" font-family="Fira Mono Medium" font-size="10.00">persons</text>
</g>
<!-- node_3 -->
<g id="node4" class="node">
<title>node_3</title>
<polygon fill="none" stroke="black" points="409.5,-144 211.5,-144 211.5,-108 409.5,-108 409.5,-144"/>
<text text-anchor="start" x="291.5" y="-129.4" font-family="Fira Mono Medium" font-weight="bold" font-size="12.00">woman</text>
<text text-anchor="start" x="219.5" y="-117.4" font-family="Fira Mono Medium" font-style="italic" font-size="12.00">full&#45;name:</text>
<text text-anchor="start" x="295.5" y="-117.4" font-family="Fira Mono Medium" font-size="12.00"> Marge Simpson</text>
</g>
<!-- node_0&#45;&gt;node_3 -->
<g id="edge3" class="edge">
<title>node_0&#45;&gt;node_3</title>
<path fill="none" stroke="black" d="M129.29,-126C151.26,-126 176.51,-126 201.03,-126"/>
<polygon fill="black" stroke="black" points="201.11,-129.5 211.11,-126 201.11,-122.5 201.11,-129.5"/>
<text text-anchor="middle" x="168.5" y="-129" font-family="Fira Mono Medium" font-size="10.00">persons</text>
</g>
<!-- node_4 -->
<g id="node5" class="node">
<title>node_4</title>
<polygon fill="none" stroke="black" points="405.5,-90 215.5,-90 215.5,-54 405.5,-54 405.5,-90"/>
<text text-anchor="start" x="291.5" y="-75.4" font-family="Fira Mono Medium" font-weight="bold" font-size="12.00">woman</text>
<text text-anchor="start" x="223.5" y="-63.4" font-family="Fira Mono Medium" font-style="italic" font-size="12.00">full&#45;name:</text>
<text text-anchor="start" x="299.5" y="-63.4" font-family="Fira Mono Medium" font-size="12.00"> Lisa Simpson</text>
</g>
<!-- node_0&#45;&gt;node_4 -->
<g id="edge4" class="edge">
<title>node_0&#45;&gt;node_4</title>
<path fill="none" stroke="black" d="M129.29,-111.88C156.44,-105.87 188.61,-98.75 218.2,-92.21"/>
<polygon fill="black" stroke="black" points="219.12,-95.59 228.13,-90.01 217.61,-88.75 219.12,-95.59"/>
<text text-anchor="middle" x="168.5" y="-109" font-family="Fira Mono Medium" font-size="10.00">persons</text>
</g>
<!-- node_5 -->
<g id="node6" class="node">
<title>node_5</title>
<polygon fill="none" stroke="black" points="413,-36 208,-36 208,0 413,0 413,-36"/>
<text text-anchor="start" x="291.5" y="-21.4" font-family="Fira Mono Medium" font-weight="bold" font-size="12.00">woman</text>
<text text-anchor="start" x="216" y="-9.4" font-family="Fira Mono Medium" font-style="italic" font-size="12.00">full&#45;name:</text>
<text text-anchor="start" x="292" y="-9.4" font-family="Fira Mono Medium" font-size="12.00"> Maggie Simpson</text>
</g>
<!-- node_0&#45;&gt;node_5 -->
<g id="edge5" class="edge">
<title>node_0&#45;&gt;node_5</title>
<path fill="none" stroke="black" d="M92.29,-107.98C120.17,-89.92 165.6,-62.35 208,-45 213.01,-42.95 218.22,-41.01 223.52,-39.19"/>
<polygon fill="black" stroke="black" points="224.73,-42.48 233.14,-36.03 222.55,-35.83 224.73,-42.48"/>
<text text-anchor="middle" x="168.5" y="-77" font-family="Fira Mono Medium" font-size="10.00">persons</text>
</g>
</g>
</svg>
