<?xml version="1.0" encoding="UTF-8" standalone="no"?>
<!DOCTYPE svg PUBLIC "-//W3C//DTD SVG 1.1//EN"
 "http://www.w3.org/Graphics/SVG/1.1/DTD/svg11.dtd">
<!-- Generated by graphviz version 2.43.0 (0)
 -->
<!-- Title: %3 Pages: 1 -->
<svg width="538pt" height="368pt"
 viewBox="0.00 0.00 538.00 368.00" xmlns="http://www.w3.org/2000/svg" xmlns:xlink="http://www.w3.org/1999/xlink">
<g id="graph0" class="graph" transform="scale(1 1) rotate(0) translate(4 364)">
<title>%3</title>
<polygon fill="white" stroke="transparent" points="-4,4 -4,-364 534,-364 534,4 -4,4"/>
<!-- node_0 -->
<g id="node1" class="node">
<title>node_0</title>
<polygon fill="none" stroke="black" points="96,-360 42,-360 42,-324 96,-324 96,-360"/>
<text text-anchor="start" x="53.5" y="-339.9" font-family="Fira Mono Medium" font-weight="bold" font-size="12.00">boat</text>
</g>
<!-- node_7 -->
<g id="node2" class="node">
<title>node_7</title>
<polygon fill="none" stroke="black" points="309,-208 187,-208 187,-152 309,-152 309,-208"/>
<text text-anchor="start" x="232.5" y="-195.4" font-family="Fira Mono Medium" font-weight="bold" font-size="12.00">bank</text>
<text text-anchor="start" x="195" y="-183.4" font-family="Fira Mono Medium" font-style="italic" font-size="12.00">location:</text>
<text text-anchor="start" x="263" y="-183.4" font-family="Fira Mono Medium" font-size="12.00"> left</text>
<text text-anchor="start" x="206" y="-171.4" font-family="Fira Mono Medium" font-style="italic" font-size="12.00">midnight:</text>
<text text-anchor="start" x="274" y="-171.4" font-family="Fira Mono Medium" font-size="12.00"> 0</text>
<text text-anchor="start" x="206" y="-159.4" font-family="Fira Mono Medium" font-style="italic" font-size="12.00">sunset:</text>
<text text-anchor="start" x="259" y="-159.4" font-family="Fira Mono Medium" font-size="12.00"> 0.0</text>
</g>
<!-- node_0&#45;&gt;node_7 -->
<g id="edge1" class="edge">
<title>node_0&#45;&gt;node_7</title>
<path fill="none" stroke="black" d="M96.13,-335.1C109.49,-330.75 125.52,-324.19 138,-315 174.32,-288.26 205.44,-246.62 225.02,-216.66"/>
<polygon fill="black" stroke="black" points="228.02,-218.46 230.47,-208.15 222.13,-214.68 228.02,-218.46"/>
<text text-anchor="middle" x="162.5" y="-303" font-family="Fira Mono Medium" font-size="10.00">at</text>
</g>
<!-- node_8 -->
<g id="node9" class="node">
<title>node_8</title>
<polygon fill="none" stroke="black" points="530,-208 400,-208 400,-152 530,-152 530,-208"/>
<text text-anchor="start" x="449.5" y="-195.4" font-family="Fira Mono Medium" font-weight="bold" font-size="12.00">bank</text>
<text text-anchor="start" x="408" y="-183.4" font-family="Fira Mono Medium" font-style="italic" font-size="12.00">location:</text>
<text text-anchor="start" x="476" y="-183.4" font-family="Fira Mono Medium" font-size="12.00"> right</text>
<text text-anchor="start" x="423" y="-171.4" font-family="Fira Mono Medium" font-style="italic" font-size="12.00">midnight:</text>
<text text-anchor="start" x="491" y="-171.4" font-family="Fira Mono Medium" font-size="12.00"> 0</text>
<text text-anchor="start" x="423" y="-159.4" font-family="Fira Mono Medium" font-style="italic" font-size="12.00">sunset:</text>
<text text-anchor="start" x="476" y="-159.4" font-family="Fira Mono Medium" font-size="12.00"> 0.0</text>
</g>
<!-- node_7&#45;&gt;node_8 -->
<g id="edge2" class="edge">
<title>node_7&#45;&gt;node_8</title>
<path fill="none" stroke="black" d="M309.18,-180C334.07,-180 363.2,-180 389.43,-180"/>
<polygon fill="black" stroke="black" points="389.7,-183.5 399.7,-180 389.7,-176.5 389.7,-183.5"/>
<text text-anchor="middle" x="354.5" y="-183" font-family="Fira Mono Medium" font-size="10.00">not&#45;equal</text>
</g>
<!-- node_1 -->
<g id="node3" class="node">
<title>node_1</title>
<polygon fill="none" stroke="black" points="134,-306 4,-306 4,-270 134,-270 134,-306"/>
<text text-anchor="start" x="31" y="-291.4" font-family="Fira Mono Medium" font-weight="bold" font-size="12.00">missionary</text>
<text text-anchor="start" x="12" y="-279.4" font-family="Fira Mono Medium" font-style="italic" font-size="12.00">can&#45;drive:</text>
<text text-anchor="start" x="88" y="-279.4" font-family="Fira Mono Medium" font-size="12.00"> true</text>
</g>
<!-- node_1&#45;&gt;node_7 -->
<g id="edge3" class="edge">
<title>node_1&#45;&gt;node_7</title>
<path fill="none" stroke="black" d="M120.09,-269.86C126.24,-267.12 132.34,-264.15 138,-261 161.71,-247.78 186.14,-230.07 205.85,-214.58"/>
<polygon fill="black" stroke="black" points="208.07,-217.29 213.71,-208.32 203.71,-211.81 208.07,-217.29"/>
<text text-anchor="middle" x="162.5" y="-252" font-family="Fira Mono Medium" font-size="10.00">at</text>
</g>
<!-- node_2 -->
<g id="node4" class="node">
<title>node_2</title>
<polygon fill="none" stroke="black" points="134,-252 4,-252 4,-216 134,-216 134,-252"/>
<text text-anchor="start" x="31" y="-237.4" font-family="Fira Mono Medium" font-weight="bold" font-size="12.00">missionary</text>
<text text-anchor="start" x="12" y="-225.4" font-family="Fira Mono Medium" font-style="italic" font-size="12.00">can&#45;drive:</text>
<text text-anchor="start" x="88" y="-225.4" font-family="Fira Mono Medium" font-size="12.00"> true</text>
</g>
<!-- node_2&#45;&gt;node_7 -->
<g id="edge4" class="edge">
<title>node_2&#45;&gt;node_7</title>
<path fill="none" stroke="black" d="M129.43,-215.87C144.73,-211.2 161.34,-206.13 177.12,-201.32"/>
<polygon fill="black" stroke="black" points="178.28,-204.63 186.82,-198.36 176.24,-197.93 178.28,-204.63"/>
<text text-anchor="middle" x="162.5" y="-210" font-family="Fira Mono Medium" font-size="10.00">at</text>
</g>
<!-- node_3 -->
<g id="node5" class="node">
<title>node_3</title>
<polygon fill="none" stroke="black" points="134,-198 4,-198 4,-162 134,-162 134,-198"/>
<text text-anchor="start" x="31" y="-183.4" font-family="Fira Mono Medium" font-weight="bold" font-size="12.00">missionary</text>
<text text-anchor="start" x="12" y="-171.4" font-family="Fira Mono Medium" font-style="italic" font-size="12.00">can&#45;drive:</text>
<text text-anchor="start" x="88" y="-171.4" font-family="Fira Mono Medium" font-size="12.00"> true</text>
</g>
<!-- node_3&#45;&gt;node_7 -->
<g id="edge5" class="edge">
<title>node_3&#45;&gt;node_7</title>
<path fill="none" stroke="black" d="M134.15,-180C148,-180 162.72,-180 176.79,-180"/>
<polygon fill="black" stroke="black" points="176.9,-183.5 186.9,-180 176.9,-176.5 176.9,-183.5"/>
<text text-anchor="middle" x="162.5" y="-183" font-family="Fira Mono Medium" font-size="10.00">at</text>
</g>
<!-- node_4 -->
<g id="node6" class="node">
<title>node_4</title>
<polygon fill="none" stroke="black" points="134,-144 4,-144 4,-108 134,-108 134,-144"/>
<text text-anchor="start" x="38.5" y="-129.4" font-family="Fira Mono Medium" font-weight="bold" font-size="12.00">cannibal</text>
<text text-anchor="start" x="12" y="-117.4" font-family="Fira Mono Medium" font-style="italic" font-size="12.00">can&#45;drive:</text>
<text text-anchor="start" x="88" y="-117.4" font-family="Fira Mono Medium" font-size="12.00"> true</text>
</g>
<!-- node_4&#45;&gt;node_7 -->
<g id="edge6" class="edge">
<title>node_4&#45;&gt;node_7</title>
<path fill="none" stroke="black" d="M129.43,-144.13C144.73,-148.8 161.34,-153.87 177.12,-158.68"/>
<polygon fill="black" stroke="black" points="176.24,-162.07 186.82,-161.64 178.28,-155.37 176.24,-162.07"/>
<text text-anchor="middle" x="162.5" y="-157" font-family="Fira Mono Medium" font-size="10.00">at</text>
</g>
<!-- node_5 -->
<g id="node7" class="node">
<title>node_5</title>
<polygon fill="none" stroke="black" points="138,-90 0,-90 0,-54 138,-54 138,-90"/>
<text text-anchor="start" x="38.5" y="-75.4" font-family="Fira Mono Medium" font-weight="bold" font-size="12.00">cannibal</text>
<text text-anchor="start" x="8" y="-63.4" font-family="Fira Mono Medium" font-style="italic" font-size="12.00">can&#45;drive:</text>
<text text-anchor="start" x="84" y="-63.4" font-family="Fira Mono Medium" font-size="12.00"> false</text>
</g>
<!-- node_5&#45;&gt;node_7 -->
<g id="edge7" class="edge">
<title>node_5&#45;&gt;node_7</title>
<path fill="none" stroke="black" d="M120.09,-90.14C126.24,-92.88 132.34,-95.85 138,-99 161.71,-112.22 186.14,-129.93 205.85,-145.42"/>
<polygon fill="black" stroke="black" points="203.71,-148.19 213.71,-151.68 208.07,-142.71 203.71,-148.19"/>
<text text-anchor="middle" x="162.5" y="-119" font-family="Fira Mono Medium" font-size="10.00">at</text>
</g>
<!-- node_6 -->
<g id="node8" class="node">
<title>node_6</title>
<polygon fill="none" stroke="black" points="138,-36 0,-36 0,0 138,0 138,-36"/>
<text text-anchor="start" x="38.5" y="-21.4" font-family="Fira Mono Medium" font-weight="bold" font-size="12.00">cannibal</text>
<text text-anchor="start" x="8" y="-9.4" font-family="Fira Mono Medium" font-style="italic" font-size="12.00">can&#45;drive:</text>
<text text-anchor="start" x="84" y="-9.4" font-family="Fira Mono Medium" font-size="12.00"> false</text>
</g>
<!-- node_6&#45;&gt;node_7 -->
<g id="edge8" class="edge">
<title>node_6&#45;&gt;node_7</title>
<path fill="none" stroke="black" d="M123.41,-36.06C128.54,-38.71 133.5,-41.69 138,-45 174.32,-71.74 205.44,-113.38 225.02,-143.34"/>
<polygon fill="black" stroke="black" points="222.13,-145.32 230.47,-151.85 228.02,-141.54 222.13,-145.32"/>
<text text-anchor="middle" x="162.5" y="-72" font-family="Fira Mono Medium" font-size="10.00">at</text>
</g>
<!-- node_8&#45;&gt;node_7 -->
<g id="edge9" class="edge">
<title>node_8&#45;&gt;node_7</title>
<path fill="none" stroke="black" d="M399.69,-167.1C393.73,-166.25 387.77,-165.52 382,-165 357.66,-162.79 351.33,-162.68 327,-165 324.48,-165.24 321.92,-165.52 319.33,-165.84"/>
<polygon fill="black" stroke="black" points="318.73,-162.39 309.3,-167.23 319.69,-169.33 318.73,-162.39"/>
<text text-anchor="middle" x="354.5" y="-168" font-family="Fira Mono Medium" font-size="10.00">not&#45;equal</text>
</g>
</g>
</svg>
