<?xml version="1.0" encoding="UTF-8" standalone="no"?>
<!DOCTYPE svg PUBLIC "-//W3C//DTD SVG 1.1//EN"
 "http://www.w3.org/Graphics/SVG/1.1/DTD/svg11.dtd">
<!-- Generated by graphviz version 2.43.0 (0)
 -->
<!-- Title: %3 Pages: 1 -->
<svg width="2467pt" height="582pt"
 viewBox="0.00 0.00 2467.00 582.00" xmlns="http://www.w3.org/2000/svg" xmlns:xlink="http://www.w3.org/1999/xlink">
<g id="graph0" class="graph" transform="scale(1 1) rotate(0) translate(4 578)">
<title>%3</title>
<polygon fill="white" stroke="transparent" points="-4,4 -4,-578 2463,-578 2463,4 -4,4"/>
<!-- node_0 -->
<g id="node1" class="node">
<title>node_0</title>
<polygon fill="#00ff00" stroke="#00ff00" points="62,-341 0,-341 0,-305 62,-305 62,-341"/>
<text text-anchor="middle" x="31" y="-319.9" font-family="Fira Mono Medium" font-size="12.00">node_0</text>
</g>
<!-- node_1 -->
<g id="node2" class="node">
<title>node_1</title>
<polygon fill="none" stroke="black" points="209,-167 147,-167 147,-131 209,-131 209,-167"/>
<text text-anchor="middle" x="178" y="-145.9" font-family="Fira Mono Medium" font-size="12.00">node_1</text>
</g>
<!-- node_0&#45;&gt;node_1 -->
<g id="edge1" class="edge">
<title>node_0&#45;&gt;node_1</title>
<path fill="none" stroke="black" d="M39.49,-304.81C47.76,-285.97 62.27,-256.24 80,-234 98.4,-210.92 123.57,-189.06 143.66,-173.3"/>
<polygon fill="black" stroke="black" points="145.87,-176.02 151.65,-167.14 141.59,-170.48 145.87,-176.02"/>
<text text-anchor="middle" x="104.5" y="-237" font-family="Fira Mono Medium" font-size="10.00">empty</text>
</g>
<!-- node_2 -->
<g id="node3" class="node">
<title>node_2</title>
<polygon fill="none" stroke="black" points="1116.5,-347 1054.5,-347 1054.5,-311 1116.5,-311 1116.5,-347"/>
<text text-anchor="middle" x="1085.5" y="-325.9" font-family="Fira Mono Medium" font-size="12.00">node_2</text>
</g>
<!-- node_0&#45;&gt;node_2 -->
<g id="edge2" class="edge">
<title>node_0&#45;&gt;node_2</title>
<path fill="none" stroke="black" d="M56.23,-304.83C83.91,-285.91 131.32,-259 177,-259 177,-259 177,-259 932.5,-259 977.72,-259 1024.13,-284.87 1053.58,-305.16"/>
<polygon fill="black" stroke="black" points="1051.6,-308.05 1061.79,-310.97 1055.65,-302.34 1051.6,-308.05"/>
<text text-anchor="middle" x="546.5" y="-262" font-family="Fira Mono Medium" font-size="10.00">transfer</text>
</g>
<!-- node_3 -->
<g id="node4" class="node">
<title>node_3</title>
<polygon fill="none" stroke="black" points="808.5,-522 746.5,-522 746.5,-486 808.5,-486 808.5,-522"/>
<text text-anchor="middle" x="777.5" y="-500.9" font-family="Fira Mono Medium" font-size="12.00">node_3</text>
</g>
<!-- node_0&#45;&gt;node_3 -->
<g id="edge3" class="edge">
<title>node_0&#45;&gt;node_3</title>
<path fill="none" stroke="black" d="M37.28,-341.28C51.57,-386.5 95.57,-500 177,-500 177,-500 177,-500 624.5,-500 662.28,-500 705.33,-501.25 735.94,-502.35"/>
<polygon fill="black" stroke="black" points="736.1,-505.86 746.22,-502.73 736.36,-498.87 736.1,-505.86"/>
<text text-anchor="middle" x="392.5" y="-503" font-family="Fira Mono Medium" font-size="10.00">transfer</text>
</g>
<!-- node_4 -->
<g id="node5" class="node">
<title>node_4</title>
<polygon fill="none" stroke="black" points="209,-375 147,-375 147,-339 209,-339 209,-375"/>
<text text-anchor="middle" x="178" y="-353.9" font-family="Fira Mono Medium" font-size="12.00">node_4</text>
</g>
<!-- node_0&#45;&gt;node_4 -->
<g id="edge4" class="edge">
<title>node_0&#45;&gt;node_4</title>
<path fill="none" stroke="black" d="M62.19,-330.65C68.09,-332.12 74.23,-333.63 80,-335 98.68,-339.45 119.42,-344.19 136.92,-348.12"/>
<polygon fill="black" stroke="black" points="136.29,-351.56 146.81,-350.33 137.82,-344.73 136.29,-351.56"/>
<text text-anchor="middle" x="104.5" y="-349" font-family="Fira Mono Medium" font-size="10.00">transfer</text>
</g>
<!-- node_5 -->
<g id="node6" class="node">
<title>node_5</title>
<polygon fill="none" stroke="black" points="350,-167 288,-167 288,-131 350,-131 350,-167"/>
<text text-anchor="middle" x="319" y="-145.9" font-family="Fira Mono Medium" font-size="12.00">node_5</text>
</g>
<!-- node_1&#45;&gt;node_5 -->
<g id="edge5" class="edge">
<title>node_1&#45;&gt;node_5</title>
<path fill="none" stroke="black" d="M209.16,-149C229.29,-149 255.98,-149 277.89,-149"/>
<polygon fill="black" stroke="black" points="277.9,-152.5 287.9,-149 277.9,-145.5 277.9,-152.5"/>
<text text-anchor="middle" x="248.5" y="-152" font-family="Fira Mono Medium" font-size="10.00">nom&#45;nom</text>
</g>
<!-- node_6 -->
<g id="node7" class="node">
<title>node_6</title>
<polygon fill="none" stroke="black" points="1885,-432 1823,-432 1823,-396 1885,-396 1885,-432"/>
<text text-anchor="middle" x="1854" y="-410.9" font-family="Fira Mono Medium" font-size="12.00">node_6</text>
</g>
<!-- node_1&#45;&gt;node_6 -->
<g id="edge6" class="edge">
<title>node_1&#45;&gt;node_6</title>
<path fill="none" stroke="black" d="M185.89,-130.73C202.21,-90.94 247.25,0 318,0 318,0 318,0 932.5,0 1314.62,0 1713.67,-300.41 1823.53,-389.43"/>
<polygon fill="black" stroke="black" points="1821.56,-392.34 1831.52,-395.94 1825.98,-386.91 1821.56,-392.34"/>
<text text-anchor="middle" x="1008.5" y="-10" font-family="Fira Mono Medium" font-size="10.00">nom&#45;nom</text>
</g>
<!-- node_7 -->
<g id="node8" class="node">
<title>node_7</title>
<polygon fill="none" stroke="black" points="1270.5,-180 1208.5,-180 1208.5,-144 1270.5,-144 1270.5,-180"/>
<text text-anchor="middle" x="1239.5" y="-158.9" font-family="Fira Mono Medium" font-size="12.00">node_7</text>
</g>
<!-- node_2&#45;&gt;node_7 -->
<g id="edge7" class="edge">
<title>node_2&#45;&gt;node_7</title>
<path fill="none" stroke="black" d="M1110.06,-310.96C1113.48,-308.07 1116.9,-305.03 1120,-302 1157.74,-265.15 1196.26,-217.37 1218.74,-188.24"/>
<polygon fill="black" stroke="black" points="1221.61,-190.25 1224.92,-180.18 1216.05,-185.99 1221.61,-190.25"/>
<text text-anchor="middle" x="1162.5" y="-283" font-family="Fira Mono Medium" font-size="10.00">nom&#45;nom</text>
</g>
<!-- node_8 -->
<g id="node9" class="node">
<title>node_8</title>
<polygon fill="none" stroke="black" points="962.5,-522 900.5,-522 900.5,-486 962.5,-486 962.5,-522"/>
<text text-anchor="middle" x="931.5" y="-500.9" font-family="Fira Mono Medium" font-size="12.00">node_8</text>
</g>
<!-- node_3&#45;&gt;node_8 -->
<g id="edge8" class="edge">
<title>node_3&#45;&gt;node_8</title>
<path fill="none" stroke="black" d="M808.53,-504C831.88,-504 864.49,-504 890.12,-504"/>
<polygon fill="black" stroke="black" points="890.27,-507.5 900.27,-504 890.27,-500.5 890.27,-507.5"/>
<text text-anchor="middle" x="854.5" y="-507" font-family="Fira Mono Medium" font-size="10.00">nom&#45;nom</text>
</g>
<!-- node_4&#45;&gt;node_0 -->
<g id="edge10" class="edge">
<title>node_4&#45;&gt;node_0</title>
<path fill="none" stroke="black" d="M158.04,-338.89C149.79,-332.22 139.59,-325.45 129,-322 110.93,-316.11 89.94,-315.61 72.12,-316.89"/>
<polygon fill="black" stroke="black" points="71.67,-313.41 62.04,-317.82 72.32,-320.38 71.67,-313.41"/>
<text text-anchor="middle" x="104.5" y="-325" font-family="Fira Mono Medium" font-size="10.00">transfer</text>
</g>
<!-- node_9 -->
<g id="node10" class="node">
<title>node_9</title>
<polygon fill="none" stroke="black" points="350,-409 288,-409 288,-373 350,-373 350,-409"/>
<text text-anchor="middle" x="319" y="-387.9" font-family="Fira Mono Medium" font-size="12.00">node_9</text>
</g>
<!-- node_4&#45;&gt;node_9 -->
<g id="edge9" class="edge">
<title>node_4&#45;&gt;node_9</title>
<path fill="none" stroke="black" d="M209.2,-352.98C227.26,-351.64 250.42,-351.8 270,-358 276.61,-360.09 283.12,-363.43 289.11,-367.19"/>
<polygon fill="black" stroke="black" points="287.24,-370.16 297.46,-372.92 291.19,-364.38 287.24,-370.16"/>
<text text-anchor="middle" x="248.5" y="-361" font-family="Fira Mono Medium" font-size="10.00">empty</text>
</g>
<!-- node_10 -->
<g id="node11" class="node">
<title>node_10</title>
<polygon fill="none" stroke="black" points="504,-167 435,-167 435,-131 504,-131 504,-167"/>
<text text-anchor="middle" x="469.5" y="-145.9" font-family="Fira Mono Medium" font-size="12.00">node_10</text>
</g>
<!-- node_5&#45;&gt;node_10 -->
<g id="edge11" class="edge">
<title>node_5&#45;&gt;node_10</title>
<path fill="none" stroke="black" d="M350.1,-137.34C355.95,-135.53 362.1,-133.96 368,-133 389.5,-129.51 395.47,-129.73 417,-133 419.64,-133.4 422.34,-133.91 425.04,-134.5"/>
<polygon fill="black" stroke="black" points="424.21,-137.9 434.77,-136.94 425.92,-131.11 424.21,-137.9"/>
<text text-anchor="middle" x="392.5" y="-136" font-family="Fira Mono Medium" font-size="10.00">empty</text>
</g>
<!-- node_11 -->
<g id="node12" class="node">
<title>node_11</title>
<polygon fill="none" stroke="black" points="2033,-432 1964,-432 1964,-396 2033,-396 2033,-432"/>
<text text-anchor="middle" x="1998.5" y="-410.9" font-family="Fira Mono Medium" font-size="12.00">node_11</text>
</g>
<!-- node_6&#45;&gt;node_11 -->
<g id="edge12" class="edge">
<title>node_6&#45;&gt;node_11</title>
<path fill="none" stroke="black" d="M1885.22,-414C1905.11,-414 1931.47,-414 1953.65,-414"/>
<polygon fill="black" stroke="black" points="1953.83,-417.5 1963.83,-414 1953.83,-410.5 1953.83,-417.5"/>
<text text-anchor="middle" x="1924.5" y="-417" font-family="Fira Mono Medium" font-size="10.00">nom&#45;nom</text>
</g>
<!-- node_7&#45;&gt;node_10 -->
<g id="edge14" class="edge">
<title>node_7&#45;&gt;node_10</title>
<path fill="none" stroke="black" d="M1208.22,-162C1177.54,-162 1128.72,-162 1086.5,-162 622.5,-162 622.5,-162 622.5,-162 586.01,-162 544.78,-158.24 514.48,-154.76"/>
<polygon fill="black" stroke="black" points="514.58,-151.25 504.24,-153.55 513.76,-158.2 514.58,-151.25"/>
<text text-anchor="middle" x="854.5" y="-165" font-family="Fira Mono Medium" font-size="10.00">transfer</text>
</g>
<!-- node_12 -->
<g id="node13" class="node">
<title>node_12</title>
<polygon fill="none" stroke="black" points="1120,-132 1051,-132 1051,-96 1120,-96 1120,-132"/>
<text text-anchor="middle" x="1085.5" y="-110.9" font-family="Fira Mono Medium" font-size="12.00">node_12</text>
</g>
<!-- node_7&#45;&gt;node_12 -->
<g id="edge13" class="edge">
<title>node_7&#45;&gt;node_12</title>
<path fill="none" stroke="black" d="M1228.52,-143.8C1219.67,-129.74 1205.32,-111.33 1187,-103 1169.34,-94.97 1148.19,-95.93 1129.86,-99.61"/>
<polygon fill="black" stroke="black" points="1128.96,-96.22 1120.01,-101.89 1130.54,-103.04 1128.96,-96.22"/>
<text text-anchor="middle" x="1162.5" y="-106" font-family="Fira Mono Medium" font-size="10.00">empty</text>
</g>
<!-- node_13 -->
<g id="node14" class="node">
<title>node_13</title>
<polygon fill="none" stroke="black" points="1120,-534 1051,-534 1051,-498 1120,-498 1120,-534"/>
<text text-anchor="middle" x="1085.5" y="-512.9" font-family="Fira Mono Medium" font-size="12.00">node_13</text>
</g>
<!-- node_8&#45;&gt;node_13 -->
<g id="edge15" class="edge">
<title>node_8&#45;&gt;node_13</title>
<path fill="none" stroke="black" d="M962.51,-502.21C982.54,-501.46 1009.43,-501.29 1033,-504 1035.64,-504.3 1038.35,-504.69 1041.07,-505.14"/>
<polygon fill="black" stroke="black" points="1040.42,-508.58 1050.9,-507.01 1041.72,-501.71 1040.42,-508.58"/>
<text text-anchor="middle" x="1008.5" y="-507" font-family="Fira Mono Medium" font-size="10.00">empty</text>
</g>
<!-- node_14 -->
<g id="node15" class="node">
<title>node_14</title>
<polygon fill="none" stroke="black" points="1756,-455 1687,-455 1687,-419 1756,-419 1756,-455"/>
<text text-anchor="middle" x="1721.5" y="-433.9" font-family="Fira Mono Medium" font-size="12.00">node_14</text>
</g>
<!-- node_8&#45;&gt;node_14 -->
<g id="edge16" class="edge">
<title>node_8&#45;&gt;node_14</title>
<path fill="none" stroke="black" d="M960.38,-522.02C989.95,-539.37 1038.64,-563 1084.5,-563 1084.5,-563 1084.5,-563 1568.5,-563 1630.12,-563 1680.15,-500.87 1704.48,-463.87"/>
<polygon fill="black" stroke="black" points="1707.68,-465.37 1710.11,-455.05 1701.78,-461.6 1707.68,-465.37"/>
<text text-anchor="middle" x="1316.5" y="-566" font-family="Fira Mono Medium" font-size="10.00">transfer</text>
</g>
<!-- node_9&#45;&gt;node_4 -->
<g id="edge17" class="edge">
<title>node_9&#45;&gt;node_4</title>
<path fill="none" stroke="black" d="M287.65,-383.73C269.95,-379.47 247.2,-373.97 227,-369 224.39,-368.36 221.71,-367.7 219,-367.02"/>
<polygon fill="black" stroke="black" points="219.75,-363.61 209.21,-364.59 218.07,-370.4 219.75,-363.61"/>
<text text-anchor="middle" x="248.5" y="-382" font-family="Fira Mono Medium" font-size="10.00">empty</text>
</g>
<!-- node_15 -->
<g id="node16" class="node">
<title>node_15</title>
<polygon fill="none" stroke="black" points="1120,-438 1051,-438 1051,-402 1120,-402 1120,-438"/>
<text text-anchor="middle" x="1085.5" y="-416.9" font-family="Fira Mono Medium" font-size="12.00">node_15</text>
</g>
<!-- node_9&#45;&gt;node_15 -->
<g id="edge18" class="edge">
<title>node_9&#45;&gt;node_15</title>
<path fill="none" stroke="black" d="M350.1,-400.42C379.86,-408.88 426.86,-420 468.5,-420 468.5,-420 468.5,-420 932.5,-420 968.97,-420 1010.36,-420 1040.74,-420"/>
<polygon fill="black" stroke="black" points="1040.99,-423.5 1050.99,-420 1040.99,-416.5 1040.99,-423.5"/>
<text text-anchor="middle" x="700.5" y="-423" font-family="Fira Mono Medium" font-size="10.00">transfer</text>
</g>
<!-- node_16 -->
<g id="node17" class="node">
<title>node_16</title>
<polygon fill="none" stroke="black" points="504,-375 435,-375 435,-339 504,-339 504,-375"/>
<text text-anchor="middle" x="469.5" y="-353.9" font-family="Fira Mono Medium" font-size="12.00">node_16</text>
</g>
<!-- node_9&#45;&gt;node_16 -->
<g id="edge19" class="edge">
<title>node_9&#45;&gt;node_16</title>
<path fill="none" stroke="black" d="M350.16,-384.21C369.31,-379.88 394.62,-374.15 417,-369 419.64,-368.39 422.35,-367.77 425.08,-367.14"/>
<polygon fill="black" stroke="black" points="426.04,-370.51 434.99,-364.84 424.45,-363.69 426.04,-370.51"/>
<text text-anchor="middle" x="392.5" y="-382" font-family="Fira Mono Medium" font-size="10.00">transfer</text>
</g>
<!-- node_10&#45;&gt;node_5 -->
<g id="edge20" class="edge">
<title>node_10&#45;&gt;node_5</title>
<path fill="none" stroke="black" d="M434.87,-149C412.75,-149 383.69,-149 360.34,-149"/>
<polygon fill="black" stroke="black" points="360.05,-145.5 350.05,-149 360.05,-152.5 360.05,-145.5"/>
<text text-anchor="middle" x="392.5" y="-152" font-family="Fira Mono Medium" font-size="10.00">empty</text>
</g>
<!-- node_10&#45;&gt;node_7 -->
<g id="edge21" class="edge">
<title>node_10&#45;&gt;node_7</title>
<path fill="none" stroke="black" d="M503.84,-167.12C533.94,-181.78 579.91,-200 622.5,-200 622.5,-200 622.5,-200 1086.5,-200 1125.48,-200 1168.45,-188.09 1198.73,-177.61"/>
<polygon fill="black" stroke="black" points="1200.24,-180.78 1208.48,-174.13 1197.89,-174.19 1200.24,-180.78"/>
<text text-anchor="middle" x="854.5" y="-203" font-family="Fira Mono Medium" font-size="10.00">transfer</text>
</g>
<!-- node_17 -->
<g id="node18" class="node">
<title>node_17</title>
<polygon fill="none" stroke="black" points="658,-129 589,-129 589,-93 658,-93 658,-129"/>
<text text-anchor="middle" x="623.5" y="-107.9" font-family="Fira Mono Medium" font-size="12.00">node_17</text>
</g>
<!-- node_10&#45;&gt;node_17 -->
<g id="edge22" class="edge">
<title>node_10&#45;&gt;node_17</title>
<path fill="none" stroke="black" d="M485.06,-130.58C494.39,-120.33 507.44,-108.56 522,-103 539.85,-96.19 560.76,-96.64 578.87,-99.4"/>
<polygon fill="black" stroke="black" points="578.42,-102.88 588.88,-101.2 579.65,-95.99 578.42,-102.88"/>
<text text-anchor="middle" x="546.5" y="-106" font-family="Fira Mono Medium" font-size="10.00">transfer</text>
</g>
<!-- node_18 -->
<g id="node19" class="node">
<title>node_18</title>
<polygon fill="none" stroke="black" points="2169,-436 2100,-436 2100,-400 2169,-400 2169,-436"/>
<text text-anchor="middle" x="2134.5" y="-414.9" font-family="Fira Mono Medium" font-size="12.00">node_18</text>
</g>
<!-- node_11&#45;&gt;node_18 -->
<g id="edge23" class="edge">
<title>node_11&#45;&gt;node_18</title>
<path fill="none" stroke="black" d="M2033.31,-415.01C2050.37,-415.52 2071.27,-416.14 2089.56,-416.69"/>
<polygon fill="black" stroke="black" points="2089.6,-420.19 2099.7,-416.99 2089.81,-413.19 2089.6,-420.19"/>
<text text-anchor="middle" x="2066.5" y="-419" font-family="Fira Mono Medium" font-size="10.00">empty</text>
</g>
<!-- node_12&#45;&gt;node_7 -->
<g id="edge24" class="edge">
<title>node_12&#45;&gt;node_7</title>
<path fill="none" stroke="black" d="M1120.08,-119.7C1139.87,-123.55 1165.22,-129.33 1187,-137 1191.01,-138.41 1195.11,-140.05 1199.17,-141.8"/>
<polygon fill="black" stroke="black" points="1197.94,-145.08 1208.49,-146.02 1200.83,-138.7 1197.94,-145.08"/>
<text text-anchor="middle" x="1162.5" y="-140" font-family="Fira Mono Medium" font-size="10.00">empty</text>
</g>
<!-- node_19 -->
<g id="node20" class="node">
<title>node_19</title>
<polygon fill="none" stroke="black" points="966,-116 897,-116 897,-80 966,-80 966,-116"/>
<text text-anchor="middle" x="931.5" y="-94.9" font-family="Fira Mono Medium" font-size="12.00">node_19</text>
</g>
<!-- node_12&#45;&gt;node_19 -->
<g id="edge25" class="edge">
<title>node_12&#45;&gt;node_19</title>
<path fill="none" stroke="black" d="M1050.81,-116.51C1031.21,-117.35 1006.08,-117.35 984,-114 981.36,-113.6 978.66,-113.09 975.96,-112.5"/>
<polygon fill="black" stroke="black" points="976.79,-109.1 966.23,-110.06 975.08,-115.89 976.79,-109.1"/>
<text text-anchor="middle" x="1008.5" y="-119" font-family="Fira Mono Medium" font-size="10.00">transfer</text>
</g>
<!-- node_13&#45;&gt;node_8 -->
<g id="edge26" class="edge">
<title>node_13&#45;&gt;node_8</title>
<path fill="none" stroke="black" d="M1050.9,-517.34C1031.32,-517.71 1006.2,-517.46 984,-515 980.28,-514.59 976.44,-514.03 972.6,-513.38"/>
<polygon fill="black" stroke="black" points="973.04,-509.9 962.56,-511.48 971.74,-516.77 973.04,-509.9"/>
<text text-anchor="middle" x="1008.5" y="-520" font-family="Fira Mono Medium" font-size="10.00">empty</text>
</g>
<!-- node_20 -->
<g id="node21" class="node">
<title>node_20</title>
<polygon fill="none" stroke="black" points="1274,-511 1205,-511 1205,-475 1274,-475 1274,-511"/>
<text text-anchor="middle" x="1239.5" y="-489.9" font-family="Fira Mono Medium" font-size="12.00">node_20</text>
</g>
<!-- node_13&#45;&gt;node_20 -->
<g id="edge27" class="edge">
<title>node_13&#45;&gt;node_20</title>
<path fill="none" stroke="black" d="M1120.23,-510.9C1142.18,-507.58 1171.01,-503.21 1194.71,-499.63"/>
<polygon fill="black" stroke="black" points="1195.5,-503.05 1204.86,-498.09 1194.45,-496.13 1195.5,-503.05"/>
<text text-anchor="middle" x="1162.5" y="-510" font-family="Fira Mono Medium" font-size="10.00">transfer</text>
</g>
<!-- node_14&#45;&gt;node_6 -->
<g id="edge28" class="edge">
<title>node_14&#45;&gt;node_6</title>
<path fill="none" stroke="black" d="M1756.11,-431.08C1773.36,-428.04 1794.5,-424.31 1812.63,-421.11"/>
<polygon fill="black" stroke="black" points="1813.39,-424.54 1822.63,-419.35 1812.17,-417.64 1813.39,-424.54"/>
<text text-anchor="middle" x="1789.5" y="-430" font-family="Fira Mono Medium" font-size="10.00">empty</text>
</g>
<!-- node_14&#45;&gt;node_8 -->
<g id="edge30" class="edge">
<title>node_14&#45;&gt;node_8</title>
<path fill="none" stroke="black" d="M1686.92,-429.27C1646.42,-420.38 1576.16,-406.32 1515,-401 1484.45,-398.34 1476.66,-400.36 1446,-401 1338.82,-403.22 1298.01,-357.69 1205,-411 1192.16,-418.36 1199,-430.35 1187,-439 1152.84,-463.63 1035.47,-486.56 972.76,-497.42"/>
<polygon fill="black" stroke="black" points="972.09,-493.98 962.82,-499.12 973.27,-500.88 972.09,-493.98"/>
<text text-anchor="middle" x="1316.5" y="-392" font-family="Fira Mono Medium" font-size="10.00">transfer</text>
</g>
<!-- node_21 -->
<g id="node22" class="node">
<title>node_21</title>
<polygon fill="none" stroke="black" points="1602,-489 1533,-489 1533,-453 1602,-453 1602,-489"/>
<text text-anchor="middle" x="1567.5" y="-467.9" font-family="Fira Mono Medium" font-size="12.00">node_21</text>
</g>
<!-- node_14&#45;&gt;node_21 -->
<g id="edge29" class="edge">
<title>node_14&#45;&gt;node_21</title>
<path fill="none" stroke="black" d="M1686.76,-432.74C1666.92,-431.36 1641.57,-431.57 1620,-438 1612.86,-440.13 1605.77,-443.57 1599.24,-447.44"/>
<polygon fill="black" stroke="black" points="1597.25,-444.56 1590.72,-452.9 1601.03,-450.45 1597.25,-444.56"/>
<text text-anchor="middle" x="1644.5" y="-441" font-family="Fira Mono Medium" font-size="10.00">transfer</text>
</g>
<!-- node_15&#45;&gt;node_9 -->
<g id="edge32" class="edge">
<title>node_15&#45;&gt;node_9</title>
<path fill="none" stroke="black" d="M1050.65,-429.2C1006.21,-440.44 925.62,-458 855.5,-458 468.5,-458 468.5,-458 468.5,-458 425.44,-458 381.07,-434.3 352.18,-415.09"/>
<polygon fill="black" stroke="black" points="353.96,-412.07 343.73,-409.31 350.01,-417.85 353.96,-412.07"/>
<text text-anchor="middle" x="700.5" y="-461" font-family="Fira Mono Medium" font-size="10.00">transfer</text>
</g>
<!-- node_22 -->
<g id="node23" class="node">
<title>node_22</title>
<polygon fill="none" stroke="black" points="1274,-456 1205,-456 1205,-420 1274,-420 1274,-456"/>
<text text-anchor="middle" x="1239.5" y="-434.9" font-family="Fira Mono Medium" font-size="12.00">node_22</text>
</g>
<!-- node_15&#45;&gt;node_22 -->
<g id="edge31" class="edge">
<title>node_15&#45;&gt;node_22</title>
<path fill="none" stroke="black" d="M1120.23,-423.99C1142.18,-426.59 1171.01,-430.01 1194.71,-432.81"/>
<polygon fill="black" stroke="black" points="1194.52,-436.32 1204.86,-434.02 1195.34,-429.36 1194.52,-436.32"/>
<text text-anchor="middle" x="1162.5" y="-434" font-family="Fira Mono Medium" font-size="10.00">empty</text>
</g>
<!-- node_23 -->
<g id="node24" class="node">
<title>node_23</title>
<polygon fill="none" stroke="black" points="966,-378 897,-378 897,-342 966,-342 966,-378"/>
<text text-anchor="middle" x="931.5" y="-356.9" font-family="Fira Mono Medium" font-size="12.00">node_23</text>
</g>
<!-- node_15&#45;&gt;node_23 -->
<g id="edge33" class="edge">
<title>node_15&#45;&gt;node_23</title>
<path fill="none" stroke="black" d="M1050.96,-403.02C1045.03,-400.22 1038.87,-397.44 1033,-395 1014.57,-387.35 993.81,-379.92 975.95,-373.9"/>
<polygon fill="black" stroke="black" points="976.96,-370.54 966.37,-370.7 974.75,-377.18 976.96,-370.54"/>
<text text-anchor="middle" x="1008.5" y="-398" font-family="Fira Mono Medium" font-size="10.00">transfer</text>
</g>
<!-- node_16&#45;&gt;node_9 -->
<g id="edge35" class="edge">
<title>node_16&#45;&gt;node_9</title>
<path fill="none" stroke="black" d="M434.64,-351.36C414.75,-349.33 389.4,-349.03 368,-356 360.72,-358.37 353.62,-362.31 347.22,-366.71"/>
<polygon fill="black" stroke="black" points="344.87,-364.1 338.96,-372.89 349.06,-369.7 344.87,-364.1"/>
<text text-anchor="middle" x="392.5" y="-359" font-family="Fira Mono Medium" font-size="10.00">transfer</text>
</g>
<!-- node_24 -->
<g id="node25" class="node">
<title>node_24</title>
<polygon fill="none" stroke="black" points="658,-323 589,-323 589,-287 658,-287 658,-323"/>
<text text-anchor="middle" x="623.5" y="-301.9" font-family="Fira Mono Medium" font-size="12.00">node_24</text>
</g>
<!-- node_16&#45;&gt;node_24 -->
<g id="edge34" class="edge">
<title>node_16&#45;&gt;node_24</title>
<path fill="none" stroke="black" d="M504.18,-343.57C510.1,-341.31 516.21,-339.04 522,-337 540.65,-330.42 561.45,-323.69 579.27,-318.12"/>
<polygon fill="black" stroke="black" points="580.32,-321.46 588.83,-315.15 578.24,-314.77 580.32,-321.46"/>
<text text-anchor="middle" x="546.5" y="-340" font-family="Fira Mono Medium" font-size="10.00">empty</text>
</g>
<!-- node_25 -->
<g id="node26" class="node">
<title>node_25</title>
<polygon fill="none" stroke="black" points="658,-377 589,-377 589,-341 658,-341 658,-377"/>
<text text-anchor="middle" x="623.5" y="-355.9" font-family="Fira Mono Medium" font-size="12.00">node_25</text>
</g>
<!-- node_16&#45;&gt;node_25 -->
<g id="edge36" class="edge">
<title>node_16&#45;&gt;node_25</title>
<path fill="none" stroke="black" d="M504.19,-363.75C510.1,-364.68 516.21,-365.5 522,-366 543.7,-367.88 549.27,-367.47 571,-366 573.52,-365.83 576.11,-365.61 578.71,-365.36"/>
<polygon fill="black" stroke="black" points="579.22,-368.83 588.77,-364.25 578.45,-361.87 579.22,-368.83"/>
<text text-anchor="middle" x="546.5" y="-370" font-family="Fira Mono Medium" font-size="10.00">transfer</text>
</g>
<!-- node_17&#45;&gt;node_10 -->
<g id="edge38" class="edge">
<title>node_17&#45;&gt;node_10</title>
<path fill="none" stroke="black" d="M588.86,-119.41C566.84,-124.91 537.85,-132.16 514.07,-138.11"/>
<polygon fill="black" stroke="black" points="513.09,-134.75 504.23,-140.57 514.78,-141.54 513.09,-134.75"/>
<text text-anchor="middle" x="546.5" y="-138" font-family="Fira Mono Medium" font-size="10.00">transfer</text>
</g>
<!-- node_26 -->
<g id="node27" class="node">
<title>node_26</title>
<polygon fill="none" stroke="black" points="812,-134 743,-134 743,-98 812,-98 812,-134"/>
<text text-anchor="middle" x="777.5" y="-112.9" font-family="Fira Mono Medium" font-size="12.00">node_26</text>
</g>
<!-- node_17&#45;&gt;node_26 -->
<g id="edge37" class="edge">
<title>node_17&#45;&gt;node_26</title>
<path fill="none" stroke="black" d="M658.23,-112.11C680.18,-112.83 709.01,-113.78 732.71,-114.56"/>
<polygon fill="black" stroke="black" points="732.75,-118.06 742.86,-114.89 732.98,-111.07 732.75,-118.06"/>
<text text-anchor="middle" x="700.5" y="-117" font-family="Fira Mono Medium" font-size="10.00">empty</text>
</g>
<!-- node_18&#45;&gt;node_11 -->
<g id="edge39" class="edge">
<title>node_18&#45;&gt;node_11</title>
<path fill="none" stroke="black" d="M2099.85,-404.44C2093.99,-402.6 2087.88,-401 2082,-400 2069.34,-397.85 2055.59,-398.86 2043.01,-401.09"/>
<polygon fill="black" stroke="black" points="2042.3,-397.66 2033.22,-403.11 2043.72,-404.52 2042.3,-397.66"/>
<text text-anchor="middle" x="2066.5" y="-403" font-family="Fira Mono Medium" font-size="10.00">empty</text>
</g>
<!-- node_27 -->
<g id="node28" class="node">
<title>node_27</title>
<polygon fill="none" stroke="black" points="2323,-436 2254,-436 2254,-400 2323,-400 2323,-436"/>
<text text-anchor="middle" x="2288.5" y="-414.9" font-family="Fira Mono Medium" font-size="12.00">node_27</text>
</g>
<!-- node_18&#45;&gt;node_27 -->
<g id="edge40" class="edge">
<title>node_18&#45;&gt;node_27</title>
<path fill="none" stroke="black" d="M2169.23,-418C2191.18,-418 2220.01,-418 2243.71,-418"/>
<polygon fill="black" stroke="black" points="2243.86,-421.5 2253.86,-418 2243.86,-414.5 2243.86,-421.5"/>
<text text-anchor="middle" x="2211.5" y="-421" font-family="Fira Mono Medium" font-size="10.00">transfer</text>
</g>
<!-- node_19&#45;&gt;node_12 -->
<g id="edge42" class="edge">
<title>node_19&#45;&gt;node_12</title>
<path fill="none" stroke="black" d="M966.15,-97.19C985.75,-97.16 1010.87,-97.91 1033,-101 1035.65,-101.37 1038.36,-101.82 1041.08,-102.33"/>
<polygon fill="black" stroke="black" points="1040.4,-105.77 1050.91,-104.41 1041.85,-98.92 1040.4,-105.77"/>
<text text-anchor="middle" x="1008.5" y="-104" font-family="Fira Mono Medium" font-size="10.00">transfer</text>
</g>
<!-- node_19&#45;&gt;node_26 -->
<g id="edge43" class="edge">
<title>node_19&#45;&gt;node_26</title>
<path fill="none" stroke="black" d="M896.58,-89.48C876.9,-85.89 851.77,-83.64 830,-89 825.52,-90.1 821,-91.67 816.6,-93.5"/>
<polygon fill="black" stroke="black" points="814.81,-90.48 807.21,-97.86 817.75,-96.83 814.81,-90.48"/>
<text text-anchor="middle" x="854.5" y="-92" font-family="Fira Mono Medium" font-size="10.00">transfer</text>
</g>
<!-- node_28 -->
<g id="node29" class="node">
<title>node_28</title>
<polygon fill="none" stroke="black" points="1120,-74 1051,-74 1051,-38 1120,-38 1120,-74"/>
<text text-anchor="middle" x="1085.5" y="-52.9" font-family="Fira Mono Medium" font-size="12.00">node_28</text>
</g>
<!-- node_19&#45;&gt;node_28 -->
<g id="edge41" class="edge">
<title>node_19&#45;&gt;node_28</title>
<path fill="none" stroke="black" d="M941.49,-79.81C950.08,-64.68 964.6,-44.2 984,-35 1001.75,-26.58 1022.84,-29.31 1041.1,-35.13"/>
<polygon fill="black" stroke="black" points="1040.05,-38.47 1050.64,-38.53 1042.4,-31.88 1040.05,-38.47"/>
<text text-anchor="middle" x="1008.5" y="-38" font-family="Fira Mono Medium" font-size="10.00">empty</text>
</g>
<!-- node_20&#45;&gt;node_13 -->
<g id="edge45" class="edge">
<title>node_20&#45;&gt;node_13</title>
<path fill="none" stroke="black" d="M1204.92,-485.2C1185.13,-481.94 1159.78,-480.12 1138,-486 1132.11,-487.59 1126.21,-490.04 1120.6,-492.86"/>
<polygon fill="black" stroke="black" points="1118.57,-489.99 1111.51,-497.89 1121.96,-496.11 1118.57,-489.99"/>
<text text-anchor="middle" x="1162.5" y="-489" font-family="Fira Mono Medium" font-size="10.00">transfer</text>
</g>
<!-- node_29 -->
<g id="node30" class="node">
<title>node_29</title>
<polygon fill="none" stroke="black" points="1515,-443 1446,-443 1446,-407 1515,-407 1515,-443"/>
<text text-anchor="middle" x="1480.5" y="-421.9" font-family="Fira Mono Medium" font-size="12.00">node_29</text>
</g>
<!-- node_20&#45;&gt;node_29 -->
<g id="edge44" class="edge">
<title>node_20&#45;&gt;node_29</title>
<path fill="none" stroke="black" d="M1263.42,-474.95C1267.08,-471.76 1270.73,-468.38 1274,-465 1283.03,-455.67 1280.6,-448.21 1292,-442 1336.4,-417.82 1395.6,-416.66 1435.5,-419.52"/>
<polygon fill="black" stroke="black" points="1435.46,-423.03 1445.71,-420.37 1436.04,-416.05 1435.46,-423.03"/>
<text text-anchor="middle" x="1316.5" y="-445" font-family="Fira Mono Medium" font-size="10.00">empty</text>
</g>
<!-- node_30 -->
<g id="node31" class="node">
<title>node_30</title>
<polygon fill="none" stroke="black" points="1428,-511 1359,-511 1359,-475 1428,-475 1428,-511"/>
<text text-anchor="middle" x="1393.5" y="-489.9" font-family="Fira Mono Medium" font-size="12.00">node_30</text>
</g>
<!-- node_20&#45;&gt;node_30 -->
<g id="edge46" class="edge">
<title>node_20&#45;&gt;node_30</title>
<path fill="none" stroke="black" d="M1274.23,-493C1296.18,-493 1325.01,-493 1348.71,-493"/>
<polygon fill="black" stroke="black" points="1348.86,-496.5 1358.86,-493 1348.86,-489.5 1348.86,-496.5"/>
<text text-anchor="middle" x="1316.5" y="-496" font-family="Fira Mono Medium" font-size="10.00">transfer</text>
</g>
<!-- node_21&#45;&gt;node_14 -->
<g id="edge48" class="edge">
<title>node_21&#45;&gt;node_14</title>
<path fill="none" stroke="black" d="M1602.02,-463.78C1621.57,-459.54 1646.7,-454.04 1669,-449 1671.64,-448.4 1674.35,-447.79 1677.08,-447.16"/>
<polygon fill="black" stroke="black" points="1678.04,-450.53 1686.99,-444.88 1676.46,-443.71 1678.04,-450.53"/>
<text text-anchor="middle" x="1644.5" y="-462" font-family="Fira Mono Medium" font-size="10.00">transfer</text>
</g>
<!-- node_21&#45;&gt;node_30 -->
<g id="edge47" class="edge">
<title>node_21&#45;&gt;node_30</title>
<path fill="none" stroke="black" d="M1532.86,-466.85C1508.48,-464.78 1474.85,-463.85 1446,-470 1443.22,-470.59 1440.4,-471.35 1437.6,-472.22"/>
<polygon fill="black" stroke="black" points="1436.42,-468.92 1428.17,-475.57 1438.77,-475.52 1436.42,-468.92"/>
<text text-anchor="middle" x="1480.5" y="-473" font-family="Fira Mono Medium" font-size="10.00">empty</text>
</g>
<!-- node_22&#45;&gt;node_30 -->
<g id="edge49" class="edge">
<title>node_22&#45;&gt;node_30</title>
<path fill="none" stroke="black" d="M1274.23,-450.21C1296.37,-458.22 1325.53,-468.77 1349.35,-477.39"/>
<polygon fill="black" stroke="black" points="1348.27,-480.72 1358.86,-480.83 1350.65,-474.13 1348.27,-480.72"/>
<text text-anchor="middle" x="1316.5" y="-476" font-family="Fira Mono Medium" font-size="10.00">nom&#45;nom</text>
</g>
<!-- node_23&#45;&gt;node_2 -->
<g id="edge50" class="edge">
<title>node_23&#45;&gt;node_2</title>
<path fill="none" stroke="black" d="M954.7,-341.85C963.32,-335.9 973.61,-330.04 984,-327 1003.36,-321.33 1025.73,-321.19 1044.44,-322.74"/>
<polygon fill="black" stroke="black" points="1044.11,-326.22 1054.41,-323.75 1044.82,-319.26 1044.11,-326.22"/>
<text text-anchor="middle" x="1008.5" y="-330" font-family="Fira Mono Medium" font-size="10.00">empty</text>
</g>
<!-- node_23&#45;&gt;node_15 -->
<g id="edge52" class="edge">
<title>node_23&#45;&gt;node_15</title>
<path fill="none" stroke="black" d="M966.14,-354.11C986.41,-352.12 1012.24,-352.42 1033,-362 1047.46,-368.67 1059.56,-381.56 1068.38,-393.5"/>
<polygon fill="black" stroke="black" points="1065.64,-395.69 1074.22,-401.92 1071.4,-391.71 1065.64,-395.69"/>
<text text-anchor="middle" x="1008.5" y="-365" font-family="Fira Mono Medium" font-size="10.00">transfer</text>
</g>
<!-- node_31 -->
<g id="node32" class="node">
<title>node_31</title>
<polygon fill="none" stroke="black" points="812,-357 743,-357 743,-321 812,-321 812,-357"/>
<text text-anchor="middle" x="777.5" y="-335.9" font-family="Fira Mono Medium" font-size="12.00">node_31</text>
</g>
<!-- node_23&#45;&gt;node_31 -->
<g id="edge51" class="edge">
<title>node_23&#45;&gt;node_31</title>
<path fill="none" stroke="black" d="M896.9,-370.63C877.1,-375.27 851.75,-378.37 830,-372 822.85,-369.91 815.76,-366.48 809.22,-362.62"/>
<polygon fill="black" stroke="black" points="811.01,-359.61 800.7,-357.15 807.23,-365.5 811.01,-359.61"/>
<text text-anchor="middle" x="854.5" y="-378" font-family="Fira Mono Medium" font-size="10.00">transfer</text>
</g>
<!-- node_24&#45;&gt;node_26 -->
<g id="edge53" class="edge">
<title>node_24&#45;&gt;node_26</title>
<path fill="none" stroke="black" d="M639.07,-286.88C666.08,-253.29 724.01,-181.26 755.34,-142.31"/>
<polygon fill="black" stroke="black" points="758.43,-144.05 761.97,-134.07 752.98,-139.67 758.43,-144.05"/>
<text text-anchor="middle" x="700.5" y="-241" font-family="Fira Mono Medium" font-size="10.00">nom&#45;nom</text>
</g>
<!-- node_25&#45;&gt;node_3 -->
<g id="edge54" class="edge">
<title>node_25&#45;&gt;node_3</title>
<path fill="none" stroke="black" d="M658.25,-361.12C679.58,-364.08 706.52,-370.99 725,-387 751.51,-409.96 764.91,-449.16 771.29,-475.8"/>
<polygon fill="black" stroke="black" points="767.9,-476.66 773.47,-485.67 774.73,-475.15 767.9,-476.66"/>
<text text-anchor="middle" x="700.5" y="-390" font-family="Fira Mono Medium" font-size="10.00">empty</text>
</g>
<!-- node_25&#45;&gt;node_16 -->
<g id="edge55" class="edge">
<title>node_25&#45;&gt;node_16</title>
<path fill="none" stroke="black" d="M588.75,-354.5C582.85,-353.88 576.75,-353.33 571,-353 549.26,-351.74 543.76,-352.16 522,-353 519.49,-353.1 516.91,-353.22 514.32,-353.36"/>
<polygon fill="black" stroke="black" points="514.03,-349.88 504.28,-354 514.48,-356.86 514.03,-349.88"/>
<text text-anchor="middle" x="546.5" y="-356" font-family="Fira Mono Medium" font-size="10.00">transfer</text>
</g>
<!-- node_25&#45;&gt;node_31 -->
<g id="edge56" class="edge">
<title>node_25&#45;&gt;node_31</title>
<path fill="none" stroke="black" d="M647.22,-340.82C660.18,-330.55 674.21,-319.61 676,-319 694.32,-312.72 715.23,-315.4 733.21,-320.55"/>
<polygon fill="black" stroke="black" points="732.28,-323.92 742.87,-323.62 734.4,-317.25 732.28,-323.92"/>
<text text-anchor="middle" x="700.5" y="-322" font-family="Fira Mono Medium" font-size="10.00">transfer</text>
</g>
<!-- node_26&#45;&gt;node_17 -->
<g id="edge57" class="edge">
<title>node_26&#45;&gt;node_17</title>
<path fill="none" stroke="black" d="M742.9,-101.69C737.03,-99.74 730.91,-98.06 725,-97 703.56,-93.17 697.59,-94.12 676,-97 673.34,-97.36 670.62,-97.81 667.88,-98.34"/>
<polygon fill="black" stroke="black" points="667.04,-94.94 658.03,-100.51 668.55,-101.77 667.04,-94.94"/>
<text text-anchor="middle" x="700.5" y="-100" font-family="Fira Mono Medium" font-size="10.00">empty</text>
</g>
<!-- node_26&#45;&gt;node_19 -->
<g id="edge58" class="edge">
<title>node_26&#45;&gt;node_19</title>
<path fill="none" stroke="black" d="M812.23,-112.01C834.18,-109.41 863.01,-105.99 886.71,-103.19"/>
<polygon fill="black" stroke="black" points="887.34,-106.64 896.86,-101.98 886.52,-99.68 887.34,-106.64"/>
<text text-anchor="middle" x="854.5" y="-112" font-family="Fira Mono Medium" font-size="10.00">transfer</text>
</g>
<!-- node_27&#45;&gt;node_18 -->
<g id="edge60" class="edge">
<title>node_27&#45;&gt;node_18</title>
<path fill="none" stroke="black" d="M2253.73,-406.69C2247.88,-405.16 2241.81,-403.83 2236,-403 2214.44,-399.92 2208.56,-399.92 2187,-403 2184.46,-403.36 2181.87,-403.82 2179.27,-404.35"/>
<polygon fill="black" stroke="black" points="2178.21,-401 2169.27,-406.69 2179.81,-407.82 2178.21,-401"/>
<text text-anchor="middle" x="2211.5" y="-406" font-family="Fira Mono Medium" font-size="10.00">transfer</text>
</g>
<!-- node_32 -->
<g id="node33" class="node">
<title>node_32</title>
<polygon fill="none" stroke="black" points="2459,-413 2390,-413 2390,-377 2459,-377 2459,-413"/>
<text text-anchor="middle" x="2424.5" y="-391.9" font-family="Fira Mono Medium" font-size="12.00">node_32</text>
</g>
<!-- node_27&#45;&gt;node_32 -->
<g id="edge59" class="edge">
<title>node_27&#45;&gt;node_32</title>
<path fill="none" stroke="black" d="M2323.33,-414.24C2338.3,-412.38 2356.08,-409.91 2372,-407 2374.62,-406.52 2377.31,-406 2380.01,-405.44"/>
<polygon fill="black" stroke="black" points="2380.76,-408.86 2389.8,-403.34 2379.29,-402.02 2380.76,-408.86"/>
<text text-anchor="middle" x="2356.5" y="-414" font-family="Fira Mono Medium" font-size="10.00">empty</text>
</g>
<!-- node_28&#45;&gt;node_19 -->
<g id="edge61" class="edge">
<title>node_28&#45;&gt;node_19</title>
<path fill="none" stroke="black" d="M1050.89,-64.27C1031.31,-69.19 1006.19,-75.69 984,-82 981.39,-82.74 978.71,-83.52 976.01,-84.32"/>
<polygon fill="black" stroke="black" points="974.79,-81.03 966.23,-87.27 976.81,-87.73 974.79,-81.03"/>
<text text-anchor="middle" x="1008.5" y="-85" font-family="Fira Mono Medium" font-size="10.00">empty</text>
</g>
<!-- node_29&#45;&gt;node_32 -->
<g id="edge62" class="edge">
<title>node_29&#45;&gt;node_32</title>
<path fill="none" stroke="black" d="M1515.2,-410.23C1560.81,-391.61 1645.19,-362 1720.5,-362 1720.5,-362 1720.5,-362 2289.5,-362 2320.52,-362 2354.43,-370.44 2380.38,-378.78"/>
<polygon fill="black" stroke="black" points="2379.32,-382.12 2389.91,-381.96 2381.53,-375.48 2379.32,-382.12"/>
<text text-anchor="middle" x="1924.5" y="-365" font-family="Fira Mono Medium" font-size="10.00">nom&#45;nom</text>
</g>
<!-- node_30&#45;&gt;node_20 -->
<g id="edge64" class="edge">
<title>node_30&#45;&gt;node_20</title>
<path fill="none" stroke="black" d="M1358.9,-501.99C1352.97,-503.24 1346.84,-504.33 1341,-505 1319.36,-507.49 1313.64,-507.49 1292,-505 1289.36,-504.7 1286.65,-504.31 1283.93,-503.86"/>
<polygon fill="black" stroke="black" points="1284.58,-500.42 1274.1,-501.99 1283.28,-507.29 1284.58,-500.42"/>
<text text-anchor="middle" x="1316.5" y="-509" font-family="Fira Mono Medium" font-size="10.00">transfer</text>
</g>
<!-- node_30&#45;&gt;node_21 -->
<g id="edge63" class="edge">
<title>node_30&#45;&gt;node_21</title>
<path fill="none" stroke="black" d="M1428.11,-490.49C1452.33,-488.48 1485.77,-485.28 1515,-481 1517.52,-480.63 1520.11,-480.22 1522.72,-479.79"/>
<polygon fill="black" stroke="black" points="1523.54,-483.2 1532.78,-478.01 1522.32,-476.3 1523.54,-483.2"/>
<text text-anchor="middle" x="1480.5" y="-491" font-family="Fira Mono Medium" font-size="10.00">empty</text>
</g>
<!-- node_31&#45;&gt;node_23 -->
<g id="edge66" class="edge">
<title>node_31&#45;&gt;node_23</title>
<path fill="none" stroke="black" d="M812.23,-343.66C834.18,-346.69 863.01,-350.68 886.71,-353.95"/>
<polygon fill="black" stroke="black" points="886.48,-357.45 896.86,-355.35 887.43,-350.52 886.48,-357.45"/>
<text text-anchor="middle" x="854.5" y="-355" font-family="Fira Mono Medium" font-size="10.00">transfer</text>
</g>
<!-- node_31&#45;&gt;node_25 -->
<g id="edge67" class="edge">
<title>node_31&#45;&gt;node_25</title>
<path fill="none" stroke="black" d="M742.86,-343.43C720.94,-346.31 692.11,-350.1 668.39,-353.23"/>
<polygon fill="black" stroke="black" points="667.69,-349.79 658.23,-354.56 668.6,-356.73 667.69,-349.79"/>
<text text-anchor="middle" x="700.5" y="-354" font-family="Fira Mono Medium" font-size="10.00">transfer</text>
</g>
<!-- node_33 -->
<g id="node34" class="node">
<title>node_33</title>
<polygon fill="none" stroke="black" points="966,-323 897,-323 897,-287 966,-287 966,-323"/>
<text text-anchor="middle" x="931.5" y="-301.9" font-family="Fira Mono Medium" font-size="12.00">node_33</text>
</g>
<!-- node_31&#45;&gt;node_33 -->
<g id="edge65" class="edge">
<title>node_31&#45;&gt;node_33</title>
<path fill="none" stroke="black" d="M793.06,-320.58C802.39,-310.33 815.44,-298.56 830,-293 848.01,-286.13 869.03,-287.35 887.19,-290.99"/>
<polygon fill="black" stroke="black" points="886.41,-294.4 896.94,-293.22 887.97,-287.58 886.41,-294.4"/>
<text text-anchor="middle" x="854.5" y="-296" font-family="Fira Mono Medium" font-size="10.00">empty</text>
</g>
<!-- node_32&#45;&gt;node_27 -->
<g id="edge68" class="edge">
<title>node_32&#45;&gt;node_27</title>
<path fill="none" stroke="black" d="M2389.82,-391.13C2374.73,-390.28 2356.8,-390.5 2341,-394 2338.16,-394.63 2335.28,-395.43 2332.42,-396.36"/>
<polygon fill="black" stroke="black" points="2330.98,-393.17 2322.83,-399.94 2333.43,-399.73 2330.98,-393.17"/>
<text text-anchor="middle" x="2356.5" y="-397" font-family="Fira Mono Medium" font-size="10.00">empty</text>
</g>
<!-- node_33&#45;&gt;node_31 -->
<g id="edge69" class="edge">
<title>node_33&#45;&gt;node_31</title>
<path fill="none" stroke="black" d="M896.86,-312.52C874.84,-317.45 845.85,-323.94 822.07,-329.25"/>
<polygon fill="black" stroke="black" points="821.23,-325.86 812.23,-331.45 822.76,-332.69 821.23,-325.86"/>
<text text-anchor="middle" x="854.5" y="-330" font-family="Fira Mono Medium" font-size="10.00">empty</text>
</g>
<!-- node_34 -->
<g id="node35" class="node">
<title>node_34</title>
<polygon fill="none" stroke="black" points="1120,-264 1051,-264 1051,-228 1120,-228 1120,-264"/>
<text text-anchor="middle" x="1085.5" y="-242.9" font-family="Fira Mono Medium" font-size="12.00">node_34</text>
</g>
<!-- node_33&#45;&gt;node_34 -->
<g id="edge70" class="edge">
<title>node_33&#45;&gt;node_34</title>
<path fill="none" stroke="black" d="M966.23,-291.91C988.37,-283.31 1017.53,-272 1041.35,-262.75"/>
<polygon fill="black" stroke="black" points="1042.8,-265.94 1050.86,-259.06 1040.27,-259.41 1042.8,-265.94"/>
<text text-anchor="middle" x="1008.5" y="-287" font-family="Fira Mono Medium" font-size="10.00">transfer</text>
</g>
<!-- node_34&#45;&gt;node_34 -->
<g id="edge71" class="edge">
<title>node_34&#45;&gt;node_34</title>
<path fill="none" stroke="black" d="M1071.75,-264.15C1069.64,-273.54 1074.22,-282 1085.5,-282 1092.37,-282 1096.76,-278.86 1098.66,-274.28"/>
<polygon fill="black" stroke="black" points="1102.16,-274.34 1099.25,-264.15 1095.18,-273.93 1102.16,-274.34"/>
<text text-anchor="middle" x="1085.5" y="-285" font-family="Fira Mono Medium" font-size="10.00">final</text>
</g>
</g>
</svg>
