<?xml version="1.0" encoding="UTF-8" standalone="no"?>
<!DOCTYPE svg PUBLIC "-//W3C//DTD SVG 1.1//EN"
 "http://www.w3.org/Graphics/SVG/1.1/DTD/svg11.dtd">
<!-- Generated by graphviz version 2.43.0 (0)
 -->
<!-- Title: %3 Pages: 1 -->
<svg width="2777pt" height="431pt"
 viewBox="0.00 0.00 2777.00 431.00" xmlns="http://www.w3.org/2000/svg" xmlns:xlink="http://www.w3.org/1999/xlink">
<g id="graph0" class="graph" transform="scale(1 1) rotate(0) translate(4 427)">
<title>%3</title>
<polygon fill="white" stroke="transparent" points="-4,4 -4,-427 2773,-427 2773,4 -4,4"/>
<!-- node_0 -->
<g id="node1" class="node">
<title>node_0</title>
<polygon fill="#00ff00" stroke="#00ff00" points="62,-295 0,-295 0,-259 62,-259 62,-295"/>
<text text-anchor="middle" x="31" y="-273.9" font-family="Fira Mono Medium" font-size="12.00">node_0</text>
</g>
<!-- node_1 -->
<g id="node2" class="node">
<title>node_1</title>
<polygon fill="none" stroke="black" points="816.5,-110 754.5,-110 754.5,-74 816.5,-74 816.5,-110"/>
<text text-anchor="middle" x="785.5" y="-88.9" font-family="Fira Mono Medium" font-size="12.00">node_1</text>
</g>
<!-- node_0&#45;&gt;node_1 -->
<g id="edge2" class="edge">
<title>node_0&#45;&gt;node_1</title>
<path fill="none" stroke="black" d="M36.94,-258.98C50.71,-213.2 94.06,-96 177,-96 177,-96 177,-96 612.5,-96 657.57,-96 709.26,-94.61 744.12,-93.47"/>
<polygon fill="black" stroke="black" points="744.49,-96.96 754.37,-93.12 744.25,-89.96 744.49,-96.96"/>
<text text-anchor="middle" x="380.5" y="-99" font-family="Fira Mono Medium" font-size="10.00">empty</text>
</g>
<!-- node_2 -->
<g id="node3" class="node">
<title>node_2</title>
<polygon fill="none" stroke="black" points="1124.5,-381 1062.5,-381 1062.5,-345 1124.5,-345 1124.5,-381"/>
<text text-anchor="middle" x="1093.5" y="-359.9" font-family="Fira Mono Medium" font-size="12.00">node_2</text>
</g>
<!-- node_0&#45;&gt;node_2 -->
<g id="edge3" class="edge">
<title>node_0&#45;&gt;node_2</title>
<path fill="none" stroke="black" d="M42.13,-295.15C62.71,-329.36 112.96,-400 177,-400 177,-400 177,-400 863.5,-400 930.52,-400 1007.17,-384.36 1052.62,-373.42"/>
<polygon fill="black" stroke="black" points="1053.5,-376.81 1062.38,-371.03 1051.83,-370.01 1053.5,-376.81"/>
<text text-anchor="middle" x="534.5" y="-403" font-family="Fira Mono Medium" font-size="10.00">transfer</text>
</g>
<!-- node_3 -->
<g id="node4" class="node">
<title>node_3</title>
<polygon fill="none" stroke="black" points="816.5,-334 754.5,-334 754.5,-298 816.5,-298 816.5,-334"/>
<text text-anchor="middle" x="785.5" y="-312.9" font-family="Fira Mono Medium" font-size="12.00">node_3</text>
</g>
<!-- node_0&#45;&gt;node_3 -->
<g id="edge4" class="edge">
<title>node_0&#45;&gt;node_3</title>
<path fill="none" stroke="black" d="M62.2,-290.09C91.1,-301.42 136.2,-316 177,-316 177,-316 177,-316 612.5,-316 657.56,-316 709.25,-316 744.11,-316"/>
<polygon fill="black" stroke="black" points="744.36,-319.5 754.36,-316 744.36,-312.5 744.36,-319.5"/>
<text text-anchor="middle" x="380.5" y="-319" font-family="Fira Mono Medium" font-size="10.00">transfer</text>
</g>
<!-- node_4 -->
<g id="node5" class="node">
<title>node_4</title>
<polygon fill="#0000ff" stroke="#0000ff" points="209,-261 147,-261 147,-225 209,-225 209,-261"/>
<text text-anchor="middle" x="178" y="-239.9" font-family="Fira Mono Medium" font-size="12.00">node_4</text>
</g>
<!-- node_0&#45;&gt;node_4 -->
<g id="edge1" class="edge">
<title>node_0&#45;&gt;node_4</title>
<path fill="none" stroke="#ff0000" d="M52.53,-258.92C60.55,-252.98 70.17,-247.11 80,-244 97.99,-238.31 118.8,-237.41 136.53,-238.19"/>
<polygon fill="#ff0000" stroke="#ff0000" points="136.37,-241.69 146.57,-238.83 136.81,-234.71 136.37,-241.69"/>
<text text-anchor="middle" x="104.5" y="-247" font-family="Fira Mono Medium" font-size="10.00">transfer</text>
</g>
<!-- node_5 -->
<g id="node6" class="node">
<title>node_5</title>
<polygon fill="none" stroke="black" points="2195,-325 2133,-325 2133,-289 2195,-289 2195,-325"/>
<text text-anchor="middle" x="2164" y="-303.9" font-family="Fira Mono Medium" font-size="12.00">node_5</text>
</g>
<!-- node_1&#45;&gt;node_5 -->
<g id="edge5" class="edge">
<title>node_1&#45;&gt;node_5</title>
<path fill="none" stroke="black" d="M816.81,-92.98C911.48,-96.45 1200.13,-110.35 1282,-153 1292.61,-158.52 1289.35,-167.57 1300,-173 1413.07,-230.66 1458.19,-186.19 1584,-203 1799.1,-231.74 1853.81,-235.52 2066,-281 2084.81,-285.03 2105.43,-290.42 2122.8,-295.24"/>
<polygon fill="black" stroke="black" points="2122.04,-298.67 2132.61,-298 2123.93,-291.93 2122.04,-298.67"/>
<text text-anchor="middle" x="1472.5" y="-206" font-family="Fira Mono Medium" font-size="10.00">nom&#45;nom</text>
</g>
<!-- node_6 -->
<g id="node7" class="node">
<title>node_6</title>
<polygon fill="none" stroke="black" points="970.5,-72 908.5,-72 908.5,-36 970.5,-36 970.5,-72"/>
<text text-anchor="middle" x="939.5" y="-50.9" font-family="Fira Mono Medium" font-size="12.00">node_6</text>
</g>
<!-- node_1&#45;&gt;node_6 -->
<g id="edge6" class="edge">
<title>node_1&#45;&gt;node_6</title>
<path fill="none" stroke="black" d="M816.56,-81.45C823.55,-79.17 831,-76.88 838,-75 857.75,-69.69 879.99,-64.93 898.52,-61.28"/>
<polygon fill="black" stroke="black" points="899.23,-64.7 908.39,-59.37 897.91,-57.83 899.23,-64.7"/>
<text text-anchor="middle" x="862.5" y="-78" font-family="Fira Mono Medium" font-size="10.00">nom&#45;nom</text>
</g>
<!-- node_7 -->
<g id="node8" class="node">
<title>node_7</title>
<polygon fill="none" stroke="black" points="1278.5,-366 1216.5,-366 1216.5,-330 1278.5,-330 1278.5,-366"/>
<text text-anchor="middle" x="1247.5" y="-344.9" font-family="Fira Mono Medium" font-size="12.00">node_7</text>
</g>
<!-- node_2&#45;&gt;node_7 -->
<g id="edge7" class="edge">
<title>node_2&#45;&gt;node_7</title>
<path fill="none" stroke="black" d="M1124.53,-360.04C1147.88,-357.73 1180.49,-354.51 1206.12,-351.98"/>
<polygon fill="black" stroke="black" points="1206.66,-355.45 1216.27,-350.98 1205.98,-348.48 1206.66,-355.45"/>
<text text-anchor="middle" x="1170.5" y="-360" font-family="Fira Mono Medium" font-size="10.00">nom&#45;nom</text>
</g>
<!-- node_8 -->
<g id="node9" class="node">
<title>node_8</title>
<polygon fill="none" stroke="black" points="1908.5,-123 1846.5,-123 1846.5,-87 1908.5,-87 1908.5,-123"/>
<text text-anchor="middle" x="1877.5" y="-101.9" font-family="Fira Mono Medium" font-size="12.00">node_8</text>
</g>
<!-- node_3&#45;&gt;node_8 -->
<g id="edge8" class="edge">
<title>node_3&#45;&gt;node_8</title>
<path fill="none" stroke="black" d="M816.79,-315.95C876.56,-315.52 1013.78,-312.82 1128,-298 1333.3,-271.36 1381.92,-247.94 1584,-203 1691.44,-179.11 1726,-194.1 1825,-146 1833.76,-141.75 1842.39,-135.78 1850.01,-129.72"/>
<polygon fill="black" stroke="black" points="1852.41,-132.27 1857.84,-123.18 1847.92,-126.9 1852.41,-132.27"/>
<text text-anchor="middle" x="1321.5" y="-273" font-family="Fira Mono Medium" font-size="10.00">nom&#45;nom</text>
</g>
<!-- node_4&#45;&gt;node_0 -->
<g id="edge10" class="edge">
<title>node_4&#45;&gt;node_0</title>
<path fill="none" stroke="black" d="M146.81,-250.65C140.91,-252.12 134.77,-253.63 129,-255 110.32,-259.45 89.58,-264.19 72.08,-268.12"/>
<polygon fill="black" stroke="black" points="71.18,-264.73 62.19,-270.33 72.71,-271.56 71.18,-264.73"/>
<text text-anchor="middle" x="104.5" y="-270" font-family="Fira Mono Medium" font-size="10.00">transfer</text>
</g>
<!-- node_9 -->
<g id="node10" class="node">
<title>node_9</title>
<polygon fill="#0000ff" stroke="#0000ff" points="338,-227 276,-227 276,-191 338,-191 338,-227"/>
<text text-anchor="middle" x="307" y="-205.9" font-family="Fira Mono Medium" font-size="12.00">node_9</text>
</g>
<!-- node_4&#45;&gt;node_9 -->
<g id="edge9" class="edge">
<title>node_4&#45;&gt;node_9</title>
<path fill="none" stroke="#ff0000" d="M209.1,-234.94C226.06,-230.4 247.46,-224.67 265.83,-219.75"/>
<polygon fill="#ff0000" stroke="#ff0000" points="266.92,-223.08 275.68,-217.12 265.11,-216.32 266.92,-223.08"/>
<text text-anchor="middle" x="242.5" y="-234" font-family="Fira Mono Medium" font-size="10.00">empty</text>
</g>
<!-- node_10 -->
<g id="node11" class="node">
<title>node_10</title>
<polygon fill="none" stroke="black" points="2343,-325 2274,-325 2274,-289 2343,-289 2343,-325"/>
<text text-anchor="middle" x="2308.5" y="-303.9" font-family="Fira Mono Medium" font-size="12.00">node_10</text>
</g>
<!-- node_5&#45;&gt;node_10 -->
<g id="edge11" class="edge">
<title>node_5&#45;&gt;node_10</title>
<path fill="none" stroke="black" d="M2195.22,-307C2215.11,-307 2241.47,-307 2263.65,-307"/>
<polygon fill="black" stroke="black" points="2263.83,-310.5 2273.83,-307 2263.83,-303.5 2263.83,-310.5"/>
<text text-anchor="middle" x="2234.5" y="-310" font-family="Fira Mono Medium" font-size="10.00">nom&#45;nom</text>
</g>
<!-- node_11 -->
<g id="node12" class="node">
<title>node_11</title>
<polygon fill="none" stroke="black" points="1128,-77 1059,-77 1059,-41 1128,-41 1128,-77"/>
<text text-anchor="middle" x="1093.5" y="-55.9" font-family="Fira Mono Medium" font-size="12.00">node_11</text>
</g>
<!-- node_6&#45;&gt;node_11 -->
<g id="edge12" class="edge">
<title>node_6&#45;&gt;node_11</title>
<path fill="none" stroke="black" d="M970.6,-42.29C977.53,-40.1 984.93,-38.14 992,-37 1013.5,-33.54 1019.66,-32.63 1041,-37 1043.68,-37.55 1046.38,-38.24 1049.09,-39.04"/>
<polygon fill="black" stroke="black" points="1048.18,-42.43 1058.77,-42.33 1050.43,-35.8 1048.18,-42.43"/>
<text text-anchor="middle" x="1016.5" y="-40" font-family="Fira Mono Medium" font-size="10.00">empty</text>
</g>
<!-- node_12 -->
<g id="node13" class="node">
<title>node_12</title>
<polygon fill="none" stroke="black" points="1430,-346 1361,-346 1361,-310 1430,-310 1430,-346"/>
<text text-anchor="middle" x="1395.5" y="-324.9" font-family="Fira Mono Medium" font-size="12.00">node_12</text>
</g>
<!-- node_7&#45;&gt;node_12 -->
<g id="edge13" class="edge">
<title>node_7&#45;&gt;node_12</title>
<path fill="none" stroke="black" d="M1270.7,-329.85C1279.32,-323.9 1289.61,-318.04 1300,-315 1316.32,-310.22 1334.75,-311.37 1350.98,-314.45"/>
<polygon fill="black" stroke="black" points="1350.24,-317.87 1360.75,-316.59 1351.73,-311.04 1350.24,-317.87"/>
<text text-anchor="middle" x="1321.5" y="-318" font-family="Fira Mono Medium" font-size="10.00">empty</text>
</g>
<!-- node_13 -->
<g id="node14" class="node">
<title>node_13</title>
<polygon fill="none" stroke="black" points="2066,-326 1997,-326 1997,-290 2066,-290 2066,-326"/>
<text text-anchor="middle" x="2031.5" y="-304.9" font-family="Fira Mono Medium" font-size="12.00">node_13</text>
</g>
<!-- node_7&#45;&gt;node_13 -->
<g id="edge14" class="edge">
<title>node_7&#45;&gt;node_13</title>
<path fill="none" stroke="black" d="M1278.55,-354.08C1381.41,-374.48 1718.85,-437.88 1825,-414 1890.72,-399.21 1958.58,-358.26 1997.54,-331.81"/>
<polygon fill="black" stroke="black" points="1999.62,-334.63 2005.87,-326.07 1995.65,-328.86 1999.62,-334.63"/>
<text text-anchor="middle" x="1626.5" y="-415" font-family="Fira Mono Medium" font-size="10.00">transfer</text>
</g>
<!-- node_8&#45;&gt;node_11 -->
<g id="edge16" class="edge">
<title>node_8&#45;&gt;node_11</title>
<path fill="none" stroke="black" d="M1848.88,-86.87C1815.93,-67.03 1758.5,-38 1704.5,-38 1246.5,-38 1246.5,-38 1246.5,-38 1209.8,-38 1168.59,-44.08 1138.34,-49.7"/>
<polygon fill="black" stroke="black" points="1137.29,-46.34 1128.12,-51.66 1138.6,-53.21 1137.29,-46.34"/>
<text text-anchor="middle" x="1472.5" y="-41" font-family="Fira Mono Medium" font-size="10.00">transfer</text>
</g>
<!-- node_14 -->
<g id="node15" class="node">
<title>node_14</title>
<polygon fill="none" stroke="black" points="1738,-157 1669,-157 1669,-121 1738,-121 1738,-157"/>
<text text-anchor="middle" x="1703.5" y="-135.9" font-family="Fira Mono Medium" font-size="12.00">node_14</text>
</g>
<!-- node_8&#45;&gt;node_14 -->
<g id="edge15" class="edge">
<title>node_8&#45;&gt;node_14</title>
<path fill="none" stroke="black" d="M1846.33,-112.29C1839.34,-113.9 1831.92,-115.56 1825,-117 1799.63,-122.27 1771.11,-127.51 1748.19,-131.55"/>
<polygon fill="black" stroke="black" points="1747.33,-128.14 1738.09,-133.32 1748.54,-135.04 1747.33,-128.14"/>
<text text-anchor="middle" x="1790.5" y="-134" font-family="Fira Mono Medium" font-size="10.00">empty</text>
</g>
<!-- node_9&#45;&gt;node_4 -->
<g id="edge18" class="edge">
<title>node_9&#45;&gt;node_4</title>
<path fill="none" stroke="black" d="M275.67,-204.1C260.68,-202.8 242.52,-202.94 227,-208 219.72,-210.37 212.62,-214.31 206.22,-218.71"/>
<polygon fill="black" stroke="black" points="203.87,-216.1 197.96,-224.89 208.06,-221.7 203.87,-216.1"/>
<text text-anchor="middle" x="242.5" y="-211" font-family="Fira Mono Medium" font-size="10.00">empty</text>
</g>
<!-- node_15 -->
<g id="node16" class="node">
<title>node_15</title>
<polygon fill="#0000ff" stroke="#0000ff" points="1128,-198 1059,-198 1059,-162 1128,-162 1128,-198"/>
<text text-anchor="middle" x="1093.5" y="-176.9" font-family="Fira Mono Medium" font-size="12.00">node_15</text>
</g>
<!-- node_9&#45;&gt;node_15 -->
<g id="edge17" class="edge">
<title>node_9&#45;&gt;node_15</title>
<path fill="none" stroke="#ff0000" d="M322.2,-190.91C330.93,-180.97 342.93,-169.22 356,-162 396.2,-139.8 410.58,-138 456.5,-138 456.5,-138 456.5,-138 940.5,-138 978.13,-138 1019.18,-150.11 1049.12,-161.32"/>
<polygon fill="#ff0000" stroke="#ff0000" points="1048.24,-164.74 1058.83,-165.07 1050.76,-158.21 1048.24,-164.74"/>
<text text-anchor="middle" x="698.5" y="-141" font-family="Fira Mono Medium" font-size="10.00">transfer</text>
</g>
<!-- node_16 -->
<g id="node17" class="node">
<title>node_16</title>
<polygon fill="none" stroke="black" points="492,-261 423,-261 423,-225 492,-225 492,-261"/>
<text text-anchor="middle" x="457.5" y="-239.9" font-family="Fira Mono Medium" font-size="12.00">node_16</text>
</g>
<!-- node_9&#45;&gt;node_16 -->
<g id="edge19" class="edge">
<title>node_9&#45;&gt;node_16</title>
<path fill="none" stroke="black" d="M338.18,-216.69C344.08,-218.15 350.23,-219.65 356,-221 374.61,-225.36 395.22,-229.92 412.9,-233.75"/>
<polygon fill="black" stroke="black" points="412.43,-237.23 422.94,-235.91 413.91,-230.39 412.43,-237.23"/>
<text text-anchor="middle" x="380.5" y="-235" font-family="Fira Mono Medium" font-size="10.00">transfer</text>
</g>
<!-- node_17 -->
<g id="node18" class="node">
<title>node_17</title>
<polygon fill="none" stroke="black" points="2479,-343 2410,-343 2410,-307 2479,-307 2479,-343"/>
<text text-anchor="middle" x="2444.5" y="-321.9" font-family="Fira Mono Medium" font-size="12.00">node_17</text>
</g>
<!-- node_10&#45;&gt;node_17 -->
<g id="edge20" class="edge">
<title>node_10&#45;&gt;node_17</title>
<path fill="none" stroke="black" d="M2343.05,-303.75C2358.12,-303.02 2376.07,-303.15 2392,-306 2394.68,-306.48 2397.4,-307.09 2400.12,-307.79"/>
<polygon fill="black" stroke="black" points="2399.32,-311.2 2409.9,-310.69 2401.31,-304.49 2399.32,-311.2"/>
<text text-anchor="middle" x="2376.5" y="-309" font-family="Fira Mono Medium" font-size="10.00">empty</text>
</g>
<!-- node_11&#45;&gt;node_6 -->
<g id="edge21" class="edge">
<title>node_11&#45;&gt;node_6</title>
<path fill="none" stroke="black" d="M1058.83,-57.89C1035.71,-57.13 1004.92,-56.12 980.54,-55.32"/>
<polygon fill="black" stroke="black" points="980.64,-51.82 970.53,-54.99 980.41,-58.81 980.64,-51.82"/>
<text text-anchor="middle" x="1016.5" y="-61" font-family="Fira Mono Medium" font-size="10.00">empty</text>
</g>
<!-- node_11&#45;&gt;node_8 -->
<g id="edge23" class="edge">
<title>node_11&#45;&gt;node_8</title>
<path fill="none" stroke="black" d="M1122.38,-40.98C1151.95,-23.63 1200.64,0 1246.5,0 1246.5,0 1246.5,0 1704.5,0 1761.36,0 1778.4,-10.42 1825,-43 1838.47,-52.42 1850.43,-66.25 1859.42,-78.46"/>
<polygon fill="black" stroke="black" points="1856.8,-80.82 1865.42,-86.98 1862.52,-76.79 1856.8,-80.82"/>
<text text-anchor="middle" x="1472.5" y="-3" font-family="Fira Mono Medium" font-size="10.00">transfer</text>
</g>
<!-- node_18 -->
<g id="node19" class="node">
<title>node_18</title>
<polygon fill="none" stroke="black" points="1282,-106 1213,-106 1213,-70 1282,-70 1282,-106"/>
<text text-anchor="middle" x="1247.5" y="-84.9" font-family="Fira Mono Medium" font-size="12.00">node_18</text>
</g>
<!-- node_11&#45;&gt;node_18 -->
<g id="edge22" class="edge">
<title>node_11&#45;&gt;node_18</title>
<path fill="none" stroke="black" d="M1128.17,-76.92C1133.98,-79.36 1140.06,-81.53 1146,-83 1164.29,-87.53 1185,-89.13 1202.85,-89.47"/>
<polygon fill="black" stroke="black" points="1202.97,-92.97 1212.99,-89.53 1203.01,-85.97 1202.97,-92.97"/>
<text text-anchor="middle" x="1170.5" y="-93" font-family="Fira Mono Medium" font-size="10.00">transfer</text>
</g>
<!-- node_12&#45;&gt;node_7 -->
<g id="edge24" class="edge">
<title>node_12&#45;&gt;node_7</title>
<path fill="none" stroke="black" d="M1360.97,-332.59C1339.48,-335.54 1311.46,-339.38 1288.76,-342.48"/>
<polygon fill="black" stroke="black" points="1288.18,-339.03 1278.75,-343.86 1289.13,-345.97 1288.18,-339.03"/>
<text text-anchor="middle" x="1321.5" y="-343" font-family="Fira Mono Medium" font-size="10.00">empty</text>
</g>
<!-- node_19 -->
<g id="node20" class="node">
<title>node_19</title>
<polygon fill="none" stroke="black" points="1584,-346 1515,-346 1515,-310 1584,-310 1584,-346"/>
<text text-anchor="middle" x="1549.5" y="-324.9" font-family="Fira Mono Medium" font-size="12.00">node_19</text>
</g>
<!-- node_12&#45;&gt;node_19 -->
<g id="edge25" class="edge">
<title>node_12&#45;&gt;node_19</title>
<path fill="none" stroke="black" d="M1430.27,-316.69C1436.12,-315.16 1442.19,-313.83 1448,-313 1469.56,-309.92 1475.44,-309.92 1497,-313 1499.54,-313.36 1502.13,-313.82 1504.73,-314.35"/>
<polygon fill="black" stroke="black" points="1504.19,-317.82 1514.73,-316.69 1505.79,-311 1504.19,-317.82"/>
<text text-anchor="middle" x="1472.5" y="-316" font-family="Fira Mono Medium" font-size="10.00">transfer</text>
</g>
<!-- node_13&#45;&gt;node_5 -->
<g id="edge26" class="edge">
<title>node_13&#45;&gt;node_5</title>
<path fill="none" stroke="black" d="M2066.11,-307.74C2083.28,-307.61 2104.31,-307.45 2122.38,-307.31"/>
<polygon fill="black" stroke="black" points="2122.66,-310.81 2132.63,-307.23 2122.6,-303.81 2122.66,-310.81"/>
<text text-anchor="middle" x="2099.5" y="-310" font-family="Fira Mono Medium" font-size="10.00">empty</text>
</g>
<!-- node_13&#45;&gt;node_7 -->
<g id="edge28" class="edge">
<title>node_13&#45;&gt;node_7</title>
<path fill="none" stroke="black" d="M1996.85,-296.37C1966.34,-286.86 1919.95,-275 1878.5,-275 1394.5,-275 1394.5,-275 1394.5,-275 1350.16,-275 1338.93,-285.76 1300,-307 1291.6,-311.58 1283.19,-317.55 1275.67,-323.51"/>
<polygon fill="black" stroke="black" points="1273.39,-320.85 1267.9,-329.91 1277.85,-326.25 1273.39,-320.85"/>
<text text-anchor="middle" x="1626.5" y="-278" font-family="Fira Mono Medium" font-size="10.00">transfer</text>
</g>
<!-- node_20 -->
<g id="node21" class="node">
<title>node_20</title>
<polygon fill="none" stroke="black" points="1912,-349 1843,-349 1843,-313 1912,-313 1912,-349"/>
<text text-anchor="middle" x="1877.5" y="-327.9" font-family="Fira Mono Medium" font-size="12.00">node_20</text>
</g>
<!-- node_13&#45;&gt;node_20 -->
<g id="edge27" class="edge">
<title>node_13&#45;&gt;node_20</title>
<path fill="none" stroke="black" d="M1996.82,-316.46C1990.91,-317.77 1984.79,-319.01 1979,-320 1960.49,-323.16 1939.89,-325.6 1922.19,-327.37"/>
<polygon fill="black" stroke="black" points="1921.76,-323.89 1912.14,-328.33 1922.43,-330.86 1921.76,-323.89"/>
<text text-anchor="middle" x="1954.5" y="-329" font-family="Fira Mono Medium" font-size="10.00">transfer</text>
</g>
<!-- node_14&#45;&gt;node_8 -->
<g id="edge29" class="edge">
<title>node_14&#45;&gt;node_8</title>
<path fill="none" stroke="black" d="M1725.05,-120.87C1733.93,-114.2 1744.84,-107.43 1756,-104 1781.78,-96.07 1812.15,-96.38 1835.96,-98.64"/>
<polygon fill="black" stroke="black" points="1835.73,-102.14 1846.06,-99.76 1836.5,-95.18 1835.73,-102.14"/>
<text text-anchor="middle" x="1790.5" y="-107" font-family="Fira Mono Medium" font-size="10.00">empty</text>
</g>
<!-- node_21 -->
<g id="node22" class="node">
<title>node_21</title>
<polygon fill="none" stroke="black" points="1584,-135 1515,-135 1515,-99 1584,-99 1584,-135"/>
<text text-anchor="middle" x="1549.5" y="-113.9" font-family="Fira Mono Medium" font-size="12.00">node_21</text>
</g>
<!-- node_14&#45;&gt;node_21 -->
<g id="edge30" class="edge">
<title>node_14&#45;&gt;node_21</title>
<path fill="none" stroke="black" d="M1668.86,-134.13C1646.94,-130.96 1618.11,-126.79 1594.39,-123.35"/>
<polygon fill="black" stroke="black" points="1594.63,-119.85 1584.23,-121.88 1593.63,-126.78 1594.63,-119.85"/>
<text text-anchor="middle" x="1626.5" y="-135" font-family="Fira Mono Medium" font-size="10.00">transfer</text>
</g>
<!-- node_15&#45;&gt;node_9 -->
<g id="edge33" class="edge">
<title>node_15&#45;&gt;node_9</title>
<path fill="none" stroke="black" d="M1059,-178.61C1028.2,-177.46 981.28,-176 940.5,-176 456.5,-176 456.5,-176 456.5,-176 419.01,-176 377.44,-186.15 347.84,-195.19"/>
<polygon fill="black" stroke="black" points="346.77,-191.85 338.28,-198.19 348.87,-198.53 346.77,-191.85"/>
<text text-anchor="middle" x="698.5" y="-179" font-family="Fira Mono Medium" font-size="10.00">transfer</text>
</g>
<!-- node_22 -->
<g id="node23" class="node">
<title>node_22</title>
<polygon fill="none" stroke="black" points="1282,-198 1213,-198 1213,-162 1282,-162 1282,-198"/>
<text text-anchor="middle" x="1247.5" y="-176.9" font-family="Fira Mono Medium" font-size="12.00">node_22</text>
</g>
<!-- node_15&#45;&gt;node_22 -->
<g id="edge32" class="edge">
<title>node_15&#45;&gt;node_22</title>
<path fill="none" stroke="black" d="M1128.23,-180C1150.18,-180 1179.01,-180 1202.71,-180"/>
<polygon fill="black" stroke="black" points="1202.86,-183.5 1212.86,-180 1202.86,-176.5 1202.86,-183.5"/>
<text text-anchor="middle" x="1170.5" y="-183" font-family="Fira Mono Medium" font-size="10.00">empty</text>
</g>
<!-- node_23 -->
<g id="node24" class="node">
<title>node_23</title>
<polygon fill="#0000ff" stroke="#0000ff" points="974,-241 905,-241 905,-205 974,-205 974,-241"/>
<text text-anchor="middle" x="939.5" y="-219.9" font-family="Fira Mono Medium" font-size="12.00">node_23</text>
</g>
<!-- node_15&#45;&gt;node_23 -->
<g id="edge31" class="edge">
<title>node_15&#45;&gt;node_23</title>
<path fill="none" stroke="#ff0000" d="M1075.72,-198.05C1066.43,-206.74 1054.12,-216.27 1041,-221 1023.08,-227.46 1002.16,-228.78 984.07,-228.16"/>
<polygon fill="#ff0000" stroke="#ff0000" points="984.24,-224.66 974.06,-227.62 983.86,-231.65 984.24,-224.66"/>
<text text-anchor="middle" x="1016.5" y="-232" font-family="Fira Mono Medium" font-size="10.00">transfer</text>
</g>
<!-- node_16&#45;&gt;node_9 -->
<g id="edge36" class="edge">
<title>node_16&#45;&gt;node_9</title>
<path fill="none" stroke="black" d="M435.95,-224.87C427.07,-218.2 416.16,-211.43 405,-208 386.97,-202.45 366.15,-201.95 348.43,-203.14"/>
<polygon fill="black" stroke="black" points="348.06,-199.66 338.4,-204.01 348.66,-206.64 348.06,-199.66"/>
<text text-anchor="middle" x="380.5" y="-211" font-family="Fira Mono Medium" font-size="10.00">transfer</text>
</g>
<!-- node_24 -->
<g id="node25" class="node">
<title>node_24</title>
<polygon fill="none" stroke="black" points="733,-373 664,-373 664,-337 733,-337 733,-373"/>
<text text-anchor="middle" x="698.5" y="-351.9" font-family="Fira Mono Medium" font-size="12.00">node_24</text>
</g>
<!-- node_16&#45;&gt;node_24 -->
<g id="edge34" class="edge">
<title>node_16&#45;&gt;node_24</title>
<path fill="none" stroke="black" d="M492.24,-258.81C534.85,-278.78 608.22,-313.16 654.73,-334.95"/>
<polygon fill="black" stroke="black" points="653.4,-338.2 663.94,-339.27 656.37,-331.86 653.4,-338.2"/>
<text text-anchor="middle" x="534.5" y="-293" font-family="Fira Mono Medium" font-size="10.00">empty</text>
</g>
<!-- node_25 -->
<g id="node26" class="node">
<title>node_25</title>
<polygon fill="none" stroke="black" points="646,-250 577,-250 577,-214 646,-214 646,-250"/>
<text text-anchor="middle" x="611.5" y="-228.9" font-family="Fira Mono Medium" font-size="12.00">node_25</text>
</g>
<!-- node_16&#45;&gt;node_25 -->
<g id="edge35" class="edge">
<title>node_16&#45;&gt;node_25</title>
<path fill="none" stroke="black" d="M492.23,-240.56C514.18,-238.97 543.01,-236.88 566.71,-235.17"/>
<polygon fill="black" stroke="black" points="567.14,-238.65 576.86,-234.43 566.63,-231.67 567.14,-238.65"/>
<text text-anchor="middle" x="534.5" y="-243" font-family="Fira Mono Medium" font-size="10.00">transfer</text>
</g>
<!-- node_17&#45;&gt;node_10 -->
<g id="edge37" class="edge">
<title>node_17&#45;&gt;node_10</title>
<path fill="none" stroke="black" d="M2409.7,-322.45C2394.73,-321.14 2376.95,-319.32 2361,-317 2358.48,-316.63 2355.89,-316.23 2353.28,-315.8"/>
<polygon fill="black" stroke="black" points="2353.67,-312.31 2343.22,-314.02 2352.46,-319.2 2353.67,-312.31"/>
<text text-anchor="middle" x="2376.5" y="-323" font-family="Fira Mono Medium" font-size="10.00">empty</text>
</g>
<!-- node_26 -->
<g id="node27" class="node">
<title>node_26</title>
<polygon fill="none" stroke="black" points="2633,-363 2564,-363 2564,-327 2633,-327 2633,-363"/>
<text text-anchor="middle" x="2598.5" y="-341.9" font-family="Fira Mono Medium" font-size="12.00">node_26</text>
</g>
<!-- node_17&#45;&gt;node_26 -->
<g id="edge38" class="edge">
<title>node_17&#45;&gt;node_26</title>
<path fill="none" stroke="black" d="M2479.27,-322.47C2498.91,-321.71 2524.03,-321.96 2546,-326 2548.68,-326.49 2551.4,-327.11 2554.12,-327.82"/>
<polygon fill="black" stroke="black" points="2553.31,-331.23 2563.89,-330.74 2555.31,-324.52 2553.31,-331.23"/>
<text text-anchor="middle" x="2521.5" y="-329" font-family="Fira Mono Medium" font-size="10.00">transfer</text>
</g>
<!-- node_18&#45;&gt;node_11 -->
<g id="edge40" class="edge">
<title>node_18&#45;&gt;node_11</title>
<path fill="none" stroke="black" d="M1212.75,-74.98C1206.89,-73.08 1200.82,-71.32 1195,-70 1176.68,-65.85 1156.12,-63.25 1138.39,-61.63"/>
<polygon fill="black" stroke="black" points="1138.57,-58.13 1128.32,-60.78 1137.99,-65.11 1138.57,-58.13"/>
<text text-anchor="middle" x="1170.5" y="-73" font-family="Fira Mono Medium" font-size="10.00">transfer</text>
</g>
<!-- node_27 -->
<g id="node28" class="node">
<title>node_27</title>
<polygon fill="none" stroke="black" points="1430,-140 1361,-140 1361,-104 1430,-104 1430,-140"/>
<text text-anchor="middle" x="1395.5" y="-118.9" font-family="Fira Mono Medium" font-size="12.00">node_27</text>
</g>
<!-- node_18&#45;&gt;node_27 -->
<g id="edge39" class="edge">
<title>node_18&#45;&gt;node_27</title>
<path fill="none" stroke="black" d="M1282.42,-83.88C1300.73,-82.76 1323.51,-83.18 1343,-89 1350.14,-91.13 1357.23,-94.57 1363.76,-98.44"/>
<polygon fill="black" stroke="black" points="1361.97,-101.45 1372.28,-103.91 1365.75,-95.56 1361.97,-101.45"/>
<text text-anchor="middle" x="1321.5" y="-92" font-family="Fira Mono Medium" font-size="10.00">empty</text>
</g>
<!-- node_19&#45;&gt;node_12 -->
<g id="edge42" class="edge">
<title>node_19&#45;&gt;node_12</title>
<path fill="none" stroke="black" d="M1514.86,-328C1492.94,-328 1464.11,-328 1440.39,-328"/>
<polygon fill="black" stroke="black" points="1440.23,-324.5 1430.23,-328 1440.23,-331.5 1440.23,-324.5"/>
<text text-anchor="middle" x="1472.5" y="-331" font-family="Fira Mono Medium" font-size="10.00">transfer</text>
</g>
<!-- node_28 -->
<g id="node29" class="node">
<title>node_28</title>
<polygon fill="none" stroke="black" points="1825,-405 1756,-405 1756,-369 1825,-369 1825,-405"/>
<text text-anchor="middle" x="1790.5" y="-383.9" font-family="Fira Mono Medium" font-size="12.00">node_28</text>
</g>
<!-- node_19&#45;&gt;node_28 -->
<g id="edge41" class="edge">
<title>node_19&#45;&gt;node_28</title>
<path fill="none" stroke="black" d="M1584.19,-338.87C1590.1,-340.66 1596.21,-342.44 1602,-344 1650.78,-357.15 1707.38,-369.77 1745.53,-377.9"/>
<polygon fill="black" stroke="black" points="1745.27,-381.42 1755.78,-380.07 1746.72,-374.58 1745.27,-381.42"/>
<text text-anchor="middle" x="1626.5" y="-359" font-family="Fira Mono Medium" font-size="10.00">empty</text>
</g>
<!-- node_29 -->
<g id="node30" class="node">
<title>node_29</title>
<polygon fill="none" stroke="black" points="1738,-349 1669,-349 1669,-313 1738,-313 1738,-349"/>
<text text-anchor="middle" x="1703.5" y="-327.9" font-family="Fira Mono Medium" font-size="12.00">node_29</text>
</g>
<!-- node_19&#45;&gt;node_29 -->
<g id="edge43" class="edge">
<title>node_19&#45;&gt;node_29</title>
<path fill="none" stroke="black" d="M1584.15,-314.44C1590.01,-312.6 1596.12,-311 1602,-310 1623.47,-306.36 1629.63,-305.81 1651,-310 1653.66,-310.52 1656.36,-311.18 1659.05,-311.94"/>
<polygon fill="black" stroke="black" points="1658.13,-315.32 1668.72,-315.08 1660.29,-308.67 1658.13,-315.32"/>
<text text-anchor="middle" x="1626.5" y="-313" font-family="Fira Mono Medium" font-size="10.00">transfer</text>
</g>
<!-- node_20&#45;&gt;node_13 -->
<g id="edge45" class="edge">
<title>node_20&#45;&gt;node_13</title>
<path fill="none" stroke="black" d="M1911.83,-312.94C1917.73,-310.48 1923.93,-308.34 1930,-307 1948.23,-302.96 1968.78,-302.47 1986.52,-303.27"/>
<polygon fill="black" stroke="black" points="1986.41,-306.77 1996.6,-303.88 1986.83,-299.79 1986.41,-306.77"/>
<text text-anchor="middle" x="1954.5" y="-310" font-family="Fira Mono Medium" font-size="10.00">transfer</text>
</g>
<!-- node_20&#45;&gt;node_29 -->
<g id="edge44" class="edge">
<title>node_20&#45;&gt;node_29</title>
<path fill="none" stroke="black" d="M1842.87,-322.76C1836.95,-321.61 1830.82,-320.61 1825,-320 1794.5,-316.78 1786.5,-316.78 1756,-320 1753.45,-320.27 1750.85,-320.61 1748.23,-321.01"/>
<polygon fill="black" stroke="black" points="1747.39,-317.6 1738.13,-322.76 1748.58,-324.5 1747.39,-317.6"/>
<text text-anchor="middle" x="1790.5" y="-323" font-family="Fira Mono Medium" font-size="10.00">empty</text>
</g>
<!-- node_21&#45;&gt;node_14 -->
<g id="edge48" class="edge">
<title>node_21&#45;&gt;node_14</title>
<path fill="none" stroke="black" d="M1575.51,-135.11C1583.57,-139.95 1592.81,-144.52 1602,-147 1620.31,-151.94 1641.12,-151.27 1659.04,-148.85"/>
<polygon fill="black" stroke="black" points="1659.59,-152.3 1668.93,-147.3 1658.51,-145.39 1659.59,-152.3"/>
<text text-anchor="middle" x="1626.5" y="-154" font-family="Fira Mono Medium" font-size="10.00">transfer</text>
</g>
<!-- node_21&#45;&gt;node_27 -->
<g id="edge47" class="edge">
<title>node_21&#45;&gt;node_27</title>
<path fill="none" stroke="black" d="M1515,-119.93C1509.01,-120.36 1502.82,-120.75 1497,-121 1478.35,-121.82 1457.73,-122.12 1440.05,-122.21"/>
<polygon fill="black" stroke="black" points="1440.01,-118.71 1430.02,-122.23 1440.02,-125.71 1440.01,-118.71"/>
<text text-anchor="middle" x="1472.5" y="-126" font-family="Fira Mono Medium" font-size="10.00">transfer</text>
</g>
<!-- node_30 -->
<g id="node31" class="node">
<title>node_30</title>
<polygon fill="none" stroke="black" points="1738,-102 1669,-102 1669,-66 1738,-66 1738,-102"/>
<text text-anchor="middle" x="1703.5" y="-80.9" font-family="Fira Mono Medium" font-size="12.00">node_30</text>
</g>
<!-- node_21&#45;&gt;node_30 -->
<g id="edge46" class="edge">
<title>node_21&#45;&gt;node_30</title>
<path fill="none" stroke="black" d="M1584.23,-109.68C1606.27,-104.89 1635.27,-98.6 1659.03,-93.44"/>
<polygon fill="black" stroke="black" points="1659.83,-96.85 1668.86,-91.3 1658.35,-90 1659.83,-96.85"/>
<text text-anchor="middle" x="1626.5" y="-109" font-family="Fira Mono Medium" font-size="10.00">empty</text>
</g>
<!-- node_22&#45;&gt;node_27 -->
<g id="edge49" class="edge">
<title>node_22&#45;&gt;node_27</title>
<path fill="none" stroke="black" d="M1282.36,-166.55C1302.91,-158.39 1329.33,-147.89 1351.36,-139.14"/>
<polygon fill="black" stroke="black" points="1352.82,-142.32 1360.82,-135.38 1350.24,-135.82 1352.82,-142.32"/>
<text text-anchor="middle" x="1321.5" y="-161" font-family="Fira Mono Medium" font-size="10.00">nom&#45;nom</text>
</g>
<!-- node_23&#45;&gt;node_2 -->
<g id="edge51" class="edge">
<title>node_23&#45;&gt;node_2</title>
<path fill="none" stroke="black" d="M965.25,-241.19C968.36,-243.97 971.37,-246.94 974,-250 984.38,-262.09 981.66,-268.88 992,-281 1010.88,-303.13 1036.3,-323.81 1056.85,-338.87"/>
<polygon fill="black" stroke="black" points="1054.88,-341.76 1065.04,-344.76 1058.97,-336.08 1054.88,-341.76"/>
<text text-anchor="middle" x="1016.5" y="-329" font-family="Fira Mono Medium" font-size="10.00">empty</text>
</g>
<!-- node_23&#45;&gt;node_15 -->
<g id="edge52" class="edge">
<title>node_23&#45;&gt;node_15</title>
<path fill="none" stroke="black" d="M974,-213.18C979.99,-211.44 986.18,-209.66 992,-208 1010.64,-202.69 1031.25,-196.93 1048.94,-192.02"/>
<polygon fill="black" stroke="black" points="1050.27,-195.28 1058.97,-189.24 1048.4,-188.53 1050.27,-195.28"/>
<text text-anchor="middle" x="1016.5" y="-211" font-family="Fira Mono Medium" font-size="10.00">transfer</text>
</g>
<!-- node_31 -->
<g id="node32" class="node">
<title>node_31</title>
<polygon fill="#0000ff" stroke="#0000ff" points="820,-263 751,-263 751,-227 820,-227 820,-263"/>
<text text-anchor="middle" x="785.5" y="-241.9" font-family="Fira Mono Medium" font-size="12.00">node_31</text>
</g>
<!-- node_23&#45;&gt;node_31 -->
<g id="edge50" class="edge">
<title>node_23&#45;&gt;node_31</title>
<path fill="none" stroke="#ff0000" d="M904.86,-227.87C882.94,-231.04 854.11,-235.21 830.39,-238.65"/>
<polygon fill="#ff0000" stroke="#ff0000" points="829.63,-235.22 820.23,-240.12 830.63,-242.15 829.63,-235.22"/>
<text text-anchor="middle" x="862.5" y="-241" font-family="Fira Mono Medium" font-size="10.00">transfer</text>
</g>
<!-- node_24&#45;&gt;node_29 -->
<g id="edge53" class="edge">
<title>node_24&#45;&gt;node_29</title>
<path fill="none" stroke="black" d="M733.17,-363.23C800.81,-379.01 958.23,-412 1092.5,-412 1092.5,-412 1092.5,-412 1473.5,-412 1554.47,-412 1577.87,-405.76 1651,-371 1659.38,-367.02 1667.67,-361.49 1675.07,-355.81"/>
<polygon fill="black" stroke="black" points="1677.72,-358.16 1683.3,-349.15 1673.32,-352.72 1677.72,-358.16"/>
<text text-anchor="middle" x="1170.5" y="-415" font-family="Fira Mono Medium" font-size="10.00">nom&#45;nom</text>
</g>
<!-- node_25&#45;&gt;node_3 -->
<g id="edge54" class="edge">
<title>node_25&#45;&gt;node_3</title>
<path fill="none" stroke="black" d="M646.07,-248.4C674.48,-262.27 715.22,-282.17 745.16,-296.79"/>
<polygon fill="black" stroke="black" points="743.94,-300.09 754.46,-301.33 747.01,-293.8 743.94,-300.09"/>
<text text-anchor="middle" x="698.5" y="-292" font-family="Fira Mono Medium" font-size="10.00">empty</text>
</g>
<!-- node_25&#45;&gt;node_16 -->
<g id="edge56" class="edge">
<title>node_25&#45;&gt;node_16</title>
<path fill="none" stroke="black" d="M576.76,-223.12C557.14,-219.25 532.01,-216.5 510,-221 507.32,-221.55 504.62,-222.24 501.91,-223.04"/>
<polygon fill="black" stroke="black" points="500.57,-219.8 492.23,-226.33 502.82,-226.43 500.57,-219.8"/>
<text text-anchor="middle" x="534.5" y="-224" font-family="Fira Mono Medium" font-size="10.00">transfer</text>
</g>
<!-- node_25&#45;&gt;node_31 -->
<g id="edge55" class="edge">
<title>node_25&#45;&gt;node_31</title>
<path fill="none" stroke="black" d="M646.19,-219.19C652.05,-217.45 658.14,-215.94 664,-215 694.28,-210.13 703.39,-207.01 733,-215 738.89,-216.59 744.79,-219.04 750.4,-221.86"/>
<polygon fill="black" stroke="black" points="749.04,-225.11 759.49,-226.89 752.43,-218.99 749.04,-225.11"/>
<text text-anchor="middle" x="698.5" y="-218" font-family="Fira Mono Medium" font-size="10.00">transfer</text>
</g>
<!-- node_26&#45;&gt;node_17 -->
<g id="edge58" class="edge">
<title>node_26&#45;&gt;node_17</title>
<path fill="none" stroke="black" d="M2563.85,-343.58C2544.26,-342.44 2519.14,-340.44 2497,-337 2494.37,-336.59 2491.67,-336.12 2488.96,-335.61"/>
<polygon fill="black" stroke="black" points="2489.65,-332.18 2479.16,-333.6 2488.25,-339.04 2489.65,-332.18"/>
<text text-anchor="middle" x="2521.5" y="-345" font-family="Fira Mono Medium" font-size="10.00">transfer</text>
</g>
<!-- node_32 -->
<g id="node33" class="node">
<title>node_32</title>
<polygon fill="none" stroke="black" points="2769,-390 2700,-390 2700,-354 2769,-354 2769,-390"/>
<text text-anchor="middle" x="2734.5" y="-368.9" font-family="Fira Mono Medium" font-size="12.00">node_32</text>
</g>
<!-- node_26&#45;&gt;node_32 -->
<g id="edge57" class="edge">
<title>node_26&#45;&gt;node_32</title>
<path fill="none" stroke="black" d="M2633.31,-351.81C2650.45,-355.27 2671.47,-359.5 2689.82,-363.2"/>
<polygon fill="black" stroke="black" points="2689.2,-366.64 2699.7,-365.19 2690.59,-359.78 2689.2,-366.64"/>
<text text-anchor="middle" x="2666.5" y="-363" font-family="Fira Mono Medium" font-size="10.00">empty</text>
</g>
<!-- node_27&#45;&gt;node_18 -->
<g id="edge59" class="edge">
<title>node_27&#45;&gt;node_18</title>
<path fill="none" stroke="black" d="M1360.82,-114.16C1340.4,-109.4 1314.13,-103.28 1292.13,-98.16"/>
<polygon fill="black" stroke="black" points="1292.9,-94.75 1282.36,-95.89 1291.31,-101.56 1292.9,-94.75"/>
<text text-anchor="middle" x="1321.5" y="-113" font-family="Fira Mono Medium" font-size="10.00">empty</text>
</g>
<!-- node_27&#45;&gt;node_21 -->
<g id="edge60" class="edge">
<title>node_27&#45;&gt;node_21</title>
<path fill="none" stroke="black" d="M1430.03,-111.51C1435.96,-110.05 1442.12,-108.78 1448,-108 1466.58,-105.52 1487.18,-106.69 1504.88,-108.88"/>
<polygon fill="black" stroke="black" points="1504.53,-112.37 1514.92,-110.27 1505.49,-105.43 1504.53,-112.37"/>
<text text-anchor="middle" x="1472.5" y="-111" font-family="Fira Mono Medium" font-size="10.00">transfer</text>
</g>
<!-- node_28&#45;&gt;node_32 -->
<g id="edge61" class="edge">
<title>node_28&#45;&gt;node_32</title>
<path fill="none" stroke="black" d="M1825.27,-390.63C1858.01,-393.84 1909.1,-398 1953.5,-398 1953.5,-398 1953.5,-398 2599.5,-398 2630.15,-398 2664.03,-391.36 2690.06,-384.8"/>
<polygon fill="black" stroke="black" points="2691.19,-388.12 2699.98,-382.2 2689.42,-381.35 2691.19,-388.12"/>
<text text-anchor="middle" x="2234.5" y="-401" font-family="Fira Mono Medium" font-size="10.00">nom&#45;nom</text>
</g>
<!-- node_29&#45;&gt;node_19 -->
<g id="edge63" class="edge">
<title>node_29&#45;&gt;node_19</title>
<path fill="none" stroke="black" d="M1668.86,-330.34C1646.94,-329.9 1618.11,-329.33 1594.39,-328.87"/>
<polygon fill="black" stroke="black" points="1594.3,-325.36 1584.23,-328.67 1594.16,-332.36 1594.3,-325.36"/>
<text text-anchor="middle" x="1626.5" y="-332" font-family="Fira Mono Medium" font-size="10.00">transfer</text>
</g>
<!-- node_29&#45;&gt;node_20 -->
<g id="edge62" class="edge">
<title>node_29&#45;&gt;node_20</title>
<path fill="none" stroke="black" d="M1738.07,-331C1765.09,-331 1803.29,-331 1832.71,-331"/>
<polygon fill="black" stroke="black" points="1832.72,-334.5 1842.72,-331 1832.72,-327.5 1832.72,-334.5"/>
<text text-anchor="middle" x="1790.5" y="-334" font-family="Fira Mono Medium" font-size="10.00">empty</text>
</g>
<!-- node_30&#45;&gt;node_21 -->
<g id="edge64" class="edge">
<title>node_30&#45;&gt;node_21</title>
<path fill="none" stroke="black" d="M1668.7,-77.52C1648.83,-75.05 1623.48,-74.24 1602,-81 1593.95,-83.53 1586.07,-87.82 1578.98,-92.57"/>
<polygon fill="black" stroke="black" points="1576.52,-90.04 1570.48,-98.74 1580.63,-95.7 1576.52,-90.04"/>
<text text-anchor="middle" x="1626.5" y="-84" font-family="Fira Mono Medium" font-size="10.00">empty</text>
</g>
<!-- node_31&#45;&gt;node_23 -->
<g id="edge67" class="edge">
<title>node_31&#45;&gt;node_23</title>
<path fill="none" stroke="black" d="M812.64,-226.88C820.45,-222.43 829.27,-218.29 838,-216 856.24,-211.22 876.95,-211.7 894.81,-213.87"/>
<polygon fill="black" stroke="black" points="894.56,-217.37 904.95,-215.32 895.55,-210.44 894.56,-217.37"/>
<text text-anchor="middle" x="862.5" y="-219" font-family="Fira Mono Medium" font-size="10.00">transfer</text>
</g>
<!-- node_31&#45;&gt;node_25 -->
<g id="edge66" class="edge">
<title>node_31&#45;&gt;node_25</title>
<path fill="none" stroke="black" d="M750.72,-242.45C723.64,-240.4 685.44,-237.51 656.06,-235.29"/>
<polygon fill="black" stroke="black" points="656.31,-231.8 646.07,-234.54 655.78,-238.78 656.31,-231.8"/>
<text text-anchor="middle" x="698.5" y="-244" font-family="Fira Mono Medium" font-size="10.00">transfer</text>
</g>
<!-- node_33 -->
<g id="node34" class="node">
<title>node_33</title>
<polygon fill="#0000ff" stroke="#0000ff" points="974,-295 905,-295 905,-259 974,-259 974,-295"/>
<text text-anchor="middle" x="939.5" y="-273.9" font-family="Fira Mono Medium" font-size="12.00">node_33</text>
</g>
<!-- node_31&#45;&gt;node_33 -->
<g id="edge65" class="edge">
<title>node_31&#45;&gt;node_33</title>
<path fill="none" stroke="#ff0000" d="M801.66,-263.09C811,-272.79 823.88,-283.79 838,-289 855.86,-295.59 876.6,-294.45 894.59,-290.95"/>
<polygon fill="#ff0000" stroke="#ff0000" points="895.55,-294.32 904.54,-288.72 894.02,-287.49 895.55,-294.32"/>
<text text-anchor="middle" x="862.5" y="-296" font-family="Fira Mono Medium" font-size="10.00">empty</text>
</g>
<!-- node_32&#45;&gt;node_26 -->
<g id="edge68" class="edge">
<title>node_32&#45;&gt;node_26</title>
<path fill="none" stroke="black" d="M2709.61,-353.95C2701.31,-348.71 2691.65,-343.68 2682,-341 2669.8,-337.61 2656.21,-337.04 2643.63,-337.74"/>
<polygon fill="black" stroke="black" points="2643.03,-334.27 2633.35,-338.59 2643.61,-341.25 2643.03,-334.27"/>
<text text-anchor="middle" x="2666.5" y="-344" font-family="Fira Mono Medium" font-size="10.00">empty</text>
</g>
<!-- node_33&#45;&gt;node_31 -->
<g id="edge70" class="edge">
<title>node_33&#45;&gt;node_31</title>
<path fill="none" stroke="black" d="M904.86,-269.92C882.84,-265.28 853.85,-259.18 830.07,-254.17"/>
<polygon fill="black" stroke="black" points="830.74,-250.74 820.23,-252.1 829.3,-257.59 830.74,-250.74"/>
<text text-anchor="middle" x="862.5" y="-269" font-family="Fira Mono Medium" font-size="10.00">empty</text>
</g>
<!-- node_34 -->
<g id="node35" class="node">
<title>node_34</title>
<polygon fill="#00ff00" stroke="#00ff00" points="1128,-260 1059,-260 1059,-224 1128,-224 1128,-260"/>
<text text-anchor="middle" x="1093.5" y="-238.9" font-family="Fira Mono Medium" font-size="12.00">node_34</text>
</g>
<!-- node_33&#45;&gt;node_34 -->
<g id="edge69" class="edge">
<title>node_33&#45;&gt;node_34</title>
<path fill="none" stroke="#ff0000" d="M974.06,-269.93C993.62,-265.74 1018.75,-260.24 1041,-255 1043.6,-254.39 1046.28,-253.75 1048.97,-253.09"/>
<polygon fill="#ff0000" stroke="#ff0000" points="1049.87,-256.47 1058.74,-250.68 1048.19,-249.68 1049.87,-256.47"/>
<text text-anchor="middle" x="1016.5" y="-269" font-family="Fira Mono Medium" font-size="10.00">transfer</text>
</g>
<!-- node_34&#45;&gt;node_34 -->
<g id="edge71" class="edge">
<title>node_34&#45;&gt;node_34</title>
<path fill="none" stroke="black" d="M1079.75,-260.15C1077.64,-269.54 1082.22,-278 1093.5,-278 1100.37,-278 1104.76,-274.86 1106.66,-270.28"/>
<polygon fill="black" stroke="black" points="1110.16,-270.34 1107.25,-260.15 1103.18,-269.93 1110.16,-270.34"/>
<text text-anchor="middle" x="1093.5" y="-281" font-family="Fira Mono Medium" font-size="10.00">final</text>
</g>
</g>
</svg>
