<?xml version="1.0" encoding="UTF-8" standalone="no"?>
<!DOCTYPE svg PUBLIC "-//W3C//DTD SVG 1.1//EN"
 "http://www.w3.org/Graphics/SVG/1.1/DTD/svg11.dtd">
<!-- Generated by graphviz version 2.43.0 (0)
 -->
<!-- Title: %3 Pages: 1 -->
<svg width="824pt" height="322pt"
 viewBox="0.00 0.00 824.00 322.00" xmlns="http://www.w3.org/2000/svg" xmlns:xlink="http://www.w3.org/1999/xlink">
<g id="graph0" class="graph" transform="scale(1 1) rotate(0) translate(4 318)">
<title>%3</title>
<polygon fill="white" stroke="transparent" points="-4,4 -4,-318 820,-318 820,4 -4,4"/>
<!-- node_0 -->
<g id="node1" class="node">
<title>node_0</title>
<polygon fill="none" stroke="black" points="587,-88 465,-88 465,-52 587,-52 587,-88"/>
<text text-anchor="start" x="510.5" y="-73.4" font-family="Fira Mono Medium" font-weight="bold" font-size="12.00">bank</text>
<text text-anchor="start" x="473" y="-61.4" font-family="Fira Mono Medium" font-style="italic" font-size="12.00">location:</text>
<text text-anchor="start" x="541" y="-61.4" font-family="Fira Mono Medium" font-size="12.00"> left</text>
</g>
<!-- node_1 -->
<g id="node2" class="node">
<title>node_1</title>
<polygon fill="none" stroke="black" points="816,-139 686,-139 686,-103 816,-103 816,-139"/>
<text text-anchor="start" x="735.5" y="-124.4" font-family="Fira Mono Medium" font-weight="bold" font-size="12.00">bank</text>
<text text-anchor="start" x="694" y="-112.4" font-family="Fira Mono Medium" font-style="italic" font-size="12.00">location:</text>
<text text-anchor="start" x="762" y="-112.4" font-family="Fira Mono Medium" font-size="12.00"> right</text>
</g>
<!-- node_0&#45;&gt;node_1 -->
<g id="edge1" class="edge">
<title>node_0&#45;&gt;node_1</title>
<path fill="none" stroke="black" d="M587.05,-83.73C614.4,-89.99 647.04,-97.45 675.9,-104.05"/>
<polygon fill="black" stroke="black" points="675.4,-107.53 685.93,-106.35 676.97,-100.71 675.4,-107.53"/>
<text text-anchor="middle" x="640.5" y="-104" font-family="Fira Mono Medium" font-size="10.00">not&#45;equal</text>
</g>
<!-- node_1&#45;&gt;node_0 -->
<g id="edge2" class="edge">
<title>node_1&#45;&gt;node_0</title>
<path fill="none" stroke="black" d="M725.17,-102.94C709.58,-92.68 688.59,-80.77 668,-75 645.6,-68.72 620.42,-66.41 597.6,-65.99"/>
<polygon fill="black" stroke="black" points="597.33,-62.49 587.3,-65.92 597.28,-69.49 597.33,-62.49"/>
<text text-anchor="middle" x="640.5" y="-78" font-family="Fira Mono Medium" font-size="10.00">not&#45;equal</text>
</g>
<!-- node_2 -->
<g id="node3" class="node">
<title>node_2</title>
<polygon fill="none" stroke="black" points="553,-314 499,-314 499,-278 553,-278 553,-314"/>
<text text-anchor="start" x="510.5" y="-293.9" font-family="Fira Mono Medium" font-weight="bold" font-size="12.00">boat</text>
</g>
<!-- node_2&#45;&gt;node_1 -->
<g id="edge3" class="edge">
<title>node_2&#45;&gt;node_1</title>
<path fill="none" stroke="black" d="M553.24,-296.15C583.67,-295.05 633.99,-289.15 668,-264 707.04,-235.14 730.35,-181.73 741.63,-148.99"/>
<polygon fill="black" stroke="black" points="745.07,-149.73 744.87,-139.14 738.42,-147.54 745.07,-149.73"/>
<text text-anchor="middle" x="640.5" y="-290" font-family="Fira Mono Medium" font-size="10.00">at</text>
</g>
<!-- node_3 -->
<g id="node4" class="node">
<title>node_3</title>
<polygon fill="none" stroke="black" points="362.5,-126 232.5,-126 232.5,-82 362.5,-82 362.5,-126"/>
<text text-anchor="start" x="278.5" y="-113.4" font-family="Fira Mono Medium" font-weight="bold" font-size="12.00">human</text>
<text text-anchor="start" x="244.5" y="-101.4" font-family="Fira Mono Medium" font-style="italic" font-size="12.00">kind:</text>
<text text-anchor="start" x="282.5" y="-101.4" font-family="Fira Mono Medium" font-size="12.00"> cannibal</text>
<text text-anchor="start" x="240.5" y="-89.4" font-family="Fira Mono Medium" font-style="italic" font-size="12.00">can&#45;drive:</text>
<text text-anchor="start" x="316.5" y="-89.4" font-family="Fira Mono Medium" font-size="12.00"> true</text>
</g>
<!-- node_3&#45;&gt;node_0 -->
<g id="edge6" class="edge">
<title>node_3&#45;&gt;node_0</title>
<path fill="none" stroke="black" d="M346.89,-81.85C358.78,-77.39 371.65,-73.35 384,-71 406.73,-66.68 431.9,-65.42 454.61,-65.54"/>
<polygon fill="black" stroke="black" points="454.8,-69.04 464.85,-65.68 454.9,-62.04 454.8,-69.04"/>
<text text-anchor="middle" x="411.5" y="-74" font-family="Fira Mono Medium" font-size="10.00">at</text>
</g>
<!-- node_4 -->
<g id="node5" class="node">
<title>node_4</title>
<polygon fill="none" stroke="black" points="138,-186 0,-186 0,-142 138,-142 138,-186"/>
<text text-anchor="start" x="50" y="-173.4" font-family="Fira Mono Medium" font-weight="bold" font-size="12.00">human</text>
<text text-anchor="start" x="16" y="-161.4" font-family="Fira Mono Medium" font-style="italic" font-size="12.00">kind:</text>
<text text-anchor="start" x="54" y="-161.4" font-family="Fira Mono Medium" font-size="12.00"> cannibal</text>
<text text-anchor="start" x="8" y="-149.4" font-family="Fira Mono Medium" font-style="italic" font-size="12.00">can&#45;drive:</text>
<text text-anchor="start" x="84" y="-149.4" font-family="Fira Mono Medium" font-size="12.00"> false</text>
</g>
<!-- node_3&#45;&gt;node_4 -->
<g id="edge4" class="edge">
<title>node_3&#45;&gt;node_4</title>
<path fill="none" stroke="black" d="M232.32,-96.6C207.93,-95.81 180.2,-97.4 156,-105 136.32,-111.18 117.13,-123.54 101.89,-135.36"/>
<polygon fill="black" stroke="black" points="99.44,-132.83 93.85,-141.82 103.83,-138.28 99.44,-132.83"/>
<text text-anchor="middle" x="183.5" y="-108" font-family="Fira Mono Medium" font-size="10.00">not&#45;equal</text>
</g>
<!-- node_5 -->
<g id="node6" class="node">
<title>node_5</title>
<polygon fill="none" stroke="black" points="595,-160 457,-160 457,-116 595,-116 595,-160"/>
<text text-anchor="start" x="507" y="-147.4" font-family="Fira Mono Medium" font-weight="bold" font-size="12.00">human</text>
<text text-anchor="start" x="473" y="-135.4" font-family="Fira Mono Medium" font-style="italic" font-size="12.00">kind:</text>
<text text-anchor="start" x="511" y="-135.4" font-family="Fira Mono Medium" font-size="12.00"> cannibal</text>
<text text-anchor="start" x="465" y="-123.4" font-family="Fira Mono Medium" font-style="italic" font-size="12.00">can&#45;drive:</text>
<text text-anchor="start" x="541" y="-123.4" font-family="Fira Mono Medium" font-size="12.00"> false</text>
</g>
<!-- node_3&#45;&gt;node_5 -->
<g id="edge5" class="edge">
<title>node_3&#45;&gt;node_5</title>
<path fill="none" stroke="black" d="M362.8,-113.65C389.01,-117.59 419.55,-122.17 447.01,-126.29"/>
<polygon fill="black" stroke="black" points="446.57,-129.77 456.98,-127.79 447.61,-122.84 446.57,-129.77"/>
<text text-anchor="middle" x="411.5" y="-128" font-family="Fira Mono Medium" font-size="10.00">not&#45;equal</text>
</g>
<!-- node_4&#45;&gt;node_1 -->
<g id="edge9" class="edge">
<title>node_4&#45;&gt;node_1</title>
<path fill="none" stroke="black" d="M121.65,-186.15C132.81,-190.28 144.67,-194.17 156,-197 187.72,-204.91 196.37,-204 229,-206 392.19,-216.02 436.03,-207.2 595,-169 625.99,-161.55 659.87,-151.31 688.03,-142.2"/>
<polygon fill="black" stroke="black" points="689.32,-145.46 697.74,-139.03 687.14,-138.81 689.32,-145.46"/>
<text text-anchor="middle" x="411.5" y="-211" font-family="Fira Mono Medium" font-size="10.00">at</text>
</g>
<!-- node_4&#45;&gt;node_3 -->
<g id="edge7" class="edge">
<title>node_4&#45;&gt;node_3</title>
<path fill="none" stroke="black" d="M138,-143.97C144.08,-142.26 150.15,-140.58 156,-139 177.57,-133.18 201.1,-127.18 222.63,-121.83"/>
<polygon fill="black" stroke="black" points="223.5,-125.22 232.37,-119.42 221.82,-118.43 223.5,-125.22"/>
<text text-anchor="middle" x="183.5" y="-142" font-family="Fira Mono Medium" font-size="10.00">not&#45;equal</text>
</g>
<!-- node_4&#45;&gt;node_5 -->
<g id="edge8" class="edge">
<title>node_4&#45;&gt;node_5</title>
<path fill="none" stroke="black" d="M138.32,-177.09C213.14,-189 336.19,-201.48 439,-178 451.92,-175.05 465.22,-170 477.38,-164.46"/>
<polygon fill="black" stroke="black" points="478.9,-167.62 486.43,-160.16 475.89,-161.29 478.9,-167.62"/>
<text text-anchor="middle" x="297.5" y="-194" font-family="Fira Mono Medium" font-size="10.00">not&#45;equal</text>
</g>
<!-- node_5&#45;&gt;node_1 -->
<g id="edge12" class="edge">
<title>node_5&#45;&gt;node_1</title>
<path fill="none" stroke="black" d="M595.12,-132.81C620.56,-130.87 649.57,-128.66 675.56,-126.68"/>
<polygon fill="black" stroke="black" points="676.02,-130.15 685.73,-125.9 675.49,-123.17 676.02,-130.15"/>
<text text-anchor="middle" x="640.5" y="-134" font-family="Fira Mono Medium" font-size="10.00">at</text>
</g>
<!-- node_5&#45;&gt;node_3 -->
<g id="edge10" class="edge">
<title>node_5&#45;&gt;node_3</title>
<path fill="none" stroke="black" d="M480.04,-115.9C467.1,-110.6 452.76,-105.69 439,-103 417.71,-98.83 394.26,-97.68 372.72,-97.95"/>
<polygon fill="black" stroke="black" points="372.56,-94.46 362.65,-98.18 372.72,-101.46 372.56,-94.46"/>
<text text-anchor="middle" x="411.5" y="-106" font-family="Fira Mono Medium" font-size="10.00">not&#45;equal</text>
</g>
<!-- node_5&#45;&gt;node_4 -->
<g id="edge11" class="edge">
<title>node_5&#45;&gt;node_4</title>
<path fill="none" stroke="black" d="M456.79,-141.9C374.12,-146.62 235.11,-154.56 148.19,-159.53"/>
<polygon fill="black" stroke="black" points="147.9,-156.04 138.12,-160.11 148.3,-163.03 147.9,-156.04"/>
<text text-anchor="middle" x="297.5" y="-157" font-family="Fira Mono Medium" font-size="10.00">not&#45;equal</text>
</g>
<!-- node_6 -->
<g id="node7" class="node">
<title>node_6</title>
<polygon fill="none" stroke="black" points="366,-61 229,-61 229,-17 366,-17 366,-61"/>
<text text-anchor="start" x="278.5" y="-48.4" font-family="Fira Mono Medium" font-weight="bold" font-size="12.00">human</text>
<text text-anchor="start" x="237" y="-36.4" font-family="Fira Mono Medium" font-style="italic" font-size="12.00">kind:</text>
<text text-anchor="start" x="275" y="-36.4" font-family="Fira Mono Medium" font-size="12.00"> missionary</text>
<text text-anchor="start" x="240.5" y="-24.4" font-family="Fira Mono Medium" font-style="italic" font-size="12.00">can&#45;drive:</text>
<text text-anchor="start" x="316.5" y="-24.4" font-family="Fira Mono Medium" font-size="12.00"> true</text>
</g>
<!-- node_6&#45;&gt;node_0 -->
<g id="edge14" class="edge">
<title>node_6&#45;&gt;node_0</title>
<path fill="none" stroke="black" d="M366.13,-32.68C389.39,-31.92 415.49,-32.64 439,-37 451.78,-39.37 465.11,-43.56 477.36,-48.18"/>
<polygon fill="black" stroke="black" points="476.33,-51.53 486.92,-51.94 478.9,-45.02 476.33,-51.53"/>
<text text-anchor="middle" x="411.5" y="-40" font-family="Fira Mono Medium" font-size="10.00">at</text>
</g>
<!-- node_7 -->
<g id="node8" class="node">
<title>node_7</title>
<polygon fill="none" stroke="black" points="137.5,-44 0.5,-44 0.5,0 137.5,0 137.5,-44"/>
<text text-anchor="start" x="50" y="-31.4" font-family="Fira Mono Medium" font-weight="bold" font-size="12.00">human</text>
<text text-anchor="start" x="8.5" y="-19.4" font-family="Fira Mono Medium" font-style="italic" font-size="12.00">kind:</text>
<text text-anchor="start" x="46.5" y="-19.4" font-family="Fira Mono Medium" font-size="12.00"> missionary</text>
<text text-anchor="start" x="12" y="-7.4" font-family="Fira Mono Medium" font-style="italic" font-size="12.00">can&#45;drive:</text>
<text text-anchor="start" x="88" y="-7.4" font-family="Fira Mono Medium" font-size="12.00"> true</text>
</g>
<!-- node_6&#45;&gt;node_7 -->
<g id="edge13" class="edge">
<title>node_6&#45;&gt;node_7</title>
<path fill="none" stroke="black" d="M228.88,-38C205.74,-37.29 179.71,-36.07 156,-34 153.28,-33.76 150.51,-33.5 147.72,-33.21"/>
<polygon fill="black" stroke="black" points="147.85,-29.71 137.53,-32.09 147.09,-36.66 147.85,-29.71"/>
<text text-anchor="middle" x="183.5" y="-40" font-family="Fira Mono Medium" font-size="10.00">not&#45;equal</text>
</g>
<!-- node_7&#45;&gt;node_1 -->
<g id="edge16" class="edge">
<title>node_7&#45;&gt;node_1</title>
<path fill="none" stroke="black" d="M137.61,-14.64C165.82,-11.94 198.96,-9.23 229,-8 392.27,-1.3 435.18,-8.95 595,-43 627.79,-49.98 637.66,-47.75 668,-62 687.15,-71 706.47,-84.62 721.54,-96.51"/>
<polygon fill="black" stroke="black" points="719.46,-99.33 729.44,-102.89 723.86,-93.89 719.46,-99.33"/>
<text text-anchor="middle" x="411.5" y="-16" font-family="Fira Mono Medium" font-size="10.00">at</text>
</g>
<!-- node_7&#45;&gt;node_6 -->
<g id="edge15" class="edge">
<title>node_7&#45;&gt;node_6</title>
<path fill="none" stroke="black" d="M137.56,-18.49C160.88,-18.08 187.14,-18.52 211,-21 213.51,-21.26 216.05,-21.56 218.61,-21.9"/>
<polygon fill="black" stroke="black" points="218.16,-25.37 228.56,-23.37 219.18,-18.45 218.16,-25.37"/>
<text text-anchor="middle" x="183.5" y="-24" font-family="Fira Mono Medium" font-size="10.00">not&#45;equal</text>
</g>
</g>
</svg>
