<?xml version="1.0" encoding="UTF-8" standalone="no"?>
<!DOCTYPE svg PUBLIC "-//W3C//DTD SVG 1.1//EN"
 "http://www.w3.org/Graphics/SVG/1.1/DTD/svg11.dtd">
<!-- Generated by graphviz version 2.43.0 (0)
 -->
<!-- Title: %3 Pages: 1 -->
<svg width="988pt" height="262pt"
 viewBox="0.00 0.00 988.00 262.00" xmlns="http://www.w3.org/2000/svg" xmlns:xlink="http://www.w3.org/1999/xlink">
<g id="graph0" class="graph" transform="scale(1 1) rotate(0) translate(4 258)">
<title>%3</title>
<polygon fill="white" stroke="transparent" points="-4,4 -4,-258 984,-258 984,4 -4,4"/>
<!-- node_0 -->
<g id="node1" class="node">
<title>node_0</title>
<polygon fill="none" stroke="black" points="759,-148 637,-148 637,-112 759,-112 759,-148"/>
<text text-anchor="start" x="682.5" y="-133.4" font-family="Fira Mono Medium" font-weight="bold" font-size="12.00">bank</text>
<text text-anchor="start" x="645" y="-121.4" font-family="Fira Mono Medium" font-style="italic" font-size="12.00">location:</text>
<text text-anchor="start" x="713" y="-121.4" font-family="Fira Mono Medium" font-size="12.00"> left</text>
</g>
<!-- node_1 -->
<g id="node2" class="node">
<title>node_1</title>
<polygon fill="none" stroke="black" points="980,-195 850,-195 850,-159 980,-159 980,-195"/>
<text text-anchor="start" x="899.5" y="-180.4" font-family="Fira Mono Medium" font-weight="bold" font-size="12.00">bank</text>
<text text-anchor="start" x="858" y="-168.4" font-family="Fira Mono Medium" font-style="italic" font-size="12.00">location:</text>
<text text-anchor="start" x="926" y="-168.4" font-family="Fira Mono Medium" font-size="12.00"> right</text>
</g>
<!-- node_0&#45;&gt;node_1 -->
<g id="edge1" class="edge">
<title>node_0&#45;&gt;node_1</title>
<path fill="none" stroke="black" d="M759.18,-143.15C784.18,-148.62 813.45,-155.02 839.77,-160.77"/>
<polygon fill="black" stroke="black" points="839.19,-164.23 849.7,-162.94 840.68,-157.39 839.19,-164.23"/>
<text text-anchor="middle" x="804.5" y="-160" font-family="Fira Mono Medium" font-size="10.00">not&#45;equal</text>
</g>
<!-- node_1&#45;&gt;node_0 -->
<g id="edge2" class="edge">
<title>node_1&#45;&gt;node_0</title>
<path fill="none" stroke="black" d="M888.79,-158.95C873.24,-148.92 852.41,-137.4 832,-132 812.04,-126.72 789.8,-124.89 769.31,-124.73"/>
<polygon fill="black" stroke="black" points="769.08,-121.24 759.1,-124.79 769.11,-128.24 769.08,-121.24"/>
<text text-anchor="middle" x="804.5" y="-135" font-family="Fira Mono Medium" font-size="10.00">not&#45;equal</text>
</g>
<!-- node_2 -->
<g id="node3" class="node">
<title>node_2</title>
<polygon fill="none" stroke="black" points="725,-254 671,-254 671,-218 725,-218 725,-254"/>
<text text-anchor="start" x="682.5" y="-233.9" font-family="Fira Mono Medium" font-weight="bold" font-size="12.00">boat</text>
</g>
<!-- node_2&#45;&gt;node_1 -->
<g id="edge3" class="edge">
<title>node_2&#45;&gt;node_1</title>
<path fill="none" stroke="black" d="M725.16,-230.37C752.1,-224.42 795.22,-214.46 832,-204 838.39,-202.18 845.03,-200.18 851.64,-198.12"/>
<polygon fill="black" stroke="black" points="852.79,-201.43 861.26,-195.07 850.67,-194.76 852.79,-201.43"/>
<text text-anchor="middle" x="804.5" y="-221" font-family="Fira Mono Medium" font-size="10.00">at</text>
</g>
<!-- node_3 -->
<g id="node4" class="node">
<title>node_3</title>
<polygon fill="none" stroke="black" points="130,-105 0,-105 0,-61 130,-61 130,-105"/>
<text text-anchor="start" x="46" y="-92.4" font-family="Fira Mono Medium" font-weight="bold" font-size="12.00">human</text>
<text text-anchor="start" x="12" y="-80.4" font-family="Fira Mono Medium" font-style="italic" font-size="12.00">kind:</text>
<text text-anchor="start" x="50" y="-80.4" font-family="Fira Mono Medium" font-size="12.00"> cannibal</text>
<text text-anchor="start" x="8" y="-68.4" font-family="Fira Mono Medium" font-style="italic" font-size="12.00">can&#45;drive:</text>
<text text-anchor="start" x="84" y="-68.4" font-family="Fira Mono Medium" font-size="12.00"> true</text>
</g>
<!-- node_3&#45;&gt;node_1 -->
<g id="edge6" class="edge">
<title>node_3&#45;&gt;node_1</title>
<path fill="none" stroke="black" d="M92.19,-105.17C131.98,-136.51 211.28,-190 289,-190 289,-190 289,-190 699,-190 745.81,-190 798.25,-186.89 839.62,-183.71"/>
<polygon fill="black" stroke="black" points="839.92,-187.2 849.62,-182.93 839.37,-180.22 839.92,-187.2"/>
<text text-anchor="middle" x="519" y="-193" font-family="Fira Mono Medium" font-size="10.00">at</text>
</g>
<!-- node_4 -->
<g id="node5" class="node">
<title>node_4</title>
<polygon fill="none" stroke="black" points="359,-139 221,-139 221,-95 359,-95 359,-139"/>
<text text-anchor="start" x="271" y="-126.4" font-family="Fira Mono Medium" font-weight="bold" font-size="12.00">human</text>
<text text-anchor="start" x="237" y="-114.4" font-family="Fira Mono Medium" font-style="italic" font-size="12.00">kind:</text>
<text text-anchor="start" x="275" y="-114.4" font-family="Fira Mono Medium" font-size="12.00"> cannibal</text>
<text text-anchor="start" x="229" y="-102.4" font-family="Fira Mono Medium" font-style="italic" font-size="12.00">can&#45;drive:</text>
<text text-anchor="start" x="305" y="-102.4" font-family="Fira Mono Medium" font-size="12.00"> false</text>
</g>
<!-- node_3&#45;&gt;node_4 -->
<g id="edge4" class="edge">
<title>node_3&#45;&gt;node_4</title>
<path fill="none" stroke="black" d="M130.2,-92.79C155.42,-96.63 184.59,-101.08 211,-105.11"/>
<polygon fill="black" stroke="black" points="210.56,-108.58 220.98,-106.63 211.62,-101.66 210.56,-108.58"/>
<text text-anchor="middle" x="175.5" y="-106" font-family="Fira Mono Medium" font-size="10.00">not&#45;equal</text>
</g>
<!-- node_5 -->
<g id="node6" class="node">
<title>node_5</title>
<polygon fill="none" stroke="black" points="588,-106 450,-106 450,-62 588,-62 588,-106"/>
<text text-anchor="start" x="500" y="-93.4" font-family="Fira Mono Medium" font-weight="bold" font-size="12.00">human</text>
<text text-anchor="start" x="466" y="-81.4" font-family="Fira Mono Medium" font-style="italic" font-size="12.00">kind:</text>
<text text-anchor="start" x="504" y="-81.4" font-family="Fira Mono Medium" font-size="12.00"> cannibal</text>
<text text-anchor="start" x="458" y="-69.4" font-family="Fira Mono Medium" font-style="italic" font-size="12.00">can&#45;drive:</text>
<text text-anchor="start" x="534" y="-69.4" font-family="Fira Mono Medium" font-size="12.00"> false</text>
</g>
<!-- node_3&#45;&gt;node_5 -->
<g id="edge5" class="edge">
<title>node_3&#45;&gt;node_5</title>
<path fill="none" stroke="black" d="M130.39,-74.4C136.34,-73.83 142.27,-73.35 148,-73 273.99,-65.35 306.03,-64.98 432,-73 434.41,-73.15 436.85,-73.33 439.32,-73.53"/>
<polygon fill="black" stroke="black" points="439.27,-77.04 449.54,-74.45 439.89,-70.07 439.27,-77.04"/>
<text text-anchor="middle" x="290" y="-71" font-family="Fira Mono Medium" font-size="10.00">not&#45;equal</text>
</g>
<!-- node_4&#45;&gt;node_0 -->
<g id="edge9" class="edge">
<title>node_4&#45;&gt;node_0</title>
<path fill="none" stroke="black" d="M359.41,-119.19C433.66,-121.57 551.63,-125.35 626.63,-127.75"/>
<polygon fill="black" stroke="black" points="626.82,-131.25 636.92,-128.08 627.04,-124.26 626.82,-131.25"/>
<text text-anchor="middle" x="519" y="-129" font-family="Fira Mono Medium" font-size="10.00">at</text>
</g>
<!-- node_4&#45;&gt;node_3 -->
<g id="edge7" class="edge">
<title>node_4&#45;&gt;node_3</title>
<path fill="none" stroke="black" d="M244.04,-94.9C231.1,-89.6 216.76,-84.69 203,-82 182.93,-78.07 160.89,-76.9 140.47,-77.07"/>
<polygon fill="black" stroke="black" points="140.2,-73.57 130.27,-77.26 140.33,-80.57 140.2,-73.57"/>
<text text-anchor="middle" x="175.5" y="-85" font-family="Fira Mono Medium" font-size="10.00">not&#45;equal</text>
</g>
<!-- node_4&#45;&gt;node_5 -->
<g id="edge8" class="edge">
<title>node_4&#45;&gt;node_5</title>
<path fill="none" stroke="black" d="M359.11,-107.1C384.58,-103.4 413.71,-99.16 440.01,-95.34"/>
<polygon fill="black" stroke="black" points="440.55,-98.8 449.94,-93.89 439.54,-91.87 440.55,-98.8"/>
<text text-anchor="middle" x="404.5" y="-107" font-family="Fira Mono Medium" font-size="10.00">not&#45;equal</text>
</g>
<!-- node_5&#45;&gt;node_0 -->
<g id="edge12" class="edge">
<title>node_5&#45;&gt;node_0</title>
<path fill="none" stroke="black" d="M588.18,-101.72C600.98,-105.05 614.39,-108.53 627.24,-111.87"/>
<polygon fill="black" stroke="black" points="626.38,-115.26 636.94,-114.39 628.14,-108.49 626.38,-115.26"/>
<text text-anchor="middle" x="612.5" y="-111" font-family="Fira Mono Medium" font-size="10.00">at</text>
</g>
<!-- node_5&#45;&gt;node_3 -->
<g id="edge10" class="edge">
<title>node_5&#45;&gt;node_3</title>
<path fill="none" stroke="black" d="M449.99,-68.7C443.91,-67.42 437.85,-66.17 432,-65 339.86,-46.63 314.59,-43.73 221,-52 188.17,-54.9 180.32,-58.58 148,-65 145.5,-65.5 142.96,-66.01 140.39,-66.54"/>
<polygon fill="black" stroke="black" points="139.49,-63.15 130.41,-68.61 140.91,-70 139.49,-63.15"/>
<text text-anchor="middle" x="290" y="-55" font-family="Fira Mono Medium" font-size="10.00">not&#45;equal</text>
</g>
<!-- node_5&#45;&gt;node_4 -->
<g id="edge11" class="edge">
<title>node_5&#45;&gt;node_4</title>
<path fill="none" stroke="black" d="M449.72,-77.38C426.46,-76.61 400.43,-77.42 377,-82 366.57,-84.04 355.81,-87.35 345.58,-91.14"/>
<polygon fill="black" stroke="black" points="344,-88 335.96,-94.9 346.55,-94.52 344,-88"/>
<text text-anchor="middle" x="404.5" y="-85" font-family="Fira Mono Medium" font-size="10.00">not&#45;equal</text>
</g>
<!-- node_6 -->
<g id="node7" class="node">
<title>node_6</title>
<polygon fill="none" stroke="black" points="587.5,-44 450.5,-44 450.5,0 587.5,0 587.5,-44"/>
<text text-anchor="start" x="500" y="-31.4" font-family="Fira Mono Medium" font-weight="bold" font-size="12.00">human</text>
<text text-anchor="start" x="458.5" y="-19.4" font-family="Fira Mono Medium" font-style="italic" font-size="12.00">kind:</text>
<text text-anchor="start" x="496.5" y="-19.4" font-family="Fira Mono Medium" font-size="12.00"> missionary</text>
<text text-anchor="start" x="462" y="-7.4" font-family="Fira Mono Medium" font-style="italic" font-size="12.00">can&#45;drive:</text>
<text text-anchor="start" x="538" y="-7.4" font-family="Fira Mono Medium" font-size="12.00"> true</text>
</g>
<!-- node_6&#45;&gt;node_0 -->
<g id="edge13" class="edge">
<title>node_6&#45;&gt;node_0</title>
<path fill="none" stroke="black" d="M571.39,-44.18C577.07,-47 582.71,-49.96 588,-53 615.49,-68.79 644.74,-89.7 666,-105.74"/>
<polygon fill="black" stroke="black" points="663.95,-108.58 674.03,-111.85 668.19,-103.01 663.95,-108.58"/>
<text text-anchor="middle" x="612.5" y="-73" font-family="Fira Mono Medium" font-size="10.00">at</text>
</g>
</g>
</svg>
