<?xml version="1.0" encoding="UTF-8" standalone="no"?>
<!DOCTYPE svg PUBLIC "-//W3C//DTD SVG 1.1//EN"
 "http://www.w3.org/Graphics/SVG/1.1/DTD/svg11.dtd">
<!-- Generated by graphviz version 2.43.0 (0)
 -->
<!-- Title: %3 Pages: 1 -->
<svg width="988pt" height="263pt"
 viewBox="0.00 0.00 988.00 263.00" xmlns="http://www.w3.org/2000/svg" xmlns:xlink="http://www.w3.org/1999/xlink">
<g id="graph0" class="graph" transform="scale(1 1) rotate(0) translate(4 259)">
<title>%3</title>
<polygon fill="white" stroke="transparent" points="-4,4 -4,-259 984,-259 984,4 -4,4"/>
<!-- node_0 -->
<g id="node1" class="node">
<title>node_0</title>
<polygon fill="none" stroke="black" points="759,-156 637,-156 637,-120 759,-120 759,-156"/>
<text text-anchor="start" x="682.5" y="-141.4" font-family="Fira Mono Medium" font-weight="bold" font-size="12.00">bank</text>
<text text-anchor="start" x="645" y="-129.4" font-family="Fira Mono Medium" font-style="italic" font-size="12.00">location:</text>
<text text-anchor="start" x="713" y="-129.4" font-family="Fira Mono Medium" font-size="12.00"> left</text>
</g>
<!-- node_1 -->
<g id="node2" class="node">
<title>node_1</title>
<polygon fill="none" stroke="black" points="980,-190 850,-190 850,-154 980,-154 980,-190"/>
<text text-anchor="start" x="899.5" y="-175.4" font-family="Fira Mono Medium" font-weight="bold" font-size="12.00">bank</text>
<text text-anchor="start" x="858" y="-163.4" font-family="Fira Mono Medium" font-style="italic" font-size="12.00">location:</text>
<text text-anchor="start" x="926" y="-163.4" font-family="Fira Mono Medium" font-size="12.00"> right</text>
</g>
<!-- node_0&#45;&gt;node_1 -->
<g id="edge1" class="edge">
<title>node_0&#45;&gt;node_1</title>
<path fill="none" stroke="black" d="M759.18,-147.52C784.18,-151.47 813.45,-156.1 839.77,-160.26"/>
<polygon fill="black" stroke="black" points="839.28,-163.73 849.7,-161.83 840.37,-156.81 839.28,-163.73"/>
<text text-anchor="middle" x="804.5" y="-161" font-family="Fira Mono Medium" font-size="10.00">not&#45;equal</text>
</g>
<!-- node_1&#45;&gt;node_0 -->
<g id="edge2" class="edge">
<title>node_1&#45;&gt;node_0</title>
<path fill="none" stroke="black" d="M880.29,-153.98C865.85,-147.23 848.53,-140.38 832,-137 811.87,-132.88 789.67,-131.75 769.27,-132.02"/>
<polygon fill="black" stroke="black" points="769.01,-128.53 759.1,-132.27 769.18,-135.52 769.01,-128.53"/>
<text text-anchor="middle" x="804.5" y="-140" font-family="Fira Mono Medium" font-size="10.00">not&#45;equal</text>
</g>
<!-- node_2 -->
<g id="node3" class="node">
<title>node_2</title>
<polygon fill="none" stroke="black" points="546,-98 492,-98 492,-62 546,-62 546,-98"/>
<text text-anchor="start" x="503.5" y="-77.9" font-family="Fira Mono Medium" font-weight="bold" font-size="12.00">boat</text>
</g>
<!-- node_2&#45;&gt;node_0 -->
<g id="edge3" class="edge">
<title>node_2&#45;&gt;node_0</title>
<path fill="none" stroke="black" d="M546.12,-88.56C568.76,-95.98 602.5,-107.03 632.33,-116.81"/>
<polygon fill="black" stroke="black" points="631.27,-120.14 641.86,-119.93 633.45,-113.49 631.27,-120.14"/>
<text text-anchor="middle" x="612.5" y="-113" font-family="Fira Mono Medium" font-size="10.00">at</text>
</g>
<!-- node_3 -->
<g id="node4" class="node">
<title>node_3</title>
<polygon fill="none" stroke="black" points="130,-159 0,-159 0,-115 130,-115 130,-159"/>
<text text-anchor="start" x="46" y="-146.4" font-family="Fira Mono Medium" font-weight="bold" font-size="12.00">human</text>
<text text-anchor="start" x="12" y="-134.4" font-family="Fira Mono Medium" font-style="italic" font-size="12.00">kind:</text>
<text text-anchor="start" x="50" y="-134.4" font-family="Fira Mono Medium" font-size="12.00"> cannibal</text>
<text text-anchor="start" x="8" y="-122.4" font-family="Fira Mono Medium" font-style="italic" font-size="12.00">can&#45;drive:</text>
<text text-anchor="start" x="84" y="-122.4" font-family="Fira Mono Medium" font-size="12.00"> true</text>
</g>
<!-- node_3&#45;&gt;node_1 -->
<g id="edge6" class="edge">
<title>node_3&#45;&gt;node_1</title>
<path fill="none" stroke="black" d="M92.19,-159.17C131.98,-190.51 211.28,-244 289,-244 289,-244 289,-244 699,-244 761.95,-244 830.14,-215.91 872.47,-194.82"/>
<polygon fill="black" stroke="black" points="874.29,-197.82 881.62,-190.17 871.11,-191.58 874.29,-197.82"/>
<text text-anchor="middle" x="519" y="-247" font-family="Fira Mono Medium" font-size="10.00">at</text>
</g>
<!-- node_4 -->
<g id="node5" class="node">
<title>node_4</title>
<polygon fill="none" stroke="black" points="359,-193 221,-193 221,-149 359,-149 359,-193"/>
<text text-anchor="start" x="271" y="-180.4" font-family="Fira Mono Medium" font-weight="bold" font-size="12.00">human</text>
<text text-anchor="start" x="237" y="-168.4" font-family="Fira Mono Medium" font-style="italic" font-size="12.00">kind:</text>
<text text-anchor="start" x="275" y="-168.4" font-family="Fira Mono Medium" font-size="12.00"> cannibal</text>
<text text-anchor="start" x="229" y="-156.4" font-family="Fira Mono Medium" font-style="italic" font-size="12.00">can&#45;drive:</text>
<text text-anchor="start" x="305" y="-156.4" font-family="Fira Mono Medium" font-size="12.00"> false</text>
</g>
<!-- node_3&#45;&gt;node_4 -->
<g id="edge4" class="edge">
<title>node_3&#45;&gt;node_4</title>
<path fill="none" stroke="black" d="M130.2,-146.79C155.42,-150.63 184.59,-155.08 211,-159.11"/>
<polygon fill="black" stroke="black" points="210.56,-162.58 220.98,-160.63 211.62,-155.66 210.56,-162.58"/>
<text text-anchor="middle" x="175.5" y="-160" font-family="Fira Mono Medium" font-size="10.00">not&#45;equal</text>
</g>
<!-- node_5 -->
<g id="node6" class="node">
<title>node_5</title>
<polygon fill="none" stroke="black" points="588,-160 450,-160 450,-116 588,-116 588,-160"/>
<text text-anchor="start" x="500" y="-147.4" font-family="Fira Mono Medium" font-weight="bold" font-size="12.00">human</text>
<text text-anchor="start" x="466" y="-135.4" font-family="Fira Mono Medium" font-style="italic" font-size="12.00">kind:</text>
<text text-anchor="start" x="504" y="-135.4" font-family="Fira Mono Medium" font-size="12.00"> cannibal</text>
<text text-anchor="start" x="458" y="-123.4" font-family="Fira Mono Medium" font-style="italic" font-size="12.00">can&#45;drive:</text>
<text text-anchor="start" x="534" y="-123.4" font-family="Fira Mono Medium" font-size="12.00"> false</text>
</g>
<!-- node_3&#45;&gt;node_5 -->
<g id="edge5" class="edge">
<title>node_3&#45;&gt;node_5</title>
<path fill="none" stroke="black" d="M130.39,-128.4C136.34,-127.83 142.27,-127.35 148,-127 273.99,-119.35 306.03,-118.98 432,-127 434.41,-127.15 436.85,-127.33 439.32,-127.53"/>
<polygon fill="black" stroke="black" points="439.27,-131.04 449.54,-128.45 439.89,-124.07 439.27,-131.04"/>
<text text-anchor="middle" x="290" y="-125" font-family="Fira Mono Medium" font-size="10.00">not&#45;equal</text>
</g>
<!-- node_4&#45;&gt;node_0 -->
<g id="edge9" class="edge">
<title>node_4&#45;&gt;node_0</title>
<path fill="none" stroke="black" d="M359.27,-176.1C419.75,-179.3 510.26,-180.86 588,-169 603.16,-166.69 619.19,-162.91 634.15,-158.78"/>
<polygon fill="black" stroke="black" points="635.16,-162.13 643.81,-156.02 633.24,-155.4 635.16,-162.13"/>
<text text-anchor="middle" x="519" y="-181" font-family="Fira Mono Medium" font-size="10.00">at</text>
</g>
<!-- node_4&#45;&gt;node_3 -->
<g id="edge7" class="edge">
<title>node_4&#45;&gt;node_3</title>
<path fill="none" stroke="black" d="M244.04,-148.9C231.1,-143.6 216.76,-138.69 203,-136 182.93,-132.07 160.89,-130.9 140.47,-131.07"/>
<polygon fill="black" stroke="black" points="140.2,-127.57 130.27,-131.26 140.33,-134.57 140.2,-127.57"/>
<text text-anchor="middle" x="175.5" y="-139" font-family="Fira Mono Medium" font-size="10.00">not&#45;equal</text>
</g>
<!-- node_4&#45;&gt;node_5 -->
<g id="edge8" class="edge">
<title>node_4&#45;&gt;node_5</title>
<path fill="none" stroke="black" d="M359.11,-161.1C384.58,-157.4 413.71,-153.16 440.01,-149.34"/>
<polygon fill="black" stroke="black" points="440.55,-152.8 449.94,-147.89 439.54,-145.87 440.55,-152.8"/>
<text text-anchor="middle" x="404.5" y="-161" font-family="Fira Mono Medium" font-size="10.00">not&#45;equal</text>
</g>
<!-- node_5&#45;&gt;node_0 -->
<g id="edge12" class="edge">
<title>node_5&#45;&gt;node_0</title>
<path fill="none" stroke="black" d="M588.18,-138C600.86,-138 614.13,-138 626.86,-138"/>
<polygon fill="black" stroke="black" points="626.94,-141.5 636.94,-138 626.94,-134.5 626.94,-141.5"/>
<text text-anchor="middle" x="612.5" y="-141" font-family="Fira Mono Medium" font-size="10.00">at</text>
</g>
<!-- node_5&#45;&gt;node_3 -->
<g id="edge10" class="edge">
<title>node_5&#45;&gt;node_3</title>
<path fill="none" stroke="black" d="M449.99,-122.7C443.91,-121.42 437.85,-120.17 432,-119 339.86,-100.63 314.59,-97.73 221,-106 188.17,-108.9 180.32,-112.58 148,-119 145.5,-119.5 142.96,-120.01 140.39,-120.54"/>
<polygon fill="black" stroke="black" points="139.49,-117.15 130.41,-122.61 140.91,-124 139.49,-117.15"/>
<text text-anchor="middle" x="290" y="-109" font-family="Fira Mono Medium" font-size="10.00">not&#45;equal</text>
</g>
<!-- node_5&#45;&gt;node_4 -->
<g id="edge11" class="edge">
<title>node_5&#45;&gt;node_4</title>
<path fill="none" stroke="black" d="M449.72,-131.38C426.46,-130.61 400.43,-131.42 377,-136 366.57,-138.04 355.81,-141.35 345.58,-145.14"/>
<polygon fill="black" stroke="black" points="344,-142 335.96,-148.9 346.55,-148.52 344,-142"/>
<text text-anchor="middle" x="404.5" y="-139" font-family="Fira Mono Medium" font-size="10.00">not&#45;equal</text>
</g>
<!-- node_6 -->
<g id="node7" class="node">
<title>node_6</title>
<polygon fill="none" stroke="black" points="587.5,-44 450.5,-44 450.5,0 587.5,0 587.5,-44"/>
<text text-anchor="start" x="500" y="-31.4" font-family="Fira Mono Medium" font-weight="bold" font-size="12.00">human</text>
<text text-anchor="start" x="458.5" y="-19.4" font-family="Fira Mono Medium" font-style="italic" font-size="12.00">kind:</text>
<text text-anchor="start" x="496.5" y="-19.4" font-family="Fira Mono Medium" font-size="12.00"> missionary</text>
<text text-anchor="start" x="462" y="-7.4" font-family="Fira Mono Medium" font-style="italic" font-size="12.00">can&#45;drive:</text>
<text text-anchor="start" x="538" y="-7.4" font-family="Fira Mono Medium" font-size="12.00"> true</text>
</g>
<!-- node_6&#45;&gt;node_0 -->
<g id="edge13" class="edge">
<title>node_6&#45;&gt;node_0</title>
<path fill="none" stroke="black" d="M571.9,-44.11C577.43,-46.92 582.9,-49.91 588,-53 617.3,-70.76 647.81,-95.15 669.08,-113.24"/>
<polygon fill="black" stroke="black" points="666.89,-115.98 676.76,-119.85 671.46,-110.67 666.89,-115.98"/>
<text text-anchor="middle" x="612.5" y="-74" font-family="Fira Mono Medium" font-size="10.00">at</text>
</g>
</g>
</svg>
