<?xml version="1.0" encoding="UTF-8" standalone="no"?>
<!DOCTYPE svg PUBLIC "-//W3C//DTD SVG 1.1//EN"
 "http://www.w3.org/Graphics/SVG/1.1/DTD/svg11.dtd">
<!-- Generated by graphviz version 2.43.0 (0)
 -->
<!-- Title: %3 Pages: 1 -->
<svg width="1052pt" height="425pt"
 viewBox="0.00 0.00 1052.00 425.00" xmlns="http://www.w3.org/2000/svg" xmlns:xlink="http://www.w3.org/1999/xlink">
<g id="graph0" class="graph" transform="scale(1 1) rotate(0) translate(4 421)">
<title>%3</title>
<polygon fill="white" stroke="transparent" points="-4,4 -4,-421 1048,-421 1048,4 -4,4"/>
<!-- node_0 -->
<g id="node1" class="node">
<title>node_0</title>
<polygon fill="none" stroke="black" points="815,-191 693,-191 693,-155 815,-155 815,-191"/>
<text text-anchor="start" x="738.5" y="-176.4" font-family="Fira Mono Medium" font-weight="bold" font-size="12.00">bank</text>
<text text-anchor="start" x="701" y="-164.4" font-family="Fira Mono Medium" font-style="italic" font-size="12.00">location:</text>
<text text-anchor="start" x="769" y="-164.4" font-family="Fira Mono Medium" font-size="12.00"> left</text>
</g>
<!-- node_1 -->
<g id="node2" class="node">
<title>node_1</title>
<polygon fill="none" stroke="black" points="1044,-225 914,-225 914,-189 1044,-189 1044,-225"/>
<text text-anchor="start" x="963.5" y="-210.4" font-family="Fira Mono Medium" font-weight="bold" font-size="12.00">bank</text>
<text text-anchor="start" x="922" y="-198.4" font-family="Fira Mono Medium" font-style="italic" font-size="12.00">location:</text>
<text text-anchor="start" x="990" y="-198.4" font-family="Fira Mono Medium" font-size="12.00"> right</text>
</g>
<!-- node_0&#45;&gt;node_1 -->
<g id="edge1" class="edge">
<title>node_0&#45;&gt;node_1</title>
<path fill="none" stroke="black" d="M815.05,-182.16C842.4,-186.33 875.04,-191.3 903.9,-195.7"/>
<polygon fill="black" stroke="black" points="903.52,-199.18 913.93,-197.23 904.58,-192.26 903.52,-199.18"/>
<text text-anchor="middle" x="868.5" y="-197" font-family="Fira Mono Medium" font-size="10.00">not&#45;equal</text>
</g>
<!-- node_1&#45;&gt;node_0 -->
<g id="edge2" class="edge">
<title>node_1&#45;&gt;node_0</title>
<path fill="none" stroke="black" d="M944.29,-188.98C929.85,-182.23 912.53,-175.38 896,-172 873.33,-167.36 848.18,-166.29 825.47,-166.78"/>
<polygon fill="black" stroke="black" points="825.11,-163.28 815.22,-167.1 825.33,-170.28 825.11,-163.28"/>
<text text-anchor="middle" x="868.5" y="-175" font-family="Fira Mono Medium" font-size="10.00">not&#45;equal</text>
</g>
<!-- node_2 -->
<g id="node3" class="node">
<title>node_2</title>
<polygon fill="none" stroke="black" points="781,-417 727,-417 727,-381 781,-381 781,-417"/>
<text text-anchor="start" x="738.5" y="-396.9" font-family="Fira Mono Medium" font-weight="bold" font-size="12.00">boat</text>
</g>
<!-- node_2&#45;&gt;node_1 -->
<g id="edge3" class="edge">
<title>node_2&#45;&gt;node_1</title>
<path fill="none" stroke="black" d="M781.18,-399.44C811.78,-398.63 862.49,-393.02 896,-367 939.08,-333.55 961.56,-271.21 971.48,-235.01"/>
<polygon fill="black" stroke="black" points="974.93,-235.67 974.06,-225.11 968.15,-233.9 974.93,-235.67"/>
<text text-anchor="middle" x="868.5" y="-394" font-family="Fira Mono Medium" font-size="10.00">at</text>
</g>
<!-- node_3 -->
<g id="node4" class="node">
<title>node_3</title>
<polygon fill="none" stroke="black" points="590.5,-230 460.5,-230 460.5,-186 590.5,-186 590.5,-230"/>
<text text-anchor="start" x="506.5" y="-217.4" font-family="Fira Mono Medium" font-weight="bold" font-size="12.00">human</text>
<text text-anchor="start" x="472.5" y="-205.4" font-family="Fira Mono Medium" font-style="italic" font-size="12.00">kind:</text>
<text text-anchor="start" x="510.5" y="-205.4" font-family="Fira Mono Medium" font-size="12.00"> cannibal</text>
<text text-anchor="start" x="468.5" y="-193.4" font-family="Fira Mono Medium" font-style="italic" font-size="12.00">can&#45;drive:</text>
<text text-anchor="start" x="544.5" y="-193.4" font-family="Fira Mono Medium" font-size="12.00"> true</text>
</g>
<!-- node_3&#45;&gt;node_0 -->
<g id="edge6" class="edge">
<title>node_3&#45;&gt;node_0</title>
<path fill="none" stroke="black" d="M590.75,-192.07C597.9,-190.57 605.09,-189.17 612,-188 634.84,-184.13 659.93,-181.08 682.54,-178.77"/>
<polygon fill="black" stroke="black" points="683.14,-182.22 692.74,-177.76 682.44,-175.26 683.14,-182.22"/>
<text text-anchor="middle" x="639.5" y="-191" font-family="Fira Mono Medium" font-size="10.00">at</text>
</g>
<!-- node_4 -->
<g id="node5" class="node">
<title>node_4</title>
<polygon fill="none" stroke="black" points="366,-290 228,-290 228,-246 366,-246 366,-290"/>
<text text-anchor="start" x="278" y="-277.4" font-family="Fira Mono Medium" font-weight="bold" font-size="12.00">human</text>
<text text-anchor="start" x="244" y="-265.4" font-family="Fira Mono Medium" font-style="italic" font-size="12.00">kind:</text>
<text text-anchor="start" x="282" y="-265.4" font-family="Fira Mono Medium" font-size="12.00"> cannibal</text>
<text text-anchor="start" x="236" y="-253.4" font-family="Fira Mono Medium" font-style="italic" font-size="12.00">can&#45;drive:</text>
<text text-anchor="start" x="312" y="-253.4" font-family="Fira Mono Medium" font-size="12.00"> false</text>
</g>
<!-- node_3&#45;&gt;node_4 -->
<g id="edge4" class="edge">
<title>node_3&#45;&gt;node_4</title>
<path fill="none" stroke="black" d="M460.32,-200.6C435.93,-199.81 408.2,-201.4 384,-209 364.32,-215.18 345.13,-227.54 329.89,-239.36"/>
<polygon fill="black" stroke="black" points="327.44,-236.83 321.85,-245.82 331.83,-242.28 327.44,-236.83"/>
<text text-anchor="middle" x="411.5" y="-212" font-family="Fira Mono Medium" font-size="10.00">not&#45;equal</text>
</g>
<!-- node_5 -->
<g id="node6" class="node">
<title>node_5</title>
<polygon fill="none" stroke="black" points="823,-263 685,-263 685,-219 823,-219 823,-263"/>
<text text-anchor="start" x="735" y="-250.4" font-family="Fira Mono Medium" font-weight="bold" font-size="12.00">human</text>
<text text-anchor="start" x="701" y="-238.4" font-family="Fira Mono Medium" font-style="italic" font-size="12.00">kind:</text>
<text text-anchor="start" x="739" y="-238.4" font-family="Fira Mono Medium" font-size="12.00"> cannibal</text>
<text text-anchor="start" x="693" y="-226.4" font-family="Fira Mono Medium" font-style="italic" font-size="12.00">can&#45;drive:</text>
<text text-anchor="start" x="769" y="-226.4" font-family="Fira Mono Medium" font-size="12.00"> false</text>
</g>
<!-- node_3&#45;&gt;node_5 -->
<g id="edge5" class="edge">
<title>node_3&#45;&gt;node_5</title>
<path fill="none" stroke="black" d="M590.6,-203.1C614.73,-202.53 642.3,-203.42 667,-208 676.34,-209.73 685.97,-212.43 695.26,-215.56"/>
<polygon fill="black" stroke="black" points="694.19,-218.9 704.78,-218.96 696.54,-212.3 694.19,-218.9"/>
<text text-anchor="middle" x="639.5" y="-211" font-family="Fira Mono Medium" font-size="10.00">not&#45;equal</text>
</g>
<!-- node_4&#45;&gt;node_1 -->
<g id="edge9" class="edge">
<title>node_4&#45;&gt;node_1</title>
<path fill="none" stroke="black" d="M351.53,-290.11C362.15,-293.87 373.32,-297.39 384,-300 415.76,-307.75 424.37,-307 457,-309 620.19,-319.02 665.9,-317.28 823,-272 860.99,-261.05 902.18,-243.48 932.55,-229.37"/>
<polygon fill="black" stroke="black" points="934.04,-232.54 941.61,-225.11 931.07,-226.2 934.04,-232.54"/>
<text text-anchor="middle" x="639.5" y="-316" font-family="Fira Mono Medium" font-size="10.00">at</text>
</g>
<!-- node_4&#45;&gt;node_3 -->
<g id="edge7" class="edge">
<title>node_4&#45;&gt;node_3</title>
<path fill="none" stroke="black" d="M366,-247.97C372.08,-246.26 378.15,-244.58 384,-243 405.57,-237.18 429.1,-231.18 450.63,-225.83"/>
<polygon fill="black" stroke="black" points="451.5,-229.22 460.37,-223.42 449.82,-222.43 451.5,-229.22"/>
<text text-anchor="middle" x="411.5" y="-246" font-family="Fira Mono Medium" font-size="10.00">not&#45;equal</text>
</g>
<!-- node_4&#45;&gt;node_5 -->
<g id="edge8" class="edge">
<title>node_4&#45;&gt;node_5</title>
<path fill="none" stroke="black" d="M366.32,-280.79C441.15,-292.41 564.2,-304.48 667,-281 679.92,-278.05 693.22,-273 705.38,-267.46"/>
<polygon fill="black" stroke="black" points="706.9,-270.62 714.43,-263.16 703.89,-264.29 706.9,-270.62"/>
<text text-anchor="middle" x="525.5" y="-297" font-family="Fira Mono Medium" font-size="10.00">not&#45;equal</text>
</g>
<!-- node_5&#45;&gt;node_1 -->
<g id="edge12" class="edge">
<title>node_5&#45;&gt;node_1</title>
<path fill="none" stroke="black" d="M823.12,-230.61C848.56,-226.74 877.57,-222.31 903.56,-218.35"/>
<polygon fill="black" stroke="black" points="904.37,-221.77 913.73,-216.8 903.31,-214.85 904.37,-221.77"/>
<text text-anchor="middle" x="868.5" y="-230" font-family="Fira Mono Medium" font-size="10.00">at</text>
</g>
<!-- node_5&#45;&gt;node_3 -->
<g id="edge10" class="edge">
<title>node_5&#45;&gt;node_3</title>
<path fill="none" stroke="black" d="M684.98,-231.09C658.5,-227.23 628.07,-222.8 601,-218.85"/>
<polygon fill="black" stroke="black" points="601.2,-215.35 590.8,-217.37 600.19,-222.27 601.2,-215.35"/>
<text text-anchor="middle" x="639.5" y="-231" font-family="Fira Mono Medium" font-size="10.00">not&#45;equal</text>
</g>
<!-- node_5&#45;&gt;node_4 -->
<g id="edge11" class="edge">
<title>node_5&#45;&gt;node_4</title>
<path fill="none" stroke="black" d="M684.79,-245.05C602.12,-249.95 463.11,-258.2 376.19,-263.36"/>
<polygon fill="black" stroke="black" points="375.89,-259.87 366.12,-263.96 376.31,-266.86 375.89,-259.87"/>
<text text-anchor="middle" x="525.5" y="-261" font-family="Fira Mono Medium" font-size="10.00">not&#45;equal</text>
</g>
<!-- node_6 -->
<g id="node7" class="node">
<title>node_6</title>
<polygon fill="none" stroke="black" points="137,-125 0,-125 0,-81 137,-81 137,-125"/>
<text text-anchor="start" x="49.5" y="-112.4" font-family="Fira Mono Medium" font-weight="bold" font-size="12.00">human</text>
<text text-anchor="start" x="8" y="-100.4" font-family="Fira Mono Medium" font-style="italic" font-size="12.00">kind:</text>
<text text-anchor="start" x="46" y="-100.4" font-family="Fira Mono Medium" font-size="12.00"> missionary</text>
<text text-anchor="start" x="11.5" y="-88.4" font-family="Fira Mono Medium" font-style="italic" font-size="12.00">can&#45;drive:</text>
<text text-anchor="start" x="87.5" y="-88.4" font-family="Fira Mono Medium" font-size="12.00"> true</text>
</g>
<!-- node_6&#45;&gt;node_1 -->
<g id="edge15" class="edge">
<title>node_6&#45;&gt;node_1</title>
<path fill="none" stroke="black" d="M97.32,-80.9C138.3,-50.64 218.46,0 296,0 296,0 296,0 755,0 859.61,0 935.83,-123.88 964.97,-179.97"/>
<polygon fill="black" stroke="black" points="961.9,-181.66 969.55,-188.99 968.14,-178.49 961.9,-181.66"/>
<text text-anchor="middle" x="525.5" y="-3" font-family="Fira Mono Medium" font-size="10.00">at</text>
</g>
<!-- node_7 -->
<g id="node8" class="node">
<title>node_7</title>
<polygon fill="none" stroke="black" points="365.5,-93 228.5,-93 228.5,-49 365.5,-49 365.5,-93"/>
<text text-anchor="start" x="278" y="-80.4" font-family="Fira Mono Medium" font-weight="bold" font-size="12.00">human</text>
<text text-anchor="start" x="236.5" y="-68.4" font-family="Fira Mono Medium" font-style="italic" font-size="12.00">kind:</text>
<text text-anchor="start" x="274.5" y="-68.4" font-family="Fira Mono Medium" font-size="12.00"> missionary</text>
<text text-anchor="start" x="240" y="-56.4" font-family="Fira Mono Medium" font-style="italic" font-size="12.00">can&#45;drive:</text>
<text text-anchor="start" x="316" y="-56.4" font-family="Fira Mono Medium" font-size="12.00"> true</text>
</g>
<!-- node_6&#45;&gt;node_7 -->
<g id="edge13" class="edge">
<title>node_6&#45;&gt;node_7</title>
<path fill="none" stroke="black" d="M117.43,-80.96C129.44,-76.43 142.49,-72.33 155,-70 175.37,-66.21 197.69,-65.03 218.43,-65.16"/>
<polygon fill="black" stroke="black" points="218.42,-68.66 228.48,-65.32 218.53,-61.66 218.42,-68.66"/>
<text text-anchor="middle" x="182.5" y="-73" font-family="Fira Mono Medium" font-size="10.00">not&#45;equal</text>
</g>
<!-- node_8 -->
<g id="node9" class="node">
<title>node_8</title>
<polygon fill="none" stroke="black" points="594,-154 457,-154 457,-110 594,-110 594,-154"/>
<text text-anchor="start" x="506.5" y="-141.4" font-family="Fira Mono Medium" font-weight="bold" font-size="12.00">human</text>
<text text-anchor="start" x="465" y="-129.4" font-family="Fira Mono Medium" font-style="italic" font-size="12.00">kind:</text>
<text text-anchor="start" x="503" y="-129.4" font-family="Fira Mono Medium" font-size="12.00"> missionary</text>
<text text-anchor="start" x="468.5" y="-117.4" font-family="Fira Mono Medium" font-style="italic" font-size="12.00">can&#45;drive:</text>
<text text-anchor="start" x="544.5" y="-117.4" font-family="Fira Mono Medium" font-size="12.00"> true</text>
</g>
<!-- node_6&#45;&gt;node_8 -->
<g id="edge14" class="edge">
<title>node_6&#45;&gt;node_8</title>
<path fill="none" stroke="black" d="M107.83,-125.16C122.16,-132.29 138.87,-139.3 155,-143 253.77,-165.67 371.28,-156.19 446.83,-145.59"/>
<polygon fill="black" stroke="black" points="447.35,-149.06 456.75,-144.16 446.35,-142.13 447.35,-149.06"/>
<text text-anchor="middle" x="297" y="-159" font-family="Fira Mono Medium" font-size="10.00">not&#45;equal</text>
</g>
<!-- node_7&#45;&gt;node_1 -->
<g id="edge18" class="edge">
<title>node_7&#45;&gt;node_1</title>
<path fill="none" stroke="black" d="M365.53,-62.7C388.85,-61.02 415.11,-60.45 439,-63 612.62,-81.55 652.39,-108.86 823,-146 855.45,-153.06 864.9,-150.34 896,-162 911.34,-167.75 927.33,-175.96 941.07,-183.8"/>
<polygon fill="black" stroke="black" points="939.34,-186.84 949.74,-188.86 942.87,-180.8 939.34,-186.84"/>
<text text-anchor="middle" x="639.5" y="-109" font-family="Fira Mono Medium" font-size="10.00">at</text>
</g>
<!-- node_7&#45;&gt;node_6 -->
<g id="edge16" class="edge">
<title>node_7&#45;&gt;node_6</title>
<path fill="none" stroke="black" d="M228.31,-80.56C202.76,-84.17 173.5,-88.31 147.11,-92.04"/>
<polygon fill="black" stroke="black" points="146.56,-88.58 137.15,-93.44 147.54,-95.51 146.56,-88.58"/>
<text text-anchor="middle" x="182.5" y="-93" font-family="Fira Mono Medium" font-size="10.00">not&#45;equal</text>
</g>
<!-- node_7&#45;&gt;node_8 -->
<g id="edge17" class="edge">
<title>node_7&#45;&gt;node_8</title>
<path fill="none" stroke="black" d="M365.54,-87.74C388.86,-93.65 415.12,-100.46 439,-107 441.64,-107.72 444.32,-108.46 447.02,-109.22"/>
<polygon fill="black" stroke="black" points="446.31,-112.65 456.89,-112 448.21,-105.92 446.31,-112.65"/>
<text text-anchor="middle" x="411.5" y="-110" font-family="Fira Mono Medium" font-size="10.00">not&#45;equal</text>
</g>
<!-- node_8&#45;&gt;node_0 -->
<g id="edge21" class="edge">
<title>node_8&#45;&gt;node_0</title>
<path fill="none" stroke="black" d="M594.15,-144.25C622.01,-149.29 654.3,-155.13 682.46,-160.23"/>
<polygon fill="black" stroke="black" points="682.16,-163.73 692.63,-162.07 683.41,-156.85 682.16,-163.73"/>
<text text-anchor="middle" x="639.5" y="-160" font-family="Fira Mono Medium" font-size="10.00">at</text>
</g>
<!-- node_8&#45;&gt;node_6 -->
<g id="edge19" class="edge">
<title>node_8&#45;&gt;node_6</title>
<path fill="none" stroke="black" d="M456.87,-127.69C374.12,-122.42 234.31,-113.5 147.22,-107.95"/>
<polygon fill="black" stroke="black" points="147.33,-104.45 137.13,-107.31 146.88,-111.44 147.33,-104.45"/>
<text text-anchor="middle" x="297" y="-124" font-family="Fira Mono Medium" font-size="10.00">not&#45;equal</text>
</g>
<!-- node_8&#45;&gt;node_7 -->
<g id="edge20" class="edge">
<title>node_8&#45;&gt;node_7</title>
<path fill="none" stroke="black" d="M498.27,-109.9C482.24,-97.79 460.7,-83.88 439,-77 419.03,-70.67 396.67,-67.9 375.74,-67.01"/>
<polygon fill="black" stroke="black" points="375.7,-63.51 365.6,-66.72 375.5,-70.51 375.7,-63.51"/>
<text text-anchor="middle" x="411.5" y="-80" font-family="Fira Mono Medium" font-size="10.00">not&#45;equal</text>
</g>
</g>
</svg>
