<?xml version="1.0" encoding="UTF-8" standalone="no"?>
<!DOCTYPE svg PUBLIC "-//W3C//DTD SVG 1.1//EN"
 "http://www.w3.org/Graphics/SVG/1.1/DTD/svg11.dtd">
<!-- Generated by graphviz version 2.43.0 (0)
 -->
<!-- Title: %3 Pages: 1 -->
<svg width="1052pt" height="305pt"
 viewBox="0.00 0.00 1052.00 304.94" xmlns="http://www.w3.org/2000/svg" xmlns:xlink="http://www.w3.org/1999/xlink">
<g id="graph0" class="graph" transform="scale(1 1) rotate(0) translate(4 300.94)">
<title>%3</title>
<polygon fill="white" stroke="transparent" points="-4,4 -4,-300.94 1048,-300.94 1048,4 -4,4"/>
<!-- node_0 -->
<g id="node1" class="node">
<title>node_0</title>
<polygon fill="none" stroke="black" points="815,-144.94 693,-144.94 693,-108.94 815,-108.94 815,-144.94"/>
<text text-anchor="start" x="738.5" y="-130.34" font-family="Fira Mono Medium" font-weight="bold" font-size="12.00">bank</text>
<text text-anchor="start" x="701" y="-118.34" font-family="Fira Mono Medium" font-style="italic" font-size="12.00">location:</text>
<text text-anchor="start" x="769" y="-118.34" font-family="Fira Mono Medium" font-size="12.00"> left</text>
</g>
<!-- node_1 -->
<g id="node2" class="node">
<title>node_1</title>
<polygon fill="none" stroke="black" points="1044,-217.94 914,-217.94 914,-181.94 1044,-181.94 1044,-217.94"/>
<text text-anchor="start" x="963.5" y="-203.34" font-family="Fira Mono Medium" font-weight="bold" font-size="12.00">bank</text>
<text text-anchor="start" x="922" y="-191.34" font-family="Fira Mono Medium" font-style="italic" font-size="12.00">location:</text>
<text text-anchor="start" x="990" y="-191.34" font-family="Fira Mono Medium" font-size="12.00"> right</text>
</g>
<!-- node_0&#45;&gt;node_1 -->
<g id="edge1" class="edge">
<title>node_0&#45;&gt;node_1</title>
<path fill="none" stroke="black" d="M810.12,-144.99C841.22,-155.16 880.24,-167.94 912.84,-178.61"/>
<polygon fill="black" stroke="black" points="912.15,-182.07 922.74,-181.85 914.32,-175.41 912.15,-182.07"/>
<text text-anchor="middle" x="868.5" y="-174.94" font-family="Fira Mono Medium" font-size="10.00">not&#45;equal</text>
</g>
<!-- node_1&#45;&gt;node_0 -->
<g id="edge2" class="edge">
<title>node_1&#45;&gt;node_0</title>
<path fill="none" stroke="black" d="M959.18,-181.92C943.57,-168.16 920.12,-150.06 896,-140.94 873.85,-132.57 848.42,-128.52 825.31,-126.71"/>
<polygon fill="black" stroke="black" points="825.43,-123.21 815.23,-126.06 824.98,-130.2 825.43,-123.21"/>
<text text-anchor="middle" x="868.5" y="-143.94" font-family="Fira Mono Medium" font-size="10.00">not&#45;equal</text>
</g>
<!-- node_2 -->
<g id="node3" class="node">
<title>node_2</title>
<polygon fill="none" stroke="black" points="552,-87.94 498,-87.94 498,-51.94 552,-51.94 552,-87.94"/>
<text text-anchor="start" x="509.5" y="-67.84" font-family="Fira Mono Medium" font-weight="bold" font-size="12.00">boat</text>
</g>
<!-- node_2&#45;&gt;node_0 -->
<g id="edge3" class="edge">
<title>node_2&#45;&gt;node_0</title>
<path fill="none" stroke="black" d="M552.04,-76.48C583.76,-84.45 638.61,-98.22 683,-109.37"/>
<polygon fill="black" stroke="black" points="682.33,-112.8 692.88,-111.85 684.03,-106.02 682.33,-112.8"/>
<text text-anchor="middle" x="639.5" y="-107.94" font-family="Fira Mono Medium" font-size="10.00">at</text>
</g>
<!-- node_3 -->
<g id="node4" class="node">
<title>node_3</title>
<polygon fill="none" stroke="black" points="361.5,-276.94 231.5,-276.94 231.5,-232.94 361.5,-232.94 361.5,-276.94"/>
<text text-anchor="start" x="277.5" y="-264.34" font-family="Fira Mono Medium" font-weight="bold" font-size="12.00">human</text>
<text text-anchor="start" x="243.5" y="-252.34" font-family="Fira Mono Medium" font-style="italic" font-size="12.00">kind:</text>
<text text-anchor="start" x="281.5" y="-252.34" font-family="Fira Mono Medium" font-size="12.00"> cannibal</text>
<text text-anchor="start" x="239.5" y="-240.34" font-family="Fira Mono Medium" font-style="italic" font-size="12.00">can&#45;drive:</text>
<text text-anchor="start" x="315.5" y="-240.34" font-family="Fira Mono Medium" font-size="12.00"> true</text>
</g>
<!-- node_3&#45;&gt;node_1 -->
<g id="edge6" class="edge">
<title>node_3&#45;&gt;node_1</title>
<path fill="none" stroke="black" d="M361.64,-272.89C368.81,-274.46 376.03,-275.86 383,-276.94 415.11,-281.9 423.52,-280.05 456,-280.94 619.32,-285.41 663.88,-297.01 823,-259.94 860.28,-251.26 900.54,-235.47 930.68,-222.26"/>
<polygon fill="black" stroke="black" points="932.38,-225.34 940.1,-218.08 929.54,-218.94 932.38,-225.34"/>
<text text-anchor="middle" x="639.5" y="-288.94" font-family="Fira Mono Medium" font-size="10.00">at</text>
</g>
<!-- node_4 -->
<g id="node5" class="node">
<title>node_4</title>
<polygon fill="none" stroke="black" points="594,-216.94 456,-216.94 456,-172.94 594,-172.94 594,-216.94"/>
<text text-anchor="start" x="506" y="-204.34" font-family="Fira Mono Medium" font-weight="bold" font-size="12.00">human</text>
<text text-anchor="start" x="472" y="-192.34" font-family="Fira Mono Medium" font-style="italic" font-size="12.00">kind:</text>
<text text-anchor="start" x="510" y="-192.34" font-family="Fira Mono Medium" font-size="12.00"> cannibal</text>
<text text-anchor="start" x="464" y="-180.34" font-family="Fira Mono Medium" font-style="italic" font-size="12.00">can&#45;drive:</text>
<text text-anchor="start" x="540" y="-180.34" font-family="Fira Mono Medium" font-size="12.00"> false</text>
</g>
<!-- node_3&#45;&gt;node_4 -->
<g id="edge4" class="edge">
<title>node_3&#45;&gt;node_4</title>
<path fill="none" stroke="black" d="M361.85,-235.82C368.97,-233.79 376.13,-231.8 383,-229.94 403.3,-224.46 425.33,-218.83 445.81,-213.74"/>
<polygon fill="black" stroke="black" points="446.86,-217.09 455.72,-211.29 445.17,-210.29 446.86,-217.09"/>
<text text-anchor="middle" x="410.5" y="-232.94" font-family="Fira Mono Medium" font-size="10.00">not&#45;equal</text>
</g>
<!-- node_5 -->
<g id="node6" class="node">
<title>node_5</title>
<polygon fill="none" stroke="black" points="823,-250.94 685,-250.94 685,-206.94 823,-206.94 823,-250.94"/>
<text text-anchor="start" x="735" y="-238.34" font-family="Fira Mono Medium" font-weight="bold" font-size="12.00">human</text>
<text text-anchor="start" x="701" y="-226.34" font-family="Fira Mono Medium" font-style="italic" font-size="12.00">kind:</text>
<text text-anchor="start" x="739" y="-226.34" font-family="Fira Mono Medium" font-size="12.00"> cannibal</text>
<text text-anchor="start" x="693" y="-214.34" font-family="Fira Mono Medium" font-style="italic" font-size="12.00">can&#45;drive:</text>
<text text-anchor="start" x="769" y="-214.34" font-family="Fira Mono Medium" font-size="12.00"> false</text>
</g>
<!-- node_3&#45;&gt;node_5 -->
<g id="edge5" class="edge">
<title>node_3&#45;&gt;node_5</title>
<path fill="none" stroke="black" d="M361.8,-251.27C444,-246.58 586.27,-238.46 674.7,-233.41"/>
<polygon fill="black" stroke="black" points="675.16,-236.89 684.94,-232.83 674.76,-229.9 675.16,-236.89"/>
<text text-anchor="middle" x="525" y="-247.94" font-family="Fira Mono Medium" font-size="10.00">not&#45;equal</text>
</g>
<!-- node_4&#45;&gt;node_0 -->
<g id="edge9" class="edge">
<title>node_4&#45;&gt;node_0</title>
<path fill="none" stroke="black" d="M594.11,-174.54C622.14,-166.14 654.61,-156.42 682.85,-147.96"/>
<polygon fill="black" stroke="black" points="684.08,-151.24 692.65,-145.02 682.07,-144.54 684.08,-151.24"/>
<text text-anchor="middle" x="639.5" y="-171.94" font-family="Fira Mono Medium" font-size="10.00">at</text>
</g>
<!-- node_4&#45;&gt;node_3 -->
<g id="edge7" class="edge">
<title>node_4&#45;&gt;node_3</title>
<path fill="none" stroke="black" d="M455.7,-190.1C432.2,-190.33 406.02,-192.73 383,-199.94 364.84,-205.63 346.81,-216.29 332.02,-226.71"/>
<polygon fill="black" stroke="black" points="329.71,-224.06 323.71,-232.79 333.85,-229.71 329.71,-224.06"/>
<text text-anchor="middle" x="410.5" y="-202.94" font-family="Fira Mono Medium" font-size="10.00">not&#45;equal</text>
</g>
<!-- node_4&#45;&gt;node_5 -->
<g id="edge8" class="edge">
<title>node_4&#45;&gt;node_5</title>
<path fill="none" stroke="black" d="M594.25,-190.52C617.51,-190.31 643.55,-191.51 667,-195.94 676.12,-197.66 685.52,-200.3 694.61,-203.35"/>
<polygon fill="black" stroke="black" points="693.72,-206.75 704.32,-206.79 696.06,-200.15 693.72,-206.75"/>
<text text-anchor="middle" x="639.5" y="-198.94" font-family="Fira Mono Medium" font-size="10.00">not&#45;equal</text>
</g>
<!-- node_5&#45;&gt;node_1 -->
<g id="edge12" class="edge">
<title>node_5&#45;&gt;node_1</title>
<path fill="none" stroke="black" d="M823.12,-220.08C848.56,-216.77 877.57,-213 903.56,-209.62"/>
<polygon fill="black" stroke="black" points="904.26,-213.06 913.73,-208.3 903.36,-206.12 904.26,-213.06"/>
<text text-anchor="middle" x="868.5" y="-219.94" font-family="Fira Mono Medium" font-size="10.00">at</text>
</g>
<!-- node_5&#45;&gt;node_3 -->
<g id="edge10" class="edge">
<title>node_5&#45;&gt;node_3</title>
<path fill="none" stroke="black" d="M684.57,-245.37C678.64,-246.64 672.72,-247.85 667,-248.94 542.9,-272.68 509.25,-267.1 383,-261.94 379.36,-261.79 375.64,-261.61 371.89,-261.4"/>
<polygon fill="black" stroke="black" points="372.09,-257.9 361.89,-260.78 371.66,-264.89 372.09,-257.9"/>
<text text-anchor="middle" x="525" y="-268.94" font-family="Fira Mono Medium" font-size="10.00">not&#45;equal</text>
</g>
<!-- node_5&#45;&gt;node_4 -->
<g id="edge11" class="edge">
<title>node_5&#45;&gt;node_4</title>
<path fill="none" stroke="black" d="M684.94,-218.75C659.47,-214.93 630.34,-210.57 604.04,-206.63"/>
<polygon fill="black" stroke="black" points="604.52,-203.16 594.11,-205.14 603.48,-210.09 604.52,-203.16"/>
<text text-anchor="middle" x="639.5" y="-218.94" font-family="Fira Mono Medium" font-size="10.00">not&#45;equal</text>
</g>
<!-- node_6 -->
<g id="node7" class="node">
<title>node_6</title>
<polygon fill="none" stroke="black" points="137,-110.94 0,-110.94 0,-66.94 137,-66.94 137,-110.94"/>
<text text-anchor="start" x="49.5" y="-98.34" font-family="Fira Mono Medium" font-weight="bold" font-size="12.00">human</text>
<text text-anchor="start" x="8" y="-86.34" font-family="Fira Mono Medium" font-style="italic" font-size="12.00">kind:</text>
<text text-anchor="start" x="46" y="-86.34" font-family="Fira Mono Medium" font-size="12.00"> missionary</text>
<text text-anchor="start" x="11.5" y="-74.34" font-family="Fira Mono Medium" font-style="italic" font-size="12.00">can&#45;drive:</text>
<text text-anchor="start" x="87.5" y="-74.34" font-family="Fira Mono Medium" font-size="12.00"> true</text>
</g>
<!-- node_6&#45;&gt;node_0 -->
<g id="edge15" class="edge">
<title>node_6&#45;&gt;node_0</title>
<path fill="none" stroke="black" d="M111.07,-66.82C124.83,-59.96 140.38,-52.69 155,-46.94 186.54,-34.54 194.75,-31.49 228,-24.94 387.64,6.52 432.73,5.74 594,-15.94 627.02,-20.38 638.25,-16.12 667,-32.94 695.53,-49.63 720.05,-78.86 735.52,-100.3"/>
<polygon fill="black" stroke="black" points="732.79,-102.49 741.39,-108.67 738.52,-98.48 732.79,-102.49"/>
<text text-anchor="middle" x="410.5" y="-4.94" font-family="Fira Mono Medium" font-size="10.00">at</text>
</g>
<!-- node_7 -->
<g id="node8" class="node">
<title>node_7</title>
<polygon fill="none" stroke="black" points="365,-77.94 228,-77.94 228,-33.94 365,-33.94 365,-77.94"/>
<text text-anchor="start" x="277.5" y="-65.34" font-family="Fira Mono Medium" font-weight="bold" font-size="12.00">human</text>
<text text-anchor="start" x="236" y="-53.34" font-family="Fira Mono Medium" font-style="italic" font-size="12.00">kind:</text>
<text text-anchor="start" x="274" y="-53.34" font-family="Fira Mono Medium" font-size="12.00"> missionary</text>
<text text-anchor="start" x="239.5" y="-41.34" font-family="Fira Mono Medium" font-style="italic" font-size="12.00">can&#45;drive:</text>
<text text-anchor="start" x="315.5" y="-41.34" font-family="Fira Mono Medium" font-size="12.00"> true</text>
</g>
<!-- node_6&#45;&gt;node_7 -->
<g id="edge13" class="edge">
<title>node_6&#45;&gt;node_7</title>
<path fill="none" stroke="black" d="M117.43,-66.9C129.44,-62.37 142.49,-58.27 155,-55.94 175.1,-52.2 197.11,-50.9 217.61,-50.86"/>
<polygon fill="black" stroke="black" points="217.83,-54.36 227.86,-50.94 217.89,-47.36 217.83,-54.36"/>
<text text-anchor="middle" x="182.5" y="-58.94" font-family="Fira Mono Medium" font-size="10.00">not&#45;equal</text>
</g>
<!-- node_8 -->
<g id="node9" class="node">
<title>node_8</title>
<polygon fill="none" stroke="black" points="593.5,-149.94 456.5,-149.94 456.5,-105.94 593.5,-105.94 593.5,-149.94"/>
<text text-anchor="start" x="506" y="-137.34" font-family="Fira Mono Medium" font-weight="bold" font-size="12.00">human</text>
<text text-anchor="start" x="464.5" y="-125.34" font-family="Fira Mono Medium" font-style="italic" font-size="12.00">kind:</text>
<text text-anchor="start" x="502.5" y="-125.34" font-family="Fira Mono Medium" font-size="12.00"> missionary</text>
<text text-anchor="start" x="468" y="-113.34" font-family="Fira Mono Medium" font-style="italic" font-size="12.00">can&#45;drive:</text>
<text text-anchor="start" x="544" y="-113.34" font-family="Fira Mono Medium" font-size="12.00"> true</text>
</g>
<!-- node_6&#45;&gt;node_8 -->
<g id="edge14" class="edge">
<title>node_6&#45;&gt;node_8</title>
<path fill="none" stroke="black" d="M107.83,-111.1C122.16,-118.23 138.87,-125.24 155,-128.94 253.4,-151.53 370.48,-145.93 445.96,-138.28"/>
<polygon fill="black" stroke="black" points="446.74,-141.72 456.32,-137.2 446.01,-134.76 446.74,-141.72"/>
<text text-anchor="middle" x="296.5" y="-147.94" font-family="Fira Mono Medium" font-size="10.00">not&#45;equal</text>
</g>
<!-- node_7&#45;&gt;node_0 -->
<g id="edge18" class="edge">
<title>node_7&#45;&gt;node_0</title>
<path fill="none" stroke="black" d="M365.28,-37.34C426.21,-23.68 517.58,-10.85 594,-31.94 643.58,-45.63 693.28,-79.3 723.59,-102.64"/>
<polygon fill="black" stroke="black" points="721.58,-105.51 731.61,-108.92 725.9,-100 721.58,-105.51"/>
<text text-anchor="middle" x="525" y="-34.94" font-family="Fira Mono Medium" font-size="10.00">at</text>
</g>
<!-- node_7&#45;&gt;node_6 -->
<g id="edge16" class="edge">
<title>node_7&#45;&gt;node_6</title>
<path fill="none" stroke="black" d="M227.96,-65.8C202.46,-69.53 173.27,-73.79 146.94,-77.63"/>
<polygon fill="black" stroke="black" points="146.39,-74.18 137,-79.09 147.4,-81.1 146.39,-74.18"/>
<text text-anchor="middle" x="182.5" y="-78.94" font-family="Fira Mono Medium" font-size="10.00">not&#45;equal</text>
</g>
<!-- node_7&#45;&gt;node_8 -->
<g id="edge17" class="edge">
<title>node_7&#45;&gt;node_8</title>
<path fill="none" stroke="black" d="M365.15,-41.91C389.83,-40.36 416.85,-43.16 438,-56.94 454.33,-67.58 442.25,-83.12 456,-96.94 456.8,-97.75 457.63,-98.53 458.47,-99.3"/>
<polygon fill="black" stroke="black" points="456.6,-102.28 466.63,-105.72 460.93,-96.78 456.6,-102.28"/>
<text text-anchor="middle" x="410.5" y="-59.94" font-family="Fira Mono Medium" font-size="10.00">not&#45;equal</text>
</g>
<!-- node_8&#45;&gt;node_0 -->
<g id="edge21" class="edge">
<title>node_8&#45;&gt;node_0</title>
<path fill="none" stroke="black" d="M593.8,-127.64C621.84,-127.52 654.35,-127.38 682.65,-127.25"/>
<polygon fill="black" stroke="black" points="682.89,-130.75 692.87,-127.21 682.86,-123.75 682.89,-130.75"/>
<text text-anchor="middle" x="639.5" y="-129.94" font-family="Fira Mono Medium" font-size="10.00">at</text>
</g>
<!-- node_8&#45;&gt;node_6 -->
<g id="edge19" class="edge">
<title>node_8&#45;&gt;node_6</title>
<path fill="none" stroke="black" d="M456.45,-122.14C373.79,-115.05 234.13,-103.07 147.13,-95.6"/>
<polygon fill="black" stroke="black" points="147.32,-92.11 137.05,-94.74 146.72,-99.08 147.32,-92.11"/>
<text text-anchor="middle" x="296.5" y="-116.94" font-family="Fira Mono Medium" font-size="10.00">not&#45;equal</text>
</g>
<!-- node_8&#45;&gt;node_7 -->
<g id="edge20" class="edge">
<title>node_8&#45;&gt;node_7</title>
<path fill="none" stroke="black" d="M476.32,-105.8C463.99,-100.53 450.63,-95.2 438,-90.94 417.94,-84.18 395.87,-78.08 375.29,-72.93"/>
<polygon fill="black" stroke="black" points="375.86,-69.47 365.32,-70.49 374.2,-76.27 375.86,-69.47"/>
<text text-anchor="middle" x="410.5" y="-93.94" font-family="Fira Mono Medium" font-size="10.00">not&#45;equal</text>
</g>
</g>
</svg>
