<?xml version="1.0" encoding="UTF-8" standalone="no"?>
<!DOCTYPE svg PUBLIC "-//W3C//DTD SVG 1.1//EN"
 "http://www.w3.org/Graphics/SVG/1.1/DTD/svg11.dtd">
<!-- Generated by graphviz version 2.43.0 (0)
 -->
<!-- Title: %3 Pages: 1 -->
<svg width="1003pt" height="244pt"
 viewBox="0.00 0.00 1003.00 243.94" xmlns="http://www.w3.org/2000/svg" xmlns:xlink="http://www.w3.org/1999/xlink">
<g id="graph0" class="graph" transform="scale(1 1) rotate(0) translate(4 239.94)">
<title>%3</title>
<polygon fill="white" stroke="transparent" points="-4,4 -4,-239.94 999,-239.94 999,4 -4,4"/>
<!-- node_0 -->
<g id="node1" class="node">
<title>node_0</title>
<polygon fill="none" stroke="black" points="766.5,-114.94 644.5,-114.94 644.5,-78.94 766.5,-78.94 766.5,-114.94"/>
<text text-anchor="start" x="690" y="-100.34" font-family="Fira Mono Medium" font-weight="bold" font-size="12.00">bank</text>
<text text-anchor="start" x="652.5" y="-88.34" font-family="Fira Mono Medium" font-style="italic" font-size="12.00">location:</text>
<text text-anchor="start" x="720.5" y="-88.34" font-family="Fira Mono Medium" font-size="12.00"> left</text>
</g>
<!-- node_1 -->
<g id="node2" class="node">
<title>node_1</title>
<polygon fill="none" stroke="black" points="995,-160.94 865,-160.94 865,-124.94 995,-124.94 995,-160.94"/>
<text text-anchor="start" x="914.5" y="-146.34" font-family="Fira Mono Medium" font-weight="bold" font-size="12.00">bank</text>
<text text-anchor="start" x="873" y="-134.34" font-family="Fira Mono Medium" font-style="italic" font-size="12.00">location:</text>
<text text-anchor="start" x="941" y="-134.34" font-family="Fira Mono Medium" font-size="12.00"> right</text>
</g>
<!-- node_0&#45;&gt;node_1 -->
<g id="edge1" class="edge">
<title>node_0&#45;&gt;node_1</title>
<path fill="none" stroke="black" d="M766.71,-109.38C793.88,-115 826.24,-121.69 854.88,-127.61"/>
<polygon fill="black" stroke="black" points="854.34,-131.07 864.84,-129.67 855.76,-124.22 854.34,-131.07"/>
<text text-anchor="middle" x="819.5" y="-127.94" font-family="Fira Mono Medium" font-size="10.00">not&#45;equal</text>
</g>
<!-- node_1&#45;&gt;node_0 -->
<g id="edge2" class="edge">
<title>node_1&#45;&gt;node_0</title>
<path fill="none" stroke="black" d="M902.21,-124.84C886.78,-115.48 866.61,-104.99 847,-99.94 824.67,-94.18 799.67,-92.27 777.02,-92.14"/>
<polygon fill="black" stroke="black" points="776.78,-88.64 766.8,-92.2 776.82,-95.64 776.78,-88.64"/>
<text text-anchor="middle" x="819.5" y="-102.94" font-family="Fira Mono Medium" font-size="10.00">not&#45;equal</text>
</g>
<!-- node_2 -->
<g id="node3" class="node">
<title>node_2</title>
<polygon fill="none" stroke="black" points="732.5,-235.94 678.5,-235.94 678.5,-199.94 732.5,-199.94 732.5,-235.94"/>
<text text-anchor="start" x="690" y="-215.84" font-family="Fira Mono Medium" font-weight="bold" font-size="12.00">boat</text>
</g>
<!-- node_2&#45;&gt;node_1 -->
<g id="edge3" class="edge">
<title>node_2&#45;&gt;node_1</title>
<path fill="none" stroke="black" d="M732.9,-209.04C765.43,-198.07 821.8,-179.07 865.78,-164.25"/>
<polygon fill="black" stroke="black" points="867.17,-167.47 875.53,-160.96 864.93,-160.84 867.17,-167.47"/>
<text text-anchor="middle" x="819.5" y="-189.94" font-family="Fira Mono Medium" font-size="10.00">at</text>
</g>
<!-- node_3 -->
<g id="node4" class="node">
<title>node_3</title>
<polygon fill="none" stroke="black" points="130,-58.94 0,-58.94 0,-14.94 130,-14.94 130,-58.94"/>
<text text-anchor="start" x="46" y="-46.34" font-family="Fira Mono Medium" font-weight="bold" font-size="12.00">human</text>
<text text-anchor="start" x="12" y="-34.34" font-family="Fira Mono Medium" font-style="italic" font-size="12.00">kind:</text>
<text text-anchor="start" x="50" y="-34.34" font-family="Fira Mono Medium" font-size="12.00"> cannibal</text>
<text text-anchor="start" x="8" y="-22.34" font-family="Fira Mono Medium" font-style="italic" font-size="12.00">can&#45;drive:</text>
<text text-anchor="start" x="84" y="-22.34" font-family="Fira Mono Medium" font-size="12.00"> true</text>
</g>
<!-- node_3&#45;&gt;node_0 -->
<g id="edge6" class="edge">
<title>node_3&#45;&gt;node_0</title>
<path fill="none" stroke="black" d="M106.35,-59.08C136.83,-74.49 180.24,-93.7 221,-101.94 365.49,-131.12 539.25,-117.92 634.14,-106.74"/>
<polygon fill="black" stroke="black" points="634.69,-110.2 644.2,-105.53 633.85,-103.25 634.69,-110.2"/>
<text text-anchor="middle" x="404.5" y="-121.94" font-family="Fira Mono Medium" font-size="10.00">at</text>
</g>
<!-- node_4 -->
<g id="node5" class="node">
<title>node_4</title>
<polygon fill="none" stroke="black" points="359,-92.94 221,-92.94 221,-48.94 359,-48.94 359,-92.94"/>
<text text-anchor="start" x="271" y="-80.34" font-family="Fira Mono Medium" font-weight="bold" font-size="12.00">human</text>
<text text-anchor="start" x="237" y="-68.34" font-family="Fira Mono Medium" font-style="italic" font-size="12.00">kind:</text>
<text text-anchor="start" x="275" y="-68.34" font-family="Fira Mono Medium" font-size="12.00"> cannibal</text>
<text text-anchor="start" x="229" y="-56.34" font-family="Fira Mono Medium" font-style="italic" font-size="12.00">can&#45;drive:</text>
<text text-anchor="start" x="305" y="-56.34" font-family="Fira Mono Medium" font-size="12.00"> false</text>
</g>
<!-- node_3&#45;&gt;node_4 -->
<g id="edge4" class="edge">
<title>node_3&#45;&gt;node_4</title>
<path fill="none" stroke="black" d="M130.2,-46.72C155.42,-50.57 184.59,-55.02 211,-59.04"/>
<polygon fill="black" stroke="black" points="210.56,-62.52 220.98,-60.56 211.62,-55.6 210.56,-62.52"/>
<text text-anchor="middle" x="175.5" y="-59.94" font-family="Fira Mono Medium" font-size="10.00">not&#45;equal</text>
</g>
<!-- node_5 -->
<g id="node6" class="node">
<title>node_5</title>
<polygon fill="none" stroke="black" points="588,-58.94 450,-58.94 450,-14.94 588,-14.94 588,-58.94"/>
<text text-anchor="start" x="500" y="-46.34" font-family="Fira Mono Medium" font-weight="bold" font-size="12.00">human</text>
<text text-anchor="start" x="466" y="-34.34" font-family="Fira Mono Medium" font-style="italic" font-size="12.00">kind:</text>
<text text-anchor="start" x="504" y="-34.34" font-family="Fira Mono Medium" font-size="12.00"> cannibal</text>
<text text-anchor="start" x="458" y="-22.34" font-family="Fira Mono Medium" font-style="italic" font-size="12.00">can&#45;drive:</text>
<text text-anchor="start" x="534" y="-22.34" font-family="Fira Mono Medium" font-size="12.00"> false</text>
</g>
<!-- node_3&#45;&gt;node_5 -->
<g id="edge5" class="edge">
<title>node_3&#45;&gt;node_5</title>
<path fill="none" stroke="black" d="M130.39,-28.36C136.34,-27.79 142.27,-27.3 148,-26.94 273.97,-19.01 306.03,-17.91 432,-25.94 434.41,-26.09 436.85,-26.27 439.32,-26.46"/>
<polygon fill="black" stroke="black" points="439.27,-29.97 449.54,-27.38 439.89,-23 439.27,-29.97"/>
<text text-anchor="middle" x="290" y="-24.94" font-family="Fira Mono Medium" font-size="10.00">not&#45;equal</text>
</g>
<!-- node_4&#45;&gt;node_0 -->
<g id="edge9" class="edge">
<title>node_4&#45;&gt;node_0</title>
<path fill="none" stroke="black" d="M359.28,-75.23C435.24,-80.01 557.34,-87.68 634.13,-92.51"/>
<polygon fill="black" stroke="black" points="633.99,-96.01 644.19,-93.14 634.43,-89.02 633.99,-96.01"/>
<text text-anchor="middle" x="519" y="-91.94" font-family="Fira Mono Medium" font-size="10.00">at</text>
</g>
<!-- node_4&#45;&gt;node_3 -->
<g id="edge7" class="edge">
<title>node_4&#45;&gt;node_3</title>
<path fill="none" stroke="black" d="M244.04,-48.84C231.1,-43.53 216.76,-38.63 203,-35.94 182.93,-32.01 160.89,-30.83 140.47,-31"/>
<polygon fill="black" stroke="black" points="140.2,-27.51 130.27,-31.2 140.33,-34.5 140.2,-27.51"/>
<text text-anchor="middle" x="175.5" y="-38.94" font-family="Fira Mono Medium" font-size="10.00">not&#45;equal</text>
</g>
<!-- node_4&#45;&gt;node_5 -->
<g id="edge8" class="edge">
<title>node_4&#45;&gt;node_5</title>
<path fill="none" stroke="black" d="M359.11,-60.73C384.58,-56.92 413.71,-52.56 440.01,-48.62"/>
<polygon fill="black" stroke="black" points="440.57,-52.07 449.94,-47.13 439.53,-45.15 440.57,-52.07"/>
<text text-anchor="middle" x="404.5" y="-60.94" font-family="Fira Mono Medium" font-size="10.00">not&#45;equal</text>
</g>
<!-- node_5&#45;&gt;node_0 -->
<g id="edge12" class="edge">
<title>node_5&#45;&gt;node_0</title>
<path fill="none" stroke="black" d="M587.65,-58.94C604.5,-64.42 622.54,-70.28 639.27,-75.72"/>
<polygon fill="black" stroke="black" points="638.36,-79.11 648.95,-78.87 640.52,-72.45 638.36,-79.11"/>
<text text-anchor="middle" x="612.5" y="-70.94" font-family="Fira Mono Medium" font-size="10.00">at</text>
</g>
<!-- node_5&#45;&gt;node_3 -->
<g id="edge10" class="edge">
<title>node_5&#45;&gt;node_3</title>
<path fill="none" stroke="black" d="M449.99,-21.64C443.91,-20.35 437.85,-19.1 432,-17.94 339.86,0.44 314.53,3.95 221,-4.94 188.11,-8.06 180.36,-12.28 148,-18.94 145.5,-19.45 142.96,-19.98 140.4,-20.51"/>
<polygon fill="black" stroke="black" points="139.48,-17.13 130.42,-22.62 140.93,-23.98 139.48,-17.13"/>
<text text-anchor="middle" x="290" y="-7.94" font-family="Fira Mono Medium" font-size="10.00">not&#45;equal</text>
</g>
<!-- node_5&#45;&gt;node_4 -->
<g id="edge11" class="edge">
<title>node_5&#45;&gt;node_4</title>
<path fill="none" stroke="black" d="M449.72,-30.99C426.46,-30.4 400.42,-31.35 377,-35.94 366.57,-37.98 355.81,-41.29 345.58,-45.08"/>
<polygon fill="black" stroke="black" points="344,-41.94 335.96,-48.84 346.55,-48.46 344,-41.94"/>
<text text-anchor="middle" x="404.5" y="-38.94" font-family="Fira Mono Medium" font-size="10.00">not&#45;equal</text>
</g>
<!-- node_6 -->
<g id="node7" class="node">
<title>node_6</title>
<polygon fill="none" stroke="black" points="774,-181.94 637,-181.94 637,-137.94 774,-137.94 774,-181.94"/>
<text text-anchor="start" x="686.5" y="-169.34" font-family="Fira Mono Medium" font-weight="bold" font-size="12.00">human</text>
<text text-anchor="start" x="645" y="-157.34" font-family="Fira Mono Medium" font-style="italic" font-size="12.00">kind:</text>
<text text-anchor="start" x="683" y="-157.34" font-family="Fira Mono Medium" font-size="12.00"> missionary</text>
<text text-anchor="start" x="648.5" y="-145.34" font-family="Fira Mono Medium" font-style="italic" font-size="12.00">can&#45;drive:</text>
<text text-anchor="start" x="724.5" y="-145.34" font-family="Fira Mono Medium" font-size="12.00"> true</text>
</g>
<!-- node_6&#45;&gt;node_1 -->
<g id="edge13" class="edge">
<title>node_6&#45;&gt;node_1</title>
<path fill="none" stroke="black" d="M774.16,-154.77C799.56,-152.83 828.55,-150.61 854.53,-148.63"/>
<polygon fill="black" stroke="black" points="855,-152.1 864.71,-147.85 854.47,-145.12 855,-152.1"/>
<text text-anchor="middle" x="819.5" y="-155.94" font-family="Fira Mono Medium" font-size="10.00">at</text>
</g>
</g>
</svg>
