<?xml version="1.0" encoding="UTF-8" standalone="no"?>
<!DOCTYPE svg PUBLIC "-//W3C//DTD SVG 1.1//EN"
 "http://www.w3.org/Graphics/SVG/1.1/DTD/svg11.dtd">
<!-- Generated by graphviz version 2.43.0 (0)
 -->
<!-- Title: %3 Pages: 1 -->
<svg width="824pt" height="429pt"
 viewBox="0.00 0.00 824.00 429.04" xmlns="http://www.w3.org/2000/svg" xmlns:xlink="http://www.w3.org/1999/xlink">
<g id="graph0" class="graph" transform="scale(1 1) rotate(0) translate(4 425.04)">
<title>%3</title>
<polygon fill="white" stroke="transparent" points="-4,4 -4,-425.04 820,-425.04 820,4 -4,4"/>
<!-- node_0 -->
<g id="node1" class="node">
<title>node_0</title>
<polygon fill="none" stroke="black" points="587,-328.04 465,-328.04 465,-292.04 587,-292.04 587,-328.04"/>
<text text-anchor="start" x="510.5" y="-313.44" font-family="Fira Mono Medium" font-weight="bold" font-size="12.00">bank</text>
<text text-anchor="start" x="473" y="-301.44" font-family="Fira Mono Medium" font-style="italic" font-size="12.00">location:</text>
<text text-anchor="start" x="541" y="-301.44" font-family="Fira Mono Medium" font-size="12.00"> left</text>
</g>
<!-- node_1 -->
<g id="node2" class="node">
<title>node_1</title>
<polygon fill="none" stroke="black" points="816,-243.04 686,-243.04 686,-207.04 816,-207.04 816,-243.04"/>
<text text-anchor="start" x="735.5" y="-228.44" font-family="Fira Mono Medium" font-weight="bold" font-size="12.00">bank</text>
<text text-anchor="start" x="694" y="-216.44" font-family="Fira Mono Medium" font-style="italic" font-size="12.00">location:</text>
<text text-anchor="start" x="762" y="-216.44" font-family="Fira Mono Medium" font-size="12.00"> right</text>
</g>
<!-- node_0&#45;&gt;node_1 -->
<g id="edge1" class="edge">
<title>node_0&#45;&gt;node_1</title>
<path fill="none" stroke="black" d="M570.63,-291.93C584.17,-286.4 599.16,-280.38 613,-275.04 637.91,-265.43 665.55,-255.25 689.44,-246.61"/>
<polygon fill="black" stroke="black" points="690.87,-249.81 699.09,-243.12 688.49,-243.23 690.87,-249.81"/>
<text text-anchor="middle" x="640.5" y="-278.04" font-family="Fira Mono Medium" font-size="10.00">not&#45;equal</text>
</g>
<!-- node_1&#45;&gt;node_0 -->
<g id="edge2" class="edge">
<title>node_1&#45;&gt;node_0</title>
<path fill="none" stroke="black" d="M731.1,-243.23C715.46,-257.2 691.98,-275.79 668,-286.04 645.92,-295.48 620.41,-301.22 597.2,-304.7"/>
<polygon fill="black" stroke="black" points="596.5,-301.26 587.07,-306.1 597.46,-308.19 596.5,-301.26"/>
<text text-anchor="middle" x="640.5" y="-304.04" font-family="Fira Mono Medium" font-size="10.00">not&#45;equal</text>
</g>
<!-- node_2 -->
<g id="node3" class="node">
<title>node_2</title>
<polygon fill="none" stroke="black" points="324.5,-421.04 270.5,-421.04 270.5,-385.04 324.5,-385.04 324.5,-421.04"/>
<text text-anchor="start" x="282" y="-400.94" font-family="Fira Mono Medium" font-weight="bold" font-size="12.00">boat</text>
</g>
<!-- node_2&#45;&gt;node_0 -->
<g id="edge3" class="edge">
<title>node_2&#45;&gt;node_0</title>
<path fill="none" stroke="black" d="M324.62,-400.49C353.6,-396.94 401.27,-388.93 439,-372.04 460.03,-362.63 481.06,-347.6 497.05,-334.69"/>
<polygon fill="black" stroke="black" points="499.46,-337.25 504.93,-328.18 495,-331.85 499.46,-337.25"/>
<text text-anchor="middle" x="411.5" y="-392.04" font-family="Fira Mono Medium" font-size="10.00">at</text>
</g>
<!-- node_3 -->
<g id="node4" class="node">
<title>node_3</title>
<polygon fill="none" stroke="black" points="362.5,-314.04 232.5,-314.04 232.5,-270.04 362.5,-270.04 362.5,-314.04"/>
<text text-anchor="start" x="278.5" y="-301.44" font-family="Fira Mono Medium" font-weight="bold" font-size="12.00">human</text>
<text text-anchor="start" x="244.5" y="-289.44" font-family="Fira Mono Medium" font-style="italic" font-size="12.00">kind:</text>
<text text-anchor="start" x="282.5" y="-289.44" font-family="Fira Mono Medium" font-size="12.00"> cannibal</text>
<text text-anchor="start" x="240.5" y="-277.44" font-family="Fira Mono Medium" font-style="italic" font-size="12.00">can&#45;drive:</text>
<text text-anchor="start" x="316.5" y="-277.44" font-family="Fira Mono Medium" font-size="12.00"> true</text>
</g>
<!-- node_3&#45;&gt;node_0 -->
<g id="edge6" class="edge">
<title>node_3&#45;&gt;node_0</title>
<path fill="none" stroke="black" d="M362.9,-299.11C370.02,-299.8 377.16,-300.47 384,-301.04 407,-302.99 432.14,-304.72 454.74,-306.13"/>
<polygon fill="black" stroke="black" points="454.73,-309.64 464.93,-306.76 455.16,-302.65 454.73,-309.64"/>
<text text-anchor="middle" x="411.5" y="-308.04" font-family="Fira Mono Medium" font-size="10.00">at</text>
</g>
<!-- node_4 -->
<g id="node5" class="node">
<title>node_4</title>
<polygon fill="none" stroke="black" points="138,-296.04 0,-296.04 0,-252.04 138,-252.04 138,-296.04"/>
<text text-anchor="start" x="50" y="-283.44" font-family="Fira Mono Medium" font-weight="bold" font-size="12.00">human</text>
<text text-anchor="start" x="16" y="-271.44" font-family="Fira Mono Medium" font-style="italic" font-size="12.00">kind:</text>
<text text-anchor="start" x="54" y="-271.44" font-family="Fira Mono Medium" font-size="12.00"> cannibal</text>
<text text-anchor="start" x="8" y="-259.44" font-family="Fira Mono Medium" font-style="italic" font-size="12.00">can&#45;drive:</text>
<text text-anchor="start" x="84" y="-259.44" font-family="Fira Mono Medium" font-size="12.00"> false</text>
</g>
<!-- node_3&#45;&gt;node_4 -->
<g id="edge4" class="edge">
<title>node_3&#45;&gt;node_4</title>
<path fill="none" stroke="black" d="M232.42,-290.6C208.41,-289.72 180.92,-288.31 156,-286.04 153.5,-285.82 150.97,-285.57 148.41,-285.3"/>
<polygon fill="black" stroke="black" points="148.79,-281.82 138.47,-284.2 148.02,-288.78 148.79,-281.82"/>
<text text-anchor="middle" x="183.5" y="-292.04" font-family="Fira Mono Medium" font-size="10.00">not&#45;equal</text>
</g>
<!-- node_5 -->
<g id="node6" class="node">
<title>node_5</title>
<polygon fill="none" stroke="black" points="595,-247.04 457,-247.04 457,-203.04 595,-203.04 595,-247.04"/>
<text text-anchor="start" x="507" y="-234.44" font-family="Fira Mono Medium" font-weight="bold" font-size="12.00">human</text>
<text text-anchor="start" x="473" y="-222.44" font-family="Fira Mono Medium" font-style="italic" font-size="12.00">kind:</text>
<text text-anchor="start" x="511" y="-222.44" font-family="Fira Mono Medium" font-size="12.00"> cannibal</text>
<text text-anchor="start" x="465" y="-210.44" font-family="Fira Mono Medium" font-style="italic" font-size="12.00">can&#45;drive:</text>
<text text-anchor="start" x="541" y="-210.44" font-family="Fira Mono Medium" font-size="12.00"> false</text>
</g>
<!-- node_3&#45;&gt;node_5 -->
<g id="edge5" class="edge">
<title>node_3&#45;&gt;node_5</title>
<path fill="none" stroke="black" d="M362.72,-284.46C386.99,-280.6 414.62,-274.99 439,-267.04 451.59,-262.94 464.67,-257.32 476.72,-251.53"/>
<polygon fill="black" stroke="black" points="478.3,-254.65 485.71,-247.09 475.2,-248.38 478.3,-254.65"/>
<text text-anchor="middle" x="411.5" y="-283.04" font-family="Fira Mono Medium" font-size="10.00">not&#45;equal</text>
</g>
<!-- node_4&#45;&gt;node_1 -->
<g id="edge9" class="edge">
<title>node_4&#45;&gt;node_1</title>
<path fill="none" stroke="black" d="M127.59,-296.09C157.38,-306.39 194.63,-317.57 229,-323.04 389.76,-348.65 433.81,-359.77 595,-337.04 628.43,-332.33 639.37,-333.94 668,-316.04 694.51,-299.47 717.61,-271.93 732.48,-251.47"/>
<polygon fill="black" stroke="black" points="735.42,-253.38 738.33,-243.2 729.7,-249.34 735.42,-253.38"/>
<text text-anchor="middle" x="411.5" y="-352.04" font-family="Fira Mono Medium" font-size="10.00">at</text>
</g>
<!-- node_4&#45;&gt;node_3 -->
<g id="edge7" class="edge">
<title>node_4&#45;&gt;node_3</title>
<path fill="none" stroke="black" d="M138.29,-270.37C161.44,-269.97 187.4,-270.45 211,-273.04 214.69,-273.45 218.46,-273.95 222.26,-274.53"/>
<polygon fill="black" stroke="black" points="221.89,-278.01 232.33,-276.2 223.04,-271.11 221.89,-278.01"/>
<text text-anchor="middle" x="183.5" y="-276.04" font-family="Fira Mono Medium" font-size="10.00">not&#45;equal</text>
</g>
<!-- node_4&#45;&gt;node_5 -->
<g id="edge8" class="edge">
<title>node_4&#45;&gt;node_5</title>
<path fill="none" stroke="black" d="M105.87,-251.87C120.94,-243.24 138.92,-233.82 156,-227.04 187.17,-214.69 195.75,-212.3 229,-208.04 321.58,-196.19 346.11,-198.95 439,-208.04 441.52,-208.29 444.07,-208.58 446.65,-208.9"/>
<polygon fill="black" stroke="black" points="446.26,-212.38 456.64,-210.28 447.22,-205.44 446.26,-212.38"/>
<text text-anchor="middle" x="297.5" y="-211.04" font-family="Fira Mono Medium" font-size="10.00">not&#45;equal</text>
</g>
<!-- node_5&#45;&gt;node_1 -->
<g id="edge12" class="edge">
<title>node_5&#45;&gt;node_1</title>
<path fill="none" stroke="black" d="M595.12,-225.04C620.56,-225.04 649.57,-225.04 675.56,-225.04"/>
<polygon fill="black" stroke="black" points="675.73,-228.54 685.73,-225.04 675.73,-221.54 675.73,-228.54"/>
<text text-anchor="middle" x="640.5" y="-228.04" font-family="Fira Mono Medium" font-size="10.00">at</text>
</g>
<!-- node_5&#45;&gt;node_3 -->
<g id="edge10" class="edge">
<title>node_5&#45;&gt;node_3</title>
<path fill="none" stroke="black" d="M456.82,-236C433.45,-240.56 407.32,-246.56 384,-254.04 373.7,-257.35 362.97,-261.51 352.73,-265.85"/>
<polygon fill="black" stroke="black" points="351.27,-262.67 343.49,-269.87 354.06,-269.09 351.27,-262.67"/>
<text text-anchor="middle" x="411.5" y="-257.04" font-family="Fira Mono Medium" font-size="10.00">not&#45;equal</text>
</g>
<!-- node_5&#45;&gt;node_4 -->
<g id="edge11" class="edge">
<title>node_5&#45;&gt;node_4</title>
<path fill="none" stroke="black" d="M456.85,-230.19C433.72,-231.98 407.73,-234.05 384,-236.04 315.07,-241.84 297.67,-241.77 229,-250.04 202.7,-253.21 174.04,-257.33 148.4,-261.26"/>
<polygon fill="black" stroke="black" points="147.71,-257.82 138.36,-262.81 148.78,-264.74 147.71,-257.82"/>
<text text-anchor="middle" x="297.5" y="-253.04" font-family="Fira Mono Medium" font-size="10.00">not&#45;equal</text>
</g>
<!-- node_6 -->
<g id="node7" class="node">
<title>node_6</title>
<polygon fill="none" stroke="black" points="137.5,-105.04 0.5,-105.04 0.5,-61.04 137.5,-61.04 137.5,-105.04"/>
<text text-anchor="start" x="50" y="-92.44" font-family="Fira Mono Medium" font-weight="bold" font-size="12.00">human</text>
<text text-anchor="start" x="8.5" y="-80.44" font-family="Fira Mono Medium" font-style="italic" font-size="12.00">kind:</text>
<text text-anchor="start" x="46.5" y="-80.44" font-family="Fira Mono Medium" font-size="12.00"> missionary</text>
<text text-anchor="start" x="12" y="-68.44" font-family="Fira Mono Medium" font-style="italic" font-size="12.00">can&#45;drive:</text>
<text text-anchor="start" x="88" y="-68.44" font-family="Fira Mono Medium" font-size="12.00"> true</text>
</g>
<!-- node_6&#45;&gt;node_1 -->
<g id="edge15" class="edge">
<title>node_6&#45;&gt;node_1</title>
<path fill="none" stroke="black" d="M137.69,-97.18C265.7,-123.91 542.35,-181.68 675.47,-209.48"/>
<polygon fill="black" stroke="black" points="675.07,-212.97 685.58,-211.59 676.5,-206.12 675.07,-212.97"/>
<text text-anchor="middle" x="411.5" y="-161.04" font-family="Fira Mono Medium" font-size="10.00">at</text>
</g>
<!-- node_7 -->
<g id="node8" class="node">
<title>node_7</title>
<polygon fill="none" stroke="black" points="366,-73.04 229,-73.04 229,-29.04 366,-29.04 366,-73.04"/>
<text text-anchor="start" x="278.5" y="-60.44" font-family="Fira Mono Medium" font-weight="bold" font-size="12.00">human</text>
<text text-anchor="start" x="237" y="-48.44" font-family="Fira Mono Medium" font-style="italic" font-size="12.00">kind:</text>
<text text-anchor="start" x="275" y="-48.44" font-family="Fira Mono Medium" font-size="12.00"> missionary</text>
<text text-anchor="start" x="240.5" y="-36.44" font-family="Fira Mono Medium" font-style="italic" font-size="12.00">can&#45;drive:</text>
<text text-anchor="start" x="316.5" y="-36.44" font-family="Fira Mono Medium" font-size="12.00"> true</text>
</g>
<!-- node_6&#45;&gt;node_7 -->
<g id="edge13" class="edge">
<title>node_6&#45;&gt;node_7</title>
<path fill="none" stroke="black" d="M118.22,-61C130.3,-56.47 143.42,-52.37 156,-50.04 176.11,-46.32 198.11,-45.14 218.62,-45.24"/>
<polygon fill="black" stroke="black" points="218.81,-48.74 228.87,-45.39 218.92,-41.74 218.81,-48.74"/>
<text text-anchor="middle" x="183.5" y="-53.04" font-family="Fira Mono Medium" font-size="10.00">not&#45;equal</text>
</g>
<!-- node_8 -->
<g id="node9" class="node">
<title>node_8</title>
<polygon fill="none" stroke="black" points="594.5,-48.04 457.5,-48.04 457.5,-4.04 594.5,-4.04 594.5,-48.04"/>
<text text-anchor="start" x="507" y="-35.44" font-family="Fira Mono Medium" font-weight="bold" font-size="12.00">human</text>
<text text-anchor="start" x="465.5" y="-23.44" font-family="Fira Mono Medium" font-style="italic" font-size="12.00">kind:</text>
<text text-anchor="start" x="503.5" y="-23.44" font-family="Fira Mono Medium" font-size="12.00"> missionary</text>
<text text-anchor="start" x="469" y="-11.44" font-family="Fira Mono Medium" font-style="italic" font-size="12.00">can&#45;drive:</text>
<text text-anchor="start" x="545" y="-11.44" font-family="Fira Mono Medium" font-size="12.00"> true</text>
</g>
<!-- node_6&#45;&gt;node_8 -->
<g id="edge14" class="edge">
<title>node_6&#45;&gt;node_8</title>
<path fill="none" stroke="black" d="M104.98,-61.03C136.14,-42.84 183.7,-18.54 229,-9.04 301.87,6.23 386.88,-1.18 447.05,-10.52"/>
<polygon fill="black" stroke="black" points="446.81,-14.03 457.24,-12.16 447.92,-7.12 446.81,-14.03"/>
<text text-anchor="middle" x="297.5" y="-12.04" font-family="Fira Mono Medium" font-size="10.00">not&#45;equal</text>
</g>
<!-- node_7&#45;&gt;node_1 -->
<g id="edge18" class="edge">
<title>node_7&#45;&gt;node_1</title>
<path fill="none" stroke="black" d="M366.05,-61.18C458.13,-75.84 617.42,-104.46 668,-134.04 695.15,-149.92 718.29,-177.82 733,-198.55"/>
<polygon fill="black" stroke="black" points="730.22,-200.69 738.77,-206.94 735.99,-196.72 730.22,-200.69"/>
<text text-anchor="middle" x="526" y="-109.04" font-family="Fira Mono Medium" font-size="10.00">at</text>
</g>
<!-- node_7&#45;&gt;node_6 -->
<g id="edge16" class="edge">
<title>node_7&#45;&gt;node_6</title>
<path fill="none" stroke="black" d="M228.81,-60.61C203.26,-64.22 174,-68.35 147.61,-72.08"/>
<polygon fill="black" stroke="black" points="147.06,-68.62 137.65,-73.49 148.04,-75.55 147.06,-68.62"/>
<text text-anchor="middle" x="183.5" y="-73.04" font-family="Fira Mono Medium" font-size="10.00">not&#45;equal</text>
</g>
<!-- node_7&#45;&gt;node_8 -->
<g id="edge17" class="edge">
<title>node_7&#45;&gt;node_8</title>
<path fill="none" stroke="black" d="M366.05,-43.96C389.19,-41.5 415.23,-38.69 439,-36.04 441.71,-35.74 444.46,-35.43 447.25,-35.12"/>
<polygon fill="black" stroke="black" points="447.86,-38.57 457.4,-33.96 447.07,-31.62 447.86,-38.57"/>
<text text-anchor="middle" x="411.5" y="-44.04" font-family="Fira Mono Medium" font-size="10.00">not&#45;equal</text>
</g>
<!-- node_8&#45;&gt;node_1 -->
<g id="edge21" class="edge">
<title>node_8&#45;&gt;node_1</title>
<path fill="none" stroke="black" d="M594.72,-29.81C619.89,-34.13 647.32,-42.63 668,-59.04 712.41,-94.3 734.56,-159.79 744.03,-197.11"/>
<polygon fill="black" stroke="black" points="740.63,-197.94 746.37,-206.84 747.43,-196.3 740.63,-197.94"/>
<text text-anchor="middle" x="640.5" y="-62.04" font-family="Fira Mono Medium" font-size="10.00">at</text>
</g>
<!-- node_8&#45;&gt;node_6 -->
<g id="edge19" class="edge">
<title>node_8&#45;&gt;node_6</title>
<path fill="none" stroke="black" d="M475.28,-48.18C444.48,-60.71 403.73,-75.22 366,-82.04 274.15,-98.66 249.34,-86.13 156,-85.04 153.29,-85.01 150.54,-84.98 147.76,-84.93"/>
<polygon fill="black" stroke="black" points="147.66,-81.43 137.6,-84.76 147.54,-88.43 147.66,-81.43"/>
<text text-anchor="middle" x="297.5" y="-93.04" font-family="Fira Mono Medium" font-size="10.00">not&#45;equal</text>
</g>
<!-- node_8&#45;&gt;node_7 -->
<g id="edge20" class="edge">
<title>node_8&#45;&gt;node_7</title>
<path fill="none" stroke="black" d="M457.25,-19.71C433.91,-18.82 407.7,-19.26 384,-23.04 378.6,-23.91 373.08,-25.05 367.57,-26.4"/>
<polygon fill="black" stroke="black" points="366.48,-23.07 357.7,-29 368.26,-29.83 366.48,-23.07"/>
<text text-anchor="middle" x="411.5" y="-26.04" font-family="Fira Mono Medium" font-size="10.00">not&#45;equal</text>
</g>
</g>
</svg>
