<?xml version="1.0" encoding="UTF-8" standalone="no"?>
<!DOCTYPE svg PUBLIC "-//W3C//DTD SVG 1.1//EN"
 "http://www.w3.org/Graphics/SVG/1.1/DTD/svg11.dtd">
<!-- Generated by graphviz version 2.43.0 (0)
 -->
<!-- Title: %3 Pages: 1 -->
<svg width="995pt" height="393pt"
 viewBox="0.00 0.00 995.00 393.47" xmlns="http://www.w3.org/2000/svg" xmlns:xlink="http://www.w3.org/1999/xlink">
<g id="graph0" class="graph" transform="scale(1 1) rotate(0) translate(4 389.47)">
<title>%3</title>
<polygon fill="white" stroke="transparent" points="-4,4 -4,-389.47 991,-389.47 991,4 -4,4"/>
<!-- node_0 -->
<g id="node1" class="node">
<title>node_0</title>
<polygon fill="none" stroke="black" points="766,-199.47 644,-199.47 644,-163.47 766,-163.47 766,-199.47"/>
<text text-anchor="start" x="689.5" y="-184.87" font-family="Fira Mono Medium" font-weight="bold" font-size="12.00">bank</text>
<text text-anchor="start" x="652" y="-172.87" font-family="Fira Mono Medium" font-style="italic" font-size="12.00">location:</text>
<text text-anchor="start" x="720" y="-172.87" font-family="Fira Mono Medium" font-size="12.00"> left</text>
</g>
<!-- node_1 -->
<g id="node2" class="node">
<title>node_1</title>
<polygon fill="none" stroke="black" points="987,-233.47 857,-233.47 857,-197.47 987,-197.47 987,-233.47"/>
<text text-anchor="start" x="906.5" y="-218.87" font-family="Fira Mono Medium" font-weight="bold" font-size="12.00">bank</text>
<text text-anchor="start" x="865" y="-206.87" font-family="Fira Mono Medium" font-style="italic" font-size="12.00">location:</text>
<text text-anchor="start" x="933" y="-206.87" font-family="Fira Mono Medium" font-size="12.00"> right</text>
</g>
<!-- node_0&#45;&gt;node_1 -->
<g id="edge1" class="edge">
<title>node_0&#45;&gt;node_1</title>
<path fill="none" stroke="black" d="M766.07,-177.18C789.07,-176.77 815.44,-177.81 839,-182.47 851,-184.84 863.47,-188.93 874.96,-193.44"/>
<polygon fill="black" stroke="black" points="873.77,-196.74 884.35,-197.3 876.43,-190.26 873.77,-196.74"/>
<text text-anchor="middle" x="811.5" y="-185.47" font-family="Fira Mono Medium" font-size="10.00">not&#45;equal</text>
</g>
<!-- node_1&#45;&gt;node_0 -->
<g id="edge2" class="edge">
<title>node_1&#45;&gt;node_0</title>
<path fill="none" stroke="black" d="M856.7,-205.3C831.37,-201.29 802.19,-196.68 776.3,-192.58"/>
<polygon fill="black" stroke="black" points="776.6,-189.09 766.18,-190.98 775.51,-196 776.6,-189.09"/>
<text text-anchor="middle" x="811.5" y="-204.47" font-family="Fira Mono Medium" font-size="10.00">not&#45;equal</text>
</g>
<!-- node_2 -->
<g id="node3" class="node">
<title>node_2</title>
<polygon fill="none" stroke="black" points="553,-145.47 499,-145.47 499,-109.47 553,-109.47 553,-145.47"/>
<text text-anchor="start" x="510.5" y="-125.37" font-family="Fira Mono Medium" font-weight="bold" font-size="12.00">boat</text>
</g>
<!-- node_2&#45;&gt;node_0 -->
<g id="edge3" class="edge">
<title>node_2&#45;&gt;node_0</title>
<path fill="none" stroke="black" d="M553.11,-134.92C573.1,-140.67 601.34,-148.9 626,-156.47 630.05,-157.71 634.22,-159 638.42,-160.32"/>
<polygon fill="black" stroke="black" points="637.65,-163.74 648.24,-163.41 639.75,-157.06 637.65,-163.74"/>
<text text-anchor="middle" x="619.5" y="-159.47" font-family="Fira Mono Medium" font-size="10.00">at</text>
</g>
<!-- node_3 -->
<g id="node4" class="node">
<title>node_3</title>
<polygon fill="none" stroke="black" points="362.5,-324.47 232.5,-324.47 232.5,-280.47 362.5,-280.47 362.5,-324.47"/>
<text text-anchor="start" x="278.5" y="-311.87" font-family="Fira Mono Medium" font-weight="bold" font-size="12.00">human</text>
<text text-anchor="start" x="244.5" y="-299.87" font-family="Fira Mono Medium" font-style="italic" font-size="12.00">kind:</text>
<text text-anchor="start" x="282.5" y="-299.87" font-family="Fira Mono Medium" font-size="12.00"> cannibal</text>
<text text-anchor="start" x="240.5" y="-287.87" font-family="Fira Mono Medium" font-style="italic" font-size="12.00">can&#45;drive:</text>
<text text-anchor="start" x="316.5" y="-287.87" font-family="Fira Mono Medium" font-size="12.00"> true</text>
</g>
<!-- node_3&#45;&gt;node_0 -->
<g id="edge6" class="edge">
<title>node_3&#45;&gt;node_0</title>
<path fill="none" stroke="black" d="M362.91,-306.64C370.02,-306.98 377.16,-307.27 384,-307.47 479.58,-310.26 509.31,-307.9 595,-265.47 626.13,-250.05 657.07,-225.04 677.99,-206.31"/>
<polygon fill="black" stroke="black" points="680.45,-208.8 685.49,-199.48 675.74,-203.63 680.45,-208.8"/>
<text text-anchor="middle" x="526" y="-310.47" font-family="Fira Mono Medium" font-size="10.00">at</text>
</g>
<!-- node_4 -->
<g id="node5" class="node">
<title>node_4</title>
<polygon fill="none" stroke="black" points="595,-256.47 457,-256.47 457,-212.47 595,-212.47 595,-256.47"/>
<text text-anchor="start" x="507" y="-243.87" font-family="Fira Mono Medium" font-weight="bold" font-size="12.00">human</text>
<text text-anchor="start" x="473" y="-231.87" font-family="Fira Mono Medium" font-style="italic" font-size="12.00">kind:</text>
<text text-anchor="start" x="511" y="-231.87" font-family="Fira Mono Medium" font-size="12.00"> cannibal</text>
<text text-anchor="start" x="465" y="-219.87" font-family="Fira Mono Medium" font-style="italic" font-size="12.00">can&#45;drive:</text>
<text text-anchor="start" x="541" y="-219.87" font-family="Fira Mono Medium" font-size="12.00"> false</text>
</g>
<!-- node_3&#45;&gt;node_4 -->
<g id="edge4" class="edge">
<title>node_3&#45;&gt;node_4</title>
<path fill="none" stroke="black" d="M350.53,-280.42C361.48,-276.16 373.04,-271.95 384,-268.47 404.11,-262.08 426.16,-256.23 446.73,-251.25"/>
<polygon fill="black" stroke="black" points="447.77,-254.6 456.69,-248.88 446.15,-247.79 447.77,-254.6"/>
<text text-anchor="middle" x="411.5" y="-271.47" font-family="Fira Mono Medium" font-size="10.00">not&#45;equal</text>
</g>
<!-- node_5 -->
<g id="node6" class="node">
<title>node_5</title>
<polygon fill="none" stroke="black" points="138,-306.47 0,-306.47 0,-262.47 138,-262.47 138,-306.47"/>
<text text-anchor="start" x="50" y="-293.87" font-family="Fira Mono Medium" font-weight="bold" font-size="12.00">human</text>
<text text-anchor="start" x="16" y="-281.87" font-family="Fira Mono Medium" font-style="italic" font-size="12.00">kind:</text>
<text text-anchor="start" x="54" y="-281.87" font-family="Fira Mono Medium" font-size="12.00"> cannibal</text>
<text text-anchor="start" x="8" y="-269.87" font-family="Fira Mono Medium" font-style="italic" font-size="12.00">can&#45;drive:</text>
<text text-anchor="start" x="84" y="-269.87" font-family="Fira Mono Medium" font-size="12.00"> false</text>
</g>
<!-- node_3&#45;&gt;node_5 -->
<g id="edge5" class="edge">
<title>node_3&#45;&gt;node_5</title>
<path fill="none" stroke="black" d="M232.42,-301.03C208.41,-300.15 180.92,-298.73 156,-296.47 153.5,-296.24 150.97,-295.99 148.41,-295.73"/>
<polygon fill="black" stroke="black" points="148.79,-292.25 138.47,-294.62 148.02,-299.2 148.79,-292.25"/>
<text text-anchor="middle" x="183.5" y="-302.47" font-family="Fira Mono Medium" font-size="10.00">not&#45;equal</text>
</g>
<!-- node_4&#45;&gt;node_0 -->
<g id="edge9" class="edge">
<title>node_4&#45;&gt;node_0</title>
<path fill="none" stroke="black" d="M595.18,-214.05C607.98,-210.22 621.39,-206.2 634.24,-202.35"/>
<polygon fill="black" stroke="black" points="635.37,-205.67 643.94,-199.45 633.36,-198.97 635.37,-205.67"/>
<text text-anchor="middle" x="619.5" y="-210.47" font-family="Fira Mono Medium" font-size="10.00">at</text>
</g>
<!-- node_4&#45;&gt;node_3 -->
<g id="edge7" class="edge">
<title>node_4&#45;&gt;node_3</title>
<path fill="none" stroke="black" d="M488.89,-256.65C473.93,-264.96 456.1,-273.76 439,-279.47 418.05,-286.46 394.61,-291.37 372.97,-294.81"/>
<polygon fill="black" stroke="black" points="372.21,-291.38 362.84,-296.33 373.25,-298.3 372.21,-291.38"/>
<text text-anchor="middle" x="411.5" y="-295.47" font-family="Fira Mono Medium" font-size="10.00">not&#45;equal</text>
</g>
<!-- node_4&#45;&gt;node_5 -->
<g id="edge8" class="edge">
<title>node_4&#45;&gt;node_5</title>
<path fill="none" stroke="black" d="M456.9,-220.79C380.67,-208.65 254.86,-198.28 156,-237.47 142.12,-242.97 127.65,-250.22 114.63,-257.38"/>
<polygon fill="black" stroke="black" points="112.88,-254.35 105.87,-262.29 116.3,-260.45 112.88,-254.35"/>
<text text-anchor="middle" x="297.5" y="-219.47" font-family="Fira Mono Medium" font-size="10.00">not&#45;equal</text>
</g>
<!-- node_5&#45;&gt;node_1 -->
<g id="edge12" class="edge">
<title>node_5&#45;&gt;node_1</title>
<path fill="none" stroke="black" d="M102.53,-306.48C145.15,-333.13 223.09,-374.47 296.5,-374.47 296.5,-374.47 296.5,-374.47 706,-374.47 794.1,-374.47 869.73,-287.09 902.96,-241.89"/>
<polygon fill="black" stroke="black" points="905.85,-243.87 908.85,-233.71 900.17,-239.78 905.85,-243.87"/>
<text text-anchor="middle" x="526" y="-377.47" font-family="Fira Mono Medium" font-size="10.00">at</text>
</g>
<!-- node_5&#45;&gt;node_3 -->
<g id="edge10" class="edge">
<title>node_5&#45;&gt;node_3</title>
<path fill="none" stroke="black" d="M138.29,-280.79C161.44,-280.39 187.4,-280.88 211,-283.47 214.69,-283.87 218.46,-284.37 222.26,-284.95"/>
<polygon fill="black" stroke="black" points="221.89,-288.43 232.33,-286.63 223.04,-281.53 221.89,-288.43"/>
<text text-anchor="middle" x="183.5" y="-286.47" font-family="Fira Mono Medium" font-size="10.00">not&#45;equal</text>
</g>
<!-- node_5&#45;&gt;node_4 -->
<g id="edge11" class="edge">
<title>node_5&#45;&gt;node_4</title>
<path fill="none" stroke="black" d="M138.35,-273.2C166.39,-268.82 199.2,-264.02 229,-260.47 302.72,-251.67 387.11,-244.55 446.87,-240"/>
<polygon fill="black" stroke="black" points="447.28,-243.48 456.98,-239.23 446.75,-236.5 447.28,-243.48"/>
<text text-anchor="middle" x="297.5" y="-263.47" font-family="Fira Mono Medium" font-size="10.00">not&#45;equal</text>
</g>
<!-- node_6 -->
<g id="node7" class="node">
<title>node_6</title>
<polygon fill="none" stroke="black" points="137.5,-96.47 0.5,-96.47 0.5,-52.47 137.5,-52.47 137.5,-96.47"/>
<text text-anchor="start" x="50" y="-83.87" font-family="Fira Mono Medium" font-weight="bold" font-size="12.00">human</text>
<text text-anchor="start" x="8.5" y="-71.87" font-family="Fira Mono Medium" font-style="italic" font-size="12.00">kind:</text>
<text text-anchor="start" x="46.5" y="-71.87" font-family="Fira Mono Medium" font-size="12.00"> missionary</text>
<text text-anchor="start" x="12" y="-59.87" font-family="Fira Mono Medium" font-style="italic" font-size="12.00">can&#45;drive:</text>
<text text-anchor="start" x="88" y="-59.87" font-family="Fira Mono Medium" font-size="12.00"> true</text>
</g>
<!-- node_6&#45;&gt;node_0 -->
<g id="edge15" class="edge">
<title>node_6&#45;&gt;node_0</title>
<path fill="none" stroke="black" d="M128.06,-52.34C228.97,-17.69 440.67,37.95 595,-38.47 643.5,-62.48 676.31,-119.56 692.43,-153.9"/>
<polygon fill="black" stroke="black" points="689.39,-155.69 696.71,-163.35 695.77,-152.8 689.39,-155.69"/>
<text text-anchor="middle" x="411.5" y="-4.47" font-family="Fira Mono Medium" font-size="10.00">at</text>
</g>
<!-- node_7 -->
<g id="node8" class="node">
<title>node_7</title>
<polygon fill="none" stroke="black" points="366,-163.47 229,-163.47 229,-119.47 366,-119.47 366,-163.47"/>
<text text-anchor="start" x="278.5" y="-150.87" font-family="Fira Mono Medium" font-weight="bold" font-size="12.00">human</text>
<text text-anchor="start" x="237" y="-138.87" font-family="Fira Mono Medium" font-style="italic" font-size="12.00">kind:</text>
<text text-anchor="start" x="275" y="-138.87" font-family="Fira Mono Medium" font-size="12.00"> missionary</text>
<text text-anchor="start" x="240.5" y="-126.87" font-family="Fira Mono Medium" font-style="italic" font-size="12.00">can&#45;drive:</text>
<text text-anchor="start" x="316.5" y="-126.87" font-family="Fira Mono Medium" font-size="12.00"> true</text>
</g>
<!-- node_6&#45;&gt;node_7 -->
<g id="edge13" class="edge">
<title>node_6&#45;&gt;node_7</title>
<path fill="none" stroke="black" d="M105.67,-96.48C120.71,-104.86 138.72,-113.76 156,-119.47 175.95,-126.05 198.15,-130.68 218.92,-133.94"/>
<polygon fill="black" stroke="black" points="218.57,-137.43 228.98,-135.43 219.6,-130.51 218.57,-137.43"/>
<text text-anchor="middle" x="183.5" y="-134.47" font-family="Fira Mono Medium" font-size="10.00">not&#45;equal</text>
</g>
<!-- node_8 -->
<g id="node9" class="node">
<title>node_8</title>
<polygon fill="none" stroke="black" points="594.5,-91.47 457.5,-91.47 457.5,-47.47 594.5,-47.47 594.5,-91.47"/>
<text text-anchor="start" x="507" y="-78.87" font-family="Fira Mono Medium" font-weight="bold" font-size="12.00">human</text>
<text text-anchor="start" x="465.5" y="-66.87" font-family="Fira Mono Medium" font-style="italic" font-size="12.00">kind:</text>
<text text-anchor="start" x="503.5" y="-66.87" font-family="Fira Mono Medium" font-size="12.00"> missionary</text>
<text text-anchor="start" x="469" y="-54.87" font-family="Fira Mono Medium" font-style="italic" font-size="12.00">can&#45;drive:</text>
<text text-anchor="start" x="545" y="-54.87" font-family="Fira Mono Medium" font-size="12.00"> true</text>
</g>
<!-- node_6&#45;&gt;node_8 -->
<g id="edge14" class="edge">
<title>node_6&#45;&gt;node_8</title>
<path fill="none" stroke="black" d="M137.63,-73.72C220.38,-72.81 360.19,-71.28 447.28,-70.32"/>
<polygon fill="black" stroke="black" points="447.41,-73.82 457.37,-70.21 447.34,-66.82 447.41,-73.82"/>
<text text-anchor="middle" x="297.5" y="-75.47" font-family="Fira Mono Medium" font-size="10.00">not&#45;equal</text>
</g>
<!-- node_7&#45;&gt;node_0 -->
<g id="edge18" class="edge">
<title>node_7&#45;&gt;node_0</title>
<path fill="none" stroke="black" d="M366.16,-149.52C372.19,-150.2 378.2,-150.86 384,-151.47 469.86,-160.51 568.82,-169.58 633.69,-175.34"/>
<polygon fill="black" stroke="black" points="633.53,-178.84 643.8,-176.24 634.15,-171.87 633.53,-178.84"/>
<text text-anchor="middle" x="526" y="-174.47" font-family="Fira Mono Medium" font-size="10.00">at</text>
</g>
<!-- node_7&#45;&gt;node_6 -->
<g id="edge16" class="edge">
<title>node_7&#45;&gt;node_6</title>
<path fill="none" stroke="black" d="M246.37,-119.33C234.88,-114.71 222.62,-110.14 211,-106.47 190.65,-100.04 168.26,-94.35 147.43,-89.62"/>
<polygon fill="black" stroke="black" points="148.19,-86.2 137.67,-87.45 146.67,-93.04 148.19,-86.2"/>
<text text-anchor="middle" x="183.5" y="-109.47" font-family="Fira Mono Medium" font-size="10.00">not&#45;equal</text>
</g>
<!-- node_7&#45;&gt;node_8 -->
<g id="edge17" class="edge">
<title>node_7&#45;&gt;node_8</title>
<path fill="none" stroke="black" d="M366.01,-139.84C390.14,-137 416.82,-131.12 439,-119.47 449.3,-114.05 447.53,-107.23 457,-100.47 458.8,-99.18 460.67,-97.93 462.57,-96.71"/>
<polygon fill="black" stroke="black" points="464.37,-99.71 471.19,-91.6 460.8,-93.69 464.37,-99.71"/>
<text text-anchor="middle" x="411.5" y="-139.47" font-family="Fira Mono Medium" font-size="10.00">not&#45;equal</text>
</g>
<!-- node_8&#45;&gt;node_0 -->
<g id="edge21" class="edge">
<title>node_8&#45;&gt;node_0</title>
<path fill="none" stroke="black" d="M578.47,-91.52C584.13,-94.36 589.75,-97.37 595,-100.47 623.32,-117.19 653.14,-139.73 674.41,-156.79"/>
<polygon fill="black" stroke="black" points="672.44,-159.7 682.41,-163.27 676.84,-154.26 672.44,-159.7"/>
<text text-anchor="middle" x="619.5" y="-121.47" font-family="Fira Mono Medium" font-size="10.00">at</text>
</g>
<!-- node_8&#45;&gt;node_6 -->
<g id="edge19" class="edge">
<title>node_8&#45;&gt;node_6</title>
<path fill="none" stroke="black" d="M457.39,-62.19C429.17,-59.5 396.04,-56.79 366,-55.47 305.17,-52.79 289.78,-51.85 229,-55.47 202.42,-57.05 173.47,-60.11 147.64,-63.32"/>
<polygon fill="black" stroke="black" points="147.02,-59.87 137.54,-64.6 147.9,-66.81 147.02,-59.87"/>
<text text-anchor="middle" x="297.5" y="-58.47" font-family="Fira Mono Medium" font-size="10.00">not&#45;equal</text>
</g>
<!-- node_8&#45;&gt;node_7 -->
<g id="edge20" class="edge">
<title>node_8&#45;&gt;node_7</title>
<path fill="none" stroke="black" d="M457.41,-85.27C433.97,-91.26 407.64,-98.56 384,-106.47 375.71,-109.24 367.08,-112.41 358.62,-115.7"/>
<polygon fill="black" stroke="black" points="357.18,-112.5 349.17,-119.44 359.76,-119.01 357.18,-112.5"/>
<text text-anchor="middle" x="411.5" y="-109.47" font-family="Fira Mono Medium" font-size="10.00">not&#45;equal</text>
</g>
</g>
</svg>
