<?xml version="1.0" encoding="UTF-8" standalone="no"?>
<!DOCTYPE svg PUBLIC "-//W3C//DTD SVG 1.1//EN"
 "http://www.w3.org/Graphics/SVG/1.1/DTD/svg11.dtd">
<!-- Generated by graphviz version 2.43.0 (0)
 -->
<!-- Title: %3 Pages: 1 -->
<svg width="817pt" height="302pt"
 viewBox="0.00 0.00 817.00 302.00" xmlns="http://www.w3.org/2000/svg" xmlns:xlink="http://www.w3.org/1999/xlink">
<g id="graph0" class="graph" transform="scale(1 1) rotate(0) translate(4 298)">
<title>%3</title>
<polygon fill="white" stroke="transparent" points="-4,4 -4,-298 813,-298 813,4 -4,4"/>
<!-- node_0 -->
<g id="node1" class="node">
<title>node_0</title>
<polygon fill="none" stroke="black" points="580,-102 458,-102 458,-66 580,-66 580,-102"/>
<text text-anchor="start" x="503.5" y="-87.4" font-family="Fira Mono Medium" font-weight="bold" font-size="12.00">bank</text>
<text text-anchor="start" x="466" y="-75.4" font-family="Fira Mono Medium" font-style="italic" font-size="12.00">location:</text>
<text text-anchor="start" x="534" y="-75.4" font-family="Fira Mono Medium" font-size="12.00"> left</text>
</g>
<!-- node_1 -->
<g id="node2" class="node">
<title>node_1</title>
<polygon fill="none" stroke="black" points="809,-220 679,-220 679,-184 809,-184 809,-220"/>
<text text-anchor="start" x="728.5" y="-205.4" font-family="Fira Mono Medium" font-weight="bold" font-size="12.00">bank</text>
<text text-anchor="start" x="687" y="-193.4" font-family="Fira Mono Medium" font-style="italic" font-size="12.00">location:</text>
<text text-anchor="start" x="755" y="-193.4" font-family="Fira Mono Medium" font-size="12.00"> right</text>
</g>
<!-- node_0&#45;&gt;node_1 -->
<g id="edge1" class="edge">
<title>node_0&#45;&gt;node_1</title>
<path fill="none" stroke="black" d="M554.36,-102.18C593.51,-122.9 657.56,-156.79 700,-179.25"/>
<polygon fill="black" stroke="black" points="698.5,-182.41 708.97,-183.99 701.77,-176.22 698.5,-182.41"/>
<text text-anchor="middle" x="633.5" y="-160" font-family="Fira Mono Medium" font-size="10.00">not&#45;equal</text>
</g>
<!-- node_1&#45;&gt;node_0 -->
<g id="edge2" class="edge">
<title>node_1&#45;&gt;node_0</title>
<path fill="none" stroke="black" d="M730.1,-183.65C715.54,-164.35 690.05,-134.52 661,-118 639.45,-105.75 613.63,-97.89 590,-92.86"/>
<polygon fill="black" stroke="black" points="590.52,-89.4 580.03,-90.87 589.15,-96.26 590.52,-89.4"/>
<text text-anchor="middle" x="633.5" y="-121" font-family="Fira Mono Medium" font-size="10.00">not&#45;equal</text>
</g>
<!-- node_2 -->
<g id="node3" class="node">
<title>node_2</title>
<polygon fill="none" stroke="black" points="317,-98 263,-98 263,-62 317,-62 317,-98"/>
<text text-anchor="start" x="274.5" y="-77.9" font-family="Fira Mono Medium" font-weight="bold" font-size="12.00">boat</text>
</g>
<!-- node_2&#45;&gt;node_0 -->
<g id="edge3" class="edge">
<title>node_2&#45;&gt;node_0</title>
<path fill="none" stroke="black" d="M317.04,-80.46C348.7,-81.02 403.38,-81.98 447.72,-82.76"/>
<polygon fill="black" stroke="black" points="447.82,-86.26 457.88,-82.94 447.94,-79.26 447.82,-86.26"/>
<text text-anchor="middle" x="404.5" y="-86" font-family="Fira Mono Medium" font-size="10.00">at</text>
</g>
<!-- node_3 -->
<g id="node4" class="node">
<title>node_3</title>
<polygon fill="none" stroke="black" points="130,-236 0,-236 0,-192 130,-192 130,-236"/>
<text text-anchor="start" x="46" y="-223.4" font-family="Fira Mono Medium" font-weight="bold" font-size="12.00">human</text>
<text text-anchor="start" x="12" y="-211.4" font-family="Fira Mono Medium" font-style="italic" font-size="12.00">kind:</text>
<text text-anchor="start" x="50" y="-211.4" font-family="Fira Mono Medium" font-size="12.00"> cannibal</text>
<text text-anchor="start" x="8" y="-199.4" font-family="Fira Mono Medium" font-style="italic" font-size="12.00">can&#45;drive:</text>
<text text-anchor="start" x="84" y="-199.4" font-family="Fira Mono Medium" font-size="12.00"> true</text>
</g>
<!-- node_3&#45;&gt;node_1 -->
<g id="edge6" class="edge">
<title>node_3&#45;&gt;node_1</title>
<path fill="none" stroke="black" d="M111.53,-236.06C141.77,-249.36 182.78,-264.88 221,-271 382.19,-296.82 426.52,-279.93 588,-256 620.95,-251.12 629.45,-249.68 661,-239 673.14,-234.89 685.92,-229.61 697.69,-224.34"/>
<polygon fill="black" stroke="black" points="699.24,-227.48 706.88,-220.14 696.33,-221.12 699.24,-227.48"/>
<text text-anchor="middle" x="404.5" y="-286" font-family="Fira Mono Medium" font-size="10.00">at</text>
</g>
<!-- node_4 -->
<g id="node5" class="node">
<title>node_4</title>
<polygon fill="none" stroke="black" points="359,-262 221,-262 221,-218 359,-218 359,-262"/>
<text text-anchor="start" x="271" y="-249.4" font-family="Fira Mono Medium" font-weight="bold" font-size="12.00">human</text>
<text text-anchor="start" x="237" y="-237.4" font-family="Fira Mono Medium" font-style="italic" font-size="12.00">kind:</text>
<text text-anchor="start" x="275" y="-237.4" font-family="Fira Mono Medium" font-size="12.00"> cannibal</text>
<text text-anchor="start" x="229" y="-225.4" font-family="Fira Mono Medium" font-style="italic" font-size="12.00">can&#45;drive:</text>
<text text-anchor="start" x="305" y="-225.4" font-family="Fira Mono Medium" font-size="12.00"> false</text>
</g>
<!-- node_3&#45;&gt;node_4 -->
<g id="edge4" class="edge">
<title>node_3&#45;&gt;node_4</title>
<path fill="none" stroke="black" d="M130.42,-223.72C136.36,-224.52 142.29,-225.3 148,-226 168.26,-228.49 190.2,-230.83 210.6,-232.87"/>
<polygon fill="black" stroke="black" points="210.5,-236.37 220.8,-233.87 211.19,-229.41 210.5,-236.37"/>
<text text-anchor="middle" x="175.5" y="-235" font-family="Fira Mono Medium" font-size="10.00">not&#45;equal</text>
</g>
<!-- node_5 -->
<g id="node6" class="node">
<title>node_5</title>
<polygon fill="none" stroke="black" points="588,-224 450,-224 450,-180 588,-180 588,-224"/>
<text text-anchor="start" x="500" y="-211.4" font-family="Fira Mono Medium" font-weight="bold" font-size="12.00">human</text>
<text text-anchor="start" x="466" y="-199.4" font-family="Fira Mono Medium" font-style="italic" font-size="12.00">kind:</text>
<text text-anchor="start" x="504" y="-199.4" font-family="Fira Mono Medium" font-size="12.00"> cannibal</text>
<text text-anchor="start" x="458" y="-187.4" font-family="Fira Mono Medium" font-style="italic" font-size="12.00">can&#45;drive:</text>
<text text-anchor="start" x="534" y="-187.4" font-family="Fira Mono Medium" font-size="12.00"> false</text>
</g>
<!-- node_3&#45;&gt;node_5 -->
<g id="edge5" class="edge">
<title>node_3&#45;&gt;node_5</title>
<path fill="none" stroke="black" d="M130,-206.89C136.09,-206.24 142.16,-205.6 148,-205 273.65,-192.08 305.82,-188.14 432,-194 434.56,-194.12 437.15,-194.26 439.77,-194.41"/>
<polygon fill="black" stroke="black" points="439.76,-197.92 449.97,-195.08 440.22,-190.93 439.76,-197.92"/>
<text text-anchor="middle" x="290" y="-200" font-family="Fira Mono Medium" font-size="10.00">not&#45;equal</text>
</g>
<!-- node_4&#45;&gt;node_1 -->
<g id="edge9" class="edge">
<title>node_4&#45;&gt;node_1</title>
<path fill="none" stroke="black" d="M359.07,-240.86C365.13,-240.92 371.18,-240.97 377,-241 470.84,-241.55 494.88,-244.64 588,-233 614.56,-229.68 643.39,-224.39 668.9,-219.11"/>
<polygon fill="black" stroke="black" points="669.8,-222.5 678.87,-217.02 668.36,-215.65 669.8,-222.5"/>
<text text-anchor="middle" x="519" y="-244" font-family="Fira Mono Medium" font-size="10.00">at</text>
</g>
<!-- node_4&#45;&gt;node_3 -->
<g id="edge7" class="edge">
<title>node_4&#45;&gt;node_3</title>
<path fill="none" stroke="black" d="M226.58,-217.99C218.73,-215.94 210.73,-214.19 203,-213 182.79,-209.9 160.7,-209 140.27,-209.16"/>
<polygon fill="black" stroke="black" points="140.02,-205.67 130.08,-209.33 140.14,-212.66 140.02,-205.67"/>
<text text-anchor="middle" x="175.5" y="-216" font-family="Fira Mono Medium" font-size="10.00">not&#45;equal</text>
</g>
<!-- node_4&#45;&gt;node_5 -->
<g id="edge8" class="edge">
<title>node_4&#45;&gt;node_5</title>
<path fill="none" stroke="black" d="M359.2,-229.77C382.33,-226.19 408.31,-222.05 432,-218 434.65,-217.55 437.34,-217.08 440.05,-216.61"/>
<polygon fill="black" stroke="black" points="440.73,-220.04 449.96,-214.85 439.51,-213.15 440.73,-220.04"/>
<text text-anchor="middle" x="404.5" y="-229" font-family="Fira Mono Medium" font-size="10.00">not&#45;equal</text>
</g>
<!-- node_5&#45;&gt;node_1 -->
<g id="edge12" class="edge">
<title>node_5&#45;&gt;node_1</title>
<path fill="none" stroke="black" d="M588.12,-202C613.56,-202 642.57,-202 668.56,-202"/>
<polygon fill="black" stroke="black" points="668.73,-205.5 678.73,-202 668.73,-198.5 668.73,-205.5"/>
<text text-anchor="middle" x="633.5" y="-205" font-family="Fira Mono Medium" font-size="10.00">at</text>
</g>
<!-- node_5&#45;&gt;node_3 -->
<g id="edge10" class="edge">
<title>node_5&#45;&gt;node_3</title>
<path fill="none" stroke="black" d="M449.96,-189.98C443.89,-188.96 437.83,-187.95 432,-187 339.31,-171.94 314.23,-164.74 221,-176 194.29,-179.23 165.54,-185.47 140.14,-191.98"/>
<polygon fill="black" stroke="black" points="139,-188.66 130.22,-194.58 140.78,-195.44 139,-188.66"/>
<text text-anchor="middle" x="290" y="-179" font-family="Fira Mono Medium" font-size="10.00">not&#45;equal</text>
</g>
<!-- node_5&#45;&gt;node_4 -->
<g id="edge11" class="edge">
<title>node_5&#45;&gt;node_4</title>
<path fill="none" stroke="black" d="M449.66,-198.47C426.4,-198.58 400.38,-200.17 377,-205 366.71,-207.13 356.09,-210.44 345.97,-214.2"/>
<polygon fill="black" stroke="black" points="344.49,-211.02 336.44,-217.91 347.03,-217.54 344.49,-211.02"/>
<text text-anchor="middle" x="404.5" y="-208" font-family="Fira Mono Medium" font-size="10.00">not&#45;equal</text>
</g>
<!-- node_6 -->
<g id="node7" class="node">
<title>node_6</title>
<polygon fill="none" stroke="black" points="358.5,-44 221.5,-44 221.5,0 358.5,0 358.5,-44"/>
<text text-anchor="start" x="271" y="-31.4" font-family="Fira Mono Medium" font-weight="bold" font-size="12.00">human</text>
<text text-anchor="start" x="229.5" y="-19.4" font-family="Fira Mono Medium" font-style="italic" font-size="12.00">kind:</text>
<text text-anchor="start" x="267.5" y="-19.4" font-family="Fira Mono Medium" font-size="12.00"> missionary</text>
<text text-anchor="start" x="233" y="-7.4" font-family="Fira Mono Medium" font-style="italic" font-size="12.00">can&#45;drive:</text>
<text text-anchor="start" x="309" y="-7.4" font-family="Fira Mono Medium" font-size="12.00"> true</text>
</g>
<!-- node_6&#45;&gt;node_0 -->
<g id="edge13" class="edge">
<title>node_6&#45;&gt;node_0</title>
<path fill="none" stroke="black" d="M358.8,-40.52C386.96,-48.21 419.64,-57.13 448.03,-64.89"/>
<polygon fill="black" stroke="black" points="447.31,-68.32 457.87,-67.58 449.15,-61.57 447.31,-68.32"/>
<text text-anchor="middle" x="404.5" y="-64" font-family="Fira Mono Medium" font-size="10.00">at</text>
</g>
</g>
</svg>
