<?xml version="1.0" encoding="UTF-8" standalone="no"?>
<!DOCTYPE svg PUBLIC "-//W3C//DTD SVG 1.1//EN"
 "http://www.w3.org/Graphics/SVG/1.1/DTD/svg11.dtd">
<!-- Generated by graphviz version 2.43.0 (0)
 -->
<!-- Title: %3 Pages: 1 -->
<svg width="995pt" height="413pt"
 viewBox="0.00 0.00 995.00 413.00" xmlns="http://www.w3.org/2000/svg" xmlns:xlink="http://www.w3.org/1999/xlink">
<g id="graph0" class="graph" transform="scale(1 1) rotate(0) translate(4 409)">
<title>%3</title>
<polygon fill="white" stroke="transparent" points="-4,4 -4,-409 991,-409 991,4 -4,4"/>
<!-- node_0 -->
<g id="node1" class="node">
<title>node_0</title>
<polygon fill="none" stroke="black" points="766,-220 644,-220 644,-184 766,-184 766,-220"/>
<text text-anchor="start" x="689.5" y="-205.4" font-family="Fira Mono Medium" font-weight="bold" font-size="12.00">bank</text>
<text text-anchor="start" x="652" y="-193.4" font-family="Fira Mono Medium" font-style="italic" font-size="12.00">location:</text>
<text text-anchor="start" x="720" y="-193.4" font-family="Fira Mono Medium" font-size="12.00"> left</text>
</g>
<!-- node_1 -->
<g id="node2" class="node">
<title>node_1</title>
<polygon fill="none" stroke="black" points="987,-220 857,-220 857,-184 987,-184 987,-220"/>
<text text-anchor="start" x="906.5" y="-205.4" font-family="Fira Mono Medium" font-weight="bold" font-size="12.00">bank</text>
<text text-anchor="start" x="865" y="-193.4" font-family="Fira Mono Medium" font-style="italic" font-size="12.00">location:</text>
<text text-anchor="start" x="933" y="-193.4" font-family="Fira Mono Medium" font-size="12.00"> right</text>
</g>
<!-- node_0&#45;&gt;node_1 -->
<g id="edge1" class="edge">
<title>node_0&#45;&gt;node_1</title>
<path fill="none" stroke="black" d="M766.18,-202C791.07,-202 820.2,-202 846.43,-202"/>
<polygon fill="black" stroke="black" points="846.7,-205.5 856.7,-202 846.7,-198.5 846.7,-205.5"/>
<text text-anchor="middle" x="811.5" y="-205" font-family="Fira Mono Medium" font-size="10.00">not&#45;equal</text>
</g>
<!-- node_1&#45;&gt;node_0 -->
<g id="edge2" class="edge">
<title>node_1&#45;&gt;node_0</title>
<path fill="none" stroke="black" d="M856.69,-189.1C850.73,-188.25 844.77,-187.52 839,-187 814.66,-184.79 808.33,-184.68 784,-187 781.48,-187.24 778.92,-187.52 776.33,-187.84"/>
<polygon fill="black" stroke="black" points="775.73,-184.39 766.3,-189.23 776.69,-191.33 775.73,-184.39"/>
<text text-anchor="middle" x="811.5" y="-190" font-family="Fira Mono Medium" font-size="10.00">not&#45;equal</text>
</g>
<!-- node_2 -->
<g id="node3" class="node">
<title>node_2</title>
<polygon fill="none" stroke="black" points="553,-166 499,-166 499,-130 553,-130 553,-166"/>
<text text-anchor="start" x="510.5" y="-145.9" font-family="Fira Mono Medium" font-weight="bold" font-size="12.00">boat</text>
</g>
<!-- node_2&#45;&gt;node_0 -->
<g id="edge3" class="edge">
<title>node_2&#45;&gt;node_0</title>
<path fill="none" stroke="black" d="M553.11,-155.45C573.1,-161.21 601.34,-169.44 626,-177 630.05,-178.24 634.22,-179.54 638.42,-180.85"/>
<polygon fill="black" stroke="black" points="637.65,-184.28 648.24,-183.94 639.75,-177.6 637.65,-184.28"/>
<text text-anchor="middle" x="619.5" y="-180" font-family="Fira Mono Medium" font-size="10.00">at</text>
</g>
<!-- node_3 -->
<g id="node4" class="node">
<title>node_3</title>
<polygon fill="none" stroke="black" points="362.5,-344 232.5,-344 232.5,-300 362.5,-300 362.5,-344"/>
<text text-anchor="start" x="278.5" y="-331.4" font-family="Fira Mono Medium" font-weight="bold" font-size="12.00">human</text>
<text text-anchor="start" x="244.5" y="-319.4" font-family="Fira Mono Medium" font-style="italic" font-size="12.00">kind:</text>
<text text-anchor="start" x="282.5" y="-319.4" font-family="Fira Mono Medium" font-size="12.00"> cannibal</text>
<text text-anchor="start" x="240.5" y="-307.4" font-family="Fira Mono Medium" font-style="italic" font-size="12.00">can&#45;drive:</text>
<text text-anchor="start" x="316.5" y="-307.4" font-family="Fira Mono Medium" font-size="12.00"> true</text>
</g>
<!-- node_3&#45;&gt;node_0 -->
<g id="edge6" class="edge">
<title>node_3&#45;&gt;node_0</title>
<path fill="none" stroke="black" d="M362.91,-326.17C370.02,-326.51 377.16,-326.8 384,-327 479.58,-329.79 509.19,-327.18 595,-285 625.85,-269.83 656.61,-245.34 677.55,-226.88"/>
<polygon fill="black" stroke="black" points="679.96,-229.41 685.07,-220.13 675.29,-224.2 679.96,-229.41"/>
<text text-anchor="middle" x="526" y="-330" font-family="Fira Mono Medium" font-size="10.00">at</text>
</g>
<!-- node_4 -->
<g id="node5" class="node">
<title>node_4</title>
<polygon fill="none" stroke="black" points="595,-276 457,-276 457,-232 595,-232 595,-276"/>
<text text-anchor="start" x="507" y="-263.4" font-family="Fira Mono Medium" font-weight="bold" font-size="12.00">human</text>
<text text-anchor="start" x="473" y="-251.4" font-family="Fira Mono Medium" font-style="italic" font-size="12.00">kind:</text>
<text text-anchor="start" x="511" y="-251.4" font-family="Fira Mono Medium" font-size="12.00"> cannibal</text>
<text text-anchor="start" x="465" y="-239.4" font-family="Fira Mono Medium" font-style="italic" font-size="12.00">can&#45;drive:</text>
<text text-anchor="start" x="541" y="-239.4" font-family="Fira Mono Medium" font-size="12.00"> false</text>
</g>
<!-- node_3&#45;&gt;node_4 -->
<g id="edge4" class="edge">
<title>node_3&#45;&gt;node_4</title>
<path fill="none" stroke="black" d="M350.53,-299.95C361.48,-295.69 373.04,-291.48 384,-288 404.11,-281.61 426.16,-275.76 446.73,-270.79"/>
<polygon fill="black" stroke="black" points="447.77,-274.14 456.69,-268.41 446.15,-267.33 447.77,-274.14"/>
<text text-anchor="middle" x="411.5" y="-291" font-family="Fira Mono Medium" font-size="10.00">not&#45;equal</text>
</g>
<!-- node_5 -->
<g id="node6" class="node">
<title>node_5</title>
<polygon fill="none" stroke="black" points="138,-326 0,-326 0,-282 138,-282 138,-326"/>
<text text-anchor="start" x="50" y="-313.4" font-family="Fira Mono Medium" font-weight="bold" font-size="12.00">human</text>
<text text-anchor="start" x="16" y="-301.4" font-family="Fira Mono Medium" font-style="italic" font-size="12.00">kind:</text>
<text text-anchor="start" x="54" y="-301.4" font-family="Fira Mono Medium" font-size="12.00"> cannibal</text>
<text text-anchor="start" x="8" y="-289.4" font-family="Fira Mono Medium" font-style="italic" font-size="12.00">can&#45;drive:</text>
<text text-anchor="start" x="84" y="-289.4" font-family="Fira Mono Medium" font-size="12.00"> false</text>
</g>
<!-- node_3&#45;&gt;node_5 -->
<g id="edge5" class="edge">
<title>node_3&#45;&gt;node_5</title>
<path fill="none" stroke="black" d="M232.27,-307.88C225.12,-306.71 217.93,-305.71 211,-305 190.79,-302.94 168.87,-302.11 148.47,-301.93"/>
<polygon fill="black" stroke="black" points="148.29,-298.43 138.27,-301.89 148.26,-305.43 148.29,-298.43"/>
<text text-anchor="middle" x="183.5" y="-308" font-family="Fira Mono Medium" font-size="10.00">not&#45;equal</text>
</g>
<!-- node_4&#45;&gt;node_0 -->
<g id="edge9" class="edge">
<title>node_4&#45;&gt;node_0</title>
<path fill="none" stroke="black" d="M595.18,-233.97C607.98,-230.21 621.39,-226.27 634.24,-222.49"/>
<polygon fill="black" stroke="black" points="635.33,-225.82 643.94,-219.64 633.36,-219.1 635.33,-225.82"/>
<text text-anchor="middle" x="619.5" y="-231" font-family="Fira Mono Medium" font-size="10.00">at</text>
</g>
<!-- node_4&#45;&gt;node_3 -->
<g id="edge7" class="edge">
<title>node_4&#45;&gt;node_3</title>
<path fill="none" stroke="black" d="M488.89,-276.19C473.93,-284.49 456.1,-293.29 439,-299 418.05,-305.99 394.61,-310.91 372.97,-314.34"/>
<polygon fill="black" stroke="black" points="372.21,-310.91 362.84,-315.86 373.25,-317.84 372.21,-310.91"/>
<text text-anchor="middle" x="411.5" y="-315" font-family="Fira Mono Medium" font-size="10.00">not&#45;equal</text>
</g>
<!-- node_4&#45;&gt;node_5 -->
<g id="edge8" class="edge">
<title>node_4&#45;&gt;node_5</title>
<path fill="none" stroke="black" d="M456.9,-240.32C380.67,-228.18 254.86,-217.81 156,-257 142.12,-262.5 127.65,-269.75 114.63,-276.91"/>
<polygon fill="black" stroke="black" points="112.88,-273.88 105.87,-281.83 116.3,-279.98 112.88,-273.88"/>
<text text-anchor="middle" x="297.5" y="-239" font-family="Fira Mono Medium" font-size="10.00">not&#45;equal</text>
</g>
<!-- node_5&#45;&gt;node_1 -->
<g id="edge12" class="edge">
<title>node_5&#45;&gt;node_1</title>
<path fill="none" stroke="black" d="M102.53,-326.02C145.15,-352.66 223.09,-394 296.5,-394 296.5,-394 296.5,-394 706,-394 803.96,-394 877.82,-281.74 907.16,-228.9"/>
<polygon fill="black" stroke="black" points="910.26,-230.52 911.95,-220.06 904.11,-227.18 910.26,-230.52"/>
<text text-anchor="middle" x="526" y="-397" font-family="Fira Mono Medium" font-size="10.00">at</text>
</g>
<!-- node_5&#45;&gt;node_3 -->
<g id="edge10" class="edge">
<title>node_5&#45;&gt;node_3</title>
<path fill="none" stroke="black" d="M138.47,-314.16C144.39,-314.85 150.29,-315.48 156,-316 177.51,-317.96 200.94,-319.28 222.39,-320.17"/>
<polygon fill="black" stroke="black" points="222.29,-323.67 232.42,-320.56 222.56,-316.67 222.29,-323.67"/>
<text text-anchor="middle" x="183.5" y="-322" font-family="Fira Mono Medium" font-size="10.00">not&#45;equal</text>
</g>
<!-- node_5&#45;&gt;node_4 -->
<g id="edge11" class="edge">
<title>node_5&#45;&gt;node_4</title>
<path fill="none" stroke="black" d="M138.35,-292.73C166.39,-288.36 199.2,-283.55 229,-280 302.72,-271.21 387.11,-264.08 446.87,-259.53"/>
<polygon fill="black" stroke="black" points="447.28,-263.01 456.98,-258.77 446.75,-256.03 447.28,-263.01"/>
<text text-anchor="middle" x="297.5" y="-283" font-family="Fira Mono Medium" font-size="10.00">not&#45;equal</text>
</g>
<!-- node_6 -->
<g id="node7" class="node">
<title>node_6</title>
<polygon fill="none" stroke="black" points="137.5,-115 0.5,-115 0.5,-71 137.5,-71 137.5,-115"/>
<text text-anchor="start" x="50" y="-102.4" font-family="Fira Mono Medium" font-weight="bold" font-size="12.00">human</text>
<text text-anchor="start" x="8.5" y="-90.4" font-family="Fira Mono Medium" font-style="italic" font-size="12.00">kind:</text>
<text text-anchor="start" x="46.5" y="-90.4" font-family="Fira Mono Medium" font-size="12.00"> missionary</text>
<text text-anchor="start" x="12" y="-78.4" font-family="Fira Mono Medium" font-style="italic" font-size="12.00">can&#45;drive:</text>
<text text-anchor="start" x="88" y="-78.4" font-family="Fira Mono Medium" font-size="12.00"> true</text>
</g>
<!-- node_6&#45;&gt;node_1 -->
<g id="edge15" class="edge">
<title>node_6&#45;&gt;node_1</title>
<path fill="none" stroke="black" d="M101.34,-70.96C143.58,-43.46 222.11,0 296.5,0 296.5,0 296.5,0 706,0 806.74,0 879.6,-119.24 907.95,-174.5"/>
<polygon fill="black" stroke="black" points="904.96,-176.35 912.57,-183.72 911.22,-173.21 904.96,-176.35"/>
<text text-anchor="middle" x="526" y="-3" font-family="Fira Mono Medium" font-size="10.00">at</text>
</g>
<!-- node_7 -->
<g id="node8" class="node">
<title>node_7</title>
<polygon fill="none" stroke="black" points="366,-182 229,-182 229,-138 366,-138 366,-182"/>
<text text-anchor="start" x="278.5" y="-169.4" font-family="Fira Mono Medium" font-weight="bold" font-size="12.00">human</text>
<text text-anchor="start" x="237" y="-157.4" font-family="Fira Mono Medium" font-style="italic" font-size="12.00">kind:</text>
<text text-anchor="start" x="275" y="-157.4" font-family="Fira Mono Medium" font-size="12.00"> missionary</text>
<text text-anchor="start" x="240.5" y="-145.4" font-family="Fira Mono Medium" font-style="italic" font-size="12.00">can&#45;drive:</text>
<text text-anchor="start" x="316.5" y="-145.4" font-family="Fira Mono Medium" font-size="12.00"> true</text>
</g>
<!-- node_6&#45;&gt;node_7 -->
<g id="edge13" class="edge">
<title>node_6&#45;&gt;node_7</title>
<path fill="none" stroke="black" d="M105.67,-115.01C120.71,-123.4 138.72,-132.3 156,-138 175.95,-144.58 198.15,-149.22 218.92,-152.48"/>
<polygon fill="black" stroke="black" points="218.57,-155.96 228.98,-153.97 219.6,-149.04 218.57,-155.96"/>
<text text-anchor="middle" x="183.5" y="-153" font-family="Fira Mono Medium" font-size="10.00">not&#45;equal</text>
</g>
<!-- node_8 -->
<g id="node9" class="node">
<title>node_8</title>
<polygon fill="none" stroke="black" points="594.5,-112 457.5,-112 457.5,-68 594.5,-68 594.5,-112"/>
<text text-anchor="start" x="507" y="-99.4" font-family="Fira Mono Medium" font-weight="bold" font-size="12.00">human</text>
<text text-anchor="start" x="465.5" y="-87.4" font-family="Fira Mono Medium" font-style="italic" font-size="12.00">kind:</text>
<text text-anchor="start" x="503.5" y="-87.4" font-family="Fira Mono Medium" font-size="12.00"> missionary</text>
<text text-anchor="start" x="469" y="-75.4" font-family="Fira Mono Medium" font-style="italic" font-size="12.00">can&#45;drive:</text>
<text text-anchor="start" x="545" y="-75.4" font-family="Fira Mono Medium" font-size="12.00"> true</text>
</g>
<!-- node_6&#45;&gt;node_8 -->
<g id="edge14" class="edge">
<title>node_6&#45;&gt;node_8</title>
<path fill="none" stroke="black" d="M137.63,-92.55C220.38,-92.01 360.19,-91.09 447.28,-90.51"/>
<polygon fill="black" stroke="black" points="447.4,-94.01 457.37,-90.45 447.35,-87.01 447.4,-94.01"/>
<text text-anchor="middle" x="297.5" y="-94" font-family="Fira Mono Medium" font-size="10.00">not&#45;equal</text>
</g>
<!-- node_7&#45;&gt;node_0 -->
<g id="edge18" class="edge">
<title>node_7&#45;&gt;node_0</title>
<path fill="none" stroke="black" d="M366.17,-167.14C372.2,-167.77 378.21,-168.4 384,-169 469.95,-177.96 568.89,-188.14 633.73,-194.8"/>
<polygon fill="black" stroke="black" points="633.53,-198.29 643.84,-195.83 634.25,-191.33 633.53,-198.29"/>
<text text-anchor="middle" x="526" y="-193" font-family="Fira Mono Medium" font-size="10.00">at</text>
</g>
<!-- node_7&#45;&gt;node_6 -->
<g id="edge16" class="edge">
<title>node_7&#45;&gt;node_6</title>
<path fill="none" stroke="black" d="M246.37,-137.87C234.88,-133.25 222.62,-128.67 211,-125 190.65,-118.57 168.26,-112.88 147.43,-108.15"/>
<polygon fill="black" stroke="black" points="148.19,-104.74 137.67,-105.98 146.67,-111.57 148.19,-104.74"/>
<text text-anchor="middle" x="183.5" y="-128" font-family="Fira Mono Medium" font-size="10.00">not&#45;equal</text>
</g>
<!-- node_7&#45;&gt;node_8 -->
<g id="edge17" class="edge">
<title>node_7&#45;&gt;node_8</title>
<path fill="none" stroke="black" d="M366.03,-157.65C390.02,-154.72 416.61,-148.98 439,-138 448.88,-133.15 447.87,-127.14 457,-121 458.92,-119.71 460.91,-118.44 462.94,-117.21"/>
<polygon fill="black" stroke="black" points="465.12,-120 472.08,-112.01 461.66,-113.91 465.12,-120"/>
<text text-anchor="middle" x="411.5" y="-157" font-family="Fira Mono Medium" font-size="10.00">not&#45;equal</text>
</g>
<!-- node_8&#45;&gt;node_0 -->
<g id="edge21" class="edge">
<title>node_8&#45;&gt;node_0</title>
<path fill="none" stroke="black" d="M578.47,-112.05C584.13,-114.89 589.75,-117.9 595,-121 623.32,-137.72 653.14,-160.27 674.41,-177.33"/>
<polygon fill="black" stroke="black" points="672.44,-180.23 682.41,-183.8 676.84,-174.79 672.44,-180.23"/>
<text text-anchor="middle" x="619.5" y="-142" font-family="Fira Mono Medium" font-size="10.00">at</text>
</g>
<!-- node_8&#45;&gt;node_6 -->
<g id="edge19" class="edge">
<title>node_8&#45;&gt;node_6</title>
<path fill="none" stroke="black" d="M457.39,-82.73C429.17,-80.04 396.04,-77.32 366,-76 305.17,-73.33 289.8,-72.76 229,-76 202.45,-77.42 173.5,-80.15 147.68,-83.02"/>
<polygon fill="black" stroke="black" points="147.11,-79.56 137.57,-84.17 147.9,-86.52 147.11,-79.56"/>
<text text-anchor="middle" x="297.5" y="-79" font-family="Fira Mono Medium" font-size="10.00">not&#45;equal</text>
</g>
<!-- node_8&#45;&gt;node_7 -->
<g id="edge20" class="edge">
<title>node_8&#45;&gt;node_7</title>
<path fill="none" stroke="black" d="M457.37,-104.68C433.93,-110.32 407.61,-117.28 384,-125 375.69,-127.72 367.05,-130.86 358.59,-134.13"/>
<polygon fill="black" stroke="black" points="357.15,-130.93 349.14,-137.86 359.72,-137.44 357.15,-130.93"/>
<text text-anchor="middle" x="411.5" y="-128" font-family="Fira Mono Medium" font-size="10.00">not&#45;equal</text>
</g>
</g>
</svg>
