<?xml version="1.0" encoding="UTF-8" standalone="no"?>
<!DOCTYPE svg PUBLIC "-//W3C//DTD SVG 1.1//EN"
 "http://www.w3.org/Graphics/SVG/1.1/DTD/svg11.dtd">
<!-- Generated by graphviz version 2.43.0 (0)
 -->
<!-- Title: %3 Pages: 1 -->
<svg width="1045pt" height="309pt"
 viewBox="0.00 0.00 1045.00 309.00" xmlns="http://www.w3.org/2000/svg" xmlns:xlink="http://www.w3.org/1999/xlink">
<g id="graph0" class="graph" transform="scale(1 1) rotate(0) translate(4 305)">
<title>%3</title>
<polygon fill="white" stroke="transparent" points="-4,4 -4,-305 1041,-305 1041,4 -4,4"/>
<!-- node_0 -->
<g id="node1" class="node">
<title>node_0</title>
<polygon fill="none" stroke="black" points="808.5,-245 686.5,-245 686.5,-209 808.5,-209 808.5,-245"/>
<text text-anchor="start" x="732" y="-230.4" font-family="Fira Mono Medium" font-weight="bold" font-size="12.00">bank</text>
<text text-anchor="start" x="694.5" y="-218.4" font-family="Fira Mono Medium" font-style="italic" font-size="12.00">location:</text>
<text text-anchor="start" x="762.5" y="-218.4" font-family="Fira Mono Medium" font-size="12.00"> left</text>
</g>
<!-- node_1 -->
<g id="node2" class="node">
<title>node_1</title>
<polygon fill="none" stroke="black" points="1037,-160 907,-160 907,-124 1037,-124 1037,-160"/>
<text text-anchor="start" x="956.5" y="-145.4" font-family="Fira Mono Medium" font-weight="bold" font-size="12.00">bank</text>
<text text-anchor="start" x="915" y="-133.4" font-family="Fira Mono Medium" font-style="italic" font-size="12.00">location:</text>
<text text-anchor="start" x="983" y="-133.4" font-family="Fira Mono Medium" font-size="12.00"> right</text>
</g>
<!-- node_0&#45;&gt;node_1 -->
<g id="edge1" class="edge">
<title>node_0&#45;&gt;node_1</title>
<path fill="none" stroke="black" d="M808.77,-224.18C834.32,-221.32 863.93,-215.75 889,-205 909.93,-196.02 930.26,-180.47 945.44,-167.06"/>
<polygon fill="black" stroke="black" points="947.84,-169.61 952.88,-160.29 943.13,-164.43 947.84,-169.61"/>
<text text-anchor="middle" x="861.5" y="-223" font-family="Fira Mono Medium" font-size="10.00">not&#45;equal</text>
</g>
<!-- node_1&#45;&gt;node_0 -->
<g id="edge2" class="edge">
<title>node_1&#45;&gt;node_0</title>
<path fill="none" stroke="black" d="M920.08,-160.06C894.21,-169.36 862.34,-181.03 834,-192 823.36,-196.12 812.02,-200.65 801.21,-205.05"/>
<polygon fill="black" stroke="black" points="799.8,-201.85 791.87,-208.87 802.45,-208.33 799.8,-201.85"/>
<text text-anchor="middle" x="861.5" y="-195" font-family="Fira Mono Medium" font-size="10.00">not&#45;equal</text>
</g>
<!-- node_2 -->
<g id="node3" class="node">
<title>node_2</title>
<polygon fill="none" stroke="black" points="774.5,-183 720.5,-183 720.5,-147 774.5,-147 774.5,-183"/>
<text text-anchor="start" x="732" y="-162.9" font-family="Fira Mono Medium" font-weight="bold" font-size="12.00">boat</text>
</g>
<!-- node_2&#45;&gt;node_1 -->
<g id="edge3" class="edge">
<title>node_2&#45;&gt;node_1</title>
<path fill="none" stroke="black" d="M774.9,-162.27C804.67,-159.19 854.42,-154.05 896.35,-149.72"/>
<polygon fill="black" stroke="black" points="896.96,-153.17 906.55,-148.66 896.24,-146.21 896.96,-153.17"/>
<text text-anchor="middle" x="861.5" y="-158" font-family="Fira Mono Medium" font-size="10.00">at</text>
</g>
<!-- node_3 -->
<g id="node4" class="node">
<title>node_3</title>
<polygon fill="none" stroke="black" points="359,-301 229,-301 229,-257 359,-257 359,-301"/>
<text text-anchor="start" x="275" y="-288.4" font-family="Fira Mono Medium" font-weight="bold" font-size="12.00">human</text>
<text text-anchor="start" x="241" y="-276.4" font-family="Fira Mono Medium" font-style="italic" font-size="12.00">kind:</text>
<text text-anchor="start" x="279" y="-276.4" font-family="Fira Mono Medium" font-size="12.00"> cannibal</text>
<text text-anchor="start" x="237" y="-264.4" font-family="Fira Mono Medium" font-style="italic" font-size="12.00">can&#45;drive:</text>
<text text-anchor="start" x="313" y="-264.4" font-family="Fira Mono Medium" font-size="12.00"> true</text>
</g>
<!-- node_3&#45;&gt;node_0 -->
<g id="edge6" class="edge">
<title>node_3&#45;&gt;node_0</title>
<path fill="none" stroke="black" d="M359.01,-281.57C365.09,-281.74 371.16,-281.89 377,-282 401.44,-282.45 407.63,-283.86 432,-282 501.94,-276.65 518.9,-270.07 588,-258 617.03,-252.93 648.93,-246.8 676.46,-241.33"/>
<polygon fill="black" stroke="black" points="677.27,-244.74 686.39,-239.35 675.9,-237.87 677.27,-244.74"/>
<text text-anchor="middle" x="519" y="-283" font-family="Fira Mono Medium" font-size="10.00">at</text>
</g>
<!-- node_4 -->
<g id="node5" class="node">
<title>node_4</title>
<polygon fill="none" stroke="black" points="138,-234 0,-234 0,-190 138,-190 138,-234"/>
<text text-anchor="start" x="50" y="-221.4" font-family="Fira Mono Medium" font-weight="bold" font-size="12.00">human</text>
<text text-anchor="start" x="16" y="-209.4" font-family="Fira Mono Medium" font-style="italic" font-size="12.00">kind:</text>
<text text-anchor="start" x="54" y="-209.4" font-family="Fira Mono Medium" font-size="12.00"> cannibal</text>
<text text-anchor="start" x="8" y="-197.4" font-family="Fira Mono Medium" font-style="italic" font-size="12.00">can&#45;drive:</text>
<text text-anchor="start" x="84" y="-197.4" font-family="Fira Mono Medium" font-size="12.00"> false</text>
</g>
<!-- node_3&#45;&gt;node_4 -->
<g id="edge4" class="edge">
<title>node_3&#45;&gt;node_4</title>
<path fill="none" stroke="black" d="M241.36,-256.89C231.38,-253 220.94,-249.18 211,-246 190.9,-239.57 168.86,-233.71 148.29,-228.73"/>
<polygon fill="black" stroke="black" points="148.87,-225.27 138.33,-226.36 147.25,-232.08 148.87,-225.27"/>
<text text-anchor="middle" x="183.5" y="-249" font-family="Fira Mono Medium" font-size="10.00">not&#45;equal</text>
</g>
<!-- node_5 -->
<g id="node6" class="node">
<title>node_5</title>
<polygon fill="none" stroke="black" points="588,-249 450,-249 450,-205 588,-205 588,-249"/>
<text text-anchor="start" x="500" y="-236.4" font-family="Fira Mono Medium" font-weight="bold" font-size="12.00">human</text>
<text text-anchor="start" x="466" y="-224.4" font-family="Fira Mono Medium" font-style="italic" font-size="12.00">kind:</text>
<text text-anchor="start" x="504" y="-224.4" font-family="Fira Mono Medium" font-size="12.00"> cannibal</text>
<text text-anchor="start" x="458" y="-212.4" font-family="Fira Mono Medium" font-style="italic" font-size="12.00">can&#45;drive:</text>
<text text-anchor="start" x="534" y="-212.4" font-family="Fira Mono Medium" font-size="12.00"> false</text>
</g>
<!-- node_3&#45;&gt;node_5 -->
<g id="edge5" class="edge">
<title>node_3&#45;&gt;node_5</title>
<path fill="none" stroke="black" d="M359.25,-271.07C382.37,-267.59 408.53,-262.93 432,-257 437.7,-255.56 443.55,-253.91 449.4,-252.13"/>
<polygon fill="black" stroke="black" points="450.71,-255.39 459.2,-249.05 448.61,-248.71 450.71,-255.39"/>
<text text-anchor="middle" x="404.5" y="-270" font-family="Fira Mono Medium" font-size="10.00">not&#45;equal</text>
</g>
<!-- node_4&#45;&gt;node_1 -->
<g id="edge9" class="edge">
<title>node_4&#45;&gt;node_1</title>
<path fill="none" stroke="black" d="M100.8,-189.96C142.34,-162.46 219.59,-119 293,-119 293,-119 293,-119 748.5,-119 798.11,-119 853.62,-124.73 896.79,-130.47"/>
<polygon fill="black" stroke="black" points="896.54,-133.97 906.92,-131.84 897.48,-127.03 896.54,-133.97"/>
<text text-anchor="middle" x="519" y="-122" font-family="Fira Mono Medium" font-size="10.00">at</text>
</g>
<!-- node_4&#45;&gt;node_3 -->
<g id="edge7" class="edge">
<title>node_4&#45;&gt;node_3</title>
<path fill="none" stroke="black" d="M106.1,-234.21C121.06,-242.52 138.89,-251.32 156,-257 175.94,-263.62 198.2,-268.29 218.88,-271.56"/>
<polygon fill="black" stroke="black" points="218.48,-275.04 228.89,-273.05 219.51,-268.11 218.48,-275.04"/>
<text text-anchor="middle" x="183.5" y="-272" font-family="Fira Mono Medium" font-size="10.00">not&#45;equal</text>
</g>
<!-- node_4&#45;&gt;node_5 -->
<g id="edge8" class="edge">
<title>node_4&#45;&gt;node_5</title>
<path fill="none" stroke="black" d="M138.04,-214.28C219.07,-216.99 354.16,-221.51 439.53,-224.37"/>
<polygon fill="black" stroke="black" points="439.57,-227.88 449.69,-224.71 439.81,-220.88 439.57,-227.88"/>
<text text-anchor="middle" x="294" y="-224" font-family="Fira Mono Medium" font-size="10.00">not&#45;equal</text>
</g>
<!-- node_5&#45;&gt;node_0 -->
<g id="edge12" class="edge">
<title>node_5&#45;&gt;node_0</title>
<path fill="none" stroke="black" d="M588.26,-227C616.11,-227 648.28,-227 676.32,-227"/>
<polygon fill="black" stroke="black" points="676.44,-230.5 686.44,-227 676.44,-223.5 676.44,-230.5"/>
<text text-anchor="middle" x="633.5" y="-230" font-family="Fira Mono Medium" font-size="10.00">at</text>
</g>
<!-- node_5&#45;&gt;node_3 -->
<g id="edge10" class="edge">
<title>node_5&#45;&gt;node_3</title>
<path fill="none" stroke="black" d="M449.84,-231.29C426.47,-233.79 400.34,-237.75 377,-244 368.11,-246.38 358.92,-249.55 350.05,-253"/>
<polygon fill="black" stroke="black" points="348.54,-249.84 340.59,-256.84 351.17,-256.33 348.54,-249.84"/>
<text text-anchor="middle" x="404.5" y="-247" font-family="Fira Mono Medium" font-size="10.00">not&#45;equal</text>
</g>
<!-- node_5&#45;&gt;node_4 -->
<g id="edge11" class="edge">
<title>node_5&#45;&gt;node_4</title>
<path fill="none" stroke="black" d="M449.8,-213.88C421.78,-209.12 388.95,-204.34 359,-202 287.82,-196.44 206.54,-200.14 148.35,-204.53"/>
<polygon fill="black" stroke="black" points="147.82,-201.06 138.12,-205.33 148.36,-208.04 147.82,-201.06"/>
<text text-anchor="middle" x="294" y="-205" font-family="Fira Mono Medium" font-size="10.00">not&#45;equal</text>
</g>
<!-- node_6 -->
<g id="node7" class="node">
<title>node_6</title>
<polygon fill="none" stroke="black" points="587.5,-76 450.5,-76 450.5,-32 587.5,-32 587.5,-76"/>
<text text-anchor="start" x="500" y="-63.4" font-family="Fira Mono Medium" font-weight="bold" font-size="12.00">human</text>
<text text-anchor="start" x="458.5" y="-51.4" font-family="Fira Mono Medium" font-style="italic" font-size="12.00">kind:</text>
<text text-anchor="start" x="496.5" y="-51.4" font-family="Fira Mono Medium" font-size="12.00"> missionary</text>
<text text-anchor="start" x="462" y="-39.4" font-family="Fira Mono Medium" font-style="italic" font-size="12.00">can&#45;drive:</text>
<text text-anchor="start" x="538" y="-39.4" font-family="Fira Mono Medium" font-size="12.00"> true</text>
</g>
<!-- node_6&#45;&gt;node_1 -->
<g id="edge14" class="edge">
<title>node_6&#45;&gt;node_1</title>
<path fill="none" stroke="black" d="M587.59,-57.29C662.57,-62.32 786.49,-74.78 889,-105 901.89,-108.8 915.38,-114.23 927.62,-119.76"/>
<polygon fill="black" stroke="black" points="926.15,-122.94 936.69,-123.98 929.1,-116.59 926.15,-122.94"/>
<text text-anchor="middle" x="747.5" y="-89" font-family="Fira Mono Medium" font-size="10.00">at</text>
</g>
<!-- node_7 -->
<g id="node8" class="node">
<title>node_7</title>
<polygon fill="none" stroke="black" points="816,-44 679,-44 679,0 816,0 816,-44"/>
<text text-anchor="start" x="728.5" y="-31.4" font-family="Fira Mono Medium" font-weight="bold" font-size="12.00">human</text>
<text text-anchor="start" x="687" y="-19.4" font-family="Fira Mono Medium" font-style="italic" font-size="12.00">kind:</text>
<text text-anchor="start" x="725" y="-19.4" font-family="Fira Mono Medium" font-size="12.00"> missionary</text>
<text text-anchor="start" x="690.5" y="-7.4" font-family="Fira Mono Medium" font-style="italic" font-size="12.00">can&#45;drive:</text>
<text text-anchor="start" x="766.5" y="-7.4" font-family="Fira Mono Medium" font-size="12.00"> true</text>
</g>
<!-- node_6&#45;&gt;node_7 -->
<g id="edge13" class="edge">
<title>node_6&#45;&gt;node_7</title>
<path fill="none" stroke="black" d="M587.65,-44.44C613.2,-40.83 642.46,-36.7 668.85,-32.97"/>
<polygon fill="black" stroke="black" points="669.39,-36.43 678.81,-31.56 668.42,-29.5 669.39,-36.43"/>
<text text-anchor="middle" x="633.5" y="-44" font-family="Fira Mono Medium" font-size="10.00">not&#45;equal</text>
</g>
<!-- node_7&#45;&gt;node_1 -->
<g id="edge16" class="edge">
<title>node_7&#45;&gt;node_1</title>
<path fill="none" stroke="black" d="M816.18,-29.67C840.32,-34.48 866.97,-42.3 889,-55 915,-69.99 937.79,-95.8 952.7,-115.43"/>
<polygon fill="black" stroke="black" points="950.04,-117.71 958.79,-123.68 955.67,-113.56 950.04,-117.71"/>
<text text-anchor="middle" x="861.5" y="-58" font-family="Fira Mono Medium" font-size="10.00">at</text>
</g>
<!-- node_7&#45;&gt;node_6 -->
<g id="edge15" class="edge">
<title>node_7&#45;&gt;node_6</title>
<path fill="none" stroke="black" d="M678.82,-14.73C655.55,-13.77 629.46,-14.41 606,-19 595.57,-21.04 584.81,-24.35 574.58,-28.14"/>
<polygon fill="black" stroke="black" points="573,-25 564.96,-31.9 575.55,-31.52 573,-25"/>
<text text-anchor="middle" x="633.5" y="-22" font-family="Fira Mono Medium" font-size="10.00">not&#45;equal</text>
</g>
</g>
</svg>
