<?xml version="1.0" encoding="UTF-8" standalone="no"?>
<!DOCTYPE svg PUBLIC "-//W3C//DTD SVG 1.1//EN"
 "http://www.w3.org/Graphics/SVG/1.1/DTD/svg11.dtd">
<!-- Generated by graphviz version 2.43.0 (0)
 -->
<!-- Title: %3 Pages: 1 -->
<svg width="988pt" height="259pt"
 viewBox="0.00 0.00 988.00 259.00" xmlns="http://www.w3.org/2000/svg" xmlns:xlink="http://www.w3.org/1999/xlink">
<g id="graph0" class="graph" transform="scale(1 1) rotate(0) translate(4 255)">
<title>%3</title>
<polygon fill="white" stroke="transparent" points="-4,4 -4,-255 984,-255 984,4 -4,4"/>
<!-- node_0 -->
<g id="node1" class="node">
<title>node_0</title>
<polygon fill="none" stroke="black" points="759,-144 637,-144 637,-108 759,-108 759,-144"/>
<text text-anchor="start" x="682.5" y="-129.4" font-family="Fira Mono Medium" font-weight="bold" font-size="12.00">bank</text>
<text text-anchor="start" x="645" y="-117.4" font-family="Fira Mono Medium" font-style="italic" font-size="12.00">location:</text>
<text text-anchor="start" x="713" y="-117.4" font-family="Fira Mono Medium" font-size="12.00"> left</text>
</g>
<!-- node_1 -->
<g id="node2" class="node">
<title>node_1</title>
<polygon fill="none" stroke="black" points="980,-110 850,-110 850,-74 980,-74 980,-110"/>
<text text-anchor="start" x="899.5" y="-95.4" font-family="Fira Mono Medium" font-weight="bold" font-size="12.00">bank</text>
<text text-anchor="start" x="858" y="-83.4" font-family="Fira Mono Medium" font-style="italic" font-size="12.00">location:</text>
<text text-anchor="start" x="926" y="-83.4" font-family="Fira Mono Medium" font-size="12.00"> right</text>
</g>
<!-- node_0&#45;&gt;node_1 -->
<g id="edge1" class="edge">
<title>node_0&#45;&gt;node_1</title>
<path fill="none" stroke="black" d="M759.18,-116.48C784.18,-112.53 813.45,-107.9 839.77,-103.74"/>
<polygon fill="black" stroke="black" points="840.37,-107.19 849.7,-102.17 839.28,-100.27 840.37,-107.19"/>
<text text-anchor="middle" x="804.5" y="-116" font-family="Fira Mono Medium" font-size="10.00">not&#45;equal</text>
</g>
<!-- node_1&#45;&gt;node_0 -->
<g id="edge2" class="edge">
<title>node_1&#45;&gt;node_0</title>
<path fill="none" stroke="black" d="M849.98,-85.81C826.77,-85.07 800.49,-85.97 777,-91 764.64,-93.65 751.87,-98.4 740.34,-103.58"/>
<polygon fill="black" stroke="black" points="738.53,-100.56 730.97,-107.98 741.51,-106.89 738.53,-100.56"/>
<text text-anchor="middle" x="804.5" y="-94" font-family="Fira Mono Medium" font-size="10.00">not&#45;equal</text>
</g>
<!-- node_2 -->
<g id="node3" class="node">
<title>node_2</title>
<polygon fill="none" stroke="black" points="546,-251 492,-251 492,-215 546,-215 546,-251"/>
<text text-anchor="start" x="503.5" y="-230.9" font-family="Fira Mono Medium" font-weight="bold" font-size="12.00">boat</text>
</g>
<!-- node_2&#45;&gt;node_0 -->
<g id="edge3" class="edge">
<title>node_2&#45;&gt;node_0</title>
<path fill="none" stroke="black" d="M546.14,-227.6C566.91,-222.55 596.16,-213.7 619,-200 640.26,-187.24 660.46,-167.8 674.98,-152.04"/>
<polygon fill="black" stroke="black" points="677.95,-153.97 682.02,-144.19 672.74,-149.3 677.95,-153.97"/>
<text text-anchor="middle" x="612.5" y="-209" font-family="Fira Mono Medium" font-size="10.00">at</text>
</g>
<!-- node_3 -->
<g id="node4" class="node">
<title>node_3</title>
<polygon fill="none" stroke="black" points="359,-182 229,-182 229,-138 359,-138 359,-182"/>
<text text-anchor="start" x="275" y="-169.4" font-family="Fira Mono Medium" font-weight="bold" font-size="12.00">human</text>
<text text-anchor="start" x="241" y="-157.4" font-family="Fira Mono Medium" font-style="italic" font-size="12.00">kind:</text>
<text text-anchor="start" x="279" y="-157.4" font-family="Fira Mono Medium" font-size="12.00"> cannibal</text>
<text text-anchor="start" x="237" y="-145.4" font-family="Fira Mono Medium" font-style="italic" font-size="12.00">can&#45;drive:</text>
<text text-anchor="start" x="313" y="-145.4" font-family="Fira Mono Medium" font-size="12.00"> true</text>
</g>
<!-- node_3&#45;&gt;node_0 -->
<g id="edge6" class="edge">
<title>node_3&#45;&gt;node_0</title>
<path fill="none" stroke="black" d="M359.16,-164.62C418.82,-167.67 509.96,-169.16 588,-157 603.07,-154.65 619.01,-150.88 633.91,-146.77"/>
<polygon fill="black" stroke="black" points="634.87,-150.14 643.53,-144.03 632.95,-143.4 634.87,-150.14"/>
<text text-anchor="middle" x="519" y="-169" font-family="Fira Mono Medium" font-size="10.00">at</text>
</g>
<!-- node_4 -->
<g id="node5" class="node">
<title>node_4</title>
<polygon fill="none" stroke="black" points="588,-148 450,-148 450,-104 588,-104 588,-148"/>
<text text-anchor="start" x="500" y="-135.4" font-family="Fira Mono Medium" font-weight="bold" font-size="12.00">human</text>
<text text-anchor="start" x="466" y="-123.4" font-family="Fira Mono Medium" font-style="italic" font-size="12.00">kind:</text>
<text text-anchor="start" x="504" y="-123.4" font-family="Fira Mono Medium" font-size="12.00"> cannibal</text>
<text text-anchor="start" x="458" y="-111.4" font-family="Fira Mono Medium" font-style="italic" font-size="12.00">can&#45;drive:</text>
<text text-anchor="start" x="534" y="-111.4" font-family="Fira Mono Medium" font-size="12.00"> false</text>
</g>
<!-- node_3&#45;&gt;node_4 -->
<g id="edge4" class="edge">
<title>node_3&#45;&gt;node_4</title>
<path fill="none" stroke="black" d="M359.2,-150.21C384.42,-146.37 413.59,-141.92 440,-137.89"/>
<polygon fill="black" stroke="black" points="440.62,-141.34 449.98,-136.37 439.56,-134.42 440.62,-141.34"/>
<text text-anchor="middle" x="404.5" y="-150" font-family="Fira Mono Medium" font-size="10.00">not&#45;equal</text>
</g>
<!-- node_5 -->
<g id="node6" class="node">
<title>node_5</title>
<polygon fill="none" stroke="black" points="138,-115 0,-115 0,-71 138,-71 138,-115"/>
<text text-anchor="start" x="50" y="-102.4" font-family="Fira Mono Medium" font-weight="bold" font-size="12.00">human</text>
<text text-anchor="start" x="16" y="-90.4" font-family="Fira Mono Medium" font-style="italic" font-size="12.00">kind:</text>
<text text-anchor="start" x="54" y="-90.4" font-family="Fira Mono Medium" font-size="12.00"> cannibal</text>
<text text-anchor="start" x="8" y="-78.4" font-family="Fira Mono Medium" font-style="italic" font-size="12.00">can&#45;drive:</text>
<text text-anchor="start" x="84" y="-78.4" font-family="Fira Mono Medium" font-size="12.00"> false</text>
</g>
<!-- node_3&#45;&gt;node_5 -->
<g id="edge5" class="edge">
<title>node_3&#45;&gt;node_5</title>
<path fill="none" stroke="black" d="M241.36,-137.89C231.38,-134 220.94,-130.18 211,-127 190.9,-120.57 168.86,-114.71 148.29,-109.73"/>
<polygon fill="black" stroke="black" points="148.87,-106.27 138.33,-107.36 147.25,-113.08 148.87,-106.27"/>
<text text-anchor="middle" x="183.5" y="-130" font-family="Fira Mono Medium" font-size="10.00">not&#45;equal</text>
</g>
<!-- node_4&#45;&gt;node_0 -->
<g id="edge9" class="edge">
<title>node_4&#45;&gt;node_0</title>
<path fill="none" stroke="black" d="M588.18,-126C600.86,-126 614.13,-126 626.86,-126"/>
<polygon fill="black" stroke="black" points="626.94,-129.5 636.94,-126 626.94,-122.5 626.94,-129.5"/>
<text text-anchor="middle" x="612.5" y="-129" font-family="Fira Mono Medium" font-size="10.00">at</text>
</g>
<!-- node_4&#45;&gt;node_3 -->
<g id="edge7" class="edge">
<title>node_4&#45;&gt;node_3</title>
<path fill="none" stroke="black" d="M449.67,-119.83C426.41,-119.22 400.38,-120.22 377,-125 367.1,-127.02 356.93,-130.29 347.25,-134.03"/>
<polygon fill="black" stroke="black" points="345.71,-130.88 337.78,-137.91 348.36,-137.36 345.71,-130.88"/>
<text text-anchor="middle" x="404.5" y="-128" font-family="Fira Mono Medium" font-size="10.00">not&#45;equal</text>
</g>
<!-- node_4&#45;&gt;node_5 -->
<g id="edge8" class="edge">
<title>node_4&#45;&gt;node_5</title>
<path fill="none" stroke="black" d="M465.18,-103.84C459.93,-101.08 454.78,-98.12 450,-95 441.03,-89.16 441.44,-84.04 432,-79 402.43,-63.2 392.25,-64.26 359,-60 301.69,-52.66 286.48,-54.1 229,-60 202.38,-62.73 173.65,-67.97 148.03,-73.49"/>
<polygon fill="black" stroke="black" points="147.02,-70.13 138,-75.69 148.52,-76.97 147.02,-70.13"/>
<text text-anchor="middle" x="294" y="-63" font-family="Fira Mono Medium" font-size="10.00">not&#45;equal</text>
</g>
<!-- node_5&#45;&gt;node_1 -->
<g id="edge12" class="edge">
<title>node_5&#45;&gt;node_1</title>
<path fill="none" stroke="black" d="M100.8,-70.96C142.34,-43.46 219.59,0 293,0 293,0 293,0 699,0 768.22,0 840.6,-40.8 881.23,-68.06"/>
<polygon fill="black" stroke="black" points="879.42,-71.06 889.65,-73.82 883.37,-65.29 879.42,-71.06"/>
<text text-anchor="middle" x="519" y="-3" font-family="Fira Mono Medium" font-size="10.00">at</text>
</g>
<!-- node_5&#45;&gt;node_3 -->
<g id="edge10" class="edge">
<title>node_5&#45;&gt;node_3</title>
<path fill="none" stroke="black" d="M106.1,-115.21C121.06,-123.52 138.89,-132.32 156,-138 175.94,-144.62 198.2,-149.29 218.88,-152.56"/>
<polygon fill="black" stroke="black" points="218.48,-156.04 228.89,-154.05 219.51,-149.11 218.48,-156.04"/>
<text text-anchor="middle" x="183.5" y="-153" font-family="Fira Mono Medium" font-size="10.00">not&#45;equal</text>
</g>
<!-- node_5&#45;&gt;node_4 -->
<g id="edge11" class="edge">
<title>node_5&#45;&gt;node_4</title>
<path fill="none" stroke="black" d="M138.16,-95.79C211,-99.09 329.82,-105.37 432,-115 434.56,-115.24 437.16,-115.5 439.78,-115.77"/>
<polygon fill="black" stroke="black" points="439.66,-119.28 449.98,-116.88 440.41,-112.32 439.66,-119.28"/>
<text text-anchor="middle" x="294" y="-111" font-family="Fira Mono Medium" font-size="10.00">not&#45;equal</text>
</g>
<!-- node_6 -->
<g id="node7" class="node">
<title>node_6</title>
<polygon fill="none" stroke="black" points="587.5,-86 450.5,-86 450.5,-42 587.5,-42 587.5,-86"/>
<text text-anchor="start" x="500" y="-73.4" font-family="Fira Mono Medium" font-weight="bold" font-size="12.00">human</text>
<text text-anchor="start" x="458.5" y="-61.4" font-family="Fira Mono Medium" font-style="italic" font-size="12.00">kind:</text>
<text text-anchor="start" x="496.5" y="-61.4" font-family="Fira Mono Medium" font-size="12.00"> missionary</text>
<text text-anchor="start" x="462" y="-49.4" font-family="Fira Mono Medium" font-style="italic" font-size="12.00">can&#45;drive:</text>
<text text-anchor="start" x="538" y="-49.4" font-family="Fira Mono Medium" font-size="12.00"> true</text>
</g>
<!-- node_6&#45;&gt;node_0 -->
<g id="edge13" class="edge">
<title>node_6&#45;&gt;node_0</title>
<path fill="none" stroke="black" d="M582.9,-86.03C600.01,-92.03 618.52,-98.51 635.55,-104.48"/>
<polygon fill="black" stroke="black" points="634.79,-107.92 645.38,-107.92 637.1,-101.31 634.79,-107.92"/>
<text text-anchor="middle" x="612.5" y="-99" font-family="Fira Mono Medium" font-size="10.00">at</text>
</g>
</g>
</svg>
