<?xml version="1.0" encoding="UTF-8" standalone="no"?>
<!DOCTYPE svg PUBLIC "-//W3C//DTD SVG 1.1//EN"
 "http://www.w3.org/Graphics/SVG/1.1/DTD/svg11.dtd">
<!-- Generated by graphviz version 2.43.0 (0)
 -->
<!-- Title: %3 Pages: 1 -->
<svg width="1003pt" height="262pt"
 viewBox="0.00 0.00 1003.00 262.00" xmlns="http://www.w3.org/2000/svg" xmlns:xlink="http://www.w3.org/1999/xlink">
<g id="graph0" class="graph" transform="scale(1 1) rotate(0) translate(4 258)">
<title>%3</title>
<polygon fill="white" stroke="transparent" points="-4,4 -4,-258 999,-258 999,4 -4,4"/>
<!-- node_0 -->
<g id="node1" class="node">
<title>node_0</title>
<polygon fill="none" stroke="black" points="766.5,-170 644.5,-170 644.5,-134 766.5,-134 766.5,-170"/>
<text text-anchor="start" x="690" y="-155.4" font-family="Fira Mono Medium" font-weight="bold" font-size="12.00">bank</text>
<text text-anchor="start" x="652.5" y="-143.4" font-family="Fira Mono Medium" font-style="italic" font-size="12.00">location:</text>
<text text-anchor="start" x="720.5" y="-143.4" font-family="Fira Mono Medium" font-size="12.00"> left</text>
</g>
<!-- node_1 -->
<g id="node2" class="node">
<title>node_1</title>
<polygon fill="none" stroke="black" points="995,-136 865,-136 865,-100 995,-100 995,-136"/>
<text text-anchor="start" x="914.5" y="-121.4" font-family="Fira Mono Medium" font-weight="bold" font-size="12.00">bank</text>
<text text-anchor="start" x="873" y="-109.4" font-family="Fira Mono Medium" font-style="italic" font-size="12.00">location:</text>
<text text-anchor="start" x="941" y="-109.4" font-family="Fira Mono Medium" font-size="12.00"> right</text>
</g>
<!-- node_0&#45;&gt;node_1 -->
<g id="edge1" class="edge">
<title>node_0&#45;&gt;node_1</title>
<path fill="none" stroke="black" d="M766.71,-142.8C793.88,-138.65 826.24,-133.7 854.88,-129.33"/>
<polygon fill="black" stroke="black" points="855.49,-132.77 864.84,-127.8 854.43,-125.85 855.49,-132.77"/>
<text text-anchor="middle" x="819.5" y="-141" font-family="Fira Mono Medium" font-size="10.00">not&#45;equal</text>
</g>
<!-- node_1&#45;&gt;node_0 -->
<g id="edge2" class="edge">
<title>node_1&#45;&gt;node_0</title>
<path fill="none" stroke="black" d="M864.73,-112.23C841.61,-111.55 815.45,-112.39 792,-117 778.33,-119.69 764.09,-124.58 751.25,-129.88"/>
<polygon fill="black" stroke="black" points="749.53,-126.8 741.73,-133.97 752.3,-133.23 749.53,-126.8"/>
<text text-anchor="middle" x="819.5" y="-120" font-family="Fira Mono Medium" font-size="10.00">not&#45;equal</text>
</g>
<!-- node_2 -->
<g id="node3" class="node">
<title>node_2</title>
<polygon fill="none" stroke="black" points="732.5,-224 678.5,-224 678.5,-188 732.5,-188 732.5,-224"/>
<text text-anchor="start" x="690" y="-203.9" font-family="Fira Mono Medium" font-weight="bold" font-size="12.00">boat</text>
</g>
<!-- node_2&#45;&gt;node_1 -->
<g id="edge3" class="edge">
<title>node_2&#45;&gt;node_1</title>
<path fill="none" stroke="black" d="M732.52,-196.56C760.82,-186.21 807.33,-168.94 847,-153 857.12,-148.93 867.87,-144.46 878.15,-140.1"/>
<polygon fill="black" stroke="black" points="879.6,-143.29 887.43,-136.15 876.86,-136.85 879.6,-143.29"/>
<text text-anchor="middle" x="819.5" y="-176" font-family="Fira Mono Medium" font-size="10.00">at</text>
</g>
<!-- node_3 -->
<g id="node4" class="node">
<title>node_3</title>
<polygon fill="none" stroke="black" points="359,-254 229,-254 229,-210 359,-210 359,-254"/>
<text text-anchor="start" x="275" y="-241.4" font-family="Fira Mono Medium" font-weight="bold" font-size="12.00">human</text>
<text text-anchor="start" x="241" y="-229.4" font-family="Fira Mono Medium" font-style="italic" font-size="12.00">kind:</text>
<text text-anchor="start" x="279" y="-229.4" font-family="Fira Mono Medium" font-size="12.00"> cannibal</text>
<text text-anchor="start" x="237" y="-217.4" font-family="Fira Mono Medium" font-style="italic" font-size="12.00">can&#45;drive:</text>
<text text-anchor="start" x="313" y="-217.4" font-family="Fira Mono Medium" font-size="12.00"> true</text>
</g>
<!-- node_3&#45;&gt;node_0 -->
<g id="edge6" class="edge">
<title>node_3&#45;&gt;node_0</title>
<path fill="none" stroke="black" d="M359.44,-236.3C365.38,-236.58 371.3,-236.83 377,-237 401.43,-237.74 407.76,-240.13 432,-237 503.1,-227.81 519.71,-217.81 588,-196 608.71,-189.39 631.12,-181.18 650.71,-173.65"/>
<polygon fill="black" stroke="black" points="652.01,-176.9 660.07,-170.02 649.48,-170.37 652.01,-176.9"/>
<text text-anchor="middle" x="519" y="-237" font-family="Fira Mono Medium" font-size="10.00">at</text>
</g>
<!-- node_4 -->
<g id="node5" class="node">
<title>node_4</title>
<polygon fill="none" stroke="black" points="588,-187 450,-187 450,-143 588,-143 588,-187"/>
<text text-anchor="start" x="500" y="-174.4" font-family="Fira Mono Medium" font-weight="bold" font-size="12.00">human</text>
<text text-anchor="start" x="466" y="-162.4" font-family="Fira Mono Medium" font-style="italic" font-size="12.00">kind:</text>
<text text-anchor="start" x="504" y="-162.4" font-family="Fira Mono Medium" font-size="12.00"> cannibal</text>
<text text-anchor="start" x="458" y="-150.4" font-family="Fira Mono Medium" font-style="italic" font-size="12.00">can&#45;drive:</text>
<text text-anchor="start" x="534" y="-150.4" font-family="Fira Mono Medium" font-size="12.00"> false</text>
</g>
<!-- node_3&#45;&gt;node_4 -->
<g id="edge4" class="edge">
<title>node_3&#45;&gt;node_4</title>
<path fill="none" stroke="black" d="M359.11,-226.05C382.46,-222.76 408.8,-217.71 432,-210 445.77,-205.43 460.01,-198.84 472.84,-192.11"/>
<polygon fill="black" stroke="black" points="474.77,-195.04 481.9,-187.21 471.44,-188.89 474.77,-195.04"/>
<text text-anchor="middle" x="404.5" y="-225" font-family="Fira Mono Medium" font-size="10.00">not&#45;equal</text>
</g>
<!-- node_5 -->
<g id="node6" class="node">
<title>node_5</title>
<polygon fill="none" stroke="black" points="138,-187 0,-187 0,-143 138,-143 138,-187"/>
<text text-anchor="start" x="50" y="-174.4" font-family="Fira Mono Medium" font-weight="bold" font-size="12.00">human</text>
<text text-anchor="start" x="16" y="-162.4" font-family="Fira Mono Medium" font-style="italic" font-size="12.00">kind:</text>
<text text-anchor="start" x="54" y="-162.4" font-family="Fira Mono Medium" font-size="12.00"> cannibal</text>
<text text-anchor="start" x="8" y="-150.4" font-family="Fira Mono Medium" font-style="italic" font-size="12.00">can&#45;drive:</text>
<text text-anchor="start" x="84" y="-150.4" font-family="Fira Mono Medium" font-size="12.00"> false</text>
</g>
<!-- node_3&#45;&gt;node_5 -->
<g id="edge5" class="edge">
<title>node_3&#45;&gt;node_5</title>
<path fill="none" stroke="black" d="M241.36,-209.89C231.38,-206 220.94,-202.18 211,-199 190.9,-192.57 168.86,-186.71 148.29,-181.73"/>
<polygon fill="black" stroke="black" points="148.87,-178.27 138.33,-179.36 147.25,-185.08 148.87,-178.27"/>
<text text-anchor="middle" x="183.5" y="-202" font-family="Fira Mono Medium" font-size="10.00">not&#45;equal</text>
</g>
<!-- node_4&#45;&gt;node_0 -->
<g id="edge9" class="edge">
<title>node_4&#45;&gt;node_0</title>
<path fill="none" stroke="black" d="M588.18,-160.2C603.11,-159.14 618.94,-158.03 633.96,-156.97"/>
<polygon fill="black" stroke="black" points="634.48,-160.44 644.21,-156.25 633.99,-153.46 634.48,-160.44"/>
<text text-anchor="middle" x="612.5" y="-161" font-family="Fira Mono Medium" font-size="10.00">at</text>
</g>
<!-- node_4&#45;&gt;node_3 -->
<g id="edge7" class="edge">
<title>node_4&#45;&gt;node_3</title>
<path fill="none" stroke="black" d="M449.91,-177.86C426.55,-182.95 400.4,-189.42 377,-197 368.76,-199.67 360.21,-202.84 351.87,-206.17"/>
<polygon fill="black" stroke="black" points="350.5,-202.95 342.58,-209.98 353.16,-209.43 350.5,-202.95"/>
<text text-anchor="middle" x="404.5" y="-200" font-family="Fira Mono Medium" font-size="10.00">not&#45;equal</text>
</g>
<!-- node_4&#45;&gt;node_5 -->
<g id="edge8" class="edge">
<title>node_4&#45;&gt;node_5</title>
<path fill="none" stroke="black" d="M450,-147.69C422.01,-141.41 389.15,-135.1 359,-132 301.52,-126.1 286.48,-126.1 229,-132 202.38,-134.73 173.65,-139.97 148.03,-145.49"/>
<polygon fill="black" stroke="black" points="147.02,-142.13 138,-147.69 148.52,-148.97 147.02,-142.13"/>
<text text-anchor="middle" x="294" y="-135" font-family="Fira Mono Medium" font-size="10.00">not&#45;equal</text>
</g>
<!-- node_5&#45;&gt;node_1 -->
<g id="edge12" class="edge">
<title>node_5&#45;&gt;node_1</title>
<path fill="none" stroke="black" d="M100.8,-142.96C142.34,-115.46 219.59,-72 293,-72 293,-72 293,-72 706.5,-72 760.22,-72 819.76,-85.02 863.72,-97.21"/>
<polygon fill="black" stroke="black" points="862.84,-100.6 873.42,-99.95 864.75,-93.86 862.84,-100.6"/>
<text text-anchor="middle" x="519" y="-75" font-family="Fira Mono Medium" font-size="10.00">at</text>
</g>
<!-- node_5&#45;&gt;node_3 -->
<g id="edge10" class="edge">
<title>node_5&#45;&gt;node_3</title>
<path fill="none" stroke="black" d="M106.1,-187.21C121.06,-195.52 138.89,-204.32 156,-210 175.94,-216.62 198.2,-221.29 218.88,-224.56"/>
<polygon fill="black" stroke="black" points="218.48,-228.04 228.89,-226.05 219.51,-221.11 218.48,-228.04"/>
<text text-anchor="middle" x="183.5" y="-225" font-family="Fira Mono Medium" font-size="10.00">not&#45;equal</text>
</g>
<!-- node_5&#45;&gt;node_4 -->
<g id="edge11" class="edge">
<title>node_5&#45;&gt;node_4</title>
<path fill="none" stroke="black" d="M138.04,-165C219.07,-165 354.16,-165 439.53,-165"/>
<polygon fill="black" stroke="black" points="439.69,-168.5 449.69,-165 439.69,-161.5 439.69,-168.5"/>
<text text-anchor="middle" x="294" y="-168" font-family="Fira Mono Medium" font-size="10.00">not&#45;equal</text>
</g>
<!-- node_6 -->
<g id="node7" class="node">
<title>node_6</title>
<polygon fill="none" stroke="black" points="774,-44 637,-44 637,0 774,0 774,-44"/>
<text text-anchor="start" x="686.5" y="-31.4" font-family="Fira Mono Medium" font-weight="bold" font-size="12.00">human</text>
<text text-anchor="start" x="645" y="-19.4" font-family="Fira Mono Medium" font-style="italic" font-size="12.00">kind:</text>
<text text-anchor="start" x="683" y="-19.4" font-family="Fira Mono Medium" font-size="12.00"> missionary</text>
<text text-anchor="start" x="648.5" y="-7.4" font-family="Fira Mono Medium" font-style="italic" font-size="12.00">can&#45;drive:</text>
<text text-anchor="start" x="724.5" y="-7.4" font-family="Fira Mono Medium" font-size="12.00"> true</text>
</g>
<!-- node_6&#45;&gt;node_1 -->
<g id="edge13" class="edge">
<title>node_6&#45;&gt;node_1</title>
<path fill="none" stroke="black" d="M774.16,-26.61C798.04,-30.13 824.52,-36.29 847,-47 869.79,-57.86 891.2,-76.82 906.42,-92.41"/>
<polygon fill="black" stroke="black" points="903.96,-94.9 913.38,-99.75 909.04,-90.09 903.96,-94.9"/>
<text text-anchor="middle" x="819.5" y="-50" font-family="Fira Mono Medium" font-size="10.00">at</text>
</g>
</g>
</svg>
