<?xml version="1.0" encoding="UTF-8" standalone="no"?>
<!DOCTYPE svg PUBLIC "-//W3C//DTD SVG 1.1//EN"
 "http://www.w3.org/Graphics/SVG/1.1/DTD/svg11.dtd">
<!-- Generated by graphviz version 2.43.0 (0)
 -->
<!-- Title: %3 Pages: 1 -->
<svg width="817pt" height="260pt"
 viewBox="0.00 0.00 817.00 260.00" xmlns="http://www.w3.org/2000/svg" xmlns:xlink="http://www.w3.org/1999/xlink">
<g id="graph0" class="graph" transform="scale(1 1) rotate(0) translate(4 256)">
<title>%3</title>
<polygon fill="white" stroke="transparent" points="-4,4 -4,-256 813,-256 813,4 -4,4"/>
<!-- node_0 -->
<g id="node1" class="node">
<title>node_0</title>
<polygon fill="none" stroke="black" points="580,-160 458,-160 458,-124 580,-124 580,-160"/>
<text text-anchor="start" x="503.5" y="-145.4" font-family="Fira Mono Medium" font-weight="bold" font-size="12.00">bank</text>
<text text-anchor="start" x="466" y="-133.4" font-family="Fira Mono Medium" font-style="italic" font-size="12.00">location:</text>
<text text-anchor="start" x="534" y="-133.4" font-family="Fira Mono Medium" font-size="12.00"> left</text>
</g>
<!-- node_1 -->
<g id="node2" class="node">
<title>node_1</title>
<polygon fill="none" stroke="black" points="809,-160 679,-160 679,-124 809,-124 809,-160"/>
<text text-anchor="start" x="728.5" y="-145.4" font-family="Fira Mono Medium" font-weight="bold" font-size="12.00">bank</text>
<text text-anchor="start" x="687" y="-133.4" font-family="Fira Mono Medium" font-style="italic" font-size="12.00">location:</text>
<text text-anchor="start" x="755" y="-133.4" font-family="Fira Mono Medium" font-size="12.00"> right</text>
</g>
<!-- node_0&#45;&gt;node_1 -->
<g id="edge1" class="edge">
<title>node_0&#45;&gt;node_1</title>
<path fill="none" stroke="black" d="M580.05,-142C607.4,-142 640.04,-142 668.9,-142"/>
<polygon fill="black" stroke="black" points="668.93,-145.5 678.93,-142 668.93,-138.5 668.93,-145.5"/>
<text text-anchor="middle" x="633.5" y="-145" font-family="Fira Mono Medium" font-size="10.00">not&#45;equal</text>
</g>
<!-- node_1&#45;&gt;node_0 -->
<g id="edge2" class="edge">
<title>node_1&#45;&gt;node_0</title>
<path fill="none" stroke="black" d="M678.69,-129.1C672.73,-128.25 666.77,-127.52 661,-127 636.66,-124.79 630.35,-124.89 606,-127 600.94,-127.44 595.73,-128.02 590.5,-128.7"/>
<polygon fill="black" stroke="black" points="589.85,-125.25 580.44,-130.11 590.83,-132.18 589.85,-125.25"/>
<text text-anchor="middle" x="633.5" y="-130" font-family="Fira Mono Medium" font-size="10.00">not&#45;equal</text>
</g>
<!-- node_2 -->
<g id="node3" class="node">
<title>node_2</title>
<polygon fill="none" stroke="black" points="546,-252 492,-252 492,-216 546,-216 546,-252"/>
<text text-anchor="start" x="503.5" y="-231.9" font-family="Fira Mono Medium" font-weight="bold" font-size="12.00">boat</text>
</g>
<!-- node_2&#45;&gt;node_1 -->
<g id="edge3" class="edge">
<title>node_2&#45;&gt;node_1</title>
<path fill="none" stroke="black" d="M546.23,-231.29C575.34,-227.55 623.19,-219.22 661,-202 680.64,-193.05 700.24,-178.95 715.34,-166.67"/>
<polygon fill="black" stroke="black" points="717.81,-169.17 723.25,-160.08 713.33,-163.8 717.81,-169.17"/>
<text text-anchor="middle" x="633.5" y="-222" font-family="Fira Mono Medium" font-size="10.00">at</text>
</g>
<!-- node_3 -->
<g id="node4" class="node">
<title>node_3</title>
<polygon fill="none" stroke="black" points="359,-141 229,-141 229,-97 359,-97 359,-141"/>
<text text-anchor="start" x="275" y="-128.4" font-family="Fira Mono Medium" font-weight="bold" font-size="12.00">human</text>
<text text-anchor="start" x="241" y="-116.4" font-family="Fira Mono Medium" font-style="italic" font-size="12.00">kind:</text>
<text text-anchor="start" x="279" y="-116.4" font-family="Fira Mono Medium" font-size="12.00"> cannibal</text>
<text text-anchor="start" x="237" y="-104.4" font-family="Fira Mono Medium" font-style="italic" font-size="12.00">can&#45;drive:</text>
<text text-anchor="start" x="313" y="-104.4" font-family="Fira Mono Medium" font-size="12.00"> true</text>
</g>
<!-- node_3&#45;&gt;node_0 -->
<g id="edge6" class="edge">
<title>node_3&#45;&gt;node_0</title>
<path fill="none" stroke="black" d="M359.4,-128.84C365.35,-129.63 371.28,-130.36 377,-131 399.96,-133.57 425.09,-135.74 447.69,-137.45"/>
<polygon fill="black" stroke="black" points="447.65,-140.96 457.88,-138.21 448.17,-133.98 447.65,-140.96"/>
<text text-anchor="middle" x="404.5" y="-139" font-family="Fira Mono Medium" font-size="10.00">at</text>
</g>
<!-- node_4 -->
<g id="node5" class="node">
<title>node_4</title>
<polygon fill="none" stroke="black" points="138,-107 0,-107 0,-63 138,-63 138,-107"/>
<text text-anchor="start" x="50" y="-94.4" font-family="Fira Mono Medium" font-weight="bold" font-size="12.00">human</text>
<text text-anchor="start" x="16" y="-82.4" font-family="Fira Mono Medium" font-style="italic" font-size="12.00">kind:</text>
<text text-anchor="start" x="54" y="-82.4" font-family="Fira Mono Medium" font-size="12.00"> cannibal</text>
<text text-anchor="start" x="8" y="-70.4" font-family="Fira Mono Medium" font-style="italic" font-size="12.00">can&#45;drive:</text>
<text text-anchor="start" x="84" y="-70.4" font-family="Fira Mono Medium" font-size="12.00"> false</text>
</g>
<!-- node_3&#45;&gt;node_4 -->
<g id="edge4" class="edge">
<title>node_3&#45;&gt;node_4</title>
<path fill="none" stroke="black" d="M246.66,-96.85C235.26,-92.39 222.89,-88.35 211,-86 190.97,-82.05 169.02,-80.56 148.54,-80.36"/>
<polygon fill="black" stroke="black" points="148.29,-76.86 138.29,-80.36 148.29,-83.86 148.29,-76.86"/>
<text text-anchor="middle" x="183.5" y="-89" font-family="Fira Mono Medium" font-size="10.00">not&#45;equal</text>
</g>
<!-- node_5 -->
<g id="node6" class="node">
<title>node_5</title>
<polygon fill="none" stroke="black" points="588,-106 450,-106 450,-62 588,-62 588,-106"/>
<text text-anchor="start" x="500" y="-93.4" font-family="Fira Mono Medium" font-weight="bold" font-size="12.00">human</text>
<text text-anchor="start" x="466" y="-81.4" font-family="Fira Mono Medium" font-style="italic" font-size="12.00">kind:</text>
<text text-anchor="start" x="504" y="-81.4" font-family="Fira Mono Medium" font-size="12.00"> cannibal</text>
<text text-anchor="start" x="458" y="-69.4" font-family="Fira Mono Medium" font-style="italic" font-size="12.00">can&#45;drive:</text>
<text text-anchor="start" x="534" y="-69.4" font-family="Fira Mono Medium" font-size="12.00"> false</text>
</g>
<!-- node_3&#45;&gt;node_5 -->
<g id="edge5" class="edge">
<title>node_3&#45;&gt;node_5</title>
<path fill="none" stroke="black" d="M341.35,-96.91C352.76,-92.45 365.11,-88.39 377,-86 397.02,-81.98 418.96,-80.36 439.45,-80.01"/>
<polygon fill="black" stroke="black" points="439.72,-83.51 449.69,-79.94 439.67,-76.51 439.72,-83.51"/>
<text text-anchor="middle" x="404.5" y="-89" font-family="Fira Mono Medium" font-size="10.00">not&#45;equal</text>
</g>
<!-- node_4&#45;&gt;node_1 -->
<g id="edge9" class="edge">
<title>node_4&#45;&gt;node_1</title>
<path fill="none" stroke="black" d="M113.32,-107.03C144.62,-121.86 188.37,-140.4 229,-150 384.5,-186.73 428.75,-182 588,-169 614.56,-166.83 643.38,-162.4 668.89,-157.73"/>
<polygon fill="black" stroke="black" points="669.67,-161.15 678.86,-155.87 668.39,-154.27 669.67,-161.15"/>
<text text-anchor="middle" x="404.5" y="-181" font-family="Fira Mono Medium" font-size="10.00">at</text>
</g>
<!-- node_4&#45;&gt;node_3 -->
<g id="edge7" class="edge">
<title>node_4&#45;&gt;node_3</title>
<path fill="none" stroke="black" d="M138.12,-95.39C163.56,-99.26 192.57,-103.69 218.56,-107.65"/>
<polygon fill="black" stroke="black" points="218.31,-111.15 228.73,-109.2 219.37,-104.23 218.31,-111.15"/>
<text text-anchor="middle" x="183.5" y="-109" font-family="Fira Mono Medium" font-size="10.00">not&#45;equal</text>
</g>
<!-- node_4&#45;&gt;node_5 -->
<g id="edge8" class="edge">
<title>node_4&#45;&gt;node_5</title>
<path fill="none" stroke="black" d="M138.02,-77.22C144.09,-76.73 150.15,-76.31 156,-76 278.5,-69.61 309.47,-70.31 432,-76 434.56,-76.12 437.15,-76.26 439.77,-76.41"/>
<polygon fill="black" stroke="black" points="439.76,-79.92 449.97,-77.08 440.22,-72.93 439.76,-79.92"/>
<text text-anchor="middle" x="294" y="-75" font-family="Fira Mono Medium" font-size="10.00">not&#45;equal</text>
</g>
<!-- node_5&#45;&gt;node_1 -->
<g id="edge12" class="edge">
<title>node_5&#45;&gt;node_1</title>
<path fill="none" stroke="black" d="M588.02,-93.86C611.38,-97.95 637.54,-103.32 661,-110 671.14,-112.88 681.76,-116.54 691.88,-120.33"/>
<polygon fill="black" stroke="black" points="690.8,-123.67 701.39,-124 693.31,-117.14 690.8,-123.67"/>
<text text-anchor="middle" x="633.5" y="-113" font-family="Fira Mono Medium" font-size="10.00">at</text>
</g>
<!-- node_5&#45;&gt;node_3 -->
<g id="edge10" class="edge">
<title>node_5&#45;&gt;node_3</title>
<path fill="none" stroke="black" d="M449.98,-94.68C424.49,-98.68 395.42,-103.24 369.39,-107.32"/>
<polygon fill="black" stroke="black" points="368.54,-103.92 359.2,-108.92 369.62,-110.83 368.54,-103.92"/>
<text text-anchor="middle" x="404.5" y="-108" font-family="Fira Mono Medium" font-size="10.00">not&#45;equal</text>
</g>
<!-- node_5&#45;&gt;node_4 -->
<g id="edge11" class="edge">
<title>node_5&#45;&gt;node_4</title>
<path fill="none" stroke="black" d="M449.87,-69.31C421.86,-63.98 389.02,-58.62 359,-56 301.44,-50.97 286.55,-50.92 229,-56 196.17,-58.9 188.42,-63.1 156,-69 153.36,-69.48 150.67,-69.97 147.96,-70.47"/>
<polygon fill="black" stroke="black" points="147.26,-67.04 138.06,-72.29 148.53,-73.92 147.26,-67.04"/>
<text text-anchor="middle" x="294" y="-59" font-family="Fira Mono Medium" font-size="10.00">not&#45;equal</text>
</g>
<!-- node_6 -->
<g id="node7" class="node">
<title>node_6</title>
<polygon fill="none" stroke="black" points="587.5,-44 450.5,-44 450.5,0 587.5,0 587.5,-44"/>
<text text-anchor="start" x="500" y="-31.4" font-family="Fira Mono Medium" font-weight="bold" font-size="12.00">human</text>
<text text-anchor="start" x="458.5" y="-19.4" font-family="Fira Mono Medium" font-style="italic" font-size="12.00">kind:</text>
<text text-anchor="start" x="496.5" y="-19.4" font-family="Fira Mono Medium" font-size="12.00"> missionary</text>
<text text-anchor="start" x="462" y="-7.4" font-family="Fira Mono Medium" font-style="italic" font-size="12.00">can&#45;drive:</text>
<text text-anchor="start" x="538" y="-7.4" font-family="Fira Mono Medium" font-size="12.00"> true</text>
</g>
<!-- node_6&#45;&gt;node_1 -->
<g id="edge13" class="edge">
<title>node_6&#45;&gt;node_1</title>
<path fill="none" stroke="black" d="M580.1,-44.03C605.68,-54.3 635.45,-67.47 661,-82 679.24,-92.37 698.24,-106.06 713.35,-117.75"/>
<polygon fill="black" stroke="black" points="711.29,-120.58 721.31,-124 715.61,-115.07 711.29,-120.58"/>
<text text-anchor="middle" x="633.5" y="-85" font-family="Fira Mono Medium" font-size="10.00">at</text>
</g>
</g>
</svg>
