<?xml version="1.0" encoding="UTF-8" standalone="no"?>
<!DOCTYPE svg PUBLIC "-//W3C//DTD SVG 1.1//EN"
 "http://www.w3.org/Graphics/SVG/1.1/DTD/svg11.dtd">
<!-- Generated by graphviz version 2.43.0 (0)
 -->
<!-- Title: %3 Pages: 1 -->
<svg width="988pt" height="254pt"
 viewBox="0.00 0.00 988.00 254.00" xmlns="http://www.w3.org/2000/svg" xmlns:xlink="http://www.w3.org/1999/xlink">
<g id="graph0" class="graph" transform="scale(1 1) rotate(0) translate(4 250)">
<title>%3</title>
<polygon fill="white" stroke="transparent" points="-4,4 -4,-250 984,-250 984,4 -4,4"/>
<!-- node_0 -->
<g id="node1" class="node">
<title>node_0</title>
<polygon fill="none" stroke="black" points="759,-161 637,-161 637,-125 759,-125 759,-161"/>
<text text-anchor="start" x="682.5" y="-146.4" font-family="Fira Mono Medium" font-weight="bold" font-size="12.00">bank</text>
<text text-anchor="start" x="645" y="-134.4" font-family="Fira Mono Medium" font-style="italic" font-size="12.00">location:</text>
<text text-anchor="start" x="713" y="-134.4" font-family="Fira Mono Medium" font-size="12.00"> left</text>
</g>
<!-- node_1 -->
<g id="node2" class="node">
<title>node_1</title>
<polygon fill="none" stroke="black" points="980,-161 850,-161 850,-125 980,-125 980,-161"/>
<text text-anchor="start" x="899.5" y="-146.4" font-family="Fira Mono Medium" font-weight="bold" font-size="12.00">bank</text>
<text text-anchor="start" x="858" y="-134.4" font-family="Fira Mono Medium" font-style="italic" font-size="12.00">location:</text>
<text text-anchor="start" x="926" y="-134.4" font-family="Fira Mono Medium" font-size="12.00"> right</text>
</g>
<!-- node_0&#45;&gt;node_1 -->
<g id="edge1" class="edge">
<title>node_0&#45;&gt;node_1</title>
<path fill="none" stroke="black" d="M759.18,-143C784.07,-143 813.2,-143 839.43,-143"/>
<polygon fill="black" stroke="black" points="839.7,-146.5 849.7,-143 839.7,-139.5 839.7,-146.5"/>
<text text-anchor="middle" x="804.5" y="-146" font-family="Fira Mono Medium" font-size="10.00">not&#45;equal</text>
</g>
<!-- node_1&#45;&gt;node_0 -->
<g id="edge2" class="edge">
<title>node_1&#45;&gt;node_0</title>
<path fill="none" stroke="black" d="M849.69,-130.1C843.73,-129.25 837.77,-128.52 832,-128 807.66,-125.79 801.33,-125.68 777,-128 774.48,-128.24 771.92,-128.52 769.33,-128.84"/>
<polygon fill="black" stroke="black" points="768.73,-125.39 759.3,-130.23 769.69,-132.33 768.73,-125.39"/>
<text text-anchor="middle" x="804.5" y="-131" font-family="Fira Mono Medium" font-size="10.00">not&#45;equal</text>
</g>
<!-- node_2 -->
<g id="node3" class="node">
<title>node_2</title>
<polygon fill="none" stroke="black" points="546,-246 492,-246 492,-210 546,-210 546,-246"/>
<text text-anchor="start" x="503.5" y="-225.9" font-family="Fira Mono Medium" font-weight="bold" font-size="12.00">boat</text>
</g>
<!-- node_2&#45;&gt;node_0 -->
<g id="edge3" class="edge">
<title>node_2&#45;&gt;node_0</title>
<path fill="none" stroke="black" d="M546,-221.77C566.44,-216.36 595.31,-207.58 619,-196 635.32,-188.02 652.15,-177 665.98,-167.07"/>
<polygon fill="black" stroke="black" points="668.17,-169.81 674.17,-161.07 664.03,-164.16 668.17,-169.81"/>
<text text-anchor="middle" x="612.5" y="-204" font-family="Fira Mono Medium" font-size="10.00">at</text>
</g>
<!-- node_3 -->
<g id="node4" class="node">
<title>node_3</title>
<polygon fill="none" stroke="black" points="130,-105 0,-105 0,-61 130,-61 130,-105"/>
<text text-anchor="start" x="46" y="-92.4" font-family="Fira Mono Medium" font-weight="bold" font-size="12.00">human</text>
<text text-anchor="start" x="12" y="-80.4" font-family="Fira Mono Medium" font-style="italic" font-size="12.00">kind:</text>
<text text-anchor="start" x="50" y="-80.4" font-family="Fira Mono Medium" font-size="12.00"> cannibal</text>
<text text-anchor="start" x="8" y="-68.4" font-family="Fira Mono Medium" font-style="italic" font-size="12.00">can&#45;drive:</text>
<text text-anchor="start" x="84" y="-68.4" font-family="Fira Mono Medium" font-size="12.00"> true</text>
</g>
<!-- node_3&#45;&gt;node_0 -->
<g id="edge6" class="edge">
<title>node_3&#45;&gt;node_0</title>
<path fill="none" stroke="black" d="M106.35,-105.15C136.83,-120.56 180.24,-139.77 221,-148 362.72,-176.63 533.03,-163.79 626.68,-152.8"/>
<polygon fill="black" stroke="black" points="627.37,-156.24 636.88,-151.57 626.53,-149.29 627.37,-156.24"/>
<text text-anchor="middle" x="404.5" y="-168" font-family="Fira Mono Medium" font-size="10.00">at</text>
</g>
<!-- node_4 -->
<g id="node5" class="node">
<title>node_4</title>
<polygon fill="none" stroke="black" points="359,-139 221,-139 221,-95 359,-95 359,-139"/>
<text text-anchor="start" x="271" y="-126.4" font-family="Fira Mono Medium" font-weight="bold" font-size="12.00">human</text>
<text text-anchor="start" x="237" y="-114.4" font-family="Fira Mono Medium" font-style="italic" font-size="12.00">kind:</text>
<text text-anchor="start" x="275" y="-114.4" font-family="Fira Mono Medium" font-size="12.00"> cannibal</text>
<text text-anchor="start" x="229" y="-102.4" font-family="Fira Mono Medium" font-style="italic" font-size="12.00">can&#45;drive:</text>
<text text-anchor="start" x="305" y="-102.4" font-family="Fira Mono Medium" font-size="12.00"> false</text>
</g>
<!-- node_3&#45;&gt;node_4 -->
<g id="edge4" class="edge">
<title>node_3&#45;&gt;node_4</title>
<path fill="none" stroke="black" d="M130.2,-92.79C155.42,-96.63 184.59,-101.08 211,-105.11"/>
<polygon fill="black" stroke="black" points="210.56,-108.58 220.98,-106.63 211.62,-101.66 210.56,-108.58"/>
<text text-anchor="middle" x="175.5" y="-106" font-family="Fira Mono Medium" font-size="10.00">not&#45;equal</text>
</g>
<!-- node_5 -->
<g id="node6" class="node">
<title>node_5</title>
<polygon fill="none" stroke="black" points="588,-106 450,-106 450,-62 588,-62 588,-106"/>
<text text-anchor="start" x="500" y="-93.4" font-family="Fira Mono Medium" font-weight="bold" font-size="12.00">human</text>
<text text-anchor="start" x="466" y="-81.4" font-family="Fira Mono Medium" font-style="italic" font-size="12.00">kind:</text>
<text text-anchor="start" x="504" y="-81.4" font-family="Fira Mono Medium" font-size="12.00"> cannibal</text>
<text text-anchor="start" x="458" y="-69.4" font-family="Fira Mono Medium" font-style="italic" font-size="12.00">can&#45;drive:</text>
<text text-anchor="start" x="534" y="-69.4" font-family="Fira Mono Medium" font-size="12.00"> false</text>
</g>
<!-- node_3&#45;&gt;node_5 -->
<g id="edge5" class="edge">
<title>node_3&#45;&gt;node_5</title>
<path fill="none" stroke="black" d="M130.39,-74.4C136.34,-73.83 142.27,-73.35 148,-73 273.99,-65.35 306.03,-64.98 432,-73 434.41,-73.15 436.85,-73.33 439.32,-73.53"/>
<polygon fill="black" stroke="black" points="439.27,-77.04 449.54,-74.45 439.89,-70.07 439.27,-77.04"/>
<text text-anchor="middle" x="290" y="-71" font-family="Fira Mono Medium" font-size="10.00">not&#45;equal</text>
</g>
<!-- node_4&#45;&gt;node_0 -->
<g id="edge9" class="edge">
<title>node_4&#45;&gt;node_0</title>
<path fill="none" stroke="black" d="M359.41,-121.38C433.66,-126.14 551.63,-133.69 626.63,-138.49"/>
<polygon fill="black" stroke="black" points="626.72,-142.01 636.92,-139.15 627.17,-135.02 626.72,-142.01"/>
<text text-anchor="middle" x="519" y="-138" font-family="Fira Mono Medium" font-size="10.00">at</text>
</g>
<!-- node_4&#45;&gt;node_3 -->
<g id="edge7" class="edge">
<title>node_4&#45;&gt;node_3</title>
<path fill="none" stroke="black" d="M244.04,-94.9C231.1,-89.6 216.76,-84.69 203,-82 182.93,-78.07 160.89,-76.9 140.47,-77.07"/>
<polygon fill="black" stroke="black" points="140.2,-73.57 130.27,-77.26 140.33,-80.57 140.2,-73.57"/>
<text text-anchor="middle" x="175.5" y="-85" font-family="Fira Mono Medium" font-size="10.00">not&#45;equal</text>
</g>
<!-- node_4&#45;&gt;node_5 -->
<g id="edge8" class="edge">
<title>node_4&#45;&gt;node_5</title>
<path fill="none" stroke="black" d="M359.11,-107.1C384.58,-103.4 413.71,-99.16 440.01,-95.34"/>
<polygon fill="black" stroke="black" points="440.55,-98.8 449.94,-93.89 439.54,-91.87 440.55,-98.8"/>
<text text-anchor="middle" x="404.5" y="-107" font-family="Fira Mono Medium" font-size="10.00">not&#45;equal</text>
</g>
<!-- node_5&#45;&gt;node_0 -->
<g id="edge12" class="edge">
<title>node_5&#45;&gt;node_0</title>
<path fill="none" stroke="black" d="M586.16,-106.05C601.46,-111.15 617.72,-116.57 632.93,-121.64"/>
<polygon fill="black" stroke="black" points="632.17,-125.08 642.76,-124.92 634.38,-118.44 632.17,-125.08"/>
<text text-anchor="middle" x="612.5" y="-118" font-family="Fira Mono Medium" font-size="10.00">at</text>
</g>
<!-- node_5&#45;&gt;node_3 -->
<g id="edge10" class="edge">
<title>node_5&#45;&gt;node_3</title>
<path fill="none" stroke="black" d="M449.99,-68.7C443.91,-67.42 437.85,-66.17 432,-65 339.86,-46.63 314.59,-43.73 221,-52 188.17,-54.9 180.32,-58.58 148,-65 145.5,-65.5 142.96,-66.01 140.39,-66.54"/>
<polygon fill="black" stroke="black" points="139.49,-63.15 130.41,-68.61 140.91,-70 139.49,-63.15"/>
<text text-anchor="middle" x="290" y="-55" font-family="Fira Mono Medium" font-size="10.00">not&#45;equal</text>
</g>
<!-- node_5&#45;&gt;node_4 -->
<g id="edge11" class="edge">
<title>node_5&#45;&gt;node_4</title>
<path fill="none" stroke="black" d="M449.72,-77.38C426.46,-76.61 400.43,-77.42 377,-82 366.57,-84.04 355.81,-87.35 345.58,-91.14"/>
<polygon fill="black" stroke="black" points="344,-88 335.96,-94.9 346.55,-94.52 344,-88"/>
<text text-anchor="middle" x="404.5" y="-85" font-family="Fira Mono Medium" font-size="10.00">not&#45;equal</text>
</g>
<!-- node_6 -->
<g id="node7" class="node">
<title>node_6</title>
<polygon fill="none" stroke="black" points="587.5,-44 450.5,-44 450.5,0 587.5,0 587.5,-44"/>
<text text-anchor="start" x="500" y="-31.4" font-family="Fira Mono Medium" font-weight="bold" font-size="12.00">human</text>
<text text-anchor="start" x="458.5" y="-19.4" font-family="Fira Mono Medium" font-style="italic" font-size="12.00">kind:</text>
<text text-anchor="start" x="496.5" y="-19.4" font-family="Fira Mono Medium" font-size="12.00"> missionary</text>
<text text-anchor="start" x="462" y="-7.4" font-family="Fira Mono Medium" font-style="italic" font-size="12.00">can&#45;drive:</text>
<text text-anchor="start" x="538" y="-7.4" font-family="Fira Mono Medium" font-size="12.00"> true</text>
</g>
<!-- node_6&#45;&gt;node_0 -->
<g id="edge13" class="edge">
<title>node_6&#45;&gt;node_0</title>
<path fill="none" stroke="black" d="M572.35,-44.15C577.74,-46.94 583.05,-49.9 588,-53 618.26,-71.93 649.31,-98.39 670.49,-117.72"/>
<polygon fill="black" stroke="black" points="668.38,-120.54 678.11,-124.75 673.13,-115.4 668.38,-120.54"/>
<text text-anchor="middle" x="612.5" y="-75" font-family="Fira Mono Medium" font-size="10.00">at</text>
</g>
</g>
</svg>
