<?xml version="1.0" encoding="UTF-8" standalone="no"?>
<!DOCTYPE svg PUBLIC "-//W3C//DTD SVG 1.1//EN"
 "http://www.w3.org/Graphics/SVG/1.1/DTD/svg11.dtd">
<!-- Generated by graphviz version 2.43.0 (0)
 -->
<!-- Title: %3 Pages: 1 -->
<svg width="824pt" height="341pt"
 viewBox="0.00 0.00 824.00 341.00" xmlns="http://www.w3.org/2000/svg" xmlns:xlink="http://www.w3.org/1999/xlink">
<g id="graph0" class="graph" transform="scale(1 1) rotate(0) translate(4 337)">
<title>%3</title>
<polygon fill="white" stroke="transparent" points="-4,4 -4,-337 820,-337 820,4 -4,4"/>
<!-- node_0 -->
<g id="node1" class="node">
<title>node_0</title>
<polygon fill="none" stroke="black" points="587,-263 465,-263 465,-227 587,-227 587,-263"/>
<text text-anchor="start" x="510.5" y="-248.4" font-family="Fira Mono Medium" font-weight="bold" font-size="12.00">bank</text>
<text text-anchor="start" x="473" y="-236.4" font-family="Fira Mono Medium" font-style="italic" font-size="12.00">location:</text>
<text text-anchor="start" x="541" y="-236.4" font-family="Fira Mono Medium" font-size="12.00"> left</text>
</g>
<!-- node_1 -->
<g id="node2" class="node">
<title>node_1</title>
<polygon fill="none" stroke="black" points="816,-212 686,-212 686,-176 816,-176 816,-212"/>
<text text-anchor="start" x="735.5" y="-197.4" font-family="Fira Mono Medium" font-weight="bold" font-size="12.00">bank</text>
<text text-anchor="start" x="694" y="-185.4" font-family="Fira Mono Medium" font-style="italic" font-size="12.00">location:</text>
<text text-anchor="start" x="762" y="-185.4" font-family="Fira Mono Medium" font-size="12.00"> right</text>
</g>
<!-- node_0&#45;&gt;node_1 -->
<g id="edge1" class="edge">
<title>node_0&#45;&gt;node_1</title>
<path fill="none" stroke="black" d="M587.18,-238.11C612.37,-234.58 641.82,-229.61 668,-223 676.51,-220.85 685.38,-218.18 694.01,-215.34"/>
<polygon fill="black" stroke="black" points="695.28,-218.61 703.63,-212.08 693.03,-211.98 695.28,-218.61"/>
<text text-anchor="middle" x="640.5" y="-236" font-family="Fira Mono Medium" font-size="10.00">not&#45;equal</text>
</g>
<!-- node_1&#45;&gt;node_0 -->
<g id="edge2" class="edge">
<title>node_1&#45;&gt;node_0</title>
<path fill="none" stroke="black" d="M685.91,-197.88C662.69,-200.22 636.43,-203.98 613,-210 600.31,-213.26 587.01,-217.98 574.77,-222.9"/>
<polygon fill="black" stroke="black" points="573.1,-219.8 565.2,-226.86 575.78,-226.26 573.1,-219.8"/>
<text text-anchor="middle" x="640.5" y="-213" font-family="Fira Mono Medium" font-size="10.00">not&#45;equal</text>
</g>
<!-- node_2 -->
<g id="node3" class="node">
<title>node_2</title>
<polygon fill="none" stroke="black" points="324.5,-292 270.5,-292 270.5,-256 324.5,-256 324.5,-292"/>
<text text-anchor="start" x="282" y="-271.9" font-family="Fira Mono Medium" font-weight="bold" font-size="12.00">boat</text>
</g>
<!-- node_2&#45;&gt;node_0 -->
<g id="edge3" class="edge">
<title>node_2&#45;&gt;node_0</title>
<path fill="none" stroke="black" d="M324.67,-270.98C352.9,-267.68 399.16,-262.19 439,-257 444.1,-256.34 449.37,-255.63 454.67,-254.92"/>
<polygon fill="black" stroke="black" points="455.44,-258.35 464.87,-253.53 454.49,-251.41 455.44,-258.35"/>
<text text-anchor="middle" x="411.5" y="-266" font-family="Fira Mono Medium" font-size="10.00">at</text>
</g>
<!-- node_3 -->
<g id="node4" class="node">
<title>node_3</title>
<polygon fill="none" stroke="black" points="362.5,-233 232.5,-233 232.5,-189 362.5,-189 362.5,-233"/>
<text text-anchor="start" x="278.5" y="-220.4" font-family="Fira Mono Medium" font-weight="bold" font-size="12.00">human</text>
<text text-anchor="start" x="244.5" y="-208.4" font-family="Fira Mono Medium" font-style="italic" font-size="12.00">kind:</text>
<text text-anchor="start" x="282.5" y="-208.4" font-family="Fira Mono Medium" font-size="12.00"> cannibal</text>
<text text-anchor="start" x="240.5" y="-196.4" font-family="Fira Mono Medium" font-style="italic" font-size="12.00">can&#45;drive:</text>
<text text-anchor="start" x="316.5" y="-196.4" font-family="Fira Mono Medium" font-size="12.00"> true</text>
</g>
<!-- node_3&#45;&gt;node_0 -->
<g id="edge6" class="edge">
<title>node_3&#45;&gt;node_0</title>
<path fill="none" stroke="black" d="M362.8,-220.65C391.46,-224.95 425.31,-230.04 454.64,-234.44"/>
<polygon fill="black" stroke="black" points="454.41,-237.94 464.82,-235.97 455.45,-231.02 454.41,-237.94"/>
<text text-anchor="middle" x="411.5" y="-235" font-family="Fira Mono Medium" font-size="10.00">at</text>
</g>
<!-- node_4 -->
<g id="node5" class="node">
<title>node_4</title>
<polygon fill="none" stroke="black" points="138,-207 0,-207 0,-163 138,-163 138,-207"/>
<text text-anchor="start" x="50" y="-194.4" font-family="Fira Mono Medium" font-weight="bold" font-size="12.00">human</text>
<text text-anchor="start" x="16" y="-182.4" font-family="Fira Mono Medium" font-style="italic" font-size="12.00">kind:</text>
<text text-anchor="start" x="54" y="-182.4" font-family="Fira Mono Medium" font-size="12.00"> cannibal</text>
<text text-anchor="start" x="8" y="-170.4" font-family="Fira Mono Medium" font-style="italic" font-size="12.00">can&#45;drive:</text>
<text text-anchor="start" x="84" y="-170.4" font-family="Fira Mono Medium" font-size="12.00"> false</text>
</g>
<!-- node_3&#45;&gt;node_4 -->
<g id="edge4" class="edge">
<title>node_3&#45;&gt;node_4</title>
<path fill="none" stroke="black" d="M232.5,-190.22C225.31,-188.5 218.04,-187.03 211,-186 190.8,-183.03 168.79,-181.89 148.3,-181.71"/>
<polygon fill="black" stroke="black" points="148.07,-178.21 138.06,-181.69 148.06,-185.21 148.07,-178.21"/>
<text text-anchor="middle" x="183.5" y="-189" font-family="Fira Mono Medium" font-size="10.00">not&#45;equal</text>
</g>
<!-- node_5 -->
<g id="node6" class="node">
<title>node_5</title>
<polygon fill="none" stroke="black" points="595,-199 457,-199 457,-155 595,-155 595,-199"/>
<text text-anchor="start" x="507" y="-186.4" font-family="Fira Mono Medium" font-weight="bold" font-size="12.00">human</text>
<text text-anchor="start" x="473" y="-174.4" font-family="Fira Mono Medium" font-style="italic" font-size="12.00">kind:</text>
<text text-anchor="start" x="511" y="-174.4" font-family="Fira Mono Medium" font-size="12.00"> cannibal</text>
<text text-anchor="start" x="465" y="-162.4" font-family="Fira Mono Medium" font-style="italic" font-size="12.00">can&#45;drive:</text>
<text text-anchor="start" x="541" y="-162.4" font-family="Fira Mono Medium" font-size="12.00"> false</text>
</g>
<!-- node_3&#45;&gt;node_5 -->
<g id="edge5" class="edge">
<title>node_3&#45;&gt;node_5</title>
<path fill="none" stroke="black" d="M346.89,-188.85C358.78,-184.39 371.65,-180.35 384,-178 404.06,-174.19 426.02,-172.76 446.5,-172.55"/>
<polygon fill="black" stroke="black" points="446.75,-176.05 456.74,-172.55 446.74,-169.05 446.75,-176.05"/>
<text text-anchor="middle" x="411.5" y="-181" font-family="Fira Mono Medium" font-size="10.00">not&#45;equal</text>
</g>
<!-- node_4&#45;&gt;node_1 -->
<g id="edge9" class="edge">
<title>node_4&#45;&gt;node_1</title>
<path fill="none" stroke="black" d="M91.09,-207.41C119.33,-235.61 172.47,-282.57 229,-301 384.14,-351.58 435.82,-307.9 595,-272 628.32,-264.49 637.25,-262.86 668,-248 685.32,-239.63 703.31,-228.15 718,-217.92"/>
<polygon fill="black" stroke="black" points="720.11,-220.72 726.25,-212.08 716.06,-215.01 720.11,-220.72"/>
<text text-anchor="middle" x="411.5" y="-325" font-family="Fira Mono Medium" font-size="10.00">at</text>
</g>
<!-- node_4&#45;&gt;node_3 -->
<g id="edge7" class="edge">
<title>node_4&#45;&gt;node_3</title>
<path fill="none" stroke="black" d="M138.04,-194.75C144.11,-195.54 150.16,-196.3 156,-197 177.54,-199.57 200.97,-202.04 222.42,-204.17"/>
<polygon fill="black" stroke="black" points="222.15,-207.66 232.44,-205.15 222.83,-200.69 222.15,-207.66"/>
<text text-anchor="middle" x="183.5" y="-205" font-family="Fira Mono Medium" font-size="10.00">not&#45;equal</text>
</g>
<!-- node_4&#45;&gt;node_5 -->
<g id="edge8" class="edge">
<title>node_4&#45;&gt;node_5</title>
<path fill="none" stroke="black" d="M138.37,-176.7C166.41,-173.67 199.22,-170.59 229,-169 322.2,-164.02 345.79,-163.14 439,-168 441.56,-168.13 444.16,-168.29 446.78,-168.46"/>
<polygon fill="black" stroke="black" points="446.75,-171.97 456.98,-169.22 447.27,-164.99 446.75,-171.97"/>
<text text-anchor="middle" x="297.5" y="-172" font-family="Fira Mono Medium" font-size="10.00">not&#45;equal</text>
</g>
<!-- node_5&#45;&gt;node_1 -->
<g id="edge12" class="edge">
<title>node_5&#45;&gt;node_1</title>
<path fill="none" stroke="black" d="M595.27,-174.94C618.41,-174.91 644.37,-175.63 668,-178 670.53,-178.25 673.09,-178.55 675.67,-178.87"/>
<polygon fill="black" stroke="black" points="675.32,-182.36 685.71,-180.29 676.3,-175.43 675.32,-182.36"/>
<text text-anchor="middle" x="640.5" y="-181" font-family="Fira Mono Medium" font-size="10.00">at</text>
</g>
<!-- node_5&#45;&gt;node_3 -->
<g id="edge10" class="edge">
<title>node_5&#45;&gt;node_3</title>
<path fill="none" stroke="black" d="M456.98,-187.21C430.5,-191.19 400.07,-195.75 373,-199.82"/>
<polygon fill="black" stroke="black" points="372.17,-196.4 362.8,-201.35 373.21,-203.32 372.17,-196.4"/>
<text text-anchor="middle" x="411.5" y="-201" font-family="Fira Mono Medium" font-size="10.00">not&#45;equal</text>
</g>
<!-- node_5&#45;&gt;node_4 -->
<g id="edge11" class="edge">
<title>node_5&#45;&gt;node_4</title>
<path fill="none" stroke="black" d="M456.96,-164.2C450.89,-163.1 444.83,-162.02 439,-161 346.92,-144.87 321.91,-138.61 229,-149 202.43,-151.97 173.82,-157.65 148.29,-163.64"/>
<polygon fill="black" stroke="black" points="147.21,-160.3 138.3,-166.03 148.84,-167.1 147.21,-160.3"/>
<text text-anchor="middle" x="297.5" y="-152" font-family="Fira Mono Medium" font-size="10.00">not&#45;equal</text>
</g>
<!-- node_6 -->
<g id="node7" class="node">
<title>node_6</title>
<polygon fill="none" stroke="black" points="366,-69 229,-69 229,-25 366,-25 366,-69"/>
<text text-anchor="start" x="278.5" y="-56.4" font-family="Fira Mono Medium" font-weight="bold" font-size="12.00">human</text>
<text text-anchor="start" x="237" y="-44.4" font-family="Fira Mono Medium" font-style="italic" font-size="12.00">kind:</text>
<text text-anchor="start" x="275" y="-44.4" font-family="Fira Mono Medium" font-size="12.00"> missionary</text>
<text text-anchor="start" x="240.5" y="-32.4" font-family="Fira Mono Medium" font-style="italic" font-size="12.00">can&#45;drive:</text>
<text text-anchor="start" x="316.5" y="-32.4" font-family="Fira Mono Medium" font-size="12.00"> true</text>
</g>
<!-- node_6&#45;&gt;node_1 -->
<g id="edge14" class="edge">
<title>node_6&#45;&gt;node_1</title>
<path fill="none" stroke="black" d="M366.08,-65.49C426.47,-82.39 517.18,-108.68 595,-135 628.84,-146.44 666.29,-160.65 695.9,-172.26"/>
<polygon fill="black" stroke="black" points="694.63,-175.52 705.22,-175.93 697.2,-169.01 694.63,-175.52"/>
<text text-anchor="middle" x="526" y="-138" font-family="Fira Mono Medium" font-size="10.00">at</text>
</g>
<!-- node_7 -->
<g id="node8" class="node">
<title>node_7</title>
<polygon fill="none" stroke="black" points="594.5,-44 457.5,-44 457.5,0 594.5,0 594.5,-44"/>
<text text-anchor="start" x="507" y="-31.4" font-family="Fira Mono Medium" font-weight="bold" font-size="12.00">human</text>
<text text-anchor="start" x="465.5" y="-19.4" font-family="Fira Mono Medium" font-style="italic" font-size="12.00">kind:</text>
<text text-anchor="start" x="503.5" y="-19.4" font-family="Fira Mono Medium" font-size="12.00"> missionary</text>
<text text-anchor="start" x="469" y="-7.4" font-family="Fira Mono Medium" font-style="italic" font-size="12.00">can&#45;drive:</text>
<text text-anchor="start" x="545" y="-7.4" font-family="Fira Mono Medium" font-size="12.00"> true</text>
</g>
<!-- node_6&#45;&gt;node_7 -->
<g id="edge13" class="edge">
<title>node_6&#45;&gt;node_7</title>
<path fill="none" stroke="black" d="M355.33,-24.86C364.77,-22.02 374.57,-19.56 384,-18 404.35,-14.64 426.57,-13.93 447.23,-14.48"/>
<polygon fill="black" stroke="black" points="447.11,-17.98 457.23,-14.85 447.36,-10.98 447.11,-17.98"/>
<text text-anchor="middle" x="411.5" y="-21" font-family="Fira Mono Medium" font-size="10.00">not&#45;equal</text>
</g>
<!-- node_7&#45;&gt;node_1 -->
<g id="edge16" class="edge">
<title>node_7&#45;&gt;node_1</title>
<path fill="none" stroke="black" d="M594.81,-26.71C619.71,-31.16 646.93,-39.51 668,-55 706.09,-83 729.6,-134.48 741.19,-166.32"/>
<polygon fill="black" stroke="black" points="737.94,-167.63 744.54,-175.91 744.55,-165.32 737.94,-167.63"/>
<text text-anchor="middle" x="640.5" y="-58" font-family="Fira Mono Medium" font-size="10.00">at</text>
</g>
<!-- node_7&#45;&gt;node_6 -->
<g id="edge15" class="edge">
<title>node_7&#45;&gt;node_6</title>
<path fill="none" stroke="black" d="M457.31,-29.47C431.76,-32.29 402.5,-35.52 376.11,-38.43"/>
<polygon fill="black" stroke="black" points="375.71,-34.96 366.15,-39.53 376.47,-41.91 375.71,-34.96"/>
<text text-anchor="middle" x="411.5" y="-41" font-family="Fira Mono Medium" font-size="10.00">not&#45;equal</text>
</g>
</g>
</svg>
