<?xml version="1.0" encoding="UTF-8" standalone="no"?>
<!DOCTYPE svg PUBLIC "-//W3C//DTD SVG 1.1//EN"
 "http://www.w3.org/Graphics/SVG/1.1/DTD/svg11.dtd">
<!-- Generated by graphviz version 2.43.0 (0)
 -->
<!-- Title: %3 Pages: 1 -->
<svg width="995pt" height="469pt"
 viewBox="0.00 0.00 995.00 469.00" xmlns="http://www.w3.org/2000/svg" xmlns:xlink="http://www.w3.org/1999/xlink">
<g id="graph0" class="graph" transform="scale(1 1) rotate(0) translate(4 465)">
<title>%3</title>
<polygon fill="white" stroke="transparent" points="-4,4 -4,-465 991,-465 991,4 -4,4"/>
<!-- node_0 -->
<g id="node1" class="node">
<title>node_0</title>
<polygon fill="none" stroke="black" points="766,-276 644,-276 644,-240 766,-240 766,-276"/>
<text text-anchor="start" x="689.5" y="-261.4" font-family="Fira Mono Medium" font-weight="bold" font-size="12.00">bank</text>
<text text-anchor="start" x="652" y="-249.4" font-family="Fira Mono Medium" font-style="italic" font-size="12.00">location:</text>
<text text-anchor="start" x="720" y="-249.4" font-family="Fira Mono Medium" font-size="12.00"> left</text>
</g>
<!-- node_1 -->
<g id="node2" class="node">
<title>node_1</title>
<polygon fill="none" stroke="black" points="987,-310 857,-310 857,-274 987,-274 987,-310"/>
<text text-anchor="start" x="906.5" y="-295.4" font-family="Fira Mono Medium" font-weight="bold" font-size="12.00">bank</text>
<text text-anchor="start" x="865" y="-283.4" font-family="Fira Mono Medium" font-style="italic" font-size="12.00">location:</text>
<text text-anchor="start" x="933" y="-283.4" font-family="Fira Mono Medium" font-size="12.00"> right</text>
</g>
<!-- node_0&#45;&gt;node_1 -->
<g id="edge1" class="edge">
<title>node_0&#45;&gt;node_1</title>
<path fill="none" stroke="black" d="M766.18,-267.52C791.18,-271.47 820.45,-276.1 846.77,-280.26"/>
<polygon fill="black" stroke="black" points="846.28,-283.73 856.7,-281.83 847.37,-276.81 846.28,-283.73"/>
<text text-anchor="middle" x="811.5" y="-281" font-family="Fira Mono Medium" font-size="10.00">not&#45;equal</text>
</g>
<!-- node_1&#45;&gt;node_0 -->
<g id="edge2" class="edge">
<title>node_1&#45;&gt;node_0</title>
<path fill="none" stroke="black" d="M887.29,-273.98C872.85,-267.23 855.53,-260.38 839,-257 818.87,-252.88 796.67,-251.75 776.27,-252.02"/>
<polygon fill="black" stroke="black" points="776.01,-248.53 766.1,-252.27 776.18,-255.52 776.01,-248.53"/>
<text text-anchor="middle" x="811.5" y="-260" font-family="Fira Mono Medium" font-size="10.00">not&#45;equal</text>
</g>
<!-- node_2 -->
<g id="node3" class="node">
<title>node_2</title>
<polygon fill="none" stroke="black" points="553,-36 499,-36 499,0 553,0 553,-36"/>
<text text-anchor="start" x="510.5" y="-15.9" font-family="Fira Mono Medium" font-weight="bold" font-size="12.00">boat</text>
</g>
<!-- node_2&#45;&gt;node_0 -->
<g id="edge3" class="edge">
<title>node_2&#45;&gt;node_0</title>
<path fill="none" stroke="black" d="M553.28,-25.82C567,-30.95 583.32,-38.81 595,-50 649.1,-101.83 681.7,-186.43 695.78,-230.05"/>
<polygon fill="black" stroke="black" points="692.48,-231.21 698.82,-239.71 699.16,-229.12 692.48,-231.21"/>
<text text-anchor="middle" x="619.5" y="-86" font-family="Fira Mono Medium" font-size="10.00">at</text>
</g>
<!-- node_3 -->
<g id="node4" class="node">
<title>node_3</title>
<polygon fill="none" stroke="black" points="133.5,-385 3.5,-385 3.5,-341 133.5,-341 133.5,-385"/>
<text text-anchor="start" x="49.5" y="-372.4" font-family="Fira Mono Medium" font-weight="bold" font-size="12.00">human</text>
<text text-anchor="start" x="15.5" y="-360.4" font-family="Fira Mono Medium" font-style="italic" font-size="12.00">kind:</text>
<text text-anchor="start" x="53.5" y="-360.4" font-family="Fira Mono Medium" font-size="12.00"> cannibal</text>
<text text-anchor="start" x="11.5" y="-348.4" font-family="Fira Mono Medium" font-style="italic" font-size="12.00">can&#45;drive:</text>
<text text-anchor="start" x="87.5" y="-348.4" font-family="Fira Mono Medium" font-size="12.00"> true</text>
</g>
<!-- node_3&#45;&gt;node_1 -->
<g id="edge6" class="edge">
<title>node_3&#45;&gt;node_1</title>
<path fill="none" stroke="black" d="M103.63,-385.18C146.66,-410.95 223.76,-450 296,-450 296,-450 296,-450 706,-450 793.9,-450 869.63,-363.18 902.93,-318.25"/>
<polygon fill="black" stroke="black" points="905.78,-320.27 908.83,-310.12 900.12,-316.16 905.78,-320.27"/>
<text text-anchor="middle" x="526" y="-453" font-family="Fira Mono Medium" font-size="10.00">at</text>
</g>
<!-- node_4 -->
<g id="node5" class="node">
<title>node_4</title>
<polygon fill="none" stroke="black" points="366,-403 228,-403 228,-359 366,-359 366,-403"/>
<text text-anchor="start" x="278" y="-390.4" font-family="Fira Mono Medium" font-weight="bold" font-size="12.00">human</text>
<text text-anchor="start" x="244" y="-378.4" font-family="Fira Mono Medium" font-style="italic" font-size="12.00">kind:</text>
<text text-anchor="start" x="282" y="-378.4" font-family="Fira Mono Medium" font-size="12.00"> cannibal</text>
<text text-anchor="start" x="236" y="-366.4" font-family="Fira Mono Medium" font-style="italic" font-size="12.00">can&#45;drive:</text>
<text text-anchor="start" x="312" y="-366.4" font-family="Fira Mono Medium" font-size="12.00"> false</text>
</g>
<!-- node_3&#45;&gt;node_4 -->
<g id="edge4" class="edge">
<title>node_3&#45;&gt;node_4</title>
<path fill="none" stroke="black" d="M133.85,-372.71C140.97,-373.58 148.13,-374.37 155,-375 175.25,-376.85 197.18,-378.13 217.59,-379.01"/>
<polygon fill="black" stroke="black" points="217.65,-382.52 227.78,-379.43 217.93,-375.53 217.65,-382.52"/>
<text text-anchor="middle" x="182.5" y="-381" font-family="Fira Mono Medium" font-size="10.00">not&#45;equal</text>
</g>
<!-- node_5 -->
<g id="node6" class="node">
<title>node_5</title>
<polygon fill="none" stroke="black" points="595,-333 457,-333 457,-289 595,-289 595,-333"/>
<text text-anchor="start" x="507" y="-320.4" font-family="Fira Mono Medium" font-weight="bold" font-size="12.00">human</text>
<text text-anchor="start" x="473" y="-308.4" font-family="Fira Mono Medium" font-style="italic" font-size="12.00">kind:</text>
<text text-anchor="start" x="511" y="-308.4" font-family="Fira Mono Medium" font-size="12.00"> cannibal</text>
<text text-anchor="start" x="465" y="-296.4" font-family="Fira Mono Medium" font-style="italic" font-size="12.00">can&#45;drive:</text>
<text text-anchor="start" x="541" y="-296.4" font-family="Fira Mono Medium" font-size="12.00"> false</text>
</g>
<!-- node_3&#45;&gt;node_5 -->
<g id="edge5" class="edge">
<title>node_3&#45;&gt;node_5</title>
<path fill="none" stroke="black" d="M133.78,-352.43C162.55,-347.91 196.92,-342.81 228,-339 301.98,-329.92 386.65,-322.2 446.61,-317.18"/>
<polygon fill="black" stroke="black" points="447.08,-320.65 456.76,-316.34 446.5,-313.68 447.08,-320.65"/>
<text text-anchor="middle" x="297" y="-342" font-family="Fira Mono Medium" font-size="10.00">not&#45;equal</text>
</g>
<!-- node_4&#45;&gt;node_1 -->
<g id="edge9" class="edge">
<title>node_4&#45;&gt;node_1</title>
<path fill="none" stroke="black" d="M366.25,-385.62C389.39,-386.35 415.36,-386.24 439,-384 585.07,-370.18 752.75,-333.32 846.86,-310.67"/>
<polygon fill="black" stroke="black" points="847.95,-314.01 856.85,-308.25 846.3,-307.2 847.95,-314.01"/>
<text text-anchor="middle" x="619.5" y="-362" font-family="Fira Mono Medium" font-size="10.00">at</text>
</g>
<!-- node_4&#45;&gt;node_3 -->
<g id="edge7" class="edge">
<title>node_4&#45;&gt;node_3</title>
<path fill="none" stroke="black" d="M227.69,-364.5C221.73,-363.49 215.78,-362.63 210,-362 188.54,-359.66 165.13,-359.05 143.68,-359.27"/>
<polygon fill="black" stroke="black" points="143.6,-355.77 133.66,-359.43 143.71,-362.77 143.6,-355.77"/>
<text text-anchor="middle" x="182.5" y="-365" font-family="Fira Mono Medium" font-size="10.00">not&#45;equal</text>
</g>
<!-- node_4&#45;&gt;node_5 -->
<g id="edge8" class="edge">
<title>node_4&#45;&gt;node_5</title>
<path fill="none" stroke="black" d="M366.12,-373.23C389.61,-369.43 415.82,-363.91 439,-356 452.73,-351.32 466.96,-344.69 479.79,-337.96"/>
<polygon fill="black" stroke="black" points="481.72,-340.9 488.86,-333.07 478.39,-334.74 481.72,-340.9"/>
<text text-anchor="middle" x="411.5" y="-372" font-family="Fira Mono Medium" font-size="10.00">not&#45;equal</text>
</g>
<!-- node_5&#45;&gt;node_0 -->
<g id="edge12" class="edge">
<title>node_5&#45;&gt;node_0</title>
<path fill="none" stroke="black" d="M595.18,-290.58C607.98,-286.75 621.39,-282.74 634.24,-278.89"/>
<polygon fill="black" stroke="black" points="635.37,-282.2 643.94,-275.98 633.36,-275.5 635.37,-282.2"/>
<text text-anchor="middle" x="619.5" y="-287" font-family="Fira Mono Medium" font-size="10.00">at</text>
</g>
<!-- node_5&#45;&gt;node_3 -->
<g id="edge10" class="edge">
<title>node_5&#45;&gt;node_3</title>
<path fill="none" stroke="black" d="M456.95,-304C396.42,-299.33 305.7,-296.13 228,-309 194.63,-314.53 158.86,-326.19 129.75,-337.26"/>
<polygon fill="black" stroke="black" points="128.21,-334.1 120.15,-340.98 130.74,-340.63 128.21,-334.1"/>
<text text-anchor="middle" x="297" y="-312" font-family="Fira Mono Medium" font-size="10.00">not&#45;equal</text>
</g>
<!-- node_5&#45;&gt;node_4 -->
<g id="edge11" class="edge">
<title>node_5&#45;&gt;node_4</title>
<path fill="none" stroke="black" d="M456.86,-323.69C433.49,-328.77 407.35,-335.27 384,-343 373.8,-346.38 363.15,-350.53 352.97,-354.84"/>
<polygon fill="black" stroke="black" points="351.56,-351.63 343.77,-358.82 354.34,-358.06 351.56,-351.63"/>
<text text-anchor="middle" x="411.5" y="-346" font-family="Fira Mono Medium" font-size="10.00">not&#45;equal</text>
</g>
<!-- node_6 -->
<g id="node7" class="node">
<title>node_6</title>
<polygon fill="none" stroke="black" points="365.5,-247 228.5,-247 228.5,-203 365.5,-203 365.5,-247"/>
<text text-anchor="start" x="278" y="-234.4" font-family="Fira Mono Medium" font-weight="bold" font-size="12.00">human</text>
<text text-anchor="start" x="236.5" y="-222.4" font-family="Fira Mono Medium" font-style="italic" font-size="12.00">kind:</text>
<text text-anchor="start" x="274.5" y="-222.4" font-family="Fira Mono Medium" font-size="12.00"> missionary</text>
<text text-anchor="start" x="240" y="-210.4" font-family="Fira Mono Medium" font-style="italic" font-size="12.00">can&#45;drive:</text>
<text text-anchor="start" x="316" y="-210.4" font-family="Fira Mono Medium" font-size="12.00"> true</text>
</g>
<!-- node_6&#45;&gt;node_0 -->
<g id="edge15" class="edge">
<title>node_6&#45;&gt;node_0</title>
<path fill="none" stroke="black" d="M365.96,-230.52C440.12,-236.55 558.3,-246.16 633.47,-252.27"/>
<polygon fill="black" stroke="black" points="633.53,-255.78 643.78,-253.11 634.1,-248.81 633.53,-255.78"/>
<text text-anchor="middle" x="526" y="-251" font-family="Fira Mono Medium" font-size="10.00">at</text>
</g>
<!-- node_7 -->
<g id="node8" class="node">
<title>node_7</title>
<polygon fill="none" stroke="black" points="594.5,-220 457.5,-220 457.5,-176 594.5,-176 594.5,-220"/>
<text text-anchor="start" x="507" y="-207.4" font-family="Fira Mono Medium" font-weight="bold" font-size="12.00">human</text>
<text text-anchor="start" x="465.5" y="-195.4" font-family="Fira Mono Medium" font-style="italic" font-size="12.00">kind:</text>
<text text-anchor="start" x="503.5" y="-195.4" font-family="Fira Mono Medium" font-size="12.00"> missionary</text>
<text text-anchor="start" x="469" y="-183.4" font-family="Fira Mono Medium" font-style="italic" font-size="12.00">can&#45;drive:</text>
<text text-anchor="start" x="545" y="-183.4" font-family="Fira Mono Medium" font-size="12.00"> true</text>
</g>
<!-- node_6&#45;&gt;node_7 -->
<g id="edge13" class="edge">
<title>node_6&#45;&gt;node_7</title>
<path fill="none" stroke="black" d="M365.83,-218.24C389.05,-215.8 415.18,-212.93 439,-210 441.71,-209.67 444.47,-209.32 447.26,-208.96"/>
<polygon fill="black" stroke="black" points="447.96,-212.4 457.43,-207.64 447.06,-205.46 447.96,-212.4"/>
<text text-anchor="middle" x="411.5" y="-219" font-family="Fira Mono Medium" font-size="10.00">not&#45;equal</text>
</g>
<!-- node_8 -->
<g id="node9" class="node">
<title>node_8</title>
<polygon fill="none" stroke="black" points="137,-187 0,-187 0,-143 137,-143 137,-187"/>
<text text-anchor="start" x="49.5" y="-174.4" font-family="Fira Mono Medium" font-weight="bold" font-size="12.00">human</text>
<text text-anchor="start" x="8" y="-162.4" font-family="Fira Mono Medium" font-style="italic" font-size="12.00">kind:</text>
<text text-anchor="start" x="46" y="-162.4" font-family="Fira Mono Medium" font-size="12.00"> missionary</text>
<text text-anchor="start" x="11.5" y="-150.4" font-family="Fira Mono Medium" font-style="italic" font-size="12.00">can&#45;drive:</text>
<text text-anchor="start" x="87.5" y="-150.4" font-family="Fira Mono Medium" font-size="12.00"> true</text>
</g>
<!-- node_6&#45;&gt;node_8 -->
<g id="edge14" class="edge">
<title>node_6&#45;&gt;node_8</title>
<path fill="none" stroke="black" d="M228.03,-204.07C221.95,-202.31 215.87,-200.6 210,-199 189.71,-193.48 167.65,-187.93 147.15,-182.97"/>
<polygon fill="black" stroke="black" points="147.77,-179.52 137.23,-180.58 146.13,-186.32 147.77,-179.52"/>
<text text-anchor="middle" x="182.5" y="-202" font-family="Fira Mono Medium" font-size="10.00">not&#45;equal</text>
</g>
<!-- node_7&#45;&gt;node_0 -->
<g id="edge18" class="edge">
<title>node_7&#45;&gt;node_0</title>
<path fill="none" stroke="black" d="M591.9,-220C607.92,-225.43 625.04,-231.24 640.97,-236.63"/>
<polygon fill="black" stroke="black" points="640.11,-240.04 650.71,-239.93 642.36,-233.41 640.11,-240.04"/>
<text text-anchor="middle" x="619.5" y="-232" font-family="Fira Mono Medium" font-size="10.00">at</text>
</g>
<!-- node_7&#45;&gt;node_6 -->
<g id="edge16" class="edge">
<title>node_7&#45;&gt;node_6</title>
<path fill="none" stroke="black" d="M457.24,-193.03C433.91,-192.51 407.69,-193.24 384,-197 378.57,-197.86 373.02,-199.01 367.48,-200.35"/>
<polygon fill="black" stroke="black" points="366.34,-197.03 357.55,-202.96 368.11,-203.81 366.34,-197.03"/>
<text text-anchor="middle" x="411.5" y="-200" font-family="Fira Mono Medium" font-size="10.00">not&#45;equal</text>
</g>
<!-- node_7&#45;&gt;node_8 -->
<g id="edge17" class="edge">
<title>node_7&#45;&gt;node_8</title>
<path fill="none" stroke="black" d="M489.13,-175.83C474.06,-167.19 456.08,-157.77 439,-151 407.83,-138.65 399.25,-136.26 366,-132 305.16,-124.21 289.01,-125.72 228,-132 201.47,-134.73 172.82,-139.97 147.28,-145.49"/>
<polygon fill="black" stroke="black" points="146.3,-142.12 137.28,-147.7 147.8,-148.96 146.3,-142.12"/>
<text text-anchor="middle" x="297" y="-135" font-family="Fira Mono Medium" font-size="10.00">not&#45;equal</text>
</g>
<!-- node_8&#45;&gt;node_1 -->
<g id="edge21" class="edge">
<title>node_8&#45;&gt;node_1</title>
<path fill="none" stroke="black" d="M100.84,-142.96C143.08,-115.46 221.61,-72 296,-72 296,-72 296,-72 706,-72 812.52,-72 883.57,-205.55 909.76,-264.55"/>
<polygon fill="black" stroke="black" points="906.67,-266.21 913.85,-274 913.09,-263.43 906.67,-266.21"/>
<text text-anchor="middle" x="526" y="-75" font-family="Fira Mono Medium" font-size="10.00">at</text>
</g>
<!-- node_8&#45;&gt;node_6 -->
<g id="edge19" class="edge">
<title>node_8&#45;&gt;node_6</title>
<path fill="none" stroke="black" d="M104.4,-187.21C119.41,-195.73 137.51,-204.68 155,-210 175.04,-216.09 197.33,-219.79 218.17,-222.02"/>
<polygon fill="black" stroke="black" points="217.97,-225.52 228.26,-223 218.64,-218.55 217.97,-225.52"/>
<text text-anchor="middle" x="182.5" y="-223" font-family="Fira Mono Medium" font-size="10.00">not&#45;equal</text>
</g>
<!-- node_8&#45;&gt;node_7 -->
<g id="edge20" class="edge">
<title>node_8&#45;&gt;node_7</title>
<path fill="none" stroke="black" d="M137.02,-167.99C211.17,-171.55 333.72,-178.28 439,-188 441.71,-188.25 444.47,-188.52 447.26,-188.79"/>
<polygon fill="black" stroke="black" points="447.12,-192.3 457.43,-189.84 447.84,-185.33 447.12,-192.3"/>
<text text-anchor="middle" x="297" y="-184" font-family="Fira Mono Medium" font-size="10.00">not&#45;equal</text>
</g>
</g>
</svg>
