<?xml version="1.0" encoding="UTF-8" standalone="no"?>
<!DOCTYPE svg PUBLIC "-//W3C//DTD SVG 1.1//EN"
 "http://www.w3.org/Graphics/SVG/1.1/DTD/svg11.dtd">
<!-- Generated by graphviz version 2.43.0 (0)
 -->
<!-- Title: %3 Pages: 1 -->
<svg width="824pt" height="346pt"
 viewBox="0.00 0.00 824.00 346.00" xmlns="http://www.w3.org/2000/svg" xmlns:xlink="http://www.w3.org/1999/xlink">
<g id="graph0" class="graph" transform="scale(1 1) rotate(0) translate(4 342)">
<title>%3</title>
<polygon fill="white" stroke="transparent" points="-4,4 -4,-342 820,-342 820,4 -4,4"/>
<!-- node_0 -->
<g id="node1" class="node">
<title>node_0</title>
<polygon fill="none" stroke="black" points="587,-91 465,-91 465,-55 587,-55 587,-91"/>
<text text-anchor="start" x="510.5" y="-76.4" font-family="Fira Mono Medium" font-weight="bold" font-size="12.00">bank</text>
<text text-anchor="start" x="473" y="-64.4" font-family="Fira Mono Medium" font-style="italic" font-size="12.00">location:</text>
<text text-anchor="start" x="541" y="-64.4" font-family="Fira Mono Medium" font-size="12.00"> left</text>
</g>
<!-- node_1 -->
<g id="node2" class="node">
<title>node_1</title>
<polygon fill="none" stroke="black" points="816,-184 686,-184 686,-148 816,-148 816,-184"/>
<text text-anchor="start" x="735.5" y="-169.4" font-family="Fira Mono Medium" font-weight="bold" font-size="12.00">bank</text>
<text text-anchor="start" x="694" y="-157.4" font-family="Fira Mono Medium" font-style="italic" font-size="12.00">location:</text>
<text text-anchor="start" x="762" y="-157.4" font-family="Fira Mono Medium" font-size="12.00"> right</text>
</g>
<!-- node_0&#45;&gt;node_1 -->
<g id="edge1" class="edge">
<title>node_0&#45;&gt;node_1</title>
<path fill="none" stroke="black" d="M587.06,-81.55C612.77,-86.59 642.64,-94.35 668,-106 687.61,-115.01 707.2,-129.11 722.32,-141.38"/>
<polygon fill="black" stroke="black" points="720.3,-144.26 730.23,-147.97 724.78,-138.88 720.3,-144.26"/>
<text text-anchor="middle" x="640.5" y="-109" font-family="Fira Mono Medium" font-size="10.00">not&#45;equal</text>
</g>
<!-- node_1&#45;&gt;node_0 -->
<g id="edge2" class="edge">
<title>node_1&#45;&gt;node_0</title>
<path fill="none" stroke="black" d="M740.49,-147.65C727.56,-124.98 702.11,-87.51 668,-72 646.36,-62.16 620.84,-59.93 597.5,-60.95"/>
<polygon fill="black" stroke="black" points="597.06,-57.47 587.31,-61.61 597.51,-64.46 597.06,-57.47"/>
<text text-anchor="middle" x="640.5" y="-75" font-family="Fira Mono Medium" font-size="10.00">not&#45;equal</text>
</g>
<!-- node_2 -->
<g id="node3" class="node">
<title>node_2</title>
<polygon fill="none" stroke="black" points="324,-36 270,-36 270,0 324,0 324,-36"/>
<text text-anchor="start" x="281.5" y="-15.9" font-family="Fira Mono Medium" font-weight="bold" font-size="12.00">boat</text>
</g>
<!-- node_2&#45;&gt;node_0 -->
<g id="edge3" class="edge">
<title>node_2&#45;&gt;node_0</title>
<path fill="none" stroke="black" d="M324.04,-24.31C355.76,-32 410.61,-45.29 455,-56.04"/>
<polygon fill="black" stroke="black" points="454.34,-59.48 464.88,-58.43 455.99,-52.68 454.34,-59.48"/>
<text text-anchor="middle" x="411.5" y="-55" font-family="Fira Mono Medium" font-size="10.00">at</text>
</g>
<!-- node_3 -->
<g id="node4" class="node">
<title>node_3</title>
<polygon fill="none" stroke="black" points="133.5,-279 3.5,-279 3.5,-235 133.5,-235 133.5,-279"/>
<text text-anchor="start" x="49.5" y="-266.4" font-family="Fira Mono Medium" font-weight="bold" font-size="12.00">human</text>
<text text-anchor="start" x="15.5" y="-254.4" font-family="Fira Mono Medium" font-style="italic" font-size="12.00">kind:</text>
<text text-anchor="start" x="53.5" y="-254.4" font-family="Fira Mono Medium" font-size="12.00"> cannibal</text>
<text text-anchor="start" x="11.5" y="-242.4" font-family="Fira Mono Medium" font-style="italic" font-size="12.00">can&#45;drive:</text>
<text text-anchor="start" x="87.5" y="-242.4" font-family="Fira Mono Medium" font-size="12.00"> true</text>
</g>
<!-- node_3&#45;&gt;node_1 -->
<g id="edge6" class="edge">
<title>node_3&#45;&gt;node_1</title>
<path fill="none" stroke="black" d="M124.21,-279.03C154.28,-289.83 192.57,-301.47 228,-306 389.94,-326.73 442.82,-349.13 595,-290 649.26,-268.92 699.39,-221.68 727.23,-191.97"/>
<polygon fill="black" stroke="black" points="729.94,-194.19 734.14,-184.46 724.79,-189.45 729.94,-194.19"/>
<text text-anchor="middle" x="411.5" y="-330" font-family="Fira Mono Medium" font-size="10.00">at</text>
</g>
<!-- node_4 -->
<g id="node5" class="node">
<title>node_4</title>
<polygon fill="none" stroke="black" points="366,-297 228,-297 228,-253 366,-253 366,-297"/>
<text text-anchor="start" x="278" y="-284.4" font-family="Fira Mono Medium" font-weight="bold" font-size="12.00">human</text>
<text text-anchor="start" x="244" y="-272.4" font-family="Fira Mono Medium" font-style="italic" font-size="12.00">kind:</text>
<text text-anchor="start" x="282" y="-272.4" font-family="Fira Mono Medium" font-size="12.00"> cannibal</text>
<text text-anchor="start" x="236" y="-260.4" font-family="Fira Mono Medium" font-style="italic" font-size="12.00">can&#45;drive:</text>
<text text-anchor="start" x="312" y="-260.4" font-family="Fira Mono Medium" font-size="12.00"> false</text>
</g>
<!-- node_3&#45;&gt;node_4 -->
<g id="edge4" class="edge">
<title>node_3&#45;&gt;node_4</title>
<path fill="none" stroke="black" d="M133.85,-266.71C140.97,-267.58 148.13,-268.37 155,-269 175.25,-270.85 197.18,-272.13 217.59,-273.01"/>
<polygon fill="black" stroke="black" points="217.65,-276.52 227.78,-273.43 217.93,-269.53 217.65,-276.52"/>
<text text-anchor="middle" x="182.5" y="-275" font-family="Fira Mono Medium" font-size="10.00">not&#45;equal</text>
</g>
<!-- node_5 -->
<g id="node6" class="node">
<title>node_5</title>
<polygon fill="none" stroke="black" points="595,-227 457,-227 457,-183 595,-183 595,-227"/>
<text text-anchor="start" x="507" y="-214.4" font-family="Fira Mono Medium" font-weight="bold" font-size="12.00">human</text>
<text text-anchor="start" x="473" y="-202.4" font-family="Fira Mono Medium" font-style="italic" font-size="12.00">kind:</text>
<text text-anchor="start" x="511" y="-202.4" font-family="Fira Mono Medium" font-size="12.00"> cannibal</text>
<text text-anchor="start" x="465" y="-190.4" font-family="Fira Mono Medium" font-style="italic" font-size="12.00">can&#45;drive:</text>
<text text-anchor="start" x="541" y="-190.4" font-family="Fira Mono Medium" font-size="12.00"> false</text>
</g>
<!-- node_3&#45;&gt;node_5 -->
<g id="edge5" class="edge">
<title>node_3&#45;&gt;node_5</title>
<path fill="none" stroke="black" d="M133.78,-246.43C162.55,-241.91 196.92,-236.81 228,-233 301.98,-223.92 386.65,-216.2 446.61,-211.18"/>
<polygon fill="black" stroke="black" points="447.08,-214.65 456.76,-210.34 446.5,-207.68 447.08,-214.65"/>
<text text-anchor="middle" x="297" y="-236" font-family="Fira Mono Medium" font-size="10.00">not&#45;equal</text>
</g>
<!-- node_4&#45;&gt;node_1 -->
<g id="edge9" class="edge">
<title>node_4&#45;&gt;node_1</title>
<path fill="none" stroke="black" d="M366,-280.63C389.24,-281.44 415.33,-281.13 439,-278 538.64,-264.82 647.5,-217.26 706.33,-188.52"/>
<polygon fill="black" stroke="black" points="707.92,-191.64 715.34,-184.08 704.82,-185.37 707.92,-191.64"/>
<text text-anchor="middle" x="526" y="-278" font-family="Fira Mono Medium" font-size="10.00">at</text>
</g>
<!-- node_4&#45;&gt;node_3 -->
<g id="edge7" class="edge">
<title>node_4&#45;&gt;node_3</title>
<path fill="none" stroke="black" d="M227.69,-258.5C221.73,-257.49 215.78,-256.63 210,-256 188.54,-253.66 165.13,-253.05 143.68,-253.27"/>
<polygon fill="black" stroke="black" points="143.6,-249.77 133.66,-253.43 143.71,-256.77 143.6,-249.77"/>
<text text-anchor="middle" x="182.5" y="-259" font-family="Fira Mono Medium" font-size="10.00">not&#45;equal</text>
</g>
<!-- node_4&#45;&gt;node_5 -->
<g id="edge8" class="edge">
<title>node_4&#45;&gt;node_5</title>
<path fill="none" stroke="black" d="M366.12,-267.23C389.61,-263.43 415.82,-257.91 439,-250 452.73,-245.32 466.96,-238.69 479.79,-231.96"/>
<polygon fill="black" stroke="black" points="481.72,-234.9 488.86,-227.07 478.39,-228.74 481.72,-234.9"/>
<text text-anchor="middle" x="411.5" y="-266" font-family="Fira Mono Medium" font-size="10.00">not&#45;equal</text>
</g>
<!-- node_5&#45;&gt;node_1 -->
<g id="edge12" class="edge">
<title>node_5&#45;&gt;node_1</title>
<path fill="none" stroke="black" d="M595.12,-193.09C620.56,-188.64 649.57,-183.56 675.56,-179.02"/>
<polygon fill="black" stroke="black" points="676.48,-182.41 685.73,-177.24 675.27,-175.52 676.48,-182.41"/>
<text text-anchor="middle" x="640.5" y="-191" font-family="Fira Mono Medium" font-size="10.00">at</text>
</g>
<!-- node_5&#45;&gt;node_3 -->
<g id="edge10" class="edge">
<title>node_5&#45;&gt;node_3</title>
<path fill="none" stroke="black" d="M456.95,-198C396.42,-193.33 305.7,-190.13 228,-203 194.63,-208.53 158.86,-220.19 129.75,-231.26"/>
<polygon fill="black" stroke="black" points="128.21,-228.1 120.15,-234.98 130.74,-234.63 128.21,-228.1"/>
<text text-anchor="middle" x="297" y="-206" font-family="Fira Mono Medium" font-size="10.00">not&#45;equal</text>
</g>
<!-- node_5&#45;&gt;node_4 -->
<g id="edge11" class="edge">
<title>node_5&#45;&gt;node_4</title>
<path fill="none" stroke="black" d="M456.86,-217.69C433.49,-222.77 407.35,-229.27 384,-237 373.8,-240.38 363.15,-244.53 352.97,-248.84"/>
<polygon fill="black" stroke="black" points="351.56,-245.63 343.77,-252.82 354.34,-252.06 351.56,-245.63"/>
<text text-anchor="middle" x="411.5" y="-240" font-family="Fira Mono Medium" font-size="10.00">not&#45;equal</text>
</g>
<!-- node_6 -->
<g id="node7" class="node">
<title>node_6</title>
<polygon fill="none" stroke="black" points="137,-127 0,-127 0,-83 137,-83 137,-127"/>
<text text-anchor="start" x="49.5" y="-114.4" font-family="Fira Mono Medium" font-weight="bold" font-size="12.00">human</text>
<text text-anchor="start" x="8" y="-102.4" font-family="Fira Mono Medium" font-style="italic" font-size="12.00">kind:</text>
<text text-anchor="start" x="46" y="-102.4" font-family="Fira Mono Medium" font-size="12.00"> missionary</text>
<text text-anchor="start" x="11.5" y="-90.4" font-family="Fira Mono Medium" font-style="italic" font-size="12.00">can&#45;drive:</text>
<text text-anchor="start" x="87.5" y="-90.4" font-family="Fira Mono Medium" font-size="12.00"> true</text>
</g>
<!-- node_6&#45;&gt;node_1 -->
<g id="edge14" class="edge">
<title>node_6&#45;&gt;node_1</title>
<path fill="none" stroke="black" d="M137.24,-111.07C265.35,-122.56 542.2,-147.37 675.42,-159.31"/>
<polygon fill="black" stroke="black" points="675.26,-162.81 685.53,-160.22 675.88,-155.84 675.26,-162.81"/>
<text text-anchor="middle" x="411.5" y="-140" font-family="Fira Mono Medium" font-size="10.00">at</text>
</g>
<!-- node_7 -->
<g id="node8" class="node">
<title>node_7</title>
<polygon fill="none" stroke="black" points="365.5,-98 228.5,-98 228.5,-54 365.5,-54 365.5,-98"/>
<text text-anchor="start" x="278" y="-85.4" font-family="Fira Mono Medium" font-weight="bold" font-size="12.00">human</text>
<text text-anchor="start" x="236.5" y="-73.4" font-family="Fira Mono Medium" font-style="italic" font-size="12.00">kind:</text>
<text text-anchor="start" x="274.5" y="-73.4" font-family="Fira Mono Medium" font-size="12.00"> missionary</text>
<text text-anchor="start" x="240" y="-61.4" font-family="Fira Mono Medium" font-style="italic" font-size="12.00">can&#45;drive:</text>
<text text-anchor="start" x="316" y="-61.4" font-family="Fira Mono Medium" font-size="12.00"> true</text>
</g>
<!-- node_6&#45;&gt;node_7 -->
<g id="edge13" class="edge">
<title>node_6&#45;&gt;node_7</title>
<path fill="none" stroke="black" d="M137.15,-96.34C162.7,-93.07 191.96,-89.32 218.35,-85.94"/>
<polygon fill="black" stroke="black" points="218.83,-89.41 228.31,-84.67 217.94,-82.47 218.83,-89.41"/>
<text text-anchor="middle" x="182.5" y="-96" font-family="Fira Mono Medium" font-size="10.00">not&#45;equal</text>
</g>
<!-- node_7&#45;&gt;node_0 -->
<g id="edge16" class="edge">
<title>node_7&#45;&gt;node_0</title>
<path fill="none" stroke="black" d="M365.8,-75.1C393.84,-74.73 426.35,-74.3 454.65,-73.93"/>
<polygon fill="black" stroke="black" points="454.92,-77.43 464.87,-73.79 454.83,-70.43 454.92,-77.43"/>
<text text-anchor="middle" x="411.5" y="-77" font-family="Fira Mono Medium" font-size="10.00">at</text>
</g>
<!-- node_7&#45;&gt;node_6 -->
<g id="edge15" class="edge">
<title>node_7&#45;&gt;node_6</title>
<path fill="none" stroke="black" d="M228.49,-68.3C205.05,-67.16 178.71,-67.58 155,-72 145.71,-73.73 136.13,-76.43 126.9,-79.56"/>
<polygon fill="black" stroke="black" points="125.66,-76.29 117.43,-82.96 128.02,-82.88 125.66,-76.29"/>
<text text-anchor="middle" x="182.5" y="-75" font-family="Fira Mono Medium" font-size="10.00">not&#45;equal</text>
</g>
</g>
</svg>
