<?xml version="1.0" encoding="UTF-8" standalone="no"?>
<!DOCTYPE svg PUBLIC "-//W3C//DTD SVG 1.1//EN"
 "http://www.w3.org/Graphics/SVG/1.1/DTD/svg11.dtd">
<!-- Generated by graphviz version 2.43.0 (0)
 -->
<!-- Title: %3 Pages: 1 -->
<svg width="1052pt" height="366pt"
 viewBox="0.00 0.00 1052.00 365.95" xmlns="http://www.w3.org/2000/svg" xmlns:xlink="http://www.w3.org/1999/xlink">
<g id="graph0" class="graph" transform="scale(1 1) rotate(0) translate(4 361.95)">
<title>%3</title>
<polygon fill="white" stroke="transparent" points="-4,4 -4,-361.95 1048,-361.95 1048,4 -4,4"/>
<!-- node_0 -->
<g id="node1" class="node">
<title>node_0</title>
<polygon fill="none" stroke="black" points="815,-302.95 693,-302.95 693,-266.95 815,-266.95 815,-302.95"/>
<text text-anchor="start" x="738.5" y="-288.35" font-family="Fira Mono Medium" font-weight="bold" font-size="12.00">bank</text>
<text text-anchor="start" x="701" y="-276.35" font-family="Fira Mono Medium" font-style="italic" font-size="12.00">location:</text>
<text text-anchor="start" x="769" y="-276.35" font-family="Fira Mono Medium" font-size="12.00"> left</text>
</g>
<!-- node_1 -->
<g id="node2" class="node">
<title>node_1</title>
<polygon fill="none" stroke="black" points="1044,-238.95 914,-238.95 914,-202.95 1044,-202.95 1044,-238.95"/>
<text text-anchor="start" x="963.5" y="-224.35" font-family="Fira Mono Medium" font-weight="bold" font-size="12.00">bank</text>
<text text-anchor="start" x="922" y="-212.35" font-family="Fira Mono Medium" font-style="italic" font-size="12.00">location:</text>
<text text-anchor="start" x="990" y="-212.35" font-family="Fira Mono Medium" font-size="12.00"> right</text>
</g>
<!-- node_0&#45;&gt;node_1 -->
<g id="edge1" class="edge">
<title>node_0&#45;&gt;node_1</title>
<path fill="none" stroke="black" d="M806.64,-266.83C817.92,-263.08 829.82,-259.26 841,-255.95 861.33,-249.93 883.54,-243.99 904.04,-238.76"/>
<polygon fill="black" stroke="black" points="905.11,-242.1 913.95,-236.25 903.4,-235.31 905.11,-242.1"/>
<text text-anchor="middle" x="868.5" y="-258.95" font-family="Fira Mono Medium" font-size="10.00">not&#45;equal</text>
</g>
<!-- node_1&#45;&gt;node_0 -->
<g id="edge2" class="edge">
<title>node_1&#45;&gt;node_0</title>
<path fill="none" stroke="black" d="M951.88,-239.03C936.34,-248.89 915.84,-260.39 896,-266.95 873.55,-274.37 848.15,-278.75 825.16,-281.34"/>
<polygon fill="black" stroke="black" points="824.71,-277.87 815.12,-282.37 825.43,-284.83 824.71,-277.87"/>
<text text-anchor="middle" x="868.5" y="-281.95" font-family="Fira Mono Medium" font-size="10.00">not&#45;equal</text>
</g>
<!-- node_2 -->
<g id="node3" class="node">
<title>node_2</title>
<polygon fill="none" stroke="black" points="781,-240.95 727,-240.95 727,-204.95 781,-204.95 781,-240.95"/>
<text text-anchor="start" x="738.5" y="-220.85" font-family="Fira Mono Medium" font-weight="bold" font-size="12.00">boat</text>
</g>
<!-- node_2&#45;&gt;node_1 -->
<g id="edge3" class="edge">
<title>node_2&#45;&gt;node_1</title>
<path fill="none" stroke="black" d="M781.35,-222.61C798.37,-222.4 820.99,-222.14 841,-221.95 861.35,-221.76 883.39,-221.58 903.73,-221.43"/>
<polygon fill="black" stroke="black" points="903.9,-224.93 913.88,-221.36 903.85,-217.93 903.9,-224.93"/>
<text text-anchor="middle" x="868.5" y="-224.95" font-family="Fira Mono Medium" font-size="10.00">at</text>
</g>
<!-- node_3 -->
<g id="node4" class="node">
<title>node_3</title>
<polygon fill="none" stroke="black" points="361.5,-96.95 231.5,-96.95 231.5,-52.95 361.5,-52.95 361.5,-96.95"/>
<text text-anchor="start" x="277.5" y="-84.35" font-family="Fira Mono Medium" font-weight="bold" font-size="12.00">human</text>
<text text-anchor="start" x="243.5" y="-72.35" font-family="Fira Mono Medium" font-style="italic" font-size="12.00">kind:</text>
<text text-anchor="start" x="281.5" y="-72.35" font-family="Fira Mono Medium" font-size="12.00"> cannibal</text>
<text text-anchor="start" x="239.5" y="-60.35" font-family="Fira Mono Medium" font-style="italic" font-size="12.00">can&#45;drive:</text>
<text text-anchor="start" x="315.5" y="-60.35" font-family="Fira Mono Medium" font-size="12.00"> true</text>
</g>
<!-- node_3&#45;&gt;node_1 -->
<g id="edge6" class="edge">
<title>node_3&#45;&gt;node_1</title>
<path fill="none" stroke="black" d="M342.19,-96.95C373.37,-111.38 416.32,-129.44 456,-139.95 615.5,-182.18 660,-170.37 823,-195.95 849.39,-200.09 878.28,-204.72 903.9,-208.87"/>
<polygon fill="black" stroke="black" points="903.49,-212.34 913.92,-210.49 904.61,-205.43 903.49,-212.34"/>
<text text-anchor="middle" x="639.5" y="-179.95" font-family="Fira Mono Medium" font-size="10.00">at</text>
</g>
<!-- node_4 -->
<g id="node5" class="node">
<title>node_4</title>
<polygon fill="none" stroke="black" points="594,-130.95 456,-130.95 456,-86.95 594,-86.95 594,-130.95"/>
<text text-anchor="start" x="506" y="-118.35" font-family="Fira Mono Medium" font-weight="bold" font-size="12.00">human</text>
<text text-anchor="start" x="472" y="-106.35" font-family="Fira Mono Medium" font-style="italic" font-size="12.00">kind:</text>
<text text-anchor="start" x="510" y="-106.35" font-family="Fira Mono Medium" font-size="12.00"> cannibal</text>
<text text-anchor="start" x="464" y="-94.35" font-family="Fira Mono Medium" font-style="italic" font-size="12.00">can&#45;drive:</text>
<text text-anchor="start" x="540" y="-94.35" font-family="Fira Mono Medium" font-size="12.00"> false</text>
</g>
<!-- node_3&#45;&gt;node_4 -->
<g id="edge4" class="edge">
<title>node_3&#45;&gt;node_4</title>
<path fill="none" stroke="black" d="M361.8,-84.6C388.01,-88.53 418.55,-93.12 446.01,-97.24"/>
<polygon fill="black" stroke="black" points="445.57,-100.71 455.98,-98.74 446.61,-93.79 445.57,-100.71"/>
<text text-anchor="middle" x="410.5" y="-99.95" font-family="Fira Mono Medium" font-size="10.00">not&#45;equal</text>
</g>
<!-- node_5 -->
<g id="node6" class="node">
<title>node_5</title>
<polygon fill="none" stroke="black" points="823,-96.95 685,-96.95 685,-52.95 823,-52.95 823,-96.95"/>
<text text-anchor="start" x="735" y="-84.35" font-family="Fira Mono Medium" font-weight="bold" font-size="12.00">human</text>
<text text-anchor="start" x="701" y="-72.35" font-family="Fira Mono Medium" font-style="italic" font-size="12.00">kind:</text>
<text text-anchor="start" x="739" y="-72.35" font-family="Fira Mono Medium" font-size="12.00"> cannibal</text>
<text text-anchor="start" x="693" y="-60.35" font-family="Fira Mono Medium" font-style="italic" font-size="12.00">can&#45;drive:</text>
<text text-anchor="start" x="769" y="-60.35" font-family="Fira Mono Medium" font-size="12.00"> false</text>
</g>
<!-- node_3&#45;&gt;node_5 -->
<g id="edge5" class="edge">
<title>node_3&#45;&gt;node_5</title>
<path fill="none" stroke="black" d="M333.14,-52.77C348.13,-44.13 366,-34.71 383,-27.95 414.15,-15.56 422.75,-13.2 456,-8.95 549.4,3.01 579.47,6.75 667,-27.95 680.88,-33.45 695.35,-40.7 708.37,-47.86"/>
<polygon fill="black" stroke="black" points="706.7,-50.93 717.13,-52.77 710.12,-44.83 706.7,-50.93"/>
<text text-anchor="middle" x="525" y="-11.95" font-family="Fira Mono Medium" font-size="10.00">not&#45;equal</text>
</g>
<!-- node_4&#45;&gt;node_0 -->
<g id="edge9" class="edge">
<title>node_4&#45;&gt;node_0</title>
<path fill="none" stroke="black" d="M594.31,-110.49C620.49,-114.63 648.48,-123.98 667,-143.95 699.5,-178.98 656.78,-211.39 685,-249.95 687.93,-253.96 691.46,-257.54 695.35,-260.74"/>
<polygon fill="black" stroke="black" points="693.59,-263.78 703.75,-266.77 697.67,-258.1 693.59,-263.78"/>
<text text-anchor="middle" x="639.5" y="-146.95" font-family="Fira Mono Medium" font-size="10.00">at</text>
</g>
<!-- node_4&#45;&gt;node_3 -->
<g id="edge7" class="edge">
<title>node_4&#45;&gt;node_3</title>
<path fill="none" stroke="black" d="M479.04,-86.85C466.1,-81.55 451.76,-76.64 438,-73.95 416.71,-69.78 393.26,-68.63 371.72,-68.9"/>
<polygon fill="black" stroke="black" points="371.56,-65.41 361.65,-69.13 371.72,-72.4 371.56,-65.41"/>
<text text-anchor="middle" x="410.5" y="-76.95" font-family="Fira Mono Medium" font-size="10.00">not&#45;equal</text>
</g>
<!-- node_4&#45;&gt;node_5 -->
<g id="edge8" class="edge">
<title>node_4&#45;&gt;node_5</title>
<path fill="none" stroke="black" d="M574.68,-86.8C586.64,-82.33 599.59,-78.29 612,-75.95 632.06,-72.16 654.02,-70.73 674.51,-70.53"/>
<polygon fill="black" stroke="black" points="674.75,-74.03 684.75,-70.53 674.75,-67.03 674.75,-74.03"/>
<text text-anchor="middle" x="639.5" y="-78.95" font-family="Fira Mono Medium" font-size="10.00">not&#45;equal</text>
</g>
<!-- node_5&#45;&gt;node_1 -->
<g id="edge12" class="edge">
<title>node_5&#45;&gt;node_1</title>
<path fill="none" stroke="black" d="M800.8,-97.02C829.07,-111.35 865.61,-131.17 896,-151.95 915.36,-165.18 935.53,-182.11 951.02,-195.89"/>
<polygon fill="black" stroke="black" points="948.89,-198.68 958.67,-202.77 953.58,-193.48 948.89,-198.68"/>
<text text-anchor="middle" x="868.5" y="-154.95" font-family="Fira Mono Medium" font-size="10.00">at</text>
</g>
<!-- node_5&#45;&gt;node_3 -->
<g id="edge10" class="edge">
<title>node_5&#45;&gt;node_3</title>
<path fill="none" stroke="black" d="M684.97,-68.09C678.9,-67.64 672.84,-67.24 667,-66.95 480.01,-57.45 434,-61.98 383,-64.95 379.35,-65.16 375.63,-65.42 371.86,-65.73"/>
<polygon fill="black" stroke="black" points="371.51,-62.24 361.86,-66.61 372.12,-69.22 371.51,-62.24"/>
<text text-anchor="middle" x="525" y="-66.95" font-family="Fira Mono Medium" font-size="10.00">not&#45;equal</text>
</g>
<!-- node_5&#45;&gt;node_4 -->
<g id="edge11" class="edge">
<title>node_5&#45;&gt;node_4</title>
<path fill="none" stroke="black" d="M684.94,-85.14C659.47,-88.96 630.34,-93.32 604.04,-97.26"/>
<polygon fill="black" stroke="black" points="603.48,-93.8 594.11,-98.75 604.52,-100.73 603.48,-93.8"/>
<text text-anchor="middle" x="639.5" y="-99.95" font-family="Fira Mono Medium" font-size="10.00">not&#45;equal</text>
</g>
<!-- node_6 -->
<g id="node7" class="node">
<title>node_6</title>
<polygon fill="none" stroke="black" points="137,-303.95 0,-303.95 0,-259.95 137,-259.95 137,-303.95"/>
<text text-anchor="start" x="49.5" y="-291.35" font-family="Fira Mono Medium" font-weight="bold" font-size="12.00">human</text>
<text text-anchor="start" x="8" y="-279.35" font-family="Fira Mono Medium" font-style="italic" font-size="12.00">kind:</text>
<text text-anchor="start" x="46" y="-279.35" font-family="Fira Mono Medium" font-size="12.00"> missionary</text>
<text text-anchor="start" x="11.5" y="-267.35" font-family="Fira Mono Medium" font-style="italic" font-size="12.00">can&#45;drive:</text>
<text text-anchor="start" x="87.5" y="-267.35" font-family="Fira Mono Medium" font-size="12.00"> true</text>
</g>
<!-- node_6&#45;&gt;node_0 -->
<g id="edge15" class="edge">
<title>node_6&#45;&gt;node_0</title>
<path fill="none" stroke="black" d="M110.47,-304.09C141.67,-319.61 186.23,-338.95 228,-346.95 293.29,-359.44 592.93,-334.08 594,-333.95 626.79,-329.89 635.32,-329.33 667,-319.95 679.2,-316.34 692.04,-311.62 703.98,-306.84"/>
<polygon fill="black" stroke="black" points="705.41,-310.03 713.33,-303 702.75,-303.56 705.41,-310.03"/>
<text text-anchor="middle" x="410.5" y="-349.95" font-family="Fira Mono Medium" font-size="10.00">at</text>
</g>
<!-- node_7 -->
<g id="node8" class="node">
<title>node_7</title>
<polygon fill="none" stroke="black" points="365,-337.95 228,-337.95 228,-293.95 365,-293.95 365,-337.95"/>
<text text-anchor="start" x="277.5" y="-325.35" font-family="Fira Mono Medium" font-weight="bold" font-size="12.00">human</text>
<text text-anchor="start" x="236" y="-313.35" font-family="Fira Mono Medium" font-style="italic" font-size="12.00">kind:</text>
<text text-anchor="start" x="274" y="-313.35" font-family="Fira Mono Medium" font-size="12.00"> missionary</text>
<text text-anchor="start" x="239.5" y="-301.35" font-family="Fira Mono Medium" font-style="italic" font-size="12.00">can&#45;drive:</text>
<text text-anchor="start" x="315.5" y="-301.35" font-family="Fira Mono Medium" font-size="12.00"> true</text>
</g>
<!-- node_6&#45;&gt;node_7 -->
<g id="edge13" class="edge">
<title>node_6&#45;&gt;node_7</title>
<path fill="none" stroke="black" d="M137.16,-277.52C160.42,-277.29 186.51,-278.49 210,-282.95 219.07,-284.67 228.42,-287.31 237.46,-290.36"/>
<polygon fill="black" stroke="black" points="236.52,-293.74 247.11,-293.8 238.87,-287.14 236.52,-293.74"/>
<text text-anchor="middle" x="182.5" y="-285.95" font-family="Fira Mono Medium" font-size="10.00">not&#45;equal</text>
</g>
<!-- node_8 -->
<g id="node9" class="node">
<title>node_8</title>
<polygon fill="none" stroke="black" points="593.5,-303.95 456.5,-303.95 456.5,-259.95 593.5,-259.95 593.5,-303.95"/>
<text text-anchor="start" x="506" y="-291.35" font-family="Fira Mono Medium" font-weight="bold" font-size="12.00">human</text>
<text text-anchor="start" x="464.5" y="-279.35" font-family="Fira Mono Medium" font-style="italic" font-size="12.00">kind:</text>
<text text-anchor="start" x="502.5" y="-279.35" font-family="Fira Mono Medium" font-size="12.00"> missionary</text>
<text text-anchor="start" x="468" y="-267.35" font-family="Fira Mono Medium" font-style="italic" font-size="12.00">can&#45;drive:</text>
<text text-anchor="start" x="544" y="-267.35" font-family="Fira Mono Medium" font-size="12.00"> true</text>
</g>
<!-- node_6&#45;&gt;node_8 -->
<g id="edge14" class="edge">
<title>node_6&#45;&gt;node_8</title>
<path fill="none" stroke="black" d="M105.14,-259.77C120.13,-251.13 138,-241.71 155,-234.95 186.15,-222.56 194.75,-220.2 228,-215.95 320.96,-204.05 350.88,-200.41 438,-234.95 451.88,-240.45 466.35,-247.7 479.37,-254.86"/>
<polygon fill="black" stroke="black" points="477.7,-257.93 488.13,-259.77 481.12,-251.83 477.7,-257.93"/>
<text text-anchor="middle" x="296.5" y="-218.95" font-family="Fira Mono Medium" font-size="10.00">not&#45;equal</text>
</g>
<!-- node_7&#45;&gt;node_0 -->
<g id="edge18" class="edge">
<title>node_7&#45;&gt;node_0</title>
<path fill="none" stroke="black" d="M365.17,-317.68C371.2,-317.79 377.21,-317.88 383,-317.95 476.8,-319.04 500.69,-322.61 594,-312.95 623.3,-309.91 655.34,-304.65 682.93,-299.5"/>
<polygon fill="black" stroke="black" points="683.71,-302.92 692.88,-297.62 682.4,-296.04 683.71,-302.92"/>
<text text-anchor="middle" x="525" y="-321.95" font-family="Fira Mono Medium" font-size="10.00">at</text>
</g>
<!-- node_7&#45;&gt;node_6 -->
<g id="edge16" class="edge">
<title>node_7&#45;&gt;node_6</title>
<path fill="none" stroke="black" d="M227.96,-305.79C202.46,-301.95 173.27,-297.56 146.94,-293.6"/>
<polygon fill="black" stroke="black" points="147.41,-290.13 137,-292.1 146.37,-297.05 147.41,-290.13"/>
<text text-anchor="middle" x="182.5" y="-305.95" font-family="Fira Mono Medium" font-size="10.00">not&#45;equal</text>
</g>
<!-- node_7&#45;&gt;node_8 -->
<g id="edge17" class="edge">
<title>node_7&#45;&gt;node_8</title>
<path fill="none" stroke="black" d="M345.89,-293.8C357.78,-289.33 370.65,-285.29 383,-282.95 403.36,-279.08 425.67,-277.66 446.42,-277.49"/>
<polygon fill="black" stroke="black" points="446.45,-280.99 456.46,-277.51 446.46,-273.99 446.45,-280.99"/>
<text text-anchor="middle" x="410.5" y="-285.95" font-family="Fira Mono Medium" font-size="10.00">not&#45;equal</text>
</g>
<!-- node_8&#45;&gt;node_0 -->
<g id="edge21" class="edge">
<title>node_8&#45;&gt;node_0</title>
<path fill="none" stroke="black" d="M593.8,-282.84C621.84,-283.21 654.35,-283.64 682.65,-284.02"/>
<polygon fill="black" stroke="black" points="682.83,-287.52 692.87,-284.15 682.92,-280.52 682.83,-287.52"/>
<text text-anchor="middle" x="639.5" y="-285.95" font-family="Fira Mono Medium" font-size="10.00">at</text>
</g>
<!-- node_8&#45;&gt;node_6 -->
<g id="edge19" class="edge">
<title>node_8&#45;&gt;node_6</title>
<path fill="none" stroke="black" d="M456.45,-274.21C450.22,-273.7 444,-273.26 438,-272.95 312.39,-266.39 280.6,-266.36 155,-272.95 152.46,-273.08 149.87,-273.24 147.26,-273.41"/>
<polygon fill="black" stroke="black" points="146.83,-269.93 137.12,-274.17 147.35,-276.91 146.83,-269.93"/>
<text text-anchor="middle" x="296.5" y="-271.95" font-family="Fira Mono Medium" font-size="10.00">not&#45;equal</text>
</g>
<!-- node_8&#45;&gt;node_7 -->
<g id="edge20" class="edge">
<title>node_8&#45;&gt;node_7</title>
<path fill="none" stroke="black" d="M456.31,-292.11C430.76,-295.94 401.5,-300.34 375.11,-304.3"/>
<polygon fill="black" stroke="black" points="374.52,-300.85 365.15,-305.79 375.56,-307.77 374.52,-300.85"/>
<text text-anchor="middle" x="410.5" y="-305.95" font-family="Fira Mono Medium" font-size="10.00">not&#45;equal</text>
</g>
</g>
</svg>
