<?xml version="1.0" encoding="UTF-8" standalone="no"?>
<!DOCTYPE svg PUBLIC "-//W3C//DTD SVG 1.1//EN"
 "http://www.w3.org/Graphics/SVG/1.1/DTD/svg11.dtd">
<!-- Generated by graphviz version 2.43.0 (0)
 -->
<!-- Title: %3 Pages: 1 -->
<svg width="1045pt" height="353pt"
 viewBox="0.00 0.00 1045.00 353.29" xmlns="http://www.w3.org/2000/svg" xmlns:xlink="http://www.w3.org/1999/xlink">
<g id="graph0" class="graph" transform="scale(1 1) rotate(0) translate(4 349.29)">
<title>%3</title>
<polygon fill="white" stroke="transparent" points="-4,4 -4,-349.29 1041,-349.29 1041,4 -4,4"/>
<!-- node_0 -->
<g id="node1" class="node">
<title>node_0</title>
<polygon fill="none" stroke="black" points="808.5,-198.29 686.5,-198.29 686.5,-162.29 808.5,-162.29 808.5,-198.29"/>
<text text-anchor="start" x="732" y="-183.69" font-family="Fira Mono Medium" font-weight="bold" font-size="12.00">bank</text>
<text text-anchor="start" x="694.5" y="-171.69" font-family="Fira Mono Medium" font-style="italic" font-size="12.00">location:</text>
<text text-anchor="start" x="762.5" y="-171.69" font-family="Fira Mono Medium" font-size="12.00"> left</text>
</g>
<!-- node_1 -->
<g id="node2" class="node">
<title>node_1</title>
<polygon fill="none" stroke="black" points="1037,-209.29 907,-209.29 907,-173.29 1037,-173.29 1037,-209.29"/>
<text text-anchor="start" x="956.5" y="-194.69" font-family="Fira Mono Medium" font-weight="bold" font-size="12.00">bank</text>
<text text-anchor="start" x="915" y="-182.69" font-family="Fira Mono Medium" font-style="italic" font-size="12.00">location:</text>
<text text-anchor="start" x="983" y="-182.69" font-family="Fira Mono Medium" font-size="12.00"> right</text>
</g>
<!-- node_0&#45;&gt;node_1 -->
<g id="edge1" class="edge">
<title>node_0&#45;&gt;node_1</title>
<path fill="none" stroke="black" d="M808.74,-184.77C817.22,-185.33 825.83,-185.86 834,-186.29 854.33,-187.38 876.37,-188.29 896.71,-189.04"/>
<polygon fill="black" stroke="black" points="896.74,-192.54 906.86,-189.4 896.99,-185.54 896.74,-192.54"/>
<text text-anchor="middle" x="861.5" y="-191.29" font-family="Fira Mono Medium" font-size="10.00">not&#45;equal</text>
</g>
<!-- node_1&#45;&gt;node_0 -->
<g id="edge2" class="edge">
<title>node_1&#45;&gt;node_0</title>
<path fill="none" stroke="black" d="M906.76,-175.82C900.78,-174.79 894.8,-173.92 889,-173.29 866.26,-170.83 841.35,-171.1 818.91,-172.44"/>
<polygon fill="black" stroke="black" points="818.53,-168.96 808.79,-173.13 819,-175.94 818.53,-168.96"/>
<text text-anchor="middle" x="861.5" y="-176.29" font-family="Fira Mono Medium" font-size="10.00">not&#45;equal</text>
</g>
<!-- node_2 -->
<g id="node3" class="node">
<title>node_2</title>
<polygon fill="none" stroke="black" points="774.5,-345.29 720.5,-345.29 720.5,-309.29 774.5,-309.29 774.5,-345.29"/>
<text text-anchor="start" x="732" y="-325.19" font-family="Fira Mono Medium" font-weight="bold" font-size="12.00">boat</text>
</g>
<!-- node_2&#45;&gt;node_1 -->
<g id="edge3" class="edge">
<title>node_2&#45;&gt;node_1</title>
<path fill="none" stroke="black" d="M774.56,-326.49C804.36,-324.47 853.58,-317.68 889,-295.29 919.03,-276.32 942.68,-242.37 956.71,-218.43"/>
<polygon fill="black" stroke="black" points="959.9,-219.91 961.78,-209.48 953.81,-216.46 959.9,-219.91"/>
<text text-anchor="middle" x="861.5" y="-319.29" font-family="Fira Mono Medium" font-size="10.00">at</text>
</g>
<!-- node_3 -->
<g id="node4" class="node">
<title>node_3</title>
<polygon fill="none" stroke="black" points="130,-235.29 0,-235.29 0,-191.29 130,-191.29 130,-235.29"/>
<text text-anchor="start" x="46" y="-222.69" font-family="Fira Mono Medium" font-weight="bold" font-size="12.00">human</text>
<text text-anchor="start" x="12" y="-210.69" font-family="Fira Mono Medium" font-style="italic" font-size="12.00">kind:</text>
<text text-anchor="start" x="50" y="-210.69" font-family="Fira Mono Medium" font-size="12.00"> cannibal</text>
<text text-anchor="start" x="8" y="-198.69" font-family="Fira Mono Medium" font-style="italic" font-size="12.00">can&#45;drive:</text>
<text text-anchor="start" x="84" y="-198.69" font-family="Fira Mono Medium" font-size="12.00"> true</text>
</g>
<!-- node_3&#45;&gt;node_1 -->
<g id="edge6" class="edge">
<title>node_3&#45;&gt;node_1</title>
<path fill="none" stroke="black" d="M110.48,-235.37C154.65,-255.22 224.85,-281.29 289,-281.29 289,-281.29 289,-281.29 748.5,-281.29 819.3,-281.29 894.14,-241.64 936.46,-214.98"/>
<polygon fill="black" stroke="black" points="938.46,-217.85 944.98,-209.5 934.68,-211.96 938.46,-217.85"/>
<text text-anchor="middle" x="519" y="-284.29" font-family="Fira Mono Medium" font-size="10.00">at</text>
</g>
<!-- node_4 -->
<g id="node5" class="node">
<title>node_4</title>
<polygon fill="none" stroke="black" points="359,-253.29 221,-253.29 221,-209.29 359,-209.29 359,-253.29"/>
<text text-anchor="start" x="271" y="-240.69" font-family="Fira Mono Medium" font-weight="bold" font-size="12.00">human</text>
<text text-anchor="start" x="237" y="-228.69" font-family="Fira Mono Medium" font-style="italic" font-size="12.00">kind:</text>
<text text-anchor="start" x="275" y="-228.69" font-family="Fira Mono Medium" font-size="12.00"> cannibal</text>
<text text-anchor="start" x="229" y="-216.69" font-family="Fira Mono Medium" font-style="italic" font-size="12.00">can&#45;drive:</text>
<text text-anchor="start" x="305" y="-216.69" font-family="Fira Mono Medium" font-size="12.00"> false</text>
</g>
<!-- node_3&#45;&gt;node_4 -->
<g id="edge4" class="edge">
<title>node_3&#45;&gt;node_4</title>
<path fill="none" stroke="black" d="M130.38,-223.35C136.33,-224.09 142.27,-224.75 148,-225.29 168.24,-227.2 190.18,-228.5 210.58,-229.39"/>
<polygon fill="black" stroke="black" points="210.64,-232.89 220.77,-229.8 210.92,-225.9 210.64,-232.89"/>
<text text-anchor="middle" x="175.5" y="-231.29" font-family="Fira Mono Medium" font-size="10.00">not&#45;equal</text>
</g>
<!-- node_5 -->
<g id="node6" class="node">
<title>node_5</title>
<polygon fill="none" stroke="black" points="588,-202.29 450,-202.29 450,-158.29 588,-158.29 588,-202.29"/>
<text text-anchor="start" x="500" y="-189.69" font-family="Fira Mono Medium" font-weight="bold" font-size="12.00">human</text>
<text text-anchor="start" x="466" y="-177.69" font-family="Fira Mono Medium" font-style="italic" font-size="12.00">kind:</text>
<text text-anchor="start" x="504" y="-177.69" font-family="Fira Mono Medium" font-size="12.00"> cannibal</text>
<text text-anchor="start" x="458" y="-165.69" font-family="Fira Mono Medium" font-style="italic" font-size="12.00">can&#45;drive:</text>
<text text-anchor="start" x="534" y="-165.69" font-family="Fira Mono Medium" font-size="12.00"> false</text>
</g>
<!-- node_3&#45;&gt;node_5 -->
<g id="edge5" class="edge">
<title>node_3&#45;&gt;node_5</title>
<path fill="none" stroke="black" d="M130.3,-201.92C158.11,-197.37 191.08,-192.46 221,-189.29 290.06,-181.97 307.58,-182.29 377,-180.29 397.3,-179.71 419.26,-179.5 439.66,-179.49"/>
<polygon fill="black" stroke="black" points="439.85,-182.99 449.86,-179.5 439.86,-175.99 439.85,-182.99"/>
<text text-anchor="middle" x="290" y="-192.29" font-family="Fira Mono Medium" font-size="10.00">not&#45;equal</text>
</g>
<!-- node_4&#45;&gt;node_1 -->
<g id="edge9" class="edge">
<title>node_4&#45;&gt;node_1</title>
<path fill="none" stroke="black" d="M359.14,-233.55C382.27,-233.97 408.27,-234.07 432,-233.29 635.44,-226.62 686.58,-224.71 889,-203.29 891.5,-203.03 894.05,-202.74 896.62,-202.44"/>
<polygon fill="black" stroke="black" points="897.11,-205.91 906.6,-201.21 896.25,-198.96 897.11,-205.91"/>
<text text-anchor="middle" x="633.5" y="-229.29" font-family="Fira Mono Medium" font-size="10.00">at</text>
</g>
<!-- node_4&#45;&gt;node_3 -->
<g id="edge7" class="edge">
<title>node_4&#45;&gt;node_3</title>
<path fill="none" stroke="black" d="M220.69,-214.79C214.73,-213.78 208.78,-212.92 203,-212.29 182.77,-210.08 160.77,-209.46 140.43,-209.62"/>
<polygon fill="black" stroke="black" points="140.23,-206.12 130.28,-209.76 140.32,-213.12 140.23,-206.12"/>
<text text-anchor="middle" x="175.5" y="-215.29" font-family="Fira Mono Medium" font-size="10.00">not&#45;equal</text>
</g>
<!-- node_4&#45;&gt;node_5 -->
<g id="edge8" class="edge">
<title>node_4&#45;&gt;node_5</title>
<path fill="none" stroke="black" d="M359.15,-221.6C382.4,-217.79 408.46,-212.96 432,-207.29 434.95,-206.58 437.94,-205.82 440.96,-205.03"/>
<polygon fill="black" stroke="black" points="441.91,-208.4 450.64,-202.39 440.07,-201.65 441.91,-208.4"/>
<text text-anchor="middle" x="404.5" y="-221.29" font-family="Fira Mono Medium" font-size="10.00">not&#45;equal</text>
</g>
<!-- node_5&#45;&gt;node_0 -->
<g id="edge12" class="edge">
<title>node_5&#45;&gt;node_0</title>
<path fill="none" stroke="black" d="M588.26,-180.29C616.11,-180.29 648.28,-180.29 676.32,-180.29"/>
<polygon fill="black" stroke="black" points="676.44,-183.79 686.44,-180.29 676.44,-176.79 676.44,-183.79"/>
<text text-anchor="middle" x="633.5" y="-183.29" font-family="Fira Mono Medium" font-size="10.00">at</text>
</g>
<!-- node_5&#45;&gt;node_3 -->
<g id="edge10" class="edge">
<title>node_5&#45;&gt;node_3</title>
<path fill="none" stroke="black" d="M449.62,-172.42C421.58,-169.56 388.77,-166.69 359,-165.29 297.73,-162.41 281.68,-156.35 221,-165.29 187.48,-170.23 180.37,-177.28 148,-187.29 145.41,-188.09 142.78,-188.91 140.13,-189.74"/>
<polygon fill="black" stroke="black" points="138.93,-186.44 130.43,-192.77 141.02,-193.12 138.93,-186.44"/>
<text text-anchor="middle" x="290" y="-168.29" font-family="Fira Mono Medium" font-size="10.00">not&#45;equal</text>
</g>
<!-- node_5&#45;&gt;node_4 -->
<g id="edge11" class="edge">
<title>node_5&#45;&gt;node_4</title>
<path fill="none" stroke="black" d="M449.84,-182.82C426.48,-184.8 400.34,-188.27 377,-194.29 366.28,-197.06 355.17,-200.98 344.64,-205.23"/>
<polygon fill="black" stroke="black" points="343.03,-202.11 335.16,-209.21 345.74,-208.57 343.03,-202.11"/>
<text text-anchor="middle" x="404.5" y="-197.29" font-family="Fira Mono Medium" font-size="10.00">not&#45;equal</text>
</g>
<!-- node_6 -->
<g id="node7" class="node">
<title>node_6</title>
<polygon fill="none" stroke="black" points="358.5,-56.29 221.5,-56.29 221.5,-12.29 358.5,-12.29 358.5,-56.29"/>
<text text-anchor="start" x="271" y="-43.69" font-family="Fira Mono Medium" font-weight="bold" font-size="12.00">human</text>
<text text-anchor="start" x="229.5" y="-31.69" font-family="Fira Mono Medium" font-style="italic" font-size="12.00">kind:</text>
<text text-anchor="start" x="267.5" y="-31.69" font-family="Fira Mono Medium" font-size="12.00"> missionary</text>
<text text-anchor="start" x="233" y="-19.69" font-family="Fira Mono Medium" font-style="italic" font-size="12.00">can&#45;drive:</text>
<text text-anchor="start" x="309" y="-19.69" font-family="Fira Mono Medium" font-size="12.00"> true</text>
</g>
<!-- node_6&#45;&gt;node_1 -->
<g id="edge15" class="edge">
<title>node_6&#45;&gt;node_1</title>
<path fill="none" stroke="black" d="M336.21,-56.35C367.47,-70.7 410.4,-88.66 450,-99.29 608.8,-141.93 653.89,-125.8 816,-153.29 848.57,-158.82 856.89,-159.53 889,-167.29 893.14,-168.29 897.38,-169.37 901.64,-170.49"/>
<polygon fill="black" stroke="black" points="901.05,-173.96 911.61,-173.19 902.87,-167.2 901.05,-173.96"/>
<text text-anchor="middle" x="633.5" y="-137.29" font-family="Fira Mono Medium" font-size="10.00">at</text>
</g>
<!-- node_7 -->
<g id="node8" class="node">
<title>node_7</title>
<polygon fill="none" stroke="black" points="587.5,-90.29 450.5,-90.29 450.5,-46.29 587.5,-46.29 587.5,-90.29"/>
<text text-anchor="start" x="500" y="-77.69" font-family="Fira Mono Medium" font-weight="bold" font-size="12.00">human</text>
<text text-anchor="start" x="458.5" y="-65.69" font-family="Fira Mono Medium" font-style="italic" font-size="12.00">kind:</text>
<text text-anchor="start" x="496.5" y="-65.69" font-family="Fira Mono Medium" font-size="12.00"> missionary</text>
<text text-anchor="start" x="462" y="-53.69" font-family="Fira Mono Medium" font-style="italic" font-size="12.00">can&#45;drive:</text>
<text text-anchor="start" x="538" y="-53.69" font-family="Fira Mono Medium" font-size="12.00"> true</text>
</g>
<!-- node_6&#45;&gt;node_7 -->
<g id="edge13" class="edge">
<title>node_6&#45;&gt;node_7</title>
<path fill="none" stroke="black" d="M358.8,-44.45C384.4,-48.28 413.73,-52.67 440.18,-56.64"/>
<polygon fill="black" stroke="black" points="439.75,-60.11 450.16,-58.13 440.79,-53.19 439.75,-60.11"/>
<text text-anchor="middle" x="404.5" y="-58.29" font-family="Fira Mono Medium" font-size="10.00">not&#45;equal</text>
</g>
<!-- node_8 -->
<g id="node9" class="node">
<title>node_8</title>
<polygon fill="none" stroke="black" points="816,-56.29 679,-56.29 679,-12.29 816,-12.29 816,-56.29"/>
<text text-anchor="start" x="728.5" y="-43.69" font-family="Fira Mono Medium" font-weight="bold" font-size="12.00">human</text>
<text text-anchor="start" x="687" y="-31.69" font-family="Fira Mono Medium" font-style="italic" font-size="12.00">kind:</text>
<text text-anchor="start" x="725" y="-31.69" font-family="Fira Mono Medium" font-size="12.00"> missionary</text>
<text text-anchor="start" x="690.5" y="-19.69" font-family="Fira Mono Medium" font-style="italic" font-size="12.00">can&#45;drive:</text>
<text text-anchor="start" x="766.5" y="-19.69" font-family="Fira Mono Medium" font-size="12.00"> true</text>
</g>
<!-- node_6&#45;&gt;node_8 -->
<g id="edge14" class="edge">
<title>node_6&#45;&gt;node_8</title>
<path fill="none" stroke="black" d="M358.54,-25.69C364.77,-25.12 371,-24.64 377,-24.29 503.01,-16.99 534.99,-16.95 661,-24.29 663.55,-24.44 666.13,-24.61 668.74,-24.81"/>
<polygon fill="black" stroke="black" points="668.64,-28.31 678.89,-25.65 669.21,-21.33 668.64,-28.31"/>
<text text-anchor="middle" x="519" y="-24.29" font-family="Fira Mono Medium" font-size="10.00">not&#45;equal</text>
</g>
<!-- node_7&#45;&gt;node_1 -->
<g id="edge18" class="edge">
<title>node_7&#45;&gt;node_1</title>
<path fill="none" stroke="black" d="M587.74,-72.88C679.24,-79.9 836.88,-95.07 889,-119.29 912.33,-130.13 933.98,-149.73 949.17,-165.74"/>
<polygon fill="black" stroke="black" points="946.74,-168.27 956.08,-173.26 951.89,-163.53 946.74,-168.27"/>
<text text-anchor="middle" x="747.5" y="-101.29" font-family="Fira Mono Medium" font-size="10.00">at</text>
</g>
<!-- node_7&#45;&gt;node_6 -->
<g id="edge16" class="edge">
<title>node_7&#45;&gt;node_6</title>
<path fill="none" stroke="black" d="M473.04,-46.19C460.1,-40.89 445.76,-35.99 432,-33.29 411.66,-29.31 389.36,-28.07 368.61,-28.2"/>
<polygon fill="black" stroke="black" points="368.51,-24.7 358.57,-28.36 368.63,-31.7 368.51,-24.7"/>
<text text-anchor="middle" x="404.5" y="-36.29" font-family="Fira Mono Medium" font-size="10.00">not&#45;equal</text>
</g>
<!-- node_7&#45;&gt;node_8 -->
<g id="edge17" class="edge">
<title>node_7&#45;&gt;node_8</title>
<path fill="none" stroke="black" d="M587.65,-58.14C613.2,-54.3 642.46,-49.91 668.85,-45.95"/>
<polygon fill="black" stroke="black" points="669.44,-49.4 678.81,-44.45 668.4,-42.48 669.44,-49.4"/>
<text text-anchor="middle" x="633.5" y="-58.29" font-family="Fira Mono Medium" font-size="10.00">not&#45;equal</text>
</g>
<!-- node_8&#45;&gt;node_1 -->
<g id="edge21" class="edge">
<title>node_8&#45;&gt;node_1</title>
<path fill="none" stroke="black" d="M816.35,-40.92C840.92,-45.86 867.8,-54.43 889,-69.29 923.02,-93.15 946.93,-136 959.84,-164.04"/>
<polygon fill="black" stroke="black" points="956.68,-165.57 963.94,-173.29 963.08,-162.73 956.68,-165.57"/>
<text text-anchor="middle" x="861.5" y="-72.29" font-family="Fira Mono Medium" font-size="10.00">at</text>
</g>
<!-- node_8&#45;&gt;node_6 -->
<g id="edge19" class="edge">
<title>node_8&#45;&gt;node_6</title>
<path fill="none" stroke="black" d="M678.63,-18.56C650.72,-12.84 617.97,-7.1 588,-4.29 526.93,1.44 511.07,1.42 450,-4.29 423.33,-6.79 394.47,-11.58 368.76,-16.62"/>
<polygon fill="black" stroke="black" points="367.81,-13.24 358.69,-18.64 369.19,-20.11 367.81,-13.24"/>
<text text-anchor="middle" x="519" y="-7.29" font-family="Fira Mono Medium" font-size="10.00">not&#45;equal</text>
</g>
<!-- node_8&#45;&gt;node_7 -->
<g id="edge20" class="edge">
<title>node_8&#45;&gt;node_7</title>
<path fill="none" stroke="black" d="M678.81,-28.37C655.55,-27.77 629.46,-28.7 606,-33.29 595.57,-35.33 584.81,-38.64 574.58,-42.44"/>
<polygon fill="black" stroke="black" points="573,-39.29 564.96,-46.19 575.55,-45.81 573,-39.29"/>
<text text-anchor="middle" x="633.5" y="-36.29" font-family="Fira Mono Medium" font-size="10.00">not&#45;equal</text>
</g>
</g>
</svg>
