<?xml version="1.0" encoding="UTF-8" standalone="no"?>
<!DOCTYPE svg PUBLIC "-//W3C//DTD SVG 1.1//EN"
 "http://www.w3.org/Graphics/SVG/1.1/DTD/svg11.dtd">
<!-- Generated by graphviz version 2.43.0 (0)
 -->
<!-- Title: %3 Pages: 1 -->
<svg width="995pt" height="439pt"
 viewBox="0.00 0.00 995.00 439.00" xmlns="http://www.w3.org/2000/svg" xmlns:xlink="http://www.w3.org/1999/xlink">
<g id="graph0" class="graph" transform="scale(1 1) rotate(0) translate(4 435)">
<title>%3</title>
<polygon fill="white" stroke="transparent" points="-4,4 -4,-435 991,-435 991,4 -4,4"/>
<!-- node_0 -->
<g id="node1" class="node">
<title>node_0</title>
<polygon fill="none" stroke="black" points="766,-272 644,-272 644,-236 766,-236 766,-272"/>
<text text-anchor="start" x="689.5" y="-257.4" font-family="Fira Mono Medium" font-weight="bold" font-size="12.00">bank</text>
<text text-anchor="start" x="652" y="-245.4" font-family="Fira Mono Medium" font-style="italic" font-size="12.00">location:</text>
<text text-anchor="start" x="720" y="-245.4" font-family="Fira Mono Medium" font-size="12.00"> left</text>
</g>
<!-- node_1 -->
<g id="node2" class="node">
<title>node_1</title>
<polygon fill="none" stroke="black" points="987,-272 857,-272 857,-236 987,-236 987,-272"/>
<text text-anchor="start" x="906.5" y="-257.4" font-family="Fira Mono Medium" font-weight="bold" font-size="12.00">bank</text>
<text text-anchor="start" x="865" y="-245.4" font-family="Fira Mono Medium" font-style="italic" font-size="12.00">location:</text>
<text text-anchor="start" x="933" y="-245.4" font-family="Fira Mono Medium" font-size="12.00"> right</text>
</g>
<!-- node_0&#45;&gt;node_1 -->
<g id="edge1" class="edge">
<title>node_0&#45;&gt;node_1</title>
<path fill="none" stroke="black" d="M766.18,-254C791.07,-254 820.2,-254 846.43,-254"/>
<polygon fill="black" stroke="black" points="846.7,-257.5 856.7,-254 846.7,-250.5 846.7,-257.5"/>
<text text-anchor="middle" x="811.5" y="-257" font-family="Fira Mono Medium" font-size="10.00">not&#45;equal</text>
</g>
<!-- node_1&#45;&gt;node_0 -->
<g id="edge2" class="edge">
<title>node_1&#45;&gt;node_0</title>
<path fill="none" stroke="black" d="M856.69,-241.1C850.73,-240.25 844.77,-239.52 839,-239 814.66,-236.79 808.33,-236.68 784,-239 781.48,-239.24 778.92,-239.52 776.33,-239.84"/>
<polygon fill="black" stroke="black" points="775.73,-236.39 766.3,-241.23 776.69,-243.33 775.73,-236.39"/>
<text text-anchor="middle" x="811.5" y="-242" font-family="Fira Mono Medium" font-size="10.00">not&#45;equal</text>
</g>
<!-- node_2 -->
<g id="node3" class="node">
<title>node_2</title>
<polygon fill="none" stroke="black" points="732,-431 678,-431 678,-395 732,-395 732,-431"/>
<text text-anchor="start" x="689.5" y="-410.9" font-family="Fira Mono Medium" font-weight="bold" font-size="12.00">boat</text>
</g>
<!-- node_2&#45;&gt;node_1 -->
<g id="edge3" class="edge">
<title>node_2&#45;&gt;node_1</title>
<path fill="none" stroke="black" d="M732.09,-412.35C760.74,-410.45 806.94,-403.73 839,-381 874.05,-356.15 897.8,-311.15 910.38,-281.93"/>
<polygon fill="black" stroke="black" points="913.77,-282.89 914.36,-272.31 907.3,-280.22 913.77,-282.89"/>
<text text-anchor="middle" x="811.5" y="-407" font-family="Fira Mono Medium" font-size="10.00">at</text>
</g>
<!-- node_3 -->
<g id="node4" class="node">
<title>node_3</title>
<polygon fill="none" stroke="black" points="133.5,-312 3.5,-312 3.5,-268 133.5,-268 133.5,-312"/>
<text text-anchor="start" x="49.5" y="-299.4" font-family="Fira Mono Medium" font-weight="bold" font-size="12.00">human</text>
<text text-anchor="start" x="15.5" y="-287.4" font-family="Fira Mono Medium" font-style="italic" font-size="12.00">kind:</text>
<text text-anchor="start" x="53.5" y="-287.4" font-family="Fira Mono Medium" font-size="12.00"> cannibal</text>
<text text-anchor="start" x="11.5" y="-275.4" font-family="Fira Mono Medium" font-style="italic" font-size="12.00">can&#45;drive:</text>
<text text-anchor="start" x="87.5" y="-275.4" font-family="Fira Mono Medium" font-size="12.00"> true</text>
</g>
<!-- node_3&#45;&gt;node_1 -->
<g id="edge6" class="edge">
<title>node_3&#45;&gt;node_1</title>
<path fill="none" stroke="black" d="M108.63,-312.07C152.74,-334.82 227.26,-367 296,-367 296,-367 296,-367 706,-367 781.19,-367 855.95,-312.17 894.39,-278.9"/>
<polygon fill="black" stroke="black" points="896.85,-281.4 902.03,-272.16 892.22,-276.15 896.85,-281.4"/>
<text text-anchor="middle" x="526" y="-370" font-family="Fira Mono Medium" font-size="10.00">at</text>
</g>
<!-- node_4 -->
<g id="node5" class="node">
<title>node_4</title>
<polygon fill="none" stroke="black" points="366,-330 228,-330 228,-286 366,-286 366,-330"/>
<text text-anchor="start" x="278" y="-317.4" font-family="Fira Mono Medium" font-weight="bold" font-size="12.00">human</text>
<text text-anchor="start" x="244" y="-305.4" font-family="Fira Mono Medium" font-style="italic" font-size="12.00">kind:</text>
<text text-anchor="start" x="282" y="-305.4" font-family="Fira Mono Medium" font-size="12.00"> cannibal</text>
<text text-anchor="start" x="236" y="-293.4" font-family="Fira Mono Medium" font-style="italic" font-size="12.00">can&#45;drive:</text>
<text text-anchor="start" x="312" y="-293.4" font-family="Fira Mono Medium" font-size="12.00"> false</text>
</g>
<!-- node_3&#45;&gt;node_4 -->
<g id="edge4" class="edge">
<title>node_3&#45;&gt;node_4</title>
<path fill="none" stroke="black" d="M133.85,-299.71C140.97,-300.58 148.13,-301.37 155,-302 175.25,-303.85 197.18,-305.13 217.59,-306.01"/>
<polygon fill="black" stroke="black" points="217.65,-309.52 227.78,-306.43 217.93,-302.53 217.65,-309.52"/>
<text text-anchor="middle" x="182.5" y="-308" font-family="Fira Mono Medium" font-size="10.00">not&#45;equal</text>
</g>
<!-- node_5 -->
<g id="node6" class="node">
<title>node_5</title>
<polygon fill="none" stroke="black" points="595,-276 457,-276 457,-232 595,-232 595,-276"/>
<text text-anchor="start" x="507" y="-263.4" font-family="Fira Mono Medium" font-weight="bold" font-size="12.00">human</text>
<text text-anchor="start" x="473" y="-251.4" font-family="Fira Mono Medium" font-style="italic" font-size="12.00">kind:</text>
<text text-anchor="start" x="511" y="-251.4" font-family="Fira Mono Medium" font-size="12.00"> cannibal</text>
<text text-anchor="start" x="465" y="-239.4" font-family="Fira Mono Medium" font-style="italic" font-size="12.00">can&#45;drive:</text>
<text text-anchor="start" x="541" y="-239.4" font-family="Fira Mono Medium" font-size="12.00"> false</text>
</g>
<!-- node_3&#45;&gt;node_5 -->
<g id="edge5" class="edge">
<title>node_3&#45;&gt;node_5</title>
<path fill="none" stroke="black" d="M133.75,-279.17C162.52,-274.61 196.89,-269.55 228,-266 297.09,-258.12 314.51,-256.67 384,-254 404.3,-253.22 426.25,-252.95 446.66,-252.93"/>
<polygon fill="black" stroke="black" points="446.84,-256.43 456.85,-252.95 446.85,-249.43 446.84,-256.43"/>
<text text-anchor="middle" x="297" y="-269" font-family="Fira Mono Medium" font-size="10.00">not&#45;equal</text>
</g>
<!-- node_4&#45;&gt;node_0 -->
<g id="edge9" class="edge">
<title>node_4&#45;&gt;node_0</title>
<path fill="none" stroke="black" d="M366.2,-310.01C389.34,-310.16 415.32,-309.74 439,-308 508.9,-302.88 526.48,-299.73 595,-285 608.39,-282.12 622.55,-278.52 636.09,-274.79"/>
<polygon fill="black" stroke="black" points="637.12,-278.14 645.81,-272.07 635.23,-271.4 637.12,-278.14"/>
<text text-anchor="middle" x="526" y="-309" font-family="Fira Mono Medium" font-size="10.00">at</text>
</g>
<!-- node_4&#45;&gt;node_3 -->
<g id="edge7" class="edge">
<title>node_4&#45;&gt;node_3</title>
<path fill="none" stroke="black" d="M227.69,-291.5C221.73,-290.49 215.78,-289.63 210,-289 188.54,-286.66 165.13,-286.05 143.68,-286.27"/>
<polygon fill="black" stroke="black" points="143.6,-282.77 133.66,-286.43 143.71,-289.77 143.6,-282.77"/>
<text text-anchor="middle" x="182.5" y="-292" font-family="Fira Mono Medium" font-size="10.00">not&#45;equal</text>
</g>
<!-- node_4&#45;&gt;node_5 -->
<g id="edge8" class="edge">
<title>node_4&#45;&gt;node_5</title>
<path fill="none" stroke="black" d="M366.17,-297.31C389.42,-293.16 415.48,-287.97 439,-282 442.83,-281.03 446.74,-279.98 450.67,-278.87"/>
<polygon fill="black" stroke="black" points="451.84,-282.18 460.47,-276.03 449.89,-275.45 451.84,-282.18"/>
<text text-anchor="middle" x="411.5" y="-296" font-family="Fira Mono Medium" font-size="10.00">not&#45;equal</text>
</g>
<!-- node_5&#45;&gt;node_0 -->
<g id="edge12" class="edge">
<title>node_5&#45;&gt;node_0</title>
<path fill="none" stroke="black" d="M595.18,-254C607.86,-254 621.13,-254 633.86,-254"/>
<polygon fill="black" stroke="black" points="633.94,-257.5 643.94,-254 633.94,-250.5 633.94,-257.5"/>
<text text-anchor="middle" x="619.5" y="-257" font-family="Fira Mono Medium" font-size="10.00">at</text>
</g>
<!-- node_5&#45;&gt;node_3 -->
<g id="edge10" class="edge">
<title>node_5&#45;&gt;node_3</title>
<path fill="none" stroke="black" d="M456.76,-242.64C396.29,-234.45 305.78,-226.79 228,-239 196.06,-244.01 161.77,-254.38 133.28,-264.47"/>
<polygon fill="black" stroke="black" points="132.07,-261.18 123.86,-267.87 134.45,-267.77 132.07,-261.18"/>
<text text-anchor="middle" x="297" y="-242" font-family="Fira Mono Medium" font-size="10.00">not&#45;equal</text>
</g>
<!-- node_5&#45;&gt;node_4 -->
<g id="edge11" class="edge">
<title>node_5&#45;&gt;node_4</title>
<path fill="none" stroke="black" d="M456.77,-256.84C433.4,-258.98 407.28,-262.66 384,-269 372.26,-272.2 360.1,-276.82 348.75,-281.77"/>
<polygon fill="black" stroke="black" points="347.1,-278.67 339.43,-285.98 349.98,-285.05 347.1,-278.67"/>
<text text-anchor="middle" x="411.5" y="-272" font-family="Fira Mono Medium" font-size="10.00">not&#45;equal</text>
</g>
<!-- node_6 -->
<g id="node7" class="node">
<title>node_6</title>
<polygon fill="none" stroke="black" points="137,-115 0,-115 0,-71 137,-71 137,-115"/>
<text text-anchor="start" x="49.5" y="-102.4" font-family="Fira Mono Medium" font-weight="bold" font-size="12.00">human</text>
<text text-anchor="start" x="8" y="-90.4" font-family="Fira Mono Medium" font-style="italic" font-size="12.00">kind:</text>
<text text-anchor="start" x="46" y="-90.4" font-family="Fira Mono Medium" font-size="12.00"> missionary</text>
<text text-anchor="start" x="11.5" y="-78.4" font-family="Fira Mono Medium" font-style="italic" font-size="12.00">can&#45;drive:</text>
<text text-anchor="start" x="87.5" y="-78.4" font-family="Fira Mono Medium" font-size="12.00"> true</text>
</g>
<!-- node_6&#45;&gt;node_1 -->
<g id="edge15" class="edge">
<title>node_6&#45;&gt;node_1</title>
<path fill="none" stroke="black" d="M100.84,-70.96C143.08,-43.46 221.61,0 296,0 296,0 296,0 706,0 823.36,0 889.84,-159.92 912.29,-225.98"/>
<polygon fill="black" stroke="black" points="909.06,-227.34 915.52,-235.73 915.7,-225.14 909.06,-227.34"/>
<text text-anchor="middle" x="526" y="-3" font-family="Fira Mono Medium" font-size="10.00">at</text>
</g>
<!-- node_7 -->
<g id="node8" class="node">
<title>node_7</title>
<polygon fill="none" stroke="black" points="365.5,-173 228.5,-173 228.5,-129 365.5,-129 365.5,-173"/>
<text text-anchor="start" x="278" y="-160.4" font-family="Fira Mono Medium" font-weight="bold" font-size="12.00">human</text>
<text text-anchor="start" x="236.5" y="-148.4" font-family="Fira Mono Medium" font-style="italic" font-size="12.00">kind:</text>
<text text-anchor="start" x="274.5" y="-148.4" font-family="Fira Mono Medium" font-size="12.00"> missionary</text>
<text text-anchor="start" x="240" y="-136.4" font-family="Fira Mono Medium" font-style="italic" font-size="12.00">can&#45;drive:</text>
<text text-anchor="start" x="316" y="-136.4" font-family="Fira Mono Medium" font-size="12.00"> true</text>
</g>
<!-- node_6&#45;&gt;node_7 -->
<g id="edge13" class="edge">
<title>node_6&#45;&gt;node_7</title>
<path fill="none" stroke="black" d="M103.95,-115.1C119.04,-123.71 137.31,-132.76 155,-138 175.05,-143.94 197.35,-147.37 218.18,-149.3"/>
<polygon fill="black" stroke="black" points="218.03,-152.8 228.28,-150.13 218.6,-145.83 218.03,-152.8"/>
<text text-anchor="middle" x="182.5" y="-151" font-family="Fira Mono Medium" font-size="10.00">not&#45;equal</text>
</g>
<!-- node_8 -->
<g id="node9" class="node">
<title>node_8</title>
<polygon fill="none" stroke="black" points="594.5,-190 457.5,-190 457.5,-146 594.5,-146 594.5,-190"/>
<text text-anchor="start" x="507" y="-177.4" font-family="Fira Mono Medium" font-weight="bold" font-size="12.00">human</text>
<text text-anchor="start" x="465.5" y="-165.4" font-family="Fira Mono Medium" font-style="italic" font-size="12.00">kind:</text>
<text text-anchor="start" x="503.5" y="-165.4" font-family="Fira Mono Medium" font-size="12.00"> missionary</text>
<text text-anchor="start" x="469" y="-153.4" font-family="Fira Mono Medium" font-style="italic" font-size="12.00">can&#45;drive:</text>
<text text-anchor="start" x="545" y="-153.4" font-family="Fira Mono Medium" font-size="12.00"> true</text>
</g>
<!-- node_6&#45;&gt;node_8 -->
<g id="edge14" class="edge">
<title>node_6&#45;&gt;node_8</title>
<path fill="none" stroke="black" d="M137.07,-90.91C197.65,-90.38 288.65,-92.95 366,-109 400.73,-116.21 437.98,-129.7 467.69,-141.96"/>
<polygon fill="black" stroke="black" points="466.48,-145.25 477.06,-145.89 469.19,-138.79 466.48,-145.25"/>
<text text-anchor="middle" x="297" y="-112" font-family="Fira Mono Medium" font-size="10.00">not&#45;equal</text>
</g>
<!-- node_7&#45;&gt;node_1 -->
<g id="edge18" class="edge">
<title>node_7&#45;&gt;node_1</title>
<path fill="none" stroke="black" d="M365.61,-143.64C393.82,-140.94 426.96,-138.23 457,-137 518.28,-134.49 534.57,-126.49 595,-137 698.68,-155.04 812.97,-203.1 874.9,-231.7"/>
<polygon fill="black" stroke="black" points="873.47,-234.89 884.01,-235.94 876.42,-228.55 873.47,-234.89"/>
<text text-anchor="middle" x="619.5" y="-145" font-family="Fira Mono Medium" font-size="10.00">at</text>
</g>
<!-- node_7&#45;&gt;node_6 -->
<g id="edge16" class="edge">
<title>node_7&#45;&gt;node_6</title>
<path fill="none" stroke="black" d="M228.06,-129.98C221.97,-128.24 215.88,-126.56 210,-125 189.74,-119.64 167.69,-114.36 147.19,-109.68"/>
<polygon fill="black" stroke="black" points="147.79,-106.23 137.27,-107.43 146.25,-113.05 147.79,-106.23"/>
<text text-anchor="middle" x="182.5" y="-128" font-family="Fira Mono Medium" font-size="10.00">not&#45;equal</text>
</g>
<!-- node_7&#45;&gt;node_8 -->
<g id="edge17" class="edge">
<title>node_7&#45;&gt;node_8</title>
<path fill="none" stroke="black" d="M365.53,-161.09C371.76,-161.82 377.99,-162.48 384,-163 404.55,-164.79 426.84,-165.95 447.5,-166.69"/>
<polygon fill="black" stroke="black" points="447.39,-170.19 457.5,-167.02 447.62,-163.19 447.39,-170.19"/>
<text text-anchor="middle" x="411.5" y="-169" font-family="Fira Mono Medium" font-size="10.00">not&#45;equal</text>
</g>
<!-- node_8&#45;&gt;node_0 -->
<g id="edge21" class="edge">
<title>node_8&#45;&gt;node_0</title>
<path fill="none" stroke="black" d="M572.58,-190.15C598.79,-202.88 631.62,-218.83 657.91,-231.6"/>
<polygon fill="black" stroke="black" points="656.39,-234.76 666.91,-235.98 659.45,-228.46 656.39,-234.76"/>
<text text-anchor="middle" x="619.5" y="-216" font-family="Fira Mono Medium" font-size="10.00">at</text>
</g>
<!-- node_8&#45;&gt;node_6 -->
<g id="edge19" class="edge">
<title>node_8&#45;&gt;node_6</title>
<path fill="none" stroke="black" d="M498.75,-145.97C468.88,-122.67 417.52,-87.8 366,-77 292.91,-61.68 207.59,-68.83 147.29,-77.91"/>
<polygon fill="black" stroke="black" points="146.42,-74.51 137.08,-79.51 147.5,-81.42 146.42,-74.51"/>
<text text-anchor="middle" x="297" y="-80" font-family="Fira Mono Medium" font-size="10.00">not&#45;equal</text>
</g>
<!-- node_8&#45;&gt;node_7 -->
<g id="edge20" class="edge">
<title>node_8&#45;&gt;node_7</title>
<path fill="none" stroke="black" d="M457.14,-152.45C451.03,-151.46 444.92,-150.61 439,-150 418.59,-147.89 396.42,-147.26 375.84,-147.38"/>
<polygon fill="black" stroke="black" points="375.52,-143.89 365.56,-147.5 375.6,-150.89 375.52,-143.89"/>
<text text-anchor="middle" x="411.5" y="-153" font-family="Fira Mono Medium" font-size="10.00">not&#45;equal</text>
</g>
</g>
</svg>
