<?xml version="1.0" encoding="UTF-8" standalone="no"?>
<!DOCTYPE svg PUBLIC "-//W3C//DTD SVG 1.1//EN"
 "http://www.w3.org/Graphics/SVG/1.1/DTD/svg11.dtd">
<!-- Generated by graphviz version 2.43.0 (0)
 -->
<!-- Title: %3 Pages: 1 -->
<svg width="824pt" height="390pt"
 viewBox="0.00 0.00 824.00 390.00" xmlns="http://www.w3.org/2000/svg" xmlns:xlink="http://www.w3.org/1999/xlink">
<g id="graph0" class="graph" transform="scale(1 1) rotate(0) translate(4 386)">
<title>%3</title>
<polygon fill="white" stroke="transparent" points="-4,4 -4,-386 820,-386 820,4 -4,4"/>
<!-- node_0 -->
<g id="node1" class="node">
<title>node_0</title>
<polygon fill="none" stroke="black" points="587,-88 465,-88 465,-52 587,-52 587,-88"/>
<text text-anchor="start" x="510.5" y="-73.4" font-family="Fira Mono Medium" font-weight="bold" font-size="12.00">bank</text>
<text text-anchor="start" x="473" y="-61.4" font-family="Fira Mono Medium" font-style="italic" font-size="12.00">location:</text>
<text text-anchor="start" x="541" y="-61.4" font-family="Fira Mono Medium" font-size="12.00"> left</text>
</g>
<!-- node_1 -->
<g id="node2" class="node">
<title>node_1</title>
<polygon fill="none" stroke="black" points="816,-249 686,-249 686,-213 816,-213 816,-249"/>
<text text-anchor="start" x="735.5" y="-234.4" font-family="Fira Mono Medium" font-weight="bold" font-size="12.00">bank</text>
<text text-anchor="start" x="694" y="-222.4" font-family="Fira Mono Medium" font-style="italic" font-size="12.00">location:</text>
<text text-anchor="start" x="762" y="-222.4" font-family="Fira Mono Medium" font-size="12.00"> right</text>
</g>
<!-- node_0&#45;&gt;node_1 -->
<g id="edge1" class="edge">
<title>node_0&#45;&gt;node_1</title>
<path fill="none" stroke="black" d="M554.53,-88.07C566.93,-96.25 581.73,-106.07 595,-115 627.62,-136.96 636.44,-141.54 668,-165 685.7,-178.15 704.93,-193.57 720.32,-206.19"/>
<polygon fill="black" stroke="black" points="718.49,-209.22 728.43,-212.89 722.94,-203.82 718.49,-209.22"/>
<text text-anchor="middle" x="640.5" y="-168" font-family="Fira Mono Medium" font-size="10.00">not&#45;equal</text>
</g>
<!-- node_1&#45;&gt;node_0 -->
<g id="edge2" class="edge">
<title>node_1&#45;&gt;node_0</title>
<path fill="none" stroke="black" d="M742.27,-212.78C730.23,-186.6 704.53,-138.55 668,-112 647.3,-96.95 621.2,-87.25 597.11,-81.02"/>
<polygon fill="black" stroke="black" points="597.82,-77.59 587.28,-78.63 596.17,-84.39 597.82,-77.59"/>
<text text-anchor="middle" x="640.5" y="-115" font-family="Fira Mono Medium" font-size="10.00">not&#45;equal</text>
</g>
<!-- node_2 -->
<g id="node3" class="node">
<title>node_2</title>
<polygon fill="none" stroke="black" points="324,-36 270,-36 270,0 324,0 324,-36"/>
<text text-anchor="start" x="281.5" y="-15.9" font-family="Fira Mono Medium" font-weight="bold" font-size="12.00">boat</text>
</g>
<!-- node_2&#45;&gt;node_0 -->
<g id="edge3" class="edge">
<title>node_2&#45;&gt;node_0</title>
<path fill="none" stroke="black" d="M324.11,-19.07C352.71,-20.72 399.73,-24.84 439,-35 451.68,-38.28 464.98,-43.01 477.23,-47.93"/>
<polygon fill="black" stroke="black" points="476.21,-51.3 486.79,-51.9 478.89,-44.83 476.21,-51.3"/>
<text text-anchor="middle" x="411.5" y="-38" font-family="Fira Mono Medium" font-size="10.00">at</text>
</g>
<!-- node_3 -->
<g id="node4" class="node">
<title>node_3</title>
<polygon fill="none" stroke="black" points="133.5,-361 3.5,-361 3.5,-317 133.5,-317 133.5,-361"/>
<text text-anchor="start" x="49.5" y="-348.4" font-family="Fira Mono Medium" font-weight="bold" font-size="12.00">human</text>
<text text-anchor="start" x="15.5" y="-336.4" font-family="Fira Mono Medium" font-style="italic" font-size="12.00">kind:</text>
<text text-anchor="start" x="53.5" y="-336.4" font-family="Fira Mono Medium" font-size="12.00"> cannibal</text>
<text text-anchor="start" x="11.5" y="-324.4" font-family="Fira Mono Medium" font-style="italic" font-size="12.00">can&#45;drive:</text>
<text text-anchor="start" x="87.5" y="-324.4" font-family="Fira Mono Medium" font-size="12.00"> true</text>
</g>
<!-- node_3&#45;&gt;node_1 -->
<g id="edge6" class="edge">
<title>node_3&#45;&gt;node_1</title>
<path fill="none" stroke="black" d="M133.69,-354.74C140.84,-356.06 148.05,-357.19 155,-358 187.23,-361.76 195.55,-358.78 228,-359 391.11,-360.12 435.12,-389.3 595,-357 629.38,-350.05 639.59,-347.58 668,-327 694.37,-307.9 717.74,-278.65 732.72,-257.45"/>
<polygon fill="black" stroke="black" points="735.62,-259.41 738.42,-249.2 729.86,-255.44 735.62,-259.41"/>
<text text-anchor="middle" x="411.5" y="-374" font-family="Fira Mono Medium" font-size="10.00">at</text>
</g>
<!-- node_4 -->
<g id="node5" class="node">
<title>node_4</title>
<polygon fill="none" stroke="black" points="366,-303 228,-303 228,-259 366,-259 366,-303"/>
<text text-anchor="start" x="278" y="-290.4" font-family="Fira Mono Medium" font-weight="bold" font-size="12.00">human</text>
<text text-anchor="start" x="244" y="-278.4" font-family="Fira Mono Medium" font-style="italic" font-size="12.00">kind:</text>
<text text-anchor="start" x="282" y="-278.4" font-family="Fira Mono Medium" font-size="12.00"> cannibal</text>
<text text-anchor="start" x="236" y="-266.4" font-family="Fira Mono Medium" font-style="italic" font-size="12.00">can&#45;drive:</text>
<text text-anchor="start" x="312" y="-266.4" font-family="Fira Mono Medium" font-size="12.00"> false</text>
</g>
<!-- node_3&#45;&gt;node_4 -->
<g id="edge4" class="edge">
<title>node_3&#45;&gt;node_4</title>
<path fill="none" stroke="black" d="M133.82,-319.78C140.95,-317.78 148.12,-315.81 155,-314 175.27,-308.67 197.29,-303.31 217.77,-298.51"/>
<polygon fill="black" stroke="black" points="218.74,-301.88 227.68,-296.2 217.15,-295.06 218.74,-301.88"/>
<text text-anchor="middle" x="182.5" y="-317" font-family="Fira Mono Medium" font-size="10.00">not&#45;equal</text>
</g>
<!-- node_5 -->
<g id="node6" class="node">
<title>node_5</title>
<polygon fill="none" stroke="black" points="595,-325 457,-325 457,-281 595,-281 595,-325"/>
<text text-anchor="start" x="507" y="-312.4" font-family="Fira Mono Medium" font-weight="bold" font-size="12.00">human</text>
<text text-anchor="start" x="473" y="-300.4" font-family="Fira Mono Medium" font-style="italic" font-size="12.00">kind:</text>
<text text-anchor="start" x="511" y="-300.4" font-family="Fira Mono Medium" font-size="12.00"> cannibal</text>
<text text-anchor="start" x="465" y="-288.4" font-family="Fira Mono Medium" font-style="italic" font-size="12.00">can&#45;drive:</text>
<text text-anchor="start" x="541" y="-288.4" font-family="Fira Mono Medium" font-size="12.00"> false</text>
</g>
<!-- node_3&#45;&gt;node_5 -->
<g id="edge5" class="edge">
<title>node_3&#45;&gt;node_5</title>
<path fill="none" stroke="black" d="M133.8,-333.92C216.09,-327.41 358.55,-316.15 446.97,-309.17"/>
<polygon fill="black" stroke="black" points="447.25,-312.66 456.94,-308.38 446.7,-305.68 447.25,-312.66"/>
<text text-anchor="middle" x="297" y="-329" font-family="Fira Mono Medium" font-size="10.00">not&#45;equal</text>
</g>
<!-- node_4&#45;&gt;node_1 -->
<g id="edge9" class="edge">
<title>node_4&#45;&gt;node_1</title>
<path fill="none" stroke="black" d="M346.55,-303.08C405.95,-327.04 509.2,-358.78 595,-334 645.5,-319.41 694.42,-281.76 723.37,-256.26"/>
<polygon fill="black" stroke="black" points="725.89,-258.7 730.99,-249.42 721.21,-253.49 725.89,-258.7"/>
<text text-anchor="middle" x="526" y="-345" font-family="Fira Mono Medium" font-size="10.00">at</text>
</g>
<!-- node_4&#45;&gt;node_3 -->
<g id="edge7" class="edge">
<title>node_4&#45;&gt;node_3</title>
<path fill="none" stroke="black" d="M227.76,-275.69C204.27,-275.75 178.07,-277.97 155,-285 137.03,-290.48 119.15,-300.81 104.41,-310.98"/>
<polygon fill="black" stroke="black" points="102.22,-308.25 96.13,-316.91 106.3,-313.94 102.22,-308.25"/>
<text text-anchor="middle" x="182.5" y="-288" font-family="Fira Mono Medium" font-size="10.00">not&#45;equal</text>
</g>
<!-- node_4&#45;&gt;node_5 -->
<g id="edge8" class="edge">
<title>node_4&#45;&gt;node_5</title>
<path fill="none" stroke="black" d="M366.11,-287.6C391.47,-290.06 420.46,-292.87 446.67,-295.41"/>
<polygon fill="black" stroke="black" points="446.65,-298.92 456.94,-296.4 447.32,-291.96 446.65,-298.92"/>
<text text-anchor="middle" x="411.5" y="-297" font-family="Fira Mono Medium" font-size="10.00">not&#45;equal</text>
</g>
<!-- node_5&#45;&gt;node_1 -->
<g id="edge12" class="edge">
<title>node_5&#45;&gt;node_1</title>
<path fill="none" stroke="black" d="M595.12,-281.01C623.42,-271.87 656.14,-261.31 684.19,-252.25"/>
<polygon fill="black" stroke="black" points="685.46,-255.52 693.9,-249.11 683.31,-248.85 685.46,-255.52"/>
<text text-anchor="middle" x="640.5" y="-276" font-family="Fira Mono Medium" font-size="10.00">at</text>
</g>
<!-- node_5&#45;&gt;node_3 -->
<g id="edge10" class="edge">
<title>node_5&#45;&gt;node_3</title>
<path fill="none" stroke="black" d="M456.56,-321.69C450.63,-323.19 444.72,-324.65 439,-326 406.77,-333.62 398.92,-337.33 366,-341 361.99,-341.45 214.33,-345.73 155,-344 151.47,-343.9 147.87,-343.77 144.23,-343.62"/>
<polygon fill="black" stroke="black" points="144.05,-340.11 133.91,-343.17 143.74,-347.11 144.05,-340.11"/>
<text text-anchor="middle" x="297" y="-347" font-family="Fira Mono Medium" font-size="10.00">not&#45;equal</text>
</g>
<!-- node_5&#45;&gt;node_4 -->
<g id="edge11" class="edge">
<title>node_5&#45;&gt;node_4</title>
<path fill="none" stroke="black" d="M467.83,-280.86C458.33,-278.02 448.48,-275.56 439,-274 418.83,-270.69 396.83,-270.28 376.34,-271.23"/>
<polygon fill="black" stroke="black" points="375.88,-267.75 366.1,-271.82 376.29,-274.74 375.88,-267.75"/>
<text text-anchor="middle" x="411.5" y="-277" font-family="Fira Mono Medium" font-size="10.00">not&#45;equal</text>
</g>
<!-- node_6 -->
<g id="node7" class="node">
<title>node_6</title>
<polygon fill="none" stroke="black" points="137,-167 0,-167 0,-123 137,-123 137,-167"/>
<text text-anchor="start" x="49.5" y="-154.4" font-family="Fira Mono Medium" font-weight="bold" font-size="12.00">human</text>
<text text-anchor="start" x="8" y="-142.4" font-family="Fira Mono Medium" font-style="italic" font-size="12.00">kind:</text>
<text text-anchor="start" x="46" y="-142.4" font-family="Fira Mono Medium" font-size="12.00"> missionary</text>
<text text-anchor="start" x="11.5" y="-130.4" font-family="Fira Mono Medium" font-style="italic" font-size="12.00">can&#45;drive:</text>
<text text-anchor="start" x="87.5" y="-130.4" font-family="Fira Mono Medium" font-size="12.00"> true</text>
</g>
<!-- node_6&#45;&gt;node_1 -->
<g id="edge15" class="edge">
<title>node_6&#45;&gt;node_1</title>
<path fill="none" stroke="black" d="M128.8,-167.07C137.5,-169.74 146.42,-172.16 155,-174 339.49,-213.56 562.06,-225.68 675.55,-229.38"/>
<polygon fill="black" stroke="black" points="675.75,-232.89 685.86,-229.7 675.97,-225.89 675.75,-232.89"/>
<text text-anchor="middle" x="411.5" y="-217" font-family="Fira Mono Medium" font-size="10.00">at</text>
</g>
<!-- node_7 -->
<g id="node8" class="node">
<title>node_7</title>
<polygon fill="none" stroke="black" points="365.5,-108 228.5,-108 228.5,-64 365.5,-64 365.5,-108"/>
<text text-anchor="start" x="278" y="-95.4" font-family="Fira Mono Medium" font-weight="bold" font-size="12.00">human</text>
<text text-anchor="start" x="236.5" y="-83.4" font-family="Fira Mono Medium" font-style="italic" font-size="12.00">kind:</text>
<text text-anchor="start" x="274.5" y="-83.4" font-family="Fira Mono Medium" font-size="12.00"> missionary</text>
<text text-anchor="start" x="240" y="-71.4" font-family="Fira Mono Medium" font-style="italic" font-size="12.00">can&#45;drive:</text>
<text text-anchor="start" x="316" y="-71.4" font-family="Fira Mono Medium" font-size="12.00"> true</text>
</g>
<!-- node_6&#45;&gt;node_7 -->
<g id="edge13" class="edge">
<title>node_6&#45;&gt;node_7</title>
<path fill="none" stroke="black" d="M137.09,-124.91C143.14,-123.21 149.17,-121.55 155,-120 175.49,-114.54 197.76,-108.99 218.42,-104"/>
<polygon fill="black" stroke="black" points="219.51,-107.34 228.42,-101.6 217.88,-100.53 219.51,-107.34"/>
<text text-anchor="middle" x="182.5" y="-123" font-family="Fira Mono Medium" font-size="10.00">not&#45;equal</text>
</g>
<!-- node_8 -->
<g id="node9" class="node">
<title>node_8</title>
<polygon fill="none" stroke="black" points="594.5,-168 457.5,-168 457.5,-124 594.5,-124 594.5,-168"/>
<text text-anchor="start" x="507" y="-155.4" font-family="Fira Mono Medium" font-weight="bold" font-size="12.00">human</text>
<text text-anchor="start" x="465.5" y="-143.4" font-family="Fira Mono Medium" font-style="italic" font-size="12.00">kind:</text>
<text text-anchor="start" x="503.5" y="-143.4" font-family="Fira Mono Medium" font-size="12.00"> missionary</text>
<text text-anchor="start" x="469" y="-131.4" font-family="Fira Mono Medium" font-style="italic" font-size="12.00">can&#45;drive:</text>
<text text-anchor="start" x="545" y="-131.4" font-family="Fira Mono Medium" font-size="12.00"> true</text>
</g>
<!-- node_6&#45;&gt;node_8 -->
<g id="edge14" class="edge">
<title>node_6&#45;&gt;node_8</title>
<path fill="none" stroke="black" d="M137.06,-157.01C143.11,-157.8 149.16,-158.48 155,-159 209.95,-163.85 359.28,-166.45 439,-160 441.66,-159.78 444.37,-159.53 447.1,-159.25"/>
<polygon fill="black" stroke="black" points="447.52,-162.72 457.06,-158.1 446.72,-155.77 447.52,-162.72"/>
<text text-anchor="middle" x="297" y="-166" font-family="Fira Mono Medium" font-size="10.00">not&#45;equal</text>
</g>
<!-- node_7&#45;&gt;node_0 -->
<g id="edge18" class="edge">
<title>node_7&#45;&gt;node_0</title>
<path fill="none" stroke="black" d="M346.22,-63.96C358.3,-59.43 371.42,-55.33 384,-53 406.91,-48.75 432.13,-49.96 454.82,-53.17"/>
<polygon fill="black" stroke="black" points="454.29,-56.63 464.71,-54.72 455.37,-49.72 454.29,-56.63"/>
<text text-anchor="middle" x="411.5" y="-56" font-family="Fira Mono Medium" font-size="10.00">at</text>
</g>
<!-- node_7&#45;&gt;node_6 -->
<g id="edge16" class="edge">
<title>node_7&#45;&gt;node_6</title>
<path fill="none" stroke="black" d="M228.45,-81.26C204.77,-81.46 178.29,-83.81 155,-91 137.05,-96.54 119.17,-106.88 104.43,-117.05"/>
<polygon fill="black" stroke="black" points="102.25,-114.31 96.15,-122.97 106.32,-120 102.25,-114.31"/>
<text text-anchor="middle" x="182.5" y="-94" font-family="Fira Mono Medium" font-size="10.00">not&#45;equal</text>
</g>
<!-- node_7&#45;&gt;node_8 -->
<g id="edge17" class="edge">
<title>node_7&#45;&gt;node_8</title>
<path fill="none" stroke="black" d="M365.56,-102.19C388.88,-107.94 415.13,-114.57 439,-121 441.82,-121.76 444.68,-122.54 447.57,-123.34"/>
<polygon fill="black" stroke="black" points="446.9,-126.78 457.47,-126.09 448.78,-120.04 446.9,-126.78"/>
<text text-anchor="middle" x="411.5" y="-124" font-family="Fira Mono Medium" font-size="10.00">not&#45;equal</text>
</g>
<!-- node_8&#45;&gt;node_1 -->
<g id="edge21" class="edge">
<title>node_8&#45;&gt;node_1</title>
<path fill="none" stroke="black" d="M584.72,-168C618.08,-180.71 659.88,-196.65 693.1,-209.31"/>
<polygon fill="black" stroke="black" points="692.08,-212.67 702.67,-212.96 694.57,-206.13 692.08,-212.67"/>
<text text-anchor="middle" x="640.5" y="-201" font-family="Fira Mono Medium" font-size="10.00">at</text>
</g>
<!-- node_8&#45;&gt;node_6 -->
<g id="edge19" class="edge">
<title>node_8&#45;&gt;node_6</title>
<path fill="none" stroke="black" d="M457.3,-145.85C374.46,-145.67 234.49,-145.36 147.3,-145.17"/>
<polygon fill="black" stroke="black" points="147.21,-141.67 137.2,-145.15 147.19,-148.67 147.21,-141.67"/>
<text text-anchor="middle" x="297" y="-148" font-family="Fira Mono Medium" font-size="10.00">not&#45;equal</text>
</g>
<!-- node_8&#45;&gt;node_7 -->
<g id="edge20" class="edge">
<title>node_8&#45;&gt;node_7</title>
<path fill="none" stroke="black" d="M498.62,-123.85C482.49,-111.72 460.83,-97.8 439,-91 419,-84.77 396.64,-82.14 375.71,-81.4"/>
<polygon fill="black" stroke="black" points="375.64,-77.9 365.57,-81.19 375.49,-84.9 375.64,-77.9"/>
<text text-anchor="middle" x="411.5" y="-94" font-family="Fira Mono Medium" font-size="10.00">not&#45;equal</text>
</g>
</g>
</svg>
