<?xml version="1.0" encoding="UTF-8" standalone="no"?>
<!DOCTYPE svg PUBLIC "-//W3C//DTD SVG 1.1//EN"
 "http://www.w3.org/Graphics/SVG/1.1/DTD/svg11.dtd">
<!-- Generated by graphviz version 2.43.0 (0)
 -->
<!-- Title: %3 Pages: 1 -->
<svg width="988pt" height="347pt"
 viewBox="0.00 0.00 988.00 347.00" xmlns="http://www.w3.org/2000/svg" xmlns:xlink="http://www.w3.org/1999/xlink">
<g id="graph0" class="graph" transform="scale(1 1) rotate(0) translate(4 343)">
<title>%3</title>
<polygon fill="white" stroke="transparent" points="-4,4 -4,-343 984,-343 984,4 -4,4"/>
<!-- node_0 -->
<g id="node1" class="node">
<title>node_0</title>
<polygon fill="none" stroke="black" points="759,-238 637,-238 637,-202 759,-202 759,-238"/>
<text text-anchor="start" x="682.5" y="-223.4" font-family="Fira Mono Medium" font-weight="bold" font-size="12.00">bank</text>
<text text-anchor="start" x="645" y="-211.4" font-family="Fira Mono Medium" font-style="italic" font-size="12.00">location:</text>
<text text-anchor="start" x="713" y="-211.4" font-family="Fira Mono Medium" font-size="12.00"> left</text>
</g>
<!-- node_1 -->
<g id="node2" class="node">
<title>node_1</title>
<polygon fill="none" stroke="black" points="980,-238 850,-238 850,-202 980,-202 980,-238"/>
<text text-anchor="start" x="899.5" y="-223.4" font-family="Fira Mono Medium" font-weight="bold" font-size="12.00">bank</text>
<text text-anchor="start" x="858" y="-211.4" font-family="Fira Mono Medium" font-style="italic" font-size="12.00">location:</text>
<text text-anchor="start" x="926" y="-211.4" font-family="Fira Mono Medium" font-size="12.00"> right</text>
</g>
<!-- node_0&#45;&gt;node_1 -->
<g id="edge1" class="edge">
<title>node_0&#45;&gt;node_1</title>
<path fill="none" stroke="black" d="M759.18,-220C784.07,-220 813.2,-220 839.43,-220"/>
<polygon fill="black" stroke="black" points="839.7,-223.5 849.7,-220 839.7,-216.5 839.7,-223.5"/>
<text text-anchor="middle" x="804.5" y="-223" font-family="Fira Mono Medium" font-size="10.00">not&#45;equal</text>
</g>
<!-- node_1&#45;&gt;node_0 -->
<g id="edge2" class="edge">
<title>node_1&#45;&gt;node_0</title>
<path fill="none" stroke="black" d="M849.69,-207.1C843.73,-206.25 837.77,-205.52 832,-205 807.66,-202.79 801.33,-202.68 777,-205 774.48,-205.24 771.92,-205.52 769.33,-205.84"/>
<polygon fill="black" stroke="black" points="768.73,-202.39 759.3,-207.23 769.69,-209.33 768.73,-202.39"/>
<text text-anchor="middle" x="804.5" y="-208" font-family="Fira Mono Medium" font-size="10.00">not&#45;equal</text>
</g>
<!-- node_2 -->
<g id="node3" class="node">
<title>node_2</title>
<polygon fill="none" stroke="black" points="546,-339 492,-339 492,-303 546,-303 546,-339"/>
<text text-anchor="start" x="503.5" y="-318.9" font-family="Fira Mono Medium" font-weight="bold" font-size="12.00">boat</text>
</g>
<!-- node_2&#45;&gt;node_0 -->
<g id="edge3" class="edge">
<title>node_2&#45;&gt;node_0</title>
<path fill="none" stroke="black" d="M546.02,-315.69C566.72,-310.76 595.94,-302.16 619,-289 639.33,-277.4 659.04,-259.89 673.56,-245.42"/>
<polygon fill="black" stroke="black" points="676.16,-247.76 680.66,-238.17 671.16,-242.86 676.16,-247.76"/>
<text text-anchor="middle" x="612.5" y="-298" font-family="Fira Mono Medium" font-size="10.00">at</text>
</g>
<!-- node_3 -->
<g id="node4" class="node">
<title>node_3</title>
<polygon fill="none" stroke="black" points="130,-207 0,-207 0,-163 130,-163 130,-207"/>
<text text-anchor="start" x="46" y="-194.4" font-family="Fira Mono Medium" font-weight="bold" font-size="12.00">human</text>
<text text-anchor="start" x="12" y="-182.4" font-family="Fira Mono Medium" font-style="italic" font-size="12.00">kind:</text>
<text text-anchor="start" x="50" y="-182.4" font-family="Fira Mono Medium" font-size="12.00"> cannibal</text>
<text text-anchor="start" x="8" y="-170.4" font-family="Fira Mono Medium" font-style="italic" font-size="12.00">can&#45;drive:</text>
<text text-anchor="start" x="84" y="-170.4" font-family="Fira Mono Medium" font-size="12.00"> true</text>
</g>
<!-- node_3&#45;&gt;node_0 -->
<g id="edge6" class="edge">
<title>node_3&#45;&gt;node_0</title>
<path fill="none" stroke="black" d="M111.53,-207.06C141.77,-220.36 182.78,-235.88 221,-242 363.85,-264.88 533.66,-246.23 626.93,-232.12"/>
<polygon fill="black" stroke="black" points="627.47,-235.58 636.82,-230.6 626.4,-228.66 627.47,-235.58"/>
<text text-anchor="middle" x="404.5" y="-255" font-family="Fira Mono Medium" font-size="10.00">at</text>
</g>
<!-- node_4 -->
<g id="node5" class="node">
<title>node_4</title>
<polygon fill="none" stroke="black" points="359,-233 221,-233 221,-189 359,-189 359,-233"/>
<text text-anchor="start" x="271" y="-220.4" font-family="Fira Mono Medium" font-weight="bold" font-size="12.00">human</text>
<text text-anchor="start" x="237" y="-208.4" font-family="Fira Mono Medium" font-style="italic" font-size="12.00">kind:</text>
<text text-anchor="start" x="275" y="-208.4" font-family="Fira Mono Medium" font-size="12.00"> cannibal</text>
<text text-anchor="start" x="229" y="-196.4" font-family="Fira Mono Medium" font-style="italic" font-size="12.00">can&#45;drive:</text>
<text text-anchor="start" x="305" y="-196.4" font-family="Fira Mono Medium" font-size="12.00"> false</text>
</g>
<!-- node_3&#45;&gt;node_4 -->
<g id="edge4" class="edge">
<title>node_3&#45;&gt;node_4</title>
<path fill="none" stroke="black" d="M130.42,-194.72C136.36,-195.52 142.29,-196.3 148,-197 168.26,-199.49 190.2,-201.83 210.6,-203.87"/>
<polygon fill="black" stroke="black" points="210.5,-207.37 220.8,-204.87 211.19,-200.41 210.5,-207.37"/>
<text text-anchor="middle" x="175.5" y="-206" font-family="Fira Mono Medium" font-size="10.00">not&#45;equal</text>
</g>
<!-- node_5 -->
<g id="node6" class="node">
<title>node_5</title>
<polygon fill="none" stroke="black" points="588,-199 450,-199 450,-155 588,-155 588,-199"/>
<text text-anchor="start" x="500" y="-186.4" font-family="Fira Mono Medium" font-weight="bold" font-size="12.00">human</text>
<text text-anchor="start" x="466" y="-174.4" font-family="Fira Mono Medium" font-style="italic" font-size="12.00">kind:</text>
<text text-anchor="start" x="504" y="-174.4" font-family="Fira Mono Medium" font-size="12.00"> cannibal</text>
<text text-anchor="start" x="458" y="-162.4" font-family="Fira Mono Medium" font-style="italic" font-size="12.00">can&#45;drive:</text>
<text text-anchor="start" x="534" y="-162.4" font-family="Fira Mono Medium" font-size="12.00"> false</text>
</g>
<!-- node_3&#45;&gt;node_5 -->
<g id="edge5" class="edge">
<title>node_3&#45;&gt;node_5</title>
<path fill="none" stroke="black" d="M130,-177.89C136.09,-177.24 142.16,-176.6 148,-176 273.64,-163.08 305.95,-157.97 432,-166 434.41,-166.15 436.85,-166.33 439.32,-166.53"/>
<polygon fill="black" stroke="black" points="439.27,-170.04 449.54,-167.45 439.89,-163.07 439.27,-170.04"/>
<text text-anchor="middle" x="290" y="-171" font-family="Fira Mono Medium" font-size="10.00">not&#45;equal</text>
</g>
<!-- node_4&#45;&gt;node_0 -->
<g id="edge9" class="edge">
<title>node_4&#45;&gt;node_0</title>
<path fill="none" stroke="black" d="M359.07,-212.59C365.13,-212.73 371.18,-212.87 377,-213 462.96,-214.94 561.9,-217.09 626.74,-218.49"/>
<polygon fill="black" stroke="black" points="626.77,-221.99 636.84,-218.71 626.92,-214.99 626.77,-221.99"/>
<text text-anchor="middle" x="519" y="-220" font-family="Fira Mono Medium" font-size="10.00">at</text>
</g>
<!-- node_4&#45;&gt;node_3 -->
<g id="edge7" class="edge">
<title>node_4&#45;&gt;node_3</title>
<path fill="none" stroke="black" d="M226.58,-188.99C218.73,-186.94 210.73,-185.19 203,-184 182.79,-180.9 160.7,-180 140.27,-180.16"/>
<polygon fill="black" stroke="black" points="140.02,-176.67 130.08,-180.33 140.14,-183.66 140.02,-176.67"/>
<text text-anchor="middle" x="175.5" y="-187" font-family="Fira Mono Medium" font-size="10.00">not&#45;equal</text>
</g>
<!-- node_4&#45;&gt;node_5 -->
<g id="edge8" class="edge">
<title>node_4&#45;&gt;node_5</title>
<path fill="none" stroke="black" d="M359.11,-200.8C384.58,-196.98 413.71,-192.62 440.01,-188.68"/>
<polygon fill="black" stroke="black" points="440.57,-192.14 449.94,-187.19 439.53,-185.21 440.57,-192.14"/>
<text text-anchor="middle" x="404.5" y="-201" font-family="Fira Mono Medium" font-size="10.00">not&#45;equal</text>
</g>
<!-- node_5&#45;&gt;node_0 -->
<g id="edge12" class="edge">
<title>node_5&#45;&gt;node_0</title>
<path fill="none" stroke="black" d="M588.18,-193.56C600.86,-196.64 614.13,-199.87 626.86,-202.96"/>
<polygon fill="black" stroke="black" points="626.4,-206.45 636.94,-205.41 628.05,-199.65 626.4,-206.45"/>
<text text-anchor="middle" x="612.5" y="-202" font-family="Fira Mono Medium" font-size="10.00">at</text>
</g>
<!-- node_5&#45;&gt;node_3 -->
<g id="edge10" class="edge">
<title>node_5&#45;&gt;node_3</title>
<path fill="none" stroke="black" d="M449.99,-162.48C443.91,-161.27 437.85,-160.09 432,-159 339.67,-141.76 314.25,-135.74 221,-147 194.29,-150.23 165.54,-156.47 140.14,-162.98"/>
<polygon fill="black" stroke="black" points="139,-159.66 130.22,-165.58 140.78,-166.44 139,-159.66"/>
<text text-anchor="middle" x="290" y="-150" font-family="Fira Mono Medium" font-size="10.00">not&#45;equal</text>
</g>
<!-- node_5&#45;&gt;node_4 -->
<g id="edge11" class="edge">
<title>node_5&#45;&gt;node_4</title>
<path fill="none" stroke="black" d="M449.72,-171.05C426.46,-170.47 400.42,-171.42 377,-176 366.57,-178.04 355.81,-181.35 345.58,-185.14"/>
<polygon fill="black" stroke="black" points="344,-182 335.96,-188.9 346.55,-188.52 344,-182"/>
<text text-anchor="middle" x="404.5" y="-179" font-family="Fira Mono Medium" font-size="10.00">not&#45;equal</text>
</g>
<!-- node_6 -->
<g id="node7" class="node">
<title>node_6</title>
<polygon fill="none" stroke="black" points="358.5,-69 221.5,-69 221.5,-25 358.5,-25 358.5,-69"/>
<text text-anchor="start" x="271" y="-56.4" font-family="Fira Mono Medium" font-weight="bold" font-size="12.00">human</text>
<text text-anchor="start" x="229.5" y="-44.4" font-family="Fira Mono Medium" font-style="italic" font-size="12.00">kind:</text>
<text text-anchor="start" x="267.5" y="-44.4" font-family="Fira Mono Medium" font-size="12.00"> missionary</text>
<text text-anchor="start" x="233" y="-32.4" font-family="Fira Mono Medium" font-style="italic" font-size="12.00">can&#45;drive:</text>
<text text-anchor="start" x="309" y="-32.4" font-family="Fira Mono Medium" font-size="12.00"> true</text>
</g>
<!-- node_6&#45;&gt;node_0 -->
<g id="edge14" class="edge">
<title>node_6&#45;&gt;node_0</title>
<path fill="none" stroke="black" d="M358.6,-59.48C420.64,-72.65 513.88,-96.86 588,-135 619.03,-150.97 649.98,-176.22 670.93,-195.06"/>
<polygon fill="black" stroke="black" points="668.7,-197.77 678.44,-201.93 673.43,-192.6 668.7,-197.77"/>
<text text-anchor="middle" x="519" y="-138" font-family="Fira Mono Medium" font-size="10.00">at</text>
</g>
<!-- node_7 -->
<g id="node8" class="node">
<title>node_7</title>
<polygon fill="none" stroke="black" points="587.5,-44 450.5,-44 450.5,0 587.5,0 587.5,-44"/>
<text text-anchor="start" x="500" y="-31.4" font-family="Fira Mono Medium" font-weight="bold" font-size="12.00">human</text>
<text text-anchor="start" x="458.5" y="-19.4" font-family="Fira Mono Medium" font-style="italic" font-size="12.00">kind:</text>
<text text-anchor="start" x="496.5" y="-19.4" font-family="Fira Mono Medium" font-size="12.00"> missionary</text>
<text text-anchor="start" x="462" y="-7.4" font-family="Fira Mono Medium" font-style="italic" font-size="12.00">can&#45;drive:</text>
<text text-anchor="start" x="538" y="-7.4" font-family="Fira Mono Medium" font-size="12.00"> true</text>
</g>
<!-- node_6&#45;&gt;node_7 -->
<g id="edge13" class="edge">
<title>node_6&#45;&gt;node_7</title>
<path fill="none" stroke="black" d="M358.8,-39.53C384.4,-36.71 413.73,-33.48 440.18,-30.57"/>
<polygon fill="black" stroke="black" points="440.6,-34.05 450.16,-29.47 439.83,-27.09 440.6,-34.05"/>
<text text-anchor="middle" x="404.5" y="-41" font-family="Fira Mono Medium" font-size="10.00">not&#45;equal</text>
</g>
<!-- node_7&#45;&gt;node_0 -->
<g id="edge16" class="edge">
<title>node_7&#45;&gt;node_0</title>
<path fill="none" stroke="black" d="M587.61,-36.34C598.97,-40.94 609.99,-47.01 619,-55 660.43,-91.74 681.64,-155.2 690.94,-191.79"/>
<polygon fill="black" stroke="black" points="687.6,-192.89 693.35,-201.79 694.4,-191.25 687.6,-192.89"/>
<text text-anchor="middle" x="612.5" y="-58" font-family="Fira Mono Medium" font-size="10.00">at</text>
</g>
<!-- node_7&#45;&gt;node_6 -->
<g id="edge15" class="edge">
<title>node_7&#45;&gt;node_6</title>
<path fill="none" stroke="black" d="M450.21,-14.06C426.88,-12.78 400.67,-12.99 377,-17 369.82,-18.22 362.44,-19.97 355.16,-22.02"/>
<polygon fill="black" stroke="black" points="353.89,-18.74 345.33,-24.98 355.92,-25.45 353.89,-18.74"/>
<text text-anchor="middle" x="404.5" y="-20" font-family="Fira Mono Medium" font-size="10.00">not&#45;equal</text>
</g>
</g>
</svg>
