<?xml version="1.0" encoding="UTF-8" standalone="no"?>
<!DOCTYPE svg PUBLIC "-//W3C//DTD SVG 1.1//EN"
 "http://www.w3.org/Graphics/SVG/1.1/DTD/svg11.dtd">
<!-- Generated by graphviz version 2.43.0 (0)
 -->
<!-- Title: %3 Pages: 1 -->
<svg width="988pt" height="308pt"
 viewBox="0.00 0.00 988.00 307.94" xmlns="http://www.w3.org/2000/svg" xmlns:xlink="http://www.w3.org/1999/xlink">
<g id="graph0" class="graph" transform="scale(1 1) rotate(0) translate(4 303.94)">
<title>%3</title>
<polygon fill="white" stroke="transparent" points="-4,4 -4,-303.94 984,-303.94 984,4 -4,4"/>
<!-- node_0 -->
<g id="node1" class="node">
<title>node_0</title>
<polygon fill="none" stroke="black" points="759,-158.94 637,-158.94 637,-122.94 759,-122.94 759,-158.94"/>
<text text-anchor="start" x="682.5" y="-144.34" font-family="Fira Mono Medium" font-weight="bold" font-size="12.00">bank</text>
<text text-anchor="start" x="645" y="-132.34" font-family="Fira Mono Medium" font-style="italic" font-size="12.00">location:</text>
<text text-anchor="start" x="713" y="-132.34" font-family="Fira Mono Medium" font-size="12.00"> left</text>
</g>
<!-- node_1 -->
<g id="node2" class="node">
<title>node_1</title>
<polygon fill="none" stroke="black" points="980,-230.94 850,-230.94 850,-194.94 980,-194.94 980,-230.94"/>
<text text-anchor="start" x="899.5" y="-216.34" font-family="Fira Mono Medium" font-weight="bold" font-size="12.00">bank</text>
<text text-anchor="start" x="858" y="-204.34" font-family="Fira Mono Medium" font-style="italic" font-size="12.00">location:</text>
<text text-anchor="start" x="926" y="-204.34" font-family="Fira Mono Medium" font-size="12.00"> right</text>
</g>
<!-- node_0&#45;&gt;node_1 -->
<g id="edge1" class="edge">
<title>node_0&#45;&gt;node_1</title>
<path fill="none" stroke="black" d="M752.98,-159.01C782.5,-168.9 819.24,-181.2 850.18,-191.56"/>
<polygon fill="black" stroke="black" points="849.41,-195 860,-194.85 851.63,-188.36 849.41,-195"/>
<text text-anchor="middle" x="804.5" y="-185.94" font-family="Fira Mono Medium" font-size="10.00">not&#45;equal</text>
</g>
<!-- node_1&#45;&gt;node_0 -->
<g id="edge2" class="edge">
<title>node_1&#45;&gt;node_0</title>
<path fill="none" stroke="black" d="M895.57,-194.83C880.02,-180.77 856.43,-162.15 832,-152.94 812.33,-145.51 789.92,-141.84 769.16,-140.2"/>
<polygon fill="black" stroke="black" points="769.33,-136.7 759.13,-139.55 768.88,-143.69 769.33,-136.7"/>
<text text-anchor="middle" x="804.5" y="-155.94" font-family="Fira Mono Medium" font-size="10.00">not&#45;equal</text>
</g>
<!-- node_2 -->
<g id="node3" class="node">
<title>node_2</title>
<polygon fill="none" stroke="black" points="725,-299.94 671,-299.94 671,-263.94 725,-263.94 725,-299.94"/>
<text text-anchor="start" x="682.5" y="-279.84" font-family="Fira Mono Medium" font-weight="bold" font-size="12.00">boat</text>
</g>
<!-- node_2&#45;&gt;node_1 -->
<g id="edge3" class="edge">
<title>node_2&#45;&gt;node_1</title>
<path fill="none" stroke="black" d="M725.16,-277.15C752.28,-271.85 795.71,-262.36 832,-249.94 844.13,-245.78 856.9,-240.49 868.67,-235.22"/>
<polygon fill="black" stroke="black" points="870.22,-238.36 877.86,-231.01 867.31,-231.99 870.22,-238.36"/>
<text text-anchor="middle" x="804.5" y="-267.94" font-family="Fira Mono Medium" font-size="10.00">at</text>
</g>
<!-- node_3 -->
<g id="node4" class="node">
<title>node_3</title>
<polygon fill="none" stroke="black" points="130,-58.94 0,-58.94 0,-14.94 130,-14.94 130,-58.94"/>
<text text-anchor="start" x="46" y="-46.34" font-family="Fira Mono Medium" font-weight="bold" font-size="12.00">human</text>
<text text-anchor="start" x="12" y="-34.34" font-family="Fira Mono Medium" font-style="italic" font-size="12.00">kind:</text>
<text text-anchor="start" x="50" y="-34.34" font-family="Fira Mono Medium" font-size="12.00"> cannibal</text>
<text text-anchor="start" x="8" y="-22.34" font-family="Fira Mono Medium" font-style="italic" font-size="12.00">can&#45;drive:</text>
<text text-anchor="start" x="84" y="-22.34" font-family="Fira Mono Medium" font-size="12.00"> true</text>
</g>
<!-- node_3&#45;&gt;node_0 -->
<g id="edge6" class="edge">
<title>node_3&#45;&gt;node_0</title>
<path fill="none" stroke="black" d="M108.51,-59.09C138.97,-73.88 181.45,-92.32 221,-101.94 361.95,-136.21 532.54,-141.85 626.45,-141.99"/>
<polygon fill="black" stroke="black" points="626.68,-145.49 636.68,-141.98 626.68,-138.49 626.68,-145.49"/>
<text text-anchor="middle" x="404.5" y="-135.94" font-family="Fira Mono Medium" font-size="10.00">at</text>
</g>
<!-- node_4 -->
<g id="node5" class="node">
<title>node_4</title>
<polygon fill="none" stroke="black" points="359,-92.94 221,-92.94 221,-48.94 359,-48.94 359,-92.94"/>
<text text-anchor="start" x="271" y="-80.34" font-family="Fira Mono Medium" font-weight="bold" font-size="12.00">human</text>
<text text-anchor="start" x="237" y="-68.34" font-family="Fira Mono Medium" font-style="italic" font-size="12.00">kind:</text>
<text text-anchor="start" x="275" y="-68.34" font-family="Fira Mono Medium" font-size="12.00"> cannibal</text>
<text text-anchor="start" x="229" y="-56.34" font-family="Fira Mono Medium" font-style="italic" font-size="12.00">can&#45;drive:</text>
<text text-anchor="start" x="305" y="-56.34" font-family="Fira Mono Medium" font-size="12.00"> false</text>
</g>
<!-- node_3&#45;&gt;node_4 -->
<g id="edge4" class="edge">
<title>node_3&#45;&gt;node_4</title>
<path fill="none" stroke="black" d="M130.2,-46.72C155.42,-50.57 184.59,-55.02 211,-59.04"/>
<polygon fill="black" stroke="black" points="210.56,-62.52 220.98,-60.56 211.62,-55.6 210.56,-62.52"/>
<text text-anchor="middle" x="175.5" y="-59.94" font-family="Fira Mono Medium" font-size="10.00">not&#45;equal</text>
</g>
<!-- node_5 -->
<g id="node6" class="node">
<title>node_5</title>
<polygon fill="none" stroke="black" points="588,-58.94 450,-58.94 450,-14.94 588,-14.94 588,-58.94"/>
<text text-anchor="start" x="500" y="-46.34" font-family="Fira Mono Medium" font-weight="bold" font-size="12.00">human</text>
<text text-anchor="start" x="466" y="-34.34" font-family="Fira Mono Medium" font-style="italic" font-size="12.00">kind:</text>
<text text-anchor="start" x="504" y="-34.34" font-family="Fira Mono Medium" font-size="12.00"> cannibal</text>
<text text-anchor="start" x="458" y="-22.34" font-family="Fira Mono Medium" font-style="italic" font-size="12.00">can&#45;drive:</text>
<text text-anchor="start" x="534" y="-22.34" font-family="Fira Mono Medium" font-size="12.00"> false</text>
</g>
<!-- node_3&#45;&gt;node_5 -->
<g id="edge5" class="edge">
<title>node_3&#45;&gt;node_5</title>
<path fill="none" stroke="black" d="M130.39,-28.36C136.34,-27.79 142.27,-27.3 148,-26.94 273.97,-19.01 306.03,-17.91 432,-25.94 434.41,-26.09 436.85,-26.27 439.32,-26.46"/>
<polygon fill="black" stroke="black" points="439.27,-29.97 449.54,-27.38 439.89,-23 439.27,-29.97"/>
<text text-anchor="middle" x="290" y="-24.94" font-family="Fira Mono Medium" font-size="10.00">not&#45;equal</text>
</g>
<!-- node_4&#45;&gt;node_0 -->
<g id="edge9" class="edge">
<title>node_4&#45;&gt;node_0</title>
<path fill="none" stroke="black" d="M359.26,-77.49C419.74,-83.92 510.26,-95.08 588,-110.94 600.8,-113.55 614.3,-116.83 627.29,-120.25"/>
<polygon fill="black" stroke="black" points="626.53,-123.67 637.1,-122.89 628.35,-116.91 626.53,-123.67"/>
<text text-anchor="middle" x="519" y="-113.94" font-family="Fira Mono Medium" font-size="10.00">at</text>
</g>
<!-- node_4&#45;&gt;node_3 -->
<g id="edge7" class="edge">
<title>node_4&#45;&gt;node_3</title>
<path fill="none" stroke="black" d="M244.04,-48.84C231.1,-43.53 216.76,-38.63 203,-35.94 182.93,-32.01 160.89,-30.83 140.47,-31"/>
<polygon fill="black" stroke="black" points="140.2,-27.51 130.27,-31.2 140.33,-34.5 140.2,-27.51"/>
<text text-anchor="middle" x="175.5" y="-38.94" font-family="Fira Mono Medium" font-size="10.00">not&#45;equal</text>
</g>
<!-- node_4&#45;&gt;node_5 -->
<g id="edge8" class="edge">
<title>node_4&#45;&gt;node_5</title>
<path fill="none" stroke="black" d="M359.11,-60.73C384.58,-56.92 413.71,-52.56 440.01,-48.62"/>
<polygon fill="black" stroke="black" points="440.57,-52.07 449.94,-47.13 439.53,-45.15 440.57,-52.07"/>
<text text-anchor="middle" x="404.5" y="-60.94" font-family="Fira Mono Medium" font-size="10.00">not&#45;equal</text>
</g>
<!-- node_5&#45;&gt;node_0 -->
<g id="edge12" class="edge">
<title>node_5&#45;&gt;node_0</title>
<path fill="none" stroke="black" d="M588.13,-57.1C598.78,-61.35 609.42,-66.29 619,-71.94 639.17,-83.81 658.88,-101.31 673.44,-115.72"/>
<polygon fill="black" stroke="black" points="671.05,-118.28 680.57,-122.93 676.03,-113.35 671.05,-118.28"/>
<text text-anchor="middle" x="612.5" y="-74.94" font-family="Fira Mono Medium" font-size="10.00">at</text>
</g>
<!-- node_5&#45;&gt;node_3 -->
<g id="edge10" class="edge">
<title>node_5&#45;&gt;node_3</title>
<path fill="none" stroke="black" d="M449.99,-21.64C443.91,-20.35 437.85,-19.1 432,-17.94 339.86,0.44 314.53,3.95 221,-4.94 188.11,-8.06 180.36,-12.28 148,-18.94 145.5,-19.45 142.96,-19.98 140.4,-20.51"/>
<polygon fill="black" stroke="black" points="139.48,-17.13 130.42,-22.62 140.93,-23.98 139.48,-17.13"/>
<text text-anchor="middle" x="290" y="-7.94" font-family="Fira Mono Medium" font-size="10.00">not&#45;equal</text>
</g>
<!-- node_5&#45;&gt;node_4 -->
<g id="edge11" class="edge">
<title>node_5&#45;&gt;node_4</title>
<path fill="none" stroke="black" d="M449.72,-30.99C426.46,-30.4 400.42,-31.35 377,-35.94 366.57,-37.98 355.81,-41.29 345.58,-45.08"/>
<polygon fill="black" stroke="black" points="344,-41.94 335.96,-48.84 346.55,-48.46 344,-41.94"/>
<text text-anchor="middle" x="404.5" y="-38.94" font-family="Fira Mono Medium" font-size="10.00">not&#45;equal</text>
</g>
<!-- node_6 -->
<g id="node7" class="node">
<title>node_6</title>
<polygon fill="none" stroke="black" points="358.5,-231.94 221.5,-231.94 221.5,-187.94 358.5,-187.94 358.5,-231.94"/>
<text text-anchor="start" x="271" y="-219.34" font-family="Fira Mono Medium" font-weight="bold" font-size="12.00">human</text>
<text text-anchor="start" x="229.5" y="-207.34" font-family="Fira Mono Medium" font-style="italic" font-size="12.00">kind:</text>
<text text-anchor="start" x="267.5" y="-207.34" font-family="Fira Mono Medium" font-size="12.00"> missionary</text>
<text text-anchor="start" x="233" y="-195.34" font-family="Fira Mono Medium" font-style="italic" font-size="12.00">can&#45;drive:</text>
<text text-anchor="start" x="309" y="-195.34" font-family="Fira Mono Medium" font-size="12.00"> true</text>
</g>
<!-- node_6&#45;&gt;node_1 -->
<g id="edge14" class="edge">
<title>node_6&#45;&gt;node_1</title>
<path fill="none" stroke="black" d="M358.59,-214.06C364.81,-214.38 371.02,-214.68 377,-214.94 409.43,-216.32 417.55,-216.49 450,-216.94 587.62,-218.82 748.21,-216.41 839.82,-214.59"/>
<polygon fill="black" stroke="black" points="839.9,-218.09 849.82,-214.39 839.75,-211.1 839.9,-218.09"/>
<text text-anchor="middle" x="612.5" y="-219.94" font-family="Fira Mono Medium" font-size="10.00">at</text>
</g>
<!-- node_7 -->
<g id="node8" class="node">
<title>node_7</title>
<polygon fill="none" stroke="black" points="587.5,-207.94 450.5,-207.94 450.5,-163.94 587.5,-163.94 587.5,-207.94"/>
<text text-anchor="start" x="500" y="-195.34" font-family="Fira Mono Medium" font-weight="bold" font-size="12.00">human</text>
<text text-anchor="start" x="458.5" y="-183.34" font-family="Fira Mono Medium" font-style="italic" font-size="12.00">kind:</text>
<text text-anchor="start" x="496.5" y="-183.34" font-family="Fira Mono Medium" font-size="12.00"> missionary</text>
<text text-anchor="start" x="462" y="-171.34" font-family="Fira Mono Medium" font-style="italic" font-size="12.00">can&#45;drive:</text>
<text text-anchor="start" x="538" y="-171.34" font-family="Fira Mono Medium" font-size="12.00"> true</text>
</g>
<!-- node_6&#45;&gt;node_7 -->
<g id="edge13" class="edge">
<title>node_6&#45;&gt;node_7</title>
<path fill="none" stroke="black" d="M358.8,-202.77C384.4,-200.06 413.73,-196.96 440.18,-194.16"/>
<polygon fill="black" stroke="black" points="440.58,-197.64 450.16,-193.11 439.84,-190.68 440.58,-197.64"/>
<text text-anchor="middle" x="404.5" y="-202.94" font-family="Fira Mono Medium" font-size="10.00">not&#45;equal</text>
</g>
<!-- node_7&#45;&gt;node_0 -->
<g id="edge16" class="edge">
<title>node_7&#45;&gt;node_0</title>
<path fill="none" stroke="black" d="M587.67,-168.73C600.58,-165.45 614.12,-162.01 627.1,-158.71"/>
<polygon fill="black" stroke="black" points="628.06,-162.07 636.89,-156.22 626.34,-155.29 628.06,-162.07"/>
<text text-anchor="middle" x="612.5" y="-165.94" font-family="Fira Mono Medium" font-size="10.00">at</text>
</g>
<!-- node_7&#45;&gt;node_6 -->
<g id="edge15" class="edge">
<title>node_7&#45;&gt;node_6</title>
<path fill="none" stroke="black" d="M450.22,-177.32C426.89,-175.86 400.67,-175.93 377,-179.94 369.82,-181.15 362.44,-182.9 355.16,-184.95"/>
<polygon fill="black" stroke="black" points="353.89,-181.68 345.33,-187.92 355.92,-188.38 353.89,-181.68"/>
<text text-anchor="middle" x="404.5" y="-182.94" font-family="Fira Mono Medium" font-size="10.00">not&#45;equal</text>
</g>
</g>
</svg>
