<?xml version="1.0" encoding="UTF-8" standalone="no"?>
<!DOCTYPE svg PUBLIC "-//W3C//DTD SVG 1.1//EN"
 "http://www.w3.org/Graphics/SVG/1.1/DTD/svg11.dtd">
<!-- Generated by graphviz version 2.43.0 (0)
 -->
<!-- Title: %3 Pages: 1 -->
<svg width="1045pt" height="292pt"
 viewBox="0.00 0.00 1045.00 292.00" xmlns="http://www.w3.org/2000/svg" xmlns:xlink="http://www.w3.org/1999/xlink">
<g id="graph0" class="graph" transform="scale(1 1) rotate(0) translate(4 288)">
<title>%3</title>
<polygon fill="white" stroke="transparent" points="-4,4 -4,-288 1041,-288 1041,4 -4,4"/>
<!-- node_0 -->
<g id="node1" class="node">
<title>node_0</title>
<polygon fill="none" stroke="black" points="808.5,-145 686.5,-145 686.5,-109 808.5,-109 808.5,-145"/>
<text text-anchor="start" x="732" y="-130.4" font-family="Fira Mono Medium" font-weight="bold" font-size="12.00">bank</text>
<text text-anchor="start" x="694.5" y="-118.4" font-family="Fira Mono Medium" font-style="italic" font-size="12.00">location:</text>
<text text-anchor="start" x="762.5" y="-118.4" font-family="Fira Mono Medium" font-size="12.00"> left</text>
</g>
<!-- node_1 -->
<g id="node2" class="node">
<title>node_1</title>
<polygon fill="none" stroke="black" points="1037,-166 907,-166 907,-130 1037,-130 1037,-166"/>
<text text-anchor="start" x="956.5" y="-151.4" font-family="Fira Mono Medium" font-weight="bold" font-size="12.00">bank</text>
<text text-anchor="start" x="915" y="-139.4" font-family="Fira Mono Medium" font-style="italic" font-size="12.00">location:</text>
<text text-anchor="start" x="983" y="-139.4" font-family="Fira Mono Medium" font-size="12.00"> right</text>
</g>
<!-- node_0&#45;&gt;node_1 -->
<g id="edge1" class="edge">
<title>node_0&#45;&gt;node_1</title>
<path fill="none" stroke="black" d="M808.71,-132.68C835.88,-135.25 868.24,-138.3 896.88,-141"/>
<polygon fill="black" stroke="black" points="896.56,-144.49 906.84,-141.94 897.22,-137.52 896.56,-144.49"/>
<text text-anchor="middle" x="861.5" y="-142" font-family="Fira Mono Medium" font-size="10.00">not&#45;equal</text>
</g>
<!-- node_1&#45;&gt;node_0 -->
<g id="edge2" class="edge">
<title>node_1&#45;&gt;node_0</title>
<path fill="none" stroke="black" d="M926.57,-129.87C914.58,-125.8 901.47,-122.07 889,-120 866.33,-116.24 841.35,-116.18 818.81,-117.63"/>
<polygon fill="black" stroke="black" points="818.36,-114.15 808.64,-118.38 818.88,-121.13 818.36,-114.15"/>
<text text-anchor="middle" x="861.5" y="-123" font-family="Fira Mono Medium" font-size="10.00">not&#45;equal</text>
</g>
<!-- node_2 -->
<g id="node3" class="node">
<title>node_2</title>
<polygon fill="none" stroke="black" points="774.5,-284 720.5,-284 720.5,-248 774.5,-248 774.5,-284"/>
<text text-anchor="start" x="732" y="-263.9" font-family="Fira Mono Medium" font-weight="bold" font-size="12.00">boat</text>
</g>
<!-- node_2&#45;&gt;node_1 -->
<g id="edge3" class="edge">
<title>node_2&#45;&gt;node_1</title>
<path fill="none" stroke="black" d="M774.73,-264.54C804.24,-261.92 852.78,-254.57 889,-234 914.94,-219.27 937.74,-193.74 952.67,-174.31"/>
<polygon fill="black" stroke="black" points="955.59,-176.25 958.76,-166.14 949.98,-172.06 955.59,-176.25"/>
<text text-anchor="middle" x="861.5" y="-257" font-family="Fira Mono Medium" font-size="10.00">at</text>
</g>
<!-- node_3 -->
<g id="node4" class="node">
<title>node_3</title>
<polygon fill="none" stroke="black" points="130,-136 0,-136 0,-92 130,-92 130,-136"/>
<text text-anchor="start" x="46" y="-123.4" font-family="Fira Mono Medium" font-weight="bold" font-size="12.00">human</text>
<text text-anchor="start" x="12" y="-111.4" font-family="Fira Mono Medium" font-style="italic" font-size="12.00">kind:</text>
<text text-anchor="start" x="50" y="-111.4" font-family="Fira Mono Medium" font-size="12.00"> cannibal</text>
<text text-anchor="start" x="8" y="-99.4" font-family="Fira Mono Medium" font-style="italic" font-size="12.00">can&#45;drive:</text>
<text text-anchor="start" x="84" y="-99.4" font-family="Fira Mono Medium" font-size="12.00"> true</text>
</g>
<!-- node_3&#45;&gt;node_1 -->
<g id="edge6" class="edge">
<title>node_3&#45;&gt;node_1</title>
<path fill="none" stroke="black" d="M92.56,-136.22C132.5,-167.3 211.63,-220 289,-220 289,-220 289,-220 748.5,-220 813.56,-220 884.35,-191.79 928.2,-170.69"/>
<polygon fill="black" stroke="black" points="929.97,-173.72 937.41,-166.17 926.89,-167.43 929.97,-173.72"/>
<text text-anchor="middle" x="519" y="-223" font-family="Fira Mono Medium" font-size="10.00">at</text>
</g>
<!-- node_4 -->
<g id="node5" class="node">
<title>node_4</title>
<polygon fill="none" stroke="black" points="359,-170 221,-170 221,-126 359,-126 359,-170"/>
<text text-anchor="start" x="271" y="-157.4" font-family="Fira Mono Medium" font-weight="bold" font-size="12.00">human</text>
<text text-anchor="start" x="237" y="-145.4" font-family="Fira Mono Medium" font-style="italic" font-size="12.00">kind:</text>
<text text-anchor="start" x="275" y="-145.4" font-family="Fira Mono Medium" font-size="12.00"> cannibal</text>
<text text-anchor="start" x="229" y="-133.4" font-family="Fira Mono Medium" font-style="italic" font-size="12.00">can&#45;drive:</text>
<text text-anchor="start" x="305" y="-133.4" font-family="Fira Mono Medium" font-size="12.00"> false</text>
</g>
<!-- node_3&#45;&gt;node_4 -->
<g id="edge4" class="edge">
<title>node_3&#45;&gt;node_4</title>
<path fill="none" stroke="black" d="M130.2,-123.79C155.42,-127.63 184.59,-132.08 211,-136.11"/>
<polygon fill="black" stroke="black" points="210.56,-139.58 220.98,-137.63 211.62,-132.66 210.56,-139.58"/>
<text text-anchor="middle" x="175.5" y="-137" font-family="Fira Mono Medium" font-size="10.00">not&#45;equal</text>
</g>
<!-- node_5 -->
<g id="node6" class="node">
<title>node_5</title>
<polygon fill="none" stroke="black" points="588,-136 450,-136 450,-92 588,-92 588,-136"/>
<text text-anchor="start" x="500" y="-123.4" font-family="Fira Mono Medium" font-weight="bold" font-size="12.00">human</text>
<text text-anchor="start" x="466" y="-111.4" font-family="Fira Mono Medium" font-style="italic" font-size="12.00">kind:</text>
<text text-anchor="start" x="504" y="-111.4" font-family="Fira Mono Medium" font-size="12.00"> cannibal</text>
<text text-anchor="start" x="458" y="-99.4" font-family="Fira Mono Medium" font-style="italic" font-size="12.00">can&#45;drive:</text>
<text text-anchor="start" x="534" y="-99.4" font-family="Fira Mono Medium" font-size="12.00"> false</text>
</g>
<!-- node_3&#45;&gt;node_5 -->
<g id="edge5" class="edge">
<title>node_3&#45;&gt;node_5</title>
<path fill="none" stroke="black" d="M130.39,-105.43C136.34,-104.85 142.27,-104.36 148,-104 273.97,-96.07 306.03,-94.98 432,-103 434.41,-103.15 436.85,-103.33 439.32,-103.53"/>
<polygon fill="black" stroke="black" points="439.27,-107.04 449.54,-104.45 439.89,-100.07 439.27,-107.04"/>
<text text-anchor="middle" x="290" y="-102" font-family="Fira Mono Medium" font-size="10.00">not&#45;equal</text>
</g>
<!-- node_4&#45;&gt;node_1 -->
<g id="edge9" class="edge">
<title>node_4&#45;&gt;node_1</title>
<path fill="none" stroke="black" d="M359.07,-149.65C365.13,-149.77 371.18,-149.89 377,-150 604.52,-154.15 661.59,-162.31 889,-154 891.41,-153.91 893.85,-153.81 896.32,-153.7"/>
<polygon fill="black" stroke="black" points="896.76,-157.18 906.57,-153.16 896.4,-150.19 896.76,-157.18"/>
<text text-anchor="middle" x="633.5" y="-160" font-family="Fira Mono Medium" font-size="10.00">at</text>
</g>
<!-- node_4&#45;&gt;node_3 -->
<g id="edge7" class="edge">
<title>node_4&#45;&gt;node_3</title>
<path fill="none" stroke="black" d="M244.04,-125.9C231.1,-120.6 216.76,-115.69 203,-113 182.93,-109.07 160.89,-107.9 140.47,-108.07"/>
<polygon fill="black" stroke="black" points="140.2,-104.57 130.27,-108.26 140.33,-111.57 140.2,-104.57"/>
<text text-anchor="middle" x="175.5" y="-116" font-family="Fira Mono Medium" font-size="10.00">not&#45;equal</text>
</g>
<!-- node_4&#45;&gt;node_5 -->
<g id="edge8" class="edge">
<title>node_4&#45;&gt;node_5</title>
<path fill="none" stroke="black" d="M359.11,-137.8C384.58,-133.98 413.71,-129.62 440.01,-125.68"/>
<polygon fill="black" stroke="black" points="440.57,-129.14 449.94,-124.19 439.53,-122.21 440.57,-129.14"/>
<text text-anchor="middle" x="404.5" y="-138" font-family="Fira Mono Medium" font-size="10.00">not&#45;equal</text>
</g>
<!-- node_5&#45;&gt;node_0 -->
<g id="edge12" class="edge">
<title>node_5&#45;&gt;node_0</title>
<path fill="none" stroke="black" d="M588.26,-117.92C616.11,-119.52 648.28,-121.36 676.32,-122.97"/>
<polygon fill="black" stroke="black" points="676.26,-126.47 686.44,-123.55 676.66,-119.49 676.26,-126.47"/>
<text text-anchor="middle" x="633.5" y="-125" font-family="Fira Mono Medium" font-size="10.00">at</text>
</g>
<!-- node_5&#45;&gt;node_3 -->
<g id="edge10" class="edge">
<title>node_5&#45;&gt;node_3</title>
<path fill="none" stroke="black" d="M449.99,-98.7C443.91,-97.42 437.85,-96.17 432,-95 339.86,-76.63 314.53,-73.11 221,-82 188.11,-85.13 180.36,-89.35 148,-96 145.5,-96.51 142.96,-97.04 140.4,-97.58"/>
<polygon fill="black" stroke="black" points="139.48,-94.19 130.42,-99.69 140.93,-101.04 139.48,-94.19"/>
<text text-anchor="middle" x="290" y="-85" font-family="Fira Mono Medium" font-size="10.00">not&#45;equal</text>
</g>
<!-- node_5&#45;&gt;node_4 -->
<g id="edge11" class="edge">
<title>node_5&#45;&gt;node_4</title>
<path fill="none" stroke="black" d="M449.72,-108.05C426.46,-107.47 400.42,-108.42 377,-113 366.57,-115.04 355.81,-118.35 345.58,-122.14"/>
<polygon fill="black" stroke="black" points="344,-119 335.96,-125.9 346.55,-125.52 344,-119"/>
<text text-anchor="middle" x="404.5" y="-116" font-family="Fira Mono Medium" font-size="10.00">not&#45;equal</text>
</g>
<!-- node_6 -->
<g id="node7" class="node">
<title>node_6</title>
<polygon fill="none" stroke="black" points="587.5,-74 450.5,-74 450.5,-30 587.5,-30 587.5,-74"/>
<text text-anchor="start" x="500" y="-61.4" font-family="Fira Mono Medium" font-weight="bold" font-size="12.00">human</text>
<text text-anchor="start" x="458.5" y="-49.4" font-family="Fira Mono Medium" font-style="italic" font-size="12.00">kind:</text>
<text text-anchor="start" x="496.5" y="-49.4" font-family="Fira Mono Medium" font-size="12.00"> missionary</text>
<text text-anchor="start" x="462" y="-37.4" font-family="Fira Mono Medium" font-style="italic" font-size="12.00">can&#45;drive:</text>
<text text-anchor="start" x="538" y="-37.4" font-family="Fira Mono Medium" font-size="12.00"> true</text>
</g>
<!-- node_6&#45;&gt;node_1 -->
<g id="edge14" class="edge">
<title>node_6&#45;&gt;node_1</title>
<path fill="none" stroke="black" d="M587.6,-56.95C647.98,-62.19 738.58,-72.11 816,-89 849.24,-96.25 857.16,-100.03 889,-112 900.03,-116.15 911.72,-120.99 922.71,-125.76"/>
<polygon fill="black" stroke="black" points="921.59,-129.09 932.15,-129.91 924.4,-122.68 921.59,-129.09"/>
<text text-anchor="middle" x="747.5" y="-92" font-family="Fira Mono Medium" font-size="10.00">at</text>
</g>
<!-- node_7 -->
<g id="node8" class="node">
<title>node_7</title>
<polygon fill="none" stroke="black" points="816,-44 679,-44 679,0 816,0 816,-44"/>
<text text-anchor="start" x="728.5" y="-31.4" font-family="Fira Mono Medium" font-weight="bold" font-size="12.00">human</text>
<text text-anchor="start" x="687" y="-19.4" font-family="Fira Mono Medium" font-style="italic" font-size="12.00">kind:</text>
<text text-anchor="start" x="725" y="-19.4" font-family="Fira Mono Medium" font-size="12.00"> missionary</text>
<text text-anchor="start" x="690.5" y="-7.4" font-family="Fira Mono Medium" font-style="italic" font-size="12.00">can&#45;drive:</text>
<text text-anchor="start" x="766.5" y="-7.4" font-family="Fira Mono Medium" font-size="12.00"> true</text>
</g>
<!-- node_6&#45;&gt;node_7 -->
<g id="edge13" class="edge">
<title>node_6&#45;&gt;node_7</title>
<path fill="none" stroke="black" d="M587.65,-43.04C613.2,-39.66 642.46,-35.78 668.85,-32.29"/>
<polygon fill="black" stroke="black" points="669.35,-35.75 678.81,-30.97 668.43,-28.81 669.35,-35.75"/>
<text text-anchor="middle" x="633.5" y="-43" font-family="Fira Mono Medium" font-size="10.00">not&#45;equal</text>
</g>
<!-- node_7&#45;&gt;node_1 -->
<g id="edge16" class="edge">
<title>node_7&#45;&gt;node_1</title>
<path fill="none" stroke="black" d="M816.05,-29.21C840.31,-33.97 867.07,-41.87 889,-55 916.47,-71.45 939.7,-100.18 954.35,-121.37"/>
<polygon fill="black" stroke="black" points="951.61,-123.57 960.09,-129.93 957.43,-119.67 951.61,-123.57"/>
<text text-anchor="middle" x="861.5" y="-58" font-family="Fira Mono Medium" font-size="10.00">at</text>
</g>
<!-- node_7&#45;&gt;node_6 -->
<g id="edge15" class="edge">
<title>node_7&#45;&gt;node_6</title>
<path fill="none" stroke="black" d="M678.85,-14.2C655.59,-13.06 629.49,-13.52 606,-18 596.06,-19.89 585.81,-22.91 576,-26.39"/>
<polygon fill="black" stroke="black" points="574.5,-23.22 566.36,-30 576.95,-29.77 574.5,-23.22"/>
<text text-anchor="middle" x="633.5" y="-21" font-family="Fira Mono Medium" font-size="10.00">not&#45;equal</text>
</g>
</g>
</svg>
