<?xml version="1.0" encoding="UTF-8" standalone="no"?>
<!DOCTYPE svg PUBLIC "-//W3C//DTD SVG 1.1//EN"
 "http://www.w3.org/Graphics/SVG/1.1/DTD/svg11.dtd">
<!-- Generated by graphviz version 2.43.0 (0)
 -->
<!-- Title: %3 Pages: 1 -->
<svg width="1045pt" height="378pt"
 viewBox="0.00 0.00 1045.00 378.00" xmlns="http://www.w3.org/2000/svg" xmlns:xlink="http://www.w3.org/1999/xlink">
<g id="graph0" class="graph" transform="scale(1 1) rotate(0) translate(4 374)">
<title>%3</title>
<polygon fill="white" stroke="transparent" points="-4,4 -4,-374 1041,-374 1041,4 -4,4"/>
<!-- node_0 -->
<g id="node1" class="node">
<title>node_0</title>
<polygon fill="none" stroke="black" points="808.5,-256 686.5,-256 686.5,-220 808.5,-220 808.5,-256"/>
<text text-anchor="start" x="732" y="-241.4" font-family="Fira Mono Medium" font-weight="bold" font-size="12.00">bank</text>
<text text-anchor="start" x="694.5" y="-229.4" font-family="Fira Mono Medium" font-style="italic" font-size="12.00">location:</text>
<text text-anchor="start" x="762.5" y="-229.4" font-family="Fira Mono Medium" font-size="12.00"> left</text>
</g>
<!-- node_1 -->
<g id="node2" class="node">
<title>node_1</title>
<polygon fill="none" stroke="black" points="1037,-137 907,-137 907,-101 1037,-101 1037,-137"/>
<text text-anchor="start" x="956.5" y="-122.4" font-family="Fira Mono Medium" font-weight="bold" font-size="12.00">bank</text>
<text text-anchor="start" x="915" y="-110.4" font-family="Fira Mono Medium" font-style="italic" font-size="12.00">location:</text>
<text text-anchor="start" x="983" y="-110.4" font-family="Fira Mono Medium" font-size="12.00"> right</text>
</g>
<!-- node_0&#45;&gt;node_1 -->
<g id="edge1" class="edge">
<title>node_0&#45;&gt;node_1</title>
<path fill="none" stroke="black" d="M808.74,-226.5C834.57,-219.95 864.4,-210.16 889,-196 912.13,-182.69 933.93,-161.65 949.23,-144.93"/>
<polygon fill="black" stroke="black" points="952.15,-146.91 956.19,-137.12 946.93,-142.25 952.15,-146.91"/>
<text text-anchor="middle" x="861.5" y="-221" font-family="Fira Mono Medium" font-size="10.00">not&#45;equal</text>
</g>
<!-- node_1&#45;&gt;node_0 -->
<g id="edge2" class="edge">
<title>node_1&#45;&gt;node_0</title>
<path fill="none" stroke="black" d="M926.3,-137.04C899.08,-148.56 863.91,-164.41 834,-181 816.1,-190.93 797.07,-203.41 781.51,-214.16"/>
<polygon fill="black" stroke="black" points="779.45,-211.33 773.26,-219.93 783.46,-217.07 779.45,-211.33"/>
<text text-anchor="middle" x="861.5" y="-184" font-family="Fira Mono Medium" font-size="10.00">not&#45;equal</text>
</g>
<!-- node_2 -->
<g id="node3" class="node">
<title>node_2</title>
<polygon fill="none" stroke="black" points="546,-370 492,-370 492,-334 546,-334 546,-370"/>
<text text-anchor="start" x="503.5" y="-349.9" font-family="Fira Mono Medium" font-weight="bold" font-size="12.00">boat</text>
</g>
<!-- node_2&#45;&gt;node_0 -->
<g id="edge3" class="edge">
<title>node_2&#45;&gt;node_0</title>
<path fill="none" stroke="black" d="M546.14,-350C575.59,-346.84 624.15,-338.85 661,-319 686.45,-305.29 709.86,-282.03 725.72,-263.94"/>
<polygon fill="black" stroke="black" points="728.63,-265.92 732.46,-256.04 723.31,-261.38 728.63,-265.92"/>
<text text-anchor="middle" x="633.5" y="-341" font-family="Fira Mono Medium" font-size="10.00">at</text>
</g>
<!-- node_3 -->
<g id="node4" class="node">
<title>node_3</title>
<polygon fill="none" stroke="black" points="359,-301 229,-301 229,-257 359,-257 359,-301"/>
<text text-anchor="start" x="275" y="-288.4" font-family="Fira Mono Medium" font-weight="bold" font-size="12.00">human</text>
<text text-anchor="start" x="241" y="-276.4" font-family="Fira Mono Medium" font-style="italic" font-size="12.00">kind:</text>
<text text-anchor="start" x="279" y="-276.4" font-family="Fira Mono Medium" font-size="12.00"> cannibal</text>
<text text-anchor="start" x="237" y="-264.4" font-family="Fira Mono Medium" font-style="italic" font-size="12.00">can&#45;drive:</text>
<text text-anchor="start" x="313" y="-264.4" font-family="Fira Mono Medium" font-size="12.00"> true</text>
</g>
<!-- node_3&#45;&gt;node_0 -->
<g id="edge6" class="edge">
<title>node_3&#45;&gt;node_0</title>
<path fill="none" stroke="black" d="M359.01,-280.71C365.09,-280.83 371.16,-280.93 377,-281 470.92,-282.15 494.92,-281.64 588,-269 617.08,-265.05 648.87,-259.15 676.29,-253.55"/>
<polygon fill="black" stroke="black" points="677.1,-256.96 686.19,-251.51 675.69,-250.11 677.1,-256.96"/>
<text text-anchor="middle" x="519" y="-284" font-family="Fira Mono Medium" font-size="10.00">at</text>
</g>
<!-- node_4 -->
<g id="node5" class="node">
<title>node_4</title>
<polygon fill="none" stroke="black" points="138,-234 0,-234 0,-190 138,-190 138,-234"/>
<text text-anchor="start" x="50" y="-221.4" font-family="Fira Mono Medium" font-weight="bold" font-size="12.00">human</text>
<text text-anchor="start" x="16" y="-209.4" font-family="Fira Mono Medium" font-style="italic" font-size="12.00">kind:</text>
<text text-anchor="start" x="54" y="-209.4" font-family="Fira Mono Medium" font-size="12.00"> cannibal</text>
<text text-anchor="start" x="8" y="-197.4" font-family="Fira Mono Medium" font-style="italic" font-size="12.00">can&#45;drive:</text>
<text text-anchor="start" x="84" y="-197.4" font-family="Fira Mono Medium" font-size="12.00"> false</text>
</g>
<!-- node_3&#45;&gt;node_4 -->
<g id="edge4" class="edge">
<title>node_3&#45;&gt;node_4</title>
<path fill="none" stroke="black" d="M241.36,-256.89C231.38,-253 220.94,-249.18 211,-246 190.9,-239.57 168.86,-233.71 148.29,-228.73"/>
<polygon fill="black" stroke="black" points="148.87,-225.27 138.33,-226.36 147.25,-232.08 148.87,-225.27"/>
<text text-anchor="middle" x="183.5" y="-249" font-family="Fira Mono Medium" font-size="10.00">not&#45;equal</text>
</g>
<!-- node_5 -->
<g id="node6" class="node">
<title>node_5</title>
<polygon fill="none" stroke="black" points="588,-260 450,-260 450,-216 588,-216 588,-260"/>
<text text-anchor="start" x="500" y="-247.4" font-family="Fira Mono Medium" font-weight="bold" font-size="12.00">human</text>
<text text-anchor="start" x="466" y="-235.4" font-family="Fira Mono Medium" font-style="italic" font-size="12.00">kind:</text>
<text text-anchor="start" x="504" y="-235.4" font-family="Fira Mono Medium" font-size="12.00"> cannibal</text>
<text text-anchor="start" x="458" y="-223.4" font-family="Fira Mono Medium" font-style="italic" font-size="12.00">can&#45;drive:</text>
<text text-anchor="start" x="534" y="-223.4" font-family="Fira Mono Medium" font-size="12.00"> false</text>
</g>
<!-- node_3&#45;&gt;node_5 -->
<g id="edge5" class="edge">
<title>node_3&#45;&gt;node_5</title>
<path fill="none" stroke="black" d="M359.26,-269.47C382.26,-265.85 408.34,-261.51 432,-257 434.5,-256.52 437.03,-256.03 439.59,-255.52"/>
<polygon fill="black" stroke="black" points="440.44,-258.92 449.54,-253.5 439.04,-252.06 440.44,-258.92"/>
<text text-anchor="middle" x="404.5" y="-269" font-family="Fira Mono Medium" font-size="10.00">not&#45;equal</text>
</g>
<!-- node_4&#45;&gt;node_1 -->
<g id="edge9" class="edge">
<title>node_4&#45;&gt;node_1</title>
<path fill="none" stroke="black" d="M100.8,-189.96C142.34,-162.46 219.59,-119 293,-119 293,-119 293,-119 748.5,-119 797.85,-119 853.36,-119 896.59,-119"/>
<polygon fill="black" stroke="black" points="896.74,-122.5 906.74,-119 896.74,-115.5 896.74,-122.5"/>
<text text-anchor="middle" x="519" y="-122" font-family="Fira Mono Medium" font-size="10.00">at</text>
</g>
<!-- node_4&#45;&gt;node_3 -->
<g id="edge7" class="edge">
<title>node_4&#45;&gt;node_3</title>
<path fill="none" stroke="black" d="M106.1,-234.21C121.06,-242.52 138.89,-251.32 156,-257 175.94,-263.62 198.2,-268.29 218.88,-271.56"/>
<polygon fill="black" stroke="black" points="218.48,-275.04 228.89,-273.05 219.51,-268.11 218.48,-275.04"/>
<text text-anchor="middle" x="183.5" y="-272" font-family="Fira Mono Medium" font-size="10.00">not&#45;equal</text>
</g>
<!-- node_4&#45;&gt;node_5 -->
<g id="edge8" class="edge">
<title>node_4&#45;&gt;node_5</title>
<path fill="none" stroke="black" d="M138.07,-215.47C210.84,-219.24 329.6,-225.6 432,-232 434.55,-232.16 437.14,-232.32 439.76,-232.49"/>
<polygon fill="black" stroke="black" points="439.73,-236 449.94,-233.16 440.19,-229.01 439.73,-236"/>
<text text-anchor="middle" x="294" y="-230" font-family="Fira Mono Medium" font-size="10.00">not&#45;equal</text>
</g>
<!-- node_5&#45;&gt;node_0 -->
<g id="edge12" class="edge">
<title>node_5&#45;&gt;node_0</title>
<path fill="none" stroke="black" d="M588.26,-238C616.11,-238 648.28,-238 676.32,-238"/>
<polygon fill="black" stroke="black" points="676.44,-241.5 686.44,-238 676.44,-234.5 676.44,-241.5"/>
<text text-anchor="middle" x="633.5" y="-241" font-family="Fira Mono Medium" font-size="10.00">at</text>
</g>
<!-- node_5&#45;&gt;node_3 -->
<g id="edge10" class="edge">
<title>node_5&#45;&gt;node_3</title>
<path fill="none" stroke="black" d="M449.93,-235.97C426.57,-236.57 400.42,-238.69 377,-244 367.38,-246.18 357.46,-249.45 348,-253.12"/>
<polygon fill="black" stroke="black" points="346.65,-249.89 338.71,-256.91 349.29,-256.37 346.65,-249.89"/>
<text text-anchor="middle" x="404.5" y="-247" font-family="Fira Mono Medium" font-size="10.00">not&#45;equal</text>
</g>
<!-- node_5&#45;&gt;node_4 -->
<g id="edge11" class="edge">
<title>node_5&#45;&gt;node_4</title>
<path fill="none" stroke="black" d="M450,-220.69C422.01,-214.41 389.15,-208.1 359,-205 288,-197.71 206.7,-200.68 148.45,-204.76"/>
<polygon fill="black" stroke="black" points="147.94,-201.29 138.22,-205.5 148.44,-208.27 147.94,-201.29"/>
<text text-anchor="middle" x="294" y="-208" font-family="Fira Mono Medium" font-size="10.00">not&#45;equal</text>
</g>
<!-- node_6 -->
<g id="node7" class="node">
<title>node_6</title>
<polygon fill="none" stroke="black" points="587.5,-76 450.5,-76 450.5,-32 587.5,-32 587.5,-76"/>
<text text-anchor="start" x="500" y="-63.4" font-family="Fira Mono Medium" font-weight="bold" font-size="12.00">human</text>
<text text-anchor="start" x="458.5" y="-51.4" font-family="Fira Mono Medium" font-style="italic" font-size="12.00">kind:</text>
<text text-anchor="start" x="496.5" y="-51.4" font-family="Fira Mono Medium" font-size="12.00"> missionary</text>
<text text-anchor="start" x="462" y="-39.4" font-family="Fira Mono Medium" font-style="italic" font-size="12.00">can&#45;drive:</text>
<text text-anchor="start" x="538" y="-39.4" font-family="Fira Mono Medium" font-size="12.00"> true</text>
</g>
<!-- node_6&#45;&gt;node_1 -->
<g id="edge14" class="edge">
<title>node_6&#45;&gt;node_1</title>
<path fill="none" stroke="black" d="M587.8,-62.46C661.92,-71.93 784.12,-88.15 889,-105 891.5,-105.4 894.03,-105.81 896.59,-106.23"/>
<polygon fill="black" stroke="black" points="896.13,-109.7 906.56,-107.88 897.27,-102.79 896.13,-109.7"/>
<text text-anchor="middle" x="747.5" y="-96" font-family="Fira Mono Medium" font-size="10.00">at</text>
</g>
<!-- node_7 -->
<g id="node8" class="node">
<title>node_7</title>
<polygon fill="none" stroke="black" points="816,-44 679,-44 679,0 816,0 816,-44"/>
<text text-anchor="start" x="728.5" y="-31.4" font-family="Fira Mono Medium" font-weight="bold" font-size="12.00">human</text>
<text text-anchor="start" x="687" y="-19.4" font-family="Fira Mono Medium" font-style="italic" font-size="12.00">kind:</text>
<text text-anchor="start" x="725" y="-19.4" font-family="Fira Mono Medium" font-size="12.00"> missionary</text>
<text text-anchor="start" x="690.5" y="-7.4" font-family="Fira Mono Medium" font-style="italic" font-size="12.00">can&#45;drive:</text>
<text text-anchor="start" x="766.5" y="-7.4" font-family="Fira Mono Medium" font-size="12.00"> true</text>
</g>
<!-- node_6&#45;&gt;node_7 -->
<g id="edge13" class="edge">
<title>node_6&#45;&gt;node_7</title>
<path fill="none" stroke="black" d="M587.65,-44.44C613.2,-40.83 642.46,-36.7 668.85,-32.97"/>
<polygon fill="black" stroke="black" points="669.39,-36.43 678.81,-31.56 668.42,-29.5 669.39,-36.43"/>
<text text-anchor="middle" x="633.5" y="-45" font-family="Fira Mono Medium" font-size="10.00">not&#45;equal</text>
</g>
<!-- node_7&#45;&gt;node_1 -->
<g id="edge16" class="edge">
<title>node_7&#45;&gt;node_1</title>
<path fill="none" stroke="black" d="M816.26,-31.77C840.02,-36.77 866.4,-44.18 889,-55 909.67,-64.9 929.99,-80.71 945.23,-94.14"/>
<polygon fill="black" stroke="black" points="942.95,-96.79 952.72,-100.9 947.64,-91.6 942.95,-96.79"/>
<text text-anchor="middle" x="861.5" y="-58" font-family="Fira Mono Medium" font-size="10.00">at</text>
</g>
<!-- node_7&#45;&gt;node_6 -->
<g id="edge15" class="edge">
<title>node_7&#45;&gt;node_6</title>
<path fill="none" stroke="black" d="M678.84,-15.54C655.58,-14.77 629.48,-15.53 606,-20 596.06,-21.89 585.81,-24.91 576,-28.39"/>
<polygon fill="black" stroke="black" points="574.5,-25.22 566.36,-32 576.95,-31.77 574.5,-25.22"/>
<text text-anchor="middle" x="633.5" y="-23" font-family="Fira Mono Medium" font-size="10.00">not&#45;equal</text>
</g>
</g>
</svg>
