<?xml version="1.0" encoding="UTF-8" standalone="no"?>
<!DOCTYPE svg PUBLIC "-//W3C//DTD SVG 1.1//EN"
 "http://www.w3.org/Graphics/SVG/1.1/DTD/svg11.dtd">
<!-- Generated by graphviz version 2.43.0 (0)
 -->
<!-- Title: %3 Pages: 1 -->
<svg width="824pt" height="354pt"
 viewBox="0.00 0.00 824.00 354.00" xmlns="http://www.w3.org/2000/svg" xmlns:xlink="http://www.w3.org/1999/xlink">
<g id="graph0" class="graph" transform="scale(1 1) rotate(0) translate(4 350)">
<title>%3</title>
<polygon fill="white" stroke="transparent" points="-4,4 -4,-350 820,-350 820,4 -4,4"/>
<!-- node_0 -->
<g id="node1" class="node">
<title>node_0</title>
<polygon fill="none" stroke="black" points="587,-145 465,-145 465,-109 587,-109 587,-145"/>
<text text-anchor="start" x="510.5" y="-130.4" font-family="Fira Mono Medium" font-weight="bold" font-size="12.00">bank</text>
<text text-anchor="start" x="473" y="-118.4" font-family="Fira Mono Medium" font-style="italic" font-size="12.00">location:</text>
<text text-anchor="start" x="541" y="-118.4" font-family="Fira Mono Medium" font-size="12.00"> left</text>
</g>
<!-- node_1 -->
<g id="node2" class="node">
<title>node_1</title>
<polygon fill="none" stroke="black" points="816,-254 686,-254 686,-218 816,-218 816,-254"/>
<text text-anchor="start" x="735.5" y="-239.4" font-family="Fira Mono Medium" font-weight="bold" font-size="12.00">bank</text>
<text text-anchor="start" x="694" y="-227.4" font-family="Fira Mono Medium" font-style="italic" font-size="12.00">location:</text>
<text text-anchor="start" x="762" y="-227.4" font-family="Fira Mono Medium" font-size="12.00"> right</text>
</g>
<!-- node_0&#45;&gt;node_1 -->
<g id="edge1" class="edge">
<title>node_0&#45;&gt;node_1</title>
<path fill="none" stroke="black" d="M561.61,-145.01C577.25,-153.07 596,-162.62 613,-171 642.34,-185.46 675.47,-201.2 701.8,-213.56"/>
<polygon fill="black" stroke="black" points="700.63,-216.88 711.17,-217.96 703.6,-210.54 700.63,-216.88"/>
<text text-anchor="middle" x="640.5" y="-199" font-family="Fira Mono Medium" font-size="10.00">not&#45;equal</text>
</g>
<!-- node_1&#45;&gt;node_0 -->
<g id="edge2" class="edge">
<title>node_1&#45;&gt;node_0</title>
<path fill="none" stroke="black" d="M736.46,-217.67C721.74,-199.13 696.46,-171.11 668,-156 646.37,-144.52 620.63,-137.58 597.11,-133.38"/>
<polygon fill="black" stroke="black" points="597.62,-129.92 587.18,-131.75 596.48,-136.83 597.62,-129.92"/>
<text text-anchor="middle" x="640.5" y="-159" font-family="Fira Mono Medium" font-size="10.00">not&#45;equal</text>
</g>
<!-- node_2 -->
<g id="node3" class="node">
<title>node_2</title>
<polygon fill="none" stroke="black" points="324,-145 270,-145 270,-109 324,-109 324,-145"/>
<text text-anchor="start" x="281.5" y="-124.9" font-family="Fira Mono Medium" font-weight="bold" font-size="12.00">boat</text>
</g>
<!-- node_2&#45;&gt;node_0 -->
<g id="edge3" class="edge">
<title>node_2&#45;&gt;node_0</title>
<path fill="none" stroke="black" d="M324.04,-127C355.7,-127 410.38,-127 454.72,-127"/>
<polygon fill="black" stroke="black" points="454.88,-130.5 464.88,-127 454.88,-123.5 454.88,-130.5"/>
<text text-anchor="middle" x="411.5" y="-130" font-family="Fira Mono Medium" font-size="10.00">at</text>
</g>
<!-- node_3 -->
<g id="node4" class="node">
<title>node_3</title>
<polygon fill="none" stroke="black" points="133.5,-283 3.5,-283 3.5,-239 133.5,-239 133.5,-283"/>
<text text-anchor="start" x="49.5" y="-270.4" font-family="Fira Mono Medium" font-weight="bold" font-size="12.00">human</text>
<text text-anchor="start" x="15.5" y="-258.4" font-family="Fira Mono Medium" font-style="italic" font-size="12.00">kind:</text>
<text text-anchor="start" x="53.5" y="-258.4" font-family="Fira Mono Medium" font-size="12.00"> cannibal</text>
<text text-anchor="start" x="11.5" y="-246.4" font-family="Fira Mono Medium" font-style="italic" font-size="12.00">can&#45;drive:</text>
<text text-anchor="start" x="87.5" y="-246.4" font-family="Fira Mono Medium" font-size="12.00"> true</text>
</g>
<!-- node_3&#45;&gt;node_1 -->
<g id="edge6" class="edge">
<title>node_3&#45;&gt;node_1</title>
<path fill="none" stroke="black" d="M116.85,-283.11C147.73,-296.25 189.35,-311.56 228,-318 389.03,-344.81 436.18,-340.77 595,-303 635.06,-293.47 677.83,-274.23 708.27,-258.8"/>
<polygon fill="black" stroke="black" points="710.01,-261.84 717.3,-254.15 706.81,-255.61 710.01,-261.84"/>
<text text-anchor="middle" x="411.5" y="-338" font-family="Fira Mono Medium" font-size="10.00">at</text>
</g>
<!-- node_4 -->
<g id="node5" class="node">
<title>node_4</title>
<polygon fill="none" stroke="black" points="366,-309 228,-309 228,-265 366,-265 366,-309"/>
<text text-anchor="start" x="278" y="-296.4" font-family="Fira Mono Medium" font-weight="bold" font-size="12.00">human</text>
<text text-anchor="start" x="244" y="-284.4" font-family="Fira Mono Medium" font-style="italic" font-size="12.00">kind:</text>
<text text-anchor="start" x="282" y="-284.4" font-family="Fira Mono Medium" font-size="12.00"> cannibal</text>
<text text-anchor="start" x="236" y="-272.4" font-family="Fira Mono Medium" font-style="italic" font-size="12.00">can&#45;drive:</text>
<text text-anchor="start" x="312" y="-272.4" font-family="Fira Mono Medium" font-size="12.00"> false</text>
</g>
<!-- node_3&#45;&gt;node_4 -->
<g id="edge4" class="edge">
<title>node_3&#45;&gt;node_4</title>
<path fill="none" stroke="black" d="M133.89,-270.32C141.01,-271.27 148.15,-272.18 155,-273 175.27,-275.43 197.21,-277.75 217.61,-279.79"/>
<polygon fill="black" stroke="black" points="217.51,-283.29 227.81,-280.79 218.2,-276.33 217.51,-283.29"/>
<text text-anchor="middle" x="182.5" y="-281" font-family="Fira Mono Medium" font-size="10.00">not&#45;equal</text>
</g>
<!-- node_5 -->
<g id="node6" class="node">
<title>node_5</title>
<polygon fill="none" stroke="black" points="595,-258 457,-258 457,-214 595,-214 595,-258"/>
<text text-anchor="start" x="507" y="-245.4" font-family="Fira Mono Medium" font-weight="bold" font-size="12.00">human</text>
<text text-anchor="start" x="473" y="-233.4" font-family="Fira Mono Medium" font-style="italic" font-size="12.00">kind:</text>
<text text-anchor="start" x="511" y="-233.4" font-family="Fira Mono Medium" font-size="12.00"> cannibal</text>
<text text-anchor="start" x="465" y="-221.4" font-family="Fira Mono Medium" font-style="italic" font-size="12.00">can&#45;drive:</text>
<text text-anchor="start" x="541" y="-221.4" font-family="Fira Mono Medium" font-size="12.00"> false</text>
</g>
<!-- node_3&#45;&gt;node_5 -->
<g id="edge5" class="edge">
<title>node_3&#45;&gt;node_5</title>
<path fill="none" stroke="black" d="M133.92,-254.15C141.03,-253.42 148.17,-252.69 155,-252 187.43,-248.74 195.49,-247.29 228,-245 297.23,-240.13 314.63,-240.05 384,-238 404.31,-237.4 426.26,-236.98 446.67,-236.68"/>
<polygon fill="black" stroke="black" points="446.91,-240.18 456.86,-236.55 446.81,-233.18 446.91,-240.18"/>
<text text-anchor="middle" x="297" y="-248" font-family="Fira Mono Medium" font-size="10.00">not&#45;equal</text>
</g>
<!-- node_4&#45;&gt;node_1 -->
<g id="edge9" class="edge">
<title>node_4&#45;&gt;node_1</title>
<path fill="none" stroke="black" d="M366.06,-289.59C372.13,-289.76 378.17,-289.9 384,-290 408.44,-290.43 414.62,-291.79 439,-290 508.9,-284.88 525.95,-278.99 595,-267 621.38,-262.42 650.16,-256.83 675.68,-251.66"/>
<polygon fill="black" stroke="black" points="676.56,-255.06 685.66,-249.63 675.16,-248.2 676.56,-255.06"/>
<text text-anchor="middle" x="526" y="-291" font-family="Fira Mono Medium" font-size="10.00">at</text>
</g>
<!-- node_4&#45;&gt;node_3 -->
<g id="edge7" class="edge">
<title>node_4&#45;&gt;node_3</title>
<path fill="none" stroke="black" d="M233.58,-264.99C225.73,-262.94 217.73,-261.19 210,-260 188.66,-256.73 165.29,-255.84 143.84,-256.07"/>
<polygon fill="black" stroke="black" points="143.74,-252.58 133.81,-256.27 143.87,-259.57 143.74,-252.58"/>
<text text-anchor="middle" x="182.5" y="-263" font-family="Fira Mono Medium" font-size="10.00">not&#45;equal</text>
</g>
<!-- node_4&#45;&gt;node_5 -->
<g id="edge8" class="edge">
<title>node_4&#45;&gt;node_5</title>
<path fill="none" stroke="black" d="M366.24,-278.75C389.49,-275.3 415.54,-270.74 439,-265 443.94,-263.79 449.01,-262.42 454.08,-260.96"/>
<polygon fill="black" stroke="black" points="455.26,-264.26 463.83,-258.04 453.25,-257.56 455.26,-264.26"/>
<text text-anchor="middle" x="411.5" y="-278" font-family="Fira Mono Medium" font-size="10.00">not&#45;equal</text>
</g>
<!-- node_5&#45;&gt;node_1 -->
<g id="edge12" class="edge">
<title>node_5&#45;&gt;node_1</title>
<path fill="none" stroke="black" d="M595.12,-236C620.56,-236 649.57,-236 675.56,-236"/>
<polygon fill="black" stroke="black" points="675.73,-239.5 685.73,-236 675.73,-232.5 675.73,-239.5"/>
<text text-anchor="middle" x="640.5" y="-239" font-family="Fira Mono Medium" font-size="10.00">at</text>
</g>
<!-- node_5&#45;&gt;node_3 -->
<g id="edge10" class="edge">
<title>node_5&#45;&gt;node_3</title>
<path fill="none" stroke="black" d="M456.94,-226.81C396.6,-220.14 306.16,-213.76 228,-223 200.09,-226.3 169.98,-232.76 143.58,-239.43"/>
<polygon fill="black" stroke="black" points="142.47,-236.1 133.66,-241.99 144.21,-242.88 142.47,-236.1"/>
<text text-anchor="middle" x="297" y="-226" font-family="Fira Mono Medium" font-size="10.00">not&#45;equal</text>
</g>
<!-- node_5&#45;&gt;node_4 -->
<g id="edge11" class="edge">
<title>node_5&#45;&gt;node_4</title>
<path fill="none" stroke="black" d="M456.9,-239.94C433.54,-242.29 407.39,-246.03 384,-252 374.51,-254.42 364.68,-257.66 355.21,-261.2"/>
<polygon fill="black" stroke="black" points="353.94,-257.94 345.88,-264.82 356.47,-264.47 353.94,-257.94"/>
<text text-anchor="middle" x="411.5" y="-255" font-family="Fira Mono Medium" font-size="10.00">not&#45;equal</text>
</g>
<!-- node_6 -->
<g id="node7" class="node">
<title>node_6</title>
<polygon fill="none" stroke="black" points="137,-76 0,-76 0,-32 137,-32 137,-76"/>
<text text-anchor="start" x="49.5" y="-63.4" font-family="Fira Mono Medium" font-weight="bold" font-size="12.00">human</text>
<text text-anchor="start" x="8" y="-51.4" font-family="Fira Mono Medium" font-style="italic" font-size="12.00">kind:</text>
<text text-anchor="start" x="46" y="-51.4" font-family="Fira Mono Medium" font-size="12.00"> missionary</text>
<text text-anchor="start" x="11.5" y="-39.4" font-family="Fira Mono Medium" font-style="italic" font-size="12.00">can&#45;drive:</text>
<text text-anchor="start" x="87.5" y="-39.4" font-family="Fira Mono Medium" font-size="12.00"> true</text>
</g>
<!-- node_6&#45;&gt;node_0 -->
<g id="edge14" class="edge">
<title>node_6&#45;&gt;node_0</title>
<path fill="none" stroke="black" d="M137.25,-59.72C197.56,-65.35 288.05,-75.13 366,-89 395.37,-94.22 427.42,-101.56 455,-108.4"/>
<polygon fill="black" stroke="black" points="454.4,-111.86 464.95,-110.89 456.1,-105.07 454.4,-111.86"/>
<text text-anchor="middle" x="297" y="-92" font-family="Fira Mono Medium" font-size="10.00">at</text>
</g>
<!-- node_7 -->
<g id="node8" class="node">
<title>node_7</title>
<polygon fill="none" stroke="black" points="365.5,-44 228.5,-44 228.5,0 365.5,0 365.5,-44"/>
<text text-anchor="start" x="278" y="-31.4" font-family="Fira Mono Medium" font-weight="bold" font-size="12.00">human</text>
<text text-anchor="start" x="236.5" y="-19.4" font-family="Fira Mono Medium" font-style="italic" font-size="12.00">kind:</text>
<text text-anchor="start" x="274.5" y="-19.4" font-family="Fira Mono Medium" font-size="12.00"> missionary</text>
<text text-anchor="start" x="240" y="-7.4" font-family="Fira Mono Medium" font-style="italic" font-size="12.00">can&#45;drive:</text>
<text text-anchor="start" x="316" y="-7.4" font-family="Fira Mono Medium" font-size="12.00"> true</text>
</g>
<!-- node_6&#45;&gt;node_7 -->
<g id="edge13" class="edge">
<title>node_6&#45;&gt;node_7</title>
<path fill="none" stroke="black" d="M137.15,-44.44C162.7,-40.83 191.96,-36.7 218.35,-32.97"/>
<polygon fill="black" stroke="black" points="218.89,-36.43 228.31,-31.56 217.92,-29.5 218.89,-36.43"/>
<text text-anchor="middle" x="182.5" y="-44" font-family="Fira Mono Medium" font-size="10.00">not&#45;equal</text>
</g>
<!-- node_7&#45;&gt;node_0 -->
<g id="edge16" class="edge">
<title>node_7&#45;&gt;node_0</title>
<path fill="none" stroke="black" d="M365.85,-31.23C389.81,-36.19 416.4,-43.7 439,-55 462.35,-66.67 484.83,-85.86 500.95,-101.5"/>
<polygon fill="black" stroke="black" points="498.77,-104.27 508.32,-108.84 503.7,-99.31 498.77,-104.27"/>
<text text-anchor="middle" x="411.5" y="-58" font-family="Fira Mono Medium" font-size="10.00">at</text>
</g>
<!-- node_7&#45;&gt;node_6 -->
<g id="edge15" class="edge">
<title>node_7&#45;&gt;node_6</title>
<path fill="none" stroke="black" d="M228.43,-14.7C204.99,-13.72 178.66,-14.34 155,-19 144.62,-21.04 133.92,-24.35 123.75,-28.14"/>
<polygon fill="black" stroke="black" points="122.21,-24.99 114.19,-31.9 124.77,-31.5 122.21,-24.99"/>
<text text-anchor="middle" x="182.5" y="-22" font-family="Fira Mono Medium" font-size="10.00">not&#45;equal</text>
</g>
</g>
</svg>
