<?xml version="1.0" encoding="UTF-8" standalone="no"?>
<!DOCTYPE svg PUBLIC "-//W3C//DTD SVG 1.1//EN"
 "http://www.w3.org/Graphics/SVG/1.1/DTD/svg11.dtd">
<!-- Generated by graphviz version 2.43.0 (0)
 -->
<!-- Title: %3 Pages: 1 -->
<svg width="817pt" height="224pt"
 viewBox="0.00 0.00 817.00 224.00" xmlns="http://www.w3.org/2000/svg" xmlns:xlink="http://www.w3.org/1999/xlink">
<g id="graph0" class="graph" transform="scale(1 1) rotate(0) translate(4 220)">
<title>%3</title>
<polygon fill="white" stroke="transparent" points="-4,4 -4,-220 813,-220 813,4 -4,4"/>
<!-- node_0 -->
<g id="node1" class="node">
<title>node_0</title>
<polygon fill="none" stroke="black" points="580,-98 458,-98 458,-62 580,-62 580,-98"/>
<text text-anchor="start" x="503.5" y="-83.4" font-family="Fira Mono Medium" font-weight="bold" font-size="12.00">bank</text>
<text text-anchor="start" x="466" y="-71.4" font-family="Fira Mono Medium" font-style="italic" font-size="12.00">location:</text>
<text text-anchor="start" x="534" y="-71.4" font-family="Fira Mono Medium" font-size="12.00"> left</text>
</g>
<!-- node_1 -->
<g id="node2" class="node">
<title>node_1</title>
<polygon fill="none" stroke="black" points="809,-132 679,-132 679,-96 809,-96 809,-132"/>
<text text-anchor="start" x="728.5" y="-117.4" font-family="Fira Mono Medium" font-weight="bold" font-size="12.00">bank</text>
<text text-anchor="start" x="687" y="-105.4" font-family="Fira Mono Medium" font-style="italic" font-size="12.00">location:</text>
<text text-anchor="start" x="755" y="-105.4" font-family="Fira Mono Medium" font-size="12.00"> right</text>
</g>
<!-- node_0&#45;&gt;node_1 -->
<g id="edge1" class="edge">
<title>node_0&#45;&gt;node_1</title>
<path fill="none" stroke="black" d="M580.19,-75.5C605.37,-74.89 634.82,-75.83 661,-81 673,-83.37 685.47,-87.46 696.96,-91.97"/>
<polygon fill="black" stroke="black" points="695.77,-95.27 706.35,-95.83 698.43,-88.79 695.77,-95.27"/>
<text text-anchor="middle" x="633.5" y="-84" font-family="Fira Mono Medium" font-size="10.00">not&#45;equal</text>
</g>
<!-- node_1&#45;&gt;node_0 -->
<g id="edge2" class="edge">
<title>node_1&#45;&gt;node_0</title>
<path fill="none" stroke="black" d="M678.93,-104.23C651.21,-100.01 618.69,-95.05 590.31,-90.72"/>
<polygon fill="black" stroke="black" points="590.47,-87.2 580.05,-89.16 589.41,-94.12 590.47,-87.2"/>
<text text-anchor="middle" x="633.5" y="-104" font-family="Fira Mono Medium" font-size="10.00">not&#45;equal</text>
</g>
<!-- node_2 -->
<g id="node3" class="node">
<title>node_2</title>
<polygon fill="none" stroke="black" points="321,-64 267,-64 267,-28 321,-28 321,-64"/>
<text text-anchor="start" x="278.5" y="-43.9" font-family="Fira Mono Medium" font-weight="bold" font-size="12.00">boat</text>
</g>
<!-- node_2&#45;&gt;node_0 -->
<g id="edge3" class="edge">
<title>node_2&#45;&gt;node_0</title>
<path fill="none" stroke="black" d="M321.02,-43.45C348.78,-41.36 393.9,-39.8 432,-47 435.77,-47.71 448.82,-52.54 463.66,-58.29"/>
<polygon fill="black" stroke="black" points="462.47,-61.58 473.06,-61.96 465.02,-55.06 462.47,-61.58"/>
<text text-anchor="middle" x="404.5" y="-50" font-family="Fira Mono Medium" font-size="10.00">at</text>
</g>
<!-- node_3 -->
<g id="node4" class="node">
<title>node_3</title>
<polygon fill="none" stroke="black" points="359,-136 229,-136 229,-92 359,-92 359,-136"/>
<text text-anchor="start" x="275" y="-123.4" font-family="Fira Mono Medium" font-weight="bold" font-size="12.00">human</text>
<text text-anchor="start" x="241" y="-111.4" font-family="Fira Mono Medium" font-style="italic" font-size="12.00">kind:</text>
<text text-anchor="start" x="279" y="-111.4" font-family="Fira Mono Medium" font-size="12.00"> cannibal</text>
<text text-anchor="start" x="237" y="-99.4" font-family="Fira Mono Medium" font-style="italic" font-size="12.00">can&#45;drive:</text>
<text text-anchor="start" x="313" y="-99.4" font-family="Fira Mono Medium" font-size="12.00"> true</text>
</g>
<!-- node_3&#45;&gt;node_0 -->
<g id="edge6" class="edge">
<title>node_3&#45;&gt;node_0</title>
<path fill="none" stroke="black" d="M359.28,-97.42C365.25,-96.15 371.22,-94.99 377,-94 399.82,-90.1 424.91,-87.18 447.52,-85.04"/>
<polygon fill="black" stroke="black" points="448.08,-88.51 457.72,-84.11 447.44,-81.53 448.08,-88.51"/>
<text text-anchor="middle" x="404.5" y="-97" font-family="Fira Mono Medium" font-size="10.00">at</text>
</g>
<!-- node_4 -->
<g id="node5" class="node">
<title>node_4</title>
<polygon fill="none" stroke="black" points="138,-196 0,-196 0,-152 138,-152 138,-196"/>
<text text-anchor="start" x="50" y="-183.4" font-family="Fira Mono Medium" font-weight="bold" font-size="12.00">human</text>
<text text-anchor="start" x="16" y="-171.4" font-family="Fira Mono Medium" font-style="italic" font-size="12.00">kind:</text>
<text text-anchor="start" x="54" y="-171.4" font-family="Fira Mono Medium" font-size="12.00"> cannibal</text>
<text text-anchor="start" x="8" y="-159.4" font-family="Fira Mono Medium" font-style="italic" font-size="12.00">can&#45;drive:</text>
<text text-anchor="start" x="84" y="-159.4" font-family="Fira Mono Medium" font-size="12.00"> false</text>
</g>
<!-- node_3&#45;&gt;node_4 -->
<g id="edge4" class="edge">
<title>node_3&#45;&gt;node_4</title>
<path fill="none" stroke="black" d="M228.7,-106.75C205.34,-106.11 179.03,-107.77 156,-115 136.32,-121.18 117.13,-133.54 101.89,-145.36"/>
<polygon fill="black" stroke="black" points="99.45,-142.83 93.85,-151.83 103.83,-148.29 99.45,-142.83"/>
<text text-anchor="middle" x="183.5" y="-118" font-family="Fira Mono Medium" font-size="10.00">not&#45;equal</text>
</g>
<!-- node_5 -->
<g id="node6" class="node">
<title>node_5</title>
<polygon fill="none" stroke="black" points="588,-170 450,-170 450,-126 588,-126 588,-170"/>
<text text-anchor="start" x="500" y="-157.4" font-family="Fira Mono Medium" font-weight="bold" font-size="12.00">human</text>
<text text-anchor="start" x="466" y="-145.4" font-family="Fira Mono Medium" font-style="italic" font-size="12.00">kind:</text>
<text text-anchor="start" x="504" y="-145.4" font-family="Fira Mono Medium" font-size="12.00"> cannibal</text>
<text text-anchor="start" x="458" y="-133.4" font-family="Fira Mono Medium" font-style="italic" font-size="12.00">can&#45;drive:</text>
<text text-anchor="start" x="534" y="-133.4" font-family="Fira Mono Medium" font-size="12.00"> false</text>
</g>
<!-- node_3&#45;&gt;node_5 -->
<g id="edge5" class="edge">
<title>node_3&#45;&gt;node_5</title>
<path fill="none" stroke="black" d="M359.24,-109.74C382.35,-109.45 408.51,-110.56 432,-115 441.12,-116.72 450.52,-119.36 459.61,-122.41"/>
<polygon fill="black" stroke="black" points="458.72,-125.81 469.32,-125.85 461.06,-119.21 458.72,-125.81"/>
<text text-anchor="middle" x="404.5" y="-118" font-family="Fira Mono Medium" font-size="10.00">not&#45;equal</text>
</g>
<!-- node_4&#45;&gt;node_1 -->
<g id="edge9" class="edge">
<title>node_4&#45;&gt;node_1</title>
<path fill="none" stroke="black" d="M138.29,-192.75C144.25,-194 150.21,-195.11 156,-196 188.12,-200.94 196.52,-199.11 229,-200 388.77,-204.37 432.78,-217.1 588,-179 627.17,-169.39 669.22,-151.21 699.62,-136.52"/>
<polygon fill="black" stroke="black" points="701.23,-139.63 708.67,-132.08 698.15,-133.34 701.23,-139.63"/>
<text text-anchor="middle" x="404.5" y="-208" font-family="Fira Mono Medium" font-size="10.00">at</text>
</g>
<!-- node_4&#45;&gt;node_3 -->
<g id="edge7" class="edge">
<title>node_4&#45;&gt;node_3</title>
<path fill="none" stroke="black" d="M138.01,-154.01C144.09,-152.29 150.15,-150.6 156,-149 176.35,-143.44 198.48,-137.67 218.89,-132.46"/>
<polygon fill="black" stroke="black" points="219.94,-135.81 228.76,-129.95 218.21,-129.02 219.94,-135.81"/>
<text text-anchor="middle" x="183.5" y="-152" font-family="Fira Mono Medium" font-size="10.00">not&#45;equal</text>
</g>
<!-- node_4&#45;&gt;node_5 -->
<g id="edge8" class="edge">
<title>node_4&#45;&gt;node_5</title>
<path fill="none" stroke="black" d="M138.04,-170.05C219.07,-165.35 354.16,-157.51 439.53,-152.55"/>
<polygon fill="black" stroke="black" points="439.91,-156.04 449.69,-151.96 439.5,-149.05 439.91,-156.04"/>
<text text-anchor="middle" x="294" y="-167" font-family="Fira Mono Medium" font-size="10.00">not&#45;equal</text>
</g>
<!-- node_5&#45;&gt;node_1 -->
<g id="edge12" class="edge">
<title>node_5&#45;&gt;node_1</title>
<path fill="none" stroke="black" d="M588.12,-137.61C613.56,-133.74 642.57,-129.31 668.56,-125.35"/>
<polygon fill="black" stroke="black" points="669.37,-128.77 678.73,-123.8 668.31,-121.85 669.37,-128.77"/>
<text text-anchor="middle" x="633.5" y="-137" font-family="Fira Mono Medium" font-size="10.00">at</text>
</g>
<!-- node_5&#45;&gt;node_3 -->
<g id="edge10" class="edge">
<title>node_5&#45;&gt;node_3</title>
<path fill="none" stroke="black" d="M449.98,-137.63C424.49,-133.74 395.42,-129.31 369.39,-125.34"/>
<polygon fill="black" stroke="black" points="369.61,-121.84 359.2,-123.79 368.56,-128.76 369.61,-121.84"/>
<text text-anchor="middle" x="404.5" y="-137" font-family="Fira Mono Medium" font-size="10.00">not&#45;equal</text>
</g>
<!-- node_5&#45;&gt;node_4 -->
<g id="edge11" class="edge">
<title>node_5&#45;&gt;node_4</title>
<path fill="none" stroke="black" d="M449.57,-164.43C443.64,-165.7 437.72,-166.91 432,-168 311.38,-191.08 278.7,-185.99 156,-181 153.45,-180.9 150.85,-180.78 148.23,-180.64"/>
<polygon fill="black" stroke="black" points="148.22,-177.13 138.04,-180.05 147.82,-184.12 148.22,-177.13"/>
<text text-anchor="middle" x="294" y="-188" font-family="Fira Mono Medium" font-size="10.00">not&#45;equal</text>
</g>
<!-- node_6 -->
<g id="node7" class="node">
<title>node_6</title>
<polygon fill="none" stroke="black" points="587.5,-44 450.5,-44 450.5,0 587.5,0 587.5,-44"/>
<text text-anchor="start" x="500" y="-31.4" font-family="Fira Mono Medium" font-weight="bold" font-size="12.00">human</text>
<text text-anchor="start" x="458.5" y="-19.4" font-family="Fira Mono Medium" font-style="italic" font-size="12.00">kind:</text>
<text text-anchor="start" x="496.5" y="-19.4" font-family="Fira Mono Medium" font-size="12.00"> missionary</text>
<text text-anchor="start" x="462" y="-7.4" font-family="Fira Mono Medium" font-style="italic" font-size="12.00">can&#45;drive:</text>
<text text-anchor="start" x="538" y="-7.4" font-family="Fira Mono Medium" font-size="12.00"> true</text>
</g>
<!-- node_6&#45;&gt;node_1 -->
<g id="edge13" class="edge">
<title>node_6&#45;&gt;node_1</title>
<path fill="none" stroke="black" d="M587.51,-35.55C611.31,-41.52 637.88,-49.6 661,-60 678.67,-67.95 696.82,-79.49 711.54,-89.86"/>
<polygon fill="black" stroke="black" points="709.61,-92.79 719.77,-95.8 713.71,-87.11 709.61,-92.79"/>
<text text-anchor="middle" x="633.5" y="-63" font-family="Fira Mono Medium" font-size="10.00">at</text>
</g>
</g>
</svg>
