<?xml version="1.0" encoding="UTF-8" standalone="no"?>
<!DOCTYPE svg PUBLIC "-//W3C//DTD SVG 1.1//EN"
 "http://www.w3.org/Graphics/SVG/1.1/DTD/svg11.dtd">
<!-- Generated by graphviz version 2.43.0 (0)
 -->
<!-- Title: %3 Pages: 1 -->
<svg width="1052pt" height="420pt"
 viewBox="0.00 0.00 1052.00 420.32" xmlns="http://www.w3.org/2000/svg" xmlns:xlink="http://www.w3.org/1999/xlink">
<g id="graph0" class="graph" transform="scale(1 1) rotate(0) translate(4 416.32)">
<title>%3</title>
<polygon fill="white" stroke="transparent" points="-4,4 -4,-416.32 1048,-416.32 1048,4 -4,4"/>
<!-- node_0 -->
<g id="node1" class="node">
<title>node_0</title>
<polygon fill="none" stroke="black" points="815,-109.32 693,-109.32 693,-73.32 815,-73.32 815,-109.32"/>
<text text-anchor="start" x="738.5" y="-94.72" font-family="Fira Mono Medium" font-weight="bold" font-size="12.00">bank</text>
<text text-anchor="start" x="701" y="-82.72" font-family="Fira Mono Medium" font-style="italic" font-size="12.00">location:</text>
<text text-anchor="start" x="769" y="-82.72" font-family="Fira Mono Medium" font-size="12.00"> left</text>
</g>
<!-- node_1 -->
<g id="node2" class="node">
<title>node_1</title>
<polygon fill="none" stroke="black" points="1044,-251.32 914,-251.32 914,-215.32 1044,-215.32 1044,-251.32"/>
<text text-anchor="start" x="963.5" y="-236.72" font-family="Fira Mono Medium" font-weight="bold" font-size="12.00">bank</text>
<text text-anchor="start" x="922" y="-224.72" font-family="Fira Mono Medium" font-style="italic" font-size="12.00">location:</text>
<text text-anchor="start" x="990" y="-224.72" font-family="Fira Mono Medium" font-size="12.00"> right</text>
</g>
<!-- node_0&#45;&gt;node_1 -->
<g id="edge1" class="edge">
<title>node_0&#45;&gt;node_1</title>
<path fill="none" stroke="black" d="M815.28,-93.44C841.76,-96.76 872.18,-104 896,-119.32 928.69,-140.35 952.46,-179.4 965.75,-205.87"/>
<polygon fill="black" stroke="black" points="962.66,-207.52 970.17,-214.99 968.96,-204.47 962.66,-207.52"/>
<text text-anchor="middle" x="868.5" y="-122.32" font-family="Fira Mono Medium" font-size="10.00">not&#45;equal</text>
</g>
<!-- node_1&#45;&gt;node_0 -->
<g id="edge2" class="edge">
<title>node_1&#45;&gt;node_0</title>
<path fill="none" stroke="black" d="M974.32,-215.07C966.52,-181.86 944.89,-112.31 896,-83.32 875.06,-70.9 849.14,-69.32 825.27,-72.04"/>
<polygon fill="black" stroke="black" points="824.6,-68.6 815.18,-73.45 825.57,-75.53 824.6,-68.6"/>
<text text-anchor="middle" x="868.5" y="-86.32" font-family="Fira Mono Medium" font-size="10.00">not&#45;equal</text>
</g>
<!-- node_2 -->
<g id="node3" class="node">
<title>node_2</title>
<polygon fill="none" stroke="black" points="781,-412.32 727,-412.32 727,-376.32 781,-376.32 781,-412.32"/>
<text text-anchor="start" x="738.5" y="-392.22" font-family="Fira Mono Medium" font-weight="bold" font-size="12.00">boat</text>
</g>
<!-- node_2&#45;&gt;node_1 -->
<g id="edge3" class="edge">
<title>node_2&#45;&gt;node_1</title>
<path fill="none" stroke="black" d="M781.04,-394.2C811.28,-392.84 861.43,-386.68 896,-362.32 931.86,-337.05 955.6,-290.62 967.92,-260.9"/>
<polygon fill="black" stroke="black" points="971.21,-262.1 971.66,-251.52 964.71,-259.51 971.21,-262.1"/>
<text text-anchor="middle" x="868.5" y="-388.32" font-family="Fira Mono Medium" font-size="10.00">at</text>
</g>
<!-- node_3 -->
<g id="node4" class="node">
<title>node_3</title>
<polygon fill="none" stroke="black" points="361.5,-293.32 231.5,-293.32 231.5,-249.32 361.5,-249.32 361.5,-293.32"/>
<text text-anchor="start" x="277.5" y="-280.72" font-family="Fira Mono Medium" font-weight="bold" font-size="12.00">human</text>
<text text-anchor="start" x="243.5" y="-268.72" font-family="Fira Mono Medium" font-style="italic" font-size="12.00">kind:</text>
<text text-anchor="start" x="281.5" y="-268.72" font-family="Fira Mono Medium" font-size="12.00"> cannibal</text>
<text text-anchor="start" x="239.5" y="-256.72" font-family="Fira Mono Medium" font-style="italic" font-size="12.00">can&#45;drive:</text>
<text text-anchor="start" x="315.5" y="-256.72" font-family="Fira Mono Medium" font-size="12.00"> true</text>
</g>
<!-- node_3&#45;&gt;node_1 -->
<g id="edge6" class="edge">
<title>node_3&#45;&gt;node_1</title>
<path fill="none" stroke="black" d="M352.21,-293.35C382.28,-304.15 420.57,-315.79 456,-320.32 617.96,-341.05 664.76,-343.58 823,-303.32 863.84,-292.93 907.33,-272.36 937.81,-256.2"/>
<polygon fill="black" stroke="black" points="939.69,-259.16 946.83,-251.34 936.37,-253 939.69,-259.16"/>
<text text-anchor="middle" x="639.5" y="-337.32" font-family="Fira Mono Medium" font-size="10.00">at</text>
</g>
<!-- node_4 -->
<g id="node5" class="node">
<title>node_4</title>
<polygon fill="none" stroke="black" points="594,-311.32 456,-311.32 456,-267.32 594,-267.32 594,-311.32"/>
<text text-anchor="start" x="506" y="-298.72" font-family="Fira Mono Medium" font-weight="bold" font-size="12.00">human</text>
<text text-anchor="start" x="472" y="-286.72" font-family="Fira Mono Medium" font-style="italic" font-size="12.00">kind:</text>
<text text-anchor="start" x="510" y="-286.72" font-family="Fira Mono Medium" font-size="12.00"> cannibal</text>
<text text-anchor="start" x="464" y="-274.72" font-family="Fira Mono Medium" font-style="italic" font-size="12.00">can&#45;drive:</text>
<text text-anchor="start" x="540" y="-274.72" font-family="Fira Mono Medium" font-size="12.00"> false</text>
</g>
<!-- node_3&#45;&gt;node_4 -->
<g id="edge4" class="edge">
<title>node_3&#45;&gt;node_4</title>
<path fill="none" stroke="black" d="M361.85,-281.03C368.97,-281.9 376.13,-282.69 383,-283.32 403.25,-285.17 425.18,-286.45 445.59,-287.33"/>
<polygon fill="black" stroke="black" points="445.65,-290.84 455.78,-287.75 445.93,-283.85 445.65,-290.84"/>
<text text-anchor="middle" x="410.5" y="-289.32" font-family="Fira Mono Medium" font-size="10.00">not&#45;equal</text>
</g>
<!-- node_5 -->
<g id="node6" class="node">
<title>node_5</title>
<polygon fill="none" stroke="black" points="823,-255.32 685,-255.32 685,-211.32 823,-211.32 823,-255.32"/>
<text text-anchor="start" x="735" y="-242.72" font-family="Fira Mono Medium" font-weight="bold" font-size="12.00">human</text>
<text text-anchor="start" x="701" y="-230.72" font-family="Fira Mono Medium" font-style="italic" font-size="12.00">kind:</text>
<text text-anchor="start" x="739" y="-230.72" font-family="Fira Mono Medium" font-size="12.00"> cannibal</text>
<text text-anchor="start" x="693" y="-218.72" font-family="Fira Mono Medium" font-style="italic" font-size="12.00">can&#45;drive:</text>
<text text-anchor="start" x="769" y="-218.72" font-family="Fira Mono Medium" font-size="12.00"> false</text>
</g>
<!-- node_3&#45;&gt;node_5 -->
<g id="edge5" class="edge">
<title>node_3&#45;&gt;node_5</title>
<path fill="none" stroke="black" d="M361.74,-260.4C390.5,-255.82 424.88,-250.77 456,-247.32 525.08,-239.67 542.57,-239.5 612,-236.32 632.3,-235.39 654.25,-234.75 674.65,-234.3"/>
<polygon fill="black" stroke="black" points="674.92,-237.8 684.85,-234.09 674.78,-230.8 674.92,-237.8"/>
<text text-anchor="middle" x="525" y="-250.32" font-family="Fira Mono Medium" font-size="10.00">not&#45;equal</text>
</g>
<!-- node_4&#45;&gt;node_1 -->
<g id="edge9" class="edge">
<title>node_4&#45;&gt;node_1</title>
<path fill="none" stroke="black" d="M594.07,-290.18C600.13,-290.24 606.18,-290.29 612,-290.32 636.44,-290.46 642.64,-292.34 667,-290.32 737.05,-284.52 753.86,-276.99 823,-264.32 849.45,-259.47 878.36,-253.79 903.98,-248.63"/>
<polygon fill="black" stroke="black" points="904.88,-252.02 913.99,-246.6 903.49,-245.16 904.88,-252.02"/>
<text text-anchor="middle" x="754" y="-291.32" font-family="Fira Mono Medium" font-size="10.00">at</text>
</g>
<!-- node_4&#45;&gt;node_3 -->
<g id="edge7" class="edge">
<title>node_4&#45;&gt;node_3</title>
<path fill="none" stroke="black" d="M455.69,-272.82C449.73,-271.81 443.78,-270.95 438,-270.32 416.54,-267.98 393.13,-267.37 371.68,-267.59"/>
<polygon fill="black" stroke="black" points="371.6,-264.09 361.66,-267.75 371.71,-271.09 371.6,-264.09"/>
<text text-anchor="middle" x="410.5" y="-273.32" font-family="Fira Mono Medium" font-size="10.00">not&#45;equal</text>
</g>
<!-- node_4&#45;&gt;node_5 -->
<g id="edge8" class="edge">
<title>node_4&#45;&gt;node_5</title>
<path fill="none" stroke="black" d="M594.29,-279.62C617.55,-275.68 643.58,-270.57 667,-264.32 673.39,-262.62 679.97,-260.65 686.52,-258.54"/>
<polygon fill="black" stroke="black" points="687.68,-261.85 696.07,-255.38 685.48,-255.2 687.68,-261.85"/>
<text text-anchor="middle" x="639.5" y="-278.32" font-family="Fira Mono Medium" font-size="10.00">not&#45;equal</text>
</g>
<!-- node_5&#45;&gt;node_1 -->
<g id="edge12" class="edge">
<title>node_5&#45;&gt;node_1</title>
<path fill="none" stroke="black" d="M823.12,-233.32C848.56,-233.32 877.57,-233.32 903.56,-233.32"/>
<polygon fill="black" stroke="black" points="903.73,-236.82 913.73,-233.32 903.73,-229.82 903.73,-236.82"/>
<text text-anchor="middle" x="868.5" y="-236.32" font-family="Fira Mono Medium" font-size="10.00">at</text>
</g>
<!-- node_5&#45;&gt;node_3 -->
<g id="edge10" class="edge">
<title>node_5&#45;&gt;node_3</title>
<path fill="none" stroke="black" d="M684.76,-223.15C624.29,-215.89 533.78,-209.34 456,-221.32 424.62,-226.15 390.94,-236.07 362.73,-245.8"/>
<polygon fill="black" stroke="black" points="361.26,-242.61 352.99,-249.23 363.58,-249.21 361.26,-242.61"/>
<text text-anchor="middle" x="525" y="-224.32" font-family="Fira Mono Medium" font-size="10.00">not&#45;equal</text>
</g>
<!-- node_5&#45;&gt;node_4 -->
<g id="edge11" class="edge">
<title>node_5&#45;&gt;node_4</title>
<path fill="none" stroke="black" d="M684.79,-238.01C661.42,-240.68 635.3,-244.83 612,-251.32 600.93,-254.4 589.45,-258.66 578.62,-263.22"/>
<polygon fill="black" stroke="black" points="577.06,-260.08 569.29,-267.28 579.86,-266.49 577.06,-260.08"/>
<text text-anchor="middle" x="639.5" y="-254.32" font-family="Fira Mono Medium" font-size="10.00">not&#45;equal</text>
</g>
<!-- node_6 -->
<g id="node7" class="node">
<title>node_6</title>
<polygon fill="none" stroke="black" points="137,-59.32 0,-59.32 0,-15.32 137,-15.32 137,-59.32"/>
<text text-anchor="start" x="49.5" y="-46.72" font-family="Fira Mono Medium" font-weight="bold" font-size="12.00">human</text>
<text text-anchor="start" x="8" y="-34.72" font-family="Fira Mono Medium" font-style="italic" font-size="12.00">kind:</text>
<text text-anchor="start" x="46" y="-34.72" font-family="Fira Mono Medium" font-size="12.00"> missionary</text>
<text text-anchor="start" x="11.5" y="-22.72" font-family="Fira Mono Medium" font-style="italic" font-size="12.00">can&#45;drive:</text>
<text text-anchor="start" x="87.5" y="-22.72" font-family="Fira Mono Medium" font-size="12.00"> true</text>
</g>
<!-- node_6&#45;&gt;node_1 -->
<g id="edge15" class="edge">
<title>node_6&#45;&gt;node_1</title>
<path fill="none" stroke="black" d="M96.09,-59.49C136.48,-90.83 216.93,-144.32 295.5,-144.32 295.5,-144.32 295.5,-144.32 755,-144.32 825.83,-144.32 900.87,-183.53 943.34,-209.9"/>
<polygon fill="black" stroke="black" points="941.57,-212.92 951.89,-215.31 945.31,-207 941.57,-212.92"/>
<text text-anchor="middle" x="525" y="-147.32" font-family="Fira Mono Medium" font-size="10.00">at</text>
</g>
<!-- node_7 -->
<g id="node8" class="node">
<title>node_7</title>
<polygon fill="none" stroke="black" points="365,-93.32 228,-93.32 228,-49.32 365,-49.32 365,-93.32"/>
<text text-anchor="start" x="277.5" y="-80.72" font-family="Fira Mono Medium" font-weight="bold" font-size="12.00">human</text>
<text text-anchor="start" x="236" y="-68.72" font-family="Fira Mono Medium" font-style="italic" font-size="12.00">kind:</text>
<text text-anchor="start" x="274" y="-68.72" font-family="Fira Mono Medium" font-size="12.00"> missionary</text>
<text text-anchor="start" x="239.5" y="-56.72" font-family="Fira Mono Medium" font-style="italic" font-size="12.00">can&#45;drive:</text>
<text text-anchor="start" x="315.5" y="-56.72" font-family="Fira Mono Medium" font-size="12.00"> true</text>
</g>
<!-- node_6&#45;&gt;node_7 -->
<g id="edge13" class="edge">
<title>node_6&#45;&gt;node_7</title>
<path fill="none" stroke="black" d="M137,-47.48C162.49,-51.31 191.69,-55.7 218.02,-59.66"/>
<polygon fill="black" stroke="black" points="217.55,-63.13 227.96,-61.16 218.59,-56.21 217.55,-63.13"/>
<text text-anchor="middle" x="182.5" y="-61.32" font-family="Fira Mono Medium" font-size="10.00">not&#45;equal</text>
</g>
<!-- node_8 -->
<g id="node9" class="node">
<title>node_8</title>
<polygon fill="none" stroke="black" points="593.5,-59.32 456.5,-59.32 456.5,-15.32 593.5,-15.32 593.5,-59.32"/>
<text text-anchor="start" x="506" y="-46.72" font-family="Fira Mono Medium" font-weight="bold" font-size="12.00">human</text>
<text text-anchor="start" x="464.5" y="-34.72" font-family="Fira Mono Medium" font-style="italic" font-size="12.00">kind:</text>
<text text-anchor="start" x="502.5" y="-34.72" font-family="Fira Mono Medium" font-size="12.00"> missionary</text>
<text text-anchor="start" x="468" y="-22.72" font-family="Fira Mono Medium" font-style="italic" font-size="12.00">can&#45;drive:</text>
<text text-anchor="start" x="544" y="-22.72" font-family="Fira Mono Medium" font-size="12.00"> true</text>
</g>
<!-- node_6&#45;&gt;node_8 -->
<g id="edge14" class="edge">
<title>node_6&#45;&gt;node_8</title>
<path fill="none" stroke="black" d="M137.1,-27.81C143.14,-27.21 149.18,-26.69 155,-26.32 280.52,-18.28 312.48,-18.32 438,-26.32 440.72,-26.49 443.49,-26.7 446.28,-26.93"/>
<polygon fill="black" stroke="black" points="446.2,-30.43 456.48,-27.86 446.84,-23.46 446.2,-30.43"/>
<text text-anchor="middle" x="296.5" y="-24.32" font-family="Fira Mono Medium" font-size="10.00">not&#45;equal</text>
</g>
<!-- node_7&#45;&gt;node_0 -->
<g id="edge18" class="edge">
<title>node_7&#45;&gt;node_0</title>
<path fill="none" stroke="black" d="M365.2,-74.29C450.46,-78.04 596.22,-84.44 682.69,-88.23"/>
<polygon fill="black" stroke="black" points="682.79,-91.74 692.93,-88.68 683.1,-84.75 682.79,-91.74"/>
<text text-anchor="middle" x="525" y="-86.32" font-family="Fira Mono Medium" font-size="10.00">at</text>
</g>
<!-- node_7&#45;&gt;node_6 -->
<g id="edge16" class="edge">
<title>node_7&#45;&gt;node_6</title>
<path fill="none" stroke="black" d="M250.81,-49.22C237.95,-43.92 223.69,-39.01 210,-36.32 189.93,-32.37 167.94,-31.12 147.44,-31.21"/>
<polygon fill="black" stroke="black" points="147.14,-27.72 137.19,-31.37 147.24,-34.72 147.14,-27.72"/>
<text text-anchor="middle" x="182.5" y="-39.32" font-family="Fira Mono Medium" font-size="10.00">not&#45;equal</text>
</g>
<!-- node_7&#45;&gt;node_8 -->
<g id="edge17" class="edge">
<title>node_7&#45;&gt;node_8</title>
<path fill="none" stroke="black" d="M365.15,-61.16C390.7,-57.33 419.96,-52.94 446.35,-48.98"/>
<polygon fill="black" stroke="black" points="446.94,-52.43 456.31,-47.48 445.9,-45.5 446.94,-52.43"/>
<text text-anchor="middle" x="410.5" y="-61.32" font-family="Fira Mono Medium" font-size="10.00">not&#45;equal</text>
</g>
<!-- node_8&#45;&gt;node_0 -->
<g id="edge21" class="edge">
<title>node_8&#45;&gt;node_0</title>
<path fill="none" stroke="black" d="M593.8,-53.45C621.96,-60.15 654.64,-67.92 683.03,-74.67"/>
<polygon fill="black" stroke="black" points="682.34,-78.11 692.87,-77.02 683.96,-71.3 682.34,-78.11"/>
<text text-anchor="middle" x="639.5" y="-73.32" font-family="Fira Mono Medium" font-size="10.00">at</text>
</g>
<!-- node_8&#45;&gt;node_6 -->
<g id="edge19" class="edge">
<title>node_8&#45;&gt;node_6</title>
<path fill="none" stroke="black" d="M456.44,-22.21C450.21,-20.87 443.99,-19.56 438,-18.32 405.65,-11.64 397.89,-7.45 365,-4.32 304.38,1.44 288.62,1.44 228,-4.32 195.11,-7.45 187.35,-11.62 155,-18.32 152.37,-18.86 149.69,-19.42 146.99,-20"/>
<polygon fill="black" stroke="black" points="146.18,-16.59 137.13,-22.1 147.64,-23.43 146.18,-16.59"/>
<text text-anchor="middle" x="296.5" y="-7.32" font-family="Fira Mono Medium" font-size="10.00">not&#45;equal</text>
</g>
<!-- node_8&#45;&gt;node_7 -->
<g id="edge20" class="edge">
<title>node_8&#45;&gt;node_7</title>
<path fill="none" stroke="black" d="M456.43,-31.36C432.99,-30.74 406.66,-31.66 383,-36.32 372.62,-38.36 361.92,-41.67 351.75,-45.46"/>
<polygon fill="black" stroke="black" points="350.21,-42.31 342.19,-49.22 352.77,-48.82 350.21,-42.31"/>
<text text-anchor="middle" x="410.5" y="-39.32" font-family="Fira Mono Medium" font-size="10.00">not&#45;equal</text>
</g>
</g>
</svg>
