<?xml version="1.0" encoding="UTF-8" standalone="no"?>
<!DOCTYPE svg PUBLIC "-//W3C//DTD SVG 1.1//EN"
 "http://www.w3.org/Graphics/SVG/1.1/DTD/svg11.dtd">
<!-- Generated by graphviz version 2.43.0 (0)
 -->
<!-- Title: %3 Pages: 1 -->
<svg width="824pt" height="455pt"
 viewBox="0.00 0.00 824.00 455.35" xmlns="http://www.w3.org/2000/svg" xmlns:xlink="http://www.w3.org/1999/xlink">
<g id="graph0" class="graph" transform="scale(1 1) rotate(0) translate(4 451.35)">
<title>%3</title>
<polygon fill="white" stroke="transparent" points="-4,4 -4,-451.35 820,-451.35 820,4 -4,4"/>
<!-- node_0 -->
<g id="node1" class="node">
<title>node_0</title>
<polygon fill="none" stroke="black" points="587,-447.35 465,-447.35 465,-411.35 587,-411.35 587,-447.35"/>
<text text-anchor="start" x="510.5" y="-432.75" font-family="Fira Mono Medium" font-weight="bold" font-size="12.00">bank</text>
<text text-anchor="start" x="473" y="-420.75" font-family="Fira Mono Medium" font-style="italic" font-size="12.00">location:</text>
<text text-anchor="start" x="541" y="-420.75" font-family="Fira Mono Medium" font-size="12.00"> left</text>
</g>
<!-- node_1 -->
<g id="node2" class="node">
<title>node_1</title>
<polygon fill="none" stroke="black" points="816,-308.35 686,-308.35 686,-272.35 816,-272.35 816,-308.35"/>
<text text-anchor="start" x="735.5" y="-293.75" font-family="Fira Mono Medium" font-weight="bold" font-size="12.00">bank</text>
<text text-anchor="start" x="694" y="-281.75" font-family="Fira Mono Medium" font-style="italic" font-size="12.00">location:</text>
<text text-anchor="start" x="762" y="-281.75" font-family="Fira Mono Medium" font-size="12.00"> right</text>
</g>
<!-- node_0&#45;&gt;node_1 -->
<g id="edge1" class="edge">
<title>node_0&#45;&gt;node_1</title>
<path fill="none" stroke="black" d="M587.25,-430.85C613.72,-428.98 644.14,-423.17 668,-408.35 702.31,-387.04 726.02,-345.49 738.82,-317.82"/>
<polygon fill="black" stroke="black" points="742.02,-319.23 742.89,-308.67 735.63,-316.38 742.02,-319.23"/>
<text text-anchor="middle" x="640.5" y="-430.35" font-family="Fira Mono Medium" font-size="10.00">not&#45;equal</text>
</g>
<!-- node_1&#45;&gt;node_0 -->
<g id="edge2" class="edge">
<title>node_1&#45;&gt;node_0</title>
<path fill="none" stroke="black" d="M735.65,-308.42C720.45,-326.58 694.98,-354.38 668,-372.35 660.7,-377.21 603.13,-399.07 595,-402.35 590.85,-404.03 586.55,-405.76 582.22,-407.49"/>
<polygon fill="black" stroke="black" points="580.74,-404.31 572.75,-411.27 583.34,-410.81 580.74,-404.31"/>
<text text-anchor="middle" x="640.5" y="-397.35" font-family="Fira Mono Medium" font-size="10.00">not&#45;equal</text>
</g>
<!-- node_2 -->
<g id="node3" class="node">
<title>node_2</title>
<polygon fill="none" stroke="black" points="553,-393.35 499,-393.35 499,-357.35 553,-357.35 553,-393.35"/>
<text text-anchor="start" x="510.5" y="-373.25" font-family="Fira Mono Medium" font-weight="bold" font-size="12.00">boat</text>
</g>
<!-- node_2&#45;&gt;node_1 -->
<g id="edge3" class="edge">
<title>node_2&#45;&gt;node_1</title>
<path fill="none" stroke="black" d="M553.22,-371.31C582.12,-366.29 629.6,-356.38 668,-340.35 684.69,-333.38 701.96,-323.34 716.32,-314.08"/>
<polygon fill="black" stroke="black" points="718.44,-316.88 724.86,-308.45 714.58,-311.04 718.44,-316.88"/>
<text text-anchor="middle" x="640.5" y="-360.35" font-family="Fira Mono Medium" font-size="10.00">at</text>
</g>
<!-- node_3 -->
<g id="node4" class="node">
<title>node_3</title>
<polygon fill="none" stroke="black" points="133.5,-275.35 3.5,-275.35 3.5,-231.35 133.5,-231.35 133.5,-275.35"/>
<text text-anchor="start" x="49.5" y="-262.75" font-family="Fira Mono Medium" font-weight="bold" font-size="12.00">human</text>
<text text-anchor="start" x="15.5" y="-250.75" font-family="Fira Mono Medium" font-style="italic" font-size="12.00">kind:</text>
<text text-anchor="start" x="53.5" y="-250.75" font-family="Fira Mono Medium" font-size="12.00"> cannibal</text>
<text text-anchor="start" x="11.5" y="-238.75" font-family="Fira Mono Medium" font-style="italic" font-size="12.00">can&#45;drive:</text>
<text text-anchor="start" x="87.5" y="-238.75" font-family="Fira Mono Medium" font-size="12.00"> true</text>
</g>
<!-- node_3&#45;&gt;node_1 -->
<g id="edge6" class="edge">
<title>node_3&#45;&gt;node_1</title>
<path fill="none" stroke="black" d="M124.21,-275.38C154.28,-286.18 192.57,-297.82 228,-302.35 386.43,-322.63 574.06,-309.31 675.64,-299.03"/>
<polygon fill="black" stroke="black" points="676.21,-302.49 685.79,-297.99 675.49,-295.53 676.21,-302.49"/>
<text text-anchor="middle" x="411.5" y="-315.35" font-family="Fira Mono Medium" font-size="10.00">at</text>
</g>
<!-- node_4 -->
<g id="node5" class="node">
<title>node_4</title>
<polygon fill="none" stroke="black" points="366,-293.35 228,-293.35 228,-249.35 366,-249.35 366,-293.35"/>
<text text-anchor="start" x="278" y="-280.75" font-family="Fira Mono Medium" font-weight="bold" font-size="12.00">human</text>
<text text-anchor="start" x="244" y="-268.75" font-family="Fira Mono Medium" font-style="italic" font-size="12.00">kind:</text>
<text text-anchor="start" x="282" y="-268.75" font-family="Fira Mono Medium" font-size="12.00"> cannibal</text>
<text text-anchor="start" x="236" y="-256.75" font-family="Fira Mono Medium" font-style="italic" font-size="12.00">can&#45;drive:</text>
<text text-anchor="start" x="312" y="-256.75" font-family="Fira Mono Medium" font-size="12.00"> false</text>
</g>
<!-- node_3&#45;&gt;node_4 -->
<g id="edge4" class="edge">
<title>node_3&#45;&gt;node_4</title>
<path fill="none" stroke="black" d="M133.85,-263.06C140.97,-263.94 148.13,-264.73 155,-265.35 175.25,-267.2 197.18,-268.48 217.59,-269.37"/>
<polygon fill="black" stroke="black" points="217.65,-272.87 227.78,-269.78 217.93,-265.88 217.65,-272.87"/>
<text text-anchor="middle" x="182.5" y="-271.35" font-family="Fira Mono Medium" font-size="10.00">not&#45;equal</text>
</g>
<!-- node_5 -->
<g id="node6" class="node">
<title>node_5</title>
<polygon fill="none" stroke="black" points="595,-254.35 457,-254.35 457,-210.35 595,-210.35 595,-254.35"/>
<text text-anchor="start" x="507" y="-241.75" font-family="Fira Mono Medium" font-weight="bold" font-size="12.00">human</text>
<text text-anchor="start" x="473" y="-229.75" font-family="Fira Mono Medium" font-style="italic" font-size="12.00">kind:</text>
<text text-anchor="start" x="511" y="-229.75" font-family="Fira Mono Medium" font-size="12.00"> cannibal</text>
<text text-anchor="start" x="465" y="-217.75" font-family="Fira Mono Medium" font-style="italic" font-size="12.00">can&#45;drive:</text>
<text text-anchor="start" x="541" y="-217.75" font-family="Fira Mono Medium" font-size="12.00"> false</text>
</g>
<!-- node_3&#45;&gt;node_5 -->
<g id="edge5" class="edge">
<title>node_3&#45;&gt;node_5</title>
<path fill="none" stroke="black" d="M133.69,-241.96C162.45,-237.29 196.83,-232.3 228,-229.35 321.4,-220.51 345.31,-218.46 439,-223.35 441.56,-223.49 444.16,-223.64 446.78,-223.81"/>
<polygon fill="black" stroke="black" points="446.75,-227.32 456.98,-224.57 447.27,-220.34 446.75,-227.32"/>
<text text-anchor="middle" x="297" y="-232.35" font-family="Fira Mono Medium" font-size="10.00">not&#45;equal</text>
</g>
<!-- node_4&#45;&gt;node_1 -->
<g id="edge9" class="edge">
<title>node_4&#45;&gt;node_1</title>
<path fill="none" stroke="black" d="M366.16,-274.22C449.34,-277.71 589.51,-283.61 675.48,-287.22"/>
<polygon fill="black" stroke="black" points="675.55,-290.72 685.68,-287.65 675.84,-283.73 675.55,-290.72"/>
<text text-anchor="middle" x="526" y="-286.35" font-family="Fira Mono Medium" font-size="10.00">at</text>
</g>
<!-- node_4&#45;&gt;node_3 -->
<g id="edge7" class="edge">
<title>node_4&#45;&gt;node_3</title>
<path fill="none" stroke="black" d="M227.69,-254.85C221.73,-253.84 215.78,-252.98 210,-252.35 188.54,-250.01 165.13,-249.41 143.68,-249.62"/>
<polygon fill="black" stroke="black" points="143.6,-246.12 133.66,-249.78 143.71,-253.12 143.6,-246.12"/>
<text text-anchor="middle" x="182.5" y="-255.35" font-family="Fira Mono Medium" font-size="10.00">not&#45;equal</text>
</g>
<!-- node_4&#45;&gt;node_5 -->
<g id="edge8" class="edge">
<title>node_4&#45;&gt;node_5</title>
<path fill="none" stroke="black" d="M366.11,-259.65C391.58,-255.27 420.71,-250.27 447.01,-245.75"/>
<polygon fill="black" stroke="black" points="447.68,-249.19 456.94,-244.04 446.49,-242.29 447.68,-249.19"/>
<text text-anchor="middle" x="411.5" y="-259.35" font-family="Fira Mono Medium" font-size="10.00">not&#45;equal</text>
</g>
<!-- node_5&#45;&gt;node_1 -->
<g id="edge12" class="edge">
<title>node_5&#45;&gt;node_1</title>
<path fill="none" stroke="black" d="M595,-247.31C618.24,-252.68 644.33,-258.98 668,-265.35 672.69,-266.61 677.52,-267.96 682.38,-269.35"/>
<polygon fill="black" stroke="black" points="681.77,-272.82 692.35,-272.25 683.72,-266.1 681.77,-272.82"/>
<text text-anchor="middle" x="640.5" y="-268.35" font-family="Fira Mono Medium" font-size="10.00">at</text>
</g>
<!-- node_5&#45;&gt;node_3 -->
<g id="edge10" class="edge">
<title>node_5&#45;&gt;node_3</title>
<path fill="none" stroke="black" d="M456.92,-217.03C396.56,-205.62 306.11,-193.84 228,-205.35 197.59,-209.83 164.95,-218.94 137.23,-228.03"/>
<polygon fill="black" stroke="black" points="136.01,-224.75 127.64,-231.24 138.23,-231.39 136.01,-224.75"/>
<text text-anchor="middle" x="297" y="-208.35" font-family="Fira Mono Medium" font-size="10.00">not&#45;equal</text>
</g>
<!-- node_5&#45;&gt;node_4 -->
<g id="edge11" class="edge">
<title>node_5&#45;&gt;node_4</title>
<path fill="none" stroke="black" d="M456.97,-227.27C433.62,-226.99 407.46,-228.31 384,-233.35 372.03,-235.92 359.69,-240.25 348.23,-245.08"/>
<polygon fill="black" stroke="black" points="346.57,-241.99 338.84,-249.23 349.4,-248.39 346.57,-241.99"/>
<text text-anchor="middle" x="411.5" y="-236.35" font-family="Fira Mono Medium" font-size="10.00">not&#45;equal</text>
</g>
<!-- node_6 -->
<g id="node7" class="node">
<title>node_6</title>
<polygon fill="none" stroke="black" points="137,-59.35 0,-59.35 0,-15.35 137,-15.35 137,-59.35"/>
<text text-anchor="start" x="49.5" y="-46.75" font-family="Fira Mono Medium" font-weight="bold" font-size="12.00">human</text>
<text text-anchor="start" x="8" y="-34.75" font-family="Fira Mono Medium" font-style="italic" font-size="12.00">kind:</text>
<text text-anchor="start" x="46" y="-34.75" font-family="Fira Mono Medium" font-size="12.00"> missionary</text>
<text text-anchor="start" x="11.5" y="-22.75" font-family="Fira Mono Medium" font-style="italic" font-size="12.00">can&#45;drive:</text>
<text text-anchor="start" x="87.5" y="-22.75" font-family="Fira Mono Medium" font-size="12.00"> true</text>
</g>
<!-- node_6&#45;&gt;node_1 -->
<g id="edge15" class="edge">
<title>node_6&#45;&gt;node_1</title>
<path fill="none" stroke="black" d="M118.46,-59.46C149.46,-72.95 190.6,-89.92 228,-102.35 388.32,-155.63 438.9,-136.75 595,-201.35 638.19,-219.22 684.22,-246.88 714.79,-266.61"/>
<polygon fill="black" stroke="black" points="713.09,-269.68 723.37,-272.21 716.91,-263.82 713.09,-269.68"/>
<text text-anchor="middle" x="411.5" y="-155.35" font-family="Fira Mono Medium" font-size="10.00">at</text>
</g>
<!-- node_7 -->
<g id="node8" class="node">
<title>node_7</title>
<polygon fill="none" stroke="black" points="365.5,-93.35 228.5,-93.35 228.5,-49.35 365.5,-49.35 365.5,-93.35"/>
<text text-anchor="start" x="278" y="-80.75" font-family="Fira Mono Medium" font-weight="bold" font-size="12.00">human</text>
<text text-anchor="start" x="236.5" y="-68.75" font-family="Fira Mono Medium" font-style="italic" font-size="12.00">kind:</text>
<text text-anchor="start" x="274.5" y="-68.75" font-family="Fira Mono Medium" font-size="12.00"> missionary</text>
<text text-anchor="start" x="240" y="-56.75" font-family="Fira Mono Medium" font-style="italic" font-size="12.00">can&#45;drive:</text>
<text text-anchor="start" x="316" y="-56.75" font-family="Fira Mono Medium" font-size="12.00"> true</text>
</g>
<!-- node_6&#45;&gt;node_7 -->
<g id="edge13" class="edge">
<title>node_6&#45;&gt;node_7</title>
<path fill="none" stroke="black" d="M137.15,-47.51C162.7,-51.34 191.96,-55.73 218.35,-59.69"/>
<polygon fill="black" stroke="black" points="217.9,-63.17 228.31,-61.19 218.94,-56.24 217.9,-63.17"/>
<text text-anchor="middle" x="182.5" y="-61.35" font-family="Fira Mono Medium" font-size="10.00">not&#45;equal</text>
</g>
<!-- node_8 -->
<g id="node9" class="node">
<title>node_8</title>
<polygon fill="none" stroke="black" points="594.5,-59.35 457.5,-59.35 457.5,-15.35 594.5,-15.35 594.5,-59.35"/>
<text text-anchor="start" x="507" y="-46.75" font-family="Fira Mono Medium" font-weight="bold" font-size="12.00">human</text>
<text text-anchor="start" x="465.5" y="-34.75" font-family="Fira Mono Medium" font-style="italic" font-size="12.00">kind:</text>
<text text-anchor="start" x="503.5" y="-34.75" font-family="Fira Mono Medium" font-size="12.00"> missionary</text>
<text text-anchor="start" x="469" y="-22.75" font-family="Fira Mono Medium" font-style="italic" font-size="12.00">can&#45;drive:</text>
<text text-anchor="start" x="545" y="-22.75" font-family="Fira Mono Medium" font-size="12.00"> true</text>
</g>
<!-- node_6&#45;&gt;node_8 -->
<g id="edge14" class="edge">
<title>node_6&#45;&gt;node_8</title>
<path fill="none" stroke="black" d="M137.1,-27.84C143.14,-27.24 149.18,-26.72 155,-26.35 280.96,-18.28 313.03,-18.33 439,-26.35 441.72,-26.52 444.49,-26.73 447.28,-26.96"/>
<polygon fill="black" stroke="black" points="447.2,-30.46 457.48,-27.89 447.84,-23.49 447.2,-30.46"/>
<text text-anchor="middle" x="297" y="-24.35" font-family="Fira Mono Medium" font-size="10.00">not&#45;equal</text>
</g>
<!-- node_7&#45;&gt;node_1 -->
<g id="edge18" class="edge">
<title>node_7&#45;&gt;node_1</title>
<path fill="none" stroke="black" d="M365.59,-73.1C458.96,-76.76 621.21,-88.01 668,-122.35 714.4,-156.4 735.86,-223.89 744.67,-262.15"/>
<polygon fill="black" stroke="black" points="741.29,-263.09 746.83,-272.12 748.13,-261.6 741.29,-263.09"/>
<text text-anchor="middle" x="526" y="-98.35" font-family="Fira Mono Medium" font-size="10.00">at</text>
</g>
<!-- node_7&#45;&gt;node_6 -->
<g id="edge16" class="edge">
<title>node_7&#45;&gt;node_6</title>
<path fill="none" stroke="black" d="M251.04,-49.25C238.1,-43.95 223.76,-39.04 210,-36.35 189.93,-32.42 167.94,-31.18 147.43,-31.27"/>
<polygon fill="black" stroke="black" points="147.13,-27.78 137.19,-31.43 147.24,-34.78 147.13,-27.78"/>
<text text-anchor="middle" x="182.5" y="-39.35" font-family="Fira Mono Medium" font-size="10.00">not&#45;equal</text>
</g>
<!-- node_7&#45;&gt;node_8 -->
<g id="edge17" class="edge">
<title>node_7&#45;&gt;node_8</title>
<path fill="none" stroke="black" d="M365.8,-61.2C391.4,-57.36 420.73,-52.97 447.18,-49.01"/>
<polygon fill="black" stroke="black" points="447.79,-52.46 457.16,-47.51 446.75,-45.53 447.79,-52.46"/>
<text text-anchor="middle" x="411.5" y="-61.35" font-family="Fira Mono Medium" font-size="10.00">not&#45;equal</text>
</g>
<!-- node_8&#45;&gt;node_1 -->
<g id="edge21" class="edge">
<title>node_8&#45;&gt;node_1</title>
<path fill="none" stroke="black" d="M594.56,-40.95C620.16,-45.44 647.93,-54.5 668,-72.35 724.47,-122.6 742.19,-215.71 747.65,-262.29"/>
<polygon fill="black" stroke="black" points="744.17,-262.71 748.71,-272.28 751.13,-261.97 744.17,-262.71"/>
<text text-anchor="middle" x="640.5" y="-75.35" font-family="Fira Mono Medium" font-size="10.00">at</text>
</g>
<!-- node_8&#45;&gt;node_6 -->
<g id="edge19" class="edge">
<title>node_8&#45;&gt;node_6</title>
<path fill="none" stroke="black" d="M457.44,-22.24C451.21,-20.9 444.99,-19.59 439,-18.35 406.65,-11.68 398.89,-7.48 366,-4.35 304.94,1.45 289.06,1.45 228,-4.35 195.11,-7.48 187.35,-11.66 155,-18.35 152.37,-18.9 149.69,-19.46 146.99,-20.03"/>
<polygon fill="black" stroke="black" points="146.18,-16.62 137.13,-22.13 147.64,-23.47 146.18,-16.62"/>
<text text-anchor="middle" x="297" y="-7.35" font-family="Fira Mono Medium" font-size="10.00">not&#45;equal</text>
</g>
<!-- node_8&#45;&gt;node_7 -->
<g id="edge20" class="edge">
<title>node_8&#45;&gt;node_7</title>
<path fill="none" stroke="black" d="M457.43,-31.42C433.99,-30.8 407.66,-31.72 384,-36.35 373.57,-38.39 362.81,-41.7 352.58,-45.5"/>
<polygon fill="black" stroke="black" points="351,-42.35 342.96,-49.25 353.55,-48.87 351,-42.35"/>
<text text-anchor="middle" x="411.5" y="-39.35" font-family="Fira Mono Medium" font-size="10.00">not&#45;equal</text>
</g>
</g>
</svg>
