<?xml version="1.0" encoding="UTF-8" standalone="no"?>
<!DOCTYPE svg PUBLIC "-//W3C//DTD SVG 1.1//EN"
 "http://www.w3.org/Graphics/SVG/1.1/DTD/svg11.dtd">
<!-- Generated by graphviz version 2.43.0 (0)
 -->
<!-- Title: %3 Pages: 1 -->
<svg width="988pt" height="249pt"
 viewBox="0.00 0.00 988.00 249.00" xmlns="http://www.w3.org/2000/svg" xmlns:xlink="http://www.w3.org/1999/xlink">
<g id="graph0" class="graph" transform="scale(1 1) rotate(0) translate(4 245)">
<title>%3</title>
<polygon fill="white" stroke="transparent" points="-4,4 -4,-245 984,-245 984,4 -4,4"/>
<!-- node_0 -->
<g id="node1" class="node">
<title>node_0</title>
<polygon fill="none" stroke="black" points="759,-117 637,-117 637,-81 759,-81 759,-117"/>
<text text-anchor="start" x="682.5" y="-102.4" font-family="Fira Mono Medium" font-weight="bold" font-size="12.00">bank</text>
<text text-anchor="start" x="645" y="-90.4" font-family="Fira Mono Medium" font-style="italic" font-size="12.00">location:</text>
<text text-anchor="start" x="713" y="-90.4" font-family="Fira Mono Medium" font-size="12.00"> left</text>
</g>
<!-- node_1 -->
<g id="node2" class="node">
<title>node_1</title>
<polygon fill="none" stroke="black" points="980,-115 850,-115 850,-79 980,-79 980,-115"/>
<text text-anchor="start" x="899.5" y="-100.4" font-family="Fira Mono Medium" font-weight="bold" font-size="12.00">bank</text>
<text text-anchor="start" x="858" y="-88.4" font-family="Fira Mono Medium" font-style="italic" font-size="12.00">location:</text>
<text text-anchor="start" x="926" y="-88.4" font-family="Fira Mono Medium" font-size="12.00"> right</text>
</g>
<!-- node_0&#45;&gt;node_1 -->
<g id="edge1" class="edge">
<title>node_0&#45;&gt;node_1</title>
<path fill="none" stroke="black" d="M759.18,-98.44C784.07,-98.21 813.2,-97.94 839.43,-97.69"/>
<polygon fill="black" stroke="black" points="839.74,-101.19 849.7,-97.6 839.67,-94.19 839.74,-101.19"/>
<text text-anchor="middle" x="804.5" y="-101" font-family="Fira Mono Medium" font-size="10.00">not&#45;equal</text>
</g>
<!-- node_1&#45;&gt;node_0 -->
<g id="edge2" class="edge">
<title>node_1&#45;&gt;node_0</title>
<path fill="none" stroke="black" d="M849.69,-84.1C843.73,-83.25 837.77,-82.52 832,-82 807.66,-79.79 801.3,-79.38 777,-82 774.47,-82.27 771.9,-82.59 769.31,-82.96"/>
<polygon fill="black" stroke="black" points="768.6,-79.52 759.26,-84.53 769.68,-86.44 768.6,-79.52"/>
<text text-anchor="middle" x="804.5" y="-85" font-family="Fira Mono Medium" font-size="10.00">not&#45;equal</text>
</g>
<!-- node_2 -->
<g id="node3" class="node">
<title>node_2</title>
<polygon fill="none" stroke="black" points="725,-171 671,-171 671,-135 725,-135 725,-171"/>
<text text-anchor="start" x="682.5" y="-150.9" font-family="Fira Mono Medium" font-weight="bold" font-size="12.00">boat</text>
</g>
<!-- node_2&#45;&gt;node_1 -->
<g id="edge3" class="edge">
<title>node_2&#45;&gt;node_1</title>
<path fill="none" stroke="black" d="M725.36,-146.13C753.85,-138.71 800.51,-126.56 840.3,-116.2"/>
<polygon fill="black" stroke="black" points="841.19,-119.58 849.98,-113.67 839.42,-112.81 841.19,-119.58"/>
<text text-anchor="middle" x="804.5" y="-134" font-family="Fira Mono Medium" font-size="10.00">at</text>
</g>
<!-- node_3 -->
<g id="node4" class="node">
<title>node_3</title>
<polygon fill="none" stroke="black" points="130,-187 0,-187 0,-143 130,-143 130,-187"/>
<text text-anchor="start" x="46" y="-174.4" font-family="Fira Mono Medium" font-weight="bold" font-size="12.00">human</text>
<text text-anchor="start" x="12" y="-162.4" font-family="Fira Mono Medium" font-style="italic" font-size="12.00">kind:</text>
<text text-anchor="start" x="50" y="-162.4" font-family="Fira Mono Medium" font-size="12.00"> cannibal</text>
<text text-anchor="start" x="8" y="-150.4" font-family="Fira Mono Medium" font-style="italic" font-size="12.00">can&#45;drive:</text>
<text text-anchor="start" x="84" y="-150.4" font-family="Fira Mono Medium" font-size="12.00"> true</text>
</g>
<!-- node_3&#45;&gt;node_1 -->
<g id="edge6" class="edge">
<title>node_3&#45;&gt;node_1</title>
<path fill="none" stroke="black" d="M80.96,-142.75C113.21,-97.71 194.12,0 289,0 289,0 289,0 699,0 769.77,0 842.97,-44.21 883.07,-72.93"/>
<polygon fill="black" stroke="black" points="881.21,-75.91 891.35,-78.98 885.34,-70.26 881.21,-75.91"/>
<text text-anchor="middle" x="519" y="-3" font-family="Fira Mono Medium" font-size="10.00">at</text>
</g>
<!-- node_4 -->
<g id="node5" class="node">
<title>node_4</title>
<polygon fill="none" stroke="black" points="359,-214 221,-214 221,-170 359,-170 359,-214"/>
<text text-anchor="start" x="271" y="-201.4" font-family="Fira Mono Medium" font-weight="bold" font-size="12.00">human</text>
<text text-anchor="start" x="237" y="-189.4" font-family="Fira Mono Medium" font-style="italic" font-size="12.00">kind:</text>
<text text-anchor="start" x="275" y="-189.4" font-family="Fira Mono Medium" font-size="12.00"> cannibal</text>
<text text-anchor="start" x="229" y="-177.4" font-family="Fira Mono Medium" font-style="italic" font-size="12.00">can&#45;drive:</text>
<text text-anchor="start" x="305" y="-177.4" font-family="Fira Mono Medium" font-size="12.00"> false</text>
</g>
<!-- node_3&#45;&gt;node_4 -->
<g id="edge4" class="edge">
<title>node_3&#45;&gt;node_4</title>
<path fill="none" stroke="black" d="M130.43,-174.67C136.36,-175.49 142.29,-176.28 148,-177 168.27,-179.56 190.21,-182.04 210.61,-184.21"/>
<polygon fill="black" stroke="black" points="210.49,-187.72 220.81,-185.29 211.23,-180.76 210.49,-187.72"/>
<text text-anchor="middle" x="175.5" y="-186" font-family="Fira Mono Medium" font-size="10.00">not&#45;equal</text>
</g>
<!-- node_5 -->
<g id="node6" class="node">
<title>node_5</title>
<polygon fill="none" stroke="black" points="588,-187 450,-187 450,-143 588,-143 588,-187"/>
<text text-anchor="start" x="500" y="-174.4" font-family="Fira Mono Medium" font-weight="bold" font-size="12.00">human</text>
<text text-anchor="start" x="466" y="-162.4" font-family="Fira Mono Medium" font-style="italic" font-size="12.00">kind:</text>
<text text-anchor="start" x="504" y="-162.4" font-family="Fira Mono Medium" font-size="12.00"> cannibal</text>
<text text-anchor="start" x="458" y="-150.4" font-family="Fira Mono Medium" font-style="italic" font-size="12.00">can&#45;drive:</text>
<text text-anchor="start" x="534" y="-150.4" font-family="Fira Mono Medium" font-size="12.00"> false</text>
</g>
<!-- node_3&#45;&gt;node_5 -->
<g id="edge5" class="edge">
<title>node_3&#45;&gt;node_5</title>
<path fill="none" stroke="black" d="M130.44,-157.76C136.38,-157.14 142.3,-156.55 148,-156 273.65,-143.94 306.31,-143.39 432,-155 434.55,-155.24 437.15,-155.48 439.77,-155.74"/>
<polygon fill="black" stroke="black" points="439.66,-159.25 449.96,-156.79 440.37,-152.29 439.66,-159.25"/>
<text text-anchor="middle" x="290" y="-152" font-family="Fira Mono Medium" font-size="10.00">not&#45;equal</text>
</g>
<!-- node_4&#45;&gt;node_1 -->
<g id="edge9" class="edge">
<title>node_4&#45;&gt;node_1</title>
<path fill="none" stroke="black" d="M359.09,-200.18C451.5,-209.05 620.93,-217.41 759,-180 803.92,-167.83 850.3,-140.72 880.48,-120.78"/>
<polygon fill="black" stroke="black" points="882.58,-123.59 888.93,-115.11 878.68,-117.78 882.58,-123.59"/>
<text text-anchor="middle" x="612.5" y="-207" font-family="Fira Mono Medium" font-size="10.00">at</text>
</g>
<!-- node_4&#45;&gt;node_3 -->
<g id="edge7" class="edge">
<title>node_4&#45;&gt;node_3</title>
<path fill="none" stroke="black" d="M229.45,-169.96C220.68,-167.49 211.68,-165.38 203,-164 182.8,-160.79 160.72,-159.86 140.3,-160.02"/>
<polygon fill="black" stroke="black" points="140.04,-156.52 130.1,-160.19 140.16,-163.52 140.04,-156.52"/>
<text text-anchor="middle" x="175.5" y="-167" font-family="Fira Mono Medium" font-size="10.00">not&#45;equal</text>
</g>
<!-- node_4&#45;&gt;node_5 -->
<g id="edge8" class="edge">
<title>node_4&#45;&gt;node_5</title>
<path fill="none" stroke="black" d="M359.18,-185.2C382.32,-182.77 408.3,-179.91 432,-177 434.55,-176.69 437.15,-176.36 439.77,-176.03"/>
<polygon fill="black" stroke="black" points="440.49,-179.46 449.96,-174.7 439.59,-172.52 440.49,-179.46"/>
<text text-anchor="middle" x="404.5" y="-186" font-family="Fira Mono Medium" font-size="10.00">not&#45;equal</text>
</g>
<!-- node_5&#45;&gt;node_0 -->
<g id="edge12" class="edge">
<title>node_5&#45;&gt;node_0</title>
<path fill="none" stroke="black" d="M579.43,-142.84C598.68,-135.66 619.98,-127.72 639.11,-120.58"/>
<polygon fill="black" stroke="black" points="640.46,-123.82 648.6,-117.05 638.01,-117.26 640.46,-123.82"/>
<text text-anchor="middle" x="612.5" y="-135" font-family="Fira Mono Medium" font-size="10.00">at</text>
</g>
<!-- node_5&#45;&gt;node_3 -->
<g id="edge10" class="edge">
<title>node_5&#45;&gt;node_3</title>
<path fill="none" stroke="black" d="M461.21,-187.13C451.49,-190.82 441.47,-194.56 432,-198 399.76,-209.7 392.83,-217.37 359,-223 298.5,-233.07 281.5,-233.07 221,-223 186.22,-217.21 149.17,-203.64 120.01,-191.09"/>
<polygon fill="black" stroke="black" points="121.4,-187.87 110.84,-187.05 118.58,-194.28 121.4,-187.87"/>
<text text-anchor="middle" x="290" y="-233" font-family="Fira Mono Medium" font-size="10.00">not&#45;equal</text>
</g>
<!-- node_5&#45;&gt;node_4 -->
<g id="edge11" class="edge">
<title>node_5&#45;&gt;node_4</title>
<path fill="none" stroke="black" d="M449.89,-160.02C426.64,-159.51 400.57,-160.26 377,-164 371.57,-164.86 366.02,-166.01 360.48,-167.35"/>
<polygon fill="black" stroke="black" points="359.34,-164.03 350.55,-169.96 361.11,-170.81 359.34,-164.03"/>
<text text-anchor="middle" x="404.5" y="-167" font-family="Fira Mono Medium" font-size="10.00">not&#45;equal</text>
</g>
<!-- node_6 -->
<g id="node7" class="node">
<title>node_6</title>
<polygon fill="none" stroke="black" points="358.5,-94 221.5,-94 221.5,-50 358.5,-50 358.5,-94"/>
<text text-anchor="start" x="271" y="-81.4" font-family="Fira Mono Medium" font-weight="bold" font-size="12.00">human</text>
<text text-anchor="start" x="229.5" y="-69.4" font-family="Fira Mono Medium" font-style="italic" font-size="12.00">kind:</text>
<text text-anchor="start" x="267.5" y="-69.4" font-family="Fira Mono Medium" font-size="12.00"> missionary</text>
<text text-anchor="start" x="233" y="-57.4" font-family="Fira Mono Medium" font-style="italic" font-size="12.00">can&#45;drive:</text>
<text text-anchor="start" x="309" y="-57.4" font-family="Fira Mono Medium" font-size="12.00"> true</text>
</g>
<!-- node_6&#45;&gt;node_1 -->
<g id="edge14" class="edge">
<title>node_6&#45;&gt;node_1</title>
<path fill="none" stroke="black" d="M358.54,-63.4C364.77,-62.83 371,-62.35 377,-62 401.4,-60.59 407.56,-61.63 432,-62 609.87,-64.72 656.18,-48.94 832,-76 834.54,-76.39 837.12,-76.83 839.72,-77.3"/>
<polygon fill="black" stroke="black" points="839.3,-80.79 849.79,-79.29 840.66,-73.92 839.3,-80.79"/>
<text text-anchor="middle" x="612.5" y="-63" font-family="Fira Mono Medium" font-size="10.00">at</text>
</g>
<!-- node_7 -->
<g id="node8" class="node">
<title>node_7</title>
<polygon fill="none" stroke="black" points="587.5,-121 450.5,-121 450.5,-77 587.5,-77 587.5,-121"/>
<text text-anchor="start" x="500" y="-108.4" font-family="Fira Mono Medium" font-weight="bold" font-size="12.00">human</text>
<text text-anchor="start" x="458.5" y="-96.4" font-family="Fira Mono Medium" font-style="italic" font-size="12.00">kind:</text>
<text text-anchor="start" x="496.5" y="-96.4" font-family="Fira Mono Medium" font-size="12.00"> missionary</text>
<text text-anchor="start" x="462" y="-84.4" font-family="Fira Mono Medium" font-style="italic" font-size="12.00">can&#45;drive:</text>
<text text-anchor="start" x="538" y="-84.4" font-family="Fira Mono Medium" font-size="12.00"> true</text>
</g>
<!-- node_6&#45;&gt;node_7 -->
<g id="edge13" class="edge">
<title>node_6&#45;&gt;node_7</title>
<path fill="none" stroke="black" d="M358.57,-81.64C364.8,-82.47 371.01,-83.26 377,-84 397.47,-86.52 419.65,-88.99 440.22,-91.19"/>
<polygon fill="black" stroke="black" points="439.86,-94.67 450.17,-92.24 440.6,-87.71 439.86,-94.67"/>
<text text-anchor="middle" x="404.5" y="-93" font-family="Fira Mono Medium" font-size="10.00">not&#45;equal</text>
</g>
<!-- node_7&#45;&gt;node_0 -->
<g id="edge16" class="edge">
<title>node_7&#45;&gt;node_0</title>
<path fill="none" stroke="black" d="M587.67,-99C600.46,-99 613.85,-99 626.72,-99"/>
<polygon fill="black" stroke="black" points="626.89,-102.5 636.89,-99 626.89,-95.5 626.89,-102.5"/>
<text text-anchor="middle" x="612.5" y="-102" font-family="Fira Mono Medium" font-size="10.00">at</text>
</g>
<!-- node_7&#45;&gt;node_6 -->
<g id="edge15" class="edge">
<title>node_7&#45;&gt;node_6</title>
<path fill="none" stroke="black" d="M458.45,-76.96C449.68,-74.49 440.68,-72.38 432,-71 411.64,-67.77 389.41,-66.77 368.76,-66.89"/>
<polygon fill="black" stroke="black" points="368.7,-63.39 358.76,-67.03 368.8,-70.39 368.7,-63.39"/>
<text text-anchor="middle" x="404.5" y="-74" font-family="Fira Mono Medium" font-size="10.00">not&#45;equal</text>
</g>
</g>
</svg>
