<?xml version="1.0" encoding="UTF-8" standalone="no"?>
<!DOCTYPE svg PUBLIC "-//W3C//DTD SVG 1.1//EN"
 "http://www.w3.org/Graphics/SVG/1.1/DTD/svg11.dtd">
<!-- Generated by graphviz version 2.43.0 (0)
 -->
<!-- Title: %3 Pages: 1 -->
<svg width="817pt" height="308pt"
 viewBox="0.00 0.00 817.00 308.00" xmlns="http://www.w3.org/2000/svg" xmlns:xlink="http://www.w3.org/1999/xlink">
<g id="graph0" class="graph" transform="scale(1 1) rotate(0) translate(4 304)">
<title>%3</title>
<polygon fill="white" stroke="transparent" points="-4,4 -4,-304 813,-304 813,4 -4,4"/>
<!-- node_0 -->
<g id="node1" class="node">
<title>node_0</title>
<polygon fill="none" stroke="black" points="580,-76 458,-76 458,-40 580,-40 580,-76"/>
<text text-anchor="start" x="503.5" y="-61.4" font-family="Fira Mono Medium" font-weight="bold" font-size="12.00">bank</text>
<text text-anchor="start" x="466" y="-49.4" font-family="Fira Mono Medium" font-style="italic" font-size="12.00">location:</text>
<text text-anchor="start" x="534" y="-49.4" font-family="Fira Mono Medium" font-size="12.00"> left</text>
</g>
<!-- node_1 -->
<g id="node2" class="node">
<title>node_1</title>
<polygon fill="none" stroke="black" points="809,-155 679,-155 679,-119 809,-119 809,-155"/>
<text text-anchor="start" x="728.5" y="-140.4" font-family="Fira Mono Medium" font-weight="bold" font-size="12.00">bank</text>
<text text-anchor="start" x="687" y="-128.4" font-family="Fira Mono Medium" font-style="italic" font-size="12.00">location:</text>
<text text-anchor="start" x="755" y="-128.4" font-family="Fira Mono Medium" font-size="12.00"> right</text>
</g>
<!-- node_0&#45;&gt;node_1 -->
<g id="edge1" class="edge">
<title>node_0&#45;&gt;node_1</title>
<path fill="none" stroke="black" d="M570.88,-76.03C604.02,-87.76 647.41,-103.14 682.34,-115.51"/>
<polygon fill="black" stroke="black" points="681.36,-118.88 691.95,-118.92 683.69,-112.28 681.36,-118.88"/>
<text text-anchor="middle" x="633.5" y="-109" font-family="Fira Mono Medium" font-size="10.00">not&#45;equal</text>
</g>
<!-- node_1&#45;&gt;node_0 -->
<g id="edge2" class="edge">
<title>node_1&#45;&gt;node_0</title>
<path fill="none" stroke="black" d="M724.92,-118.78C709.39,-104.32 685.66,-84.95 661,-75 638.89,-66.08 613.37,-61.47 590.17,-59.19"/>
<polygon fill="black" stroke="black" points="590.3,-55.69 580.04,-58.32 589.7,-62.66 590.3,-55.69"/>
<text text-anchor="middle" x="633.5" y="-78" font-family="Fira Mono Medium" font-size="10.00">not&#45;equal</text>
</g>
<!-- node_2 -->
<g id="node3" class="node">
<title>node_2</title>
<polygon fill="none" stroke="black" points="546,-300 492,-300 492,-264 546,-264 546,-300"/>
<text text-anchor="start" x="503.5" y="-279.9" font-family="Fira Mono Medium" font-weight="bold" font-size="12.00">boat</text>
</g>
<!-- node_2&#45;&gt;node_1 -->
<g id="edge3" class="edge">
<title>node_2&#45;&gt;node_1</title>
<path fill="none" stroke="black" d="M546.05,-281.49C576.07,-279.75 625.8,-273.22 661,-250 693.26,-228.72 717.14,-190.12 730.57,-164.03"/>
<polygon fill="black" stroke="black" points="733.72,-165.55 735.04,-155.04 727.45,-162.43 733.72,-165.55"/>
<text text-anchor="middle" x="633.5" y="-275" font-family="Fira Mono Medium" font-size="10.00">at</text>
</g>
<!-- node_3 -->
<g id="node4" class="node">
<title>node_3</title>
<polygon fill="none" stroke="black" points="130,-172 0,-172 0,-128 130,-128 130,-172"/>
<text text-anchor="start" x="46" y="-159.4" font-family="Fira Mono Medium" font-weight="bold" font-size="12.00">human</text>
<text text-anchor="start" x="12" y="-147.4" font-family="Fira Mono Medium" font-style="italic" font-size="12.00">kind:</text>
<text text-anchor="start" x="50" y="-147.4" font-family="Fira Mono Medium" font-size="12.00"> cannibal</text>
<text text-anchor="start" x="8" y="-135.4" font-family="Fira Mono Medium" font-style="italic" font-size="12.00">can&#45;drive:</text>
<text text-anchor="start" x="84" y="-135.4" font-family="Fira Mono Medium" font-size="12.00"> true</text>
</g>
<!-- node_3&#45;&gt;node_1 -->
<g id="edge6" class="edge">
<title>node_3&#45;&gt;node_1</title>
<path fill="none" stroke="black" d="M121.55,-172.02C130.31,-175 139.33,-177.79 148,-180 179.79,-188.12 188.28,-188.55 221,-191 383.97,-203.21 426.37,-192.22 588,-168 614.47,-164.03 643.28,-158.59 668.79,-153.37"/>
<polygon fill="black" stroke="black" points="669.68,-156.76 678.77,-151.3 668.27,-149.9 669.68,-156.76"/>
<text text-anchor="middle" x="404.5" y="-197" font-family="Fira Mono Medium" font-size="10.00">at</text>
</g>
<!-- node_4 -->
<g id="node5" class="node">
<title>node_4</title>
<polygon fill="none" stroke="black" points="359,-112 221,-112 221,-68 359,-68 359,-112"/>
<text text-anchor="start" x="271" y="-99.4" font-family="Fira Mono Medium" font-weight="bold" font-size="12.00">human</text>
<text text-anchor="start" x="237" y="-87.4" font-family="Fira Mono Medium" font-style="italic" font-size="12.00">kind:</text>
<text text-anchor="start" x="275" y="-87.4" font-family="Fira Mono Medium" font-size="12.00"> cannibal</text>
<text text-anchor="start" x="229" y="-75.4" font-family="Fira Mono Medium" font-style="italic" font-size="12.00">can&#45;drive:</text>
<text text-anchor="start" x="305" y="-75.4" font-family="Fira Mono Medium" font-size="12.00"> false</text>
</g>
<!-- node_3&#45;&gt;node_4 -->
<g id="edge4" class="edge">
<title>node_3&#45;&gt;node_4</title>
<path fill="none" stroke="black" d="M88.55,-127.84C103.92,-114.35 125.49,-98.34 148,-91 167.8,-84.54 190.01,-82.26 210.85,-82.1"/>
<polygon fill="black" stroke="black" points="210.92,-85.6 220.95,-82.18 210.98,-78.6 210.92,-85.6"/>
<text text-anchor="middle" x="175.5" y="-94" font-family="Fira Mono Medium" font-size="10.00">not&#45;equal</text>
</g>
<!-- node_5 -->
<g id="node6" class="node">
<title>node_5</title>
<polygon fill="none" stroke="black" points="588,-159 450,-159 450,-115 588,-115 588,-159"/>
<text text-anchor="start" x="500" y="-146.4" font-family="Fira Mono Medium" font-weight="bold" font-size="12.00">human</text>
<text text-anchor="start" x="466" y="-134.4" font-family="Fira Mono Medium" font-style="italic" font-size="12.00">kind:</text>
<text text-anchor="start" x="504" y="-134.4" font-family="Fira Mono Medium" font-size="12.00"> cannibal</text>
<text text-anchor="start" x="458" y="-122.4" font-family="Fira Mono Medium" font-style="italic" font-size="12.00">can&#45;drive:</text>
<text text-anchor="start" x="534" y="-122.4" font-family="Fira Mono Medium" font-size="12.00"> false</text>
</g>
<!-- node_3&#45;&gt;node_5 -->
<g id="edge5" class="edge">
<title>node_3&#45;&gt;node_5</title>
<path fill="none" stroke="black" d="M130.33,-161.96C136.29,-162.77 142.25,-163.47 148,-164 273.7,-175.52 307.37,-183.98 432,-164 436.38,-163.3 440.84,-162.42 445.31,-161.42"/>
<polygon fill="black" stroke="black" points="446.21,-164.8 455.1,-159.03 444.55,-158 446.21,-164.8"/>
<text text-anchor="middle" x="290" y="-179" font-family="Fira Mono Medium" font-size="10.00">not&#45;equal</text>
</g>
<!-- node_4&#45;&gt;node_0 -->
<g id="edge9" class="edge">
<title>node_4&#45;&gt;node_0</title>
<path fill="none" stroke="black" d="M339.22,-67.96C351.3,-63.43 364.42,-59.33 377,-57 399.75,-52.78 424.93,-51.82 447.63,-52.28"/>
<polygon fill="black" stroke="black" points="447.77,-55.78 457.87,-52.58 447.98,-48.79 447.77,-55.78"/>
<text text-anchor="middle" x="404.5" y="-60" font-family="Fira Mono Medium" font-size="10.00">at</text>
</g>
<!-- node_4&#45;&gt;node_3 -->
<g id="edge7" class="edge">
<title>node_4&#45;&gt;node_3</title>
<path fill="none" stroke="black" d="M220.68,-106.19C197.54,-111.88 171.58,-118.48 148,-125 145.4,-125.72 142.76,-126.46 140.09,-127.22"/>
<polygon fill="black" stroke="black" points="139,-123.89 130.36,-130.03 140.94,-130.62 139,-123.89"/>
<text text-anchor="middle" x="175.5" y="-128" font-family="Fira Mono Medium" font-size="10.00">not&#45;equal</text>
</g>
<!-- node_4&#45;&gt;node_5 -->
<g id="edge8" class="edge">
<title>node_4&#45;&gt;node_5</title>
<path fill="none" stroke="black" d="M359.11,-104.1C384.58,-109.38 413.71,-115.41 440.01,-120.85"/>
<polygon fill="black" stroke="black" points="439.44,-124.31 449.94,-122.91 440.86,-117.45 439.44,-124.31"/>
<text text-anchor="middle" x="404.5" y="-122" font-family="Fira Mono Medium" font-size="10.00">not&#45;equal</text>
</g>
<!-- node_5&#45;&gt;node_1 -->
<g id="edge12" class="edge">
<title>node_5&#45;&gt;node_1</title>
<path fill="none" stroke="black" d="M588.12,-137C613.56,-137 642.57,-137 668.56,-137"/>
<polygon fill="black" stroke="black" points="668.73,-140.5 678.73,-137 668.73,-133.5 668.73,-140.5"/>
<text text-anchor="middle" x="633.5" y="-140" font-family="Fira Mono Medium" font-size="10.00">at</text>
</g>
<!-- node_5&#45;&gt;node_3 -->
<g id="edge10" class="edge">
<title>node_5&#45;&gt;node_3</title>
<path fill="none" stroke="black" d="M449.88,-138.96C366.69,-141.35 226.47,-145.38 140.49,-147.86"/>
<polygon fill="black" stroke="black" points="140.18,-144.37 130.28,-148.15 140.38,-151.36 140.18,-144.37"/>
<text text-anchor="middle" x="290" y="-148" font-family="Fira Mono Medium" font-size="10.00">not&#45;equal</text>
</g>
<!-- node_5&#45;&gt;node_4 -->
<g id="edge11" class="edge">
<title>node_5&#45;&gt;node_4</title>
<path fill="none" stroke="black" d="M484.75,-114.94C469.38,-105.99 450.46,-96.68 432,-92 412.01,-86.94 389.92,-84.99 369.26,-84.65"/>
<polygon fill="black" stroke="black" points="369.27,-81.15 359.25,-84.61 369.24,-88.15 369.27,-81.15"/>
<text text-anchor="middle" x="404.5" y="-95" font-family="Fira Mono Medium" font-size="10.00">not&#45;equal</text>
</g>
<!-- node_6 -->
<g id="node7" class="node">
<title>node_6</title>
<polygon fill="none" stroke="black" points="358.5,-44 221.5,-44 221.5,0 358.5,0 358.5,-44"/>
<text text-anchor="start" x="271" y="-31.4" font-family="Fira Mono Medium" font-weight="bold" font-size="12.00">human</text>
<text text-anchor="start" x="229.5" y="-19.4" font-family="Fira Mono Medium" font-style="italic" font-size="12.00">kind:</text>
<text text-anchor="start" x="267.5" y="-19.4" font-family="Fira Mono Medium" font-size="12.00"> missionary</text>
<text text-anchor="start" x="233" y="-7.4" font-family="Fira Mono Medium" font-style="italic" font-size="12.00">can&#45;drive:</text>
<text text-anchor="start" x="309" y="-7.4" font-family="Fira Mono Medium" font-size="12.00"> true</text>
</g>
<!-- node_6&#45;&gt;node_0 -->
<g id="edge13" class="edge">
<title>node_6&#45;&gt;node_0</title>
<path fill="none" stroke="black" d="M358.67,-27.35C382,-29.68 408.23,-32.85 432,-37 437.07,-37.89 442.29,-38.9 447.53,-39.99"/>
<polygon fill="black" stroke="black" points="447.09,-43.48 457.6,-42.18 448.57,-36.64 447.09,-43.48"/>
<text text-anchor="middle" x="404.5" y="-40" font-family="Fira Mono Medium" font-size="10.00">at</text>
</g>
</g>
</svg>
