<?xml version="1.0" encoding="UTF-8" standalone="no"?>
<!DOCTYPE svg PUBLIC "-//W3C//DTD SVG 1.1//EN"
 "http://www.w3.org/Graphics/SVG/1.1/DTD/svg11.dtd">
<!-- Generated by graphviz version 2.43.0 (0)
 -->
<!-- Title: %3 Pages: 1 -->
<svg width="1052pt" height="427pt"
 viewBox="0.00 0.00 1052.00 427.00" xmlns="http://www.w3.org/2000/svg" xmlns:xlink="http://www.w3.org/1999/xlink">
<g id="graph0" class="graph" transform="scale(1 1) rotate(0) translate(4 423)">
<title>%3</title>
<polygon fill="white" stroke="transparent" points="-4,4 -4,-423 1048,-423 1048,4 -4,4"/>
<!-- node_0 -->
<g id="node1" class="node">
<title>node_0</title>
<polygon fill="none" stroke="black" points="815,-306 693,-306 693,-270 815,-270 815,-306"/>
<text text-anchor="start" x="738.5" y="-291.4" font-family="Fira Mono Medium" font-weight="bold" font-size="12.00">bank</text>
<text text-anchor="start" x="701" y="-279.4" font-family="Fira Mono Medium" font-style="italic" font-size="12.00">location:</text>
<text text-anchor="start" x="769" y="-279.4" font-family="Fira Mono Medium" font-size="12.00"> left</text>
</g>
<!-- node_1 -->
<g id="node2" class="node">
<title>node_1</title>
<polygon fill="none" stroke="black" points="1044,-239 914,-239 914,-203 1044,-203 1044,-239"/>
<text text-anchor="start" x="963.5" y="-224.4" font-family="Fira Mono Medium" font-weight="bold" font-size="12.00">bank</text>
<text text-anchor="start" x="922" y="-212.4" font-family="Fira Mono Medium" font-style="italic" font-size="12.00">location:</text>
<text text-anchor="start" x="990" y="-212.4" font-family="Fira Mono Medium" font-size="12.00"> right</text>
</g>
<!-- node_0&#45;&gt;node_1 -->
<g id="edge1" class="edge">
<title>node_0&#45;&gt;node_1</title>
<path fill="none" stroke="black" d="M798.82,-269.99C812.24,-264.8 827.12,-259.37 841,-255 861.19,-248.65 883.35,-242.71 903.85,-237.63"/>
<polygon fill="black" stroke="black" points="904.88,-240.98 913.77,-235.21 903.22,-234.18 904.88,-240.98"/>
<text text-anchor="middle" x="868.5" y="-258" font-family="Fira Mono Medium" font-size="10.00">not&#45;equal</text>
</g>
<!-- node_1&#45;&gt;node_0 -->
<g id="edge2" class="edge">
<title>node_1&#45;&gt;node_0</title>
<path fill="none" stroke="black" d="M950.65,-239.15C935.21,-248.57 915.21,-259.45 896,-266 873.53,-273.66 848.13,-278.66 825.13,-281.93"/>
<polygon fill="black" stroke="black" points="824.55,-278.48 815.1,-283.27 825.48,-285.42 824.55,-278.48"/>
<text text-anchor="middle" x="868.5" y="-282" font-family="Fira Mono Medium" font-size="10.00">not&#45;equal</text>
</g>
<!-- node_2 -->
<g id="node3" class="node">
<title>node_2</title>
<polygon fill="none" stroke="black" points="552.5,-419 498.5,-419 498.5,-383 552.5,-383 552.5,-419"/>
<text text-anchor="start" x="510" y="-398.9" font-family="Fira Mono Medium" font-weight="bold" font-size="12.00">boat</text>
</g>
<!-- node_2&#45;&gt;node_0 -->
<g id="edge3" class="edge">
<title>node_2&#45;&gt;node_0</title>
<path fill="none" stroke="black" d="M552.51,-398.92C581.83,-395.69 630.19,-387.63 667,-368 692.28,-354.52 715.71,-331.74 731.71,-313.93"/>
<polygon fill="black" stroke="black" points="734.57,-315.98 738.52,-306.15 729.3,-311.37 734.57,-315.98"/>
<text text-anchor="middle" x="639.5" y="-390" font-family="Fira Mono Medium" font-size="10.00">at</text>
</g>
<!-- node_3 -->
<g id="node4" class="node">
<title>node_3</title>
<polygon fill="none" stroke="black" points="590.5,-175 460.5,-175 460.5,-131 590.5,-131 590.5,-175"/>
<text text-anchor="start" x="506.5" y="-162.4" font-family="Fira Mono Medium" font-weight="bold" font-size="12.00">human</text>
<text text-anchor="start" x="472.5" y="-150.4" font-family="Fira Mono Medium" font-style="italic" font-size="12.00">kind:</text>
<text text-anchor="start" x="510.5" y="-150.4" font-family="Fira Mono Medium" font-size="12.00"> cannibal</text>
<text text-anchor="start" x="468.5" y="-138.4" font-family="Fira Mono Medium" font-style="italic" font-size="12.00">can&#45;drive:</text>
<text text-anchor="start" x="544.5" y="-138.4" font-family="Fira Mono Medium" font-size="12.00"> true</text>
</g>
<!-- node_3&#45;&gt;node_0 -->
<g id="edge6" class="edge">
<title>node_3&#45;&gt;node_0</title>
<path fill="none" stroke="black" d="M590.61,-160.43C615.8,-165.46 644.1,-173.89 667,-188 696.77,-206.35 721.63,-238.4 736.84,-261.27"/>
<polygon fill="black" stroke="black" points="734.01,-263.34 742.38,-269.84 739.89,-259.54 734.01,-263.34"/>
<text text-anchor="middle" x="639.5" y="-191" font-family="Fira Mono Medium" font-size="10.00">at</text>
</g>
<!-- node_4 -->
<g id="node5" class="node">
<title>node_4</title>
<polygon fill="none" stroke="black" points="366,-149 228,-149 228,-105 366,-105 366,-149"/>
<text text-anchor="start" x="278" y="-136.4" font-family="Fira Mono Medium" font-weight="bold" font-size="12.00">human</text>
<text text-anchor="start" x="244" y="-124.4" font-family="Fira Mono Medium" font-style="italic" font-size="12.00">kind:</text>
<text text-anchor="start" x="282" y="-124.4" font-family="Fira Mono Medium" font-size="12.00"> cannibal</text>
<text text-anchor="start" x="236" y="-112.4" font-family="Fira Mono Medium" font-style="italic" font-size="12.00">can&#45;drive:</text>
<text text-anchor="start" x="312" y="-112.4" font-family="Fira Mono Medium" font-size="12.00"> false</text>
</g>
<!-- node_3&#45;&gt;node_4 -->
<g id="edge4" class="edge">
<title>node_3&#45;&gt;node_4</title>
<path fill="none" stroke="black" d="M460.5,-132.22C453.31,-130.5 446.04,-129.03 439,-128 418.8,-125.03 396.79,-123.89 376.3,-123.71"/>
<polygon fill="black" stroke="black" points="376.07,-120.21 366.06,-123.69 376.06,-127.21 376.07,-120.21"/>
<text text-anchor="middle" x="411.5" y="-131" font-family="Fira Mono Medium" font-size="10.00">not&#45;equal</text>
</g>
<!-- node_5 -->
<g id="node6" class="node">
<title>node_5</title>
<polygon fill="none" stroke="black" points="823,-141 685,-141 685,-97 823,-97 823,-141"/>
<text text-anchor="start" x="735" y="-128.4" font-family="Fira Mono Medium" font-weight="bold" font-size="12.00">human</text>
<text text-anchor="start" x="701" y="-116.4" font-family="Fira Mono Medium" font-style="italic" font-size="12.00">kind:</text>
<text text-anchor="start" x="739" y="-116.4" font-family="Fira Mono Medium" font-size="12.00"> cannibal</text>
<text text-anchor="start" x="693" y="-104.4" font-family="Fira Mono Medium" font-style="italic" font-size="12.00">can&#45;drive:</text>
<text text-anchor="start" x="769" y="-104.4" font-family="Fira Mono Medium" font-size="12.00"> false</text>
</g>
<!-- node_3&#45;&gt;node_5 -->
<g id="edge5" class="edge">
<title>node_3&#45;&gt;node_5</title>
<path fill="none" stroke="black" d="M590.8,-143.35C617.01,-139.41 647.55,-134.83 675.01,-130.71"/>
<polygon fill="black" stroke="black" points="675.61,-134.16 684.98,-129.21 674.57,-127.23 675.61,-134.16"/>
<text text-anchor="middle" x="639.5" y="-143" font-family="Fira Mono Medium" font-size="10.00">not&#45;equal</text>
</g>
<!-- node_4&#45;&gt;node_1 -->
<g id="edge9" class="edge">
<title>node_4&#45;&gt;node_1</title>
<path fill="none" stroke="black" d="M348.91,-149.11C379.63,-161.47 419.88,-175.96 457,-184 613.37,-217.85 801.68,-222.62 903.63,-222.31"/>
<polygon fill="black" stroke="black" points="903.84,-225.81 913.82,-222.26 903.8,-218.81 903.84,-225.81"/>
<text text-anchor="middle" x="639.5" y="-216" font-family="Fira Mono Medium" font-size="10.00">at</text>
</g>
<!-- node_4&#45;&gt;node_3 -->
<g id="edge7" class="edge">
<title>node_4&#45;&gt;node_3</title>
<path fill="none" stroke="black" d="M366.04,-136.75C372.11,-137.54 378.16,-138.3 384,-139 405.54,-141.57 428.97,-144.04 450.42,-146.17"/>
<polygon fill="black" stroke="black" points="450.15,-149.66 460.44,-147.15 450.83,-142.69 450.15,-149.66"/>
<text text-anchor="middle" x="411.5" y="-147" font-family="Fira Mono Medium" font-size="10.00">not&#45;equal</text>
</g>
<!-- node_4&#45;&gt;node_5 -->
<g id="edge8" class="edge">
<title>node_4&#45;&gt;node_5</title>
<path fill="none" stroke="black" d="M366.38,-118.8C394.42,-115.78 427.22,-112.69 457,-111 550.19,-105.72 573.82,-103.6 667,-109 669.56,-109.15 672.16,-109.32 674.79,-109.52"/>
<polygon fill="black" stroke="black" points="674.74,-113.02 684.99,-110.36 675.32,-106.05 674.74,-113.02"/>
<text text-anchor="middle" x="525.5" y="-114" font-family="Fira Mono Medium" font-size="10.00">not&#45;equal</text>
</g>
<!-- node_5&#45;&gt;node_1 -->
<g id="edge12" class="edge">
<title>node_5&#45;&gt;node_1</title>
<path fill="none" stroke="black" d="M803.11,-141.01C840.41,-158.07 891.88,-181.61 929.32,-198.74"/>
<polygon fill="black" stroke="black" points="927.97,-201.97 938.52,-202.94 930.89,-195.6 927.97,-201.97"/>
<text text-anchor="middle" x="868.5" y="-185" font-family="Fira Mono Medium" font-size="10.00">at</text>
</g>
<!-- node_5&#45;&gt;node_3 -->
<g id="edge10" class="edge">
<title>node_5&#45;&gt;node_3</title>
<path fill="none" stroke="black" d="M684.71,-113.03C661.45,-112.44 635.42,-113.39 612,-118 601.62,-120.04 590.92,-123.35 580.75,-127.14"/>
<polygon fill="black" stroke="black" points="579.21,-123.99 571.19,-130.9 581.77,-130.5 579.21,-123.99"/>
<text text-anchor="middle" x="639.5" y="-121" font-family="Fira Mono Medium" font-size="10.00">not&#45;equal</text>
</g>
<!-- node_5&#45;&gt;node_4 -->
<g id="edge11" class="edge">
<title>node_5&#45;&gt;node_4</title>
<path fill="none" stroke="black" d="M684.96,-106.2C678.89,-105.1 672.83,-104.02 667,-103 574.92,-86.87 549.91,-80.61 457,-91 430.43,-93.97 401.82,-99.65 376.29,-105.64"/>
<polygon fill="black" stroke="black" points="375.21,-102.3 366.3,-108.03 376.84,-109.1 375.21,-102.3"/>
<text text-anchor="middle" x="525.5" y="-94" font-family="Fira Mono Medium" font-size="10.00">not&#45;equal</text>
</g>
<!-- node_6 -->
<g id="node7" class="node">
<title>node_6</title>
<polygon fill="none" stroke="black" points="365.5,-350 228.5,-350 228.5,-306 365.5,-306 365.5,-350"/>
<text text-anchor="start" x="278" y="-337.4" font-family="Fira Mono Medium" font-weight="bold" font-size="12.00">human</text>
<text text-anchor="start" x="236.5" y="-325.4" font-family="Fira Mono Medium" font-style="italic" font-size="12.00">kind:</text>
<text text-anchor="start" x="274.5" y="-325.4" font-family="Fira Mono Medium" font-size="12.00"> missionary</text>
<text text-anchor="start" x="240" y="-313.4" font-family="Fira Mono Medium" font-style="italic" font-size="12.00">can&#45;drive:</text>
<text text-anchor="start" x="316" y="-313.4" font-family="Fira Mono Medium" font-size="12.00"> true</text>
</g>
<!-- node_6&#45;&gt;node_0 -->
<g id="edge15" class="edge">
<title>node_6&#45;&gt;node_0</title>
<path fill="none" stroke="black" d="M365.6,-329.72C371.82,-329.83 378.03,-329.93 384,-330 477.45,-331.09 501.35,-331.27 594,-319 623.3,-315.12 655.34,-309.2 682.93,-303.57"/>
<polygon fill="black" stroke="black" points="683.8,-306.97 692.88,-301.51 682.38,-300.11 683.8,-306.97"/>
<text text-anchor="middle" x="525.5" y="-333" font-family="Fira Mono Medium" font-size="10.00">at</text>
</g>
<!-- node_7 -->
<g id="node8" class="node">
<title>node_7</title>
<polygon fill="none" stroke="black" points="594,-310 457,-310 457,-266 594,-266 594,-310"/>
<text text-anchor="start" x="506.5" y="-297.4" font-family="Fira Mono Medium" font-weight="bold" font-size="12.00">human</text>
<text text-anchor="start" x="465" y="-285.4" font-family="Fira Mono Medium" font-style="italic" font-size="12.00">kind:</text>
<text text-anchor="start" x="503" y="-285.4" font-family="Fira Mono Medium" font-size="12.00"> missionary</text>
<text text-anchor="start" x="468.5" y="-273.4" font-family="Fira Mono Medium" font-style="italic" font-size="12.00">can&#45;drive:</text>
<text text-anchor="start" x="544.5" y="-273.4" font-family="Fira Mono Medium" font-size="12.00"> true</text>
</g>
<!-- node_6&#45;&gt;node_7 -->
<g id="edge13" class="edge">
<title>node_6&#45;&gt;node_7</title>
<path fill="none" stroke="black" d="M365.54,-318.2C388.86,-314.62 415.12,-310.37 439,-306 441.64,-305.52 444.32,-305.02 447.02,-304.5"/>
<polygon fill="black" stroke="black" points="447.75,-307.92 456.89,-302.58 446.41,-301.05 447.75,-307.92"/>
<text text-anchor="middle" x="411.5" y="-318" font-family="Fira Mono Medium" font-size="10.00">not&#45;equal</text>
</g>
<!-- node_8 -->
<g id="node9" class="node">
<title>node_8</title>
<polygon fill="none" stroke="black" points="137,-283 0,-283 0,-239 137,-239 137,-283"/>
<text text-anchor="start" x="49.5" y="-270.4" font-family="Fira Mono Medium" font-weight="bold" font-size="12.00">human</text>
<text text-anchor="start" x="8" y="-258.4" font-family="Fira Mono Medium" font-style="italic" font-size="12.00">kind:</text>
<text text-anchor="start" x="46" y="-258.4" font-family="Fira Mono Medium" font-size="12.00"> missionary</text>
<text text-anchor="start" x="11.5" y="-246.4" font-family="Fira Mono Medium" font-style="italic" font-size="12.00">can&#45;drive:</text>
<text text-anchor="start" x="87.5" y="-246.4" font-family="Fira Mono Medium" font-size="12.00"> true</text>
</g>
<!-- node_6&#45;&gt;node_8 -->
<g id="edge14" class="edge">
<title>node_6&#45;&gt;node_8</title>
<path fill="none" stroke="black" d="M241.78,-305.98C231.32,-302.08 220.38,-298.23 210,-295 189.82,-288.72 167.71,-282.89 147.13,-277.89"/>
<polygon fill="black" stroke="black" points="147.7,-274.43 137.16,-275.51 146.07,-281.24 147.7,-274.43"/>
<text text-anchor="middle" x="182.5" y="-298" font-family="Fira Mono Medium" font-size="10.00">not&#45;equal</text>
</g>
<!-- node_7&#45;&gt;node_0 -->
<g id="edge18" class="edge">
<title>node_7&#45;&gt;node_0</title>
<path fill="none" stroke="black" d="M594.15,-288C622.01,-288 654.3,-288 682.46,-288"/>
<polygon fill="black" stroke="black" points="682.63,-291.5 692.63,-288 682.63,-284.5 682.63,-291.5"/>
<text text-anchor="middle" x="639.5" y="-291" font-family="Fira Mono Medium" font-size="10.00">at</text>
</g>
<!-- node_7&#45;&gt;node_6 -->
<g id="edge16" class="edge">
<title>node_7&#45;&gt;node_6</title>
<path fill="none" stroke="black" d="M456.73,-285.64C433.46,-286.08 407.39,-287.99 384,-293 373.85,-295.18 363.36,-298.47 353.35,-302.19"/>
<polygon fill="black" stroke="black" points="351.97,-298.97 343.92,-305.86 354.51,-305.49 351.97,-298.97"/>
<text text-anchor="middle" x="411.5" y="-296" font-family="Fira Mono Medium" font-size="10.00">not&#45;equal</text>
</g>
<!-- node_7&#45;&gt;node_8 -->
<g id="edge17" class="edge">
<title>node_7&#45;&gt;node_8</title>
<path fill="none" stroke="black" d="M482.58,-265.91C468.92,-259.26 453.53,-252.32 439,-247 407.52,-235.48 399.25,-232.26 366,-228 305.16,-220.21 289.01,-221.72 228,-228 201.47,-230.73 172.82,-235.97 147.28,-241.49"/>
<polygon fill="black" stroke="black" points="146.3,-238.12 137.28,-243.7 147.8,-244.96 146.3,-238.12"/>
<text text-anchor="middle" x="297" y="-231" font-family="Fira Mono Medium" font-size="10.00">not&#45;equal</text>
</g>
<!-- node_8&#45;&gt;node_1 -->
<g id="edge21" class="edge">
<title>node_8&#45;&gt;node_1</title>
<path fill="none" stroke="black" d="M76.61,-238.75C98.31,-175.63 170.01,0 296,0 296,0 296,0 755,0 863.94,0 938.71,-134.72 966.25,-193.79"/>
<polygon fill="black" stroke="black" points="963.08,-195.27 970.41,-202.91 969.45,-192.36 963.08,-195.27"/>
<text text-anchor="middle" x="525.5" y="-3" font-family="Fira Mono Medium" font-size="10.00">at</text>
</g>
<!-- node_8&#45;&gt;node_6 -->
<g id="edge19" class="edge">
<title>node_8&#45;&gt;node_6</title>
<path fill="none" stroke="black" d="M104.94,-283.02C119.9,-291.41 137.8,-300.31 155,-306 175.01,-312.62 197.29,-317.27 218.13,-320.53"/>
<polygon fill="black" stroke="black" points="217.82,-324.02 228.22,-322.02 218.84,-317.1 217.82,-324.02"/>
<text text-anchor="middle" x="182.5" y="-321" font-family="Fira Mono Medium" font-size="10.00">not&#45;equal</text>
</g>
<!-- node_8&#45;&gt;node_7 -->
<g id="edge20" class="edge">
<title>node_8&#45;&gt;node_7</title>
<path fill="none" stroke="black" d="M137.28,-264.58C211.4,-268.56 333.68,-275.31 439,-282 441.53,-282.16 444.11,-282.33 446.71,-282.5"/>
<polygon fill="black" stroke="black" points="446.62,-286 456.83,-283.17 447.09,-279.01 446.62,-286"/>
<text text-anchor="middle" x="297" y="-280" font-family="Fira Mono Medium" font-size="10.00">not&#45;equal</text>
</g>
</g>
</svg>
