<?xml version="1.0" encoding="UTF-8" standalone="no"?>
<!DOCTYPE svg PUBLIC "-//W3C//DTD SVG 1.1//EN"
 "http://www.w3.org/Graphics/SVG/1.1/DTD/svg11.dtd">
<!-- Generated by graphviz version 2.43.0 (0)
 -->
<!-- Title: %3 Pages: 1 -->
<svg width="1052pt" height="436pt"
 viewBox="0.00 0.00 1052.00 436.00" xmlns="http://www.w3.org/2000/svg" xmlns:xlink="http://www.w3.org/1999/xlink">
<g id="graph0" class="graph" transform="scale(1 1) rotate(0) translate(4 432)">
<title>%3</title>
<polygon fill="white" stroke="transparent" points="-4,4 -4,-432 1048,-432 1048,4 -4,4"/>
<!-- node_0 -->
<g id="node1" class="node">
<title>node_0</title>
<polygon fill="none" stroke="black" points="815,-316 693,-316 693,-280 815,-280 815,-316"/>
<text text-anchor="start" x="738.5" y="-301.4" font-family="Fira Mono Medium" font-weight="bold" font-size="12.00">bank</text>
<text text-anchor="start" x="701" y="-289.4" font-family="Fira Mono Medium" font-style="italic" font-size="12.00">location:</text>
<text text-anchor="start" x="769" y="-289.4" font-family="Fira Mono Medium" font-size="12.00"> left</text>
</g>
<!-- node_1 -->
<g id="node2" class="node">
<title>node_1</title>
<polygon fill="none" stroke="black" points="1044,-215 914,-215 914,-179 1044,-179 1044,-215"/>
<text text-anchor="start" x="963.5" y="-200.4" font-family="Fira Mono Medium" font-weight="bold" font-size="12.00">bank</text>
<text text-anchor="start" x="922" y="-188.4" font-family="Fira Mono Medium" font-style="italic" font-size="12.00">location:</text>
<text text-anchor="start" x="990" y="-188.4" font-family="Fira Mono Medium" font-size="12.00"> right</text>
</g>
<!-- node_0&#45;&gt;node_1 -->
<g id="edge1" class="edge">
<title>node_0&#45;&gt;node_1</title>
<path fill="none" stroke="black" d="M815.18,-292C841.05,-287.72 871.02,-280.43 896,-268 918.6,-256.76 940.02,-237.82 955.29,-222.33"/>
<polygon fill="black" stroke="black" points="957.88,-224.69 962.28,-215.05 952.83,-219.84 957.88,-224.69"/>
<text text-anchor="middle" x="868.5" y="-289" font-family="Fira Mono Medium" font-size="10.00">not&#45;equal</text>
</g>
<!-- node_1&#45;&gt;node_0 -->
<g id="edge2" class="edge">
<title>node_1&#45;&gt;node_0</title>
<path fill="none" stroke="black" d="M934.63,-215.1C922.17,-220.27 908.56,-225.88 896,-231 871.62,-240.93 864.92,-241.99 841,-253 826.31,-259.76 810.54,-267.78 796.58,-275.16"/>
<polygon fill="black" stroke="black" points="794.87,-272.1 787.69,-279.9 798.16,-278.28 794.87,-272.1"/>
<text text-anchor="middle" x="868.5" y="-256" font-family="Fira Mono Medium" font-size="10.00">not&#45;equal</text>
</g>
<!-- node_2 -->
<g id="node3" class="node">
<title>node_2</title>
<polygon fill="none" stroke="black" points="552,-428 498,-428 498,-392 552,-392 552,-428"/>
<text text-anchor="start" x="509.5" y="-407.9" font-family="Fira Mono Medium" font-weight="bold" font-size="12.00">boat</text>
</g>
<!-- node_2&#45;&gt;node_0 -->
<g id="edge3" class="edge">
<title>node_2&#45;&gt;node_0</title>
<path fill="none" stroke="black" d="M552.08,-407.9C581.48,-404.64 630,-396.57 667,-377 692.02,-363.77 715.33,-341.47 731.35,-323.93"/>
<polygon fill="black" stroke="black" points="734.15,-326.06 738.18,-316.26 728.92,-321.4 734.15,-326.06"/>
<text text-anchor="middle" x="639.5" y="-399" font-family="Fira Mono Medium" font-size="10.00">at</text>
</g>
<!-- node_3 -->
<g id="node4" class="node">
<title>node_3</title>
<polygon fill="none" stroke="black" points="361.5,-149 231.5,-149 231.5,-105 361.5,-105 361.5,-149"/>
<text text-anchor="start" x="277.5" y="-136.4" font-family="Fira Mono Medium" font-weight="bold" font-size="12.00">human</text>
<text text-anchor="start" x="243.5" y="-124.4" font-family="Fira Mono Medium" font-style="italic" font-size="12.00">kind:</text>
<text text-anchor="start" x="281.5" y="-124.4" font-family="Fira Mono Medium" font-size="12.00"> cannibal</text>
<text text-anchor="start" x="239.5" y="-112.4" font-family="Fira Mono Medium" font-style="italic" font-size="12.00">can&#45;drive:</text>
<text text-anchor="start" x="315.5" y="-112.4" font-family="Fira Mono Medium" font-size="12.00"> true</text>
</g>
<!-- node_3&#45;&gt;node_1 -->
<g id="edge6" class="edge">
<title>node_3&#45;&gt;node_1</title>
<path fill="none" stroke="black" d="M346.36,-149C377.15,-161.74 418.1,-176.67 456,-184 613.04,-214.39 801.57,-209.06 903.59,-202.82"/>
<polygon fill="black" stroke="black" points="904.03,-206.3 913.79,-202.17 903.59,-199.31 904.03,-206.3"/>
<text text-anchor="middle" x="639.5" y="-209" font-family="Fira Mono Medium" font-size="10.00">at</text>
</g>
<!-- node_4 -->
<g id="node5" class="node">
<title>node_4</title>
<polygon fill="none" stroke="black" points="594,-175 456,-175 456,-131 594,-131 594,-175"/>
<text text-anchor="start" x="506" y="-162.4" font-family="Fira Mono Medium" font-weight="bold" font-size="12.00">human</text>
<text text-anchor="start" x="472" y="-150.4" font-family="Fira Mono Medium" font-style="italic" font-size="12.00">kind:</text>
<text text-anchor="start" x="510" y="-150.4" font-family="Fira Mono Medium" font-size="12.00"> cannibal</text>
<text text-anchor="start" x="464" y="-138.4" font-family="Fira Mono Medium" font-style="italic" font-size="12.00">can&#45;drive:</text>
<text text-anchor="start" x="540" y="-138.4" font-family="Fira Mono Medium" font-size="12.00"> false</text>
</g>
<!-- node_3&#45;&gt;node_4 -->
<g id="edge4" class="edge">
<title>node_3&#45;&gt;node_4</title>
<path fill="none" stroke="black" d="M361.89,-136.32C369.01,-137.27 376.15,-138.18 383,-139 403.27,-141.43 425.21,-143.75 445.61,-145.79"/>
<polygon fill="black" stroke="black" points="445.51,-149.29 455.81,-146.79 446.2,-142.33 445.51,-149.29"/>
<text text-anchor="middle" x="410.5" y="-147" font-family="Fira Mono Medium" font-size="10.00">not&#45;equal</text>
</g>
<!-- node_5 -->
<g id="node6" class="node">
<title>node_5</title>
<polygon fill="none" stroke="black" points="823,-141 685,-141 685,-97 823,-97 823,-141"/>
<text text-anchor="start" x="735" y="-128.4" font-family="Fira Mono Medium" font-weight="bold" font-size="12.00">human</text>
<text text-anchor="start" x="701" y="-116.4" font-family="Fira Mono Medium" font-style="italic" font-size="12.00">kind:</text>
<text text-anchor="start" x="739" y="-116.4" font-family="Fira Mono Medium" font-size="12.00"> cannibal</text>
<text text-anchor="start" x="693" y="-104.4" font-family="Fira Mono Medium" font-style="italic" font-size="12.00">can&#45;drive:</text>
<text text-anchor="start" x="769" y="-104.4" font-family="Fira Mono Medium" font-size="12.00"> false</text>
</g>
<!-- node_3&#45;&gt;node_5 -->
<g id="edge5" class="edge">
<title>node_3&#45;&gt;node_5</title>
<path fill="none" stroke="black" d="M361.79,-119.22C390.56,-116.07 424.94,-112.76 456,-111 549.63,-105.68 573.38,-103.57 667,-109 669.56,-109.15 672.16,-109.32 674.79,-109.52"/>
<polygon fill="black" stroke="black" points="674.74,-113.02 684.99,-110.36 675.32,-106.05 674.74,-113.02"/>
<text text-anchor="middle" x="525" y="-114" font-family="Fira Mono Medium" font-size="10.00">not&#45;equal</text>
</g>
<!-- node_4&#45;&gt;node_1 -->
<g id="edge9" class="edge">
<title>node_4&#45;&gt;node_1</title>
<path fill="none" stroke="black" d="M594.16,-159.63C677.34,-167.73 817.51,-181.38 903.48,-189.75"/>
<polygon fill="black" stroke="black" points="903.39,-193.25 913.68,-190.74 904.07,-186.29 903.39,-193.25"/>
<text text-anchor="middle" x="754" y="-184" font-family="Fira Mono Medium" font-size="10.00">at</text>
</g>
<!-- node_4&#45;&gt;node_3 -->
<g id="edge7" class="edge">
<title>node_4&#45;&gt;node_3</title>
<path fill="none" stroke="black" d="M461.58,-130.99C453.73,-128.94 445.73,-127.19 438,-126 416.66,-122.73 393.29,-121.84 371.84,-122.07"/>
<polygon fill="black" stroke="black" points="371.74,-118.58 361.81,-122.27 371.87,-125.57 371.74,-118.58"/>
<text text-anchor="middle" x="410.5" y="-129" font-family="Fira Mono Medium" font-size="10.00">not&#45;equal</text>
</g>
<!-- node_4&#45;&gt;node_5 -->
<g id="edge8" class="edge">
<title>node_4&#45;&gt;node_5</title>
<path fill="none" stroke="black" d="M594.11,-142.8C619.58,-138.98 648.71,-134.62 675.01,-130.68"/>
<polygon fill="black" stroke="black" points="675.57,-134.14 684.94,-129.19 674.53,-127.21 675.57,-134.14"/>
<text text-anchor="middle" x="639.5" y="-144" font-family="Fira Mono Medium" font-size="10.00">not&#45;equal</text>
</g>
<!-- node_5&#45;&gt;node_1 -->
<g id="edge12" class="edge">
<title>node_5&#45;&gt;node_1</title>
<path fill="none" stroke="black" d="M823.13,-131.73C846.61,-137.09 872.83,-144.16 896,-153 910.72,-158.62 926.12,-166.34 939.55,-173.74"/>
<polygon fill="black" stroke="black" points="938.07,-176.93 948.5,-178.79 941.51,-170.83 938.07,-176.93"/>
<text text-anchor="middle" x="868.5" y="-156" font-family="Fira Mono Medium" font-size="10.00">at</text>
</g>
<!-- node_5&#45;&gt;node_3 -->
<g id="edge10" class="edge">
<title>node_5&#45;&gt;node_3</title>
<path fill="none" stroke="black" d="M684.96,-106.2C678.89,-105.1 672.83,-104.02 667,-103 574.48,-86.79 549.34,-80.53 456,-91 428.15,-94.12 398.05,-100.24 371.65,-106.56"/>
<polygon fill="black" stroke="black" points="370.6,-103.21 361.72,-108.99 372.26,-110.01 370.6,-103.21"/>
<text text-anchor="middle" x="525" y="-94" font-family="Fira Mono Medium" font-size="10.00">not&#45;equal</text>
</g>
<!-- node_5&#45;&gt;node_4 -->
<g id="edge11" class="edge">
<title>node_5&#45;&gt;node_4</title>
<path fill="none" stroke="black" d="M684.72,-113.05C661.46,-112.47 635.42,-113.42 612,-118 601.57,-120.04 590.81,-123.35 580.58,-127.14"/>
<polygon fill="black" stroke="black" points="579,-124 570.96,-130.9 581.55,-130.52 579,-124"/>
<text text-anchor="middle" x="639.5" y="-121" font-family="Fira Mono Medium" font-size="10.00">not&#45;equal</text>
</g>
<!-- node_6 -->
<g id="node7" class="node">
<title>node_6</title>
<polygon fill="none" stroke="black" points="365,-359 228,-359 228,-315 365,-315 365,-359"/>
<text text-anchor="start" x="277.5" y="-346.4" font-family="Fira Mono Medium" font-weight="bold" font-size="12.00">human</text>
<text text-anchor="start" x="236" y="-334.4" font-family="Fira Mono Medium" font-style="italic" font-size="12.00">kind:</text>
<text text-anchor="start" x="274" y="-334.4" font-family="Fira Mono Medium" font-size="12.00"> missionary</text>
<text text-anchor="start" x="239.5" y="-322.4" font-family="Fira Mono Medium" font-style="italic" font-size="12.00">can&#45;drive:</text>
<text text-anchor="start" x="315.5" y="-322.4" font-family="Fira Mono Medium" font-size="12.00"> true</text>
</g>
<!-- node_6&#45;&gt;node_0 -->
<g id="edge15" class="edge">
<title>node_6&#45;&gt;node_0</title>
<path fill="none" stroke="black" d="M365.17,-338.73C371.2,-338.84 377.21,-338.93 383,-339 476.88,-340.1 500.89,-341.01 594,-329 623.31,-325.22 655.36,-319.32 682.95,-313.67"/>
<polygon fill="black" stroke="black" points="683.81,-317.07 692.9,-311.61 682.39,-310.21 683.81,-317.07"/>
<text text-anchor="middle" x="525" y="-342" font-family="Fira Mono Medium" font-size="10.00">at</text>
</g>
<!-- node_7 -->
<g id="node8" class="node">
<title>node_7</title>
<polygon fill="none" stroke="black" points="137,-292 0,-292 0,-248 137,-248 137,-292"/>
<text text-anchor="start" x="49.5" y="-279.4" font-family="Fira Mono Medium" font-weight="bold" font-size="12.00">human</text>
<text text-anchor="start" x="8" y="-267.4" font-family="Fira Mono Medium" font-style="italic" font-size="12.00">kind:</text>
<text text-anchor="start" x="46" y="-267.4" font-family="Fira Mono Medium" font-size="12.00"> missionary</text>
<text text-anchor="start" x="11.5" y="-255.4" font-family="Fira Mono Medium" font-style="italic" font-size="12.00">can&#45;drive:</text>
<text text-anchor="start" x="87.5" y="-255.4" font-family="Fira Mono Medium" font-size="12.00"> true</text>
</g>
<!-- node_6&#45;&gt;node_7 -->
<g id="edge13" class="edge">
<title>node_6&#45;&gt;node_7</title>
<path fill="none" stroke="black" d="M241.6,-314.97C231.2,-311.07 220.33,-307.23 210,-304 189.83,-297.7 167.72,-291.86 147.14,-286.87"/>
<polygon fill="black" stroke="black" points="147.71,-283.4 137.17,-284.48 146.08,-290.21 147.71,-283.4"/>
<text text-anchor="middle" x="182.5" y="-307" font-family="Fira Mono Medium" font-size="10.00">not&#45;equal</text>
</g>
<!-- node_8 -->
<g id="node9" class="node">
<title>node_8</title>
<polygon fill="none" stroke="black" points="593.5,-320 456.5,-320 456.5,-276 593.5,-276 593.5,-320"/>
<text text-anchor="start" x="506" y="-307.4" font-family="Fira Mono Medium" font-weight="bold" font-size="12.00">human</text>
<text text-anchor="start" x="464.5" y="-295.4" font-family="Fira Mono Medium" font-style="italic" font-size="12.00">kind:</text>
<text text-anchor="start" x="502.5" y="-295.4" font-family="Fira Mono Medium" font-size="12.00"> missionary</text>
<text text-anchor="start" x="468" y="-283.4" font-family="Fira Mono Medium" font-style="italic" font-size="12.00">can&#45;drive:</text>
<text text-anchor="start" x="544" y="-283.4" font-family="Fira Mono Medium" font-size="12.00"> true</text>
</g>
<!-- node_6&#45;&gt;node_8 -->
<g id="edge14" class="edge">
<title>node_6&#45;&gt;node_8</title>
<path fill="none" stroke="black" d="M365.12,-326.97C388.27,-323.39 414.3,-319.2 438,-315 440.81,-314.5 443.67,-313.99 446.56,-313.46"/>
<polygon fill="black" stroke="black" points="447.25,-316.89 456.45,-311.62 445.97,-310.01 447.25,-316.89"/>
<text text-anchor="middle" x="410.5" y="-327" font-family="Fira Mono Medium" font-size="10.00">not&#45;equal</text>
</g>
<!-- node_7&#45;&gt;node_1 -->
<g id="edge18" class="edge">
<title>node_7&#45;&gt;node_1</title>
<path fill="none" stroke="black" d="M76.04,-247.9C96.62,-183.42 166.52,0 295.5,0 295.5,0 295.5,0 755,0 856.36,0 933.35,-115.74 963.78,-169.79"/>
<polygon fill="black" stroke="black" points="960.86,-171.75 968.75,-178.82 967,-168.37 960.86,-171.75"/>
<text text-anchor="middle" x="525" y="-3" font-family="Fira Mono Medium" font-size="10.00">at</text>
</g>
<!-- node_7&#45;&gt;node_6 -->
<g id="edge16" class="edge">
<title>node_7&#45;&gt;node_6</title>
<path fill="none" stroke="black" d="M104.94,-292.02C119.9,-300.4 137.8,-309.3 155,-315 174.94,-321.61 197.14,-326.25 217.91,-329.51"/>
<polygon fill="black" stroke="black" points="217.56,-333 227.96,-331 218.59,-326.07 217.56,-333"/>
<text text-anchor="middle" x="182.5" y="-330" font-family="Fira Mono Medium" font-size="10.00">not&#45;equal</text>
</g>
<!-- node_7&#45;&gt;node_8 -->
<g id="edge17" class="edge">
<title>node_7&#45;&gt;node_8</title>
<path fill="none" stroke="black" d="M137.11,-273.36C211.04,-277.15 333,-283.74 438,-291 440.71,-291.19 443.46,-291.38 446.25,-291.59"/>
<polygon fill="black" stroke="black" points="446.18,-295.09 456.41,-292.34 446.7,-288.11 446.18,-295.09"/>
<text text-anchor="middle" x="296.5" y="-288" font-family="Fira Mono Medium" font-size="10.00">not&#45;equal</text>
</g>
<!-- node_8&#45;&gt;node_0 -->
<g id="edge21" class="edge">
<title>node_8&#45;&gt;node_0</title>
<path fill="none" stroke="black" d="M593.8,-298C621.84,-298 654.35,-298 682.65,-298"/>
<polygon fill="black" stroke="black" points="682.87,-301.5 692.87,-298 682.87,-294.5 682.87,-301.5"/>
<text text-anchor="middle" x="639.5" y="-301" font-family="Fira Mono Medium" font-size="10.00">at</text>
</g>
<!-- node_8&#45;&gt;node_6 -->
<g id="edge19" class="edge">
<title>node_8&#45;&gt;node_6</title>
<path fill="none" stroke="black" d="M456.36,-295.01C432.91,-295.27 406.6,-297.01 383,-302 372.77,-304.16 362.21,-307.49 352.15,-311.26"/>
<polygon fill="black" stroke="black" points="350.71,-308.06 342.68,-314.97 353.27,-314.58 350.71,-308.06"/>
<text text-anchor="middle" x="410.5" y="-305" font-family="Fira Mono Medium" font-size="10.00">not&#45;equal</text>
</g>
<!-- node_8&#45;&gt;node_7 -->
<g id="edge20" class="edge">
<title>node_8&#45;&gt;node_7</title>
<path fill="none" stroke="black" d="M456.45,-279.74C428.39,-273.05 395.35,-266.3 365,-263 291.46,-255 207.03,-258.23 147.31,-262.58"/>
<polygon fill="black" stroke="black" points="146.91,-259.1 137.2,-263.34 147.43,-266.08 146.91,-259.1"/>
<text text-anchor="middle" x="296.5" y="-266" font-family="Fira Mono Medium" font-size="10.00">not&#45;equal</text>
</g>
</g>
</svg>
