<?xml version="1.0" encoding="UTF-8" standalone="no"?>
<!DOCTYPE svg PUBLIC "-//W3C//DTD SVG 1.1//EN"
 "http://www.w3.org/Graphics/SVG/1.1/DTD/svg11.dtd">
<!-- Generated by graphviz version 2.43.0 (0)
 -->
<!-- Title: %3 Pages: 1 -->
<svg width="1003pt" height="212pt"
 viewBox="0.00 0.00 1003.00 212.18" xmlns="http://www.w3.org/2000/svg" xmlns:xlink="http://www.w3.org/1999/xlink">
<g id="graph0" class="graph" transform="scale(1 1) rotate(0) translate(4 208.18)">
<title>%3</title>
<polygon fill="white" stroke="transparent" points="-4,4 -4,-208.18 999,-208.18 999,4 -4,4"/>
<!-- node_0 -->
<g id="node1" class="node">
<title>node_0</title>
<polygon fill="none" stroke="black" points="766.5,-111.18 644.5,-111.18 644.5,-75.18 766.5,-75.18 766.5,-111.18"/>
<text text-anchor="start" x="690" y="-96.58" font-family="Fira Mono Medium" font-weight="bold" font-size="12.00">bank</text>
<text text-anchor="start" x="652.5" y="-84.58" font-family="Fira Mono Medium" font-style="italic" font-size="12.00">location:</text>
<text text-anchor="start" x="720.5" y="-84.58" font-family="Fira Mono Medium" font-size="12.00"> left</text>
</g>
<!-- node_1 -->
<g id="node2" class="node">
<title>node_1</title>
<polygon fill="none" stroke="black" points="995,-132.18 865,-132.18 865,-96.18 995,-96.18 995,-132.18"/>
<text text-anchor="start" x="914.5" y="-117.58" font-family="Fira Mono Medium" font-weight="bold" font-size="12.00">bank</text>
<text text-anchor="start" x="873" y="-105.58" font-family="Fira Mono Medium" font-style="italic" font-size="12.00">location:</text>
<text text-anchor="start" x="941" y="-105.58" font-family="Fira Mono Medium" font-size="12.00"> right</text>
</g>
<!-- node_0&#45;&gt;node_1 -->
<g id="edge1" class="edge">
<title>node_0&#45;&gt;node_1</title>
<path fill="none" stroke="black" d="M766.71,-98.86C793.88,-101.43 826.24,-104.48 854.88,-107.19"/>
<polygon fill="black" stroke="black" points="854.56,-110.67 864.84,-108.13 855.22,-103.7 854.56,-110.67"/>
<text text-anchor="middle" x="819.5" y="-108.18" font-family="Fira Mono Medium" font-size="10.00">not&#45;equal</text>
</g>
<!-- node_1&#45;&gt;node_0 -->
<g id="edge2" class="edge">
<title>node_1&#45;&gt;node_0</title>
<path fill="none" stroke="black" d="M884.57,-96.05C872.58,-91.98 859.47,-88.25 847,-86.18 824.33,-82.42 799.35,-82.37 776.81,-83.81"/>
<polygon fill="black" stroke="black" points="776.36,-80.33 766.64,-84.57 776.88,-87.31 776.36,-80.33"/>
<text text-anchor="middle" x="819.5" y="-89.18" font-family="Fira Mono Medium" font-size="10.00">not&#45;equal</text>
</g>
<!-- node_2 -->
<g id="node3" class="node">
<title>node_2</title>
<polygon fill="none" stroke="black" points="732.5,-204.18 678.5,-204.18 678.5,-168.18 732.5,-168.18 732.5,-204.18"/>
<text text-anchor="start" x="690" y="-184.08" font-family="Fira Mono Medium" font-weight="bold" font-size="12.00">boat</text>
</g>
<!-- node_2&#45;&gt;node_1 -->
<g id="edge3" class="edge">
<title>node_2&#45;&gt;node_1</title>
<path fill="none" stroke="black" d="M732.64,-182.08C761.24,-177.17 808.19,-167.86 847,-154.18 860.46,-149.44 874.61,-143.07 887.29,-136.82"/>
<polygon fill="black" stroke="black" points="888.88,-139.94 896.23,-132.31 885.73,-133.69 888.88,-139.94"/>
<text text-anchor="middle" x="819.5" y="-172.18" font-family="Fira Mono Medium" font-size="10.00">at</text>
</g>
<!-- node_3 -->
<g id="node4" class="node">
<title>node_3</title>
<polygon fill="none" stroke="black" points="130,-55.18 0,-55.18 0,-11.18 130,-11.18 130,-55.18"/>
<text text-anchor="start" x="46" y="-42.58" font-family="Fira Mono Medium" font-weight="bold" font-size="12.00">human</text>
<text text-anchor="start" x="12" y="-30.58" font-family="Fira Mono Medium" font-style="italic" font-size="12.00">kind:</text>
<text text-anchor="start" x="50" y="-30.58" font-family="Fira Mono Medium" font-size="12.00"> cannibal</text>
<text text-anchor="start" x="8" y="-18.58" font-family="Fira Mono Medium" font-style="italic" font-size="12.00">can&#45;drive:</text>
<text text-anchor="start" x="84" y="-18.58" font-family="Fira Mono Medium" font-size="12.00"> true</text>
</g>
<!-- node_3&#45;&gt;node_1 -->
<g id="edge6" class="edge">
<title>node_3&#45;&gt;node_1</title>
<path fill="none" stroke="black" d="M92.19,-55.35C131.98,-86.69 211.28,-140.18 289,-140.18 289,-140.18 289,-140.18 706.5,-140.18 756.19,-140.18 811.7,-133.71 854.84,-127.22"/>
<polygon fill="black" stroke="black" points="855.62,-130.64 864.97,-125.66 854.55,-123.72 855.62,-130.64"/>
<text text-anchor="middle" x="519" y="-143.18" font-family="Fira Mono Medium" font-size="10.00">at</text>
</g>
<!-- node_4 -->
<g id="node5" class="node">
<title>node_4</title>
<polygon fill="none" stroke="black" points="359,-89.18 221,-89.18 221,-45.18 359,-45.18 359,-89.18"/>
<text text-anchor="start" x="271" y="-76.58" font-family="Fira Mono Medium" font-weight="bold" font-size="12.00">human</text>
<text text-anchor="start" x="237" y="-64.58" font-family="Fira Mono Medium" font-style="italic" font-size="12.00">kind:</text>
<text text-anchor="start" x="275" y="-64.58" font-family="Fira Mono Medium" font-size="12.00"> cannibal</text>
<text text-anchor="start" x="229" y="-52.58" font-family="Fira Mono Medium" font-style="italic" font-size="12.00">can&#45;drive:</text>
<text text-anchor="start" x="305" y="-52.58" font-family="Fira Mono Medium" font-size="12.00"> false</text>
</g>
<!-- node_3&#45;&gt;node_4 -->
<g id="edge4" class="edge">
<title>node_3&#45;&gt;node_4</title>
<path fill="none" stroke="black" d="M130.2,-42.97C155.42,-46.81 184.59,-51.26 211,-55.29"/>
<polygon fill="black" stroke="black" points="210.56,-58.76 220.98,-56.81 211.62,-51.84 210.56,-58.76"/>
<text text-anchor="middle" x="175.5" y="-57.18" font-family="Fira Mono Medium" font-size="10.00">not&#45;equal</text>
</g>
<!-- node_5 -->
<g id="node6" class="node">
<title>node_5</title>
<polygon fill="none" stroke="black" points="588,-55.18 450,-55.18 450,-11.18 588,-11.18 588,-55.18"/>
<text text-anchor="start" x="500" y="-42.58" font-family="Fira Mono Medium" font-weight="bold" font-size="12.00">human</text>
<text text-anchor="start" x="466" y="-30.58" font-family="Fira Mono Medium" font-style="italic" font-size="12.00">kind:</text>
<text text-anchor="start" x="504" y="-30.58" font-family="Fira Mono Medium" font-size="12.00"> cannibal</text>
<text text-anchor="start" x="458" y="-18.58" font-family="Fira Mono Medium" font-style="italic" font-size="12.00">can&#45;drive:</text>
<text text-anchor="start" x="534" y="-18.58" font-family="Fira Mono Medium" font-size="12.00"> false</text>
</g>
<!-- node_3&#45;&gt;node_5 -->
<g id="edge5" class="edge">
<title>node_3&#45;&gt;node_5</title>
<path fill="none" stroke="black" d="M130.4,-25.47C136.35,-24.95 142.28,-24.51 148,-24.18 274.02,-17.01 305.99,-15.88 432,-23.18 434.56,-23.33 437.16,-23.5 439.79,-23.7"/>
<polygon fill="black" stroke="black" points="439.74,-27.2 449.99,-24.54 440.32,-20.23 439.74,-27.2"/>
<text text-anchor="middle" x="290" y="-23.18" font-family="Fira Mono Medium" font-size="10.00">not&#45;equal</text>
</g>
<!-- node_4&#45;&gt;node_0 -->
<g id="edge9" class="edge">
<title>node_4&#45;&gt;node_0</title>
<path fill="none" stroke="black" d="M359.28,-71.47C435.24,-76.25 557.34,-83.93 634.13,-88.76"/>
<polygon fill="black" stroke="black" points="633.99,-92.25 644.19,-89.39 634.43,-85.27 633.99,-92.25"/>
<text text-anchor="middle" x="519" y="-88.18" font-family="Fira Mono Medium" font-size="10.00">at</text>
</g>
<!-- node_4&#45;&gt;node_3 -->
<g id="edge7" class="edge">
<title>node_4&#45;&gt;node_3</title>
<path fill="none" stroke="black" d="M244.04,-45.08C231.1,-39.78 216.76,-34.87 203,-32.18 182.93,-28.25 160.89,-27.08 140.47,-27.25"/>
<polygon fill="black" stroke="black" points="140.2,-23.75 130.27,-27.44 140.33,-30.75 140.2,-23.75"/>
<text text-anchor="middle" x="175.5" y="-35.18" font-family="Fira Mono Medium" font-size="10.00">not&#45;equal</text>
</g>
<!-- node_4&#45;&gt;node_5 -->
<g id="edge8" class="edge">
<title>node_4&#45;&gt;node_5</title>
<path fill="none" stroke="black" d="M359.11,-56.98C384.58,-53.16 413.71,-48.8 440.01,-44.86"/>
<polygon fill="black" stroke="black" points="440.57,-48.32 449.94,-43.38 439.53,-41.4 440.57,-48.32"/>
<text text-anchor="middle" x="404.5" y="-58.18" font-family="Fira Mono Medium" font-size="10.00">not&#45;equal</text>
</g>
<!-- node_5&#45;&gt;node_0 -->
<g id="edge12" class="edge">
<title>node_5&#45;&gt;node_0</title>
<path fill="none" stroke="black" d="M587.65,-55.18C604.5,-60.66 622.54,-66.53 639.27,-71.97"/>
<polygon fill="black" stroke="black" points="638.36,-75.35 648.95,-75.12 640.52,-68.69 638.36,-75.35"/>
<text text-anchor="middle" x="612.5" y="-68.18" font-family="Fira Mono Medium" font-size="10.00">at</text>
</g>
<!-- node_5&#45;&gt;node_3 -->
<g id="edge10" class="edge">
<title>node_5&#45;&gt;node_3</title>
<path fill="none" stroke="black" d="M449.94,-20.47C443.87,-19.35 437.83,-18.24 432,-17.18 399.58,-11.28 391.83,-7.08 359,-4.18 297.9,1.22 282.07,1.48 221,-4.18 194.41,-6.65 165.58,-11.45 140.07,-16.44"/>
<polygon fill="black" stroke="black" points="139.22,-13.04 130.1,-18.43 140.6,-19.9 139.22,-13.04"/>
<text text-anchor="middle" x="290" y="-7.18" font-family="Fira Mono Medium" font-size="10.00">not&#45;equal</text>
</g>
<!-- node_5&#45;&gt;node_4 -->
<g id="edge11" class="edge">
<title>node_5&#45;&gt;node_4</title>
<path fill="none" stroke="black" d="M449.72,-27.23C426.46,-26.65 400.42,-27.6 377,-32.18 366.57,-34.22 355.81,-37.53 345.58,-41.33"/>
<polygon fill="black" stroke="black" points="344,-38.18 335.96,-45.08 346.55,-44.7 344,-38.18"/>
<text text-anchor="middle" x="404.5" y="-35.18" font-family="Fira Mono Medium" font-size="10.00">not&#45;equal</text>
</g>
<!-- node_6 -->
<g id="node7" class="node">
<title>node_6</title>
<polygon fill="none" stroke="black" points="774,-57.18 637,-57.18 637,-13.18 774,-13.18 774,-57.18"/>
<text text-anchor="start" x="686.5" y="-44.58" font-family="Fira Mono Medium" font-weight="bold" font-size="12.00">human</text>
<text text-anchor="start" x="645" y="-32.58" font-family="Fira Mono Medium" font-style="italic" font-size="12.00">kind:</text>
<text text-anchor="start" x="683" y="-32.58" font-family="Fira Mono Medium" font-size="12.00"> missionary</text>
<text text-anchor="start" x="648.5" y="-20.58" font-family="Fira Mono Medium" font-style="italic" font-size="12.00">can&#45;drive:</text>
<text text-anchor="start" x="724.5" y="-20.58" font-family="Fira Mono Medium" font-size="12.00"> true</text>
</g>
<!-- node_6&#45;&gt;node_1 -->
<g id="edge13" class="edge">
<title>node_6&#45;&gt;node_1</title>
<path fill="none" stroke="black" d="M774.18,-46.36C797.69,-51.35 823.93,-58.17 847,-67.18 862.92,-73.4 879.47,-82.34 893.49,-90.76"/>
<polygon fill="black" stroke="black" points="891.96,-93.92 902.31,-96.18 895.62,-87.96 891.96,-93.92"/>
<text text-anchor="middle" x="819.5" y="-70.18" font-family="Fira Mono Medium" font-size="10.00">at</text>
</g>
</g>
</svg>
