<?xml version="1.0" encoding="UTF-8" standalone="no"?>
<!DOCTYPE svg PUBLIC "-//W3C//DTD SVG 1.1//EN"
 "http://www.w3.org/Graphics/SVG/1.1/DTD/svg11.dtd">
<!-- Generated by graphviz version 2.43.0 (0)
 -->
<!-- Title: %3 Pages: 1 -->
<svg width="1052pt" height="429pt"
 viewBox="0.00 0.00 1052.00 428.88" xmlns="http://www.w3.org/2000/svg" xmlns:xlink="http://www.w3.org/1999/xlink">
<g id="graph0" class="graph" transform="scale(1 1) rotate(0) translate(4 424.88)">
<title>%3</title>
<polygon fill="white" stroke="transparent" points="-4,4 -4,-424.88 1048,-424.88 1048,4 -4,4"/>
<!-- node_0 -->
<g id="node1" class="node">
<title>node_0</title>
<polygon fill="none" stroke="black" points="815.5,-306.88 693.5,-306.88 693.5,-270.88 815.5,-270.88 815.5,-306.88"/>
<text text-anchor="start" x="739" y="-292.28" font-family="Fira Mono Medium" font-weight="bold" font-size="12.00">bank</text>
<text text-anchor="start" x="701.5" y="-280.28" font-family="Fira Mono Medium" font-style="italic" font-size="12.00">location:</text>
<text text-anchor="start" x="769.5" y="-280.28" font-family="Fira Mono Medium" font-size="12.00"> left</text>
</g>
<!-- node_1 -->
<g id="node2" class="node">
<title>node_1</title>
<polygon fill="none" stroke="black" points="1044,-166.88 914,-166.88 914,-130.88 1044,-130.88 1044,-166.88"/>
<text text-anchor="start" x="963.5" y="-152.28" font-family="Fira Mono Medium" font-weight="bold" font-size="12.00">bank</text>
<text text-anchor="start" x="922" y="-140.28" font-family="Fira Mono Medium" font-style="italic" font-size="12.00">location:</text>
<text text-anchor="start" x="990" y="-140.28" font-family="Fira Mono Medium" font-size="12.00"> right</text>
</g>
<!-- node_0&#45;&gt;node_1 -->
<g id="edge1" class="edge">
<title>node_0&#45;&gt;node_1</title>
<path fill="none" stroke="black" d="M815.55,-279.01C841.78,-272.73 871.97,-262.7 896,-246.88 923.85,-228.54 947.26,-197.96 961.85,-175.83"/>
<polygon fill="black" stroke="black" points="964.92,-177.52 967.36,-167.21 959.02,-173.75 964.92,-177.52"/>
<text text-anchor="middle" x="868.5" y="-273.88" font-family="Fira Mono Medium" font-size="10.00">not&#45;equal</text>
</g>
<!-- node_1&#45;&gt;node_0 -->
<g id="edge2" class="edge">
<title>node_1&#45;&gt;node_0</title>
<path fill="none" stroke="black" d="M947.3,-166.96C919.38,-183.53 877.14,-208.9 841,-231.88 824.26,-242.52 805.94,-254.67 790.56,-265.01"/>
<polygon fill="black" stroke="black" points="788.21,-262.37 781.88,-270.86 792.13,-268.17 788.21,-262.37"/>
<text text-anchor="middle" x="868.5" y="-234.88" font-family="Fira Mono Medium" font-size="10.00">not&#45;equal</text>
</g>
<!-- node_2 -->
<g id="node3" class="node">
<title>node_2</title>
<polygon fill="none" stroke="black" points="553,-420.88 499,-420.88 499,-384.88 553,-384.88 553,-420.88"/>
<text text-anchor="start" x="510.5" y="-400.78" font-family="Fira Mono Medium" font-weight="bold" font-size="12.00">boat</text>
</g>
<!-- node_2&#45;&gt;node_0 -->
<g id="edge3" class="edge">
<title>node_2&#45;&gt;node_0</title>
<path fill="none" stroke="black" d="M553.14,-400.88C582.59,-397.72 631.15,-389.73 668,-369.88 693.45,-356.17 716.86,-332.9 732.72,-314.81"/>
<polygon fill="black" stroke="black" points="735.63,-316.8 739.46,-306.92 730.31,-312.25 735.63,-316.8"/>
<text text-anchor="middle" x="640.5" y="-391.88" font-family="Fira Mono Medium" font-size="10.00">at</text>
</g>
<!-- node_3 -->
<g id="node4" class="node">
<title>node_3</title>
<polygon fill="none" stroke="black" points="362.5,-351.88 232.5,-351.88 232.5,-307.88 362.5,-307.88 362.5,-351.88"/>
<text text-anchor="start" x="278.5" y="-339.28" font-family="Fira Mono Medium" font-weight="bold" font-size="12.00">human</text>
<text text-anchor="start" x="244.5" y="-327.28" font-family="Fira Mono Medium" font-style="italic" font-size="12.00">kind:</text>
<text text-anchor="start" x="282.5" y="-327.28" font-family="Fira Mono Medium" font-size="12.00"> cannibal</text>
<text text-anchor="start" x="240.5" y="-315.28" font-family="Fira Mono Medium" font-style="italic" font-size="12.00">can&#45;drive:</text>
<text text-anchor="start" x="316.5" y="-315.28" font-family="Fira Mono Medium" font-size="12.00"> true</text>
</g>
<!-- node_3&#45;&gt;node_0 -->
<g id="edge6" class="edge">
<title>node_3&#45;&gt;node_0</title>
<path fill="none" stroke="black" d="M362.92,-331.54C370.03,-331.68 377.17,-331.8 384,-331.88 477.92,-332.97 501.92,-332.51 595,-319.88 624.08,-315.93 655.87,-310.03 683.29,-304.43"/>
<polygon fill="black" stroke="black" points="684.1,-307.84 693.19,-302.39 682.69,-300.98 684.1,-307.84"/>
<text text-anchor="middle" x="526" y="-334.88" font-family="Fira Mono Medium" font-size="10.00">at</text>
</g>
<!-- node_4 -->
<g id="node5" class="node">
<title>node_4</title>
<polygon fill="none" stroke="black" points="138,-284.88 0,-284.88 0,-240.88 138,-240.88 138,-284.88"/>
<text text-anchor="start" x="50" y="-272.28" font-family="Fira Mono Medium" font-weight="bold" font-size="12.00">human</text>
<text text-anchor="start" x="16" y="-260.28" font-family="Fira Mono Medium" font-style="italic" font-size="12.00">kind:</text>
<text text-anchor="start" x="54" y="-260.28" font-family="Fira Mono Medium" font-size="12.00"> cannibal</text>
<text text-anchor="start" x="8" y="-248.28" font-family="Fira Mono Medium" font-style="italic" font-size="12.00">can&#45;drive:</text>
<text text-anchor="start" x="84" y="-248.28" font-family="Fira Mono Medium" font-size="12.00"> false</text>
</g>
<!-- node_3&#45;&gt;node_4 -->
<g id="edge4" class="edge">
<title>node_3&#45;&gt;node_4</title>
<path fill="none" stroke="black" d="M232.16,-324.28C207.88,-321.01 180.27,-315.88 156,-307.88 142.09,-303.29 127.72,-296.63 114.79,-289.83"/>
<polygon fill="black" stroke="black" points="116.13,-286.58 105.67,-284.89 112.79,-292.73 116.13,-286.58"/>
<text text-anchor="middle" x="183.5" y="-322.88" font-family="Fira Mono Medium" font-size="10.00">not&#45;equal</text>
</g>
<!-- node_5 -->
<g id="node6" class="node">
<title>node_5</title>
<polygon fill="none" stroke="black" points="595,-310.88 457,-310.88 457,-266.88 595,-266.88 595,-310.88"/>
<text text-anchor="start" x="507" y="-298.28" font-family="Fira Mono Medium" font-weight="bold" font-size="12.00">human</text>
<text text-anchor="start" x="473" y="-286.28" font-family="Fira Mono Medium" font-style="italic" font-size="12.00">kind:</text>
<text text-anchor="start" x="511" y="-286.28" font-family="Fira Mono Medium" font-size="12.00"> cannibal</text>
<text text-anchor="start" x="465" y="-274.28" font-family="Fira Mono Medium" font-style="italic" font-size="12.00">can&#45;drive:</text>
<text text-anchor="start" x="541" y="-274.28" font-family="Fira Mono Medium" font-size="12.00"> false</text>
</g>
<!-- node_3&#45;&gt;node_5 -->
<g id="edge5" class="edge">
<title>node_3&#45;&gt;node_5</title>
<path fill="none" stroke="black" d="M347.88,-307.83C359.52,-303.48 372.02,-299.46 384,-296.88 403.99,-292.56 425.92,-290.21 446.41,-289"/>
<polygon fill="black" stroke="black" points="446.84,-292.48 456.65,-288.48 446.49,-285.49 446.84,-292.48"/>
<text text-anchor="middle" x="411.5" y="-299.88" font-family="Fira Mono Medium" font-size="10.00">not&#45;equal</text>
</g>
<!-- node_4&#45;&gt;node_1 -->
<g id="edge9" class="edge">
<title>node_4&#45;&gt;node_1</title>
<path fill="none" stroke="black" d="M101.34,-240.84C143.58,-213.34 222.11,-169.88 296.5,-169.88 296.5,-169.88 296.5,-169.88 755.5,-169.88 805.07,-169.88 860.58,-164.65 903.75,-159.41"/>
<polygon fill="black" stroke="black" points="904.4,-162.85 913.89,-158.15 903.53,-155.91 904.4,-162.85"/>
<text text-anchor="middle" x="526" y="-172.88" font-family="Fira Mono Medium" font-size="10.00">at</text>
</g>
<!-- node_4&#45;&gt;node_3 -->
<g id="edge7" class="edge">
<title>node_4&#45;&gt;node_3</title>
<path fill="none" stroke="black" d="M138.02,-275.93C161.38,-281.04 187.54,-287.47 211,-294.88 219.45,-297.54 228.23,-300.69 236.8,-303.98"/>
<polygon fill="black" stroke="black" points="235.79,-307.34 246.37,-307.74 238.35,-300.83 235.79,-307.34"/>
<text text-anchor="middle" x="183.5" y="-297.88" font-family="Fira Mono Medium" font-size="10.00">not&#45;equal</text>
</g>
<!-- node_4&#45;&gt;node_5 -->
<g id="edge8" class="edge">
<title>node_4&#45;&gt;node_5</title>
<path fill="none" stroke="black" d="M138.12,-266.77C220.75,-271.49 359.75,-279.43 446.71,-284.4"/>
<polygon fill="black" stroke="black" points="446.61,-287.9 456.79,-284.98 447,-280.91 446.61,-287.9"/>
<text text-anchor="middle" x="297.5" y="-281.88" font-family="Fira Mono Medium" font-size="10.00">not&#45;equal</text>
</g>
<!-- node_5&#45;&gt;node_0 -->
<g id="edge12" class="edge">
<title>node_5&#45;&gt;node_0</title>
<path fill="none" stroke="black" d="M595.26,-288.88C623.11,-288.88 655.28,-288.88 683.32,-288.88"/>
<polygon fill="black" stroke="black" points="683.44,-292.38 693.44,-288.88 683.44,-285.38 683.44,-292.38"/>
<text text-anchor="middle" x="640.5" y="-291.88" font-family="Fira Mono Medium" font-size="10.00">at</text>
</g>
<!-- node_5&#45;&gt;node_3 -->
<g id="edge10" class="edge">
<title>node_5&#45;&gt;node_3</title>
<path fill="none" stroke="black" d="M456.54,-304.4C450.62,-305.62 444.71,-306.8 439,-307.88 417.53,-311.92 394.12,-315.8 372.67,-319.14"/>
<polygon fill="black" stroke="black" points="371.99,-315.71 362.64,-320.69 373.06,-322.63 371.99,-315.71"/>
<text text-anchor="middle" x="411.5" y="-319.88" font-family="Fira Mono Medium" font-size="10.00">not&#45;equal</text>
</g>
<!-- node_5&#45;&gt;node_4 -->
<g id="edge11" class="edge">
<title>node_5&#45;&gt;node_4</title>
<path fill="none" stroke="black" d="M456.97,-272.09C428.98,-266 396.12,-259.88 366,-256.88 292.39,-249.54 207.99,-252.35 148.2,-256.22"/>
<polygon fill="black" stroke="black" points="147.82,-252.73 138.07,-256.9 148.29,-259.72 147.82,-252.73"/>
<text text-anchor="middle" x="297.5" y="-259.88" font-family="Fira Mono Medium" font-size="10.00">not&#45;equal</text>
</g>
<!-- node_6 -->
<g id="node7" class="node">
<title>node_6</title>
<polygon fill="none" stroke="black" points="366,-52.88 229,-52.88 229,-8.88 366,-8.88 366,-52.88"/>
<text text-anchor="start" x="278.5" y="-40.28" font-family="Fira Mono Medium" font-weight="bold" font-size="12.00">human</text>
<text text-anchor="start" x="237" y="-28.28" font-family="Fira Mono Medium" font-style="italic" font-size="12.00">kind:</text>
<text text-anchor="start" x="275" y="-28.28" font-family="Fira Mono Medium" font-size="12.00"> missionary</text>
<text text-anchor="start" x="240.5" y="-16.28" font-family="Fira Mono Medium" font-style="italic" font-size="12.00">can&#45;drive:</text>
<text text-anchor="start" x="316.5" y="-16.28" font-family="Fira Mono Medium" font-size="12.00"> true</text>
</g>
<!-- node_6&#45;&gt;node_1 -->
<g id="edge15" class="edge">
<title>node_6&#45;&gt;node_1</title>
<path fill="none" stroke="black" d="M341.69,-52.88C372.89,-67.69 416.5,-86.23 457,-95.88 613.05,-133.04 801.48,-144.15 903.53,-147.47"/>
<polygon fill="black" stroke="black" points="903.63,-150.97 913.74,-147.79 903.85,-143.98 903.63,-150.97"/>
<text text-anchor="middle" x="640.5" y="-133.88" font-family="Fira Mono Medium" font-size="10.00">at</text>
</g>
<!-- node_7 -->
<g id="node8" class="node">
<title>node_7</title>
<polygon fill="none" stroke="black" points="594.5,-86.88 457.5,-86.88 457.5,-42.88 594.5,-42.88 594.5,-86.88"/>
<text text-anchor="start" x="507" y="-74.28" font-family="Fira Mono Medium" font-weight="bold" font-size="12.00">human</text>
<text text-anchor="start" x="465.5" y="-62.28" font-family="Fira Mono Medium" font-style="italic" font-size="12.00">kind:</text>
<text text-anchor="start" x="503.5" y="-62.28" font-family="Fira Mono Medium" font-size="12.00"> missionary</text>
<text text-anchor="start" x="469" y="-50.28" font-family="Fira Mono Medium" font-style="italic" font-size="12.00">can&#45;drive:</text>
<text text-anchor="start" x="545" y="-50.28" font-family="Fira Mono Medium" font-size="12.00"> true</text>
</g>
<!-- node_6&#45;&gt;node_7 -->
<g id="edge13" class="edge">
<title>node_6&#45;&gt;node_7</title>
<path fill="none" stroke="black" d="M366.15,-26.48C389.42,-26.25 415.51,-27.44 439,-31.88 448.12,-33.6 457.52,-36.24 466.61,-39.28"/>
<polygon fill="black" stroke="black" points="465.72,-42.68 476.32,-42.73 468.06,-36.09 465.72,-42.68"/>
<text text-anchor="middle" x="411.5" y="-34.88" font-family="Fira Mono Medium" font-size="10.00">not&#45;equal</text>
</g>
<!-- node_8 -->
<g id="node9" class="node">
<title>node_8</title>
<polygon fill="none" stroke="black" points="823,-52.88 686,-52.88 686,-8.88 823,-8.88 823,-52.88"/>
<text text-anchor="start" x="735.5" y="-40.28" font-family="Fira Mono Medium" font-weight="bold" font-size="12.00">human</text>
<text text-anchor="start" x="694" y="-28.28" font-family="Fira Mono Medium" font-style="italic" font-size="12.00">kind:</text>
<text text-anchor="start" x="732" y="-28.28" font-family="Fira Mono Medium" font-size="12.00"> missionary</text>
<text text-anchor="start" x="697.5" y="-16.28" font-family="Fira Mono Medium" font-style="italic" font-size="12.00">can&#45;drive:</text>
<text text-anchor="start" x="773.5" y="-16.28" font-family="Fira Mono Medium" font-size="12.00"> true</text>
</g>
<!-- node_6&#45;&gt;node_8 -->
<g id="edge14" class="edge">
<title>node_6&#45;&gt;node_8</title>
<path fill="none" stroke="black" d="M366.13,-23.96C372.17,-23.52 378.19,-23.15 384,-22.88 510.08,-16.99 541.92,-16.99 668,-22.88 670.54,-22.99 673.12,-23.13 675.73,-23.29"/>
<polygon fill="black" stroke="black" points="675.66,-26.79 685.87,-23.96 676.12,-19.81 675.66,-26.79"/>
<text text-anchor="middle" x="526" y="-22.88" font-family="Fira Mono Medium" font-size="10.00">not&#45;equal</text>
</g>
<!-- node_7&#45;&gt;node_1 -->
<g id="edge18" class="edge">
<title>node_7&#45;&gt;node_1</title>
<path fill="none" stroke="black" d="M594.7,-68.99C669.52,-74.74 793.05,-87.82 896,-115.88 906.99,-118.87 918.51,-122.91 929.32,-127.12"/>
<polygon fill="black" stroke="black" points="928.02,-130.37 938.6,-130.86 930.63,-123.88 928.02,-130.37"/>
<text text-anchor="middle" x="754.5" y="-101.88" font-family="Fira Mono Medium" font-size="10.00">at</text>
</g>
<!-- node_7&#45;&gt;node_6 -->
<g id="edge16" class="edge">
<title>node_7&#45;&gt;node_6</title>
<path fill="none" stroke="black" d="M457.31,-54.71C431.76,-50.88 402.5,-46.49 376.11,-42.53"/>
<polygon fill="black" stroke="black" points="376.56,-39.05 366.15,-41.03 375.52,-45.98 376.56,-39.05"/>
<text text-anchor="middle" x="411.5" y="-55.88" font-family="Fira Mono Medium" font-size="10.00">not&#45;equal</text>
</g>
<!-- node_7&#45;&gt;node_8 -->
<g id="edge17" class="edge">
<title>node_7&#45;&gt;node_8</title>
<path fill="none" stroke="black" d="M575.68,-42.73C587.64,-38.26 600.59,-34.22 613,-31.88 633.09,-28.08 655.1,-26.66 675.6,-26.47"/>
<polygon fill="black" stroke="black" points="675.85,-29.97 685.85,-26.48 675.85,-22.97 675.85,-29.97"/>
<text text-anchor="middle" x="640.5" y="-34.88" font-family="Fira Mono Medium" font-size="10.00">not&#45;equal</text>
</g>
<!-- node_8&#45;&gt;node_1 -->
<g id="edge21" class="edge">
<title>node_8&#45;&gt;node_1</title>
<path fill="none" stroke="black" d="M823.03,-39.93C847.15,-45.13 873.83,-53.25 896,-65.88 921.03,-80.14 943.56,-104.17 958.64,-122.71"/>
<polygon fill="black" stroke="black" points="956.08,-125.12 965.02,-130.79 961.57,-120.78 956.08,-125.12"/>
<text text-anchor="middle" x="868.5" y="-68.88" font-family="Fira Mono Medium" font-size="10.00">at</text>
</g>
<!-- node_8&#45;&gt;node_6 -->
<g id="edge19" class="edge">
<title>node_8&#45;&gt;node_6</title>
<path fill="none" stroke="black" d="M685.95,-16.78C657.94,-11.62 625.04,-6.42 595,-3.88 533.88,1.29 518.12,1.29 457,-3.88 430.48,-6.12 401.73,-10.44 376.09,-14.97"/>
<polygon fill="black" stroke="black" points="375.27,-11.56 366.05,-16.78 376.52,-18.45 375.27,-11.56"/>
<text text-anchor="middle" x="526" y="-6.88" font-family="Fira Mono Medium" font-size="10.00">not&#45;equal</text>
</g>
<!-- node_8&#45;&gt;node_7 -->
<g id="edge20" class="edge">
<title>node_8&#45;&gt;node_7</title>
<path fill="none" stroke="black" d="M685.81,-41.04C660.26,-44.87 631,-49.27 604.61,-53.23"/>
<polygon fill="black" stroke="black" points="604.02,-49.78 594.65,-54.72 605.06,-56.7 604.02,-49.78"/>
<text text-anchor="middle" x="640.5" y="-55.88" font-family="Fira Mono Medium" font-size="10.00">not&#45;equal</text>
</g>
</g>
</svg>
