<?xml version="1.0" encoding="UTF-8" standalone="no"?>
<!DOCTYPE svg PUBLIC "-//W3C//DTD SVG 1.1//EN"
 "http://www.w3.org/Graphics/SVG/1.1/DTD/svg11.dtd">
<!-- Generated by graphviz version 2.43.0 (0)
 -->
<!-- Title: %3 Pages: 1 -->
<svg width="995pt" height="336pt"
 viewBox="0.00 0.00 995.00 336.00" xmlns="http://www.w3.org/2000/svg" xmlns:xlink="http://www.w3.org/1999/xlink">
<g id="graph0" class="graph" transform="scale(1 1) rotate(0) translate(4 332)">
<title>%3</title>
<polygon fill="white" stroke="transparent" points="-4,4 -4,-332 991,-332 991,4 -4,4"/>
<!-- node_0 -->
<g id="node1" class="node">
<title>node_0</title>
<polygon fill="none" stroke="black" points="766,-155 644,-155 644,-119 766,-119 766,-155"/>
<text text-anchor="start" x="689.5" y="-140.4" font-family="Fira Mono Medium" font-weight="bold" font-size="12.00">bank</text>
<text text-anchor="start" x="652" y="-128.4" font-family="Fira Mono Medium" font-style="italic" font-size="12.00">location:</text>
<text text-anchor="start" x="720" y="-128.4" font-family="Fira Mono Medium" font-size="12.00"> left</text>
</g>
<!-- node_1 -->
<g id="node2" class="node">
<title>node_1</title>
<polygon fill="none" stroke="black" points="987,-85 857,-85 857,-49 987,-49 987,-85"/>
<text text-anchor="start" x="906.5" y="-70.4" font-family="Fira Mono Medium" font-weight="bold" font-size="12.00">bank</text>
<text text-anchor="start" x="865" y="-58.4" font-family="Fira Mono Medium" font-style="italic" font-size="12.00">location:</text>
<text text-anchor="start" x="933" y="-58.4" font-family="Fira Mono Medium" font-size="12.00"> right</text>
</g>
<!-- node_0&#45;&gt;node_1 -->
<g id="edge1" class="edge">
<title>node_0&#45;&gt;node_1</title>
<path fill="none" stroke="black" d="M766.02,-121.82C789.02,-115.61 815.39,-108.01 839,-100 848.91,-96.64 859.36,-92.73 869.36,-88.79"/>
<polygon fill="black" stroke="black" points="870.79,-91.99 878.78,-85.04 868.19,-85.49 870.79,-91.99"/>
<text text-anchor="middle" x="811.5" y="-120" font-family="Fira Mono Medium" font-size="10.00">not&#45;equal</text>
</g>
<!-- node_1&#45;&gt;node_0 -->
<g id="edge2" class="edge">
<title>node_1&#45;&gt;node_0</title>
<path fill="none" stroke="black" d="M856.78,-69.36C833.31,-71.79 806.91,-76.4 784,-85 766.71,-91.49 749.43,-102.44 735.54,-112.63"/>
<polygon fill="black" stroke="black" points="733.22,-109.99 727.36,-118.82 737.45,-115.57 733.22,-109.99"/>
<text text-anchor="middle" x="811.5" y="-88" font-family="Fira Mono Medium" font-size="10.00">not&#45;equal</text>
</g>
<!-- node_2 -->
<g id="node3" class="node">
<title>node_2</title>
<polygon fill="none" stroke="black" points="553,-328 499,-328 499,-292 553,-292 553,-328"/>
<text text-anchor="start" x="510.5" y="-307.9" font-family="Fira Mono Medium" font-weight="bold" font-size="12.00">boat</text>
</g>
<!-- node_2&#45;&gt;node_0 -->
<g id="edge3" class="edge">
<title>node_2&#45;&gt;node_0</title>
<path fill="none" stroke="black" d="M553.1,-306.63C574.68,-302.69 605.08,-294.34 626,-277 661.95,-247.2 684.29,-196.3 695.41,-164.77"/>
<polygon fill="black" stroke="black" points="698.74,-165.86 698.63,-155.27 692.11,-163.62 698.74,-165.86"/>
<text text-anchor="middle" x="619.5" y="-288" font-family="Fira Mono Medium" font-size="10.00">at</text>
</g>
<!-- node_3 -->
<g id="node4" class="node">
<title>node_3</title>
<polygon fill="none" stroke="black" points="362.5,-259 232.5,-259 232.5,-215 362.5,-215 362.5,-259"/>
<text text-anchor="start" x="278.5" y="-246.4" font-family="Fira Mono Medium" font-weight="bold" font-size="12.00">human</text>
<text text-anchor="start" x="244.5" y="-234.4" font-family="Fira Mono Medium" font-style="italic" font-size="12.00">kind:</text>
<text text-anchor="start" x="282.5" y="-234.4" font-family="Fira Mono Medium" font-size="12.00"> cannibal</text>
<text text-anchor="start" x="240.5" y="-222.4" font-family="Fira Mono Medium" font-style="italic" font-size="12.00">can&#45;drive:</text>
<text text-anchor="start" x="316.5" y="-222.4" font-family="Fira Mono Medium" font-size="12.00"> true</text>
</g>
<!-- node_3&#45;&gt;node_0 -->
<g id="edge6" class="edge">
<title>node_3&#45;&gt;node_0</title>
<path fill="none" stroke="black" d="M362.91,-241.17C370.02,-241.51 377.16,-241.8 384,-242 479.49,-244.79 506.79,-237.67 595,-201 621.06,-190.17 648.45,-174.06 669.26,-160.72"/>
<polygon fill="black" stroke="black" points="671.27,-163.58 677.75,-155.19 667.46,-157.71 671.27,-163.58"/>
<text text-anchor="middle" x="526" y="-244" font-family="Fira Mono Medium" font-size="10.00">at</text>
</g>
<!-- node_4 -->
<g id="node5" class="node">
<title>node_4</title>
<polygon fill="none" stroke="black" points="138,-196 0,-196 0,-152 138,-152 138,-196"/>
<text text-anchor="start" x="50" y="-183.4" font-family="Fira Mono Medium" font-weight="bold" font-size="12.00">human</text>
<text text-anchor="start" x="16" y="-171.4" font-family="Fira Mono Medium" font-style="italic" font-size="12.00">kind:</text>
<text text-anchor="start" x="54" y="-171.4" font-family="Fira Mono Medium" font-size="12.00"> cannibal</text>
<text text-anchor="start" x="8" y="-159.4" font-family="Fira Mono Medium" font-style="italic" font-size="12.00">can&#45;drive:</text>
<text text-anchor="start" x="84" y="-159.4" font-family="Fira Mono Medium" font-size="12.00"> false</text>
</g>
<!-- node_3&#45;&gt;node_4 -->
<g id="edge4" class="edge">
<title>node_3&#45;&gt;node_4</title>
<path fill="none" stroke="black" d="M233.67,-214.97C226.06,-212.52 218.38,-210.14 211,-208 190.73,-202.13 168.63,-196.46 148.06,-191.49"/>
<polygon fill="black" stroke="black" points="148.64,-188.03 138.1,-189.11 147.01,-194.84 148.64,-188.03"/>
<text text-anchor="middle" x="183.5" y="-211" font-family="Fira Mono Medium" font-size="10.00">not&#45;equal</text>
</g>
<!-- node_5 -->
<g id="node6" class="node">
<title>node_5</title>
<polygon fill="none" stroke="black" points="595,-192 457,-192 457,-148 595,-148 595,-192"/>
<text text-anchor="start" x="507" y="-179.4" font-family="Fira Mono Medium" font-weight="bold" font-size="12.00">human</text>
<text text-anchor="start" x="473" y="-167.4" font-family="Fira Mono Medium" font-style="italic" font-size="12.00">kind:</text>
<text text-anchor="start" x="511" y="-167.4" font-family="Fira Mono Medium" font-size="12.00"> cannibal</text>
<text text-anchor="start" x="465" y="-155.4" font-family="Fira Mono Medium" font-style="italic" font-size="12.00">can&#45;drive:</text>
<text text-anchor="start" x="541" y="-155.4" font-family="Fira Mono Medium" font-size="12.00"> false</text>
</g>
<!-- node_3&#45;&gt;node_5 -->
<g id="edge5" class="edge">
<title>node_3&#45;&gt;node_5</title>
<path fill="none" stroke="black" d="M362.84,-231.4C387.12,-228.14 414.73,-223.01 439,-215 452.91,-210.41 467.28,-203.75 480.21,-196.96"/>
<polygon fill="black" stroke="black" points="482.21,-199.85 489.33,-192.01 478.87,-193.7 482.21,-199.85"/>
<text text-anchor="middle" x="411.5" y="-230" font-family="Fira Mono Medium" font-size="10.00">not&#45;equal</text>
</g>
<!-- node_4&#45;&gt;node_1 -->
<g id="edge9" class="edge">
<title>node_4&#45;&gt;node_1</title>
<path fill="none" stroke="black" d="M84.01,-151.96C115.69,-105.14 197.82,0 296.5,0 296.5,0 296.5,0 706,0 767.25,0 834.04,-25.09 876.66,-44.56"/>
<polygon fill="black" stroke="black" points="875.36,-47.82 885.91,-48.87 878.32,-41.47 875.36,-47.82"/>
<text text-anchor="middle" x="526" y="-3" font-family="Fira Mono Medium" font-size="10.00">at</text>
</g>
<!-- node_4&#45;&gt;node_3 -->
<g id="edge7" class="edge">
<title>node_4&#45;&gt;node_3</title>
<path fill="none" stroke="black" d="M105.17,-196.02C120.29,-204.51 138.48,-213.49 156,-219 176.96,-225.59 200.4,-229.78 222.05,-232.43"/>
<polygon fill="black" stroke="black" points="221.84,-235.93 232.17,-233.58 222.63,-228.97 221.84,-235.93"/>
<text text-anchor="middle" x="183.5" y="-233" font-family="Fira Mono Medium" font-size="10.00">not&#45;equal</text>
</g>
<!-- node_4&#45;&gt;node_5 -->
<g id="edge8" class="edge">
<title>node_4&#45;&gt;node_5</title>
<path fill="none" stroke="black" d="M138.12,-173.4C220.75,-172.67 359.75,-171.45 446.71,-170.69"/>
<polygon fill="black" stroke="black" points="446.82,-174.19 456.79,-170.6 446.76,-167.19 446.82,-174.19"/>
<text text-anchor="middle" x="297.5" y="-175" font-family="Fira Mono Medium" font-size="10.00">not&#45;equal</text>
</g>
<!-- node_5&#45;&gt;node_0 -->
<g id="edge12" class="edge">
<title>node_5&#45;&gt;node_0</title>
<path fill="none" stroke="black" d="M595.18,-157.29C607.86,-154.92 621.13,-152.45 633.86,-150.08"/>
<polygon fill="black" stroke="black" points="634.75,-153.47 643.94,-148.2 633.47,-146.59 634.75,-153.47"/>
<text text-anchor="middle" x="619.5" y="-156" font-family="Fira Mono Medium" font-size="10.00">at</text>
</g>
<!-- node_5&#45;&gt;node_3 -->
<g id="edge10" class="edge">
<title>node_5&#45;&gt;node_3</title>
<path fill="none" stroke="black" d="M456.98,-183.06C433.62,-188.17 407.46,-194.59 384,-202 375.55,-204.67 366.77,-207.81 358.2,-211.1"/>
<polygon fill="black" stroke="black" points="356.65,-207.95 348.63,-214.87 359.21,-214.46 356.65,-207.95"/>
<text text-anchor="middle" x="411.5" y="-205" font-family="Fira Mono Medium" font-size="10.00">not&#45;equal</text>
</g>
<!-- node_5&#45;&gt;node_4 -->
<g id="edge11" class="edge">
<title>node_5&#45;&gt;node_4</title>
<path fill="none" stroke="black" d="M457,-162.69C428.87,-160.01 395.9,-157.31 366,-156 305.17,-153.33 289.79,-152.57 229,-156 202.68,-157.49 174.02,-160.34 148.38,-163.35"/>
<polygon fill="black" stroke="black" points="147.85,-159.89 138.34,-164.55 148.68,-166.84 147.85,-159.89"/>
<text text-anchor="middle" x="297.5" y="-159" font-family="Fira Mono Medium" font-size="10.00">not&#45;equal</text>
</g>
<!-- node_6 -->
<g id="node7" class="node">
<title>node_6</title>
<polygon fill="none" stroke="black" points="366,-91 229,-91 229,-47 366,-47 366,-91"/>
<text text-anchor="start" x="278.5" y="-78.4" font-family="Fira Mono Medium" font-weight="bold" font-size="12.00">human</text>
<text text-anchor="start" x="237" y="-66.4" font-family="Fira Mono Medium" font-style="italic" font-size="12.00">kind:</text>
<text text-anchor="start" x="275" y="-66.4" font-family="Fira Mono Medium" font-size="12.00"> missionary</text>
<text text-anchor="start" x="240.5" y="-54.4" font-family="Fira Mono Medium" font-style="italic" font-size="12.00">can&#45;drive:</text>
<text text-anchor="start" x="316.5" y="-54.4" font-family="Fira Mono Medium" font-size="12.00"> true</text>
</g>
<!-- node_6&#45;&gt;node_1 -->
<g id="edge14" class="edge">
<title>node_6&#45;&gt;node_1</title>
<path fill="none" stroke="black" d="M366.14,-62.95C372.18,-62.56 378.2,-62.24 384,-62 408.42,-61 414.56,-61.87 439,-62 583.33,-62.75 751.95,-64.76 846.63,-65.99"/>
<polygon fill="black" stroke="black" points="846.64,-69.49 856.68,-66.12 846.73,-62.49 846.64,-69.49"/>
<text text-anchor="middle" x="619.5" y="-67" font-family="Fira Mono Medium" font-size="10.00">at</text>
</g>
<!-- node_7 -->
<g id="node8" class="node">
<title>node_7</title>
<polygon fill="none" stroke="black" points="594.5,-128 457.5,-128 457.5,-84 594.5,-84 594.5,-128"/>
<text text-anchor="start" x="507" y="-115.4" font-family="Fira Mono Medium" font-weight="bold" font-size="12.00">human</text>
<text text-anchor="start" x="465.5" y="-103.4" font-family="Fira Mono Medium" font-style="italic" font-size="12.00">kind:</text>
<text text-anchor="start" x="503.5" y="-103.4" font-family="Fira Mono Medium" font-size="12.00"> missionary</text>
<text text-anchor="start" x="469" y="-91.4" font-family="Fira Mono Medium" font-style="italic" font-size="12.00">can&#45;drive:</text>
<text text-anchor="start" x="545" y="-91.4" font-family="Fira Mono Medium" font-size="12.00"> true</text>
</g>
<!-- node_6&#45;&gt;node_7 -->
<g id="edge13" class="edge">
<title>node_6&#45;&gt;node_7</title>
<path fill="none" stroke="black" d="M366.15,-80.99C372.19,-82.02 378.2,-83.04 384,-84 404.48,-87.39 426.66,-90.92 447.23,-94.13"/>
<polygon fill="black" stroke="black" points="446.77,-97.6 457.18,-95.68 447.84,-90.69 446.77,-97.6"/>
<text text-anchor="middle" x="411.5" y="-96" font-family="Fira Mono Medium" font-size="10.00">not&#45;equal</text>
</g>
<!-- node_7&#45;&gt;node_0 -->
<g id="edge16" class="edge">
<title>node_7&#45;&gt;node_0</title>
<path fill="none" stroke="black" d="M594.67,-117.85C607.46,-120.09 620.85,-122.44 633.72,-124.69"/>
<polygon fill="black" stroke="black" points="633.44,-128.2 643.89,-126.47 634.65,-121.3 633.44,-128.2"/>
<text text-anchor="middle" x="619.5" y="-126" font-family="Fira Mono Medium" font-size="10.00">at</text>
</g>
<!-- node_7&#45;&gt;node_6 -->
<g id="edge15" class="edge">
<title>node_7&#45;&gt;node_6</title>
<path fill="none" stroke="black" d="M479.57,-83.85C466.75,-78.61 452.59,-73.76 439,-71 418.96,-66.93 396.97,-65.31 376.47,-64.97"/>
<polygon fill="black" stroke="black" points="376.24,-61.47 366.22,-64.91 376.2,-68.47 376.24,-61.47"/>
<text text-anchor="middle" x="411.5" y="-74" font-family="Fira Mono Medium" font-size="10.00">not&#45;equal</text>
</g>
</g>
</svg>
