<?xml version="1.0" encoding="UTF-8" standalone="no"?>
<!DOCTYPE svg PUBLIC "-//W3C//DTD SVG 1.1//EN"
 "http://www.w3.org/Graphics/SVG/1.1/DTD/svg11.dtd">
<!-- Generated by graphviz version 2.43.0 (0)
 -->
<!-- Title: %3 Pages: 1 -->
<svg width="995pt" height="400pt"
 viewBox="0.00 0.00 995.00 400.00" xmlns="http://www.w3.org/2000/svg" xmlns:xlink="http://www.w3.org/1999/xlink">
<g id="graph0" class="graph" transform="scale(1 1) rotate(0) translate(4 396)">
<title>%3</title>
<polygon fill="white" stroke="transparent" points="-4,4 -4,-396 991,-396 991,4 -4,4"/>
<!-- node_0 -->
<g id="node1" class="node">
<title>node_0</title>
<polygon fill="none" stroke="black" points="766,-249 644,-249 644,-213 766,-213 766,-249"/>
<text text-anchor="start" x="689.5" y="-234.4" font-family="Fira Mono Medium" font-weight="bold" font-size="12.00">bank</text>
<text text-anchor="start" x="652" y="-222.4" font-family="Fira Mono Medium" font-style="italic" font-size="12.00">location:</text>
<text text-anchor="start" x="720" y="-222.4" font-family="Fira Mono Medium" font-size="12.00"> left</text>
</g>
<!-- node_1 -->
<g id="node2" class="node">
<title>node_1</title>
<polygon fill="none" stroke="black" points="987,-249 857,-249 857,-213 987,-213 987,-249"/>
<text text-anchor="start" x="906.5" y="-234.4" font-family="Fira Mono Medium" font-weight="bold" font-size="12.00">bank</text>
<text text-anchor="start" x="865" y="-222.4" font-family="Fira Mono Medium" font-style="italic" font-size="12.00">location:</text>
<text text-anchor="start" x="933" y="-222.4" font-family="Fira Mono Medium" font-size="12.00"> right</text>
</g>
<!-- node_0&#45;&gt;node_1 -->
<g id="edge1" class="edge">
<title>node_0&#45;&gt;node_1</title>
<path fill="none" stroke="black" d="M766.18,-231C791.07,-231 820.2,-231 846.43,-231"/>
<polygon fill="black" stroke="black" points="846.7,-234.5 856.7,-231 846.7,-227.5 846.7,-234.5"/>
<text text-anchor="middle" x="811.5" y="-234" font-family="Fira Mono Medium" font-size="10.00">not&#45;equal</text>
</g>
<!-- node_1&#45;&gt;node_0 -->
<g id="edge2" class="edge">
<title>node_1&#45;&gt;node_0</title>
<path fill="none" stroke="black" d="M856.69,-218.1C850.73,-217.25 844.77,-216.52 839,-216 814.66,-213.79 808.33,-213.68 784,-216 781.48,-216.24 778.92,-216.52 776.33,-216.84"/>
<polygon fill="black" stroke="black" points="775.73,-213.39 766.3,-218.23 776.69,-220.33 775.73,-213.39"/>
<text text-anchor="middle" x="811.5" y="-219" font-family="Fira Mono Medium" font-size="10.00">not&#45;equal</text>
</g>
<!-- node_2 -->
<g id="node3" class="node">
<title>node_2</title>
<polygon fill="none" stroke="black" points="553,-307 499,-307 499,-271 553,-271 553,-307"/>
<text text-anchor="start" x="510.5" y="-286.9" font-family="Fira Mono Medium" font-weight="bold" font-size="12.00">boat</text>
</g>
<!-- node_2&#45;&gt;node_0 -->
<g id="edge3" class="edge">
<title>node_2&#45;&gt;node_0</title>
<path fill="none" stroke="black" d="M553.12,-280.44C575.76,-273.02 609.5,-261.97 639.33,-252.19"/>
<polygon fill="black" stroke="black" points="640.45,-255.51 648.86,-249.07 638.27,-248.86 640.45,-255.51"/>
<text text-anchor="middle" x="619.5" y="-263" font-family="Fira Mono Medium" font-size="10.00">at</text>
</g>
<!-- node_3 -->
<g id="node4" class="node">
<title>node_3</title>
<polygon fill="none" stroke="black" points="133.5,-116 3.5,-116 3.5,-72 133.5,-72 133.5,-116"/>
<text text-anchor="start" x="49.5" y="-103.4" font-family="Fira Mono Medium" font-weight="bold" font-size="12.00">human</text>
<text text-anchor="start" x="15.5" y="-91.4" font-family="Fira Mono Medium" font-style="italic" font-size="12.00">kind:</text>
<text text-anchor="start" x="53.5" y="-91.4" font-family="Fira Mono Medium" font-size="12.00"> cannibal</text>
<text text-anchor="start" x="11.5" y="-79.4" font-family="Fira Mono Medium" font-style="italic" font-size="12.00">can&#45;drive:</text>
<text text-anchor="start" x="87.5" y="-79.4" font-family="Fira Mono Medium" font-size="12.00"> true</text>
</g>
<!-- node_3&#45;&gt;node_1 -->
<g id="edge6" class="edge">
<title>node_3&#45;&gt;node_1</title>
<path fill="none" stroke="black" d="M100.44,-71.96C142.56,-44.18 221.28,0 296,0 296,0 296,0 706,0 816.02,0 885.73,-142.15 910.67,-203.43"/>
<polygon fill="black" stroke="black" points="907.48,-204.87 914.42,-212.87 913.99,-202.29 907.48,-204.87"/>
<text text-anchor="middle" x="526" y="-3" font-family="Fira Mono Medium" font-size="10.00">at</text>
</g>
<!-- node_4 -->
<g id="node5" class="node">
<title>node_4</title>
<polygon fill="none" stroke="black" points="366,-84 228,-84 228,-40 366,-40 366,-84"/>
<text text-anchor="start" x="278" y="-71.4" font-family="Fira Mono Medium" font-weight="bold" font-size="12.00">human</text>
<text text-anchor="start" x="244" y="-59.4" font-family="Fira Mono Medium" font-style="italic" font-size="12.00">kind:</text>
<text text-anchor="start" x="282" y="-59.4" font-family="Fira Mono Medium" font-size="12.00"> cannibal</text>
<text text-anchor="start" x="236" y="-47.4" font-family="Fira Mono Medium" font-style="italic" font-size="12.00">can&#45;drive:</text>
<text text-anchor="start" x="312" y="-47.4" font-family="Fira Mono Medium" font-size="12.00"> false</text>
</g>
<!-- node_3&#45;&gt;node_4 -->
<g id="edge4" class="edge">
<title>node_3&#45;&gt;node_4</title>
<path fill="none" stroke="black" d="M133.8,-84.92C160.01,-81.21 190.55,-76.9 218.01,-73.02"/>
<polygon fill="black" stroke="black" points="218.57,-76.47 227.98,-71.61 217.59,-69.54 218.57,-76.47"/>
<text text-anchor="middle" x="182.5" y="-85" font-family="Fira Mono Medium" font-size="10.00">not&#45;equal</text>
</g>
<!-- node_5 -->
<g id="node6" class="node">
<title>node_5</title>
<polygon fill="none" stroke="black" points="595,-154 457,-154 457,-110 595,-110 595,-154"/>
<text text-anchor="start" x="507" y="-141.4" font-family="Fira Mono Medium" font-weight="bold" font-size="12.00">human</text>
<text text-anchor="start" x="473" y="-129.4" font-family="Fira Mono Medium" font-style="italic" font-size="12.00">kind:</text>
<text text-anchor="start" x="511" y="-129.4" font-family="Fira Mono Medium" font-size="12.00"> cannibal</text>
<text text-anchor="start" x="465" y="-117.4" font-family="Fira Mono Medium" font-style="italic" font-size="12.00">can&#45;drive:</text>
<text text-anchor="start" x="541" y="-117.4" font-family="Fira Mono Medium" font-size="12.00"> false</text>
</g>
<!-- node_3&#45;&gt;node_5 -->
<g id="edge5" class="edge">
<title>node_3&#45;&gt;node_5</title>
<path fill="none" stroke="black" d="M108.34,-116.03C122.58,-123.05 139.1,-130.03 155,-134 277.56,-164.64 313.08,-156.18 439,-146 441.51,-145.8 444.05,-145.56 446.62,-145.3"/>
<polygon fill="black" stroke="black" points="447.05,-148.77 456.59,-144.16 446.25,-141.82 447.05,-148.77"/>
<text text-anchor="middle" x="297" y="-158" font-family="Fira Mono Medium" font-size="10.00">not&#45;equal</text>
</g>
<!-- node_4&#45;&gt;node_1 -->
<g id="edge9" class="edge">
<title>node_4&#45;&gt;node_1</title>
<path fill="none" stroke="black" d="M366,-56.37C389.24,-55.56 415.33,-55.87 439,-59 608.2,-81.38 794.87,-167.02 877.52,-208.38"/>
<polygon fill="black" stroke="black" points="876.1,-211.59 886.61,-212.96 879.25,-205.33 876.1,-211.59"/>
<text text-anchor="middle" x="619.5" y="-106" font-family="Fira Mono Medium" font-size="10.00">at</text>
</g>
<!-- node_4&#45;&gt;node_3 -->
<g id="edge7" class="edge">
<title>node_4&#45;&gt;node_3</title>
<path fill="none" stroke="black" d="M227.74,-55.49C204.48,-54.73 178.44,-55.51 155,-60 145.12,-61.89 134.92,-64.91 125.16,-68.39"/>
<polygon fill="black" stroke="black" points="123.7,-65.2 115.58,-72 126.17,-71.75 123.7,-65.2"/>
<text text-anchor="middle" x="182.5" y="-63" font-family="Fira Mono Medium" font-size="10.00">not&#45;equal</text>
</g>
<!-- node_4&#45;&gt;node_5 -->
<g id="edge8" class="edge">
<title>node_4&#45;&gt;node_5</title>
<path fill="none" stroke="black" d="M366.11,-83C391.7,-90.89 420.97,-99.92 447.36,-108.06"/>
<polygon fill="black" stroke="black" points="446.35,-111.41 456.94,-111.01 448.42,-104.72 446.35,-111.41"/>
<text text-anchor="middle" x="411.5" y="-109" font-family="Fira Mono Medium" font-size="10.00">not&#45;equal</text>
</g>
<!-- node_5&#45;&gt;node_0 -->
<g id="edge12" class="edge">
<title>node_5&#45;&gt;node_0</title>
<path fill="none" stroke="black" d="M566.72,-154.22C595.33,-170.22 633.81,-191.74 662.76,-207.93"/>
<polygon fill="black" stroke="black" points="661.36,-211.16 671.8,-212.99 664.78,-205.05 661.36,-211.16"/>
<text text-anchor="middle" x="619.5" y="-187" font-family="Fira Mono Medium" font-size="10.00">at</text>
</g>
<!-- node_5&#45;&gt;node_3 -->
<g id="edge10" class="edge">
<title>node_5&#45;&gt;node_3</title>
<path fill="none" stroke="black" d="M456.94,-126.32C372.95,-119.32 230.62,-107.44 143.84,-100.2"/>
<polygon fill="black" stroke="black" points="144.05,-96.71 133.8,-99.36 143.47,-103.68 144.05,-96.71"/>
<text text-anchor="middle" x="297" y="-122" font-family="Fira Mono Medium" font-size="10.00">not&#45;equal</text>
</g>
<!-- node_5&#45;&gt;node_4 -->
<g id="edge11" class="edge">
<title>node_5&#45;&gt;node_4</title>
<path fill="none" stroke="black" d="M499.79,-109.92C483.58,-97.08 461.42,-81.91 439,-74 419.29,-67.05 397.11,-63.39 376.27,-61.61"/>
<polygon fill="black" stroke="black" points="376.4,-58.11 366.17,-60.87 375.89,-65.09 376.4,-58.11"/>
<text text-anchor="middle" x="411.5" y="-77" font-family="Fira Mono Medium" font-size="10.00">not&#45;equal</text>
</g>
<!-- node_6 -->
<g id="node7" class="node">
<title>node_6</title>
<polygon fill="none" stroke="black" points="137,-316 0,-316 0,-272 137,-272 137,-316"/>
<text text-anchor="start" x="49.5" y="-303.4" font-family="Fira Mono Medium" font-weight="bold" font-size="12.00">human</text>
<text text-anchor="start" x="8" y="-291.4" font-family="Fira Mono Medium" font-style="italic" font-size="12.00">kind:</text>
<text text-anchor="start" x="46" y="-291.4" font-family="Fira Mono Medium" font-size="12.00"> missionary</text>
<text text-anchor="start" x="11.5" y="-279.4" font-family="Fira Mono Medium" font-style="italic" font-size="12.00">can&#45;drive:</text>
<text text-anchor="start" x="87.5" y="-279.4" font-family="Fira Mono Medium" font-size="12.00"> true</text>
</g>
<!-- node_6&#45;&gt;node_1 -->
<g id="edge15" class="edge">
<title>node_6&#45;&gt;node_1</title>
<path fill="none" stroke="black" d="M103.63,-316.18C146.66,-341.95 223.76,-381 296,-381 296,-381 296,-381 706,-381 791.55,-381 867.38,-300.13 901.64,-257.15"/>
<polygon fill="black" stroke="black" points="904.54,-259.13 907.93,-249.09 899.02,-254.82 904.54,-259.13"/>
<text text-anchor="middle" x="526" y="-384" font-family="Fira Mono Medium" font-size="10.00">at</text>
</g>
<!-- node_7 -->
<g id="node8" class="node">
<title>node_7</title>
<polygon fill="none" stroke="black" points="365.5,-334 228.5,-334 228.5,-290 365.5,-290 365.5,-334"/>
<text text-anchor="start" x="278" y="-321.4" font-family="Fira Mono Medium" font-weight="bold" font-size="12.00">human</text>
<text text-anchor="start" x="236.5" y="-309.4" font-family="Fira Mono Medium" font-style="italic" font-size="12.00">kind:</text>
<text text-anchor="start" x="274.5" y="-309.4" font-family="Fira Mono Medium" font-size="12.00"> missionary</text>
<text text-anchor="start" x="240" y="-297.4" font-family="Fira Mono Medium" font-style="italic" font-size="12.00">can&#45;drive:</text>
<text text-anchor="start" x="316" y="-297.4" font-family="Fira Mono Medium" font-size="12.00"> true</text>
</g>
<!-- node_6&#45;&gt;node_7 -->
<g id="edge13" class="edge">
<title>node_6&#45;&gt;node_7</title>
<path fill="none" stroke="black" d="M137.1,-304.1C143.15,-304.82 149.18,-305.47 155,-306 175.55,-307.87 197.84,-309.17 218.5,-310.05"/>
<polygon fill="black" stroke="black" points="218.36,-313.55 228.49,-310.46 218.64,-306.56 218.36,-313.55"/>
<text text-anchor="middle" x="182.5" y="-312" font-family="Fira Mono Medium" font-size="10.00">not&#45;equal</text>
</g>
<!-- node_8 -->
<g id="node9" class="node">
<title>node_8</title>
<polygon fill="none" stroke="black" points="594.5,-253 457.5,-253 457.5,-209 594.5,-209 594.5,-253"/>
<text text-anchor="start" x="507" y="-240.4" font-family="Fira Mono Medium" font-weight="bold" font-size="12.00">human</text>
<text text-anchor="start" x="465.5" y="-228.4" font-family="Fira Mono Medium" font-style="italic" font-size="12.00">kind:</text>
<text text-anchor="start" x="503.5" y="-228.4" font-family="Fira Mono Medium" font-size="12.00"> missionary</text>
<text text-anchor="start" x="469" y="-216.4" font-family="Fira Mono Medium" font-style="italic" font-size="12.00">can&#45;drive:</text>
<text text-anchor="start" x="545" y="-216.4" font-family="Fira Mono Medium" font-size="12.00"> true</text>
</g>
<!-- node_6&#45;&gt;node_8 -->
<g id="edge14" class="edge">
<title>node_6&#45;&gt;node_8</title>
<path fill="none" stroke="black" d="M137.33,-283.43C165.38,-279.14 198.24,-274.21 228,-270 302.35,-259.49 387.32,-248.43 447.27,-240.78"/>
<polygon fill="black" stroke="black" points="447.94,-244.22 457.42,-239.49 447.06,-237.28 447.94,-244.22"/>
<text text-anchor="middle" x="297" y="-273" font-family="Fira Mono Medium" font-size="10.00">not&#45;equal</text>
</g>
<!-- node_7&#45;&gt;node_1 -->
<g id="edge18" class="edge">
<title>node_7&#45;&gt;node_1</title>
<path fill="none" stroke="black" d="M365.55,-319.74C371.78,-320.25 378,-320.69 384,-321 408.41,-322.27 414.56,-321.39 439,-321 508.36,-319.89 526.34,-325.92 595,-316 687.78,-302.59 792.16,-272.65 857.26,-252.14"/>
<polygon fill="black" stroke="black" points="858.49,-255.42 866.97,-249.06 856.38,-248.75 858.49,-255.42"/>
<text text-anchor="middle" x="619.5" y="-315" font-family="Fira Mono Medium" font-size="10.00">at</text>
</g>
<!-- node_7&#45;&gt;node_6 -->
<g id="edge16" class="edge">
<title>node_7&#45;&gt;node_6</title>
<path fill="none" stroke="black" d="M228.16,-295.58C222.05,-294.54 215.93,-293.65 210,-293 189.77,-290.79 167.81,-290.13 147.4,-290.24"/>
<polygon fill="black" stroke="black" points="147.15,-286.74 137.19,-290.36 147.23,-293.74 147.15,-286.74"/>
<text text-anchor="middle" x="182.5" y="-296" font-family="Fira Mono Medium" font-size="10.00">not&#45;equal</text>
</g>
<!-- node_7&#45;&gt;node_8 -->
<g id="edge17" class="edge">
<title>node_7&#45;&gt;node_8</title>
<path fill="none" stroke="black" d="M365.66,-310.49C390.26,-307.33 417.32,-300.63 439,-287 450.59,-279.71 446.42,-270.69 457,-262 458.34,-260.9 459.73,-259.82 461.16,-258.78"/>
<polygon fill="black" stroke="black" points="463.28,-261.58 469.68,-253.14 459.41,-255.74 463.28,-261.58"/>
<text text-anchor="middle" x="411.5" y="-310" font-family="Fira Mono Medium" font-size="10.00">not&#45;equal</text>
</g>
<!-- node_8&#45;&gt;node_0 -->
<g id="edge21" class="edge">
<title>node_8&#45;&gt;node_0</title>
<path fill="none" stroke="black" d="M594.67,-231C607.46,-231 620.85,-231 633.72,-231"/>
<polygon fill="black" stroke="black" points="633.89,-234.5 643.89,-231 633.89,-227.5 633.89,-234.5"/>
<text text-anchor="middle" x="619.5" y="-234" font-family="Fira Mono Medium" font-size="10.00">at</text>
</g>
<!-- node_8&#45;&gt;node_6 -->
<g id="edge19" class="edge">
<title>node_8&#45;&gt;node_6</title>
<path fill="none" stroke="black" d="M457.42,-225.79C396.81,-222.61 305.7,-221.55 228,-236 193.17,-242.48 155.88,-255.77 126.23,-268"/>
<polygon fill="black" stroke="black" points="124.75,-264.83 116.88,-271.93 127.46,-271.28 124.75,-264.83"/>
<text text-anchor="middle" x="297" y="-239" font-family="Fira Mono Medium" font-size="10.00">not&#45;equal</text>
</g>
<!-- node_8&#45;&gt;node_7 -->
<g id="edge20" class="edge">
<title>node_8&#45;&gt;node_7</title>
<path fill="none" stroke="black" d="M457.39,-249.82C433.95,-256.82 407.63,-265.21 384,-274 374.38,-277.58 364.29,-281.69 354.55,-285.86"/>
<polygon fill="black" stroke="black" points="353.12,-282.67 345.34,-289.86 355.91,-289.09 353.12,-282.67"/>
<text text-anchor="middle" x="411.5" y="-277" font-family="Fira Mono Medium" font-size="10.00">not&#45;equal</text>
</g>
</g>
</svg>
