<?xml version="1.0" encoding="UTF-8" standalone="no"?>
<!DOCTYPE svg PUBLIC "-//W3C//DTD SVG 1.1//EN"
 "http://www.w3.org/Graphics/SVG/1.1/DTD/svg11.dtd">
<!-- Generated by graphviz version 2.43.0 (0)
 -->
<!-- Title: %3 Pages: 1 -->
<svg width="824pt" height="285pt"
 viewBox="0.00 0.00 824.00 285.34" xmlns="http://www.w3.org/2000/svg" xmlns:xlink="http://www.w3.org/1999/xlink">
<g id="graph0" class="graph" transform="scale(1 1) rotate(0) translate(4 281.34)">
<title>%3</title>
<polygon fill="white" stroke="transparent" points="-4,4 -4,-281.34 820,-281.34 820,4 -4,4"/>
<!-- node_0 -->
<g id="node1" class="node">
<title>node_0</title>
<polygon fill="none" stroke="black" points="587,-115.34 465,-115.34 465,-79.34 587,-79.34 587,-115.34"/>
<text text-anchor="start" x="510.5" y="-100.74" font-family="Fira Mono Medium" font-weight="bold" font-size="12.00">bank</text>
<text text-anchor="start" x="473" y="-88.74" font-family="Fira Mono Medium" font-style="italic" font-size="12.00">location:</text>
<text text-anchor="start" x="541" y="-88.74" font-family="Fira Mono Medium" font-size="12.00"> left</text>
</g>
<!-- node_1 -->
<g id="node2" class="node">
<title>node_1</title>
<polygon fill="none" stroke="black" points="816,-149.34 686,-149.34 686,-113.34 816,-113.34 816,-149.34"/>
<text text-anchor="start" x="735.5" y="-134.74" font-family="Fira Mono Medium" font-weight="bold" font-size="12.00">bank</text>
<text text-anchor="start" x="694" y="-122.74" font-family="Fira Mono Medium" font-style="italic" font-size="12.00">location:</text>
<text text-anchor="start" x="762" y="-122.74" font-family="Fira Mono Medium" font-size="12.00"> right</text>
</g>
<!-- node_0&#45;&gt;node_1 -->
<g id="edge1" class="edge">
<title>node_0&#45;&gt;node_1</title>
<path fill="none" stroke="black" d="M587.05,-106.5C614.4,-110.67 647.04,-115.64 675.9,-120.04"/>
<polygon fill="black" stroke="black" points="675.52,-123.52 685.93,-121.57 676.58,-116.6 675.52,-123.52"/>
<text text-anchor="middle" x="640.5" y="-121.34" font-family="Fira Mono Medium" font-size="10.00">not&#45;equal</text>
</g>
<!-- node_1&#45;&gt;node_0 -->
<g id="edge2" class="edge">
<title>node_1&#45;&gt;node_0</title>
<path fill="none" stroke="black" d="M716.29,-113.32C701.85,-106.57 684.53,-99.72 668,-96.34 645.33,-91.7 620.18,-90.63 597.47,-91.12"/>
<polygon fill="black" stroke="black" points="597.11,-87.62 587.22,-91.44 597.33,-94.62 597.11,-87.62"/>
<text text-anchor="middle" x="640.5" y="-99.34" font-family="Fira Mono Medium" font-size="10.00">not&#45;equal</text>
</g>
<!-- node_2 -->
<g id="node3" class="node">
<title>node_2</title>
<polygon fill="none" stroke="black" points="324.5,-56.34 270.5,-56.34 270.5,-20.34 324.5,-20.34 324.5,-56.34"/>
<text text-anchor="start" x="282" y="-36.24" font-family="Fira Mono Medium" font-weight="bold" font-size="12.00">boat</text>
</g>
<!-- node_2&#45;&gt;node_0 -->
<g id="edge3" class="edge">
<title>node_2&#45;&gt;node_0</title>
<path fill="none" stroke="black" d="M324.67,-44.96C352.91,-52.12 399.17,-63.91 439,-74.34 444.23,-75.71 449.64,-77.14 455.08,-78.58"/>
<polygon fill="black" stroke="black" points="454.31,-81.99 464.88,-81.17 456.11,-75.23 454.31,-81.99"/>
<text text-anchor="middle" x="411.5" y="-77.34" font-family="Fira Mono Medium" font-size="10.00">at</text>
</g>
<!-- node_3 -->
<g id="node4" class="node">
<title>node_3</title>
<polygon fill="none" stroke="black" points="362.5,-180.34 232.5,-180.34 232.5,-136.34 362.5,-136.34 362.5,-180.34"/>
<text text-anchor="start" x="278.5" y="-167.74" font-family="Fira Mono Medium" font-weight="bold" font-size="12.00">human</text>
<text text-anchor="start" x="244.5" y="-155.74" font-family="Fira Mono Medium" font-style="italic" font-size="12.00">kind:</text>
<text text-anchor="start" x="282.5" y="-155.74" font-family="Fira Mono Medium" font-size="12.00"> cannibal</text>
<text text-anchor="start" x="240.5" y="-143.74" font-family="Fira Mono Medium" font-style="italic" font-size="12.00">can&#45;drive:</text>
<text text-anchor="start" x="316.5" y="-143.74" font-family="Fira Mono Medium" font-size="12.00"> true</text>
</g>
<!-- node_3&#45;&gt;node_0 -->
<g id="edge6" class="edge">
<title>node_3&#45;&gt;node_0</title>
<path fill="none" stroke="black" d="M362.8,-141.02C391.59,-133.27 425.6,-124.11 455.03,-116.18"/>
<polygon fill="black" stroke="black" points="456.07,-119.53 464.82,-113.55 454.25,-112.77 456.07,-119.53"/>
<text text-anchor="middle" x="411.5" y="-137.34" font-family="Fira Mono Medium" font-size="10.00">at</text>
</g>
<!-- node_4 -->
<g id="node5" class="node">
<title>node_4</title>
<polygon fill="none" stroke="black" points="138,-239.34 0,-239.34 0,-195.34 138,-195.34 138,-239.34"/>
<text text-anchor="start" x="50" y="-226.74" font-family="Fira Mono Medium" font-weight="bold" font-size="12.00">human</text>
<text text-anchor="start" x="16" y="-214.74" font-family="Fira Mono Medium" font-style="italic" font-size="12.00">kind:</text>
<text text-anchor="start" x="54" y="-214.74" font-family="Fira Mono Medium" font-size="12.00"> cannibal</text>
<text text-anchor="start" x="8" y="-202.74" font-family="Fira Mono Medium" font-style="italic" font-size="12.00">can&#45;drive:</text>
<text text-anchor="start" x="84" y="-202.74" font-family="Fira Mono Medium" font-size="12.00"> false</text>
</g>
<!-- node_3&#45;&gt;node_4 -->
<g id="edge4" class="edge">
<title>node_3&#45;&gt;node_4</title>
<path fill="none" stroke="black" d="M232.35,-150.39C207.96,-149.42 180.23,-150.83 156,-158.34 136.3,-164.45 117.11,-176.8 101.87,-188.63"/>
<polygon fill="black" stroke="black" points="99.42,-186.11 93.83,-195.11 103.81,-191.56 99.42,-186.11"/>
<text text-anchor="middle" x="183.5" y="-161.34" font-family="Fira Mono Medium" font-size="10.00">not&#45;equal</text>
</g>
<!-- node_5 -->
<g id="node6" class="node">
<title>node_5</title>
<polygon fill="none" stroke="black" points="595,-213.34 457,-213.34 457,-169.34 595,-169.34 595,-213.34"/>
<text text-anchor="start" x="507" y="-200.74" font-family="Fira Mono Medium" font-weight="bold" font-size="12.00">human</text>
<text text-anchor="start" x="473" y="-188.74" font-family="Fira Mono Medium" font-style="italic" font-size="12.00">kind:</text>
<text text-anchor="start" x="511" y="-188.74" font-family="Fira Mono Medium" font-size="12.00"> cannibal</text>
<text text-anchor="start" x="465" y="-176.74" font-family="Fira Mono Medium" font-style="italic" font-size="12.00">can&#45;drive:</text>
<text text-anchor="start" x="541" y="-176.74" font-family="Fira Mono Medium" font-size="12.00"> false</text>
</g>
<!-- node_3&#45;&gt;node_5 -->
<g id="edge5" class="edge">
<title>node_3&#45;&gt;node_5</title>
<path fill="none" stroke="black" d="M362.6,-153.44C386.73,-152.87 414.3,-153.76 439,-158.34 448.34,-160.07 457.97,-162.77 467.26,-165.9"/>
<polygon fill="black" stroke="black" points="466.19,-169.24 476.78,-169.3 468.54,-162.64 466.19,-169.24"/>
<text text-anchor="middle" x="411.5" y="-161.34" font-family="Fira Mono Medium" font-size="10.00">not&#45;equal</text>
</g>
<!-- node_4&#45;&gt;node_1 -->
<g id="edge9" class="edge">
<title>node_4&#45;&gt;node_1</title>
<path fill="none" stroke="black" d="M121.65,-239.49C132.81,-243.62 144.67,-247.51 156,-250.34 187.72,-258.25 196.37,-257.34 229,-259.34 392.19,-269.36 440.95,-277.1 595,-222.34 640.36,-206.22 687.34,-176.48 717.51,-155.39"/>
<polygon fill="black" stroke="black" points="719.8,-158.06 725.94,-149.42 715.76,-152.34 719.8,-158.06"/>
<text text-anchor="middle" x="411.5" y="-269.34" font-family="Fira Mono Medium" font-size="10.00">at</text>
</g>
<!-- node_4&#45;&gt;node_3 -->
<g id="edge7" class="edge">
<title>node_4&#45;&gt;node_3</title>
<path fill="none" stroke="black" d="M138.46,-197.14C144.38,-195.48 150.29,-193.86 156,-192.34 177.56,-186.6 201.08,-180.75 222.61,-175.55"/>
<polygon fill="black" stroke="black" points="223.44,-178.95 232.35,-173.22 221.81,-172.15 223.44,-178.95"/>
<text text-anchor="middle" x="183.5" y="-195.34" font-family="Fira Mono Medium" font-size="10.00">not&#45;equal</text>
</g>
<!-- node_4&#45;&gt;node_5 -->
<g id="edge8" class="edge">
<title>node_4&#45;&gt;node_5</title>
<path fill="none" stroke="black" d="M138.32,-230.43C213.14,-242.34 336.19,-254.82 439,-231.34 451.92,-228.39 465.22,-223.34 477.38,-217.8"/>
<polygon fill="black" stroke="black" points="478.9,-220.96 486.43,-213.5 475.89,-214.63 478.9,-220.96"/>
<text text-anchor="middle" x="297.5" y="-247.34" font-family="Fira Mono Medium" font-size="10.00">not&#45;equal</text>
</g>
<!-- node_5&#45;&gt;node_1 -->
<g id="edge12" class="edge">
<title>node_5&#45;&gt;node_1</title>
<path fill="none" stroke="black" d="M595.12,-173.01C620.67,-166.14 649.83,-158.29 675.9,-151.28"/>
<polygon fill="black" stroke="black" points="676.98,-154.61 685.73,-148.63 675.16,-147.85 676.98,-154.61"/>
<text text-anchor="middle" x="640.5" y="-169.34" font-family="Fira Mono Medium" font-size="10.00">at</text>
</g>
<!-- node_5&#45;&gt;node_3 -->
<g id="edge10" class="edge">
<title>node_5&#45;&gt;node_3</title>
<path fill="none" stroke="black" d="M456.98,-181.43C430.5,-177.57 400.07,-173.14 373,-169.19"/>
<polygon fill="black" stroke="black" points="373.2,-165.69 362.8,-167.71 372.19,-172.61 373.2,-165.69"/>
<text text-anchor="middle" x="411.5" y="-181.34" font-family="Fira Mono Medium" font-size="10.00">not&#45;equal</text>
</g>
<!-- node_5&#45;&gt;node_4 -->
<g id="edge11" class="edge">
<title>node_5&#45;&gt;node_4</title>
<path fill="none" stroke="black" d="M456.79,-195.24C374.12,-199.96 235.11,-207.9 148.19,-212.87"/>
<polygon fill="black" stroke="black" points="147.9,-209.38 138.12,-213.45 148.3,-216.37 147.9,-209.38"/>
<text text-anchor="middle" x="297.5" y="-210.34" font-family="Fira Mono Medium" font-size="10.00">not&#45;equal</text>
</g>
<!-- node_6 -->
<g id="node7" class="node">
<title>node_6</title>
<polygon fill="none" stroke="black" points="137.5,-84.34 0.5,-84.34 0.5,-40.34 137.5,-40.34 137.5,-84.34"/>
<text text-anchor="start" x="50" y="-71.74" font-family="Fira Mono Medium" font-weight="bold" font-size="12.00">human</text>
<text text-anchor="start" x="8.5" y="-59.74" font-family="Fira Mono Medium" font-style="italic" font-size="12.00">kind:</text>
<text text-anchor="start" x="46.5" y="-59.74" font-family="Fira Mono Medium" font-size="12.00"> missionary</text>
<text text-anchor="start" x="12" y="-47.74" font-family="Fira Mono Medium" font-style="italic" font-size="12.00">can&#45;drive:</text>
<text text-anchor="start" x="88" y="-47.74" font-family="Fira Mono Medium" font-size="12.00"> true</text>
</g>
<!-- node_6&#45;&gt;node_1 -->
<g id="edge14" class="edge">
<title>node_6&#45;&gt;node_1</title>
<path fill="none" stroke="black" d="M124.53,-40.21C154.76,-29.13 193.34,-16.92 229,-11.34 424.56,19.26 483.65,-14.27 668,-86.34 682.99,-92.2 698.67,-100.27 712.25,-107.96"/>
<polygon fill="black" stroke="black" points="710.88,-111.21 721.29,-113.19 714.38,-105.15 710.88,-111.21"/>
<text text-anchor="middle" x="411.5" y="-10.34" font-family="Fira Mono Medium" font-size="10.00">at</text>
</g>
<!-- node_7 -->
<g id="node8" class="node">
<title>node_7</title>
<polygon fill="none" stroke="black" points="366,-118.34 229,-118.34 229,-74.34 366,-74.34 366,-118.34"/>
<text text-anchor="start" x="278.5" y="-105.74" font-family="Fira Mono Medium" font-weight="bold" font-size="12.00">human</text>
<text text-anchor="start" x="237" y="-93.74" font-family="Fira Mono Medium" font-style="italic" font-size="12.00">kind:</text>
<text text-anchor="start" x="275" y="-93.74" font-family="Fira Mono Medium" font-size="12.00"> missionary</text>
<text text-anchor="start" x="240.5" y="-81.74" font-family="Fira Mono Medium" font-style="italic" font-size="12.00">can&#45;drive:</text>
<text text-anchor="start" x="316.5" y="-81.74" font-family="Fira Mono Medium" font-size="12.00"> true</text>
</g>
<!-- node_6&#45;&gt;node_7 -->
<g id="edge13" class="edge">
<title>node_6&#45;&gt;node_7</title>
<path fill="none" stroke="black" d="M137.65,-72.5C163.2,-76.33 192.46,-80.72 218.85,-84.68"/>
<polygon fill="black" stroke="black" points="218.4,-88.16 228.81,-86.18 219.44,-81.23 218.4,-88.16"/>
<text text-anchor="middle" x="183.5" y="-86.34" font-family="Fira Mono Medium" font-size="10.00">not&#45;equal</text>
</g>
<!-- node_7&#45;&gt;node_0 -->
<g id="edge16" class="edge">
<title>node_7&#45;&gt;node_0</title>
<path fill="none" stroke="black" d="M366.15,-91.15C372.18,-90.82 378.2,-90.54 384,-90.34 408.43,-89.48 414.58,-89.35 439,-90.34 444.11,-90.55 449.38,-90.82 454.69,-91.15"/>
<polygon fill="black" stroke="black" points="454.68,-94.66 464.89,-91.82 455.15,-87.67 454.68,-94.66"/>
<text text-anchor="middle" x="411.5" y="-93.34" font-family="Fira Mono Medium" font-size="10.00">at</text>
</g>
<!-- node_7&#45;&gt;node_6 -->
<g id="edge15" class="edge">
<title>node_7&#45;&gt;node_6</title>
<path fill="none" stroke="black" d="M251.81,-74.24C238.95,-68.94 224.69,-64.03 211,-61.34 190.67,-57.34 168.37,-56.09 147.62,-56.22"/>
<polygon fill="black" stroke="black" points="147.52,-52.72 137.57,-56.38 147.63,-59.72 147.52,-52.72"/>
<text text-anchor="middle" x="183.5" y="-64.34" font-family="Fira Mono Medium" font-size="10.00">not&#45;equal</text>
</g>
</g>
</svg>
