<?xml version="1.0" encoding="UTF-8" standalone="no"?>
<!DOCTYPE svg PUBLIC "-//W3C//DTD SVG 1.1//EN"
 "http://www.w3.org/Graphics/SVG/1.1/DTD/svg11.dtd">
<!-- Generated by graphviz version 2.43.0 (0)
 -->
<!-- Title: %3 Pages: 1 -->
<svg width="1052pt" height="425pt"
 viewBox="0.00 0.00 1052.00 425.00" xmlns="http://www.w3.org/2000/svg" xmlns:xlink="http://www.w3.org/1999/xlink">
<g id="graph0" class="graph" transform="scale(1 1) rotate(0) translate(4 421)">
<title>%3</title>
<polygon fill="white" stroke="transparent" points="-4,4 -4,-421 1048,-421 1048,4 -4,4"/>
<!-- node_0 -->
<g id="node1" class="node">
<title>node_0</title>
<polygon fill="none" stroke="black" points="815,-191 693,-191 693,-155 815,-155 815,-191"/>
<text text-anchor="start" x="738.5" y="-176.4" font-family="Fira Mono Medium" font-weight="bold" font-size="12.00">bank</text>
<text text-anchor="start" x="701" y="-164.4" font-family="Fira Mono Medium" font-style="italic" font-size="12.00">location:</text>
<text text-anchor="start" x="769" y="-164.4" font-family="Fira Mono Medium" font-size="12.00"> left</text>
</g>
<!-- node_1 -->
<g id="node2" class="node">
<title>node_1</title>
<polygon fill="none" stroke="black" points="1044,-225 914,-225 914,-189 1044,-189 1044,-225"/>
<text text-anchor="start" x="963.5" y="-210.4" font-family="Fira Mono Medium" font-weight="bold" font-size="12.00">bank</text>
<text text-anchor="start" x="922" y="-198.4" font-family="Fira Mono Medium" font-style="italic" font-size="12.00">location:</text>
<text text-anchor="start" x="990" y="-198.4" font-family="Fira Mono Medium" font-size="12.00"> right</text>
</g>
<!-- node_0&#45;&gt;node_1 -->
<g id="edge1" class="edge">
<title>node_0&#45;&gt;node_1</title>
<path fill="none" stroke="black" d="M815.05,-182.16C842.4,-186.33 875.04,-191.3 903.9,-195.7"/>
<polygon fill="black" stroke="black" points="903.52,-199.18 913.93,-197.23 904.58,-192.26 903.52,-199.18"/>
<text text-anchor="middle" x="868.5" y="-197" font-family="Fira Mono Medium" font-size="10.00">not&#45;equal</text>
</g>
<!-- node_1&#45;&gt;node_0 -->
<g id="edge2" class="edge">
<title>node_1&#45;&gt;node_0</title>
<path fill="none" stroke="black" d="M944.29,-188.98C929.85,-182.23 912.53,-175.38 896,-172 873.33,-167.36 848.18,-166.29 825.47,-166.78"/>
<polygon fill="black" stroke="black" points="825.11,-163.28 815.22,-167.1 825.33,-170.28 825.11,-163.28"/>
<text text-anchor="middle" x="868.5" y="-175" font-family="Fira Mono Medium" font-size="10.00">not&#45;equal</text>
</g>
<!-- node_2 -->
<g id="node3" class="node">
<title>node_2</title>
<polygon fill="none" stroke="black" points="781,-417 727,-417 727,-381 781,-381 781,-417"/>
<text text-anchor="start" x="738.5" y="-396.9" font-family="Fira Mono Medium" font-weight="bold" font-size="12.00">boat</text>
</g>
<!-- node_2&#45;&gt;node_1 -->
<g id="edge3" class="edge">
<title>node_2&#45;&gt;node_1</title>
<path fill="none" stroke="black" d="M781.18,-399.44C811.78,-398.63 862.49,-393.02 896,-367 939.08,-333.55 961.56,-271.21 971.48,-235.01"/>
<polygon fill="black" stroke="black" points="974.93,-235.67 974.06,-225.11 968.15,-233.9 974.93,-235.67"/>
<text text-anchor="middle" x="868.5" y="-394" font-family="Fira Mono Medium" font-size="10.00">at</text>
</g>
<!-- node_3 -->
<g id="node4" class="node">
<title>node_3</title>
<polygon fill="none" stroke="black" points="361.5,-290 231.5,-290 231.5,-246 361.5,-246 361.5,-290"/>
<text text-anchor="start" x="277.5" y="-277.4" font-family="Fira Mono Medium" font-weight="bold" font-size="12.00">human</text>
<text text-anchor="start" x="243.5" y="-265.4" font-family="Fira Mono Medium" font-style="italic" font-size="12.00">kind:</text>
<text text-anchor="start" x="281.5" y="-265.4" font-family="Fira Mono Medium" font-size="12.00"> cannibal</text>
<text text-anchor="start" x="239.5" y="-253.4" font-family="Fira Mono Medium" font-style="italic" font-size="12.00">can&#45;drive:</text>
<text text-anchor="start" x="315.5" y="-253.4" font-family="Fira Mono Medium" font-size="12.00"> true</text>
</g>
<!-- node_3&#45;&gt;node_1 -->
<g id="edge6" class="edge">
<title>node_3&#45;&gt;node_1</title>
<path fill="none" stroke="black" d="M361.64,-285.95C368.81,-287.52 376.03,-288.92 383,-290 415.11,-294.96 423.52,-293.11 456,-294 619.34,-298.47 664.39,-311.29 823,-272 862.14,-262.3 904.2,-244.13 934.61,-229.46"/>
<polygon fill="black" stroke="black" points="936.22,-232.57 943.66,-225.04 933.14,-226.29 936.22,-232.57"/>
<text text-anchor="middle" x="639.5" y="-302" font-family="Fira Mono Medium" font-size="10.00">at</text>
</g>
<!-- node_4 -->
<g id="node5" class="node">
<title>node_4</title>
<polygon fill="none" stroke="black" points="594,-230 456,-230 456,-186 594,-186 594,-230"/>
<text text-anchor="start" x="506" y="-217.4" font-family="Fira Mono Medium" font-weight="bold" font-size="12.00">human</text>
<text text-anchor="start" x="472" y="-205.4" font-family="Fira Mono Medium" font-style="italic" font-size="12.00">kind:</text>
<text text-anchor="start" x="510" y="-205.4" font-family="Fira Mono Medium" font-size="12.00"> cannibal</text>
<text text-anchor="start" x="464" y="-193.4" font-family="Fira Mono Medium" font-style="italic" font-size="12.00">can&#45;drive:</text>
<text text-anchor="start" x="540" y="-193.4" font-family="Fira Mono Medium" font-size="12.00"> false</text>
</g>
<!-- node_3&#45;&gt;node_4 -->
<g id="edge4" class="edge">
<title>node_3&#45;&gt;node_4</title>
<path fill="none" stroke="black" d="M361.85,-248.88C368.97,-246.85 376.13,-244.86 383,-243 403.3,-237.52 425.33,-231.89 445.81,-226.8"/>
<polygon fill="black" stroke="black" points="446.86,-230.15 455.72,-224.35 445.17,-223.35 446.86,-230.15"/>
<text text-anchor="middle" x="410.5" y="-246" font-family="Fira Mono Medium" font-size="10.00">not&#45;equal</text>
</g>
<!-- node_5 -->
<g id="node6" class="node">
<title>node_5</title>
<polygon fill="none" stroke="black" points="823,-263 685,-263 685,-219 823,-219 823,-263"/>
<text text-anchor="start" x="735" y="-250.4" font-family="Fira Mono Medium" font-weight="bold" font-size="12.00">human</text>
<text text-anchor="start" x="701" y="-238.4" font-family="Fira Mono Medium" font-style="italic" font-size="12.00">kind:</text>
<text text-anchor="start" x="739" y="-238.4" font-family="Fira Mono Medium" font-size="12.00"> cannibal</text>
<text text-anchor="start" x="693" y="-226.4" font-family="Fira Mono Medium" font-style="italic" font-size="12.00">can&#45;drive:</text>
<text text-anchor="start" x="769" y="-226.4" font-family="Fira Mono Medium" font-size="12.00"> false</text>
</g>
<!-- node_3&#45;&gt;node_5 -->
<g id="edge5" class="edge">
<title>node_3&#45;&gt;node_5</title>
<path fill="none" stroke="black" d="M361.8,-264.19C444,-259.32 586.27,-250.88 674.7,-245.64"/>
<polygon fill="black" stroke="black" points="675.17,-249.12 684.94,-245.03 674.75,-242.13 675.17,-249.12"/>
<text text-anchor="middle" x="525" y="-261" font-family="Fira Mono Medium" font-size="10.00">not&#45;equal</text>
</g>
<!-- node_4&#45;&gt;node_0 -->
<g id="edge9" class="edge">
<title>node_4&#45;&gt;node_0</title>
<path fill="none" stroke="black" d="M594.32,-189.48C600.28,-188.18 606.23,-187 612,-186 634.79,-182.06 659.88,-179.26 682.49,-177.29"/>
<polygon fill="black" stroke="black" points="683.01,-180.76 692.69,-176.45 682.43,-173.79 683.01,-180.76"/>
<text text-anchor="middle" x="639.5" y="-189" font-family="Fira Mono Medium" font-size="10.00">at</text>
</g>
<!-- node_4&#45;&gt;node_3 -->
<g id="edge7" class="edge">
<title>node_4&#45;&gt;node_3</title>
<path fill="none" stroke="black" d="M455.7,-203.16C432.2,-203.39 406.02,-205.79 383,-213 364.84,-218.69 346.81,-229.34 332.02,-239.77"/>
<polygon fill="black" stroke="black" points="329.71,-237.12 323.71,-245.85 333.85,-242.77 329.71,-237.12"/>
<text text-anchor="middle" x="410.5" y="-216" font-family="Fira Mono Medium" font-size="10.00">not&#45;equal</text>
</g>
<!-- node_4&#45;&gt;node_5 -->
<g id="edge8" class="edge">
<title>node_4&#45;&gt;node_5</title>
<path fill="none" stroke="black" d="M594.11,-217.9C619.58,-221.6 648.71,-225.84 675.01,-229.66"/>
<polygon fill="black" stroke="black" points="674.54,-233.13 684.94,-231.11 675.55,-226.2 674.54,-233.13"/>
<text text-anchor="middle" x="639.5" y="-231" font-family="Fira Mono Medium" font-size="10.00">not&#45;equal</text>
</g>
<!-- node_5&#45;&gt;node_1 -->
<g id="edge12" class="edge">
<title>node_5&#45;&gt;node_1</title>
<path fill="none" stroke="black" d="M823.12,-230.61C848.56,-226.74 877.57,-222.31 903.56,-218.35"/>
<polygon fill="black" stroke="black" points="904.37,-221.77 913.73,-216.8 903.31,-214.85 904.37,-221.77"/>
<text text-anchor="middle" x="868.5" y="-230" font-family="Fira Mono Medium" font-size="10.00">at</text>
</g>
<!-- node_5&#45;&gt;node_3 -->
<g id="edge10" class="edge">
<title>node_5&#45;&gt;node_3</title>
<path fill="none" stroke="black" d="M684.55,-257.34C678.63,-258.63 672.71,-259.87 667,-261 543.04,-285.58 509.27,-280.16 383,-275 379.36,-274.85 375.64,-274.67 371.89,-274.46"/>
<polygon fill="black" stroke="black" points="372.09,-270.96 361.89,-273.84 371.66,-277.95 372.09,-270.96"/>
<text text-anchor="middle" x="525" y="-282" font-family="Fira Mono Medium" font-size="10.00">not&#45;equal</text>
</g>
<!-- node_5&#45;&gt;node_4 -->
<g id="edge11" class="edge">
<title>node_5&#45;&gt;node_4</title>
<path fill="none" stroke="black" d="M708.04,-218.9C695.1,-213.6 680.76,-208.69 667,-206 646.96,-202.08 625.01,-200.92 604.52,-201.15"/>
<polygon fill="black" stroke="black" points="604.2,-197.66 594.28,-201.38 604.36,-204.66 604.2,-197.66"/>
<text text-anchor="middle" x="639.5" y="-209" font-family="Fira Mono Medium" font-size="10.00">not&#45;equal</text>
</g>
<!-- node_6 -->
<g id="node7" class="node">
<title>node_6</title>
<polygon fill="none" stroke="black" points="137,-125 0,-125 0,-81 137,-81 137,-125"/>
<text text-anchor="start" x="49.5" y="-112.4" font-family="Fira Mono Medium" font-weight="bold" font-size="12.00">human</text>
<text text-anchor="start" x="8" y="-100.4" font-family="Fira Mono Medium" font-style="italic" font-size="12.00">kind:</text>
<text text-anchor="start" x="46" y="-100.4" font-family="Fira Mono Medium" font-size="12.00"> missionary</text>
<text text-anchor="start" x="11.5" y="-88.4" font-family="Fira Mono Medium" font-style="italic" font-size="12.00">can&#45;drive:</text>
<text text-anchor="start" x="87.5" y="-88.4" font-family="Fira Mono Medium" font-size="12.00"> true</text>
</g>
<!-- node_6&#45;&gt;node_1 -->
<g id="edge15" class="edge">
<title>node_6&#45;&gt;node_1</title>
<path fill="none" stroke="black" d="M97.25,-80.9C138.13,-50.64 218.1,0 295.5,0 295.5,0 295.5,0 755,0 859.61,0 935.83,-123.88 964.97,-179.97"/>
<polygon fill="black" stroke="black" points="961.9,-181.66 969.55,-188.99 968.14,-178.49 961.9,-181.66"/>
<text text-anchor="middle" x="525" y="-3" font-family="Fira Mono Medium" font-size="10.00">at</text>
</g>
<!-- node_7 -->
<g id="node8" class="node">
<title>node_7</title>
<polygon fill="none" stroke="black" points="365,-93 228,-93 228,-49 365,-49 365,-93"/>
<text text-anchor="start" x="277.5" y="-80.4" font-family="Fira Mono Medium" font-weight="bold" font-size="12.00">human</text>
<text text-anchor="start" x="236" y="-68.4" font-family="Fira Mono Medium" font-style="italic" font-size="12.00">kind:</text>
<text text-anchor="start" x="274" y="-68.4" font-family="Fira Mono Medium" font-size="12.00"> missionary</text>
<text text-anchor="start" x="239.5" y="-56.4" font-family="Fira Mono Medium" font-style="italic" font-size="12.00">can&#45;drive:</text>
<text text-anchor="start" x="315.5" y="-56.4" font-family="Fira Mono Medium" font-size="12.00"> true</text>
</g>
<!-- node_6&#45;&gt;node_7 -->
<g id="edge13" class="edge">
<title>node_6&#45;&gt;node_7</title>
<path fill="none" stroke="black" d="M117.43,-80.96C129.44,-76.43 142.49,-72.33 155,-70 175.1,-66.25 197.11,-65.07 217.61,-65.17"/>
<polygon fill="black" stroke="black" points="217.81,-68.67 227.86,-65.32 217.91,-61.67 217.81,-68.67"/>
<text text-anchor="middle" x="182.5" y="-73" font-family="Fira Mono Medium" font-size="10.00">not&#45;equal</text>
</g>
<!-- node_8 -->
<g id="node9" class="node">
<title>node_8</title>
<polygon fill="none" stroke="black" points="593.5,-154 456.5,-154 456.5,-110 593.5,-110 593.5,-154"/>
<text text-anchor="start" x="506" y="-141.4" font-family="Fira Mono Medium" font-weight="bold" font-size="12.00">human</text>
<text text-anchor="start" x="464.5" y="-129.4" font-family="Fira Mono Medium" font-style="italic" font-size="12.00">kind:</text>
<text text-anchor="start" x="502.5" y="-129.4" font-family="Fira Mono Medium" font-size="12.00"> missionary</text>
<text text-anchor="start" x="468" y="-117.4" font-family="Fira Mono Medium" font-style="italic" font-size="12.00">can&#45;drive:</text>
<text text-anchor="start" x="544" y="-117.4" font-family="Fira Mono Medium" font-size="12.00"> true</text>
</g>
<!-- node_6&#45;&gt;node_8 -->
<g id="edge14" class="edge">
<title>node_6&#45;&gt;node_8</title>
<path fill="none" stroke="black" d="M107.83,-125.16C122.16,-132.29 138.87,-139.3 155,-143 253.64,-165.64 370.99,-156.17 446.44,-145.58"/>
<polygon fill="black" stroke="black" points="446.94,-149.04 456.34,-144.15 445.94,-142.12 446.94,-149.04"/>
<text text-anchor="middle" x="296.5" y="-159" font-family="Fira Mono Medium" font-size="10.00">not&#45;equal</text>
</g>
<!-- node_7&#45;&gt;node_1 -->
<g id="edge18" class="edge">
<title>node_7&#45;&gt;node_1</title>
<path fill="none" stroke="black" d="M365.11,-60.57C388.26,-58.37 414.29,-57.39 438,-60 645.29,-82.8 700.86,-88.43 896,-162 911.33,-167.78 927.32,-175.99 941.06,-183.83"/>
<polygon fill="black" stroke="black" points="939.33,-186.87 949.73,-188.89 942.86,-180.83 939.33,-186.87"/>
<text text-anchor="middle" x="639.5" y="-93" font-family="Fira Mono Medium" font-size="10.00">at</text>
</g>
<!-- node_7&#45;&gt;node_6 -->
<g id="edge16" class="edge">
<title>node_7&#45;&gt;node_6</title>
<path fill="none" stroke="black" d="M227.96,-80.56C202.46,-84.17 173.27,-88.31 146.94,-92.04"/>
<polygon fill="black" stroke="black" points="146.41,-88.57 137,-93.44 147.39,-95.51 146.41,-88.57"/>
<text text-anchor="middle" x="182.5" y="-93" font-family="Fira Mono Medium" font-size="10.00">not&#45;equal</text>
</g>
<!-- node_7&#45;&gt;node_8 -->
<g id="edge17" class="edge">
<title>node_7&#45;&gt;node_8</title>
<path fill="none" stroke="black" d="M365.25,-64.08C388.76,-63.73 414.98,-65.68 438,-73 457.66,-79.25 476.85,-91.62 492.09,-103.42"/>
<polygon fill="black" stroke="black" points="490.15,-106.35 500.14,-109.88 494.53,-100.89 490.15,-106.35"/>
<text text-anchor="middle" x="410.5" y="-76" font-family="Fira Mono Medium" font-size="10.00">not&#45;equal</text>
</g>
<!-- node_8&#45;&gt;node_0 -->
<g id="edge21" class="edge">
<title>node_8&#45;&gt;node_0</title>
<path fill="none" stroke="black" d="M593.8,-144.25C621.96,-149.33 654.64,-155.23 683.03,-160.36"/>
<polygon fill="black" stroke="black" points="682.41,-163.81 692.87,-162.14 683.66,-156.92 682.41,-163.81"/>
<text text-anchor="middle" x="639.5" y="-160" font-family="Fira Mono Medium" font-size="10.00">at</text>
</g>
<!-- node_8&#45;&gt;node_6 -->
<g id="edge19" class="edge">
<title>node_8&#45;&gt;node_6</title>
<path fill="none" stroke="black" d="M456.45,-127.69C373.79,-122.42 234.13,-113.5 147.13,-107.95"/>
<polygon fill="black" stroke="black" points="147.26,-104.45 137.05,-107.31 146.81,-111.44 147.26,-104.45"/>
<text text-anchor="middle" x="296.5" y="-124" font-family="Fira Mono Medium" font-size="10.00">not&#45;equal</text>
</g>
<!-- node_8&#45;&gt;node_7 -->
<g id="edge20" class="edge">
<title>node_8&#45;&gt;node_7</title>
<path fill="none" stroke="black" d="M456.46,-112.14C450.22,-110.38 444,-108.64 438,-107 417.65,-101.44 395.57,-95.66 375.07,-90.4"/>
<polygon fill="black" stroke="black" points="375.7,-86.95 365.15,-87.87 373.97,-93.73 375.7,-86.95"/>
<text text-anchor="middle" x="410.5" y="-110" font-family="Fira Mono Medium" font-size="10.00">not&#45;equal</text>
</g>
</g>
</svg>
