<?xml version="1.0" encoding="UTF-8" standalone="no"?>
<!DOCTYPE svg PUBLIC "-//W3C//DTD SVG 1.1//EN"
 "http://www.w3.org/Graphics/SVG/1.1/DTD/svg11.dtd">
<!-- Generated by graphviz version 2.43.0 (0)
 -->
<!-- Title: %3 Pages: 1 -->
<svg width="817pt" height="330pt"
 viewBox="0.00 0.00 817.00 330.00" xmlns="http://www.w3.org/2000/svg" xmlns:xlink="http://www.w3.org/1999/xlink">
<g id="graph0" class="graph" transform="scale(1 1) rotate(0) translate(4 326)">
<title>%3</title>
<polygon fill="white" stroke="transparent" points="-4,4 -4,-326 813,-326 813,4 -4,4"/>
<!-- node_0 -->
<g id="node1" class="node">
<title>node_0</title>
<polygon fill="none" stroke="black" points="580,-121 458,-121 458,-85 580,-85 580,-121"/>
<text text-anchor="start" x="503.5" y="-106.4" font-family="Fira Mono Medium" font-weight="bold" font-size="12.00">bank</text>
<text text-anchor="start" x="466" y="-94.4" font-family="Fira Mono Medium" font-style="italic" font-size="12.00">location:</text>
<text text-anchor="start" x="534" y="-94.4" font-family="Fira Mono Medium" font-size="12.00"> left</text>
</g>
<!-- node_1 -->
<g id="node2" class="node">
<title>node_1</title>
<polygon fill="none" stroke="black" points="809,-221 679,-221 679,-185 809,-185 809,-221"/>
<text text-anchor="start" x="728.5" y="-206.4" font-family="Fira Mono Medium" font-weight="bold" font-size="12.00">bank</text>
<text text-anchor="start" x="687" y="-194.4" font-family="Fira Mono Medium" font-style="italic" font-size="12.00">location:</text>
<text text-anchor="start" x="755" y="-194.4" font-family="Fira Mono Medium" font-size="12.00"> right</text>
</g>
<!-- node_0&#45;&gt;node_1 -->
<g id="edge1" class="edge">
<title>node_0&#45;&gt;node_1</title>
<path fill="none" stroke="black" d="M566.21,-121.01C573.52,-123.96 580.98,-127.02 588,-130 625.35,-145.85 666.9,-165.53 697.57,-180.46"/>
<polygon fill="black" stroke="black" points="696.2,-183.69 706.72,-184.93 699.27,-177.4 696.2,-183.69"/>
<text text-anchor="middle" x="633.5" y="-165" font-family="Fira Mono Medium" font-size="10.00">not&#45;equal</text>
</g>
<!-- node_1&#45;&gt;node_0 -->
<g id="edge2" class="edge">
<title>node_1&#45;&gt;node_0</title>
<path fill="none" stroke="black" d="M729.84,-184.93C715.25,-166.36 689.91,-138.23 661,-124 639.34,-113.34 613.7,-107.75 590.28,-104.92"/>
<polygon fill="black" stroke="black" points="590.35,-101.41 580.04,-103.84 589.62,-108.37 590.35,-101.41"/>
<text text-anchor="middle" x="633.5" y="-127" font-family="Fira Mono Medium" font-size="10.00">not&#45;equal</text>
</g>
<!-- node_2 -->
<g id="node3" class="node">
<title>node_2</title>
<polygon fill="none" stroke="black" points="546,-322 492,-322 492,-286 546,-286 546,-322"/>
<text text-anchor="start" x="503.5" y="-301.9" font-family="Fira Mono Medium" font-weight="bold" font-size="12.00">boat</text>
</g>
<!-- node_2&#45;&gt;node_1 -->
<g id="edge3" class="edge">
<title>node_2&#45;&gt;node_1</title>
<path fill="none" stroke="black" d="M546.19,-301.79C575.48,-298.5 623.69,-290.55 661,-272 682.85,-261.14 703.83,-243.3 719.1,-228.48"/>
<polygon fill="black" stroke="black" points="721.93,-230.6 726.54,-221.06 716.99,-225.64 721.93,-230.6"/>
<text text-anchor="middle" x="633.5" y="-293" font-family="Fira Mono Medium" font-size="10.00">at</text>
</g>
<!-- node_3 -->
<g id="node4" class="node">
<title>node_3</title>
<polygon fill="none" stroke="black" points="130,-182 0,-182 0,-138 130,-138 130,-182"/>
<text text-anchor="start" x="46" y="-169.4" font-family="Fira Mono Medium" font-weight="bold" font-size="12.00">human</text>
<text text-anchor="start" x="12" y="-157.4" font-family="Fira Mono Medium" font-style="italic" font-size="12.00">kind:</text>
<text text-anchor="start" x="50" y="-157.4" font-family="Fira Mono Medium" font-size="12.00"> cannibal</text>
<text text-anchor="start" x="8" y="-145.4" font-family="Fira Mono Medium" font-style="italic" font-size="12.00">can&#45;drive:</text>
<text text-anchor="start" x="84" y="-145.4" font-family="Fira Mono Medium" font-size="12.00"> true</text>
</g>
<!-- node_3&#45;&gt;node_1 -->
<g id="edge6" class="edge">
<title>node_3&#45;&gt;node_1</title>
<path fill="none" stroke="black" d="M106.01,-182.09C136.5,-197.58 180.06,-216.92 221,-225 378.17,-256.04 566.93,-233.78 668.89,-216.99"/>
<polygon fill="black" stroke="black" points="669.5,-220.43 678.78,-215.33 668.34,-213.53 669.5,-220.43"/>
<text text-anchor="middle" x="404.5" y="-243" font-family="Fira Mono Medium" font-size="10.00">at</text>
</g>
<!-- node_4 -->
<g id="node5" class="node">
<title>node_4</title>
<polygon fill="none" stroke="black" points="359,-216 221,-216 221,-172 359,-172 359,-216"/>
<text text-anchor="start" x="271" y="-203.4" font-family="Fira Mono Medium" font-weight="bold" font-size="12.00">human</text>
<text text-anchor="start" x="237" y="-191.4" font-family="Fira Mono Medium" font-style="italic" font-size="12.00">kind:</text>
<text text-anchor="start" x="275" y="-191.4" font-family="Fira Mono Medium" font-size="12.00"> cannibal</text>
<text text-anchor="start" x="229" y="-179.4" font-family="Fira Mono Medium" font-style="italic" font-size="12.00">can&#45;drive:</text>
<text text-anchor="start" x="305" y="-179.4" font-family="Fira Mono Medium" font-size="12.00"> false</text>
</g>
<!-- node_3&#45;&gt;node_4 -->
<g id="edge4" class="edge">
<title>node_3&#45;&gt;node_4</title>
<path fill="none" stroke="black" d="M130.2,-169.79C155.42,-173.63 184.59,-178.08 211,-182.11"/>
<polygon fill="black" stroke="black" points="210.56,-185.58 220.98,-183.63 211.62,-178.66 210.56,-185.58"/>
<text text-anchor="middle" x="175.5" y="-183" font-family="Fira Mono Medium" font-size="10.00">not&#45;equal</text>
</g>
<!-- node_5 -->
<g id="node6" class="node">
<title>node_5</title>
<polygon fill="none" stroke="black" points="588,-183 450,-183 450,-139 588,-139 588,-183"/>
<text text-anchor="start" x="500" y="-170.4" font-family="Fira Mono Medium" font-weight="bold" font-size="12.00">human</text>
<text text-anchor="start" x="466" y="-158.4" font-family="Fira Mono Medium" font-style="italic" font-size="12.00">kind:</text>
<text text-anchor="start" x="504" y="-158.4" font-family="Fira Mono Medium" font-size="12.00"> cannibal</text>
<text text-anchor="start" x="458" y="-146.4" font-family="Fira Mono Medium" font-style="italic" font-size="12.00">can&#45;drive:</text>
<text text-anchor="start" x="534" y="-146.4" font-family="Fira Mono Medium" font-size="12.00"> false</text>
</g>
<!-- node_3&#45;&gt;node_5 -->
<g id="edge5" class="edge">
<title>node_3&#45;&gt;node_5</title>
<path fill="none" stroke="black" d="M130.39,-151.4C136.34,-150.83 142.27,-150.35 148,-150 273.99,-142.35 306.03,-141.98 432,-150 434.41,-150.15 436.85,-150.33 439.32,-150.53"/>
<polygon fill="black" stroke="black" points="439.27,-154.04 449.54,-151.45 439.89,-147.07 439.27,-154.04"/>
<text text-anchor="middle" x="290" y="-148" font-family="Fira Mono Medium" font-size="10.00">not&#45;equal</text>
</g>
<!-- node_4&#45;&gt;node_1 -->
<g id="edge9" class="edge">
<title>node_4&#45;&gt;node_1</title>
<path fill="none" stroke="black" d="M359.07,-195.59C365.13,-195.73 371.18,-195.87 377,-196 478.78,-198.29 504.21,-199.15 606,-201 626.35,-201.37 648.39,-201.72 668.73,-202.01"/>
<polygon fill="black" stroke="black" points="668.83,-205.52 678.88,-202.16 668.93,-198.52 668.83,-205.52"/>
<text text-anchor="middle" x="519" y="-203" font-family="Fira Mono Medium" font-size="10.00">at</text>
</g>
<!-- node_4&#45;&gt;node_3 -->
<g id="edge7" class="edge">
<title>node_4&#45;&gt;node_3</title>
<path fill="none" stroke="black" d="M244.04,-171.9C231.1,-166.6 216.76,-161.69 203,-159 182.93,-155.07 160.89,-153.9 140.47,-154.07"/>
<polygon fill="black" stroke="black" points="140.2,-150.57 130.27,-154.26 140.33,-157.57 140.2,-150.57"/>
<text text-anchor="middle" x="175.5" y="-162" font-family="Fira Mono Medium" font-size="10.00">not&#45;equal</text>
</g>
<!-- node_4&#45;&gt;node_5 -->
<g id="edge8" class="edge">
<title>node_4&#45;&gt;node_5</title>
<path fill="none" stroke="black" d="M359.11,-184.1C384.58,-180.4 413.71,-176.16 440.01,-172.34"/>
<polygon fill="black" stroke="black" points="440.55,-175.8 449.94,-170.89 439.54,-168.87 440.55,-175.8"/>
<text text-anchor="middle" x="404.5" y="-184" font-family="Fira Mono Medium" font-size="10.00">not&#45;equal</text>
</g>
<!-- node_5&#45;&gt;node_1 -->
<g id="edge12" class="edge">
<title>node_5&#45;&gt;node_1</title>
<path fill="none" stroke="black" d="M588.12,-173.83C613.56,-178.62 642.57,-184.09 668.56,-188.98"/>
<polygon fill="black" stroke="black" points="668.25,-192.48 678.73,-190.9 669.55,-185.6 668.25,-192.48"/>
<text text-anchor="middle" x="633.5" y="-189" font-family="Fira Mono Medium" font-size="10.00">at</text>
</g>
<!-- node_5&#45;&gt;node_3 -->
<g id="edge10" class="edge">
<title>node_5&#45;&gt;node_3</title>
<path fill="none" stroke="black" d="M449.99,-145.7C443.91,-144.42 437.85,-143.17 432,-142 339.86,-123.63 314.59,-120.73 221,-129 188.17,-131.9 180.32,-135.58 148,-142 145.5,-142.5 142.96,-143.01 140.39,-143.54"/>
<polygon fill="black" stroke="black" points="139.49,-140.15 130.41,-145.61 140.91,-147 139.49,-140.15"/>
<text text-anchor="middle" x="290" y="-132" font-family="Fira Mono Medium" font-size="10.00">not&#45;equal</text>
</g>
<!-- node_5&#45;&gt;node_4 -->
<g id="edge11" class="edge">
<title>node_5&#45;&gt;node_4</title>
<path fill="none" stroke="black" d="M449.72,-154.38C426.46,-153.61 400.43,-154.42 377,-159 366.57,-161.04 355.81,-164.35 345.58,-168.14"/>
<polygon fill="black" stroke="black" points="344,-165 335.96,-171.9 346.55,-171.52 344,-165"/>
<text text-anchor="middle" x="404.5" y="-162" font-family="Fira Mono Medium" font-size="10.00">not&#45;equal</text>
</g>
<!-- node_6 -->
<g id="node7" class="node">
<title>node_6</title>
<polygon fill="none" stroke="black" points="358.5,-44 221.5,-44 221.5,0 358.5,0 358.5,-44"/>
<text text-anchor="start" x="271" y="-31.4" font-family="Fira Mono Medium" font-weight="bold" font-size="12.00">human</text>
<text text-anchor="start" x="229.5" y="-19.4" font-family="Fira Mono Medium" font-style="italic" font-size="12.00">kind:</text>
<text text-anchor="start" x="267.5" y="-19.4" font-family="Fira Mono Medium" font-size="12.00"> missionary</text>
<text text-anchor="start" x="233" y="-7.4" font-family="Fira Mono Medium" font-style="italic" font-size="12.00">can&#45;drive:</text>
<text text-anchor="start" x="309" y="-7.4" font-family="Fira Mono Medium" font-size="12.00"> true</text>
</g>
<!-- node_6&#45;&gt;node_0 -->
<g id="edge13" class="edge">
<title>node_6&#45;&gt;node_0</title>
<path fill="none" stroke="black" d="M358.5,-33.79C382.18,-38.97 408.67,-45.97 432,-55 448.9,-61.55 466.55,-70.9 481.43,-79.62"/>
<polygon fill="black" stroke="black" points="479.93,-82.8 490.31,-84.93 483.52,-76.79 479.93,-82.8"/>
<text text-anchor="middle" x="404.5" y="-58" font-family="Fira Mono Medium" font-size="10.00">at</text>
</g>
</g>
</svg>
