<?xml version="1.0" encoding="UTF-8" standalone="no"?>
<!DOCTYPE svg PUBLIC "-//W3C//DTD SVG 1.1//EN"
 "http://www.w3.org/Graphics/SVG/1.1/DTD/svg11.dtd">
<!-- Generated by graphviz version 2.43.0 (0)
 -->
<!-- Title: %3 Pages: 1 -->
<svg width="1003pt" height="331pt"
 viewBox="0.00 0.00 1003.00 331.00" xmlns="http://www.w3.org/2000/svg" xmlns:xlink="http://www.w3.org/1999/xlink">
<g id="graph0" class="graph" transform="scale(1 1) rotate(0) translate(4 327)">
<title>%3</title>
<polygon fill="white" stroke="transparent" points="-4,4 -4,-327 999,-327 999,4 -4,4"/>
<!-- node_0 -->
<g id="node1" class="node">
<title>node_0</title>
<polygon fill="none" stroke="black" points="766.5,-199 644.5,-199 644.5,-163 766.5,-163 766.5,-199"/>
<text text-anchor="start" x="690" y="-184.4" font-family="Fira Mono Medium" font-weight="bold" font-size="12.00">bank</text>
<text text-anchor="start" x="652.5" y="-172.4" font-family="Fira Mono Medium" font-style="italic" font-size="12.00">location:</text>
<text text-anchor="start" x="720.5" y="-172.4" font-family="Fira Mono Medium" font-size="12.00"> left</text>
</g>
<!-- node_1 -->
<g id="node2" class="node">
<title>node_1</title>
<polygon fill="none" stroke="black" points="995,-106 865,-106 865,-70 995,-70 995,-106"/>
<text text-anchor="start" x="914.5" y="-91.4" font-family="Fira Mono Medium" font-weight="bold" font-size="12.00">bank</text>
<text text-anchor="start" x="873" y="-79.4" font-family="Fira Mono Medium" font-style="italic" font-size="12.00">location:</text>
<text text-anchor="start" x="941" y="-79.4" font-family="Fira Mono Medium" font-size="12.00"> right</text>
</g>
<!-- node_0&#45;&gt;node_1 -->
<g id="edge1" class="edge">
<title>node_0&#45;&gt;node_1</title>
<path fill="none" stroke="black" d="M766.68,-168.05C792.08,-161.52 821.59,-152.52 847,-141 864.29,-133.16 882.15,-122.03 896.77,-112"/>
<polygon fill="black" stroke="black" points="898.8,-114.85 904.98,-106.25 894.78,-109.12 898.8,-114.85"/>
<text text-anchor="middle" x="819.5" y="-164" font-family="Fira Mono Medium" font-size="10.00">not&#45;equal</text>
</g>
<!-- node_1&#45;&gt;node_0 -->
<g id="edge2" class="edge">
<title>node_1&#45;&gt;node_0</title>
<path fill="none" stroke="black" d="M864.86,-101.54C841.39,-107.59 814.98,-115.71 792,-126 773.38,-134.34 754.14,-146.36 738.64,-157.04"/>
<polygon fill="black" stroke="black" points="736.61,-154.19 730.44,-162.8 740.64,-159.92 736.61,-154.19"/>
<text text-anchor="middle" x="819.5" y="-129" font-family="Fira Mono Medium" font-size="10.00">not&#45;equal</text>
</g>
<!-- node_2 -->
<g id="node3" class="node">
<title>node_2</title>
<polygon fill="none" stroke="black" points="546,-323 492,-323 492,-287 546,-287 546,-323"/>
<text text-anchor="start" x="503.5" y="-302.9" font-family="Fira Mono Medium" font-weight="bold" font-size="12.00">boat</text>
</g>
<!-- node_2&#45;&gt;node_0 -->
<g id="edge3" class="edge">
<title>node_2&#45;&gt;node_0</title>
<path fill="none" stroke="black" d="M546.36,-299.95C567.25,-295.1 596.57,-286.35 619,-272 645.68,-254.93 669.76,-227.7 685.52,-207.47"/>
<polygon fill="black" stroke="black" points="688.48,-209.35 691.74,-199.27 682.9,-205.12 688.48,-209.35"/>
<text text-anchor="middle" x="612.5" y="-281" font-family="Fira Mono Medium" font-size="10.00">at</text>
</g>
<!-- node_3 -->
<g id="node4" class="node">
<title>node_3</title>
<polygon fill="none" stroke="black" points="359,-254 229,-254 229,-210 359,-210 359,-254"/>
<text text-anchor="start" x="275" y="-241.4" font-family="Fira Mono Medium" font-weight="bold" font-size="12.00">human</text>
<text text-anchor="start" x="241" y="-229.4" font-family="Fira Mono Medium" font-style="italic" font-size="12.00">kind:</text>
<text text-anchor="start" x="279" y="-229.4" font-family="Fira Mono Medium" font-size="12.00"> cannibal</text>
<text text-anchor="start" x="237" y="-217.4" font-family="Fira Mono Medium" font-style="italic" font-size="12.00">can&#45;drive:</text>
<text text-anchor="start" x="313" y="-217.4" font-family="Fira Mono Medium" font-size="12.00"> true</text>
</g>
<!-- node_3&#45;&gt;node_0 -->
<g id="edge6" class="edge">
<title>node_3&#45;&gt;node_0</title>
<path fill="none" stroke="black" d="M359.01,-234.57C365.09,-234.74 371.16,-234.89 377,-235 401.44,-235.45 407.62,-236.79 432,-235 501.9,-229.88 519.36,-226.14 588,-212 603.13,-208.88 619.23,-204.98 634.47,-201.01"/>
<polygon fill="black" stroke="black" points="635.57,-204.34 644.34,-198.4 633.78,-197.58 635.57,-204.34"/>
<text text-anchor="middle" x="519" y="-236" font-family="Fira Mono Medium" font-size="10.00">at</text>
</g>
<!-- node_4 -->
<g id="node5" class="node">
<title>node_4</title>
<polygon fill="none" stroke="black" points="138,-187 0,-187 0,-143 138,-143 138,-187"/>
<text text-anchor="start" x="50" y="-174.4" font-family="Fira Mono Medium" font-weight="bold" font-size="12.00">human</text>
<text text-anchor="start" x="16" y="-162.4" font-family="Fira Mono Medium" font-style="italic" font-size="12.00">kind:</text>
<text text-anchor="start" x="54" y="-162.4" font-family="Fira Mono Medium" font-size="12.00"> cannibal</text>
<text text-anchor="start" x="8" y="-150.4" font-family="Fira Mono Medium" font-style="italic" font-size="12.00">can&#45;drive:</text>
<text text-anchor="start" x="84" y="-150.4" font-family="Fira Mono Medium" font-size="12.00"> false</text>
</g>
<!-- node_3&#45;&gt;node_4 -->
<g id="edge4" class="edge">
<title>node_3&#45;&gt;node_4</title>
<path fill="none" stroke="black" d="M241.36,-209.89C231.38,-206 220.94,-202.18 211,-199 190.9,-192.57 168.86,-186.71 148.29,-181.73"/>
<polygon fill="black" stroke="black" points="148.87,-178.27 138.33,-179.36 147.25,-185.08 148.87,-178.27"/>
<text text-anchor="middle" x="183.5" y="-202" font-family="Fira Mono Medium" font-size="10.00">not&#45;equal</text>
</g>
<!-- node_5 -->
<g id="node6" class="node">
<title>node_5</title>
<polygon fill="none" stroke="black" points="588,-203 450,-203 450,-159 588,-159 588,-203"/>
<text text-anchor="start" x="500" y="-190.4" font-family="Fira Mono Medium" font-weight="bold" font-size="12.00">human</text>
<text text-anchor="start" x="466" y="-178.4" font-family="Fira Mono Medium" font-style="italic" font-size="12.00">kind:</text>
<text text-anchor="start" x="504" y="-178.4" font-family="Fira Mono Medium" font-size="12.00"> cannibal</text>
<text text-anchor="start" x="458" y="-166.4" font-family="Fira Mono Medium" font-style="italic" font-size="12.00">can&#45;drive:</text>
<text text-anchor="start" x="534" y="-166.4" font-family="Fira Mono Medium" font-size="12.00"> false</text>
</g>
<!-- node_3&#45;&gt;node_5 -->
<g id="edge5" class="edge">
<title>node_3&#45;&gt;node_5</title>
<path fill="none" stroke="black" d="M359.22,-223.94C382.33,-220.45 408.5,-215.81 432,-210 436.94,-208.78 442,-207.41 447.08,-205.94"/>
<polygon fill="black" stroke="black" points="448.26,-209.24 456.83,-203.01 446.24,-202.53 448.26,-209.24"/>
<text text-anchor="middle" x="404.5" y="-223" font-family="Fira Mono Medium" font-size="10.00">not&#45;equal</text>
</g>
<!-- node_4&#45;&gt;node_1 -->
<g id="edge9" class="edge">
<title>node_4&#45;&gt;node_1</title>
<path fill="none" stroke="black" d="M100.8,-142.96C142.34,-115.46 219.59,-72 293,-72 293,-72 293,-72 706.5,-72 755.98,-72 811.49,-75.98 854.68,-79.98"/>
<polygon fill="black" stroke="black" points="854.54,-83.48 864.83,-80.94 855.2,-76.51 854.54,-83.48"/>
<text text-anchor="middle" x="519" y="-75" font-family="Fira Mono Medium" font-size="10.00">at</text>
</g>
<!-- node_4&#45;&gt;node_3 -->
<g id="edge7" class="edge">
<title>node_4&#45;&gt;node_3</title>
<path fill="none" stroke="black" d="M106.1,-187.21C121.06,-195.52 138.89,-204.32 156,-210 175.94,-216.62 198.2,-221.29 218.88,-224.56"/>
<polygon fill="black" stroke="black" points="218.48,-228.04 228.89,-226.05 219.51,-221.11 218.48,-228.04"/>
<text text-anchor="middle" x="183.5" y="-225" font-family="Fira Mono Medium" font-size="10.00">not&#45;equal</text>
</g>
<!-- node_4&#45;&gt;node_5 -->
<g id="edge8" class="edge">
<title>node_4&#45;&gt;node_5</title>
<path fill="none" stroke="black" d="M138.04,-167.43C219.07,-170.32 354.16,-175.15 439.53,-178.2"/>
<polygon fill="black" stroke="black" points="439.57,-181.7 449.69,-178.56 439.82,-174.71 439.57,-181.7"/>
<text text-anchor="middle" x="294" y="-179" font-family="Fira Mono Medium" font-size="10.00">not&#45;equal</text>
</g>
<!-- node_5&#45;&gt;node_0 -->
<g id="edge12" class="edge">
<title>node_5&#45;&gt;node_0</title>
<path fill="none" stroke="black" d="M588.18,-181C603.11,-181 618.94,-181 633.96,-181"/>
<polygon fill="black" stroke="black" points="634.21,-184.5 644.21,-181 634.21,-177.5 634.21,-184.5"/>
<text text-anchor="middle" x="612.5" y="-184" font-family="Fira Mono Medium" font-size="10.00">at</text>
</g>
<!-- node_5&#45;&gt;node_3 -->
<g id="edge10" class="edge">
<title>node_5&#45;&gt;node_3</title>
<path fill="none" stroke="black" d="M449.84,-184.72C426.48,-187.05 400.34,-190.84 377,-197 367.89,-199.41 358.48,-202.65 349.42,-206.19"/>
<polygon fill="black" stroke="black" points="348.09,-202.95 340.14,-209.96 350.72,-209.44 348.09,-202.95"/>
<text text-anchor="middle" x="404.5" y="-200" font-family="Fira Mono Medium" font-size="10.00">not&#45;equal</text>
</g>
<!-- node_5&#45;&gt;node_4 -->
<g id="edge11" class="edge">
<title>node_5&#45;&gt;node_4</title>
<path fill="none" stroke="black" d="M449.8,-167.88C421.78,-163.12 388.95,-158.34 359,-156 287.83,-150.44 206.55,-153.83 148.35,-157.95"/>
<polygon fill="black" stroke="black" points="147.84,-154.48 138.13,-158.7 148.35,-161.46 147.84,-154.48"/>
<text text-anchor="middle" x="294" y="-159" font-family="Fira Mono Medium" font-size="10.00">not&#45;equal</text>
</g>
<!-- node_6 -->
<g id="node7" class="node">
<title>node_6</title>
<polygon fill="none" stroke="black" points="774,-44 637,-44 637,0 774,0 774,-44"/>
<text text-anchor="start" x="686.5" y="-31.4" font-family="Fira Mono Medium" font-weight="bold" font-size="12.00">human</text>
<text text-anchor="start" x="645" y="-19.4" font-family="Fira Mono Medium" font-style="italic" font-size="12.00">kind:</text>
<text text-anchor="start" x="683" y="-19.4" font-family="Fira Mono Medium" font-size="12.00"> missionary</text>
<text text-anchor="start" x="648.5" y="-7.4" font-family="Fira Mono Medium" font-style="italic" font-size="12.00">can&#45;drive:</text>
<text text-anchor="start" x="724.5" y="-7.4" font-family="Fira Mono Medium" font-size="12.00"> true</text>
</g>
<!-- node_6&#45;&gt;node_1 -->
<g id="edge13" class="edge">
<title>node_6&#45;&gt;node_1</title>
<path fill="none" stroke="black" d="M774.3,-30.03C797.69,-33.86 823.83,-39.33 847,-47 861.1,-51.67 875.82,-58.39 888.84,-65.04"/>
<polygon fill="black" stroke="black" points="887.5,-68.28 897.98,-69.83 890.75,-62.09 887.5,-68.28"/>
<text text-anchor="middle" x="819.5" y="-50" font-family="Fira Mono Medium" font-size="10.00">at</text>
</g>
</g>
</svg>
