<?xml version="1.0" encoding="UTF-8" standalone="no"?>
<!DOCTYPE svg PUBLIC "-//W3C//DTD SVG 1.1//EN"
 "http://www.w3.org/Graphics/SVG/1.1/DTD/svg11.dtd">
<!-- Generated by graphviz version 2.43.0 (0)
 -->
<!-- Title: %3 Pages: 1 -->
<svg width="988pt" height="287pt"
 viewBox="0.00 0.00 988.00 287.00" xmlns="http://www.w3.org/2000/svg" xmlns:xlink="http://www.w3.org/1999/xlink">
<g id="graph0" class="graph" transform="scale(1 1) rotate(0) translate(4 283)">
<title>%3</title>
<polygon fill="white" stroke="transparent" points="-4,4 -4,-283 984,-283 984,4 -4,4"/>
<!-- node_0 -->
<g id="node1" class="node">
<title>node_0</title>
<polygon fill="none" stroke="black" points="759,-156 637,-156 637,-120 759,-120 759,-156"/>
<text text-anchor="start" x="682.5" y="-141.4" font-family="Fira Mono Medium" font-weight="bold" font-size="12.00">bank</text>
<text text-anchor="start" x="645" y="-129.4" font-family="Fira Mono Medium" font-style="italic" font-size="12.00">location:</text>
<text text-anchor="start" x="713" y="-129.4" font-family="Fira Mono Medium" font-size="12.00"> left</text>
</g>
<!-- node_1 -->
<g id="node2" class="node">
<title>node_1</title>
<polygon fill="none" stroke="black" points="980,-190 850,-190 850,-154 980,-154 980,-190"/>
<text text-anchor="start" x="899.5" y="-175.4" font-family="Fira Mono Medium" font-weight="bold" font-size="12.00">bank</text>
<text text-anchor="start" x="858" y="-163.4" font-family="Fira Mono Medium" font-style="italic" font-size="12.00">location:</text>
<text text-anchor="start" x="926" y="-163.4" font-family="Fira Mono Medium" font-size="12.00"> right</text>
</g>
<!-- node_0&#45;&gt;node_1 -->
<g id="edge1" class="edge">
<title>node_0&#45;&gt;node_1</title>
<path fill="none" stroke="black" d="M759.18,-147.52C784.18,-151.47 813.45,-156.1 839.77,-160.26"/>
<polygon fill="black" stroke="black" points="839.28,-163.73 849.7,-161.83 840.37,-156.81 839.28,-163.73"/>
<text text-anchor="middle" x="804.5" y="-161" font-family="Fira Mono Medium" font-size="10.00">not&#45;equal</text>
</g>
<!-- node_1&#45;&gt;node_0 -->
<g id="edge2" class="edge">
<title>node_1&#45;&gt;node_0</title>
<path fill="none" stroke="black" d="M880.29,-153.98C865.85,-147.23 848.53,-140.38 832,-137 811.87,-132.88 789.67,-131.75 769.27,-132.02"/>
<polygon fill="black" stroke="black" points="769.01,-128.53 759.1,-132.27 769.18,-135.52 769.01,-128.53"/>
<text text-anchor="middle" x="804.5" y="-140" font-family="Fira Mono Medium" font-size="10.00">not&#45;equal</text>
</g>
<!-- node_2 -->
<g id="node3" class="node">
<title>node_2</title>
<polygon fill="none" stroke="black" points="546,-132 492,-132 492,-96 546,-96 546,-132"/>
<text text-anchor="start" x="503.5" y="-111.9" font-family="Fira Mono Medium" font-weight="bold" font-size="12.00">boat</text>
</g>
<!-- node_2&#45;&gt;node_0 -->
<g id="edge3" class="edge">
<title>node_2&#45;&gt;node_0</title>
<path fill="none" stroke="black" d="M546.06,-117.35C566.03,-119.94 594.27,-123.63 619,-127 621.64,-127.36 624.33,-127.73 627.05,-128.1"/>
<polygon fill="black" stroke="black" points="626.58,-131.57 636.96,-129.47 627.54,-124.64 626.58,-131.57"/>
<text text-anchor="middle" x="612.5" y="-130" font-family="Fira Mono Medium" font-size="10.00">at</text>
</g>
<!-- node_3 -->
<g id="node4" class="node">
<title>node_3</title>
<polygon fill="none" stroke="black" points="130,-104 0,-104 0,-60 130,-60 130,-104"/>
<text text-anchor="start" x="46" y="-91.4" font-family="Fira Mono Medium" font-weight="bold" font-size="12.00">human</text>
<text text-anchor="start" x="12" y="-79.4" font-family="Fira Mono Medium" font-style="italic" font-size="12.00">kind:</text>
<text text-anchor="start" x="50" y="-79.4" font-family="Fira Mono Medium" font-size="12.00"> cannibal</text>
<text text-anchor="start" x="8" y="-67.4" font-family="Fira Mono Medium" font-style="italic" font-size="12.00">can&#45;drive:</text>
<text text-anchor="start" x="84" y="-67.4" font-family="Fira Mono Medium" font-size="12.00"> true</text>
</g>
<!-- node_3&#45;&gt;node_1 -->
<g id="edge6" class="edge">
<title>node_3&#45;&gt;node_1</title>
<path fill="none" stroke="black" d="M78.42,-104.07C107.99,-153.34 187.67,-268 289,-268 289,-268 289,-268 699,-268 769.46,-268 842.5,-224.49 882.7,-196.05"/>
<polygon fill="black" stroke="black" points="884.95,-198.75 891.01,-190.06 880.85,-193.07 884.95,-198.75"/>
<text text-anchor="middle" x="519" y="-271" font-family="Fira Mono Medium" font-size="10.00">at</text>
</g>
<!-- node_4 -->
<g id="node5" class="node">
<title>node_4</title>
<polygon fill="none" stroke="black" points="359,-44 221,-44 221,0 359,0 359,-44"/>
<text text-anchor="start" x="271" y="-31.4" font-family="Fira Mono Medium" font-weight="bold" font-size="12.00">human</text>
<text text-anchor="start" x="237" y="-19.4" font-family="Fira Mono Medium" font-style="italic" font-size="12.00">kind:</text>
<text text-anchor="start" x="275" y="-19.4" font-family="Fira Mono Medium" font-size="12.00"> cannibal</text>
<text text-anchor="start" x="229" y="-7.4" font-family="Fira Mono Medium" font-style="italic" font-size="12.00">can&#45;drive:</text>
<text text-anchor="start" x="305" y="-7.4" font-family="Fira Mono Medium" font-size="12.00"> false</text>
</g>
<!-- node_3&#45;&gt;node_4 -->
<g id="edge4" class="edge">
<title>node_3&#45;&gt;node_4</title>
<path fill="none" stroke="black" d="M88.55,-59.84C103.92,-46.35 125.49,-30.34 148,-23 167.8,-16.54 190.01,-14.26 210.85,-14.1"/>
<polygon fill="black" stroke="black" points="210.92,-17.6 220.95,-14.18 210.98,-10.6 210.92,-17.6"/>
<text text-anchor="middle" x="175.5" y="-26" font-family="Fira Mono Medium" font-size="10.00">not&#45;equal</text>
</g>
<!-- node_5 -->
<g id="node6" class="node">
<title>node_5</title>
<polygon fill="none" stroke="black" points="588,-78 450,-78 450,-34 588,-34 588,-78"/>
<text text-anchor="start" x="500" y="-65.4" font-family="Fira Mono Medium" font-weight="bold" font-size="12.00">human</text>
<text text-anchor="start" x="466" y="-53.4" font-family="Fira Mono Medium" font-style="italic" font-size="12.00">kind:</text>
<text text-anchor="start" x="504" y="-53.4" font-family="Fira Mono Medium" font-size="12.00"> cannibal</text>
<text text-anchor="start" x="458" y="-41.4" font-family="Fira Mono Medium" font-style="italic" font-size="12.00">can&#45;drive:</text>
<text text-anchor="start" x="534" y="-41.4" font-family="Fira Mono Medium" font-size="12.00"> false</text>
</g>
<!-- node_3&#45;&gt;node_5 -->
<g id="edge5" class="edge">
<title>node_3&#45;&gt;node_5</title>
<path fill="none" stroke="black" d="M130.21,-94.95C204.13,-107.46 328.66,-121.14 432,-96 440.69,-93.89 441.93,-90.86 450,-87 453.14,-85.5 456.37,-83.97 459.63,-82.45"/>
<polygon fill="black" stroke="black" points="461.29,-85.53 468.87,-78.14 458.33,-79.19 461.29,-85.53"/>
<text text-anchor="middle" x="290" y="-113" font-family="Fira Mono Medium" font-size="10.00">not&#45;equal</text>
</g>
<!-- node_4&#45;&gt;node_1 -->
<g id="edge9" class="edge">
<title>node_4&#45;&gt;node_1</title>
<path fill="none" stroke="black" d="M359.01,-13.36C365.08,-12.81 371.15,-12.34 377,-12 401.4,-10.59 407.58,-10.98 432,-12 501.51,-14.89 520.41,-8.49 588,-25 702.18,-52.89 726.11,-75.99 832,-127 845.91,-133.7 860.79,-141.63 874.01,-148.95"/>
<polygon fill="black" stroke="black" points="872.43,-152.08 882.87,-153.9 875.85,-145.97 872.43,-152.08"/>
<text text-anchor="middle" x="612.5" y="-36" font-family="Fira Mono Medium" font-size="10.00">at</text>
</g>
<!-- node_4&#45;&gt;node_3 -->
<g id="edge7" class="edge">
<title>node_4&#45;&gt;node_3</title>
<path fill="none" stroke="black" d="M220.68,-38.19C197.54,-43.88 171.58,-50.48 148,-57 145.4,-57.72 142.76,-58.46 140.09,-59.22"/>
<polygon fill="black" stroke="black" points="139,-55.89 130.36,-62.03 140.94,-62.62 139,-55.89"/>
<text text-anchor="middle" x="175.5" y="-60" font-family="Fira Mono Medium" font-size="10.00">not&#45;equal</text>
</g>
<!-- node_4&#45;&gt;node_5 -->
<g id="edge8" class="edge">
<title>node_4&#45;&gt;node_5</title>
<path fill="none" stroke="black" d="M359.11,-32.2C384.58,-36.02 413.71,-40.38 440.01,-44.32"/>
<polygon fill="black" stroke="black" points="439.53,-47.79 449.94,-45.81 440.57,-40.86 439.53,-47.79"/>
<text text-anchor="middle" x="404.5" y="-47" font-family="Fira Mono Medium" font-size="10.00">not&#45;equal</text>
</g>
<!-- node_5&#45;&gt;node_0 -->
<g id="edge12" class="edge">
<title>node_5&#45;&gt;node_0</title>
<path fill="none" stroke="black" d="M568.69,-78.12C575.18,-81.1 581.76,-84.12 588,-87 608.21,-96.34 630.48,-106.74 649.6,-115.7"/>
<polygon fill="black" stroke="black" points="648.17,-118.89 658.71,-119.97 651.14,-112.55 648.17,-118.89"/>
<text text-anchor="middle" x="612.5" y="-103" font-family="Fira Mono Medium" font-size="10.00">at</text>
</g>
<!-- node_5&#45;&gt;node_3 -->
<g id="edge10" class="edge">
<title>node_5&#45;&gt;node_3</title>
<path fill="none" stroke="black" d="M449.88,-59.92C366.69,-64.7 226.47,-72.77 140.49,-77.72"/>
<polygon fill="black" stroke="black" points="140.06,-74.23 130.28,-78.3 140.47,-81.22 140.06,-74.23"/>
<text text-anchor="middle" x="290" y="-75" font-family="Fira Mono Medium" font-size="10.00">not&#45;equal</text>
</g>
<!-- node_5&#45;&gt;node_4 -->
<g id="edge11" class="edge">
<title>node_5&#45;&gt;node_4</title>
<path fill="none" stroke="black" d="M473.04,-33.9C460.1,-28.6 445.76,-23.69 432,-21 411.96,-17.08 390.01,-15.82 369.53,-15.9"/>
<polygon fill="black" stroke="black" points="369.23,-12.41 359.28,-16.05 369.33,-19.41 369.23,-12.41"/>
<text text-anchor="middle" x="404.5" y="-24" font-family="Fira Mono Medium" font-size="10.00">not&#45;equal</text>
</g>
<!-- node_6 -->
<g id="node7" class="node">
<title>node_6</title>
<polygon fill="none" stroke="black" points="358.5,-218 221.5,-218 221.5,-174 358.5,-174 358.5,-218"/>
<text text-anchor="start" x="271" y="-205.4" font-family="Fira Mono Medium" font-weight="bold" font-size="12.00">human</text>
<text text-anchor="start" x="229.5" y="-193.4" font-family="Fira Mono Medium" font-style="italic" font-size="12.00">kind:</text>
<text text-anchor="start" x="267.5" y="-193.4" font-family="Fira Mono Medium" font-size="12.00"> missionary</text>
<text text-anchor="start" x="233" y="-181.4" font-family="Fira Mono Medium" font-style="italic" font-size="12.00">can&#45;drive:</text>
<text text-anchor="start" x="309" y="-181.4" font-family="Fira Mono Medium" font-size="12.00"> true</text>
</g>
<!-- node_6&#45;&gt;node_1 -->
<g id="edge14" class="edge">
<title>node_6&#45;&gt;node_1</title>
<path fill="none" stroke="black" d="M358.59,-200.13C364.81,-200.45 371.02,-200.74 377,-201 409.43,-202.39 417.55,-202.56 450,-203 511.33,-203.84 526.74,-205.91 588,-203 674.52,-198.9 773.52,-188.7 839.5,-181.11"/>
<polygon fill="black" stroke="black" points="840.27,-184.55 849.8,-179.92 839.46,-177.59 840.27,-184.55"/>
<text text-anchor="middle" x="612.5" y="-204" font-family="Fira Mono Medium" font-size="10.00">at</text>
</g>
<!-- node_7 -->
<g id="node8" class="node">
<title>node_7</title>
<polygon fill="none" stroke="black" points="587.5,-194 450.5,-194 450.5,-150 587.5,-150 587.5,-194"/>
<text text-anchor="start" x="500" y="-181.4" font-family="Fira Mono Medium" font-weight="bold" font-size="12.00">human</text>
<text text-anchor="start" x="458.5" y="-169.4" font-family="Fira Mono Medium" font-style="italic" font-size="12.00">kind:</text>
<text text-anchor="start" x="496.5" y="-169.4" font-family="Fira Mono Medium" font-size="12.00"> missionary</text>
<text text-anchor="start" x="462" y="-157.4" font-family="Fira Mono Medium" font-style="italic" font-size="12.00">can&#45;drive:</text>
<text text-anchor="start" x="538" y="-157.4" font-family="Fira Mono Medium" font-size="12.00"> true</text>
</g>
<!-- node_6&#45;&gt;node_7 -->
<g id="edge13" class="edge">
<title>node_6&#45;&gt;node_7</title>
<path fill="none" stroke="black" d="M339.22,-173.96C351.3,-169.43 364.42,-165.33 377,-163 397.31,-159.24 419.52,-158.92 440.18,-160.2"/>
<polygon fill="black" stroke="black" points="439.95,-163.69 450.18,-160.94 440.47,-156.71 439.95,-163.69"/>
<text text-anchor="middle" x="404.5" y="-166" font-family="Fira Mono Medium" font-size="10.00">not&#45;equal</text>
</g>
<!-- node_7&#45;&gt;node_0 -->
<g id="edge16" class="edge">
<title>node_7&#45;&gt;node_0</title>
<path fill="none" stroke="black" d="M587.67,-159C600.46,-156.54 613.85,-153.97 626.72,-151.5"/>
<polygon fill="black" stroke="black" points="627.73,-154.87 636.89,-149.55 626.41,-148 627.73,-154.87"/>
<text text-anchor="middle" x="612.5" y="-158" font-family="Fira Mono Medium" font-size="10.00">at</text>
</g>
<!-- node_7&#45;&gt;node_6 -->
<g id="edge15" class="edge">
<title>node_7&#45;&gt;node_6</title>
<path fill="none" stroke="black" d="M450.16,-179.17C424.55,-181.88 395.23,-184.98 368.78,-187.78"/>
<polygon fill="black" stroke="black" points="368.38,-184.3 358.8,-188.83 369.11,-191.26 368.38,-184.3"/>
<text text-anchor="middle" x="404.5" y="-189" font-family="Fira Mono Medium" font-size="10.00">not&#45;equal</text>
</g>
</g>
</svg>
