<?xml version="1.0" encoding="UTF-8" standalone="no"?>
<!DOCTYPE svg PUBLIC "-//W3C//DTD SVG 1.1//EN"
 "http://www.w3.org/Graphics/SVG/1.1/DTD/svg11.dtd">
<!-- Generated by graphviz version 2.43.0 (0)
 -->
<!-- Title: %3 Pages: 1 -->
<svg width="1052pt" height="433pt"
 viewBox="0.00 0.00 1052.00 433.00" xmlns="http://www.w3.org/2000/svg" xmlns:xlink="http://www.w3.org/1999/xlink">
<g id="graph0" class="graph" transform="scale(1 1) rotate(0) translate(4 429)">
<title>%3</title>
<polygon fill="white" stroke="transparent" points="-4,4 -4,-429 1048,-429 1048,4 -4,4"/>
<!-- node_0 -->
<g id="node1" class="node">
<title>node_0</title>
<polygon fill="none" stroke="black" points="815,-199 693,-199 693,-163 815,-163 815,-199"/>
<text text-anchor="start" x="738.5" y="-184.4" font-family="Fira Mono Medium" font-weight="bold" font-size="12.00">bank</text>
<text text-anchor="start" x="701" y="-172.4" font-family="Fira Mono Medium" font-style="italic" font-size="12.00">location:</text>
<text text-anchor="start" x="769" y="-172.4" font-family="Fira Mono Medium" font-size="12.00"> left</text>
</g>
<!-- node_1 -->
<g id="node2" class="node">
<title>node_1</title>
<polygon fill="none" stroke="black" points="1044,-250 914,-250 914,-214 1044,-214 1044,-250"/>
<text text-anchor="start" x="963.5" y="-235.4" font-family="Fira Mono Medium" font-weight="bold" font-size="12.00">bank</text>
<text text-anchor="start" x="922" y="-223.4" font-family="Fira Mono Medium" font-style="italic" font-size="12.00">location:</text>
<text text-anchor="start" x="990" y="-223.4" font-family="Fira Mono Medium" font-size="12.00"> right</text>
</g>
<!-- node_0&#45;&gt;node_1 -->
<g id="edge1" class="edge">
<title>node_0&#45;&gt;node_1</title>
<path fill="none" stroke="black" d="M815,-174.41C840.43,-173.41 870.1,-174.63 896,-182 914.5,-187.27 932.98,-197.94 947.7,-208.08"/>
<polygon fill="black" stroke="black" points="945.73,-210.97 955.9,-213.94 949.8,-205.28 945.73,-210.97"/>
<text text-anchor="middle" x="868.5" y="-185" font-family="Fira Mono Medium" font-size="10.00">not&#45;equal</text>
</g>
<!-- node_1&#45;&gt;node_0 -->
<g id="edge2" class="edge">
<title>node_1&#45;&gt;node_0</title>
<path fill="none" stroke="black" d="M913.93,-217.35C886.09,-210.98 853.4,-203.5 824.93,-196.99"/>
<polygon fill="black" stroke="black" points="825.58,-193.55 815.05,-194.73 824.02,-200.38 825.58,-193.55"/>
<text text-anchor="middle" x="868.5" y="-215" font-family="Fira Mono Medium" font-size="10.00">not&#45;equal</text>
</g>
<!-- node_2 -->
<g id="node3" class="node">
<title>node_2</title>
<polygon fill="none" stroke="black" points="781,-425 727,-425 727,-389 781,-389 781,-425"/>
<text text-anchor="start" x="738.5" y="-404.9" font-family="Fira Mono Medium" font-weight="bold" font-size="12.00">boat</text>
</g>
<!-- node_2&#45;&gt;node_1 -->
<g id="edge3" class="edge">
<title>node_2&#45;&gt;node_1</title>
<path fill="none" stroke="black" d="M781.24,-407.15C811.67,-406.05 861.99,-400.15 896,-375 935.04,-346.14 958.35,-292.73 969.63,-259.99"/>
<polygon fill="black" stroke="black" points="973.07,-260.73 972.87,-250.14 966.42,-258.54 973.07,-260.73"/>
<text text-anchor="middle" x="868.5" y="-401" font-family="Fira Mono Medium" font-size="10.00">at</text>
</g>
<!-- node_3 -->
<g id="node4" class="node">
<title>node_3</title>
<polygon fill="none" stroke="black" points="590.5,-238 460.5,-238 460.5,-194 590.5,-194 590.5,-238"/>
<text text-anchor="start" x="506.5" y="-225.4" font-family="Fira Mono Medium" font-weight="bold" font-size="12.00">human</text>
<text text-anchor="start" x="472.5" y="-213.4" font-family="Fira Mono Medium" font-style="italic" font-size="12.00">kind:</text>
<text text-anchor="start" x="510.5" y="-213.4" font-family="Fira Mono Medium" font-size="12.00"> cannibal</text>
<text text-anchor="start" x="468.5" y="-201.4" font-family="Fira Mono Medium" font-style="italic" font-size="12.00">can&#45;drive:</text>
<text text-anchor="start" x="544.5" y="-201.4" font-family="Fira Mono Medium" font-size="12.00"> true</text>
</g>
<!-- node_3&#45;&gt;node_0 -->
<g id="edge6" class="edge">
<title>node_3&#45;&gt;node_0</title>
<path fill="none" stroke="black" d="M590.69,-198.31C597.84,-196.69 605.05,-195.21 612,-194 634.79,-190.04 659.87,-187.24 682.49,-185.27"/>
<polygon fill="black" stroke="black" points="683.01,-188.74 692.69,-184.43 682.43,-181.77 683.01,-188.74"/>
<text text-anchor="middle" x="639.5" y="-197" font-family="Fira Mono Medium" font-size="10.00">at</text>
</g>
<!-- node_4 -->
<g id="node5" class="node">
<title>node_4</title>
<polygon fill="none" stroke="black" points="366,-298 228,-298 228,-254 366,-254 366,-298"/>
<text text-anchor="start" x="278" y="-285.4" font-family="Fira Mono Medium" font-weight="bold" font-size="12.00">human</text>
<text text-anchor="start" x="244" y="-273.4" font-family="Fira Mono Medium" font-style="italic" font-size="12.00">kind:</text>
<text text-anchor="start" x="282" y="-273.4" font-family="Fira Mono Medium" font-size="12.00"> cannibal</text>
<text text-anchor="start" x="236" y="-261.4" font-family="Fira Mono Medium" font-style="italic" font-size="12.00">can&#45;drive:</text>
<text text-anchor="start" x="312" y="-261.4" font-family="Fira Mono Medium" font-size="12.00"> false</text>
</g>
<!-- node_3&#45;&gt;node_4 -->
<g id="edge4" class="edge">
<title>node_3&#45;&gt;node_4</title>
<path fill="none" stroke="black" d="M460.32,-208.6C435.93,-207.81 408.2,-209.4 384,-217 364.32,-223.18 345.13,-235.54 329.89,-247.36"/>
<polygon fill="black" stroke="black" points="327.44,-244.83 321.85,-253.82 331.83,-250.28 327.44,-244.83"/>
<text text-anchor="middle" x="411.5" y="-220" font-family="Fira Mono Medium" font-size="10.00">not&#45;equal</text>
</g>
<!-- node_5 -->
<g id="node6" class="node">
<title>node_5</title>
<polygon fill="none" stroke="black" points="823,-271 685,-271 685,-227 823,-227 823,-271"/>
<text text-anchor="start" x="735" y="-258.4" font-family="Fira Mono Medium" font-weight="bold" font-size="12.00">human</text>
<text text-anchor="start" x="701" y="-246.4" font-family="Fira Mono Medium" font-style="italic" font-size="12.00">kind:</text>
<text text-anchor="start" x="739" y="-246.4" font-family="Fira Mono Medium" font-size="12.00"> cannibal</text>
<text text-anchor="start" x="693" y="-234.4" font-family="Fira Mono Medium" font-style="italic" font-size="12.00">can&#45;drive:</text>
<text text-anchor="start" x="769" y="-234.4" font-family="Fira Mono Medium" font-size="12.00"> false</text>
</g>
<!-- node_3&#45;&gt;node_5 -->
<g id="edge5" class="edge">
<title>node_3&#45;&gt;node_5</title>
<path fill="none" stroke="black" d="M590.8,-225.37C617.01,-229.19 647.55,-233.64 675.01,-237.64"/>
<polygon fill="black" stroke="black" points="674.58,-241.11 684.98,-239.09 675.59,-234.18 674.58,-241.11"/>
<text text-anchor="middle" x="639.5" y="-239" font-family="Fira Mono Medium" font-size="10.00">not&#45;equal</text>
</g>
<!-- node_4&#45;&gt;node_1 -->
<g id="edge9" class="edge">
<title>node_4&#45;&gt;node_1</title>
<path fill="none" stroke="black" d="M351.53,-298.11C362.15,-301.87 373.32,-305.39 384,-308 415.76,-315.75 424.37,-315 457,-317 620.19,-327.02 664.03,-318.2 823,-280 853.99,-272.55 887.87,-262.31 916.03,-253.2"/>
<polygon fill="black" stroke="black" points="917.32,-256.46 925.74,-250.03 915.14,-249.81 917.32,-256.46"/>
<text text-anchor="middle" x="639.5" y="-322" font-family="Fira Mono Medium" font-size="10.00">at</text>
</g>
<!-- node_4&#45;&gt;node_3 -->
<g id="edge7" class="edge">
<title>node_4&#45;&gt;node_3</title>
<path fill="none" stroke="black" d="M366,-255.97C372.08,-254.26 378.15,-252.58 384,-251 405.57,-245.18 429.1,-239.18 450.63,-233.83"/>
<polygon fill="black" stroke="black" points="451.5,-237.22 460.37,-231.42 449.82,-230.43 451.5,-237.22"/>
<text text-anchor="middle" x="411.5" y="-254" font-family="Fira Mono Medium" font-size="10.00">not&#45;equal</text>
</g>
<!-- node_4&#45;&gt;node_5 -->
<g id="edge8" class="edge">
<title>node_4&#45;&gt;node_5</title>
<path fill="none" stroke="black" d="M366.32,-288.79C441.15,-300.41 564.2,-312.48 667,-289 679.92,-286.05 693.22,-281 705.38,-275.46"/>
<polygon fill="black" stroke="black" points="706.9,-278.62 714.43,-271.16 703.89,-272.29 706.9,-278.62"/>
<text text-anchor="middle" x="525.5" y="-305" font-family="Fira Mono Medium" font-size="10.00">not&#45;equal</text>
</g>
<!-- node_5&#45;&gt;node_1 -->
<g id="edge12" class="edge">
<title>node_5&#45;&gt;node_1</title>
<path fill="none" stroke="black" d="M823.12,-243.81C848.56,-241.87 877.57,-239.66 903.56,-237.68"/>
<polygon fill="black" stroke="black" points="904.02,-241.15 913.73,-236.9 903.49,-234.17 904.02,-241.15"/>
<text text-anchor="middle" x="868.5" y="-245" font-family="Fira Mono Medium" font-size="10.00">at</text>
</g>
<!-- node_5&#45;&gt;node_3 -->
<g id="edge10" class="edge">
<title>node_5&#45;&gt;node_3</title>
<path fill="none" stroke="black" d="M708.04,-226.9C695.1,-221.6 680.76,-216.69 667,-214 645.71,-209.83 622.26,-208.8 600.72,-209.23"/>
<polygon fill="black" stroke="black" points="600.53,-205.74 590.65,-209.54 600.75,-212.73 600.53,-205.74"/>
<text text-anchor="middle" x="639.5" y="-217" font-family="Fira Mono Medium" font-size="10.00">not&#45;equal</text>
</g>
<!-- node_5&#45;&gt;node_4 -->
<g id="edge11" class="edge">
<title>node_5&#45;&gt;node_4</title>
<path fill="none" stroke="black" d="M684.79,-253.05C602.12,-257.95 463.11,-266.2 376.19,-271.36"/>
<polygon fill="black" stroke="black" points="375.89,-267.87 366.12,-271.96 376.31,-274.86 375.89,-267.87"/>
<text text-anchor="middle" x="525.5" y="-269" font-family="Fira Mono Medium" font-size="10.00">not&#45;equal</text>
</g>
<!-- node_6 -->
<g id="node7" class="node">
<title>node_6</title>
<polygon fill="none" stroke="black" points="365.5,-101 228.5,-101 228.5,-57 365.5,-57 365.5,-101"/>
<text text-anchor="start" x="278" y="-88.4" font-family="Fira Mono Medium" font-weight="bold" font-size="12.00">human</text>
<text text-anchor="start" x="236.5" y="-76.4" font-family="Fira Mono Medium" font-style="italic" font-size="12.00">kind:</text>
<text text-anchor="start" x="274.5" y="-76.4" font-family="Fira Mono Medium" font-size="12.00"> missionary</text>
<text text-anchor="start" x="240" y="-64.4" font-family="Fira Mono Medium" font-style="italic" font-size="12.00">can&#45;drive:</text>
<text text-anchor="start" x="316" y="-64.4" font-family="Fira Mono Medium" font-size="12.00"> true</text>
</g>
<!-- node_6&#45;&gt;node_0 -->
<g id="edge15" class="edge">
<title>node_6&#45;&gt;node_0</title>
<path fill="none" stroke="black" d="M365.83,-71.23C389.06,-69.61 415.18,-68.94 439,-71 508.67,-77.02 527.77,-75.55 594,-98 638.02,-112.92 684.76,-138.66 716.09,-157.53"/>
<polygon fill="black" stroke="black" points="714.53,-160.68 724.89,-162.9 718.18,-154.7 714.53,-160.68"/>
<text text-anchor="middle" x="525.5" y="-101" font-family="Fira Mono Medium" font-size="10.00">at</text>
</g>
<!-- node_7 -->
<g id="node8" class="node">
<title>node_7</title>
<polygon fill="none" stroke="black" points="137,-133 0,-133 0,-89 137,-89 137,-133"/>
<text text-anchor="start" x="49.5" y="-120.4" font-family="Fira Mono Medium" font-weight="bold" font-size="12.00">human</text>
<text text-anchor="start" x="8" y="-108.4" font-family="Fira Mono Medium" font-style="italic" font-size="12.00">kind:</text>
<text text-anchor="start" x="46" y="-108.4" font-family="Fira Mono Medium" font-size="12.00"> missionary</text>
<text text-anchor="start" x="11.5" y="-96.4" font-family="Fira Mono Medium" font-style="italic" font-size="12.00">can&#45;drive:</text>
<text text-anchor="start" x="87.5" y="-96.4" font-family="Fira Mono Medium" font-size="12.00"> true</text>
</g>
<!-- node_6&#45;&gt;node_7 -->
<g id="edge13" class="edge">
<title>node_6&#45;&gt;node_7</title>
<path fill="none" stroke="black" d="M228.31,-88.56C202.76,-92.17 173.5,-96.31 147.11,-100.04"/>
<polygon fill="black" stroke="black" points="146.56,-96.58 137.15,-101.44 147.54,-103.51 146.56,-96.58"/>
<text text-anchor="middle" x="182.5" y="-101" font-family="Fira Mono Medium" font-size="10.00">not&#45;equal</text>
</g>
<!-- node_8 -->
<g id="node9" class="node">
<title>node_8</title>
<polygon fill="none" stroke="black" points="594,-162 457,-162 457,-118 594,-118 594,-162"/>
<text text-anchor="start" x="506.5" y="-149.4" font-family="Fira Mono Medium" font-weight="bold" font-size="12.00">human</text>
<text text-anchor="start" x="465" y="-137.4" font-family="Fira Mono Medium" font-style="italic" font-size="12.00">kind:</text>
<text text-anchor="start" x="503" y="-137.4" font-family="Fira Mono Medium" font-size="12.00"> missionary</text>
<text text-anchor="start" x="468.5" y="-125.4" font-family="Fira Mono Medium" font-style="italic" font-size="12.00">can&#45;drive:</text>
<text text-anchor="start" x="544.5" y="-125.4" font-family="Fira Mono Medium" font-size="12.00"> true</text>
</g>
<!-- node_6&#45;&gt;node_8 -->
<g id="edge14" class="edge">
<title>node_6&#45;&gt;node_8</title>
<path fill="none" stroke="black" d="M365.54,-95.74C388.86,-101.65 415.12,-108.46 439,-115 441.64,-115.72 444.32,-116.46 447.02,-117.22"/>
<polygon fill="black" stroke="black" points="446.31,-120.65 456.89,-120 448.21,-113.92 446.31,-120.65"/>
<text text-anchor="middle" x="411.5" y="-118" font-family="Fira Mono Medium" font-size="10.00">not&#45;equal</text>
</g>
<!-- node_7&#45;&gt;node_1 -->
<g id="edge18" class="edge">
<title>node_7&#45;&gt;node_1</title>
<path fill="none" stroke="black" d="M95.03,-88.8C135,-56.41 216.08,0 296,0 296,0 296,0 755,0 867.19,0 940.59,-142.77 967.02,-204.31"/>
<polygon fill="black" stroke="black" points="963.9,-205.93 971,-213.8 970.36,-203.22 963.9,-205.93"/>
<text text-anchor="middle" x="525.5" y="-3" font-family="Fira Mono Medium" font-size="10.00">at</text>
</g>
<!-- node_7&#45;&gt;node_6 -->
<g id="edge16" class="edge">
<title>node_7&#45;&gt;node_6</title>
<path fill="none" stroke="black" d="M114.19,-88.9C127.05,-83.6 141.31,-78.69 155,-76 175.34,-72 197.64,-70.97 218.39,-71.39"/>
<polygon fill="black" stroke="black" points="218.33,-74.89 228.43,-71.7 218.54,-67.89 218.33,-74.89"/>
<text text-anchor="middle" x="182.5" y="-79" font-family="Fira Mono Medium" font-size="10.00">not&#45;equal</text>
</g>
<!-- node_7&#45;&gt;node_8 -->
<g id="edge17" class="edge">
<title>node_7&#45;&gt;node_8</title>
<path fill="none" stroke="black" d="M107.83,-133.16C122.16,-140.29 138.87,-147.3 155,-151 253.77,-173.67 371.28,-164.19 446.83,-153.59"/>
<polygon fill="black" stroke="black" points="447.35,-157.06 456.75,-152.16 446.35,-150.13 447.35,-157.06"/>
<text text-anchor="middle" x="297" y="-167" font-family="Fira Mono Medium" font-size="10.00">not&#45;equal</text>
</g>
<!-- node_8&#45;&gt;node_0 -->
<g id="edge21" class="edge">
<title>node_8&#45;&gt;node_0</title>
<path fill="none" stroke="black" d="M594.15,-152.25C622.01,-157.29 654.3,-163.13 682.46,-168.23"/>
<polygon fill="black" stroke="black" points="682.16,-171.73 692.63,-170.07 683.41,-164.85 682.16,-171.73"/>
<text text-anchor="middle" x="639.5" y="-168" font-family="Fira Mono Medium" font-size="10.00">at</text>
</g>
<!-- node_8&#45;&gt;node_6 -->
<g id="edge19" class="edge">
<title>node_8&#45;&gt;node_6</title>
<path fill="none" stroke="black" d="M498.27,-117.9C482.24,-105.79 460.7,-91.88 439,-85 419.03,-78.67 396.67,-75.9 375.74,-75.01"/>
<polygon fill="black" stroke="black" points="375.7,-71.51 365.6,-74.72 375.5,-78.51 375.7,-71.51"/>
<text text-anchor="middle" x="411.5" y="-88" font-family="Fira Mono Medium" font-size="10.00">not&#45;equal</text>
</g>
<!-- node_8&#45;&gt;node_7 -->
<g id="edge20" class="edge">
<title>node_8&#45;&gt;node_7</title>
<path fill="none" stroke="black" d="M456.87,-135.69C374.12,-130.42 234.31,-121.5 147.22,-115.95"/>
<polygon fill="black" stroke="black" points="147.33,-112.45 137.13,-115.31 146.88,-119.44 147.33,-112.45"/>
<text text-anchor="middle" x="297" y="-132" font-family="Fira Mono Medium" font-size="10.00">not&#45;equal</text>
</g>
</g>
</svg>
