<?xml version="1.0" encoding="UTF-8" standalone="no"?>
<!DOCTYPE svg PUBLIC "-//W3C//DTD SVG 1.1//EN"
 "http://www.w3.org/Graphics/SVG/1.1/DTD/svg11.dtd">
<!-- Generated by graphviz version 2.43.0 (0)
 -->
<!-- Title: %3 Pages: 1 -->
<svg width="1052pt" height="343pt"
 viewBox="0.00 0.00 1052.00 343.19" xmlns="http://www.w3.org/2000/svg" xmlns:xlink="http://www.w3.org/1999/xlink">
<g id="graph0" class="graph" transform="scale(1 1) rotate(0) translate(4 339.19)">
<title>%3</title>
<polygon fill="white" stroke="transparent" points="-4,4 -4,-339.19 1048,-339.19 1048,4 -4,4"/>
<!-- node_0 -->
<g id="node1" class="node">
<title>node_0</title>
<polygon fill="none" stroke="black" points="815.5,-303.19 693.5,-303.19 693.5,-267.19 815.5,-267.19 815.5,-303.19"/>
<text text-anchor="start" x="739" y="-288.59" font-family="Fira Mono Medium" font-weight="bold" font-size="12.00">bank</text>
<text text-anchor="start" x="701.5" y="-276.59" font-family="Fira Mono Medium" font-style="italic" font-size="12.00">location:</text>
<text text-anchor="start" x="769.5" y="-276.59" font-family="Fira Mono Medium" font-size="12.00"> left</text>
</g>
<!-- node_1 -->
<g id="node2" class="node">
<title>node_1</title>
<polygon fill="none" stroke="black" points="1044,-219.19 914,-219.19 914,-183.19 1044,-183.19 1044,-219.19"/>
<text text-anchor="start" x="963.5" y="-204.59" font-family="Fira Mono Medium" font-weight="bold" font-size="12.00">bank</text>
<text text-anchor="start" x="922" y="-192.59" font-family="Fira Mono Medium" font-style="italic" font-size="12.00">location:</text>
<text text-anchor="start" x="990" y="-192.59" font-family="Fira Mono Medium" font-size="12.00"> right</text>
</g>
<!-- node_0&#45;&gt;node_1 -->
<g id="edge1" class="edge">
<title>node_0&#45;&gt;node_1</title>
<path fill="none" stroke="black" d="M815.76,-282.88C841.31,-280.22 870.92,-274.85 896,-264.19 917.11,-255.22 937.56,-239.52 952.77,-226.04"/>
<polygon fill="black" stroke="black" points="955.19,-228.56 960.21,-219.23 950.47,-223.39 955.19,-228.56"/>
<text text-anchor="middle" x="868.5" y="-281.19" font-family="Fira Mono Medium" font-size="10.00">not&#45;equal</text>
</g>
<!-- node_1&#45;&gt;node_0 -->
<g id="edge2" class="edge">
<title>node_1&#45;&gt;node_0</title>
<path fill="none" stroke="black" d="M927.45,-219.25C901.53,-228.61 869.51,-240.32 841,-251.19 834.57,-253.64 822.8,-258.29 810,-263.38"/>
<polygon fill="black" stroke="black" points="808.56,-260.19 800.56,-267.14 811.15,-266.69 808.56,-260.19"/>
<text text-anchor="middle" x="868.5" y="-254.19" font-family="Fira Mono Medium" font-size="10.00">not&#45;equal</text>
</g>
<!-- node_2 -->
<g id="node3" class="node">
<title>node_2</title>
<polygon fill="none" stroke="black" points="781.5,-249.19 727.5,-249.19 727.5,-213.19 781.5,-213.19 781.5,-249.19"/>
<text text-anchor="start" x="739" y="-229.09" font-family="Fira Mono Medium" font-weight="bold" font-size="12.00">boat</text>
</g>
<!-- node_2&#45;&gt;node_1 -->
<g id="edge3" class="edge">
<title>node_2&#45;&gt;node_1</title>
<path fill="none" stroke="black" d="M781.69,-227.45C798.6,-225.06 821.1,-221.9 841,-219.19 861.34,-216.43 883.38,-213.5 903.72,-210.83"/>
<polygon fill="black" stroke="black" points="904.4,-214.27 913.86,-209.5 903.49,-207.33 904.4,-214.27"/>
<text text-anchor="middle" x="868.5" y="-222.19" font-family="Fira Mono Medium" font-size="10.00">at</text>
</g>
<!-- node_3 -->
<g id="node4" class="node">
<title>node_3</title>
<polygon fill="none" stroke="black" points="362.5,-287.19 232.5,-287.19 232.5,-243.19 362.5,-243.19 362.5,-287.19"/>
<text text-anchor="start" x="278.5" y="-274.59" font-family="Fira Mono Medium" font-weight="bold" font-size="12.00">human</text>
<text text-anchor="start" x="244.5" y="-262.59" font-family="Fira Mono Medium" font-style="italic" font-size="12.00">kind:</text>
<text text-anchor="start" x="282.5" y="-262.59" font-family="Fira Mono Medium" font-size="12.00"> cannibal</text>
<text text-anchor="start" x="240.5" y="-250.59" font-family="Fira Mono Medium" font-style="italic" font-size="12.00">can&#45;drive:</text>
<text text-anchor="start" x="316.5" y="-250.59" font-family="Fira Mono Medium" font-size="12.00"> true</text>
</g>
<!-- node_3&#45;&gt;node_0 -->
<g id="edge6" class="edge">
<title>node_3&#45;&gt;node_0</title>
<path fill="none" stroke="black" d="M362.87,-257.68C369.99,-257.07 377.14,-256.55 384,-256.19 426.15,-253.98 542.34,-252.41 595,-257.19 624.12,-259.84 655.92,-265 683.34,-270.18"/>
<polygon fill="black" stroke="black" points="682.75,-273.63 693.23,-272.08 684.07,-266.75 682.75,-273.63"/>
<text text-anchor="middle" x="526" y="-260.19" font-family="Fira Mono Medium" font-size="10.00">at</text>
</g>
<!-- node_4 -->
<g id="node5" class="node">
<title>node_4</title>
<polygon fill="none" stroke="black" points="595,-321.19 457,-321.19 457,-277.19 595,-277.19 595,-321.19"/>
<text text-anchor="start" x="507" y="-308.59" font-family="Fira Mono Medium" font-weight="bold" font-size="12.00">human</text>
<text text-anchor="start" x="473" y="-296.59" font-family="Fira Mono Medium" font-style="italic" font-size="12.00">kind:</text>
<text text-anchor="start" x="511" y="-296.59" font-family="Fira Mono Medium" font-size="12.00"> cannibal</text>
<text text-anchor="start" x="465" y="-284.59" font-family="Fira Mono Medium" font-style="italic" font-size="12.00">can&#45;drive:</text>
<text text-anchor="start" x="541" y="-284.59" font-family="Fira Mono Medium" font-size="12.00"> false</text>
</g>
<!-- node_3&#45;&gt;node_4 -->
<g id="edge4" class="edge">
<title>node_3&#45;&gt;node_4</title>
<path fill="none" stroke="black" d="M362.61,-260.84C386.75,-260.45 414.31,-261.53 439,-266.19 448.12,-267.91 457.52,-270.55 466.61,-273.6"/>
<polygon fill="black" stroke="black" points="465.72,-277 476.32,-277.04 468.06,-270.4 465.72,-277"/>
<text text-anchor="middle" x="411.5" y="-269.19" font-family="Fira Mono Medium" font-size="10.00">not&#45;equal</text>
</g>
<!-- node_5 -->
<g id="node6" class="node">
<title>node_5</title>
<polygon fill="none" stroke="black" points="138,-321.19 0,-321.19 0,-277.19 138,-277.19 138,-321.19"/>
<text text-anchor="start" x="50" y="-308.59" font-family="Fira Mono Medium" font-weight="bold" font-size="12.00">human</text>
<text text-anchor="start" x="16" y="-296.59" font-family="Fira Mono Medium" font-style="italic" font-size="12.00">kind:</text>
<text text-anchor="start" x="54" y="-296.59" font-family="Fira Mono Medium" font-size="12.00"> cannibal</text>
<text text-anchor="start" x="8" y="-284.59" font-family="Fira Mono Medium" font-style="italic" font-size="12.00">can&#45;drive:</text>
<text text-anchor="start" x="84" y="-284.59" font-family="Fira Mono Medium" font-size="12.00"> false</text>
</g>
<!-- node_3&#45;&gt;node_5 -->
<g id="edge5" class="edge">
<title>node_3&#45;&gt;node_5</title>
<path fill="none" stroke="black" d="M232.25,-274.84C206.1,-278.76 175.64,-283.33 148.22,-287.45"/>
<polygon fill="black" stroke="black" points="147.63,-284 138.26,-288.94 148.67,-290.92 147.63,-284"/>
<text text-anchor="middle" x="183.5" y="-289.19" font-family="Fira Mono Medium" font-size="10.00">not&#45;equal</text>
</g>
<!-- node_4&#45;&gt;node_0 -->
<g id="edge9" class="edge">
<title>node_4&#45;&gt;node_0</title>
<path fill="none" stroke="black" d="M595.26,-294.97C623.11,-293.25 655.28,-291.26 683.32,-289.53"/>
<polygon fill="black" stroke="black" points="683.68,-293.01 693.44,-288.9 683.25,-286.03 683.68,-293.01"/>
<text text-anchor="middle" x="640.5" y="-296.19" font-family="Fira Mono Medium" font-size="10.00">at</text>
</g>
<!-- node_4&#45;&gt;node_3 -->
<g id="edge7" class="edge">
<title>node_4&#45;&gt;node_3</title>
<path fill="none" stroke="black" d="M456.98,-288.98C430.5,-285.01 400.07,-280.44 373,-276.37"/>
<polygon fill="black" stroke="black" points="373.21,-272.87 362.8,-274.84 372.17,-279.79 373.21,-272.87"/>
<text text-anchor="middle" x="411.5" y="-289.19" font-family="Fira Mono Medium" font-size="10.00">not&#45;equal</text>
</g>
<!-- node_4&#45;&gt;node_5 -->
<g id="edge8" class="edge">
<title>node_4&#45;&gt;node_5</title>
<path fill="none" stroke="black" d="M456.93,-300.92C450.87,-301.03 444.82,-301.12 439,-301.19 313.23,-302.65 281.77,-302.65 156,-301.19 153.45,-301.16 150.86,-301.13 148.25,-301.09"/>
<polygon fill="black" stroke="black" points="148.12,-297.59 138.07,-300.92 148.01,-304.58 148.12,-297.59"/>
<text text-anchor="middle" x="297.5" y="-305.19" font-family="Fira Mono Medium" font-size="10.00">not&#45;equal</text>
</g>
<!-- node_5&#45;&gt;node_1 -->
<g id="edge12" class="edge">
<title>node_5&#45;&gt;node_1</title>
<path fill="none" stroke="black" d="M94.77,-276.94C134.37,-243.76 215.72,-185.19 296.5,-185.19 296.5,-185.19 296.5,-185.19 755.5,-185.19 804.98,-185.19 860.49,-189.18 903.68,-193.17"/>
<polygon fill="black" stroke="black" points="903.54,-196.67 913.83,-194.13 904.2,-189.7 903.54,-196.67"/>
<text text-anchor="middle" x="526" y="-188.19" font-family="Fira Mono Medium" font-size="10.00">at</text>
</g>
<!-- node_5&#45;&gt;node_3 -->
<g id="edge10" class="edge">
<title>node_5&#45;&gt;node_3</title>
<path fill="none" stroke="black" d="M114.96,-277.09C127.9,-271.79 142.24,-266.88 156,-264.19 177.29,-260.03 200.74,-258.87 222.28,-259.15"/>
<polygon fill="black" stroke="black" points="222.28,-262.65 232.35,-259.38 222.44,-255.65 222.28,-262.65"/>
<text text-anchor="middle" x="183.5" y="-267.19" font-family="Fira Mono Medium" font-size="10.00">not&#45;equal</text>
</g>
<!-- node_5&#45;&gt;node_4 -->
<g id="edge11" class="edge">
<title>node_5&#45;&gt;node_4</title>
<path fill="none" stroke="black" d="M138.39,-312.91C144.33,-313.8 150.26,-314.58 156,-315.19 281.08,-328.46 313.92,-328.46 439,-315.19 441.51,-314.92 444.06,-314.63 446.63,-314.3"/>
<polygon fill="black" stroke="black" points="447.18,-317.76 456.61,-312.91 446.22,-310.82 447.18,-317.76"/>
<text text-anchor="middle" x="297.5" y="-327.19" font-family="Fira Mono Medium" font-size="10.00">not&#45;equal</text>
</g>
<!-- node_6 -->
<g id="node7" class="node">
<title>node_6</title>
<polygon fill="none" stroke="black" points="366,-72.19 229,-72.19 229,-28.19 366,-28.19 366,-72.19"/>
<text text-anchor="start" x="278.5" y="-59.59" font-family="Fira Mono Medium" font-weight="bold" font-size="12.00">human</text>
<text text-anchor="start" x="237" y="-47.59" font-family="Fira Mono Medium" font-style="italic" font-size="12.00">kind:</text>
<text text-anchor="start" x="275" y="-47.59" font-family="Fira Mono Medium" font-size="12.00"> missionary</text>
<text text-anchor="start" x="240.5" y="-35.59" font-family="Fira Mono Medium" font-style="italic" font-size="12.00">can&#45;drive:</text>
<text text-anchor="start" x="316.5" y="-35.59" font-family="Fira Mono Medium" font-size="12.00"> true</text>
</g>
<!-- node_6&#45;&gt;node_1 -->
<g id="edge15" class="edge">
<title>node_6&#45;&gt;node_1</title>
<path fill="none" stroke="black" d="M352.09,-28.06C362.52,-24.53 373.48,-21.34 384,-19.19 507.68,6.05 543.62,5.36 668,-16.19 739.74,-28.62 759.73,-33.18 823,-69.19 874.6,-98.56 925.23,-146.23 953.93,-175.53"/>
<polygon fill="black" stroke="black" points="951.62,-178.17 961.09,-182.92 956.65,-173.3 951.62,-178.17"/>
<text text-anchor="middle" x="640.5" y="-19.19" font-family="Fira Mono Medium" font-size="10.00">at</text>
</g>
<!-- node_7 -->
<g id="node8" class="node">
<title>node_7</title>
<polygon fill="none" stroke="black" points="594.5,-90.19 457.5,-90.19 457.5,-46.19 594.5,-46.19 594.5,-90.19"/>
<text text-anchor="start" x="507" y="-77.59" font-family="Fira Mono Medium" font-weight="bold" font-size="12.00">human</text>
<text text-anchor="start" x="465.5" y="-65.59" font-family="Fira Mono Medium" font-style="italic" font-size="12.00">kind:</text>
<text text-anchor="start" x="503.5" y="-65.59" font-family="Fira Mono Medium" font-size="12.00"> missionary</text>
<text text-anchor="start" x="469" y="-53.59" font-family="Fira Mono Medium" font-style="italic" font-size="12.00">can&#45;drive:</text>
<text text-anchor="start" x="545" y="-53.59" font-family="Fira Mono Medium" font-size="12.00"> true</text>
</g>
<!-- node_6&#45;&gt;node_7 -->
<g id="edge13" class="edge">
<title>node_6&#45;&gt;node_7</title>
<path fill="none" stroke="black" d="M366.1,-60.3C372.15,-61.01 378.18,-61.66 384,-62.19 404.55,-64.07 426.84,-65.36 447.5,-66.24"/>
<polygon fill="black" stroke="black" points="447.36,-69.74 457.49,-66.65 447.64,-62.75 447.36,-69.74"/>
<text text-anchor="middle" x="411.5" y="-68.19" font-family="Fira Mono Medium" font-size="10.00">not&#45;equal</text>
</g>
<!-- node_8 -->
<g id="node9" class="node">
<title>node_8</title>
<polygon fill="none" stroke="black" points="823,-122.19 686,-122.19 686,-78.19 823,-78.19 823,-122.19"/>
<text text-anchor="start" x="735.5" y="-109.59" font-family="Fira Mono Medium" font-weight="bold" font-size="12.00">human</text>
<text text-anchor="start" x="694" y="-97.59" font-family="Fira Mono Medium" font-style="italic" font-size="12.00">kind:</text>
<text text-anchor="start" x="732" y="-97.59" font-family="Fira Mono Medium" font-size="12.00"> missionary</text>
<text text-anchor="start" x="697.5" y="-85.59" font-family="Fira Mono Medium" font-style="italic" font-size="12.00">can&#45;drive:</text>
<text text-anchor="start" x="773.5" y="-85.59" font-family="Fira Mono Medium" font-size="12.00"> true</text>
</g>
<!-- node_6&#45;&gt;node_8 -->
<g id="edge14" class="edge">
<title>node_6&#45;&gt;node_8</title>
<path fill="none" stroke="black" d="M359.48,-72.28C367.69,-75.05 376.03,-77.76 384,-80.19 416.07,-89.97 423.79,-94.61 457,-99.19 549.91,-111.99 574.22,-103.29 668,-102.19 670.53,-102.16 673.11,-102.13 675.71,-102.09"/>
<polygon fill="black" stroke="black" points="675.89,-105.59 685.83,-101.92 675.77,-98.59 675.89,-105.59"/>
<text text-anchor="middle" x="526" y="-108.19" font-family="Fira Mono Medium" font-size="10.00">not&#45;equal</text>
</g>
<!-- node_7&#45;&gt;node_0 -->
<g id="edge18" class="edge">
<title>node_7&#45;&gt;node_0</title>
<path fill="none" stroke="black" d="M575.66,-90.31C582.5,-94.44 589.18,-99.08 595,-104.19 637.16,-141.21 642.19,-157.37 668,-207.19 679.06,-228.53 669.36,-240.85 686,-258.19 686.91,-259.14 687.86,-260.05 688.84,-260.94"/>
<polygon fill="black" stroke="black" points="686.85,-263.83 696.92,-267.12 691.1,-258.26 686.85,-263.83"/>
<text text-anchor="middle" x="640.5" y="-210.19" font-family="Fira Mono Medium" font-size="10.00">at</text>
</g>
<!-- node_7&#45;&gt;node_6 -->
<g id="edge16" class="edge">
<title>node_7&#45;&gt;node_6</title>
<path fill="none" stroke="black" d="M457.16,-51.77C451.05,-50.73 444.93,-49.84 439,-49.19 418.77,-46.98 396.81,-46.32 376.4,-46.43"/>
<polygon fill="black" stroke="black" points="376.15,-42.93 366.19,-46.55 376.23,-49.93 376.15,-42.93"/>
<text text-anchor="middle" x="411.5" y="-52.19" font-family="Fira Mono Medium" font-size="10.00">not&#45;equal</text>
</g>
<!-- node_7&#45;&gt;node_8 -->
<g id="edge17" class="edge">
<title>node_7&#45;&gt;node_8</title>
<path fill="none" stroke="black" d="M594.52,-62.51C617.96,-61.91 644.3,-62.78 668,-67.19 677.29,-68.92 686.87,-71.62 696.1,-74.75"/>
<polygon fill="black" stroke="black" points="694.98,-78.07 705.57,-78.15 697.34,-71.48 694.98,-78.07"/>
<text text-anchor="middle" x="640.5" y="-70.19" font-family="Fira Mono Medium" font-size="10.00">not&#45;equal</text>
</g>
<!-- node_8&#45;&gt;node_1 -->
<g id="edge21" class="edge">
<title>node_8&#45;&gt;node_1</title>
<path fill="none" stroke="black" d="M809.21,-122.24C835.53,-133.27 867.6,-147.04 896,-160.19 908.43,-165.95 921.77,-172.47 934,-178.59"/>
<polygon fill="black" stroke="black" points="932.6,-181.8 943.11,-183.17 935.75,-175.55 932.6,-181.8"/>
<text text-anchor="middle" x="868.5" y="-163.19" font-family="Fira Mono Medium" font-size="10.00">at</text>
</g>
<!-- node_8&#45;&gt;node_6 -->
<g id="edge19" class="edge">
<title>node_8&#45;&gt;node_6</title>
<path fill="none" stroke="black" d="M718.65,-78.16C687.59,-59.97 640.18,-35.66 595,-26.19 521.62,-10.81 436.12,-20.59 375.84,-31.94"/>
<polygon fill="black" stroke="black" points="375.17,-28.51 366.02,-33.85 376.5,-35.38 375.17,-28.51"/>
<text text-anchor="middle" x="526" y="-29.19" font-family="Fira Mono Medium" font-size="10.00">not&#45;equal</text>
</g>
<!-- node_8&#45;&gt;node_7 -->
<g id="edge20" class="edge">
<title>node_8&#45;&gt;node_7</title>
<path fill="none" stroke="black" d="M685.81,-90.63C660.26,-87.02 631,-82.88 604.61,-79.16"/>
<polygon fill="black" stroke="black" points="605.04,-75.68 594.65,-77.75 604.06,-82.61 605.04,-75.68"/>
<text text-anchor="middle" x="640.5" y="-90.19" font-family="Fira Mono Medium" font-size="10.00">not&#45;equal</text>
</g>
</g>
</svg>
