<?xml version="1.0" encoding="UTF-8" standalone="no"?>
<!DOCTYPE svg PUBLIC "-//W3C//DTD SVG 1.1//EN"
 "http://www.w3.org/Graphics/SVG/1.1/DTD/svg11.dtd">
<!-- Generated by graphviz version 2.43.0 (0)
 -->
<!-- Title: %3 Pages: 1 -->
<svg width="824pt" height="414pt"
 viewBox="0.00 0.00 824.00 414.00" xmlns="http://www.w3.org/2000/svg" xmlns:xlink="http://www.w3.org/1999/xlink">
<g id="graph0" class="graph" transform="scale(1 1) rotate(0) translate(4 410)">
<title>%3</title>
<polygon fill="white" stroke="transparent" points="-4,4 -4,-410 820,-410 820,4 -4,4"/>
<!-- node_0 -->
<g id="node1" class="node">
<title>node_0</title>
<polygon fill="none" stroke="black" points="587,-198 465,-198 465,-162 587,-162 587,-198"/>
<text text-anchor="start" x="510.5" y="-183.4" font-family="Fira Mono Medium" font-weight="bold" font-size="12.00">bank</text>
<text text-anchor="start" x="473" y="-171.4" font-family="Fira Mono Medium" font-style="italic" font-size="12.00">location:</text>
<text text-anchor="start" x="541" y="-171.4" font-family="Fira Mono Medium" font-size="12.00"> left</text>
</g>
<!-- node_1 -->
<g id="node2" class="node">
<title>node_1</title>
<polygon fill="none" stroke="black" points="816,-231 686,-231 686,-195 816,-195 816,-231"/>
<text text-anchor="start" x="735.5" y="-216.4" font-family="Fira Mono Medium" font-weight="bold" font-size="12.00">bank</text>
<text text-anchor="start" x="694" y="-204.4" font-family="Fira Mono Medium" font-style="italic" font-size="12.00">location:</text>
<text text-anchor="start" x="762" y="-204.4" font-family="Fira Mono Medium" font-size="12.00"> right</text>
</g>
<!-- node_0&#45;&gt;node_1 -->
<g id="edge1" class="edge">
<title>node_0&#45;&gt;node_1</title>
<path fill="none" stroke="black" d="M587.05,-188.89C614.4,-192.93 647.04,-197.76 675.9,-202.03"/>
<polygon fill="black" stroke="black" points="675.53,-205.52 685.93,-203.52 676.55,-198.59 675.53,-205.52"/>
<text text-anchor="middle" x="640.5" y="-203" font-family="Fira Mono Medium" font-size="10.00">not&#45;equal</text>
</g>
<!-- node_1&#45;&gt;node_0 -->
<g id="edge2" class="edge">
<title>node_1&#45;&gt;node_0</title>
<path fill="none" stroke="black" d="M716.29,-194.98C701.85,-188.23 684.53,-181.38 668,-178 645.33,-173.36 620.18,-172.42 597.47,-173.08"/>
<polygon fill="black" stroke="black" points="597.07,-169.6 587.22,-173.49 597.35,-176.59 597.07,-169.6"/>
<text text-anchor="middle" x="640.5" y="-181" font-family="Fira Mono Medium" font-size="10.00">not&#45;equal</text>
</g>
<!-- node_2 -->
<g id="node3" class="node">
<title>node_2</title>
<polygon fill="none" stroke="black" points="324.5,-198 270.5,-198 270.5,-162 324.5,-162 324.5,-198"/>
<text text-anchor="start" x="282" y="-177.9" font-family="Fira Mono Medium" font-weight="bold" font-size="12.00">boat</text>
</g>
<!-- node_2&#45;&gt;node_0 -->
<g id="edge3" class="edge">
<title>node_2&#45;&gt;node_0</title>
<path fill="none" stroke="black" d="M324.93,-180C356.54,-180 410.71,-180 454.72,-180"/>
<polygon fill="black" stroke="black" points="454.8,-183.5 464.8,-180 454.8,-176.5 454.8,-183.5"/>
<text text-anchor="middle" x="411.5" y="-183" font-family="Fira Mono Medium" font-size="10.00">at</text>
</g>
<!-- node_3 -->
<g id="node4" class="node">
<title>node_3</title>
<polygon fill="none" stroke="black" points="362.5,-316 232.5,-316 232.5,-272 362.5,-272 362.5,-316"/>
<text text-anchor="start" x="278.5" y="-303.4" font-family="Fira Mono Medium" font-weight="bold" font-size="12.00">human</text>
<text text-anchor="start" x="244.5" y="-291.4" font-family="Fira Mono Medium" font-style="italic" font-size="12.00">kind:</text>
<text text-anchor="start" x="282.5" y="-291.4" font-family="Fira Mono Medium" font-size="12.00"> cannibal</text>
<text text-anchor="start" x="240.5" y="-279.4" font-family="Fira Mono Medium" font-style="italic" font-size="12.00">can&#45;drive:</text>
<text text-anchor="start" x="316.5" y="-279.4" font-family="Fira Mono Medium" font-size="12.00"> true</text>
</g>
<!-- node_3&#45;&gt;node_0 -->
<g id="edge6" class="edge">
<title>node_3&#45;&gt;node_0</title>
<path fill="none" stroke="black" d="M362.04,-271.98C386.61,-262.62 414.63,-250.89 439,-238 457.54,-228.2 477,-215.32 492.72,-204.18"/>
<polygon fill="black" stroke="black" points="494.95,-206.88 501.03,-198.21 490.87,-201.2 494.95,-206.88"/>
<text text-anchor="middle" x="411.5" y="-265" font-family="Fira Mono Medium" font-size="10.00">at</text>
</g>
<!-- node_4 -->
<g id="node5" class="node">
<title>node_4</title>
<polygon fill="none" stroke="black" points="138,-376 0,-376 0,-332 138,-332 138,-376"/>
<text text-anchor="start" x="50" y="-363.4" font-family="Fira Mono Medium" font-weight="bold" font-size="12.00">human</text>
<text text-anchor="start" x="16" y="-351.4" font-family="Fira Mono Medium" font-style="italic" font-size="12.00">kind:</text>
<text text-anchor="start" x="54" y="-351.4" font-family="Fira Mono Medium" font-size="12.00"> cannibal</text>
<text text-anchor="start" x="8" y="-339.4" font-family="Fira Mono Medium" font-style="italic" font-size="12.00">can&#45;drive:</text>
<text text-anchor="start" x="84" y="-339.4" font-family="Fira Mono Medium" font-size="12.00"> false</text>
</g>
<!-- node_3&#45;&gt;node_4 -->
<g id="edge4" class="edge">
<title>node_3&#45;&gt;node_4</title>
<path fill="none" stroke="black" d="M232.37,-309.42C208.36,-315.34 180.88,-322.29 156,-329 153.26,-329.74 150.46,-330.5 147.65,-331.28"/>
<polygon fill="black" stroke="black" points="146.69,-327.91 138,-333.97 148.57,-334.66 146.69,-327.91"/>
<text text-anchor="middle" x="183.5" y="-332" font-family="Fira Mono Medium" font-size="10.00">not&#45;equal</text>
</g>
<!-- node_5 -->
<g id="node6" class="node">
<title>node_5</title>
<polygon fill="none" stroke="black" points="595,-350 457,-350 457,-306 595,-306 595,-350"/>
<text text-anchor="start" x="507" y="-337.4" font-family="Fira Mono Medium" font-weight="bold" font-size="12.00">human</text>
<text text-anchor="start" x="473" y="-325.4" font-family="Fira Mono Medium" font-style="italic" font-size="12.00">kind:</text>
<text text-anchor="start" x="511" y="-325.4" font-family="Fira Mono Medium" font-size="12.00"> cannibal</text>
<text text-anchor="start" x="465" y="-313.4" font-family="Fira Mono Medium" font-style="italic" font-size="12.00">can&#45;drive:</text>
<text text-anchor="start" x="541" y="-313.4" font-family="Fira Mono Medium" font-size="12.00"> false</text>
</g>
<!-- node_3&#45;&gt;node_5 -->
<g id="edge5" class="edge">
<title>node_3&#45;&gt;node_5</title>
<path fill="none" stroke="black" d="M362.8,-303.65C389.01,-307.59 419.55,-312.17 447.01,-316.29"/>
<polygon fill="black" stroke="black" points="446.57,-319.77 456.98,-317.79 447.61,-312.84 446.57,-319.77"/>
<text text-anchor="middle" x="411.5" y="-318" font-family="Fira Mono Medium" font-size="10.00">not&#45;equal</text>
</g>
<!-- node_4&#45;&gt;node_1 -->
<g id="edge9" class="edge">
<title>node_4&#45;&gt;node_1</title>
<path fill="none" stroke="black" d="M138.29,-372.75C144.25,-374 150.21,-375.11 156,-376 188.12,-380.94 196.52,-379.11 229,-380 391.87,-384.46 445.29,-423.29 595,-359 654.81,-333.32 705.67,-273.89 731.6,-239.29"/>
<polygon fill="black" stroke="black" points="734.54,-241.2 737.64,-231.07 728.9,-237.05 734.54,-241.2"/>
<text text-anchor="middle" x="411.5" y="-398" font-family="Fira Mono Medium" font-size="10.00">at</text>
</g>
<!-- node_4&#45;&gt;node_3 -->
<g id="edge7" class="edge">
<title>node_4&#45;&gt;node_3</title>
<path fill="none" stroke="black" d="M97.22,-331.75C113.29,-319.99 134.62,-306.65 156,-300 176.93,-293.49 200.46,-290.8 222.19,-290.07"/>
<polygon fill="black" stroke="black" points="222.44,-293.56 232.37,-289.85 222.29,-286.56 222.44,-293.56"/>
<text text-anchor="middle" x="183.5" y="-303" font-family="Fira Mono Medium" font-size="10.00">not&#45;equal</text>
</g>
<!-- node_4&#45;&gt;node_5 -->
<g id="edge8" class="edge">
<title>node_4&#45;&gt;node_5</title>
<path fill="none" stroke="black" d="M138.12,-350.11C220.75,-345.39 359.75,-337.44 446.71,-332.47"/>
<polygon fill="black" stroke="black" points="447,-335.96 456.79,-331.9 446.61,-328.97 447,-335.96"/>
<text text-anchor="middle" x="297.5" y="-347" font-family="Fira Mono Medium" font-size="10.00">not&#45;equal</text>
</g>
<!-- node_5&#45;&gt;node_1 -->
<g id="edge12" class="edge">
<title>node_5&#45;&gt;node_1</title>
<path fill="none" stroke="black" d="M569.73,-305.96C608.72,-285.86 666.11,-256.26 705.61,-235.89"/>
<polygon fill="black" stroke="black" points="707.46,-238.87 714.75,-231.18 704.26,-232.65 707.46,-238.87"/>
<text text-anchor="middle" x="640.5" y="-283" font-family="Fira Mono Medium" font-size="10.00">at</text>
</g>
<!-- node_5&#45;&gt;node_3 -->
<g id="edge10" class="edge">
<title>node_5&#45;&gt;node_3</title>
<path fill="none" stroke="black" d="M480.04,-305.9C467.1,-300.6 452.76,-295.69 439,-293 417.71,-288.83 394.26,-287.68 372.72,-287.95"/>
<polygon fill="black" stroke="black" points="372.56,-284.46 362.65,-288.18 372.72,-291.46 372.56,-284.46"/>
<text text-anchor="middle" x="411.5" y="-296" font-family="Fira Mono Medium" font-size="10.00">not&#45;equal</text>
</g>
<!-- node_5&#45;&gt;node_4 -->
<g id="edge11" class="edge">
<title>node_5&#45;&gt;node_4</title>
<path fill="none" stroke="black" d="M456.57,-344.43C450.64,-345.7 444.72,-346.91 439,-348 315.33,-371.66 281.81,-366.11 156,-361 153.45,-360.9 150.85,-360.78 148.23,-360.64"/>
<polygon fill="black" stroke="black" points="148.22,-357.13 138.04,-360.05 147.82,-364.12 148.22,-357.13"/>
<text text-anchor="middle" x="297.5" y="-368" font-family="Fira Mono Medium" font-size="10.00">not&#45;equal</text>
</g>
<!-- node_6 -->
<g id="node7" class="node">
<title>node_6</title>
<polygon fill="none" stroke="black" points="137.5,-102 0.5,-102 0.5,-58 137.5,-58 137.5,-102"/>
<text text-anchor="start" x="50" y="-89.4" font-family="Fira Mono Medium" font-weight="bold" font-size="12.00">human</text>
<text text-anchor="start" x="8.5" y="-77.4" font-family="Fira Mono Medium" font-style="italic" font-size="12.00">kind:</text>
<text text-anchor="start" x="46.5" y="-77.4" font-family="Fira Mono Medium" font-size="12.00"> missionary</text>
<text text-anchor="start" x="12" y="-65.4" font-family="Fira Mono Medium" font-style="italic" font-size="12.00">can&#45;drive:</text>
<text text-anchor="start" x="88" y="-65.4" font-family="Fira Mono Medium" font-size="12.00"> true</text>
</g>
<!-- node_6&#45;&gt;node_1 -->
<g id="edge15" class="edge">
<title>node_6&#45;&gt;node_1</title>
<path fill="none" stroke="black" d="M88.57,-102.03C115.75,-132.4 169.62,-185.76 229,-207 269.83,-221.6 541.81,-217.7 675.75,-214.82"/>
<polygon fill="black" stroke="black" points="676,-218.31 685.93,-214.59 675.85,-211.31 676,-218.31"/>
<text text-anchor="middle" x="411.5" y="-220" font-family="Fira Mono Medium" font-size="10.00">at</text>
</g>
<!-- node_7 -->
<g id="node8" class="node">
<title>node_7</title>
<polygon fill="none" stroke="black" points="366,-44 229,-44 229,0 366,0 366,-44"/>
<text text-anchor="start" x="278.5" y="-31.4" font-family="Fira Mono Medium" font-weight="bold" font-size="12.00">human</text>
<text text-anchor="start" x="237" y="-19.4" font-family="Fira Mono Medium" font-style="italic" font-size="12.00">kind:</text>
<text text-anchor="start" x="275" y="-19.4" font-family="Fira Mono Medium" font-size="12.00"> missionary</text>
<text text-anchor="start" x="240.5" y="-7.4" font-family="Fira Mono Medium" font-style="italic" font-size="12.00">can&#45;drive:</text>
<text text-anchor="start" x="316.5" y="-7.4" font-family="Fira Mono Medium" font-size="12.00"> true</text>
</g>
<!-- node_6&#45;&gt;node_7 -->
<g id="edge13" class="edge">
<title>node_6&#45;&gt;node_7</title>
<path fill="none" stroke="black" d="M137.51,-60.01C143.75,-58.28 149.98,-56.58 156,-55 176.31,-49.67 198.37,-44.29 218.87,-39.47"/>
<polygon fill="black" stroke="black" points="219.85,-42.83 228.79,-37.15 218.26,-36.02 219.85,-42.83"/>
<text text-anchor="middle" x="183.5" y="-58" font-family="Fira Mono Medium" font-size="10.00">not&#45;equal</text>
</g>
<!-- node_8 -->
<g id="node9" class="node">
<title>node_8</title>
<polygon fill="none" stroke="black" points="594.5,-102 457.5,-102 457.5,-58 594.5,-58 594.5,-102"/>
<text text-anchor="start" x="507" y="-89.4" font-family="Fira Mono Medium" font-weight="bold" font-size="12.00">human</text>
<text text-anchor="start" x="465.5" y="-77.4" font-family="Fira Mono Medium" font-style="italic" font-size="12.00">kind:</text>
<text text-anchor="start" x="503.5" y="-77.4" font-family="Fira Mono Medium" font-size="12.00"> missionary</text>
<text text-anchor="start" x="469" y="-65.4" font-family="Fira Mono Medium" font-style="italic" font-size="12.00">can&#45;drive:</text>
<text text-anchor="start" x="545" y="-65.4" font-family="Fira Mono Medium" font-size="12.00"> true</text>
</g>
<!-- node_6&#45;&gt;node_8 -->
<g id="edge14" class="edge">
<title>node_6&#45;&gt;node_8</title>
<path fill="none" stroke="black" d="M137.63,-80C220.38,-80 360.19,-80 447.28,-80"/>
<polygon fill="black" stroke="black" points="447.37,-83.5 457.37,-80 447.37,-76.5 447.37,-83.5"/>
<text text-anchor="middle" x="297.5" y="-83" font-family="Fira Mono Medium" font-size="10.00">not&#45;equal</text>
</g>
<!-- node_7&#45;&gt;node_0 -->
<g id="edge18" class="edge">
<title>node_7&#45;&gt;node_0</title>
<path fill="none" stroke="black" d="M342.32,-44.01C350.33,-48.42 358.52,-53.18 366,-58 391.36,-74.33 455.3,-124.51 493.93,-155.19"/>
<polygon fill="black" stroke="black" points="492.23,-158.31 502.24,-161.79 496.59,-152.83 492.23,-158.31"/>
<text text-anchor="middle" x="411.5" y="-114" font-family="Fira Mono Medium" font-size="10.00">at</text>
</g>
<!-- node_7&#45;&gt;node_6 -->
<g id="edge16" class="edge">
<title>node_7&#45;&gt;node_6</title>
<path fill="none" stroke="black" d="M228.87,-16.75C205.37,-16.8 179.12,-18.99 156,-26 137.95,-31.48 119.96,-41.81 105.14,-51.98"/>
<polygon fill="black" stroke="black" points="102.92,-49.26 96.8,-57.91 106.98,-54.97 102.92,-49.26"/>
<text text-anchor="middle" x="183.5" y="-29" font-family="Fira Mono Medium" font-size="10.00">not&#45;equal</text>
</g>
<!-- node_7&#45;&gt;node_8 -->
<g id="edge17" class="edge">
<title>node_7&#45;&gt;node_8</title>
<path fill="none" stroke="black" d="M366.19,-13.26C389.7,-12.38 415.93,-13.85 439,-21 458.7,-27.11 477.89,-39.46 493.13,-51.29"/>
<polygon fill="black" stroke="black" points="491.19,-54.22 501.17,-57.77 495.58,-48.77 491.19,-54.22"/>
<text text-anchor="middle" x="411.5" y="-24" font-family="Fira Mono Medium" font-size="10.00">not&#45;equal</text>
</g>
<!-- node_8&#45;&gt;node_1 -->
<g id="edge21" class="edge">
<title>node_8&#45;&gt;node_1</title>
<path fill="none" stroke="black" d="M569.89,-102C598.16,-116.85 635.77,-137.26 668,-157 684.34,-167.01 701.96,-178.89 716.66,-189.12"/>
<polygon fill="black" stroke="black" points="714.75,-192.06 724.94,-194.93 718.76,-186.33 714.75,-192.06"/>
<text text-anchor="middle" x="640.5" y="-160" font-family="Fira Mono Medium" font-size="10.00">at</text>
</g>
<!-- node_8&#45;&gt;node_6 -->
<g id="edge19" class="edge">
<title>node_8&#45;&gt;node_6</title>
<path fill="none" stroke="black" d="M491.79,-102.18C476.41,-111.15 457.49,-120.45 439,-125 339.14,-149.55 220.63,-126.1 145.38,-104.9"/>
<polygon fill="black" stroke="black" points="146.08,-101.46 135.51,-102.06 144.15,-108.19 146.08,-101.46"/>
<text text-anchor="middle" x="297.5" y="-138" font-family="Fira Mono Medium" font-size="10.00">not&#45;equal</text>
</g>
<!-- node_8&#45;&gt;node_7 -->
<g id="edge20" class="edge">
<title>node_8&#45;&gt;node_7</title>
<path fill="none" stroke="black" d="M457.49,-60.01C451.25,-58.28 445.02,-56.58 439,-55 418.69,-49.67 396.63,-44.29 376.13,-39.47"/>
<polygon fill="black" stroke="black" points="376.74,-36.02 366.21,-37.15 375.15,-42.83 376.74,-36.02"/>
<text text-anchor="middle" x="411.5" y="-58" font-family="Fira Mono Medium" font-size="10.00">not&#45;equal</text>
</g>
</g>
</svg>
