<?xml version="1.0" encoding="UTF-8" standalone="no"?>
<!DOCTYPE svg PUBLIC "-//W3C//DTD SVG 1.1//EN"
 "http://www.w3.org/Graphics/SVG/1.1/DTD/svg11.dtd">
<!-- Generated by graphviz version 2.43.0 (0)
 -->
<!-- Title: %3 Pages: 1 -->
<svg width="995pt" height="484pt"
 viewBox="0.00 0.00 995.00 484.00" xmlns="http://www.w3.org/2000/svg" xmlns:xlink="http://www.w3.org/1999/xlink">
<g id="graph0" class="graph" transform="scale(1 1) rotate(0) translate(4 480)">
<title>%3</title>
<polygon fill="white" stroke="transparent" points="-4,4 -4,-480 991,-480 991,4 -4,4"/>
<!-- node_0 -->
<g id="node1" class="node">
<title>node_0</title>
<polygon fill="none" stroke="black" points="766,-251 644,-251 644,-215 766,-215 766,-251"/>
<text text-anchor="start" x="689.5" y="-236.4" font-family="Fira Mono Medium" font-weight="bold" font-size="12.00">bank</text>
<text text-anchor="start" x="652" y="-224.4" font-family="Fira Mono Medium" font-style="italic" font-size="12.00">location:</text>
<text text-anchor="start" x="720" y="-224.4" font-family="Fira Mono Medium" font-size="12.00"> left</text>
</g>
<!-- node_1 -->
<g id="node2" class="node">
<title>node_1</title>
<polygon fill="none" stroke="black" points="987,-285 857,-285 857,-249 987,-249 987,-285"/>
<text text-anchor="start" x="906.5" y="-270.4" font-family="Fira Mono Medium" font-weight="bold" font-size="12.00">bank</text>
<text text-anchor="start" x="865" y="-258.4" font-family="Fira Mono Medium" font-style="italic" font-size="12.00">location:</text>
<text text-anchor="start" x="933" y="-258.4" font-family="Fira Mono Medium" font-size="12.00"> right</text>
</g>
<!-- node_0&#45;&gt;node_1 -->
<g id="edge1" class="edge">
<title>node_0&#45;&gt;node_1</title>
<path fill="none" stroke="black" d="M766.07,-228.72C789.07,-228.31 815.44,-229.35 839,-234 851,-236.37 863.47,-240.46 874.96,-244.97"/>
<polygon fill="black" stroke="black" points="873.77,-248.27 884.35,-248.84 876.43,-241.8 873.77,-248.27"/>
<text text-anchor="middle" x="811.5" y="-237" font-family="Fira Mono Medium" font-size="10.00">not&#45;equal</text>
</g>
<!-- node_1&#45;&gt;node_0 -->
<g id="edge2" class="edge">
<title>node_1&#45;&gt;node_0</title>
<path fill="none" stroke="black" d="M856.7,-256.83C831.37,-252.83 802.19,-248.21 776.3,-244.12"/>
<polygon fill="black" stroke="black" points="776.6,-240.62 766.18,-242.52 775.51,-247.54 776.6,-240.62"/>
<text text-anchor="middle" x="811.5" y="-256" font-family="Fira Mono Medium" font-size="10.00">not&#45;equal</text>
</g>
<!-- node_2 -->
<g id="node3" class="node">
<title>node_2</title>
<polygon fill="none" stroke="black" points="732,-476 678,-476 678,-440 732,-440 732,-476"/>
<text text-anchor="start" x="689.5" y="-455.9" font-family="Fira Mono Medium" font-weight="bold" font-size="12.00">boat</text>
</g>
<!-- node_2&#45;&gt;node_1 -->
<g id="edge3" class="edge">
<title>node_2&#45;&gt;node_1</title>
<path fill="none" stroke="black" d="M732.26,-457.94C761.27,-456.57 807.99,-450.34 839,-426 881.59,-392.58 904.19,-330.96 914.29,-295.04"/>
<polygon fill="black" stroke="black" points="917.72,-295.77 916.92,-285.2 910.95,-293.96 917.72,-295.77"/>
<text text-anchor="middle" x="811.5" y="-453" font-family="Fira Mono Medium" font-size="10.00">at</text>
</g>
<!-- node_3 -->
<g id="node4" class="node">
<title>node_3</title>
<polygon fill="none" stroke="black" points="362.5,-288 232.5,-288 232.5,-244 362.5,-244 362.5,-288"/>
<text text-anchor="start" x="278.5" y="-275.4" font-family="Fira Mono Medium" font-weight="bold" font-size="12.00">human</text>
<text text-anchor="start" x="244.5" y="-263.4" font-family="Fira Mono Medium" font-style="italic" font-size="12.00">kind:</text>
<text text-anchor="start" x="282.5" y="-263.4" font-family="Fira Mono Medium" font-size="12.00"> cannibal</text>
<text text-anchor="start" x="240.5" y="-251.4" font-family="Fira Mono Medium" font-style="italic" font-size="12.00">can&#45;drive:</text>
<text text-anchor="start" x="316.5" y="-251.4" font-family="Fira Mono Medium" font-size="12.00"> true</text>
</g>
<!-- node_3&#45;&gt;node_0 -->
<g id="edge6" class="edge">
<title>node_3&#45;&gt;node_0</title>
<path fill="none" stroke="black" d="M362.91,-259.01C370.02,-258.3 377.16,-257.62 384,-257 469.85,-249.26 568.82,-242.11 633.69,-237.66"/>
<polygon fill="black" stroke="black" points="634.06,-241.15 643.8,-236.97 633.58,-234.16 634.06,-241.15"/>
<text text-anchor="middle" x="526" y="-253" font-family="Fira Mono Medium" font-size="10.00">at</text>
</g>
<!-- node_4 -->
<g id="node5" class="node">
<title>node_4</title>
<polygon fill="none" stroke="black" points="595,-322 457,-322 457,-278 595,-278 595,-322"/>
<text text-anchor="start" x="507" y="-309.4" font-family="Fira Mono Medium" font-weight="bold" font-size="12.00">human</text>
<text text-anchor="start" x="473" y="-297.4" font-family="Fira Mono Medium" font-style="italic" font-size="12.00">kind:</text>
<text text-anchor="start" x="511" y="-297.4" font-family="Fira Mono Medium" font-size="12.00"> cannibal</text>
<text text-anchor="start" x="465" y="-285.4" font-family="Fira Mono Medium" font-style="italic" font-size="12.00">can&#45;drive:</text>
<text text-anchor="start" x="541" y="-285.4" font-family="Fira Mono Medium" font-size="12.00"> false</text>
</g>
<!-- node_3&#45;&gt;node_4 -->
<g id="edge4" class="edge">
<title>node_3&#45;&gt;node_4</title>
<path fill="none" stroke="black" d="M362.61,-261.65C386.75,-261.26 414.31,-262.34 439,-267 448.12,-268.72 457.52,-271.36 466.61,-274.41"/>
<polygon fill="black" stroke="black" points="465.72,-277.81 476.32,-277.85 468.06,-271.21 465.72,-277.81"/>
<text text-anchor="middle" x="411.5" y="-270" font-family="Fira Mono Medium" font-size="10.00">not&#45;equal</text>
</g>
<!-- node_5 -->
<g id="node6" class="node">
<title>node_5</title>
<polygon fill="none" stroke="black" points="138,-348 0,-348 0,-304 138,-304 138,-348"/>
<text text-anchor="start" x="50" y="-335.4" font-family="Fira Mono Medium" font-weight="bold" font-size="12.00">human</text>
<text text-anchor="start" x="16" y="-323.4" font-family="Fira Mono Medium" font-style="italic" font-size="12.00">kind:</text>
<text text-anchor="start" x="54" y="-323.4" font-family="Fira Mono Medium" font-size="12.00"> cannibal</text>
<text text-anchor="start" x="8" y="-311.4" font-family="Fira Mono Medium" font-style="italic" font-size="12.00">can&#45;drive:</text>
<text text-anchor="start" x="84" y="-311.4" font-family="Fira Mono Medium" font-size="12.00"> false</text>
</g>
<!-- node_3&#45;&gt;node_5 -->
<g id="edge5" class="edge">
<title>node_3&#45;&gt;node_5</title>
<path fill="none" stroke="black" d="M232.37,-281.42C208.36,-287.34 180.88,-294.29 156,-301 153.26,-301.74 150.46,-302.5 147.65,-303.28"/>
<polygon fill="black" stroke="black" points="146.69,-299.91 138,-305.97 148.57,-306.66 146.69,-299.91"/>
<text text-anchor="middle" x="183.5" y="-304" font-family="Fira Mono Medium" font-size="10.00">not&#45;equal</text>
</g>
<!-- node_4&#45;&gt;node_0 -->
<g id="edge9" class="edge">
<title>node_4&#45;&gt;node_0</title>
<path fill="none" stroke="black" d="M585.45,-277.88C605.18,-270.41 627.17,-262.08 646.8,-254.65"/>
<polygon fill="black" stroke="black" points="648.12,-257.9 656.23,-251.08 645.64,-251.35 648.12,-257.9"/>
<text text-anchor="middle" x="619.5" y="-269" font-family="Fira Mono Medium" font-size="10.00">at</text>
</g>
<!-- node_4&#45;&gt;node_3 -->
<g id="edge7" class="edge">
<title>node_4&#45;&gt;node_3</title>
<path fill="none" stroke="black" d="M456.98,-289.79C430.5,-285.81 400.07,-281.25 373,-277.18"/>
<polygon fill="black" stroke="black" points="373.21,-273.68 362.8,-275.65 372.17,-280.6 373.21,-273.68"/>
<text text-anchor="middle" x="411.5" y="-290" font-family="Fira Mono Medium" font-size="10.00">not&#45;equal</text>
</g>
<!-- node_4&#45;&gt;node_5 -->
<g id="edge8" class="edge">
<title>node_4&#45;&gt;node_5</title>
<path fill="none" stroke="black" d="M456.79,-303.9C374.12,-308.62 235.11,-316.56 148.19,-321.53"/>
<polygon fill="black" stroke="black" points="147.9,-318.04 138.12,-322.11 148.3,-325.03 147.9,-318.04"/>
<text text-anchor="middle" x="297.5" y="-319" font-family="Fira Mono Medium" font-size="10.00">not&#45;equal</text>
</g>
<!-- node_5&#45;&gt;node_1 -->
<g id="edge12" class="edge">
<title>node_5&#45;&gt;node_1</title>
<path fill="none" stroke="black" d="M104.54,-348.15C147.68,-373.63 224.57,-412 296.5,-412 296.5,-412 296.5,-412 706,-412 790.2,-412 866.13,-334.6 900.93,-292.9"/>
<polygon fill="black" stroke="black" points="903.71,-295.03 907.33,-285.07 898.29,-290.6 903.71,-295.03"/>
<text text-anchor="middle" x="526" y="-415" font-family="Fira Mono Medium" font-size="10.00">at</text>
</g>
<!-- node_5&#45;&gt;node_3 -->
<g id="edge10" class="edge">
<title>node_5&#45;&gt;node_3</title>
<path fill="none" stroke="black" d="M97.22,-303.75C113.29,-291.99 134.62,-278.65 156,-272 176.93,-265.49 200.46,-262.8 222.19,-262.07"/>
<polygon fill="black" stroke="black" points="222.44,-265.56 232.37,-261.85 222.29,-258.56 222.44,-265.56"/>
<text text-anchor="middle" x="183.5" y="-275" font-family="Fira Mono Medium" font-size="10.00">not&#45;equal</text>
</g>
<!-- node_5&#45;&gt;node_4 -->
<g id="edge11" class="edge">
<title>node_5&#45;&gt;node_4</title>
<path fill="none" stroke="black" d="M138.04,-332.05C144.11,-332.44 150.16,-332.76 156,-333 281.81,-338.11 315.33,-343.66 439,-320 441.5,-319.52 444.04,-319.02 446.61,-318.5"/>
<polygon fill="black" stroke="black" points="447.49,-321.89 456.57,-316.43 446.07,-315.04 447.49,-321.89"/>
<text text-anchor="middle" x="297.5" y="-340" font-family="Fira Mono Medium" font-size="10.00">not&#45;equal</text>
</g>
<!-- node_6 -->
<g id="node7" class="node">
<title>node_6</title>
<polygon fill="none" stroke="black" points="137.5,-115 0.5,-115 0.5,-71 137.5,-71 137.5,-115"/>
<text text-anchor="start" x="50" y="-102.4" font-family="Fira Mono Medium" font-weight="bold" font-size="12.00">human</text>
<text text-anchor="start" x="8.5" y="-90.4" font-family="Fira Mono Medium" font-style="italic" font-size="12.00">kind:</text>
<text text-anchor="start" x="46.5" y="-90.4" font-family="Fira Mono Medium" font-size="12.00"> missionary</text>
<text text-anchor="start" x="12" y="-78.4" font-family="Fira Mono Medium" font-style="italic" font-size="12.00">can&#45;drive:</text>
<text text-anchor="start" x="88" y="-78.4" font-family="Fira Mono Medium" font-size="12.00"> true</text>
</g>
<!-- node_6&#45;&gt;node_1 -->
<g id="edge15" class="edge">
<title>node_6&#45;&gt;node_1</title>
<path fill="none" stroke="black" d="M101.34,-70.96C143.58,-43.46 222.11,0 296.5,0 296.5,0 296.5,0 706,0 827.71,0 892.17,-170.38 913.17,-238.93"/>
<polygon fill="black" stroke="black" points="909.86,-240.06 916.07,-248.65 916.57,-238.06 909.86,-240.06"/>
<text text-anchor="middle" x="526" y="-3" font-family="Fira Mono Medium" font-size="10.00">at</text>
</g>
<!-- node_7 -->
<g id="node8" class="node">
<title>node_7</title>
<polygon fill="none" stroke="black" points="366,-182 229,-182 229,-138 366,-138 366,-182"/>
<text text-anchor="start" x="278.5" y="-169.4" font-family="Fira Mono Medium" font-weight="bold" font-size="12.00">human</text>
<text text-anchor="start" x="237" y="-157.4" font-family="Fira Mono Medium" font-style="italic" font-size="12.00">kind:</text>
<text text-anchor="start" x="275" y="-157.4" font-family="Fira Mono Medium" font-size="12.00"> missionary</text>
<text text-anchor="start" x="240.5" y="-145.4" font-family="Fira Mono Medium" font-style="italic" font-size="12.00">can&#45;drive:</text>
<text text-anchor="start" x="316.5" y="-145.4" font-family="Fira Mono Medium" font-size="12.00"> true</text>
</g>
<!-- node_6&#45;&gt;node_7 -->
<g id="edge13" class="edge">
<title>node_6&#45;&gt;node_7</title>
<path fill="none" stroke="black" d="M105.67,-115.01C120.71,-123.4 138.72,-132.3 156,-138 175.95,-144.58 198.15,-149.22 218.92,-152.48"/>
<polygon fill="black" stroke="black" points="218.57,-155.96 228.98,-153.97 219.6,-149.04 218.57,-155.96"/>
<text text-anchor="middle" x="183.5" y="-153" font-family="Fira Mono Medium" font-size="10.00">not&#45;equal</text>
</g>
<!-- node_8 -->
<g id="node9" class="node">
<title>node_8</title>
<polygon fill="none" stroke="black" points="594.5,-148 457.5,-148 457.5,-104 594.5,-104 594.5,-148"/>
<text text-anchor="start" x="507" y="-135.4" font-family="Fira Mono Medium" font-weight="bold" font-size="12.00">human</text>
<text text-anchor="start" x="465.5" y="-123.4" font-family="Fira Mono Medium" font-style="italic" font-size="12.00">kind:</text>
<text text-anchor="start" x="503.5" y="-123.4" font-family="Fira Mono Medium" font-size="12.00"> missionary</text>
<text text-anchor="start" x="469" y="-111.4" font-family="Fira Mono Medium" font-style="italic" font-size="12.00">can&#45;drive:</text>
<text text-anchor="start" x="545" y="-111.4" font-family="Fira Mono Medium" font-size="12.00"> true</text>
</g>
<!-- node_6&#45;&gt;node_8 -->
<g id="edge14" class="edge">
<title>node_6&#45;&gt;node_8</title>
<path fill="none" stroke="black" d="M137.78,-95.66C211.87,-98.9 334.05,-105.17 439,-115 441.72,-115.25 444.48,-115.53 447.27,-115.82"/>
<polygon fill="black" stroke="black" points="447.13,-119.32 457.45,-116.92 447.88,-112.36 447.13,-119.32"/>
<text text-anchor="middle" x="297.5" y="-111" font-family="Fira Mono Medium" font-size="10.00">not&#45;equal</text>
</g>
<!-- node_7&#45;&gt;node_0 -->
<g id="edge18" class="edge">
<title>node_7&#45;&gt;node_0</title>
<path fill="none" stroke="black" d="M366.37,-172.22C440.45,-185.55 558.48,-206.8 633.55,-220.32"/>
<polygon fill="black" stroke="black" points="633.39,-223.84 643.85,-222.17 634.63,-216.96 633.39,-223.84"/>
<text text-anchor="middle" x="526" y="-215" font-family="Fira Mono Medium" font-size="10.00">at</text>
</g>
<!-- node_7&#45;&gt;node_6 -->
<g id="edge16" class="edge">
<title>node_7&#45;&gt;node_6</title>
<path fill="none" stroke="black" d="M246.37,-137.87C234.88,-133.25 222.62,-128.67 211,-125 190.65,-118.57 168.26,-112.88 147.43,-108.15"/>
<polygon fill="black" stroke="black" points="148.19,-104.74 137.67,-105.98 146.67,-111.57 148.19,-104.74"/>
<text text-anchor="middle" x="183.5" y="-128" font-family="Fira Mono Medium" font-size="10.00">not&#45;equal</text>
</g>
<!-- node_7&#45;&gt;node_8 -->
<g id="edge17" class="edge">
<title>node_7&#45;&gt;node_8</title>
<path fill="none" stroke="black" d="M366.15,-149.84C391.7,-146.01 420.96,-141.62 447.35,-137.66"/>
<polygon fill="black" stroke="black" points="447.94,-141.11 457.31,-136.16 446.9,-134.18 447.94,-141.11"/>
<text text-anchor="middle" x="411.5" y="-150" font-family="Fira Mono Medium" font-size="10.00">not&#45;equal</text>
</g>
<!-- node_8&#45;&gt;node_0 -->
<g id="edge21" class="edge">
<title>node_8&#45;&gt;node_0</title>
<path fill="none" stroke="black" d="M594.72,-145.78C605.52,-150.1 616.32,-155.16 626,-161 646.7,-173.48 666.66,-192.07 681.2,-207.23"/>
<polygon fill="black" stroke="black" points="678.9,-209.89 688.29,-214.8 684.01,-205.11 678.9,-209.89"/>
<text text-anchor="middle" x="619.5" y="-164" font-family="Fira Mono Medium" font-size="10.00">at</text>
</g>
<!-- node_8&#45;&gt;node_6 -->
<g id="edge19" class="edge">
<title>node_8&#45;&gt;node_6</title>
<path fill="none" stroke="black" d="M457.25,-104.51C429.31,-96.7 396.4,-88.86 366,-85 292.36,-75.66 207.62,-79.4 147.73,-84.44"/>
<polygon fill="black" stroke="black" points="147.25,-80.97 137.59,-85.32 147.86,-87.94 147.25,-80.97"/>
<text text-anchor="middle" x="297.5" y="-88" font-family="Fira Mono Medium" font-size="10.00">not&#45;equal</text>
</g>
<!-- node_8&#45;&gt;node_7 -->
<g id="edge20" class="edge">
<title>node_8&#45;&gt;node_7</title>
<path fill="none" stroke="black" d="M457.43,-120.04C433.99,-119.42 407.66,-120.34 384,-125 373.62,-127.04 362.92,-130.35 352.75,-134.14"/>
<polygon fill="black" stroke="black" points="351.21,-130.99 343.19,-137.9 353.77,-137.5 351.21,-130.99"/>
<text text-anchor="middle" x="411.5" y="-128" font-family="Fira Mono Medium" font-size="10.00">not&#45;equal</text>
</g>
</g>
</svg>
