<?xml version="1.0" encoding="UTF-8" standalone="no"?>
<!DOCTYPE svg PUBLIC "-//W3C//DTD SVG 1.1//EN"
 "http://www.w3.org/Graphics/SVG/1.1/DTD/svg11.dtd">
<!-- Generated by graphviz version 2.43.0 (0)
 -->
<!-- Title: %3 Pages: 1 -->
<svg width="1052pt" height="364pt"
 viewBox="0.00 0.00 1052.00 364.35" xmlns="http://www.w3.org/2000/svg" xmlns:xlink="http://www.w3.org/1999/xlink">
<g id="graph0" class="graph" transform="scale(1 1) rotate(0) translate(4 360.35)">
<title>%3</title>
<polygon fill="white" stroke="transparent" points="-4,4 -4,-360.35 1048,-360.35 1048,4 -4,4"/>
<!-- node_0 -->
<g id="node1" class="node">
<title>node_0</title>
<polygon fill="none" stroke="black" points="815.5,-259.35 693.5,-259.35 693.5,-223.35 815.5,-223.35 815.5,-259.35"/>
<text text-anchor="start" x="739" y="-244.75" font-family="Fira Mono Medium" font-weight="bold" font-size="12.00">bank</text>
<text text-anchor="start" x="701.5" y="-232.75" font-family="Fira Mono Medium" font-style="italic" font-size="12.00">location:</text>
<text text-anchor="start" x="769.5" y="-232.75" font-family="Fira Mono Medium" font-size="12.00"> left</text>
</g>
<!-- node_1 -->
<g id="node2" class="node">
<title>node_1</title>
<polygon fill="none" stroke="black" points="1044,-192.35 914,-192.35 914,-156.35 1044,-156.35 1044,-192.35"/>
<text text-anchor="start" x="963.5" y="-177.75" font-family="Fira Mono Medium" font-weight="bold" font-size="12.00">bank</text>
<text text-anchor="start" x="922" y="-165.75" font-family="Fira Mono Medium" font-style="italic" font-size="12.00">location:</text>
<text text-anchor="start" x="990" y="-165.75" font-family="Fira Mono Medium" font-size="12.00"> right</text>
</g>
<!-- node_0&#45;&gt;node_1 -->
<g id="edge1" class="edge">
<title>node_0&#45;&gt;node_1</title>
<path fill="none" stroke="black" d="M815.73,-236.56C841.01,-233.36 870.41,-228.08 896,-219.35 911.76,-213.98 928.05,-205.69 941.92,-197.68"/>
<polygon fill="black" stroke="black" points="943.84,-200.61 950.65,-192.5 940.27,-194.59 943.84,-200.61"/>
<text text-anchor="middle" x="868.5" y="-235.35" font-family="Fira Mono Medium" font-size="10.00">not&#45;equal</text>
</g>
<!-- node_1&#45;&gt;node_0 -->
<g id="edge2" class="edge">
<title>node_1&#45;&gt;node_0</title>
<path fill="none" stroke="black" d="M913.99,-187.09C890.78,-192.29 864.5,-198.85 841,-206.35 829.3,-210.09 816.95,-214.72 805.39,-219.37"/>
<polygon fill="black" stroke="black" points="803.81,-216.24 795.89,-223.27 806.47,-222.71 803.81,-216.24"/>
<text text-anchor="middle" x="868.5" y="-209.35" font-family="Fira Mono Medium" font-size="10.00">not&#45;equal</text>
</g>
<!-- node_2 -->
<g id="node3" class="node">
<title>node_2</title>
<polygon fill="none" stroke="black" points="781.5,-313.35 727.5,-313.35 727.5,-277.35 781.5,-277.35 781.5,-313.35"/>
<text text-anchor="start" x="739" y="-293.25" font-family="Fira Mono Medium" font-weight="bold" font-size="12.00">boat</text>
</g>
<!-- node_2&#45;&gt;node_1 -->
<g id="edge3" class="edge">
<title>node_2&#45;&gt;node_1</title>
<path fill="none" stroke="black" d="M781.68,-289.72C810.94,-282.7 859.04,-268.92 896,-247.35 917.93,-234.55 939.24,-215.31 954.63,-199.79"/>
<polygon fill="black" stroke="black" points="957.24,-202.13 961.7,-192.52 952.22,-197.26 957.24,-202.13"/>
<text text-anchor="middle" x="868.5" y="-273.35" font-family="Fira Mono Medium" font-size="10.00">at</text>
</g>
<!-- node_3 -->
<g id="node4" class="node">
<title>node_3</title>
<polygon fill="none" stroke="black" points="362.5,-356.35 232.5,-356.35 232.5,-312.35 362.5,-312.35 362.5,-356.35"/>
<text text-anchor="start" x="278.5" y="-343.75" font-family="Fira Mono Medium" font-weight="bold" font-size="12.00">human</text>
<text text-anchor="start" x="244.5" y="-331.75" font-family="Fira Mono Medium" font-style="italic" font-size="12.00">kind:</text>
<text text-anchor="start" x="282.5" y="-331.75" font-family="Fira Mono Medium" font-size="12.00"> cannibal</text>
<text text-anchor="start" x="240.5" y="-319.75" font-family="Fira Mono Medium" font-style="italic" font-size="12.00">can&#45;drive:</text>
<text text-anchor="start" x="316.5" y="-319.75" font-family="Fira Mono Medium" font-size="12.00"> true</text>
</g>
<!-- node_3&#45;&gt;node_0 -->
<g id="edge6" class="edge">
<title>node_3&#45;&gt;node_0</title>
<path fill="none" stroke="black" d="M362.7,-341.05C386.72,-342.39 414.19,-342.56 439,-339.35 544.17,-325.76 568.2,-308.21 668,-272.35 676.51,-269.29 685.49,-266.05 694.31,-262.86"/>
<polygon fill="black" stroke="black" points="695.57,-266.13 703.79,-259.43 693.19,-259.54 695.57,-266.13"/>
<text text-anchor="middle" x="526" y="-339.35" font-family="Fira Mono Medium" font-size="10.00">at</text>
</g>
<!-- node_4 -->
<g id="node5" class="node">
<title>node_4</title>
<polygon fill="none" stroke="black" points="595,-289.35 457,-289.35 457,-245.35 595,-245.35 595,-289.35"/>
<text text-anchor="start" x="507" y="-276.75" font-family="Fira Mono Medium" font-weight="bold" font-size="12.00">human</text>
<text text-anchor="start" x="473" y="-264.75" font-family="Fira Mono Medium" font-style="italic" font-size="12.00">kind:</text>
<text text-anchor="start" x="511" y="-264.75" font-family="Fira Mono Medium" font-size="12.00"> cannibal</text>
<text text-anchor="start" x="465" y="-252.75" font-family="Fira Mono Medium" font-style="italic" font-size="12.00">can&#45;drive:</text>
<text text-anchor="start" x="541" y="-252.75" font-family="Fira Mono Medium" font-size="12.00"> false</text>
</g>
<!-- node_3&#45;&gt;node_4 -->
<g id="edge4" class="edge">
<title>node_3&#45;&gt;node_4</title>
<path fill="none" stroke="black" d="M362.84,-328.76C387.12,-325.49 414.73,-320.36 439,-312.35 452.91,-307.76 467.28,-301.1 480.21,-294.31"/>
<polygon fill="black" stroke="black" points="482.21,-297.21 489.33,-289.36 478.87,-291.05 482.21,-297.21"/>
<text text-anchor="middle" x="411.5" y="-327.35" font-family="Fira Mono Medium" font-size="10.00">not&#45;equal</text>
</g>
<!-- node_5 -->
<g id="node6" class="node">
<title>node_5</title>
<polygon fill="none" stroke="black" points="138,-289.35 0,-289.35 0,-245.35 138,-245.35 138,-289.35"/>
<text text-anchor="start" x="50" y="-276.75" font-family="Fira Mono Medium" font-weight="bold" font-size="12.00">human</text>
<text text-anchor="start" x="16" y="-264.75" font-family="Fira Mono Medium" font-style="italic" font-size="12.00">kind:</text>
<text text-anchor="start" x="54" y="-264.75" font-family="Fira Mono Medium" font-size="12.00"> cannibal</text>
<text text-anchor="start" x="8" y="-252.75" font-family="Fira Mono Medium" font-style="italic" font-size="12.00">can&#45;drive:</text>
<text text-anchor="start" x="84" y="-252.75" font-family="Fira Mono Medium" font-size="12.00"> false</text>
</g>
<!-- node_3&#45;&gt;node_5 -->
<g id="edge5" class="edge">
<title>node_3&#45;&gt;node_5</title>
<path fill="none" stroke="black" d="M242.6,-312.31C232.2,-308.41 221.33,-304.57 211,-301.35 190.86,-295.07 168.8,-289.25 148.23,-284.28"/>
<polygon fill="black" stroke="black" points="148.81,-280.82 138.27,-281.9 147.19,-287.63 148.81,-280.82"/>
<text text-anchor="middle" x="183.5" y="-304.35" font-family="Fira Mono Medium" font-size="10.00">not&#45;equal</text>
</g>
<!-- node_4&#45;&gt;node_0 -->
<g id="edge9" class="edge">
<title>node_4&#45;&gt;node_0</title>
<path fill="none" stroke="black" d="M595.26,-259.52C623.11,-256.32 655.28,-252.63 683.32,-249.41"/>
<polygon fill="black" stroke="black" points="683.91,-252.86 693.44,-248.25 683.11,-245.91 683.91,-252.86"/>
<text text-anchor="middle" x="640.5" y="-260.35" font-family="Fira Mono Medium" font-size="10.00">at</text>
</g>
<!-- node_4&#45;&gt;node_3 -->
<g id="edge7" class="edge">
<title>node_4&#45;&gt;node_3</title>
<path fill="none" stroke="black" d="M456.98,-280.41C433.62,-285.52 407.46,-291.94 384,-299.35 375.55,-302.02 366.77,-305.16 358.2,-308.46"/>
<polygon fill="black" stroke="black" points="356.65,-305.3 348.63,-312.22 359.21,-311.82 356.65,-305.3"/>
<text text-anchor="middle" x="411.5" y="-302.35" font-family="Fira Mono Medium" font-size="10.00">not&#45;equal</text>
</g>
<!-- node_4&#45;&gt;node_5 -->
<g id="edge8" class="edge">
<title>node_4&#45;&gt;node_5</title>
<path fill="none" stroke="black" d="M457,-250.05C429.01,-243.76 396.15,-237.45 366,-234.35 305.43,-228.13 289.57,-228.13 229,-234.35 202.38,-237.08 173.65,-242.33 148.03,-247.84"/>
<polygon fill="black" stroke="black" points="147.02,-244.48 138,-250.05 148.52,-251.32 147.02,-244.48"/>
<text text-anchor="middle" x="297.5" y="-237.35" font-family="Fira Mono Medium" font-size="10.00">not&#45;equal</text>
</g>
<!-- node_5&#45;&gt;node_1 -->
<g id="edge12" class="edge">
<title>node_5&#45;&gt;node_1</title>
<path fill="none" stroke="black" d="M101.34,-245.31C143.58,-217.81 222.11,-174.35 296.5,-174.35 296.5,-174.35 296.5,-174.35 755.5,-174.35 804.85,-174.35 860.36,-174.35 903.59,-174.35"/>
<polygon fill="black" stroke="black" points="903.74,-177.85 913.74,-174.35 903.74,-170.85 903.74,-177.85"/>
<text text-anchor="middle" x="526" y="-177.35" font-family="Fira Mono Medium" font-size="10.00">at</text>
</g>
<!-- node_5&#45;&gt;node_3 -->
<g id="edge10" class="edge">
<title>node_5&#45;&gt;node_3</title>
<path fill="none" stroke="black" d="M105.67,-289.36C120.71,-297.75 138.72,-306.65 156,-312.35 176.95,-319.26 200.39,-324.03 222.03,-327.31"/>
<polygon fill="black" stroke="black" points="221.77,-330.81 232.16,-328.76 222.76,-323.88 221.77,-330.81"/>
<text text-anchor="middle" x="183.5" y="-327.35" font-family="Fira Mono Medium" font-size="10.00">not&#45;equal</text>
</g>
<!-- node_5&#45;&gt;node_4 -->
<g id="edge11" class="edge">
<title>node_5&#45;&gt;node_4</title>
<path fill="none" stroke="black" d="M138.12,-267.35C220.75,-267.35 359.75,-267.35 446.71,-267.35"/>
<polygon fill="black" stroke="black" points="446.79,-270.85 456.79,-267.35 446.79,-263.85 446.79,-270.85"/>
<text text-anchor="middle" x="297.5" y="-270.35" font-family="Fira Mono Medium" font-size="10.00">not&#45;equal</text>
</g>
<!-- node_6 -->
<g id="node7" class="node">
<title>node_6</title>
<polygon fill="none" stroke="black" points="366,-58.35 229,-58.35 229,-14.35 366,-14.35 366,-58.35"/>
<text text-anchor="start" x="278.5" y="-45.75" font-family="Fira Mono Medium" font-weight="bold" font-size="12.00">human</text>
<text text-anchor="start" x="237" y="-33.75" font-family="Fira Mono Medium" font-style="italic" font-size="12.00">kind:</text>
<text text-anchor="start" x="275" y="-33.75" font-family="Fira Mono Medium" font-size="12.00"> missionary</text>
<text text-anchor="start" x="240.5" y="-21.75" font-family="Fira Mono Medium" font-style="italic" font-size="12.00">can&#45;drive:</text>
<text text-anchor="start" x="316.5" y="-21.75" font-family="Fira Mono Medium" font-size="12.00"> true</text>
</g>
<!-- node_6&#45;&gt;node_1 -->
<g id="edge15" class="edge">
<title>node_6&#45;&gt;node_1</title>
<path fill="none" stroke="black" d="M343.17,-58.43C374.34,-72.89 417.29,-90.96 457,-101.35 647.46,-151.18 701.39,-130.67 896,-160.35 898.5,-160.73 901.04,-161.13 903.6,-161.53"/>
<polygon fill="black" stroke="black" points="903.15,-165 913.58,-163.13 904.26,-158.09 903.15,-165"/>
<text text-anchor="middle" x="640.5" y="-140.35" font-family="Fira Mono Medium" font-size="10.00">at</text>
</g>
<!-- node_7 -->
<g id="node8" class="node">
<title>node_7</title>
<polygon fill="none" stroke="black" points="594.5,-92.35 457.5,-92.35 457.5,-48.35 594.5,-48.35 594.5,-92.35"/>
<text text-anchor="start" x="507" y="-79.75" font-family="Fira Mono Medium" font-weight="bold" font-size="12.00">human</text>
<text text-anchor="start" x="465.5" y="-67.75" font-family="Fira Mono Medium" font-style="italic" font-size="12.00">kind:</text>
<text text-anchor="start" x="503.5" y="-67.75" font-family="Fira Mono Medium" font-size="12.00"> missionary</text>
<text text-anchor="start" x="469" y="-55.75" font-family="Fira Mono Medium" font-style="italic" font-size="12.00">can&#45;drive:</text>
<text text-anchor="start" x="545" y="-55.75" font-family="Fira Mono Medium" font-size="12.00"> true</text>
</g>
<!-- node_6&#45;&gt;node_7 -->
<g id="edge13" class="edge">
<title>node_6&#45;&gt;node_7</title>
<path fill="none" stroke="black" d="M366.15,-46.51C391.7,-50.34 420.96,-54.73 447.35,-58.69"/>
<polygon fill="black" stroke="black" points="446.9,-62.17 457.31,-60.19 447.94,-55.24 446.9,-62.17"/>
<text text-anchor="middle" x="411.5" y="-60.35" font-family="Fira Mono Medium" font-size="10.00">not&#45;equal</text>
</g>
<!-- node_8 -->
<g id="node9" class="node">
<title>node_8</title>
<polygon fill="none" stroke="black" points="823,-58.35 686,-58.35 686,-14.35 823,-14.35 823,-58.35"/>
<text text-anchor="start" x="735.5" y="-45.75" font-family="Fira Mono Medium" font-weight="bold" font-size="12.00">human</text>
<text text-anchor="start" x="694" y="-33.75" font-family="Fira Mono Medium" font-style="italic" font-size="12.00">kind:</text>
<text text-anchor="start" x="732" y="-33.75" font-family="Fira Mono Medium" font-size="12.00"> missionary</text>
<text text-anchor="start" x="697.5" y="-21.75" font-family="Fira Mono Medium" font-style="italic" font-size="12.00">can&#45;drive:</text>
<text text-anchor="start" x="773.5" y="-21.75" font-family="Fira Mono Medium" font-size="12.00"> true</text>
</g>
<!-- node_6&#45;&gt;node_8 -->
<g id="edge14" class="edge">
<title>node_6&#45;&gt;node_8</title>
<path fill="none" stroke="black" d="M366.1,-26.84C372.14,-26.24 378.18,-25.72 384,-25.35 509.96,-17.28 542.04,-17.28 668,-25.35 670.55,-25.51 673.14,-25.71 675.75,-25.92"/>
<polygon fill="black" stroke="black" points="675.63,-29.42 685.9,-26.84 676.26,-22.45 675.63,-29.42"/>
<text text-anchor="middle" x="526" y="-24.35" font-family="Fira Mono Medium" font-size="10.00">not&#45;equal</text>
</g>
<!-- node_7&#45;&gt;node_1 -->
<g id="edge18" class="edge">
<title>node_7&#45;&gt;node_1</title>
<path fill="none" stroke="black" d="M594.67,-76.07C685.68,-84.38 842.32,-101.04 896,-121.35 914.29,-128.27 932.75,-139.72 947.51,-150.2"/>
<polygon fill="black" stroke="black" points="945.6,-153.15 955.74,-156.23 949.74,-147.5 945.6,-153.15"/>
<text text-anchor="middle" x="754.5" y="-105.35" font-family="Fira Mono Medium" font-size="10.00">at</text>
</g>
<!-- node_7&#45;&gt;node_6 -->
<g id="edge16" class="edge">
<title>node_7&#45;&gt;node_6</title>
<path fill="none" stroke="black" d="M480.04,-48.25C467.1,-42.95 452.76,-38.04 439,-35.35 418.93,-31.42 396.94,-30.18 376.43,-30.27"/>
<polygon fill="black" stroke="black" points="376.13,-26.78 366.19,-30.43 376.24,-33.78 376.13,-26.78"/>
<text text-anchor="middle" x="411.5" y="-38.35" font-family="Fira Mono Medium" font-size="10.00">not&#45;equal</text>
</g>
<!-- node_7&#45;&gt;node_8 -->
<g id="edge17" class="edge">
<title>node_7&#45;&gt;node_8</title>
<path fill="none" stroke="black" d="M594.65,-60.2C620.2,-56.36 649.46,-51.97 675.85,-48.01"/>
<polygon fill="black" stroke="black" points="676.44,-51.46 685.81,-46.51 675.4,-44.54 676.44,-51.46"/>
<text text-anchor="middle" x="640.5" y="-60.35" font-family="Fira Mono Medium" font-size="10.00">not&#45;equal</text>
</g>
<!-- node_8&#45;&gt;node_1 -->
<g id="edge21" class="edge">
<title>node_8&#45;&gt;node_1</title>
<path fill="none" stroke="black" d="M823.09,-43.98C847.48,-49.03 874.33,-57.42 896,-71.35 925.53,-90.34 949.15,-123.62 963.31,-147.21"/>
<polygon fill="black" stroke="black" points="960.39,-149.15 968.45,-156.04 966.45,-145.63 960.39,-149.15"/>
<text text-anchor="middle" x="868.5" y="-74.35" font-family="Fira Mono Medium" font-size="10.00">at</text>
</g>
<!-- node_8&#45;&gt;node_6 -->
<g id="edge19" class="edge">
<title>node_8&#45;&gt;node_6</title>
<path fill="none" stroke="black" d="M685.85,-21.99C679.82,-20.75 673.8,-19.52 668,-18.35 635.61,-11.84 627.89,-7.48 595,-4.35 533.94,1.45 518.06,1.45 457,-4.35 424.11,-7.48 416.39,-11.84 384,-18.35 381.37,-18.88 378.7,-19.42 376,-19.97"/>
<polygon fill="black" stroke="black" points="375.24,-16.55 366.15,-21.99 376.65,-23.41 375.24,-16.55"/>
<text text-anchor="middle" x="526" y="-7.35" font-family="Fira Mono Medium" font-size="10.00">not&#45;equal</text>
</g>
<!-- node_8&#45;&gt;node_7 -->
<g id="edge20" class="edge">
<title>node_8&#45;&gt;node_7</title>
<path fill="none" stroke="black" d="M685.81,-30.43C662.55,-29.83 636.46,-30.76 613,-35.35 602.57,-37.39 591.81,-40.7 581.58,-44.5"/>
<polygon fill="black" stroke="black" points="580,-41.35 571.96,-48.25 582.55,-47.87 580,-41.35"/>
<text text-anchor="middle" x="640.5" y="-38.35" font-family="Fira Mono Medium" font-size="10.00">not&#45;equal</text>
</g>
</g>
</svg>
