<?xml version="1.0" encoding="UTF-8" standalone="no"?>
<!DOCTYPE svg PUBLIC "-//W3C//DTD SVG 1.1//EN"
 "http://www.w3.org/Graphics/SVG/1.1/DTD/svg11.dtd">
<!-- Generated by graphviz version 2.43.0 (0)
 -->
<!-- Title: %3 Pages: 1 -->
<svg width="824pt" height="333pt"
 viewBox="0.00 0.00 824.00 333.02" xmlns="http://www.w3.org/2000/svg" xmlns:xlink="http://www.w3.org/1999/xlink">
<g id="graph0" class="graph" transform="scale(1 1) rotate(0) translate(4 329.02)">
<title>%3</title>
<polygon fill="white" stroke="transparent" points="-4,4 -4,-329.02 820,-329.02 820,4 -4,4"/>
<!-- node_0 -->
<g id="node1" class="node">
<title>node_0</title>
<polygon fill="none" stroke="black" points="587,-99.02 465,-99.02 465,-63.02 587,-63.02 587,-99.02"/>
<text text-anchor="start" x="510.5" y="-84.42" font-family="Fira Mono Medium" font-weight="bold" font-size="12.00">bank</text>
<text text-anchor="start" x="473" y="-72.42" font-family="Fira Mono Medium" font-style="italic" font-size="12.00">location:</text>
<text text-anchor="start" x="541" y="-72.42" font-family="Fira Mono Medium" font-size="12.00"> left</text>
</g>
<!-- node_1 -->
<g id="node2" class="node">
<title>node_1</title>
<polygon fill="none" stroke="black" points="816,-190.02 686,-190.02 686,-154.02 816,-154.02 816,-190.02"/>
<text text-anchor="start" x="735.5" y="-175.42" font-family="Fira Mono Medium" font-weight="bold" font-size="12.00">bank</text>
<text text-anchor="start" x="694" y="-163.42" font-family="Fira Mono Medium" font-style="italic" font-size="12.00">location:</text>
<text text-anchor="start" x="762" y="-163.42" font-family="Fira Mono Medium" font-size="12.00"> right</text>
</g>
<!-- node_0&#45;&gt;node_1 -->
<g id="edge1" class="edge">
<title>node_0&#45;&gt;node_1</title>
<path fill="none" stroke="black" d="M571.32,-99.11C607.27,-113.78 658.07,-134.51 696.32,-150.12"/>
<polygon fill="black" stroke="black" points="695.18,-153.43 705.76,-153.97 697.82,-146.95 695.18,-153.43"/>
<text text-anchor="middle" x="640.5" y="-140.02" font-family="Fira Mono Medium" font-size="10.00">not&#45;equal</text>
</g>
<!-- node_1&#45;&gt;node_0 -->
<g id="edge2" class="edge">
<title>node_1&#45;&gt;node_0</title>
<path fill="none" stroke="black" d="M734.04,-153.86C718.77,-137.75 694.25,-114.97 668,-103.02 646.1,-93.06 620.52,-87.48 597.21,-84.41"/>
<polygon fill="black" stroke="black" points="597.37,-80.9 587.02,-83.2 596.54,-87.85 597.37,-80.9"/>
<text text-anchor="middle" x="640.5" y="-106.02" font-family="Fira Mono Medium" font-size="10.00">not&#45;equal</text>
</g>
<!-- node_2 -->
<g id="node3" class="node">
<title>node_2</title>
<polygon fill="none" stroke="black" points="553,-325.02 499,-325.02 499,-289.02 553,-289.02 553,-325.02"/>
<text text-anchor="start" x="510.5" y="-304.92" font-family="Fira Mono Medium" font-weight="bold" font-size="12.00">boat</text>
</g>
<!-- node_2&#45;&gt;node_1 -->
<g id="edge3" class="edge">
<title>node_2&#45;&gt;node_1</title>
<path fill="none" stroke="black" d="M553.14,-306.21C583.02,-304.18 632.39,-297.39 668,-275.02 697.9,-256.24 721.58,-222.62 735.65,-198.91"/>
<polygon fill="black" stroke="black" points="738.8,-200.46 740.74,-190.04 732.73,-196.97 738.8,-200.46"/>
<text text-anchor="middle" x="640.5" y="-299.02" font-family="Fira Mono Medium" font-size="10.00">at</text>
</g>
<!-- node_3 -->
<g id="node4" class="node">
<title>node_3</title>
<polygon fill="none" stroke="black" points="362.5,-137.02 232.5,-137.02 232.5,-93.02 362.5,-93.02 362.5,-137.02"/>
<text text-anchor="start" x="278.5" y="-124.42" font-family="Fira Mono Medium" font-weight="bold" font-size="12.00">human</text>
<text text-anchor="start" x="244.5" y="-112.42" font-family="Fira Mono Medium" font-style="italic" font-size="12.00">kind:</text>
<text text-anchor="start" x="282.5" y="-112.42" font-family="Fira Mono Medium" font-size="12.00"> cannibal</text>
<text text-anchor="start" x="240.5" y="-100.42" font-family="Fira Mono Medium" font-style="italic" font-size="12.00">can&#45;drive:</text>
<text text-anchor="start" x="316.5" y="-100.42" font-family="Fira Mono Medium" font-size="12.00"> true</text>
</g>
<!-- node_3&#45;&gt;node_0 -->
<g id="edge6" class="edge">
<title>node_3&#45;&gt;node_0</title>
<path fill="none" stroke="black" d="M346.89,-92.88C358.78,-88.41 371.65,-84.37 384,-82.02 406.73,-77.71 431.9,-76.44 454.61,-76.56"/>
<polygon fill="black" stroke="black" points="454.8,-80.06 464.85,-76.71 454.9,-73.07 454.8,-80.06"/>
<text text-anchor="middle" x="411.5" y="-85.02" font-family="Fira Mono Medium" font-size="10.00">at</text>
</g>
<!-- node_4 -->
<g id="node5" class="node">
<title>node_4</title>
<polygon fill="none" stroke="black" points="138,-197.02 0,-197.02 0,-153.02 138,-153.02 138,-197.02"/>
<text text-anchor="start" x="50" y="-184.42" font-family="Fira Mono Medium" font-weight="bold" font-size="12.00">human</text>
<text text-anchor="start" x="16" y="-172.42" font-family="Fira Mono Medium" font-style="italic" font-size="12.00">kind:</text>
<text text-anchor="start" x="54" y="-172.42" font-family="Fira Mono Medium" font-size="12.00"> cannibal</text>
<text text-anchor="start" x="8" y="-160.42" font-family="Fira Mono Medium" font-style="italic" font-size="12.00">can&#45;drive:</text>
<text text-anchor="start" x="84" y="-160.42" font-family="Fira Mono Medium" font-size="12.00"> false</text>
</g>
<!-- node_3&#45;&gt;node_4 -->
<g id="edge4" class="edge">
<title>node_3&#45;&gt;node_4</title>
<path fill="none" stroke="black" d="M232.32,-107.63C207.93,-106.84 180.2,-108.43 156,-116.02 136.32,-122.2 117.13,-134.56 101.89,-146.38"/>
<polygon fill="black" stroke="black" points="99.44,-143.85 93.85,-152.85 103.83,-149.31 99.44,-143.85"/>
<text text-anchor="middle" x="183.5" y="-119.02" font-family="Fira Mono Medium" font-size="10.00">not&#45;equal</text>
</g>
<!-- node_5 -->
<g id="node6" class="node">
<title>node_5</title>
<polygon fill="none" stroke="black" points="595,-194.02 457,-194.02 457,-150.02 595,-150.02 595,-194.02"/>
<text text-anchor="start" x="507" y="-181.42" font-family="Fira Mono Medium" font-weight="bold" font-size="12.00">human</text>
<text text-anchor="start" x="473" y="-169.42" font-family="Fira Mono Medium" font-style="italic" font-size="12.00">kind:</text>
<text text-anchor="start" x="511" y="-169.42" font-family="Fira Mono Medium" font-size="12.00"> cannibal</text>
<text text-anchor="start" x="465" y="-157.42" font-family="Fira Mono Medium" font-style="italic" font-size="12.00">can&#45;drive:</text>
<text text-anchor="start" x="541" y="-157.42" font-family="Fira Mono Medium" font-size="12.00"> false</text>
</g>
<!-- node_3&#45;&gt;node_5 -->
<g id="edge5" class="edge">
<title>node_3&#45;&gt;node_5</title>
<path fill="none" stroke="black" d="M362.58,-107.94C386.96,-107.18 414.71,-108.72 439,-116.02 457.68,-121.64 476.12,-132.7 491.1,-143.52"/>
<polygon fill="black" stroke="black" points="489.4,-146.62 499.5,-149.82 493.6,-141.02 489.4,-146.62"/>
<text text-anchor="middle" x="411.5" y="-119.02" font-family="Fira Mono Medium" font-size="10.00">not&#45;equal</text>
</g>
<!-- node_4&#45;&gt;node_1 -->
<g id="edge9" class="edge">
<title>node_4&#45;&gt;node_1</title>
<path fill="none" stroke="black" d="M127.77,-197.17C137.11,-200.17 146.75,-202.93 156,-205.02 187.83,-212.22 196.41,-211.24 229,-213.02 391.49,-221.9 433.45,-222.59 595,-203.02 621.58,-199.81 650.41,-194.54 675.91,-189.25"/>
<polygon fill="black" stroke="black" points="676.82,-192.64 685.88,-187.15 675.37,-185.79 676.82,-192.64"/>
<text text-anchor="middle" x="411.5" y="-221.02" font-family="Fira Mono Medium" font-size="10.00">at</text>
</g>
<!-- node_4&#45;&gt;node_3 -->
<g id="edge7" class="edge">
<title>node_4&#45;&gt;node_3</title>
<path fill="none" stroke="black" d="M138,-154.99C144.08,-153.28 150.15,-151.6 156,-150.02 177.57,-144.2 201.1,-138.21 222.63,-132.86"/>
<polygon fill="black" stroke="black" points="223.5,-136.25 232.37,-130.45 221.82,-129.45 223.5,-136.25"/>
<text text-anchor="middle" x="183.5" y="-153.02" font-family="Fira Mono Medium" font-size="10.00">not&#45;equal</text>
</g>
<!-- node_4&#45;&gt;node_5 -->
<g id="edge8" class="edge">
<title>node_4&#45;&gt;node_5</title>
<path fill="none" stroke="black" d="M138.42,-187.1C144.35,-187.86 150.27,-188.52 156,-189.02 281.3,-200.02 313.91,-202.13 439,-189.02 441.52,-188.76 444.07,-188.46 446.64,-188.13"/>
<polygon fill="black" stroke="black" points="447.23,-191.58 456.64,-186.7 446.24,-184.65 447.23,-191.58"/>
<text text-anchor="middle" x="297.5" y="-201.02" font-family="Fira Mono Medium" font-size="10.00">not&#45;equal</text>
</g>
<!-- node_5&#45;&gt;node_1 -->
<g id="edge12" class="edge">
<title>node_5&#45;&gt;node_1</title>
<path fill="none" stroke="black" d="M595.12,-172.02C620.56,-172.02 649.57,-172.02 675.56,-172.02"/>
<polygon fill="black" stroke="black" points="675.73,-175.52 685.73,-172.02 675.73,-168.52 675.73,-175.52"/>
<text text-anchor="middle" x="640.5" y="-175.02" font-family="Fira Mono Medium" font-size="10.00">at</text>
</g>
<!-- node_5&#45;&gt;node_3 -->
<g id="edge10" class="edge">
<title>node_5&#45;&gt;node_3</title>
<path fill="none" stroke="black" d="M456.94,-154.57C450.88,-153.03 444.83,-151.5 439,-150.02 417.34,-144.55 393.78,-138.66 372.25,-133.3"/>
<polygon fill="black" stroke="black" points="373.07,-129.9 362.52,-130.88 371.38,-136.69 373.07,-129.9"/>
<text text-anchor="middle" x="411.5" y="-153.02" font-family="Fira Mono Medium" font-size="10.00">not&#45;equal</text>
</g>
<!-- node_5&#45;&gt;node_4 -->
<g id="edge11" class="edge">
<title>node_5&#45;&gt;node_4</title>
<path fill="none" stroke="black" d="M456.79,-172.47C374.12,-173.02 235.11,-173.94 148.19,-174.51"/>
<polygon fill="black" stroke="black" points="148.09,-171.01 138.12,-174.57 148.14,-178.01 148.09,-171.01"/>
<text text-anchor="middle" x="297.5" y="-176.02" font-family="Fira Mono Medium" font-size="10.00">not&#45;equal</text>
</g>
<!-- node_6 -->
<g id="node7" class="node">
<title>node_6</title>
<polygon fill="none" stroke="black" points="137.5,-54.02 0.5,-54.02 0.5,-10.02 137.5,-10.02 137.5,-54.02"/>
<text text-anchor="start" x="50" y="-41.42" font-family="Fira Mono Medium" font-weight="bold" font-size="12.00">human</text>
<text text-anchor="start" x="8.5" y="-29.42" font-family="Fira Mono Medium" font-style="italic" font-size="12.00">kind:</text>
<text text-anchor="start" x="46.5" y="-29.42" font-family="Fira Mono Medium" font-size="12.00"> missionary</text>
<text text-anchor="start" x="12" y="-17.42" font-family="Fira Mono Medium" font-style="italic" font-size="12.00">can&#45;drive:</text>
<text text-anchor="start" x="88" y="-17.42" font-family="Fira Mono Medium" font-size="12.00"> true</text>
</g>
<!-- node_6&#45;&gt;node_0 -->
<g id="edge14" class="edge">
<title>node_6&#45;&gt;node_0</title>
<path fill="none" stroke="black" d="M137.65,-15.85C198.07,-3.94 288.7,7.71 366,-8.02 410.02,-16.98 456.25,-39.96 487.44,-57.76"/>
<polygon fill="black" stroke="black" points="485.81,-60.86 496.22,-62.86 489.33,-54.81 485.81,-60.86"/>
<text text-anchor="middle" x="297.5" y="-11.02" font-family="Fira Mono Medium" font-size="10.00">at</text>
</g>
<!-- node_7 -->
<g id="node8" class="node">
<title>node_7</title>
<polygon fill="none" stroke="black" points="366,-72.02 229,-72.02 229,-28.02 366,-28.02 366,-72.02"/>
<text text-anchor="start" x="278.5" y="-59.42" font-family="Fira Mono Medium" font-weight="bold" font-size="12.00">human</text>
<text text-anchor="start" x="237" y="-47.42" font-family="Fira Mono Medium" font-style="italic" font-size="12.00">kind:</text>
<text text-anchor="start" x="275" y="-47.42" font-family="Fira Mono Medium" font-size="12.00"> missionary</text>
<text text-anchor="start" x="240.5" y="-35.42" font-family="Fira Mono Medium" font-style="italic" font-size="12.00">can&#45;drive:</text>
<text text-anchor="start" x="316.5" y="-35.42" font-family="Fira Mono Medium" font-size="12.00"> true</text>
</g>
<!-- node_6&#45;&gt;node_7 -->
<g id="edge13" class="edge">
<title>node_6&#45;&gt;node_7</title>
<path fill="none" stroke="black" d="M137.53,-42.07C143.77,-42.81 149.99,-43.48 156,-44.02 176.28,-45.87 198.26,-47.15 218.68,-48.03"/>
<polygon fill="black" stroke="black" points="218.74,-51.54 228.88,-48.45 219.03,-44.55 218.74,-51.54"/>
<text text-anchor="middle" x="183.5" y="-50.02" font-family="Fira Mono Medium" font-size="10.00">not&#45;equal</text>
</g>
<!-- node_7&#45;&gt;node_0 -->
<g id="edge16" class="edge">
<title>node_7&#45;&gt;node_0</title>
<path fill="none" stroke="black" d="M366.13,-43.7C389.39,-42.94 415.49,-43.67 439,-48.02 451.78,-50.39 465.11,-54.58 477.36,-59.2"/>
<polygon fill="black" stroke="black" points="476.33,-62.56 486.92,-62.97 478.9,-56.04 476.33,-62.56"/>
<text text-anchor="middle" x="411.5" y="-51.02" font-family="Fira Mono Medium" font-size="10.00">at</text>
</g>
<!-- node_7&#45;&gt;node_6 -->
<g id="edge15" class="edge">
<title>node_7&#45;&gt;node_6</title>
<path fill="none" stroke="black" d="M228.59,-33.53C222.67,-32.52 216.74,-31.65 211,-31.02 190.6,-28.78 168.44,-28.12 147.86,-28.24"/>
<polygon fill="black" stroke="black" points="147.54,-24.74 137.58,-28.36 147.62,-31.74 147.54,-24.74"/>
<text text-anchor="middle" x="183.5" y="-34.02" font-family="Fira Mono Medium" font-size="10.00">not&#45;equal</text>
</g>
</g>
</svg>
