<?xml version="1.0" encoding="UTF-8" standalone="no"?>
<!DOCTYPE svg PUBLIC "-//W3C//DTD SVG 1.1//EN"
 "http://www.w3.org/Graphics/SVG/1.1/DTD/svg11.dtd">
<!-- Generated by graphviz version 2.43.0 (0)
 -->
<!-- Title: %3 Pages: 1 -->
<svg width="995pt" height="306pt"
 viewBox="0.00 0.00 995.00 306.00" xmlns="http://www.w3.org/2000/svg" xmlns:xlink="http://www.w3.org/1999/xlink">
<g id="graph0" class="graph" transform="scale(1 1) rotate(0) translate(4 302)">
<title>%3</title>
<polygon fill="white" stroke="transparent" points="-4,4 -4,-302 991,-302 991,4 -4,4"/>
<!-- node_0 -->
<g id="node1" class="node">
<title>node_0</title>
<polygon fill="none" stroke="black" points="766,-157 644,-157 644,-121 766,-121 766,-157"/>
<text text-anchor="start" x="689.5" y="-142.4" font-family="Fira Mono Medium" font-weight="bold" font-size="12.00">bank</text>
<text text-anchor="start" x="652" y="-130.4" font-family="Fira Mono Medium" font-style="italic" font-size="12.00">location:</text>
<text text-anchor="start" x="720" y="-130.4" font-family="Fira Mono Medium" font-size="12.00"> left</text>
</g>
<!-- node_1 -->
<g id="node2" class="node">
<title>node_1</title>
<polygon fill="none" stroke="black" points="987,-191 857,-191 857,-155 987,-155 987,-191"/>
<text text-anchor="start" x="906.5" y="-176.4" font-family="Fira Mono Medium" font-weight="bold" font-size="12.00">bank</text>
<text text-anchor="start" x="865" y="-164.4" font-family="Fira Mono Medium" font-style="italic" font-size="12.00">location:</text>
<text text-anchor="start" x="933" y="-164.4" font-family="Fira Mono Medium" font-size="12.00"> right</text>
</g>
<!-- node_0&#45;&gt;node_1 -->
<g id="edge1" class="edge">
<title>node_0&#45;&gt;node_1</title>
<path fill="none" stroke="black" d="M766.18,-148.51C791.18,-152.47 820.45,-157.1 846.77,-161.26"/>
<polygon fill="black" stroke="black" points="846.28,-164.72 856.7,-162.83 847.37,-157.81 846.28,-164.72"/>
<text text-anchor="middle" x="811.5" y="-162" font-family="Fira Mono Medium" font-size="10.00">not&#45;equal</text>
</g>
<!-- node_1&#45;&gt;node_0 -->
<g id="edge2" class="edge">
<title>node_1&#45;&gt;node_0</title>
<path fill="none" stroke="black" d="M887.29,-154.97C872.85,-148.22 855.53,-141.38 839,-138 818.87,-133.88 796.67,-132.75 776.27,-133.02"/>
<polygon fill="black" stroke="black" points="776.01,-129.52 766.1,-133.27 776.18,-136.52 776.01,-129.52"/>
<text text-anchor="middle" x="811.5" y="-141" font-family="Fira Mono Medium" font-size="10.00">not&#45;equal</text>
</g>
<!-- node_2 -->
<g id="node3" class="node">
<title>node_2</title>
<polygon fill="none" stroke="black" points="553,-75 499,-75 499,-39 553,-39 553,-75"/>
<text text-anchor="start" x="510.5" y="-54.9" font-family="Fira Mono Medium" font-weight="bold" font-size="12.00">boat</text>
</g>
<!-- node_2&#45;&gt;node_0 -->
<g id="edge3" class="edge">
<title>node_2&#45;&gt;node_0</title>
<path fill="none" stroke="black" d="M553.06,-66.72C565.81,-71.63 581.33,-77.85 595,-84 617.03,-93.9 641.04,-105.89 660.91,-116.14"/>
<polygon fill="black" stroke="black" points="659.53,-119.36 670.01,-120.86 662.75,-113.15 659.53,-119.36"/>
<text text-anchor="middle" x="619.5" y="-101" font-family="Fira Mono Medium" font-size="10.00">at</text>
</g>
<!-- node_3 -->
<g id="node4" class="node">
<title>node_3</title>
<polygon fill="none" stroke="black" points="362.5,-236 232.5,-236 232.5,-192 362.5,-192 362.5,-236"/>
<text text-anchor="start" x="278.5" y="-223.4" font-family="Fira Mono Medium" font-weight="bold" font-size="12.00">human</text>
<text text-anchor="start" x="244.5" y="-211.4" font-family="Fira Mono Medium" font-style="italic" font-size="12.00">kind:</text>
<text text-anchor="start" x="282.5" y="-211.4" font-family="Fira Mono Medium" font-size="12.00"> cannibal</text>
<text text-anchor="start" x="240.5" y="-199.4" font-family="Fira Mono Medium" font-style="italic" font-size="12.00">can&#45;drive:</text>
<text text-anchor="start" x="316.5" y="-199.4" font-family="Fira Mono Medium" font-size="12.00"> true</text>
</g>
<!-- node_3&#45;&gt;node_0 -->
<g id="edge6" class="edge">
<title>node_3&#45;&gt;node_0</title>
<path fill="none" stroke="black" d="M362.63,-222.87C423.84,-229 517.89,-232.24 595,-208 624.48,-198.73 653.85,-179.4 674.66,-163.56"/>
<polygon fill="black" stroke="black" points="677.02,-166.15 682.75,-157.24 672.72,-160.63 677.02,-166.15"/>
<text text-anchor="middle" x="526" y="-230" font-family="Fira Mono Medium" font-size="10.00">at</text>
</g>
<!-- node_4 -->
<g id="node5" class="node">
<title>node_4</title>
<polygon fill="none" stroke="black" points="138,-205 0,-205 0,-161 138,-161 138,-205"/>
<text text-anchor="start" x="50" y="-192.4" font-family="Fira Mono Medium" font-weight="bold" font-size="12.00">human</text>
<text text-anchor="start" x="16" y="-180.4" font-family="Fira Mono Medium" font-style="italic" font-size="12.00">kind:</text>
<text text-anchor="start" x="54" y="-180.4" font-family="Fira Mono Medium" font-size="12.00"> cannibal</text>
<text text-anchor="start" x="8" y="-168.4" font-family="Fira Mono Medium" font-style="italic" font-size="12.00">can&#45;drive:</text>
<text text-anchor="start" x="84" y="-168.4" font-family="Fira Mono Medium" font-size="12.00"> false</text>
</g>
<!-- node_3&#45;&gt;node_4 -->
<g id="edge4" class="edge">
<title>node_3&#45;&gt;node_4</title>
<path fill="none" stroke="black" d="M242.02,-191.89C231.87,-188.63 221.23,-185.78 211,-184 190.88,-180.5 168.91,-179.17 148.42,-178.97"/>
<polygon fill="black" stroke="black" points="148.18,-175.47 138.18,-178.97 148.18,-182.47 148.18,-175.47"/>
<text text-anchor="middle" x="183.5" y="-187" font-family="Fira Mono Medium" font-size="10.00">not&#45;equal</text>
</g>
<!-- node_5 -->
<g id="node6" class="node">
<title>node_5</title>
<polygon fill="none" stroke="black" points="595,-199 457,-199 457,-155 595,-155 595,-199"/>
<text text-anchor="start" x="507" y="-186.4" font-family="Fira Mono Medium" font-weight="bold" font-size="12.00">human</text>
<text text-anchor="start" x="473" y="-174.4" font-family="Fira Mono Medium" font-style="italic" font-size="12.00">kind:</text>
<text text-anchor="start" x="511" y="-174.4" font-family="Fira Mono Medium" font-size="12.00"> cannibal</text>
<text text-anchor="start" x="465" y="-162.4" font-family="Fira Mono Medium" font-style="italic" font-size="12.00">can&#45;drive:</text>
<text text-anchor="start" x="541" y="-162.4" font-family="Fira Mono Medium" font-size="12.00"> false</text>
</g>
<!-- node_3&#45;&gt;node_5 -->
<g id="edge5" class="edge">
<title>node_3&#45;&gt;node_5</title>
<path fill="none" stroke="black" d="M362.54,-204.21C386.53,-200.48 414.03,-196.13 439,-192 441.64,-191.56 444.33,-191.11 447.04,-190.65"/>
<polygon fill="black" stroke="black" points="447.67,-194.1 456.95,-188.98 446.51,-187.2 447.67,-194.1"/>
<text text-anchor="middle" x="411.5" y="-203" font-family="Fira Mono Medium" font-size="10.00">not&#45;equal</text>
</g>
<!-- node_4&#45;&gt;node_1 -->
<g id="edge9" class="edge">
<title>node_4&#45;&gt;node_1</title>
<path fill="none" stroke="black" d="M97.44,-205.05C138.28,-235.58 218.61,-287 296.5,-287 296.5,-287 296.5,-287 706,-287 781.53,-287 856.43,-231.4 894.73,-197.85"/>
<polygon fill="black" stroke="black" points="897.21,-200.33 902.34,-191.06 892.55,-195.11 897.21,-200.33"/>
<text text-anchor="middle" x="526" y="-290" font-family="Fira Mono Medium" font-size="10.00">at</text>
</g>
<!-- node_4&#45;&gt;node_3 -->
<g id="edge7" class="edge">
<title>node_4&#45;&gt;node_3</title>
<path fill="none" stroke="black" d="M138.06,-192.52C144.13,-193.36 150.18,-194.2 156,-195 177.58,-197.96 201.02,-201.15 222.47,-204.04"/>
<polygon fill="black" stroke="black" points="222.12,-207.53 232.49,-205.4 223.05,-200.59 222.12,-207.53"/>
<text text-anchor="middle" x="183.5" y="-205" font-family="Fira Mono Medium" font-size="10.00">not&#45;equal</text>
</g>
<!-- node_4&#45;&gt;node_5 -->
<g id="edge8" class="edge">
<title>node_4&#45;&gt;node_5</title>
<path fill="none" stroke="black" d="M105.87,-160.82C120.94,-152.19 138.92,-142.77 156,-136 187.17,-123.64 195.75,-121.25 229,-117 321.85,-105.11 353.56,-94.77 439,-133 448.01,-137.03 448.47,-141.04 457,-146 459.47,-147.43 462.02,-148.85 464.62,-150.25"/>
<polygon fill="black" stroke="black" points="463.09,-153.39 473.58,-154.88 466.3,-147.17 463.09,-153.39"/>
<text text-anchor="middle" x="297.5" y="-120" font-family="Fira Mono Medium" font-size="10.00">not&#45;equal</text>
</g>
<!-- node_5&#45;&gt;node_0 -->
<g id="edge12" class="edge">
<title>node_5&#45;&gt;node_0</title>
<path fill="none" stroke="black" d="M595.18,-162.36C607.86,-159.64 621.13,-156.79 633.86,-154.05"/>
<polygon fill="black" stroke="black" points="634.9,-157.41 643.94,-151.89 633.43,-150.57 634.9,-157.41"/>
<text text-anchor="middle" x="619.5" y="-161" font-family="Fira Mono Medium" font-size="10.00">at</text>
</g>
<!-- node_5&#45;&gt;node_3 -->
<g id="edge10" class="edge">
<title>node_5&#45;&gt;node_3</title>
<path fill="none" stroke="black" d="M456.67,-172.86C433.41,-172.79 407.39,-174.22 384,-179 373.76,-181.09 363.19,-184.38 353.12,-188.13"/>
<polygon fill="black" stroke="black" points="351.69,-184.93 343.66,-191.84 354.24,-191.45 351.69,-184.93"/>
<text text-anchor="middle" x="411.5" y="-182" font-family="Fira Mono Medium" font-size="10.00">not&#45;equal</text>
</g>
<!-- node_5&#45;&gt;node_4 -->
<g id="edge11" class="edge">
<title>node_5&#45;&gt;node_4</title>
<path fill="none" stroke="black" d="M456.97,-170.08C450.9,-169.64 444.84,-169.27 439,-169 313.33,-163.16 281.52,-166.58 156,-175 153.45,-175.17 150.85,-175.35 148.23,-175.54"/>
<polygon fill="black" stroke="black" points="147.74,-172.07 138.04,-176.34 148.28,-179.05 147.74,-172.07"/>
<text text-anchor="middle" x="297.5" y="-172" font-family="Fira Mono Medium" font-size="10.00">not&#45;equal</text>
</g>
<!-- node_6 -->
<g id="node7" class="node">
<title>node_6</title>
<polygon fill="none" stroke="black" points="366,-65 229,-65 229,-21 366,-21 366,-65"/>
<text text-anchor="start" x="278.5" y="-52.4" font-family="Fira Mono Medium" font-weight="bold" font-size="12.00">human</text>
<text text-anchor="start" x="237" y="-40.4" font-family="Fira Mono Medium" font-style="italic" font-size="12.00">kind:</text>
<text text-anchor="start" x="275" y="-40.4" font-family="Fira Mono Medium" font-size="12.00"> missionary</text>
<text text-anchor="start" x="240.5" y="-28.4" font-family="Fira Mono Medium" font-style="italic" font-size="12.00">can&#45;drive:</text>
<text text-anchor="start" x="316.5" y="-28.4" font-family="Fira Mono Medium" font-size="12.00"> true</text>
</g>
<!-- node_6&#45;&gt;node_0 -->
<g id="edge14" class="edge">
<title>node_6&#45;&gt;node_0</title>
<path fill="none" stroke="black" d="M361.61,-20.96C423.72,-3.07 519.91,14.24 595,-19 637.73,-37.91 670.88,-82.77 688.91,-111.96"/>
<polygon fill="black" stroke="black" points="686.08,-114.05 694.22,-120.83 692.09,-110.45 686.08,-114.05"/>
<text text-anchor="middle" x="526" y="-22" font-family="Fira Mono Medium" font-size="10.00">at</text>
</g>
<!-- node_7 -->
<g id="node8" class="node">
<title>node_7</title>
<polygon fill="none" stroke="black" points="594.5,-137 457.5,-137 457.5,-93 594.5,-93 594.5,-137"/>
<text text-anchor="start" x="507" y="-124.4" font-family="Fira Mono Medium" font-weight="bold" font-size="12.00">human</text>
<text text-anchor="start" x="465.5" y="-112.4" font-family="Fira Mono Medium" font-style="italic" font-size="12.00">kind:</text>
<text text-anchor="start" x="503.5" y="-112.4" font-family="Fira Mono Medium" font-size="12.00"> missionary</text>
<text text-anchor="start" x="469" y="-100.4" font-family="Fira Mono Medium" font-style="italic" font-size="12.00">can&#45;drive:</text>
<text text-anchor="start" x="545" y="-100.4" font-family="Fira Mono Medium" font-size="12.00"> true</text>
</g>
<!-- node_6&#45;&gt;node_7 -->
<g id="edge13" class="edge">
<title>node_6&#45;&gt;node_7</title>
<path fill="none" stroke="black" d="M366.15,-28.96C390.83,-27.41 417.85,-30.21 439,-44 455.33,-54.64 443.25,-70.18 457,-84 457.8,-84.8 458.63,-85.59 459.47,-86.35"/>
<polygon fill="black" stroke="black" points="457.6,-89.34 467.63,-92.77 461.93,-83.84 457.6,-89.34"/>
<text text-anchor="middle" x="411.5" y="-47" font-family="Fira Mono Medium" font-size="10.00">not&#45;equal</text>
</g>
<!-- node_7&#45;&gt;node_0 -->
<g id="edge16" class="edge">
<title>node_7&#45;&gt;node_0</title>
<path fill="none" stroke="black" d="M594.67,-124.17C607.46,-125.91 620.85,-127.72 633.72,-129.47"/>
<polygon fill="black" stroke="black" points="633.51,-132.97 643.89,-130.85 634.45,-126.03 633.51,-132.97"/>
<text text-anchor="middle" x="619.5" y="-130" font-family="Fira Mono Medium" font-size="10.00">at</text>
</g>
<!-- node_7&#45;&gt;node_6 -->
<g id="edge15" class="edge">
<title>node_7&#45;&gt;node_6</title>
<path fill="none" stroke="black" d="M477.32,-92.85C464.99,-87.58 451.63,-82.25 439,-78 418.94,-71.23 396.87,-65.13 376.29,-59.99"/>
<polygon fill="black" stroke="black" points="376.86,-56.52 366.32,-57.54 375.2,-63.32 376.86,-56.52"/>
<text text-anchor="middle" x="411.5" y="-81" font-family="Fira Mono Medium" font-size="10.00">not&#45;equal</text>
</g>
</g>
</svg>
