<?xml version="1.0" encoding="UTF-8" standalone="no"?>
<!DOCTYPE svg PUBLIC "-//W3C//DTD SVG 1.1//EN"
 "http://www.w3.org/Graphics/SVG/1.1/DTD/svg11.dtd">
<!-- Generated by graphviz version 2.43.0 (0)
 -->
<!-- Title: %3 Pages: 1 -->
<svg width="817pt" height="260pt"
 viewBox="0.00 0.00 817.00 260.00" xmlns="http://www.w3.org/2000/svg" xmlns:xlink="http://www.w3.org/1999/xlink">
<g id="graph0" class="graph" transform="scale(1 1) rotate(0) translate(4 256)">
<title>%3</title>
<polygon fill="white" stroke="transparent" points="-4,4 -4,-256 813,-256 813,4 -4,4"/>
<!-- node_0 -->
<g id="node1" class="node">
<title>node_0</title>
<polygon fill="none" stroke="black" points="580,-160 458,-160 458,-124 580,-124 580,-160"/>
<text text-anchor="start" x="503.5" y="-145.4" font-family="Fira Mono Medium" font-weight="bold" font-size="12.00">bank</text>
<text text-anchor="start" x="466" y="-133.4" font-family="Fira Mono Medium" font-style="italic" font-size="12.00">location:</text>
<text text-anchor="start" x="534" y="-133.4" font-family="Fira Mono Medium" font-size="12.00"> left</text>
</g>
<!-- node_1 -->
<g id="node2" class="node">
<title>node_1</title>
<polygon fill="none" stroke="black" points="809,-160 679,-160 679,-124 809,-124 809,-160"/>
<text text-anchor="start" x="728.5" y="-145.4" font-family="Fira Mono Medium" font-weight="bold" font-size="12.00">bank</text>
<text text-anchor="start" x="687" y="-133.4" font-family="Fira Mono Medium" font-style="italic" font-size="12.00">location:</text>
<text text-anchor="start" x="755" y="-133.4" font-family="Fira Mono Medium" font-size="12.00"> right</text>
</g>
<!-- node_0&#45;&gt;node_1 -->
<g id="edge1" class="edge">
<title>node_0&#45;&gt;node_1</title>
<path fill="none" stroke="black" d="M580.05,-142C607.4,-142 640.04,-142 668.9,-142"/>
<polygon fill="black" stroke="black" points="668.93,-145.5 678.93,-142 668.93,-138.5 668.93,-145.5"/>
<text text-anchor="middle" x="633.5" y="-145" font-family="Fira Mono Medium" font-size="10.00">not&#45;equal</text>
</g>
<!-- node_1&#45;&gt;node_0 -->
<g id="edge2" class="edge">
<title>node_1&#45;&gt;node_0</title>
<path fill="none" stroke="black" d="M678.69,-129.1C672.73,-128.25 666.77,-127.52 661,-127 636.66,-124.79 630.35,-124.89 606,-127 600.94,-127.44 595.73,-128.02 590.5,-128.7"/>
<polygon fill="black" stroke="black" points="589.85,-125.25 580.44,-130.11 590.83,-132.18 589.85,-125.25"/>
<text text-anchor="middle" x="633.5" y="-130" font-family="Fira Mono Medium" font-size="10.00">not&#45;equal</text>
</g>
<!-- node_2 -->
<g id="node3" class="node">
<title>node_2</title>
<polygon fill="none" stroke="black" points="546,-252 492,-252 492,-216 546,-216 546,-252"/>
<text text-anchor="start" x="503.5" y="-231.9" font-family="Fira Mono Medium" font-weight="bold" font-size="12.00">boat</text>
</g>
<!-- node_2&#45;&gt;node_1 -->
<g id="edge3" class="edge">
<title>node_2&#45;&gt;node_1</title>
<path fill="none" stroke="black" d="M546.23,-231.29C575.34,-227.55 623.19,-219.22 661,-202 680.64,-193.05 700.24,-178.95 715.34,-166.67"/>
<polygon fill="black" stroke="black" points="717.81,-169.17 723.25,-160.08 713.33,-163.8 717.81,-169.17"/>
<text text-anchor="middle" x="633.5" y="-222" font-family="Fira Mono Medium" font-size="10.00">at</text>
</g>
<!-- node_3 -->
<g id="node4" class="node">
<title>node_3</title>
<polygon fill="none" stroke="black" points="130,-107 0,-107 0,-63 130,-63 130,-107"/>
<text text-anchor="start" x="46" y="-94.4" font-family="Fira Mono Medium" font-weight="bold" font-size="12.00">human</text>
<text text-anchor="start" x="12" y="-82.4" font-family="Fira Mono Medium" font-style="italic" font-size="12.00">kind:</text>
<text text-anchor="start" x="50" y="-82.4" font-family="Fira Mono Medium" font-size="12.00"> cannibal</text>
<text text-anchor="start" x="8" y="-70.4" font-family="Fira Mono Medium" font-style="italic" font-size="12.00">can&#45;drive:</text>
<text text-anchor="start" x="84" y="-70.4" font-family="Fira Mono Medium" font-size="12.00"> true</text>
</g>
<!-- node_3&#45;&gt;node_1 -->
<g id="edge6" class="edge">
<title>node_3&#45;&gt;node_1</title>
<path fill="none" stroke="black" d="M108.17,-107.05C138.65,-121.89 181.28,-140.43 221,-150 379.79,-188.24 425.21,-182.29 588,-169 614.56,-166.83 643.38,-162.4 668.89,-157.73"/>
<polygon fill="black" stroke="black" points="669.67,-161.15 678.86,-155.87 668.39,-154.27 669.67,-161.15"/>
<text text-anchor="middle" x="404.5" y="-182" font-family="Fira Mono Medium" font-size="10.00">at</text>
</g>
<!-- node_4 -->
<g id="node5" class="node">
<title>node_4</title>
<polygon fill="none" stroke="black" points="359,-141 221,-141 221,-97 359,-97 359,-141"/>
<text text-anchor="start" x="271" y="-128.4" font-family="Fira Mono Medium" font-weight="bold" font-size="12.00">human</text>
<text text-anchor="start" x="237" y="-116.4" font-family="Fira Mono Medium" font-style="italic" font-size="12.00">kind:</text>
<text text-anchor="start" x="275" y="-116.4" font-family="Fira Mono Medium" font-size="12.00"> cannibal</text>
<text text-anchor="start" x="229" y="-104.4" font-family="Fira Mono Medium" font-style="italic" font-size="12.00">can&#45;drive:</text>
<text text-anchor="start" x="305" y="-104.4" font-family="Fira Mono Medium" font-size="12.00"> false</text>
</g>
<!-- node_3&#45;&gt;node_4 -->
<g id="edge4" class="edge">
<title>node_3&#45;&gt;node_4</title>
<path fill="none" stroke="black" d="M130.2,-94.79C155.42,-98.63 184.59,-103.08 211,-107.11"/>
<polygon fill="black" stroke="black" points="210.56,-110.58 220.98,-108.63 211.62,-103.66 210.56,-110.58"/>
<text text-anchor="middle" x="175.5" y="-108" font-family="Fira Mono Medium" font-size="10.00">not&#45;equal</text>
</g>
<!-- node_5 -->
<g id="node6" class="node">
<title>node_5</title>
<polygon fill="none" stroke="black" points="588,-106 450,-106 450,-62 588,-62 588,-106"/>
<text text-anchor="start" x="500" y="-93.4" font-family="Fira Mono Medium" font-weight="bold" font-size="12.00">human</text>
<text text-anchor="start" x="466" y="-81.4" font-family="Fira Mono Medium" font-style="italic" font-size="12.00">kind:</text>
<text text-anchor="start" x="504" y="-81.4" font-family="Fira Mono Medium" font-size="12.00"> cannibal</text>
<text text-anchor="start" x="458" y="-69.4" font-family="Fira Mono Medium" font-style="italic" font-size="12.00">can&#45;drive:</text>
<text text-anchor="start" x="534" y="-69.4" font-family="Fira Mono Medium" font-size="12.00"> false</text>
</g>
<!-- node_3&#45;&gt;node_5 -->
<g id="edge5" class="edge">
<title>node_3&#45;&gt;node_5</title>
<path fill="none" stroke="black" d="M130.39,-76.43C136.34,-75.85 142.27,-75.36 148,-75 273.97,-67.07 305.99,-66.7 432,-74 434.56,-74.15 437.16,-74.32 439.79,-74.52"/>
<polygon fill="black" stroke="black" points="439.74,-78.02 449.99,-75.36 440.32,-71.05 439.74,-78.02"/>
<text text-anchor="middle" x="290" y="-73" font-family="Fira Mono Medium" font-size="10.00">not&#45;equal</text>
</g>
<!-- node_4&#45;&gt;node_0 -->
<g id="edge9" class="edge">
<title>node_4&#45;&gt;node_0</title>
<path fill="none" stroke="black" d="M359.02,-128.88C365.1,-129.64 371.16,-130.36 377,-131 399.97,-133.5 425.1,-135.64 447.7,-137.36"/>
<polygon fill="black" stroke="black" points="447.66,-140.87 457.89,-138.12 448.18,-133.89 447.66,-140.87"/>
<text text-anchor="middle" x="404.5" y="-139" font-family="Fira Mono Medium" font-size="10.00">at</text>
</g>
<!-- node_4&#45;&gt;node_3 -->
<g id="edge7" class="edge">
<title>node_4&#45;&gt;node_3</title>
<path fill="none" stroke="black" d="M244.04,-96.9C231.1,-91.6 216.76,-86.69 203,-84 182.93,-80.07 160.89,-78.9 140.47,-79.07"/>
<polygon fill="black" stroke="black" points="140.2,-75.57 130.27,-79.26 140.33,-82.57 140.2,-75.57"/>
<text text-anchor="middle" x="175.5" y="-87" font-family="Fira Mono Medium" font-size="10.00">not&#45;equal</text>
</g>
<!-- node_4&#45;&gt;node_5 -->
<g id="edge8" class="edge">
<title>node_4&#45;&gt;node_5</title>
<path fill="none" stroke="black" d="M359.11,-108.5C384.58,-104.57 413.71,-100.08 440.01,-96.02"/>
<polygon fill="black" stroke="black" points="440.59,-99.48 449.94,-94.49 439.52,-92.56 440.59,-99.48"/>
<text text-anchor="middle" x="404.5" y="-108" font-family="Fira Mono Medium" font-size="10.00">not&#45;equal</text>
</g>
<!-- node_5&#45;&gt;node_1 -->
<g id="edge12" class="edge">
<title>node_5&#45;&gt;node_1</title>
<path fill="none" stroke="black" d="M588.02,-93.86C611.38,-97.95 637.54,-103.32 661,-110 671.14,-112.88 681.76,-116.54 691.88,-120.33"/>
<polygon fill="black" stroke="black" points="690.8,-123.67 701.39,-124 693.31,-117.14 690.8,-123.67"/>
<text text-anchor="middle" x="633.5" y="-113" font-family="Fira Mono Medium" font-size="10.00">at</text>
</g>
<!-- node_5&#45;&gt;node_3 -->
<g id="edge10" class="edge">
<title>node_5&#45;&gt;node_3</title>
<path fill="none" stroke="black" d="M449.94,-70.51C443.87,-69.32 437.83,-68.13 432,-67 399.57,-60.69 391.89,-56.13 359,-53 297.94,-47.2 282.06,-47.2 221,-53 188.11,-56.13 180.36,-60.35 148,-67 145.5,-67.51 142.96,-68.04 140.4,-68.58"/>
<polygon fill="black" stroke="black" points="139.48,-65.19 130.42,-70.69 140.93,-72.04 139.48,-65.19"/>
<text text-anchor="middle" x="290" y="-56" font-family="Fira Mono Medium" font-size="10.00">not&#45;equal</text>
</g>
<!-- node_5&#45;&gt;node_4 -->
<g id="edge11" class="edge">
<title>node_5&#45;&gt;node_4</title>
<path fill="none" stroke="black" d="M449.72,-78.73C426.46,-78.32 400.42,-79.42 377,-84 366.57,-86.04 355.81,-89.35 345.58,-93.14"/>
<polygon fill="black" stroke="black" points="344,-90 335.96,-96.9 346.55,-96.52 344,-90"/>
<text text-anchor="middle" x="404.5" y="-87" font-family="Fira Mono Medium" font-size="10.00">not&#45;equal</text>
</g>
<!-- node_6 -->
<g id="node7" class="node">
<title>node_6</title>
<polygon fill="none" stroke="black" points="587.5,-44 450.5,-44 450.5,0 587.5,0 587.5,-44"/>
<text text-anchor="start" x="500" y="-31.4" font-family="Fira Mono Medium" font-weight="bold" font-size="12.00">human</text>
<text text-anchor="start" x="458.5" y="-19.4" font-family="Fira Mono Medium" font-style="italic" font-size="12.00">kind:</text>
<text text-anchor="start" x="496.5" y="-19.4" font-family="Fira Mono Medium" font-size="12.00"> missionary</text>
<text text-anchor="start" x="462" y="-7.4" font-family="Fira Mono Medium" font-style="italic" font-size="12.00">can&#45;drive:</text>
<text text-anchor="start" x="538" y="-7.4" font-family="Fira Mono Medium" font-size="12.00"> true</text>
</g>
<!-- node_6&#45;&gt;node_1 -->
<g id="edge13" class="edge">
<title>node_6&#45;&gt;node_1</title>
<path fill="none" stroke="black" d="M580.1,-44.03C605.68,-54.3 635.45,-67.47 661,-82 679.24,-92.37 698.24,-106.06 713.35,-117.75"/>
<polygon fill="black" stroke="black" points="711.29,-120.58 721.31,-124 715.61,-115.07 711.29,-120.58"/>
<text text-anchor="middle" x="633.5" y="-85" font-family="Fira Mono Medium" font-size="10.00">at</text>
</g>
</g>
</svg>
