<?xml version="1.0" encoding="UTF-8" standalone="no"?>
<!DOCTYPE svg PUBLIC "-//W3C//DTD SVG 1.1//EN"
 "http://www.w3.org/Graphics/SVG/1.1/DTD/svg11.dtd">
<!-- Generated by graphviz version 2.43.0 (0)
 -->
<!-- Title: %3 Pages: 1 -->
<svg width="824pt" height="408pt"
 viewBox="0.00 0.00 824.00 408.45" xmlns="http://www.w3.org/2000/svg" xmlns:xlink="http://www.w3.org/1999/xlink">
<g id="graph0" class="graph" transform="scale(1 1) rotate(0) translate(4 404.45)">
<title>%3</title>
<polygon fill="white" stroke="transparent" points="-4,4 -4,-404.45 820,-404.45 820,4 -4,4"/>
<!-- node_0 -->
<g id="node1" class="node">
<title>node_0</title>
<polygon fill="none" stroke="black" points="587,-298.45 465,-298.45 465,-262.45 587,-262.45 587,-298.45"/>
<text text-anchor="start" x="510.5" y="-283.85" font-family="Fira Mono Medium" font-weight="bold" font-size="12.00">bank</text>
<text text-anchor="start" x="473" y="-271.85" font-family="Fira Mono Medium" font-style="italic" font-size="12.00">location:</text>
<text text-anchor="start" x="541" y="-271.85" font-family="Fira Mono Medium" font-size="12.00"> left</text>
</g>
<!-- node_1 -->
<g id="node2" class="node">
<title>node_1</title>
<polygon fill="none" stroke="black" points="816,-247.45 686,-247.45 686,-211.45 816,-211.45 816,-247.45"/>
<text text-anchor="start" x="735.5" y="-232.85" font-family="Fira Mono Medium" font-weight="bold" font-size="12.00">bank</text>
<text text-anchor="start" x="694" y="-220.85" font-family="Fira Mono Medium" font-style="italic" font-size="12.00">location:</text>
<text text-anchor="start" x="762" y="-220.85" font-family="Fira Mono Medium" font-size="12.00"> right</text>
</g>
<!-- node_0&#45;&gt;node_1 -->
<g id="edge1" class="edge">
<title>node_0&#45;&gt;node_1</title>
<path fill="none" stroke="black" d="M587.18,-273.56C612.37,-270.03 641.82,-265.06 668,-258.45 676.51,-256.3 685.38,-253.63 694.01,-250.79"/>
<polygon fill="black" stroke="black" points="695.28,-254.06 703.63,-247.53 693.03,-247.43 695.28,-254.06"/>
<text text-anchor="middle" x="640.5" y="-271.45" font-family="Fira Mono Medium" font-size="10.00">not&#45;equal</text>
</g>
<!-- node_1&#45;&gt;node_0 -->
<g id="edge2" class="edge">
<title>node_1&#45;&gt;node_0</title>
<path fill="none" stroke="black" d="M685.91,-233.33C662.69,-235.67 636.43,-239.43 613,-245.45 600.31,-248.71 587.01,-253.42 574.77,-258.35"/>
<polygon fill="black" stroke="black" points="573.1,-255.25 565.2,-262.31 575.78,-261.71 573.1,-255.25"/>
<text text-anchor="middle" x="640.5" y="-248.45" font-family="Fira Mono Medium" font-size="10.00">not&#45;equal</text>
</g>
<!-- node_2 -->
<g id="node3" class="node">
<title>node_2</title>
<polygon fill="none" stroke="black" points="553,-400.45 499,-400.45 499,-364.45 553,-364.45 553,-400.45"/>
<text text-anchor="start" x="510.5" y="-380.35" font-family="Fira Mono Medium" font-weight="bold" font-size="12.00">boat</text>
</g>
<!-- node_2&#45;&gt;node_1 -->
<g id="edge3" class="edge">
<title>node_2&#45;&gt;node_1</title>
<path fill="none" stroke="black" d="M553.18,-382.14C583.33,-380.58 633.18,-374.23 668,-350.45 701.93,-327.28 725.74,-285.01 738.66,-257.08"/>
<polygon fill="black" stroke="black" points="741.9,-258.41 742.78,-247.85 735.51,-255.56 741.9,-258.41"/>
<text text-anchor="middle" x="640.5" y="-375.45" font-family="Fira Mono Medium" font-size="10.00">at</text>
</g>
<!-- node_3 -->
<g id="node4" class="node">
<title>node_3</title>
<polygon fill="none" stroke="black" points="362.5,-293.45 232.5,-293.45 232.5,-249.45 362.5,-249.45 362.5,-293.45"/>
<text text-anchor="start" x="278.5" y="-280.85" font-family="Fira Mono Medium" font-weight="bold" font-size="12.00">human</text>
<text text-anchor="start" x="244.5" y="-268.85" font-family="Fira Mono Medium" font-style="italic" font-size="12.00">kind:</text>
<text text-anchor="start" x="282.5" y="-268.85" font-family="Fira Mono Medium" font-size="12.00"> cannibal</text>
<text text-anchor="start" x="240.5" y="-256.85" font-family="Fira Mono Medium" font-style="italic" font-size="12.00">can&#45;drive:</text>
<text text-anchor="start" x="316.5" y="-256.85" font-family="Fira Mono Medium" font-size="12.00"> true</text>
</g>
<!-- node_3&#45;&gt;node_0 -->
<g id="edge6" class="edge">
<title>node_3&#45;&gt;node_0</title>
<path fill="none" stroke="black" d="M362.87,-278.95C369.99,-279.57 377.14,-280.09 384,-280.45 407,-281.66 432.14,-281.98 454.74,-281.9"/>
<polygon fill="black" stroke="black" points="454.95,-285.4 464.93,-281.83 454.91,-278.4 454.95,-285.4"/>
<text text-anchor="middle" x="411.5" y="-284.45" font-family="Fira Mono Medium" font-size="10.00">at</text>
</g>
<!-- node_4 -->
<g id="node5" class="node">
<title>node_4</title>
<polygon fill="none" stroke="black" points="138,-275.45 0,-275.45 0,-231.45 138,-231.45 138,-275.45"/>
<text text-anchor="start" x="50" y="-262.85" font-family="Fira Mono Medium" font-weight="bold" font-size="12.00">human</text>
<text text-anchor="start" x="16" y="-250.85" font-family="Fira Mono Medium" font-style="italic" font-size="12.00">kind:</text>
<text text-anchor="start" x="54" y="-250.85" font-family="Fira Mono Medium" font-size="12.00"> cannibal</text>
<text text-anchor="start" x="8" y="-238.85" font-family="Fira Mono Medium" font-style="italic" font-size="12.00">can&#45;drive:</text>
<text text-anchor="start" x="84" y="-238.85" font-family="Fira Mono Medium" font-size="12.00"> false</text>
</g>
<!-- node_3&#45;&gt;node_4 -->
<g id="edge4" class="edge">
<title>node_3&#45;&gt;node_4</title>
<path fill="none" stroke="black" d="M232.42,-270.01C208.41,-269.13 180.92,-267.71 156,-265.45 153.5,-265.22 150.97,-264.97 148.41,-264.71"/>
<polygon fill="black" stroke="black" points="148.79,-261.23 138.47,-263.61 148.02,-268.19 148.79,-261.23"/>
<text text-anchor="middle" x="183.5" y="-271.45" font-family="Fira Mono Medium" font-size="10.00">not&#45;equal</text>
</g>
<!-- node_5 -->
<g id="node6" class="node">
<title>node_5</title>
<polygon fill="none" stroke="black" points="595,-234.45 457,-234.45 457,-190.45 595,-190.45 595,-234.45"/>
<text text-anchor="start" x="507" y="-221.85" font-family="Fira Mono Medium" font-weight="bold" font-size="12.00">human</text>
<text text-anchor="start" x="473" y="-209.85" font-family="Fira Mono Medium" font-style="italic" font-size="12.00">kind:</text>
<text text-anchor="start" x="511" y="-209.85" font-family="Fira Mono Medium" font-size="12.00"> cannibal</text>
<text text-anchor="start" x="465" y="-197.85" font-family="Fira Mono Medium" font-style="italic" font-size="12.00">can&#45;drive:</text>
<text text-anchor="start" x="541" y="-197.85" font-family="Fira Mono Medium" font-size="12.00"> false</text>
</g>
<!-- node_3&#45;&gt;node_5 -->
<g id="edge5" class="edge">
<title>node_3&#45;&gt;node_5</title>
<path fill="none" stroke="black" d="M345.26,-249.41C357.65,-244.23 371.15,-239.14 384,-235.45 404.07,-229.67 426.2,-225.21 446.86,-221.82"/>
<polygon fill="black" stroke="black" points="447.53,-225.25 456.86,-220.24 446.44,-218.34 447.53,-225.25"/>
<text text-anchor="middle" x="411.5" y="-238.45" font-family="Fira Mono Medium" font-size="10.00">not&#45;equal</text>
</g>
<!-- node_4&#45;&gt;node_1 -->
<g id="edge9" class="edge">
<title>node_4&#45;&gt;node_1</title>
<path fill="none" stroke="black" d="M126.03,-275.55C156.04,-286.14 193.95,-297.57 229,-302.45 390.13,-324.87 434.37,-333.18 595,-307.45 628.72,-302.05 637.25,-298.3 668,-283.45 685.32,-275.08 703.31,-263.6 718,-253.37"/>
<polygon fill="black" stroke="black" points="720.11,-256.17 726.25,-247.53 716.06,-250.45 720.11,-256.17"/>
<text text-anchor="middle" x="411.5" y="-325.45" font-family="Fira Mono Medium" font-size="10.00">at</text>
</g>
<!-- node_4&#45;&gt;node_3 -->
<g id="edge7" class="edge">
<title>node_4&#45;&gt;node_3</title>
<path fill="none" stroke="black" d="M138.29,-249.77C161.44,-249.37 187.4,-249.86 211,-252.45 214.69,-252.85 218.46,-253.36 222.26,-253.93"/>
<polygon fill="black" stroke="black" points="221.89,-257.42 232.33,-255.61 223.04,-250.51 221.89,-257.42"/>
<text text-anchor="middle" x="183.5" y="-255.45" font-family="Fira Mono Medium" font-size="10.00">not&#45;equal</text>
</g>
<!-- node_4&#45;&gt;node_5 -->
<g id="edge8" class="edge">
<title>node_4&#45;&gt;node_5</title>
<path fill="none" stroke="black" d="M105.87,-231.28C120.94,-222.64 138.92,-213.22 156,-206.45 187.17,-194.09 195.75,-191.71 229,-187.45 321.58,-175.6 346.6,-174.29 439,-187.45 441.65,-187.83 444.33,-188.27 447.03,-188.76"/>
<polygon fill="black" stroke="black" points="446.35,-192.19 456.85,-190.75 447.74,-185.33 446.35,-192.19"/>
<text text-anchor="middle" x="297.5" y="-190.45" font-family="Fira Mono Medium" font-size="10.00">not&#45;equal</text>
</g>
<!-- node_5&#45;&gt;node_1 -->
<g id="edge12" class="edge">
<title>node_5&#45;&gt;node_1</title>
<path fill="none" stroke="black" d="M595.27,-210.39C618.41,-210.36 644.37,-211.08 668,-213.45 670.53,-213.7 673.09,-213.99 675.67,-214.32"/>
<polygon fill="black" stroke="black" points="675.32,-217.81 685.71,-215.73 676.3,-210.87 675.32,-217.81"/>
<text text-anchor="middle" x="640.5" y="-216.45" font-family="Fira Mono Medium" font-size="10.00">at</text>
</g>
<!-- node_5&#45;&gt;node_3 -->
<g id="edge10" class="edge">
<title>node_5&#45;&gt;node_3</title>
<path fill="none" stroke="black" d="M474.19,-234.48C462.76,-238.89 450.58,-243.16 439,-246.45 417.81,-252.46 394.38,-257.31 372.84,-261.08"/>
<polygon fill="black" stroke="black" points="372.03,-257.67 362.76,-262.79 373.21,-264.57 372.03,-257.67"/>
<text text-anchor="middle" x="411.5" y="-261.45" font-family="Fira Mono Medium" font-size="10.00">not&#45;equal</text>
</g>
<!-- node_5&#45;&gt;node_4 -->
<g id="edge11" class="edge">
<title>node_5&#45;&gt;node_4</title>
<path fill="none" stroke="black" d="M456.85,-214.96C433.72,-215.91 407.73,-217.1 384,-218.45 315.05,-222.36 297.64,-221.84 229,-229.45 202.67,-232.37 174.01,-236.42 148.36,-240.36"/>
<polygon fill="black" stroke="black" points="147.67,-236.93 138.32,-241.93 148.74,-243.85 147.67,-236.93"/>
<text text-anchor="middle" x="297.5" y="-232.45" font-family="Fira Mono Medium" font-size="10.00">not&#45;equal</text>
</g>
<!-- node_6 -->
<g id="node7" class="node">
<title>node_6</title>
<polygon fill="none" stroke="black" points="137.5,-59.45 0.5,-59.45 0.5,-15.45 137.5,-15.45 137.5,-59.45"/>
<text text-anchor="start" x="50" y="-46.85" font-family="Fira Mono Medium" font-weight="bold" font-size="12.00">human</text>
<text text-anchor="start" x="8.5" y="-34.85" font-family="Fira Mono Medium" font-style="italic" font-size="12.00">kind:</text>
<text text-anchor="start" x="46.5" y="-34.85" font-family="Fira Mono Medium" font-size="12.00"> missionary</text>
<text text-anchor="start" x="12" y="-22.85" font-family="Fira Mono Medium" font-style="italic" font-size="12.00">can&#45;drive:</text>
<text text-anchor="start" x="88" y="-22.85" font-family="Fira Mono Medium" font-size="12.00"> true</text>
</g>
<!-- node_6&#45;&gt;node_1 -->
<g id="edge15" class="edge">
<title>node_6&#45;&gt;node_1</title>
<path fill="none" stroke="black" d="M117.52,-59.59C148.69,-73.42 190.63,-90.77 229,-102.45 388.21,-150.89 434.03,-139.24 595,-181.45 625.23,-189.37 658.36,-199.44 686.2,-208.31"/>
<polygon fill="black" stroke="black" points="685.23,-211.67 695.82,-211.39 687.36,-205.01 685.23,-211.67"/>
<text text-anchor="middle" x="411.5" y="-151.45" font-family="Fira Mono Medium" font-size="10.00">at</text>
</g>
<!-- node_7 -->
<g id="node8" class="node">
<title>node_7</title>
<polygon fill="none" stroke="black" points="366,-93.45 229,-93.45 229,-49.45 366,-49.45 366,-93.45"/>
<text text-anchor="start" x="278.5" y="-80.85" font-family="Fira Mono Medium" font-weight="bold" font-size="12.00">human</text>
<text text-anchor="start" x="237" y="-68.85" font-family="Fira Mono Medium" font-style="italic" font-size="12.00">kind:</text>
<text text-anchor="start" x="275" y="-68.85" font-family="Fira Mono Medium" font-size="12.00"> missionary</text>
<text text-anchor="start" x="240.5" y="-56.85" font-family="Fira Mono Medium" font-style="italic" font-size="12.00">can&#45;drive:</text>
<text text-anchor="start" x="316.5" y="-56.85" font-family="Fira Mono Medium" font-size="12.00"> true</text>
</g>
<!-- node_6&#45;&gt;node_7 -->
<g id="edge13" class="edge">
<title>node_6&#45;&gt;node_7</title>
<path fill="none" stroke="black" d="M137.65,-47.6C163.2,-51.44 192.46,-55.83 218.85,-59.79"/>
<polygon fill="black" stroke="black" points="218.4,-63.26 228.81,-61.29 219.44,-56.34 218.4,-63.26"/>
<text text-anchor="middle" x="183.5" y="-61.45" font-family="Fira Mono Medium" font-size="10.00">not&#45;equal</text>
</g>
<!-- node_8 -->
<g id="node9" class="node">
<title>node_8</title>
<polygon fill="none" stroke="black" points="594.5,-59.45 457.5,-59.45 457.5,-15.45 594.5,-15.45 594.5,-59.45"/>
<text text-anchor="start" x="507" y="-46.85" font-family="Fira Mono Medium" font-weight="bold" font-size="12.00">human</text>
<text text-anchor="start" x="465.5" y="-34.85" font-family="Fira Mono Medium" font-style="italic" font-size="12.00">kind:</text>
<text text-anchor="start" x="503.5" y="-34.85" font-family="Fira Mono Medium" font-size="12.00"> missionary</text>
<text text-anchor="start" x="469" y="-22.85" font-family="Fira Mono Medium" font-style="italic" font-size="12.00">can&#45;drive:</text>
<text text-anchor="start" x="545" y="-22.85" font-family="Fira Mono Medium" font-size="12.00"> true</text>
</g>
<!-- node_6&#45;&gt;node_8 -->
<g id="edge14" class="edge">
<title>node_6&#45;&gt;node_8</title>
<path fill="none" stroke="black" d="M137.52,-27.99C143.76,-27.36 149.99,-26.83 156,-26.45 281.52,-18.45 313.48,-18.45 439,-26.45 441.72,-26.62 444.49,-26.83 447.28,-27.06"/>
<polygon fill="black" stroke="black" points="447.2,-30.56 457.48,-27.99 447.84,-23.59 447.2,-30.56"/>
<text text-anchor="middle" x="297.5" y="-24.45" font-family="Fira Mono Medium" font-size="10.00">not&#45;equal</text>
</g>
<!-- node_7&#45;&gt;node_1 -->
<g id="edge18" class="edge">
<title>node_7&#45;&gt;node_1</title>
<path fill="none" stroke="black" d="M366.29,-74.59C458.67,-79.9 618.3,-93.11 668,-122.45 699.63,-141.12 723.3,-177.12 736.88,-202.17"/>
<polygon fill="black" stroke="black" points="733.85,-203.94 741.58,-211.18 740.06,-200.7 733.85,-203.94"/>
<text text-anchor="middle" x="526" y="-101.45" font-family="Fira Mono Medium" font-size="10.00">at</text>
</g>
<!-- node_7&#45;&gt;node_6 -->
<g id="edge16" class="edge">
<title>node_7&#45;&gt;node_6</title>
<path fill="none" stroke="black" d="M251.81,-49.35C238.95,-44.05 224.69,-39.14 211,-36.45 190.67,-32.45 168.37,-31.2 147.62,-31.33"/>
<polygon fill="black" stroke="black" points="147.52,-27.83 137.57,-31.49 147.63,-34.83 147.52,-27.83"/>
<text text-anchor="middle" x="183.5" y="-39.45" font-family="Fira Mono Medium" font-size="10.00">not&#45;equal</text>
</g>
<!-- node_7&#45;&gt;node_8 -->
<g id="edge17" class="edge">
<title>node_7&#45;&gt;node_8</title>
<path fill="none" stroke="black" d="M366.15,-61.29C391.7,-57.46 420.96,-53.07 447.35,-49.11"/>
<polygon fill="black" stroke="black" points="447.94,-52.56 457.31,-47.61 446.9,-45.63 447.94,-52.56"/>
<text text-anchor="middle" x="411.5" y="-61.45" font-family="Fira Mono Medium" font-size="10.00">not&#45;equal</text>
</g>
<!-- node_8&#45;&gt;node_1 -->
<g id="edge21" class="edge">
<title>node_8&#45;&gt;node_1</title>
<path fill="none" stroke="black" d="M594.57,-42.53C619.72,-47.25 647.18,-56.08 668,-72.45 710.02,-105.49 732.78,-166.06 743.07,-201.53"/>
<polygon fill="black" stroke="black" points="739.72,-202.54 745.75,-211.25 746.46,-200.67 739.72,-202.54"/>
<text text-anchor="middle" x="640.5" y="-75.45" font-family="Fira Mono Medium" font-size="10.00">at</text>
</g>
<!-- node_8&#45;&gt;node_6 -->
<g id="edge19" class="edge">
<title>node_8&#45;&gt;node_6</title>
<path fill="none" stroke="black" d="M457.45,-22.25C451.22,-20.93 445,-19.64 439,-18.45 315.65,6.15 279.35,6.15 156,-18.45 153.19,-19.01 150.33,-19.59 147.44,-20.18"/>
<polygon fill="black" stroke="black" points="146.62,-16.78 137.55,-22.25 148.05,-23.63 146.62,-16.78"/>
<text text-anchor="middle" x="297.5" y="-7.45" font-family="Fira Mono Medium" font-size="10.00">not&#45;equal</text>
</g>
<!-- node_8&#45;&gt;node_7 -->
<g id="edge20" class="edge">
<title>node_8&#45;&gt;node_7</title>
<path fill="none" stroke="black" d="M457.43,-31.49C433.99,-30.87 407.66,-31.79 384,-36.45 373.62,-38.49 362.92,-41.8 352.75,-45.59"/>
<polygon fill="black" stroke="black" points="351.21,-42.44 343.19,-49.35 353.77,-48.95 351.21,-42.44"/>
<text text-anchor="middle" x="411.5" y="-39.45" font-family="Fira Mono Medium" font-size="10.00">not&#45;equal</text>
</g>
</g>
</svg>
