<?xml version="1.0" encoding="UTF-8" standalone="no"?>
<!DOCTYPE svg PUBLIC "-//W3C//DTD SVG 1.1//EN"
 "http://www.w3.org/Graphics/SVG/1.1/DTD/svg11.dtd">
<!-- Generated by graphviz version 2.43.0 (0)
 -->
<!-- Title: %3 Pages: 1 -->
<svg width="1045pt" height="378pt"
 viewBox="0.00 0.00 1045.00 378.00" xmlns="http://www.w3.org/2000/svg" xmlns:xlink="http://www.w3.org/1999/xlink">
<g id="graph0" class="graph" transform="scale(1 1) rotate(0) translate(4 374)">
<title>%3</title>
<polygon fill="white" stroke="transparent" points="-4,4 -4,-374 1041,-374 1041,4 -4,4"/>
<!-- node_0 -->
<g id="node1" class="node">
<title>node_0</title>
<polygon fill="none" stroke="black" points="808.5,-256 686.5,-256 686.5,-220 808.5,-220 808.5,-256"/>
<text text-anchor="start" x="732" y="-241.4" font-family="Fira Mono Medium" font-weight="bold" font-size="12.00">bank</text>
<text text-anchor="start" x="694.5" y="-229.4" font-family="Fira Mono Medium" font-style="italic" font-size="12.00">location:</text>
<text text-anchor="start" x="762.5" y="-229.4" font-family="Fira Mono Medium" font-size="12.00"> left</text>
</g>
<!-- node_1 -->
<g id="node2" class="node">
<title>node_1</title>
<polygon fill="none" stroke="black" points="1037,-137 907,-137 907,-101 1037,-101 1037,-137"/>
<text text-anchor="start" x="956.5" y="-122.4" font-family="Fira Mono Medium" font-weight="bold" font-size="12.00">bank</text>
<text text-anchor="start" x="915" y="-110.4" font-family="Fira Mono Medium" font-style="italic" font-size="12.00">location:</text>
<text text-anchor="start" x="983" y="-110.4" font-family="Fira Mono Medium" font-size="12.00"> right</text>
</g>
<!-- node_0&#45;&gt;node_1 -->
<g id="edge1" class="edge">
<title>node_0&#45;&gt;node_1</title>
<path fill="none" stroke="black" d="M808.74,-226.5C834.57,-219.95 864.4,-210.16 889,-196 912.13,-182.69 933.93,-161.65 949.23,-144.93"/>
<polygon fill="black" stroke="black" points="952.15,-146.91 956.19,-137.12 946.93,-142.25 952.15,-146.91"/>
<text text-anchor="middle" x="861.5" y="-221" font-family="Fira Mono Medium" font-size="10.00">not&#45;equal</text>
</g>
<!-- node_1&#45;&gt;node_0 -->
<g id="edge2" class="edge">
<title>node_1&#45;&gt;node_0</title>
<path fill="none" stroke="black" d="M926.3,-137.04C899.08,-148.56 863.91,-164.41 834,-181 816.1,-190.93 797.07,-203.41 781.51,-214.16"/>
<polygon fill="black" stroke="black" points="779.45,-211.33 773.26,-219.93 783.46,-217.07 779.45,-211.33"/>
<text text-anchor="middle" x="861.5" y="-184" font-family="Fira Mono Medium" font-size="10.00">not&#45;equal</text>
</g>
<!-- node_2 -->
<g id="node3" class="node">
<title>node_2</title>
<polygon fill="none" stroke="black" points="546,-370 492,-370 492,-334 546,-334 546,-370"/>
<text text-anchor="start" x="503.5" y="-349.9" font-family="Fira Mono Medium" font-weight="bold" font-size="12.00">boat</text>
</g>
<!-- node_2&#45;&gt;node_0 -->
<g id="edge3" class="edge">
<title>node_2&#45;&gt;node_0</title>
<path fill="none" stroke="black" d="M546.14,-350C575.59,-346.84 624.15,-338.85 661,-319 686.45,-305.29 709.86,-282.03 725.72,-263.94"/>
<polygon fill="black" stroke="black" points="728.63,-265.92 732.46,-256.04 723.31,-261.38 728.63,-265.92"/>
<text text-anchor="middle" x="633.5" y="-341" font-family="Fira Mono Medium" font-size="10.00">at</text>
</g>
<!-- node_3 -->
<g id="node4" class="node">
<title>node_3</title>
<polygon fill="none" stroke="black" points="130,-234 0,-234 0,-190 130,-190 130,-234"/>
<text text-anchor="start" x="46" y="-221.4" font-family="Fira Mono Medium" font-weight="bold" font-size="12.00">human</text>
<text text-anchor="start" x="12" y="-209.4" font-family="Fira Mono Medium" font-style="italic" font-size="12.00">kind:</text>
<text text-anchor="start" x="50" y="-209.4" font-family="Fira Mono Medium" font-size="12.00"> cannibal</text>
<text text-anchor="start" x="8" y="-197.4" font-family="Fira Mono Medium" font-style="italic" font-size="12.00">can&#45;drive:</text>
<text text-anchor="start" x="84" y="-197.4" font-family="Fira Mono Medium" font-size="12.00"> true</text>
</g>
<!-- node_3&#45;&gt;node_1 -->
<g id="edge6" class="edge">
<title>node_3&#45;&gt;node_1</title>
<path fill="none" stroke="black" d="M96.8,-189.96C138.34,-162.46 215.59,-119 289,-119 289,-119 289,-119 748.5,-119 797.85,-119 853.36,-119 896.59,-119"/>
<polygon fill="black" stroke="black" points="896.74,-122.5 906.74,-119 896.74,-115.5 896.74,-122.5"/>
<text text-anchor="middle" x="519" y="-122" font-family="Fira Mono Medium" font-size="10.00">at</text>
</g>
<!-- node_4 -->
<g id="node5" class="node">
<title>node_4</title>
<polygon fill="none" stroke="black" points="359,-301 221,-301 221,-257 359,-257 359,-301"/>
<text text-anchor="start" x="271" y="-288.4" font-family="Fira Mono Medium" font-weight="bold" font-size="12.00">human</text>
<text text-anchor="start" x="237" y="-276.4" font-family="Fira Mono Medium" font-style="italic" font-size="12.00">kind:</text>
<text text-anchor="start" x="275" y="-276.4" font-family="Fira Mono Medium" font-size="12.00"> cannibal</text>
<text text-anchor="start" x="229" y="-264.4" font-family="Fira Mono Medium" font-style="italic" font-size="12.00">can&#45;drive:</text>
<text text-anchor="start" x="305" y="-264.4" font-family="Fira Mono Medium" font-size="12.00"> false</text>
</g>
<!-- node_3&#45;&gt;node_4 -->
<g id="edge4" class="edge">
<title>node_3&#45;&gt;node_4</title>
<path fill="none" stroke="black" d="M99.89,-234.06C114.21,-242.45 131.4,-251.34 148,-257 167.85,-263.76 189.99,-268.46 210.74,-271.72"/>
<polygon fill="black" stroke="black" points="210.39,-275.2 220.79,-273.2 211.41,-268.28 210.39,-275.2"/>
<text text-anchor="middle" x="175.5" y="-273" font-family="Fira Mono Medium" font-size="10.00">not&#45;equal</text>
</g>
<!-- node_5 -->
<g id="node6" class="node">
<title>node_5</title>
<polygon fill="none" stroke="black" points="588,-260 450,-260 450,-216 588,-216 588,-260"/>
<text text-anchor="start" x="500" y="-247.4" font-family="Fira Mono Medium" font-weight="bold" font-size="12.00">human</text>
<text text-anchor="start" x="466" y="-235.4" font-family="Fira Mono Medium" font-style="italic" font-size="12.00">kind:</text>
<text text-anchor="start" x="504" y="-235.4" font-family="Fira Mono Medium" font-size="12.00"> cannibal</text>
<text text-anchor="start" x="458" y="-223.4" font-family="Fira Mono Medium" font-style="italic" font-size="12.00">can&#45;drive:</text>
<text text-anchor="start" x="534" y="-223.4" font-family="Fira Mono Medium" font-size="12.00"> false</text>
</g>
<!-- node_3&#45;&gt;node_5 -->
<g id="edge5" class="edge">
<title>node_3&#45;&gt;node_5</title>
<path fill="none" stroke="black" d="M130.13,-215.66C203.21,-219.84 326.21,-226.89 432,-233 434.55,-233.15 437.14,-233.3 439.75,-233.45"/>
<polygon fill="black" stroke="black" points="439.75,-236.95 449.93,-234.04 440.15,-229.97 439.75,-236.95"/>
<text text-anchor="middle" x="290" y="-231" font-family="Fira Mono Medium" font-size="10.00">not&#45;equal</text>
</g>
<!-- node_4&#45;&gt;node_0 -->
<g id="edge9" class="edge">
<title>node_4&#45;&gt;node_0</title>
<path fill="none" stroke="black" d="M359.07,-280.73C365.13,-280.84 371.18,-280.93 377,-281 470.92,-282.09 494.92,-281.64 588,-269 617.08,-265.05 648.87,-259.15 676.29,-253.55"/>
<polygon fill="black" stroke="black" points="677.1,-256.96 686.19,-251.51 675.69,-250.11 677.1,-256.96"/>
<text text-anchor="middle" x="519" y="-284" font-family="Fira Mono Medium" font-size="10.00">at</text>
</g>
<!-- node_4&#45;&gt;node_3 -->
<g id="edge7" class="edge">
<title>node_4&#45;&gt;node_3</title>
<path fill="none" stroke="black" d="M238.55,-256.93C227,-252.31 214.67,-247.71 203,-244 182.9,-237.61 160.77,-231.88 140.26,-227.11"/>
<polygon fill="black" stroke="black" points="140.87,-223.66 130.34,-224.84 139.31,-230.48 140.87,-223.66"/>
<text text-anchor="middle" x="175.5" y="-247" font-family="Fira Mono Medium" font-size="10.00">not&#45;equal</text>
</g>
<!-- node_4&#45;&gt;node_5 -->
<g id="edge8" class="edge">
<title>node_4&#45;&gt;node_5</title>
<path fill="none" stroke="black" d="M359.28,-269.23C382.42,-265.68 408.38,-261.45 432,-257 434.5,-256.53 437.03,-256.04 439.59,-255.54"/>
<polygon fill="black" stroke="black" points="440.43,-258.94 449.54,-253.53 439.05,-252.08 440.43,-258.94"/>
<text text-anchor="middle" x="404.5" y="-269" font-family="Fira Mono Medium" font-size="10.00">not&#45;equal</text>
</g>
<!-- node_5&#45;&gt;node_0 -->
<g id="edge12" class="edge">
<title>node_5&#45;&gt;node_0</title>
<path fill="none" stroke="black" d="M588.26,-238C616.11,-238 648.28,-238 676.32,-238"/>
<polygon fill="black" stroke="black" points="676.44,-241.5 686.44,-238 676.44,-234.5 676.44,-241.5"/>
<text text-anchor="middle" x="633.5" y="-241" font-family="Fira Mono Medium" font-size="10.00">at</text>
</g>
<!-- node_5&#45;&gt;node_3 -->
<g id="edge10" class="edge">
<title>node_5&#45;&gt;node_3</title>
<path fill="none" stroke="black" d="M450,-220.69C422.01,-214.41 389.15,-208.1 359,-205 284.84,-197.38 199.58,-200.78 140.23,-205.08"/>
<polygon fill="black" stroke="black" points="139.91,-201.59 130.2,-205.83 140.43,-208.57 139.91,-201.59"/>
<text text-anchor="middle" x="290" y="-208" font-family="Fira Mono Medium" font-size="10.00">not&#45;equal</text>
</g>
<!-- node_5&#45;&gt;node_4 -->
<g id="edge11" class="edge">
<title>node_5&#45;&gt;node_4</title>
<path fill="none" stroke="black" d="M449.98,-236.19C426.62,-236.81 400.46,-238.89 377,-244 366.85,-246.21 356.37,-249.52 346.36,-253.25"/>
<polygon fill="black" stroke="black" points="344.98,-250.03 336.93,-256.92 347.52,-256.55 344.98,-250.03"/>
<text text-anchor="middle" x="404.5" y="-247" font-family="Fira Mono Medium" font-size="10.00">not&#45;equal</text>
</g>
<!-- node_6 -->
<g id="node7" class="node">
<title>node_6</title>
<polygon fill="none" stroke="black" points="587.5,-76 450.5,-76 450.5,-32 587.5,-32 587.5,-76"/>
<text text-anchor="start" x="500" y="-63.4" font-family="Fira Mono Medium" font-weight="bold" font-size="12.00">human</text>
<text text-anchor="start" x="458.5" y="-51.4" font-family="Fira Mono Medium" font-style="italic" font-size="12.00">kind:</text>
<text text-anchor="start" x="496.5" y="-51.4" font-family="Fira Mono Medium" font-size="12.00"> missionary</text>
<text text-anchor="start" x="462" y="-39.4" font-family="Fira Mono Medium" font-style="italic" font-size="12.00">can&#45;drive:</text>
<text text-anchor="start" x="538" y="-39.4" font-family="Fira Mono Medium" font-size="12.00"> true</text>
</g>
<!-- node_6&#45;&gt;node_1 -->
<g id="edge14" class="edge">
<title>node_6&#45;&gt;node_1</title>
<path fill="none" stroke="black" d="M587.8,-62.46C661.92,-71.93 784.12,-88.15 889,-105 891.5,-105.4 894.03,-105.81 896.59,-106.23"/>
<polygon fill="black" stroke="black" points="896.13,-109.7 906.56,-107.88 897.27,-102.79 896.13,-109.7"/>
<text text-anchor="middle" x="747.5" y="-96" font-family="Fira Mono Medium" font-size="10.00">at</text>
</g>
<!-- node_7 -->
<g id="node8" class="node">
<title>node_7</title>
<polygon fill="none" stroke="black" points="816,-44 679,-44 679,0 816,0 816,-44"/>
<text text-anchor="start" x="728.5" y="-31.4" font-family="Fira Mono Medium" font-weight="bold" font-size="12.00">human</text>
<text text-anchor="start" x="687" y="-19.4" font-family="Fira Mono Medium" font-style="italic" font-size="12.00">kind:</text>
<text text-anchor="start" x="725" y="-19.4" font-family="Fira Mono Medium" font-size="12.00"> missionary</text>
<text text-anchor="start" x="690.5" y="-7.4" font-family="Fira Mono Medium" font-style="italic" font-size="12.00">can&#45;drive:</text>
<text text-anchor="start" x="766.5" y="-7.4" font-family="Fira Mono Medium" font-size="12.00"> true</text>
</g>
<!-- node_6&#45;&gt;node_7 -->
<g id="edge13" class="edge">
<title>node_6&#45;&gt;node_7</title>
<path fill="none" stroke="black" d="M587.65,-44.44C613.2,-40.83 642.46,-36.7 668.85,-32.97"/>
<polygon fill="black" stroke="black" points="669.39,-36.43 678.81,-31.56 668.42,-29.5 669.39,-36.43"/>
<text text-anchor="middle" x="633.5" y="-45" font-family="Fira Mono Medium" font-size="10.00">not&#45;equal</text>
</g>
<!-- node_7&#45;&gt;node_1 -->
<g id="edge16" class="edge">
<title>node_7&#45;&gt;node_1</title>
<path fill="none" stroke="black" d="M816.26,-31.77C840.02,-36.77 866.4,-44.18 889,-55 909.67,-64.9 929.99,-80.71 945.23,-94.14"/>
<polygon fill="black" stroke="black" points="942.95,-96.79 952.72,-100.9 947.64,-91.6 942.95,-96.79"/>
<text text-anchor="middle" x="861.5" y="-58" font-family="Fira Mono Medium" font-size="10.00">at</text>
</g>
<!-- node_7&#45;&gt;node_6 -->
<g id="edge15" class="edge">
<title>node_7&#45;&gt;node_6</title>
<path fill="none" stroke="black" d="M678.84,-15.54C655.58,-14.77 629.48,-15.53 606,-20 596.06,-21.89 585.81,-24.91 576,-28.39"/>
<polygon fill="black" stroke="black" points="574.5,-25.22 566.36,-32 576.95,-31.77 574.5,-25.22"/>
<text text-anchor="middle" x="633.5" y="-23" font-family="Fira Mono Medium" font-size="10.00">not&#45;equal</text>
</g>
</g>
</svg>
