<?xml version="1.0" encoding="UTF-8" standalone="no"?>
<!DOCTYPE svg PUBLIC "-//W3C//DTD SVG 1.1//EN"
 "http://www.w3.org/Graphics/SVG/1.1/DTD/svg11.dtd">
<!-- Generated by graphviz version 2.43.0 (0)
 -->
<!-- Title: %3 Pages: 1 -->
<svg width="1045pt" height="361pt"
 viewBox="0.00 0.00 1045.00 360.74" xmlns="http://www.w3.org/2000/svg" xmlns:xlink="http://www.w3.org/1999/xlink">
<g id="graph0" class="graph" transform="scale(1 1) rotate(0) translate(4 356.74)">
<title>%3</title>
<polygon fill="white" stroke="transparent" points="-4,4 -4,-356.74 1041,-356.74 1041,4 -4,4"/>
<!-- node_0 -->
<g id="node1" class="node">
<title>node_0</title>
<polygon fill="none" stroke="black" points="808.5,-241.74 686.5,-241.74 686.5,-205.74 808.5,-205.74 808.5,-241.74"/>
<text text-anchor="start" x="732" y="-227.14" font-family="Fira Mono Medium" font-weight="bold" font-size="12.00">bank</text>
<text text-anchor="start" x="694.5" y="-215.14" font-family="Fira Mono Medium" font-style="italic" font-size="12.00">location:</text>
<text text-anchor="start" x="762.5" y="-215.14" font-family="Fira Mono Medium" font-size="12.00"> left</text>
</g>
<!-- node_1 -->
<g id="node2" class="node">
<title>node_1</title>
<polygon fill="none" stroke="black" points="1037,-184.74 907,-184.74 907,-148.74 1037,-148.74 1037,-184.74"/>
<text text-anchor="start" x="956.5" y="-170.14" font-family="Fira Mono Medium" font-weight="bold" font-size="12.00">bank</text>
<text text-anchor="start" x="915" y="-158.14" font-family="Fira Mono Medium" font-style="italic" font-size="12.00">location:</text>
<text text-anchor="start" x="983" y="-158.14" font-family="Fira Mono Medium" font-size="12.00"> right</text>
</g>
<!-- node_0&#45;&gt;node_1 -->
<g id="edge1" class="edge">
<title>node_0&#45;&gt;node_1</title>
<path fill="none" stroke="black" d="M808.66,-224.07C833.93,-222.81 863.34,-219.5 889,-211.74 905.19,-206.84 921.79,-198.48 935.77,-190.28"/>
<polygon fill="black" stroke="black" points="937.82,-193.13 944.56,-184.96 934.19,-187.15 937.82,-193.13"/>
<text text-anchor="middle" x="861.5" y="-224.74" font-family="Fira Mono Medium" font-size="10.00">not&#45;equal</text>
</g>
<!-- node_1&#45;&gt;node_0 -->
<g id="edge2" class="edge">
<title>node_1&#45;&gt;node_0</title>
<path fill="none" stroke="black" d="M906.7,-180.99C883.7,-186.29 857.62,-192.53 834,-198.74 828.99,-200.06 823.82,-201.46 818.63,-202.9"/>
<polygon fill="black" stroke="black" points="817.32,-199.63 808.64,-205.7 819.22,-206.37 817.32,-199.63"/>
<text text-anchor="middle" x="861.5" y="-201.74" font-family="Fira Mono Medium" font-size="10.00">not&#45;equal</text>
</g>
<!-- node_2 -->
<g id="node3" class="node">
<title>node_2</title>
<polygon fill="none" stroke="black" points="546,-278.74 492,-278.74 492,-242.74 546,-242.74 546,-278.74"/>
<text text-anchor="start" x="503.5" y="-258.64" font-family="Fira Mono Medium" font-weight="bold" font-size="12.00">boat</text>
</g>
<!-- node_2&#45;&gt;node_0 -->
<g id="edge3" class="edge">
<title>node_2&#45;&gt;node_0</title>
<path fill="none" stroke="black" d="M546.43,-256.42C578.04,-251.26 632.21,-242.41 676.22,-235.22"/>
<polygon fill="black" stroke="black" points="676.99,-238.64 686.3,-233.57 675.87,-231.73 676.99,-238.64"/>
<text text-anchor="middle" x="633.5" y="-248.74" font-family="Fira Mono Medium" font-size="10.00">at</text>
</g>
<!-- node_3 -->
<g id="node4" class="node">
<title>node_3</title>
<polygon fill="none" stroke="black" points="130,-308.74 0,-308.74 0,-264.74 130,-264.74 130,-308.74"/>
<text text-anchor="start" x="46" y="-296.14" font-family="Fira Mono Medium" font-weight="bold" font-size="12.00">human</text>
<text text-anchor="start" x="12" y="-284.14" font-family="Fira Mono Medium" font-style="italic" font-size="12.00">kind:</text>
<text text-anchor="start" x="50" y="-284.14" font-family="Fira Mono Medium" font-size="12.00"> cannibal</text>
<text text-anchor="start" x="8" y="-272.14" font-family="Fira Mono Medium" font-style="italic" font-size="12.00">can&#45;drive:</text>
<text text-anchor="start" x="84" y="-272.14" font-family="Fira Mono Medium" font-size="12.00"> true</text>
</g>
<!-- node_3&#45;&gt;node_1 -->
<g id="edge6" class="edge">
<title>node_3&#45;&gt;node_1</title>
<path fill="none" stroke="black" d="M88.56,-264.73C126.56,-230.09 207.23,-166.74 289,-166.74 289,-166.74 289,-166.74 748.5,-166.74 797.85,-166.74 853.36,-166.74 896.59,-166.74"/>
<polygon fill="black" stroke="black" points="896.74,-170.24 906.74,-166.74 896.74,-163.24 896.74,-170.24"/>
<text text-anchor="middle" x="519" y="-169.74" font-family="Fira Mono Medium" font-size="10.00">at</text>
</g>
<!-- node_4 -->
<g id="node5" class="node">
<title>node_4</title>
<polygon fill="none" stroke="black" points="359,-274.74 221,-274.74 221,-230.74 359,-230.74 359,-274.74"/>
<text text-anchor="start" x="271" y="-262.14" font-family="Fira Mono Medium" font-weight="bold" font-size="12.00">human</text>
<text text-anchor="start" x="237" y="-250.14" font-family="Fira Mono Medium" font-style="italic" font-size="12.00">kind:</text>
<text text-anchor="start" x="275" y="-250.14" font-family="Fira Mono Medium" font-size="12.00"> cannibal</text>
<text text-anchor="start" x="229" y="-238.14" font-family="Fira Mono Medium" font-style="italic" font-size="12.00">can&#45;drive:</text>
<text text-anchor="start" x="305" y="-238.14" font-family="Fira Mono Medium" font-size="12.00"> false</text>
</g>
<!-- node_3&#45;&gt;node_4 -->
<g id="edge4" class="edge">
<title>node_3&#45;&gt;node_4</title>
<path fill="none" stroke="black" d="M112.34,-264.59C123.74,-260.13 136.11,-256.09 148,-253.74 168.03,-249.79 189.98,-248.3 210.46,-248.1"/>
<polygon fill="black" stroke="black" points="210.71,-251.6 220.71,-248.1 210.71,-244.6 210.71,-251.6"/>
<text text-anchor="middle" x="175.5" y="-256.74" font-family="Fira Mono Medium" font-size="10.00">not&#45;equal</text>
</g>
<!-- node_5 -->
<g id="node6" class="node">
<title>node_5</title>
<polygon fill="none" stroke="black" points="588,-340.74 450,-340.74 450,-296.74 588,-296.74 588,-340.74"/>
<text text-anchor="start" x="500" y="-328.14" font-family="Fira Mono Medium" font-weight="bold" font-size="12.00">human</text>
<text text-anchor="start" x="466" y="-316.14" font-family="Fira Mono Medium" font-style="italic" font-size="12.00">kind:</text>
<text text-anchor="start" x="504" y="-316.14" font-family="Fira Mono Medium" font-size="12.00"> cannibal</text>
<text text-anchor="start" x="458" y="-304.14" font-family="Fira Mono Medium" font-style="italic" font-size="12.00">can&#45;drive:</text>
<text text-anchor="start" x="534" y="-304.14" font-family="Fira Mono Medium" font-size="12.00"> false</text>
</g>
<!-- node_3&#45;&gt;node_5 -->
<g id="edge5" class="edge">
<title>node_3&#45;&gt;node_5</title>
<path fill="none" stroke="black" d="M102.66,-308.9C116.39,-316.02 132.44,-323.03 148,-326.74 246.55,-350.21 364.06,-341.73 439.79,-331.76"/>
<polygon fill="black" stroke="black" points="440.3,-335.22 449.73,-330.41 439.35,-328.29 440.3,-335.22"/>
<text text-anchor="middle" x="290" y="-344.74" font-family="Fira Mono Medium" font-size="10.00">not&#45;equal</text>
</g>
<!-- node_4&#45;&gt;node_0 -->
<g id="edge9" class="edge">
<title>node_4&#45;&gt;node_0</title>
<path fill="none" stroke="black" d="M359.01,-238.22C365.09,-237.01 371.15,-235.83 377,-234.74 409.32,-228.7 417.23,-225.41 450,-222.74 511.13,-217.75 526.67,-222.55 588,-222.74 616.79,-222.83 648.53,-223.01 675.99,-223.2"/>
<polygon fill="black" stroke="black" points="676.26,-226.7 686.29,-223.27 676.31,-219.7 676.26,-226.7"/>
<text text-anchor="middle" x="519" y="-225.74" font-family="Fira Mono Medium" font-size="10.00">at</text>
</g>
<!-- node_4&#45;&gt;node_3 -->
<g id="edge7" class="edge">
<title>node_4&#45;&gt;node_3</title>
<path fill="none" stroke="black" d="M220.98,-263.11C195.49,-267 166.42,-271.43 140.39,-275.4"/>
<polygon fill="black" stroke="black" points="139.56,-271.98 130.2,-276.95 140.61,-278.9 139.56,-271.98"/>
<text text-anchor="middle" x="175.5" y="-276.74" font-family="Fira Mono Medium" font-size="10.00">not&#45;equal</text>
</g>
<!-- node_4&#45;&gt;node_5 -->
<g id="edge8" class="edge">
<title>node_4&#45;&gt;node_5</title>
<path fill="none" stroke="black" d="M359.15,-239.34C383.67,-237.97 410.55,-240.72 432,-253.74 446.62,-262.61 437.56,-276.01 450,-287.74 451.09,-288.77 452.22,-289.77 453.39,-290.74"/>
<polygon fill="black" stroke="black" points="451.39,-293.61 461.52,-296.72 455.54,-287.98 451.39,-293.61"/>
<text text-anchor="middle" x="404.5" y="-256.74" font-family="Fira Mono Medium" font-size="10.00">not&#45;equal</text>
</g>
<!-- node_5&#45;&gt;node_0 -->
<g id="edge12" class="edge">
<title>node_5&#45;&gt;node_0</title>
<path fill="none" stroke="black" d="M574.33,-296.66C600.56,-285.93 632.47,-272.78 661,-260.74 672.29,-255.97 684.39,-250.79 695.83,-245.85"/>
<polygon fill="black" stroke="black" points="697.46,-248.95 705.25,-241.77 694.68,-242.53 697.46,-248.95"/>
<text text-anchor="middle" x="633.5" y="-285.74" font-family="Fira Mono Medium" font-size="10.00">at</text>
</g>
<!-- node_5&#45;&gt;node_3 -->
<g id="edge10" class="edge">
<title>node_5&#45;&gt;node_3</title>
<path fill="none" stroke="black" d="M449.88,-313.92C366.69,-308.03 226.47,-298.1 140.49,-292.01"/>
<polygon fill="black" stroke="black" points="140.5,-288.5 130.28,-291.29 140.01,-295.49 140.5,-288.5"/>
<text text-anchor="middle" x="290" y="-309.74" font-family="Fira Mono Medium" font-size="10.00">not&#45;equal</text>
</g>
<!-- node_5&#45;&gt;node_4 -->
<g id="edge11" class="edge">
<title>node_5&#45;&gt;node_4</title>
<path fill="none" stroke="black" d="M459.05,-296.59C450.04,-293.46 440.81,-290.41 432,-287.74 411.78,-281.6 389.69,-275.73 369.12,-270.61"/>
<polygon fill="black" stroke="black" points="369.71,-267.15 359.16,-268.16 368.03,-273.95 369.71,-267.15"/>
<text text-anchor="middle" x="404.5" y="-290.74" font-family="Fira Mono Medium" font-size="10.00">not&#45;equal</text>
</g>
<!-- node_6 -->
<g id="node7" class="node">
<title>node_6</title>
<polygon fill="none" stroke="black" points="587.5,-128.74 450.5,-128.74 450.5,-84.74 587.5,-84.74 587.5,-128.74"/>
<text text-anchor="start" x="500" y="-116.14" font-family="Fira Mono Medium" font-weight="bold" font-size="12.00">human</text>
<text text-anchor="start" x="458.5" y="-104.14" font-family="Fira Mono Medium" font-style="italic" font-size="12.00">kind:</text>
<text text-anchor="start" x="496.5" y="-104.14" font-family="Fira Mono Medium" font-size="12.00"> missionary</text>
<text text-anchor="start" x="462" y="-92.14" font-family="Fira Mono Medium" font-style="italic" font-size="12.00">can&#45;drive:</text>
<text text-anchor="start" x="538" y="-92.14" font-family="Fira Mono Medium" font-size="12.00"> true</text>
</g>
<!-- node_6&#45;&gt;node_0 -->
<g id="edge15" class="edge">
<title>node_6&#45;&gt;node_0</title>
<path fill="none" stroke="black" d="M562.6,-128.75C602.55,-149.38 662.02,-180.1 702.43,-200.98"/>
<polygon fill="black" stroke="black" points="701.02,-204.19 711.51,-205.67 704.23,-197.97 701.02,-204.19"/>
<text text-anchor="middle" x="633.5" y="-181.74" font-family="Fira Mono Medium" font-size="10.00">at</text>
</g>
<!-- node_7 -->
<g id="node8" class="node">
<title>node_7</title>
<polygon fill="none" stroke="black" points="358.5,-61.74 221.5,-61.74 221.5,-17.74 358.5,-17.74 358.5,-61.74"/>
<text text-anchor="start" x="271" y="-49.14" font-family="Fira Mono Medium" font-weight="bold" font-size="12.00">human</text>
<text text-anchor="start" x="229.5" y="-37.14" font-family="Fira Mono Medium" font-style="italic" font-size="12.00">kind:</text>
<text text-anchor="start" x="267.5" y="-37.14" font-family="Fira Mono Medium" font-size="12.00"> missionary</text>
<text text-anchor="start" x="233" y="-25.14" font-family="Fira Mono Medium" font-style="italic" font-size="12.00">can&#45;drive:</text>
<text text-anchor="start" x="309" y="-25.14" font-family="Fira Mono Medium" font-size="12.00"> true</text>
</g>
<!-- node_6&#45;&gt;node_7 -->
<g id="edge13" class="edge">
<title>node_6&#45;&gt;node_7</title>
<path fill="none" stroke="black" d="M450.24,-100.73C426.66,-97.45 400.29,-92.42 377,-84.74 363.09,-80.15 348.72,-73.5 335.79,-66.7"/>
<polygon fill="black" stroke="black" points="337.13,-63.44 326.67,-61.76 333.79,-69.6 337.13,-63.44"/>
<text text-anchor="middle" x="404.5" y="-99.74" font-family="Fira Mono Medium" font-size="10.00">not&#45;equal</text>
</g>
<!-- node_8 -->
<g id="node9" class="node">
<title>node_8</title>
<polygon fill="none" stroke="black" points="816,-94.74 679,-94.74 679,-50.74 816,-50.74 816,-94.74"/>
<text text-anchor="start" x="728.5" y="-82.14" font-family="Fira Mono Medium" font-weight="bold" font-size="12.00">human</text>
<text text-anchor="start" x="687" y="-70.14" font-family="Fira Mono Medium" font-style="italic" font-size="12.00">kind:</text>
<text text-anchor="start" x="725" y="-70.14" font-family="Fira Mono Medium" font-size="12.00"> missionary</text>
<text text-anchor="start" x="690.5" y="-58.14" font-family="Fira Mono Medium" font-style="italic" font-size="12.00">can&#45;drive:</text>
<text text-anchor="start" x="766.5" y="-58.14" font-family="Fira Mono Medium" font-size="12.00"> true</text>
</g>
<!-- node_6&#45;&gt;node_8 -->
<g id="edge14" class="edge">
<title>node_6&#45;&gt;node_8</title>
<path fill="none" stroke="black" d="M587.65,-96.58C613.2,-92.75 642.46,-88.36 668.85,-84.4"/>
<polygon fill="black" stroke="black" points="669.44,-87.85 678.81,-82.9 668.4,-80.92 669.44,-87.85"/>
<text text-anchor="middle" x="633.5" y="-96.74" font-family="Fira Mono Medium" font-size="10.00">not&#45;equal</text>
</g>
<!-- node_7&#45;&gt;node_1 -->
<g id="edge18" class="edge">
<title>node_7&#45;&gt;node_1</title>
<path fill="none" stroke="black" d="M358.62,-23.78C462.01,-2.87 663.43,23.97 816,-41.74 869.63,-64.84 919.97,-111.87 948.01,-141.2"/>
<polygon fill="black" stroke="black" points="945.58,-143.72 954.98,-148.61 950.68,-138.93 945.58,-143.72"/>
<text text-anchor="middle" x="633.5" y="-6.74" font-family="Fira Mono Medium" font-size="10.00">at</text>
</g>
<!-- node_7&#45;&gt;node_6 -->
<g id="edge16" class="edge">
<title>node_7&#45;&gt;node_6</title>
<path fill="none" stroke="black" d="M358.66,-52.75C382.1,-57.87 408.41,-64.32 432,-71.74 440.58,-74.44 449.51,-77.63 458.22,-80.96"/>
<polygon fill="black" stroke="black" points="456.98,-84.23 467.57,-84.61 459.53,-77.71 456.98,-84.23"/>
<text text-anchor="middle" x="404.5" y="-74.74" font-family="Fira Mono Medium" font-size="10.00">not&#45;equal</text>
</g>
<!-- node_7&#45;&gt;node_8 -->
<g id="edge17" class="edge">
<title>node_7&#45;&gt;node_8</title>
<path fill="none" stroke="black" d="M358.62,-42.37C432.89,-45.58 555.61,-51.84 661,-61.74 663.54,-61.98 666.13,-62.23 668.73,-62.5"/>
<polygon fill="black" stroke="black" points="668.56,-66 678.87,-63.6 669.31,-59.05 668.56,-66"/>
<text text-anchor="middle" x="519" y="-58.74" font-family="Fira Mono Medium" font-size="10.00">not&#45;equal</text>
</g>
<!-- node_8&#45;&gt;node_1 -->
<g id="edge21" class="edge">
<title>node_8&#45;&gt;node_1</title>
<path fill="none" stroke="black" d="M800.67,-94.78C836.27,-109.82 883.26,-129.67 918.86,-144.71"/>
<polygon fill="black" stroke="black" points="917.54,-147.95 928.12,-148.62 920.27,-141.51 917.54,-147.95"/>
<text text-anchor="middle" x="861.5" y="-133.74" font-family="Fira Mono Medium" font-size="10.00">at</text>
</g>
<!-- node_8&#45;&gt;node_6 -->
<g id="edge19" class="edge">
<title>node_8&#45;&gt;node_6</title>
<path fill="none" stroke="black" d="M678.81,-66.82C655.55,-66.22 629.46,-67.15 606,-71.74 595.57,-73.78 584.81,-77.09 574.58,-80.88"/>
<polygon fill="black" stroke="black" points="573,-77.74 564.96,-84.64 575.55,-84.26 573,-77.74"/>
<text text-anchor="middle" x="633.5" y="-74.74" font-family="Fira Mono Medium" font-size="10.00">not&#45;equal</text>
</g>
<!-- node_8&#45;&gt;node_7 -->
<g id="edge20" class="edge">
<title>node_8&#45;&gt;node_7</title>
<path fill="none" stroke="black" d="M678.94,-51.77C651.07,-44.16 618.28,-36.5 588,-32.74 513.97,-23.54 428.79,-26.97 368.69,-31.7"/>
<polygon fill="black" stroke="black" points="368.2,-28.22 358.52,-32.53 368.77,-35.2 368.2,-28.22"/>
<text text-anchor="middle" x="519" y="-35.74" font-family="Fira Mono Medium" font-size="10.00">not&#45;equal</text>
</g>
</g>
</svg>
