<?xml version="1.0" encoding="UTF-8" standalone="no"?>
<!DOCTYPE svg PUBLIC "-//W3C//DTD SVG 1.1//EN"
 "http://www.w3.org/Graphics/SVG/1.1/DTD/svg11.dtd">
<!-- Generated by graphviz version 2.43.0 (0)
 -->
<!-- Title: %3 Pages: 1 -->
<svg width="1045pt" height="408pt"
 viewBox="0.00 0.00 1045.00 407.94" xmlns="http://www.w3.org/2000/svg" xmlns:xlink="http://www.w3.org/1999/xlink">
<g id="graph0" class="graph" transform="scale(1 1) rotate(0) translate(4 403.94)">
<title>%3</title>
<polygon fill="white" stroke="transparent" points="-4,4 -4,-403.94 1041,-403.94 1041,4 -4,4"/>
<!-- node_0 -->
<g id="node1" class="node">
<title>node_0</title>
<polygon fill="none" stroke="black" points="808.5,-176.94 686.5,-176.94 686.5,-140.94 808.5,-140.94 808.5,-176.94"/>
<text text-anchor="start" x="732" y="-162.34" font-family="Fira Mono Medium" font-weight="bold" font-size="12.00">bank</text>
<text text-anchor="start" x="694.5" y="-150.34" font-family="Fira Mono Medium" font-style="italic" font-size="12.00">location:</text>
<text text-anchor="start" x="762.5" y="-150.34" font-family="Fira Mono Medium" font-size="12.00"> left</text>
</g>
<!-- node_1 -->
<g id="node2" class="node">
<title>node_1</title>
<polygon fill="none" stroke="black" points="1037,-309.94 907,-309.94 907,-273.94 1037,-273.94 1037,-309.94"/>
<text text-anchor="start" x="956.5" y="-295.34" font-family="Fira Mono Medium" font-weight="bold" font-size="12.00">bank</text>
<text text-anchor="start" x="915" y="-283.34" font-family="Fira Mono Medium" font-style="italic" font-size="12.00">location:</text>
<text text-anchor="start" x="983" y="-283.34" font-family="Fira Mono Medium" font-size="12.00"> right</text>
</g>
<!-- node_0&#45;&gt;node_1 -->
<g id="edge1" class="edge">
<title>node_0&#45;&gt;node_1</title>
<path fill="none" stroke="black" d="M778.97,-177.15C818.72,-200.91 888.33,-242.52 931.92,-268.58"/>
<polygon fill="black" stroke="black" points="930.16,-271.6 940.54,-273.73 933.75,-265.59 930.16,-271.6"/>
<text text-anchor="middle" x="861.5" y="-243.94" font-family="Fira Mono Medium" font-size="10.00">not&#45;equal</text>
</g>
<!-- node_1&#45;&gt;node_0 -->
<g id="edge2" class="edge">
<title>node_1&#45;&gt;node_0</title>
<path fill="none" stroke="black" d="M960,-273.88C946.09,-252.57 920.15,-217.56 889,-197.94 867.92,-184.65 842.27,-175.82 818.69,-169.98"/>
<polygon fill="black" stroke="black" points="819.27,-166.52 808.73,-167.65 817.68,-173.33 819.27,-166.52"/>
<text text-anchor="middle" x="861.5" y="-200.94" font-family="Fira Mono Medium" font-size="10.00">not&#45;equal</text>
</g>
<!-- node_2 -->
<g id="node3" class="node">
<title>node_2</title>
<polygon fill="none" stroke="black" points="546,-199.94 492,-199.94 492,-163.94 546,-163.94 546,-199.94"/>
<text text-anchor="start" x="503.5" y="-179.84" font-family="Fira Mono Medium" font-weight="bold" font-size="12.00">boat</text>
</g>
<!-- node_2&#45;&gt;node_0 -->
<g id="edge3" class="edge">
<title>node_2&#45;&gt;node_0</title>
<path fill="none" stroke="black" d="M546.43,-179.25C578.04,-176.04 632.21,-170.54 676.22,-166.07"/>
<polygon fill="black" stroke="black" points="676.7,-169.54 686.3,-165.05 676,-162.58 676.7,-169.54"/>
<text text-anchor="middle" x="633.5" y="-175.94" font-family="Fira Mono Medium" font-size="10.00">at</text>
</g>
<!-- node_3 -->
<g id="node4" class="node">
<title>node_3</title>
<polygon fill="none" stroke="black" points="130,-58.94 0,-58.94 0,-14.94 130,-14.94 130,-58.94"/>
<text text-anchor="start" x="46" y="-46.34" font-family="Fira Mono Medium" font-weight="bold" font-size="12.00">human</text>
<text text-anchor="start" x="12" y="-34.34" font-family="Fira Mono Medium" font-style="italic" font-size="12.00">kind:</text>
<text text-anchor="start" x="50" y="-34.34" font-family="Fira Mono Medium" font-size="12.00"> cannibal</text>
<text text-anchor="start" x="8" y="-22.34" font-family="Fira Mono Medium" font-style="italic" font-size="12.00">can&#45;drive:</text>
<text text-anchor="start" x="84" y="-22.34" font-family="Fira Mono Medium" font-size="12.00"> true</text>
</g>
<!-- node_3&#45;&gt;node_0 -->
<g id="edge6" class="edge">
<title>node_3&#45;&gt;node_0</title>
<path fill="none" stroke="black" d="M108.9,-58.99C139.37,-73.64 181.69,-91.94 221,-101.94 380.5,-142.49 574.43,-154.2 676.26,-157.57"/>
<polygon fill="black" stroke="black" points="676.32,-161.08 686.43,-157.89 676.54,-154.08 676.32,-161.08"/>
<text text-anchor="middle" x="404.5" y="-141.94" font-family="Fira Mono Medium" font-size="10.00">at</text>
</g>
<!-- node_4 -->
<g id="node5" class="node">
<title>node_4</title>
<polygon fill="none" stroke="black" points="359,-92.94 221,-92.94 221,-48.94 359,-48.94 359,-92.94"/>
<text text-anchor="start" x="271" y="-80.34" font-family="Fira Mono Medium" font-weight="bold" font-size="12.00">human</text>
<text text-anchor="start" x="237" y="-68.34" font-family="Fira Mono Medium" font-style="italic" font-size="12.00">kind:</text>
<text text-anchor="start" x="275" y="-68.34" font-family="Fira Mono Medium" font-size="12.00"> cannibal</text>
<text text-anchor="start" x="229" y="-56.34" font-family="Fira Mono Medium" font-style="italic" font-size="12.00">can&#45;drive:</text>
<text text-anchor="start" x="305" y="-56.34" font-family="Fira Mono Medium" font-size="12.00"> false</text>
</g>
<!-- node_3&#45;&gt;node_4 -->
<g id="edge4" class="edge">
<title>node_3&#45;&gt;node_4</title>
<path fill="none" stroke="black" d="M130.2,-46.72C155.42,-50.57 184.59,-55.02 211,-59.04"/>
<polygon fill="black" stroke="black" points="210.56,-62.52 220.98,-60.56 211.62,-55.6 210.56,-62.52"/>
<text text-anchor="middle" x="175.5" y="-59.94" font-family="Fira Mono Medium" font-size="10.00">not&#45;equal</text>
</g>
<!-- node_5 -->
<g id="node6" class="node">
<title>node_5</title>
<polygon fill="none" stroke="black" points="588,-58.94 450,-58.94 450,-14.94 588,-14.94 588,-58.94"/>
<text text-anchor="start" x="500" y="-46.34" font-family="Fira Mono Medium" font-weight="bold" font-size="12.00">human</text>
<text text-anchor="start" x="466" y="-34.34" font-family="Fira Mono Medium" font-style="italic" font-size="12.00">kind:</text>
<text text-anchor="start" x="504" y="-34.34" font-family="Fira Mono Medium" font-size="12.00"> cannibal</text>
<text text-anchor="start" x="458" y="-22.34" font-family="Fira Mono Medium" font-style="italic" font-size="12.00">can&#45;drive:</text>
<text text-anchor="start" x="534" y="-22.34" font-family="Fira Mono Medium" font-size="12.00"> false</text>
</g>
<!-- node_3&#45;&gt;node_5 -->
<g id="edge5" class="edge">
<title>node_3&#45;&gt;node_5</title>
<path fill="none" stroke="black" d="M130.39,-28.36C136.34,-27.79 142.27,-27.3 148,-26.94 273.97,-19.01 306.03,-17.91 432,-25.94 434.41,-26.09 436.85,-26.27 439.32,-26.46"/>
<polygon fill="black" stroke="black" points="439.27,-29.97 449.54,-27.38 439.89,-23 439.27,-29.97"/>
<text text-anchor="middle" x="290" y="-24.94" font-family="Fira Mono Medium" font-size="10.00">not&#45;equal</text>
</g>
<!-- node_4&#45;&gt;node_0 -->
<g id="edge9" class="edge">
<title>node_4&#45;&gt;node_0</title>
<path fill="none" stroke="black" d="M359.03,-74.52C434.17,-79.8 558.15,-92.47 661,-121.94 674.26,-125.73 688.17,-131.11 700.83,-136.58"/>
<polygon fill="black" stroke="black" points="699.67,-139.9 710.23,-140.77 702.52,-133.5 699.67,-139.9"/>
<text text-anchor="middle" x="519" y="-105.94" font-family="Fira Mono Medium" font-size="10.00">at</text>
</g>
<!-- node_4&#45;&gt;node_3 -->
<g id="edge7" class="edge">
<title>node_4&#45;&gt;node_3</title>
<path fill="none" stroke="black" d="M244.04,-48.84C231.1,-43.53 216.76,-38.63 203,-35.94 182.93,-32.01 160.89,-30.83 140.47,-31"/>
<polygon fill="black" stroke="black" points="140.2,-27.51 130.27,-31.2 140.33,-34.5 140.2,-27.51"/>
<text text-anchor="middle" x="175.5" y="-38.94" font-family="Fira Mono Medium" font-size="10.00">not&#45;equal</text>
</g>
<!-- node_4&#45;&gt;node_5 -->
<g id="edge8" class="edge">
<title>node_4&#45;&gt;node_5</title>
<path fill="none" stroke="black" d="M359.11,-60.73C384.58,-56.92 413.71,-52.56 440.01,-48.62"/>
<polygon fill="black" stroke="black" points="440.57,-52.07 449.94,-47.13 439.53,-45.15 440.57,-52.07"/>
<text text-anchor="middle" x="404.5" y="-60.94" font-family="Fira Mono Medium" font-size="10.00">not&#45;equal</text>
</g>
<!-- node_5&#45;&gt;node_0 -->
<g id="edge12" class="edge">
<title>node_5&#45;&gt;node_0</title>
<path fill="none" stroke="black" d="M588.14,-46C612.26,-51.19 638.88,-59.31 661,-71.94 687.71,-87.19 711.64,-113.14 727.34,-132.74"/>
<polygon fill="black" stroke="black" points="724.64,-134.97 733.55,-140.7 730.16,-130.66 724.64,-134.97"/>
<text text-anchor="middle" x="633.5" y="-74.94" font-family="Fira Mono Medium" font-size="10.00">at</text>
</g>
<!-- node_5&#45;&gt;node_3 -->
<g id="edge10" class="edge">
<title>node_5&#45;&gt;node_3</title>
<path fill="none" stroke="black" d="M449.99,-21.64C443.91,-20.35 437.85,-19.1 432,-17.94 339.86,0.44 314.53,3.95 221,-4.94 188.11,-8.06 180.36,-12.28 148,-18.94 145.5,-19.45 142.96,-19.98 140.4,-20.51"/>
<polygon fill="black" stroke="black" points="139.48,-17.13 130.42,-22.62 140.93,-23.98 139.48,-17.13"/>
<text text-anchor="middle" x="290" y="-7.94" font-family="Fira Mono Medium" font-size="10.00">not&#45;equal</text>
</g>
<!-- node_5&#45;&gt;node_4 -->
<g id="edge11" class="edge">
<title>node_5&#45;&gt;node_4</title>
<path fill="none" stroke="black" d="M449.72,-30.99C426.46,-30.4 400.42,-31.35 377,-35.94 366.57,-37.98 355.81,-41.29 345.58,-45.08"/>
<polygon fill="black" stroke="black" points="344,-41.94 335.96,-48.84 346.55,-48.46 344,-41.94"/>
<text text-anchor="middle" x="404.5" y="-38.94" font-family="Fira Mono Medium" font-size="10.00">not&#45;equal</text>
</g>
<!-- node_6 -->
<g id="node7" class="node">
<title>node_6</title>
<polygon fill="none" stroke="black" points="358.5,-337.94 221.5,-337.94 221.5,-293.94 358.5,-293.94 358.5,-337.94"/>
<text text-anchor="start" x="271" y="-325.34" font-family="Fira Mono Medium" font-weight="bold" font-size="12.00">human</text>
<text text-anchor="start" x="229.5" y="-313.34" font-family="Fira Mono Medium" font-style="italic" font-size="12.00">kind:</text>
<text text-anchor="start" x="267.5" y="-313.34" font-family="Fira Mono Medium" font-size="12.00"> missionary</text>
<text text-anchor="start" x="233" y="-301.34" font-family="Fira Mono Medium" font-style="italic" font-size="12.00">can&#45;drive:</text>
<text text-anchor="start" x="309" y="-301.34" font-family="Fira Mono Medium" font-size="12.00"> true</text>
</g>
<!-- node_6&#45;&gt;node_1 -->
<g id="edge15" class="edge">
<title>node_6&#45;&gt;node_1</title>
<path fill="none" stroke="black" d="M338.5,-338.04C369.49,-351.17 411.24,-366.48 450,-372.94 610.59,-399.67 657.4,-394.7 816,-357.94 855.89,-348.69 898.51,-329.81 928.95,-314.61"/>
<polygon fill="black" stroke="black" points="930.65,-317.67 937.98,-310.02 927.48,-311.43 930.65,-317.67"/>
<text text-anchor="middle" x="633.5" y="-391.94" font-family="Fira Mono Medium" font-size="10.00">at</text>
</g>
<!-- node_7 -->
<g id="node8" class="node">
<title>node_7</title>
<polygon fill="none" stroke="black" points="587.5,-363.94 450.5,-363.94 450.5,-319.94 587.5,-319.94 587.5,-363.94"/>
<text text-anchor="start" x="500" y="-351.34" font-family="Fira Mono Medium" font-weight="bold" font-size="12.00">human</text>
<text text-anchor="start" x="458.5" y="-339.34" font-family="Fira Mono Medium" font-style="italic" font-size="12.00">kind:</text>
<text text-anchor="start" x="496.5" y="-339.34" font-family="Fira Mono Medium" font-size="12.00"> missionary</text>
<text text-anchor="start" x="462" y="-327.34" font-family="Fira Mono Medium" font-style="italic" font-size="12.00">can&#45;drive:</text>
<text text-anchor="start" x="538" y="-327.34" font-family="Fira Mono Medium" font-size="12.00"> true</text>
</g>
<!-- node_6&#45;&gt;node_7 -->
<g id="edge13" class="edge">
<title>node_6&#45;&gt;node_7</title>
<path fill="none" stroke="black" d="M358.57,-325.62C364.8,-326.44 371.01,-327.22 377,-327.94 397.47,-330.38 419.64,-332.72 440.21,-334.77"/>
<polygon fill="black" stroke="black" points="439.87,-338.25 450.17,-335.75 440.56,-331.29 439.87,-338.25"/>
<text text-anchor="middle" x="404.5" y="-335.94" font-family="Fira Mono Medium" font-size="10.00">not&#45;equal</text>
</g>
<!-- node_8 -->
<g id="node9" class="node">
<title>node_8</title>
<polygon fill="none" stroke="black" points="816,-313.94 679,-313.94 679,-269.94 816,-269.94 816,-313.94"/>
<text text-anchor="start" x="728.5" y="-301.34" font-family="Fira Mono Medium" font-weight="bold" font-size="12.00">human</text>
<text text-anchor="start" x="687" y="-289.34" font-family="Fira Mono Medium" font-style="italic" font-size="12.00">kind:</text>
<text text-anchor="start" x="725" y="-289.34" font-family="Fira Mono Medium" font-size="12.00"> missionary</text>
<text text-anchor="start" x="690.5" y="-277.34" font-family="Fira Mono Medium" font-style="italic" font-size="12.00">can&#45;drive:</text>
<text text-anchor="start" x="766.5" y="-277.34" font-family="Fira Mono Medium" font-size="12.00"> true</text>
</g>
<!-- node_6&#45;&gt;node_8 -->
<g id="edge14" class="edge">
<title>node_6&#45;&gt;node_8</title>
<path fill="none" stroke="black" d="M358.6,-308.81C364.82,-308.17 371.03,-307.53 377,-306.94 409.43,-303.68 417.49,-302.22 450,-299.94 519.23,-295.07 536.62,-294.74 606,-292.94 626.34,-292.41 648.34,-292.12 668.76,-291.97"/>
<polygon fill="black" stroke="black" points="668.98,-295.46 678.96,-291.9 668.94,-288.46 668.98,-295.46"/>
<text text-anchor="middle" x="519" y="-302.94" font-family="Fira Mono Medium" font-size="10.00">not&#45;equal</text>
</g>
<!-- node_7&#45;&gt;node_1 -->
<g id="edge18" class="edge">
<title>node_7&#45;&gt;node_1</title>
<path fill="none" stroke="black" d="M587.6,-344.52C593.82,-344.69 600.03,-344.83 606,-344.94 630.44,-345.36 636.62,-346.66 661,-344.94 730.41,-340.03 747.41,-334.65 816,-322.94 842.39,-318.43 871.17,-312.85 896.69,-307.68"/>
<polygon fill="black" stroke="black" points="897.57,-311.07 906.67,-305.65 896.18,-304.22 897.57,-311.07"/>
<text text-anchor="middle" x="747.5" y="-345.94" font-family="Fira Mono Medium" font-size="10.00">at</text>
</g>
<!-- node_7&#45;&gt;node_6 -->
<g id="edge16" class="edge">
<title>node_7&#45;&gt;node_6</title>
<path fill="none" stroke="black" d="M455.58,-319.93C447.73,-317.87 439.73,-316.12 432,-314.94 411.62,-311.81 389.39,-310.85 368.73,-310.97"/>
<polygon fill="black" stroke="black" points="368.68,-307.47 358.73,-311.11 368.78,-314.47 368.68,-307.47"/>
<text text-anchor="middle" x="404.5" y="-317.94" font-family="Fira Mono Medium" font-size="10.00">not&#45;equal</text>
</g>
<!-- node_7&#45;&gt;node_8 -->
<g id="edge17" class="edge">
<title>node_7&#45;&gt;node_8</title>
<path fill="none" stroke="black" d="M587.85,-333.62C611.19,-330.16 637.39,-325.6 661,-319.94 665.02,-318.97 669.11,-317.91 673.23,-316.78"/>
<polygon fill="black" stroke="black" points="674.21,-320.14 682.86,-314.02 672.28,-313.41 674.21,-320.14"/>
<text text-anchor="middle" x="633.5" y="-332.94" font-family="Fira Mono Medium" font-size="10.00">not&#45;equal</text>
</g>
<!-- node_8&#45;&gt;node_1 -->
<g id="edge21" class="edge">
<title>node_8&#45;&gt;node_1</title>
<path fill="none" stroke="black" d="M816.16,-291.94C841.56,-291.94 870.55,-291.94 896.53,-291.94"/>
<polygon fill="black" stroke="black" points="896.71,-295.44 906.71,-291.94 896.7,-288.44 896.71,-295.44"/>
<text text-anchor="middle" x="861.5" y="-294.94" font-family="Fira Mono Medium" font-size="10.00">at</text>
</g>
<!-- node_8&#45;&gt;node_6 -->
<g id="edge19" class="edge">
<title>node_8&#45;&gt;node_6</title>
<path fill="none" stroke="black" d="M678.86,-282.45C618.62,-275.49 528.18,-268.72 450,-277.94 423.25,-281.09 394.48,-287.13 368.87,-293.48"/>
<polygon fill="black" stroke="black" points="367.68,-290.17 358.85,-296.01 369.4,-296.95 367.68,-290.17"/>
<text text-anchor="middle" x="519" y="-280.94" font-family="Fira Mono Medium" font-size="10.00">not&#45;equal</text>
</g>
<!-- node_8&#45;&gt;node_7 -->
<g id="edge20" class="edge">
<title>node_8&#45;&gt;node_7</title>
<path fill="none" stroke="black" d="M678.65,-295.32C655.37,-297.5 629.31,-301.07 606,-306.94 596.39,-309.35 586.43,-312.63 576.85,-316.21"/>
<polygon fill="black" stroke="black" points="575.47,-312.99 567.42,-319.88 578,-319.52 575.47,-312.99"/>
<text text-anchor="middle" x="633.5" y="-309.94" font-family="Fira Mono Medium" font-size="10.00">not&#45;equal</text>
</g>
</g>
</svg>
