<?xml version="1.0" encoding="UTF-8" standalone="no"?>
<!DOCTYPE svg PUBLIC "-//W3C//DTD SVG 1.1//EN"
 "http://www.w3.org/Graphics/SVG/1.1/DTD/svg11.dtd">
<!-- Generated by graphviz version 2.43.0 (0)
 -->
<!-- Title: %3 Pages: 1 -->
<svg width="1003pt" height="209pt"
 viewBox="0.00 0.00 1003.00 208.94" xmlns="http://www.w3.org/2000/svg" xmlns:xlink="http://www.w3.org/1999/xlink">
<g id="graph0" class="graph" transform="scale(1 1) rotate(0) translate(4 204.94)">
<title>%3</title>
<polygon fill="white" stroke="transparent" points="-4,4 -4,-204.94 999,-204.94 999,4 -4,4"/>
<!-- node_0 -->
<g id="node1" class="node">
<title>node_0</title>
<polygon fill="none" stroke="black" points="766.5,-133.94 644.5,-133.94 644.5,-97.94 766.5,-97.94 766.5,-133.94"/>
<text text-anchor="start" x="690" y="-119.34" font-family="Fira Mono Medium" font-weight="bold" font-size="12.00">bank</text>
<text text-anchor="start" x="652.5" y="-107.34" font-family="Fira Mono Medium" font-style="italic" font-size="12.00">location:</text>
<text text-anchor="start" x="720.5" y="-107.34" font-family="Fira Mono Medium" font-size="12.00"> left</text>
</g>
<!-- node_1 -->
<g id="node2" class="node">
<title>node_1</title>
<polygon fill="none" stroke="black" points="995,-162.94 865,-162.94 865,-126.94 995,-126.94 995,-162.94"/>
<text text-anchor="start" x="914.5" y="-148.34" font-family="Fira Mono Medium" font-weight="bold" font-size="12.00">bank</text>
<text text-anchor="start" x="873" y="-136.34" font-family="Fira Mono Medium" font-style="italic" font-size="12.00">location:</text>
<text text-anchor="start" x="941" y="-136.34" font-family="Fira Mono Medium" font-size="12.00"> right</text>
</g>
<!-- node_0&#45;&gt;node_1 -->
<g id="edge1" class="edge">
<title>node_0&#45;&gt;node_1</title>
<path fill="none" stroke="black" d="M766.71,-123.78C793.88,-127.32 826.24,-131.54 854.88,-135.28"/>
<polygon fill="black" stroke="black" points="854.48,-138.75 864.84,-136.57 855.38,-131.81 854.48,-138.75"/>
<text text-anchor="middle" x="819.5" y="-135.94" font-family="Fira Mono Medium" font-size="10.00">not&#45;equal</text>
</g>
<!-- node_1&#45;&gt;node_0 -->
<g id="edge2" class="edge">
<title>node_1&#45;&gt;node_0</title>
<path fill="none" stroke="black" d="M892.77,-126.88C878.82,-120.87 862.52,-114.94 847,-111.94 824.46,-107.57 799.51,-106.95 776.96,-107.92"/>
<polygon fill="black" stroke="black" points="776.59,-104.44 766.79,-108.47 776.97,-111.43 776.59,-104.44"/>
<text text-anchor="middle" x="819.5" y="-114.94" font-family="Fira Mono Medium" font-size="10.00">not&#45;equal</text>
</g>
<!-- node_2 -->
<g id="node3" class="node">
<title>node_2</title>
<polygon fill="none" stroke="black" points="546,-199.94 492,-199.94 492,-163.94 546,-163.94 546,-199.94"/>
<text text-anchor="start" x="503.5" y="-179.84" font-family="Fira Mono Medium" font-weight="bold" font-size="12.00">boat</text>
</g>
<!-- node_2&#45;&gt;node_0 -->
<g id="edge3" class="edge">
<title>node_2&#45;&gt;node_0</title>
<path fill="none" stroke="black" d="M546.21,-173.98C566.26,-167.77 594.53,-158.75 619,-149.94 629.47,-146.17 640.58,-141.93 651.19,-137.76"/>
<polygon fill="black" stroke="black" points="652.77,-140.9 660.78,-133.97 650.19,-134.39 652.77,-140.9"/>
<text text-anchor="middle" x="612.5" y="-155.94" font-family="Fira Mono Medium" font-size="10.00">at</text>
</g>
<!-- node_3 -->
<g id="node4" class="node">
<title>node_3</title>
<polygon fill="none" stroke="black" points="130,-58.94 0,-58.94 0,-14.94 130,-14.94 130,-58.94"/>
<text text-anchor="start" x="46" y="-46.34" font-family="Fira Mono Medium" font-weight="bold" font-size="12.00">human</text>
<text text-anchor="start" x="12" y="-34.34" font-family="Fira Mono Medium" font-style="italic" font-size="12.00">kind:</text>
<text text-anchor="start" x="50" y="-34.34" font-family="Fira Mono Medium" font-size="12.00"> cannibal</text>
<text text-anchor="start" x="8" y="-22.34" font-family="Fira Mono Medium" font-style="italic" font-size="12.00">can&#45;drive:</text>
<text text-anchor="start" x="84" y="-22.34" font-family="Fira Mono Medium" font-size="12.00"> true</text>
</g>
<!-- node_3&#45;&gt;node_0 -->
<g id="edge6" class="edge">
<title>node_3&#45;&gt;node_0</title>
<path fill="none" stroke="black" d="M107.79,-59.04C138.27,-74.01 181.06,-92.68 221,-101.94 364.86,-135.26 539.21,-129.41 634.29,-122.48"/>
<polygon fill="black" stroke="black" points="634.65,-125.96 644.36,-121.72 634.13,-118.98 634.65,-125.96"/>
<text text-anchor="middle" x="404.5" y="-128.94" font-family="Fira Mono Medium" font-size="10.00">at</text>
</g>
<!-- node_4 -->
<g id="node5" class="node">
<title>node_4</title>
<polygon fill="none" stroke="black" points="359,-92.94 221,-92.94 221,-48.94 359,-48.94 359,-92.94"/>
<text text-anchor="start" x="271" y="-80.34" font-family="Fira Mono Medium" font-weight="bold" font-size="12.00">human</text>
<text text-anchor="start" x="237" y="-68.34" font-family="Fira Mono Medium" font-style="italic" font-size="12.00">kind:</text>
<text text-anchor="start" x="275" y="-68.34" font-family="Fira Mono Medium" font-size="12.00"> cannibal</text>
<text text-anchor="start" x="229" y="-56.34" font-family="Fira Mono Medium" font-style="italic" font-size="12.00">can&#45;drive:</text>
<text text-anchor="start" x="305" y="-56.34" font-family="Fira Mono Medium" font-size="12.00"> false</text>
</g>
<!-- node_3&#45;&gt;node_4 -->
<g id="edge4" class="edge">
<title>node_3&#45;&gt;node_4</title>
<path fill="none" stroke="black" d="M130.2,-46.72C155.42,-50.57 184.59,-55.02 211,-59.04"/>
<polygon fill="black" stroke="black" points="210.56,-62.52 220.98,-60.56 211.62,-55.6 210.56,-62.52"/>
<text text-anchor="middle" x="175.5" y="-59.94" font-family="Fira Mono Medium" font-size="10.00">not&#45;equal</text>
</g>
<!-- node_5 -->
<g id="node6" class="node">
<title>node_5</title>
<polygon fill="none" stroke="black" points="588,-58.94 450,-58.94 450,-14.94 588,-14.94 588,-58.94"/>
<text text-anchor="start" x="500" y="-46.34" font-family="Fira Mono Medium" font-weight="bold" font-size="12.00">human</text>
<text text-anchor="start" x="466" y="-34.34" font-family="Fira Mono Medium" font-style="italic" font-size="12.00">kind:</text>
<text text-anchor="start" x="504" y="-34.34" font-family="Fira Mono Medium" font-size="12.00"> cannibal</text>
<text text-anchor="start" x="458" y="-22.34" font-family="Fira Mono Medium" font-style="italic" font-size="12.00">can&#45;drive:</text>
<text text-anchor="start" x="534" y="-22.34" font-family="Fira Mono Medium" font-size="12.00"> false</text>
</g>
<!-- node_3&#45;&gt;node_5 -->
<g id="edge5" class="edge">
<title>node_3&#45;&gt;node_5</title>
<path fill="none" stroke="black" d="M130.39,-28.36C136.34,-27.79 142.27,-27.3 148,-26.94 273.97,-19.01 306.03,-17.91 432,-25.94 434.41,-26.09 436.85,-26.27 439.32,-26.46"/>
<polygon fill="black" stroke="black" points="439.27,-29.97 449.54,-27.38 439.89,-23 439.27,-29.97"/>
<text text-anchor="middle" x="290" y="-24.94" font-family="Fira Mono Medium" font-size="10.00">not&#45;equal</text>
</g>
<!-- node_4&#45;&gt;node_0 -->
<g id="edge9" class="edge">
<title>node_4&#45;&gt;node_0</title>
<path fill="none" stroke="black" d="M359.28,-78.37C435.24,-86.63 557.34,-99.92 634.13,-108.28"/>
<polygon fill="black" stroke="black" points="633.87,-111.77 644.19,-109.37 634.63,-104.81 633.87,-111.77"/>
<text text-anchor="middle" x="519" y="-104.94" font-family="Fira Mono Medium" font-size="10.00">at</text>
</g>
<!-- node_4&#45;&gt;node_3 -->
<g id="edge7" class="edge">
<title>node_4&#45;&gt;node_3</title>
<path fill="none" stroke="black" d="M244.04,-48.84C231.1,-43.53 216.76,-38.63 203,-35.94 182.93,-32.01 160.89,-30.83 140.47,-31"/>
<polygon fill="black" stroke="black" points="140.2,-27.51 130.27,-31.2 140.33,-34.5 140.2,-27.51"/>
<text text-anchor="middle" x="175.5" y="-38.94" font-family="Fira Mono Medium" font-size="10.00">not&#45;equal</text>
</g>
<!-- node_4&#45;&gt;node_5 -->
<g id="edge8" class="edge">
<title>node_4&#45;&gt;node_5</title>
<path fill="none" stroke="black" d="M359.11,-60.73C384.58,-56.92 413.71,-52.56 440.01,-48.62"/>
<polygon fill="black" stroke="black" points="440.57,-52.07 449.94,-47.13 439.53,-45.15 440.57,-52.07"/>
<text text-anchor="middle" x="404.5" y="-60.94" font-family="Fira Mono Medium" font-size="10.00">not&#45;equal</text>
</g>
<!-- node_5&#45;&gt;node_0 -->
<g id="edge12" class="edge">
<title>node_5&#45;&gt;node_0</title>
<path fill="none" stroke="black" d="M586.25,-58.96C597.29,-63.02 608.54,-67.42 619,-71.94 633.45,-78.17 648.84,-85.78 662.53,-92.91"/>
<polygon fill="black" stroke="black" points="661.23,-96.17 671.71,-97.74 664.49,-89.98 661.23,-96.17"/>
<text text-anchor="middle" x="612.5" y="-74.94" font-family="Fira Mono Medium" font-size="10.00">at</text>
</g>
<!-- node_5&#45;&gt;node_3 -->
<g id="edge10" class="edge">
<title>node_5&#45;&gt;node_3</title>
<path fill="none" stroke="black" d="M449.99,-21.64C443.91,-20.35 437.85,-19.1 432,-17.94 339.86,0.44 314.53,3.95 221,-4.94 188.11,-8.06 180.36,-12.28 148,-18.94 145.5,-19.45 142.96,-19.98 140.4,-20.51"/>
<polygon fill="black" stroke="black" points="139.48,-17.13 130.42,-22.62 140.93,-23.98 139.48,-17.13"/>
<text text-anchor="middle" x="290" y="-7.94" font-family="Fira Mono Medium" font-size="10.00">not&#45;equal</text>
</g>
<!-- node_5&#45;&gt;node_4 -->
<g id="edge11" class="edge">
<title>node_5&#45;&gt;node_4</title>
<path fill="none" stroke="black" d="M449.72,-30.99C426.46,-30.4 400.42,-31.35 377,-35.94 366.57,-37.98 355.81,-41.29 345.58,-45.08"/>
<polygon fill="black" stroke="black" points="344,-41.94 335.96,-48.84 346.55,-48.46 344,-41.94"/>
<text text-anchor="middle" x="404.5" y="-38.94" font-family="Fira Mono Medium" font-size="10.00">not&#45;equal</text>
</g>
<!-- node_6 -->
<g id="node7" class="node">
<title>node_6</title>
<polygon fill="none" stroke="black" points="774,-200.94 637,-200.94 637,-156.94 774,-156.94 774,-200.94"/>
<text text-anchor="start" x="686.5" y="-188.34" font-family="Fira Mono Medium" font-weight="bold" font-size="12.00">human</text>
<text text-anchor="start" x="645" y="-176.34" font-family="Fira Mono Medium" font-style="italic" font-size="12.00">kind:</text>
<text text-anchor="start" x="683" y="-176.34" font-family="Fira Mono Medium" font-size="12.00"> missionary</text>
<text text-anchor="start" x="648.5" y="-164.34" font-family="Fira Mono Medium" font-style="italic" font-size="12.00">can&#45;drive:</text>
<text text-anchor="start" x="724.5" y="-164.34" font-family="Fira Mono Medium" font-size="12.00"> true</text>
</g>
<!-- node_6&#45;&gt;node_1 -->
<g id="edge13" class="edge">
<title>node_6&#45;&gt;node_1</title>
<path fill="none" stroke="black" d="M774.16,-168.6C799.56,-164.72 828.55,-160.28 854.53,-156.31"/>
<polygon fill="black" stroke="black" points="855.35,-159.73 864.71,-154.76 854.29,-152.81 855.35,-159.73"/>
<text text-anchor="middle" x="819.5" y="-167.94" font-family="Fira Mono Medium" font-size="10.00">at</text>
</g>
</g>
</svg>
