<?xml version="1.0" encoding="UTF-8" standalone="no"?>
<!DOCTYPE svg PUBLIC "-//W3C//DTD SVG 1.1//EN"
 "http://www.w3.org/Graphics/SVG/1.1/DTD/svg11.dtd">
<!-- Generated by graphviz version 2.43.0 (0)
 -->
<!-- Title: %3 Pages: 1 -->
<svg width="988pt" height="275pt"
 viewBox="0.00 0.00 988.00 275.00" xmlns="http://www.w3.org/2000/svg" xmlns:xlink="http://www.w3.org/1999/xlink">
<g id="graph0" class="graph" transform="scale(1 1) rotate(0) translate(4 271)">
<title>%3</title>
<polygon fill="white" stroke="transparent" points="-4,4 -4,-271 984,-271 984,4 -4,4"/>
<!-- node_0 -->
<g id="node1" class="node">
<title>node_0</title>
<polygon fill="none" stroke="black" points="759,-171 637,-171 637,-135 759,-135 759,-171"/>
<text text-anchor="start" x="682.5" y="-156.4" font-family="Fira Mono Medium" font-weight="bold" font-size="12.00">bank</text>
<text text-anchor="start" x="645" y="-144.4" font-family="Fira Mono Medium" font-style="italic" font-size="12.00">location:</text>
<text text-anchor="start" x="713" y="-144.4" font-family="Fira Mono Medium" font-size="12.00"> left</text>
</g>
<!-- node_1 -->
<g id="node2" class="node">
<title>node_1</title>
<polygon fill="none" stroke="black" points="980,-103 850,-103 850,-67 980,-67 980,-103"/>
<text text-anchor="start" x="899.5" y="-88.4" font-family="Fira Mono Medium" font-weight="bold" font-size="12.00">bank</text>
<text text-anchor="start" x="858" y="-76.4" font-family="Fira Mono Medium" font-style="italic" font-size="12.00">location:</text>
<text text-anchor="start" x="926" y="-76.4" font-family="Fira Mono Medium" font-size="12.00"> right</text>
</g>
<!-- node_0&#45;&gt;node_1 -->
<g id="edge1" class="edge">
<title>node_0&#45;&gt;node_1</title>
<path fill="none" stroke="black" d="M738.64,-134.87C750.8,-129.68 764.32,-124.27 777,-120 797.19,-113.19 819.44,-106.98 840.03,-101.74"/>
<polygon fill="black" stroke="black" points="841.14,-105.07 849.99,-99.24 839.44,-98.28 841.14,-105.07"/>
<text text-anchor="middle" x="804.5" y="-123" font-family="Fira Mono Medium" font-size="10.00">not&#45;equal</text>
</g>
<!-- node_1&#45;&gt;node_0 -->
<g id="edge2" class="edge">
<title>node_1&#45;&gt;node_0</title>
<path fill="none" stroke="black" d="M887.42,-103.04C871.89,-112.76 851.56,-124.13 832,-131 812.07,-137.99 789.67,-142.79 769.01,-146.07"/>
<polygon fill="black" stroke="black" points="768.4,-142.62 759.03,-147.56 769.44,-149.55 768.4,-142.62"/>
<text text-anchor="middle" x="804.5" y="-147" font-family="Fira Mono Medium" font-size="10.00">not&#45;equal</text>
</g>
<!-- node_2 -->
<g id="node3" class="node">
<title>node_2</title>
<polygon fill="none" stroke="black" points="725,-103 671,-103 671,-67 725,-67 725,-103"/>
<text text-anchor="start" x="682.5" y="-82.9" font-family="Fira Mono Medium" font-weight="bold" font-size="12.00">boat</text>
</g>
<!-- node_2&#45;&gt;node_1 -->
<g id="edge3" class="edge">
<title>node_2&#45;&gt;node_1</title>
<path fill="none" stroke="black" d="M725.36,-85C753.73,-85 800.12,-85 839.79,-85"/>
<polygon fill="black" stroke="black" points="839.98,-88.5 849.98,-85 839.98,-81.5 839.98,-88.5"/>
<text text-anchor="middle" x="804.5" y="-88" font-family="Fira Mono Medium" font-size="10.00">at</text>
</g>
<!-- node_3 -->
<g id="node4" class="node">
<title>node_3</title>
<polygon fill="none" stroke="black" points="130,-200 0,-200 0,-156 130,-156 130,-200"/>
<text text-anchor="start" x="46" y="-187.4" font-family="Fira Mono Medium" font-weight="bold" font-size="12.00">human</text>
<text text-anchor="start" x="12" y="-175.4" font-family="Fira Mono Medium" font-style="italic" font-size="12.00">kind:</text>
<text text-anchor="start" x="50" y="-175.4" font-family="Fira Mono Medium" font-size="12.00"> cannibal</text>
<text text-anchor="start" x="8" y="-163.4" font-family="Fira Mono Medium" font-style="italic" font-size="12.00">can&#45;drive:</text>
<text text-anchor="start" x="84" y="-163.4" font-family="Fira Mono Medium" font-size="12.00"> true</text>
</g>
<!-- node_3&#45;&gt;node_1 -->
<g id="edge6" class="edge">
<title>node_3&#45;&gt;node_1</title>
<path fill="none" stroke="black" d="M79.35,-155.82C109.95,-108.1 190.17,0 289,0 289,0 289,0 699,0 766.31,0 837.69,-36.47 878.93,-61.64"/>
<polygon fill="black" stroke="black" points="877.17,-64.66 887.51,-66.97 880.87,-58.72 877.17,-64.66"/>
<text text-anchor="middle" x="519" y="-3" font-family="Fira Mono Medium" font-size="10.00">at</text>
</g>
<!-- node_4 -->
<g id="node5" class="node">
<title>node_4</title>
<polygon fill="none" stroke="black" points="359,-267 221,-267 221,-223 359,-223 359,-267"/>
<text text-anchor="start" x="271" y="-254.4" font-family="Fira Mono Medium" font-weight="bold" font-size="12.00">human</text>
<text text-anchor="start" x="237" y="-242.4" font-family="Fira Mono Medium" font-style="italic" font-size="12.00">kind:</text>
<text text-anchor="start" x="275" y="-242.4" font-family="Fira Mono Medium" font-size="12.00"> cannibal</text>
<text text-anchor="start" x="229" y="-230.4" font-family="Fira Mono Medium" font-style="italic" font-size="12.00">can&#45;drive:</text>
<text text-anchor="start" x="305" y="-230.4" font-family="Fira Mono Medium" font-size="12.00"> false</text>
</g>
<!-- node_3&#45;&gt;node_4 -->
<g id="edge4" class="edge">
<title>node_3&#45;&gt;node_4</title>
<path fill="none" stroke="black" d="M99.89,-200.06C114.21,-208.45 131.4,-217.34 148,-223 167.85,-229.76 189.99,-234.46 210.74,-237.72"/>
<polygon fill="black" stroke="black" points="210.39,-241.2 220.79,-239.2 211.41,-234.28 210.39,-241.2"/>
<text text-anchor="middle" x="175.5" y="-239" font-family="Fira Mono Medium" font-size="10.00">not&#45;equal</text>
</g>
<!-- node_5 -->
<g id="node6" class="node">
<title>node_5</title>
<polygon fill="none" stroke="black" points="588,-200 450,-200 450,-156 588,-156 588,-200"/>
<text text-anchor="start" x="500" y="-187.4" font-family="Fira Mono Medium" font-weight="bold" font-size="12.00">human</text>
<text text-anchor="start" x="466" y="-175.4" font-family="Fira Mono Medium" font-style="italic" font-size="12.00">kind:</text>
<text text-anchor="start" x="504" y="-175.4" font-family="Fira Mono Medium" font-size="12.00"> cannibal</text>
<text text-anchor="start" x="458" y="-163.4" font-family="Fira Mono Medium" font-style="italic" font-size="12.00">can&#45;drive:</text>
<text text-anchor="start" x="534" y="-163.4" font-family="Fira Mono Medium" font-size="12.00"> false</text>
</g>
<!-- node_3&#45;&gt;node_5 -->
<g id="edge5" class="edge">
<title>node_3&#45;&gt;node_5</title>
<path fill="none" stroke="black" d="M130.28,-178C211.75,-178 352.1,-178 439.72,-178"/>
<polygon fill="black" stroke="black" points="439.88,-181.5 449.88,-178 439.88,-174.5 439.88,-181.5"/>
<text text-anchor="middle" x="290" y="-181" font-family="Fira Mono Medium" font-size="10.00">not&#45;equal</text>
</g>
<!-- node_4&#45;&gt;node_0 -->
<g id="edge9" class="edge">
<title>node_4&#45;&gt;node_0</title>
<path fill="none" stroke="black" d="M359.34,-251.91C382.49,-253.06 408.44,-253.04 432,-250 503.1,-240.81 521.06,-234.64 588,-209 611.78,-199.89 637.14,-187.06 657.42,-175.98"/>
<polygon fill="black" stroke="black" points="659.3,-178.94 666.35,-171.03 655.91,-172.82 659.3,-178.94"/>
<text text-anchor="middle" x="519" y="-250" font-family="Fira Mono Medium" font-size="10.00">at</text>
</g>
<!-- node_4&#45;&gt;node_3 -->
<g id="edge7" class="edge">
<title>node_4&#45;&gt;node_3</title>
<path fill="none" stroke="black" d="M238.55,-222.93C227,-218.31 214.67,-213.71 203,-210 182.9,-203.61 160.77,-197.88 140.26,-193.11"/>
<polygon fill="black" stroke="black" points="140.87,-189.66 130.34,-190.84 139.31,-196.48 140.87,-189.66"/>
<text text-anchor="middle" x="175.5" y="-213" font-family="Fira Mono Medium" font-size="10.00">not&#45;equal</text>
</g>
<!-- node_4&#45;&gt;node_5 -->
<g id="edge8" class="edge">
<title>node_4&#45;&gt;node_5</title>
<path fill="none" stroke="black" d="M359.12,-238.94C382.61,-235.66 408.82,-230.64 432,-223 445.91,-218.42 460.28,-211.76 473.21,-204.96"/>
<polygon fill="black" stroke="black" points="475.21,-207.86 482.33,-200.02 471.87,-201.7 475.21,-207.86"/>
<text text-anchor="middle" x="404.5" y="-238" font-family="Fira Mono Medium" font-size="10.00">not&#45;equal</text>
</g>
<!-- node_5&#45;&gt;node_0 -->
<g id="edge12" class="edge">
<title>node_5&#45;&gt;node_0</title>
<path fill="none" stroke="black" d="M588.18,-168.37C600.86,-166.58 614.13,-164.71 626.86,-162.91"/>
<polygon fill="black" stroke="black" points="627.53,-166.35 636.94,-161.48 626.55,-159.42 627.53,-166.35"/>
<text text-anchor="middle" x="612.5" y="-168" font-family="Fira Mono Medium" font-size="10.00">at</text>
</g>
<!-- node_5&#45;&gt;node_3 -->
<g id="edge10" class="edge">
<title>node_5&#45;&gt;node_3</title>
<path fill="none" stroke="black" d="M449.62,-170.13C421.58,-167.27 388.77,-164.4 359,-163 297.73,-160.12 282.26,-160.04 221,-163 194.66,-164.27 165.88,-166.75 140.36,-169.34"/>
<polygon fill="black" stroke="black" points="139.96,-165.86 130.38,-170.37 140.68,-172.82 139.96,-165.86"/>
<text text-anchor="middle" x="290" y="-166" font-family="Fira Mono Medium" font-size="10.00">not&#45;equal</text>
</g>
<!-- node_5&#45;&gt;node_4 -->
<g id="edge11" class="edge">
<title>node_5&#45;&gt;node_4</title>
<path fill="none" stroke="black" d="M449.98,-191.08C426.63,-196.2 400.47,-202.62 377,-210 368.42,-212.7 359.49,-215.89 350.78,-219.22"/>
<polygon fill="black" stroke="black" points="349.47,-215.97 341.43,-222.88 352.02,-222.49 349.47,-215.97"/>
<text text-anchor="middle" x="404.5" y="-213" font-family="Fira Mono Medium" font-size="10.00">not&#45;equal</text>
</g>
<!-- node_6 -->
<g id="node7" class="node">
<title>node_6</title>
<polygon fill="none" stroke="black" points="358.5,-94 221.5,-94 221.5,-50 358.5,-50 358.5,-94"/>
<text text-anchor="start" x="271" y="-81.4" font-family="Fira Mono Medium" font-weight="bold" font-size="12.00">human</text>
<text text-anchor="start" x="229.5" y="-69.4" font-family="Fira Mono Medium" font-style="italic" font-size="12.00">kind:</text>
<text text-anchor="start" x="267.5" y="-69.4" font-family="Fira Mono Medium" font-size="12.00"> missionary</text>
<text text-anchor="start" x="233" y="-57.4" font-family="Fira Mono Medium" font-style="italic" font-size="12.00">can&#45;drive:</text>
<text text-anchor="start" x="309" y="-57.4" font-family="Fira Mono Medium" font-size="12.00"> true</text>
</g>
<!-- node_6&#45;&gt;node_1 -->
<g id="edge14" class="edge">
<title>node_6&#45;&gt;node_1</title>
<path fill="none" stroke="black" d="M358.53,-62.61C364.76,-61.97 370.99,-61.42 377,-61 546.37,-49.23 589.85,-43.38 759,-58 785.55,-60.29 814.37,-64.76 839.88,-69.41"/>
<polygon fill="black" stroke="black" points="839.38,-72.88 849.85,-71.27 840.66,-66 839.38,-72.88"/>
<text text-anchor="middle" x="612.5" y="-52" font-family="Fira Mono Medium" font-size="10.00">at</text>
</g>
<!-- node_7 -->
<g id="node8" class="node">
<title>node_7</title>
<polygon fill="none" stroke="black" points="587.5,-128 450.5,-128 450.5,-84 587.5,-84 587.5,-128"/>
<text text-anchor="start" x="500" y="-115.4" font-family="Fira Mono Medium" font-weight="bold" font-size="12.00">human</text>
<text text-anchor="start" x="458.5" y="-103.4" font-family="Fira Mono Medium" font-style="italic" font-size="12.00">kind:</text>
<text text-anchor="start" x="496.5" y="-103.4" font-family="Fira Mono Medium" font-size="12.00"> missionary</text>
<text text-anchor="start" x="462" y="-91.4" font-family="Fira Mono Medium" font-style="italic" font-size="12.00">can&#45;drive:</text>
<text text-anchor="start" x="538" y="-91.4" font-family="Fira Mono Medium" font-size="12.00"> true</text>
</g>
<!-- node_6&#45;&gt;node_7 -->
<g id="edge13" class="edge">
<title>node_6&#45;&gt;node_7</title>
<path fill="none" stroke="black" d="M358.8,-82.16C384.4,-85.99 413.73,-90.38 440.18,-94.34"/>
<polygon fill="black" stroke="black" points="439.75,-97.82 450.16,-95.84 440.79,-90.9 439.75,-97.82"/>
<text text-anchor="middle" x="404.5" y="-96" font-family="Fira Mono Medium" font-size="10.00">not&#45;equal</text>
</g>
<!-- node_7&#45;&gt;node_0 -->
<g id="edge16" class="edge">
<title>node_7&#45;&gt;node_0</title>
<path fill="none" stroke="black" d="M587.67,-123.97C600.58,-127.4 614.12,-130.99 627.1,-134.44"/>
<polygon fill="black" stroke="black" points="626.33,-137.86 636.89,-137.04 628.13,-131.09 626.33,-137.86"/>
<text text-anchor="middle" x="612.5" y="-133" font-family="Fira Mono Medium" font-size="10.00">at</text>
</g>
<!-- node_7&#45;&gt;node_6 -->
<g id="edge15" class="edge">
<title>node_7&#45;&gt;node_6</title>
<path fill="none" stroke="black" d="M473.04,-83.9C460.1,-78.6 445.76,-73.69 432,-71 411.66,-67.02 389.36,-65.78 368.61,-65.91"/>
<polygon fill="black" stroke="black" points="368.51,-62.41 358.57,-66.07 368.63,-69.41 368.51,-62.41"/>
<text text-anchor="middle" x="404.5" y="-74" font-family="Fira Mono Medium" font-size="10.00">not&#45;equal</text>
</g>
</g>
</svg>
