<?xml version="1.0" encoding="UTF-8" standalone="no"?>
<!DOCTYPE svg PUBLIC "-//W3C//DTD SVG 1.1//EN"
 "http://www.w3.org/Graphics/SVG/1.1/DTD/svg11.dtd">
<!-- Generated by graphviz version 2.43.0 (0)
 -->
<!-- Title: %3 Pages: 1 -->
<svg width="817pt" height="401pt"
 viewBox="0.00 0.00 817.00 401.00" xmlns="http://www.w3.org/2000/svg" xmlns:xlink="http://www.w3.org/1999/xlink">
<g id="graph0" class="graph" transform="scale(1 1) rotate(0) translate(4 397)">
<title>%3</title>
<polygon fill="white" stroke="transparent" points="-4,4 -4,-397 813,-397 813,4 -4,4"/>
<!-- node_0 -->
<g id="node1" class="node">
<title>node_0</title>
<polygon fill="none" stroke="black" points="580,-393 458,-393 458,-357 580,-357 580,-393"/>
<text text-anchor="start" x="503.5" y="-378.4" font-family="Fira Mono Medium" font-weight="bold" font-size="12.00">bank</text>
<text text-anchor="start" x="466" y="-366.4" font-family="Fira Mono Medium" font-style="italic" font-size="12.00">location:</text>
<text text-anchor="start" x="534" y="-366.4" font-family="Fira Mono Medium" font-size="12.00"> left</text>
</g>
<!-- node_1 -->
<g id="node2" class="node">
<title>node_1</title>
<polygon fill="none" stroke="black" points="809,-273 679,-273 679,-237 809,-237 809,-273"/>
<text text-anchor="start" x="728.5" y="-258.4" font-family="Fira Mono Medium" font-weight="bold" font-size="12.00">bank</text>
<text text-anchor="start" x="687" y="-246.4" font-family="Fira Mono Medium" font-style="italic" font-size="12.00">location:</text>
<text text-anchor="start" x="755" y="-246.4" font-family="Fira Mono Medium" font-size="12.00"> right</text>
</g>
<!-- node_0&#45;&gt;node_1 -->
<g id="edge1" class="edge">
<title>node_0&#45;&gt;node_1</title>
<path fill="none" stroke="black" d="M580.03,-375.52C606.31,-373.44 636.64,-367.74 661,-354 690.86,-337.16 714.41,-304.89 728.47,-281.76"/>
<polygon fill="black" stroke="black" points="731.52,-283.49 733.56,-273.09 725.48,-279.94 731.52,-283.49"/>
<text text-anchor="middle" x="633.5" y="-375" font-family="Fira Mono Medium" font-size="10.00">not&#45;equal</text>
</g>
<!-- node_1&#45;&gt;node_0 -->
<g id="edge2" class="edge">
<title>node_1&#45;&gt;node_0</title>
<path fill="none" stroke="black" d="M721.32,-273.26C705.31,-286.2 682.63,-303.43 661,-316 630.37,-333.8 620.69,-334.35 588,-348 583.93,-349.7 579.72,-351.43 575.48,-353.16"/>
<polygon fill="black" stroke="black" points="574.14,-349.93 566.18,-356.92 576.76,-356.42 574.14,-349.93"/>
<text text-anchor="middle" x="633.5" y="-343" font-family="Fira Mono Medium" font-size="10.00">not&#45;equal</text>
</g>
<!-- node_2 -->
<g id="node3" class="node">
<title>node_2</title>
<polygon fill="none" stroke="black" points="546,-339 492,-339 492,-303 546,-303 546,-339"/>
<text text-anchor="start" x="503.5" y="-318.9" font-family="Fira Mono Medium" font-weight="bold" font-size="12.00">boat</text>
</g>
<!-- node_2&#45;&gt;node_1 -->
<g id="edge3" class="edge">
<title>node_2&#45;&gt;node_1</title>
<path fill="none" stroke="black" d="M546.24,-315.46C574.75,-309.22 621.51,-298.32 661,-286 670.06,-283.17 679.57,-279.89 688.77,-276.53"/>
<polygon fill="black" stroke="black" points="690.06,-279.78 698.22,-273.02 687.63,-273.22 690.06,-279.78"/>
<text text-anchor="middle" x="633.5" y="-304" font-family="Fira Mono Medium" font-size="10.00">at</text>
</g>
<!-- node_3 -->
<g id="node4" class="node">
<title>node_3</title>
<polygon fill="none" stroke="black" points="130,-207 0,-207 0,-163 130,-163 130,-207"/>
<text text-anchor="start" x="46" y="-194.4" font-family="Fira Mono Medium" font-weight="bold" font-size="12.00">human</text>
<text text-anchor="start" x="12" y="-182.4" font-family="Fira Mono Medium" font-style="italic" font-size="12.00">kind:</text>
<text text-anchor="start" x="50" y="-182.4" font-family="Fira Mono Medium" font-size="12.00"> cannibal</text>
<text text-anchor="start" x="8" y="-170.4" font-family="Fira Mono Medium" font-style="italic" font-size="12.00">can&#45;drive:</text>
<text text-anchor="start" x="84" y="-170.4" font-family="Fira Mono Medium" font-size="12.00"> true</text>
</g>
<!-- node_3&#45;&gt;node_1 -->
<g id="edge6" class="edge">
<title>node_3&#45;&gt;node_1</title>
<path fill="none" stroke="black" d="M113.34,-207.12C143.45,-219.99 183.66,-235.01 221,-242 378.22,-271.42 566.68,-266.46 668.64,-260.54"/>
<polygon fill="black" stroke="black" points="669.06,-264.02 678.84,-259.93 668.64,-257.03 669.06,-264.02"/>
<text text-anchor="middle" x="404.5" y="-266" font-family="Fira Mono Medium" font-size="10.00">at</text>
</g>
<!-- node_4 -->
<g id="node5" class="node">
<title>node_4</title>
<polygon fill="none" stroke="black" points="359,-233 221,-233 221,-189 359,-189 359,-233"/>
<text text-anchor="start" x="271" y="-220.4" font-family="Fira Mono Medium" font-weight="bold" font-size="12.00">human</text>
<text text-anchor="start" x="237" y="-208.4" font-family="Fira Mono Medium" font-style="italic" font-size="12.00">kind:</text>
<text text-anchor="start" x="275" y="-208.4" font-family="Fira Mono Medium" font-size="12.00"> cannibal</text>
<text text-anchor="start" x="229" y="-196.4" font-family="Fira Mono Medium" font-style="italic" font-size="12.00">can&#45;drive:</text>
<text text-anchor="start" x="305" y="-196.4" font-family="Fira Mono Medium" font-size="12.00"> false</text>
</g>
<!-- node_3&#45;&gt;node_4 -->
<g id="edge4" class="edge">
<title>node_3&#45;&gt;node_4</title>
<path fill="none" stroke="black" d="M130.42,-194.72C136.36,-195.52 142.29,-196.3 148,-197 168.26,-199.49 190.2,-201.83 210.6,-203.87"/>
<polygon fill="black" stroke="black" points="210.5,-207.37 220.8,-204.87 211.19,-200.41 210.5,-207.37"/>
<text text-anchor="middle" x="175.5" y="-206" font-family="Fira Mono Medium" font-size="10.00">not&#45;equal</text>
</g>
<!-- node_5 -->
<g id="node6" class="node">
<title>node_5</title>
<polygon fill="none" stroke="black" points="588,-199 450,-199 450,-155 588,-155 588,-199"/>
<text text-anchor="start" x="500" y="-186.4" font-family="Fira Mono Medium" font-weight="bold" font-size="12.00">human</text>
<text text-anchor="start" x="466" y="-174.4" font-family="Fira Mono Medium" font-style="italic" font-size="12.00">kind:</text>
<text text-anchor="start" x="504" y="-174.4" font-family="Fira Mono Medium" font-size="12.00"> cannibal</text>
<text text-anchor="start" x="458" y="-162.4" font-family="Fira Mono Medium" font-style="italic" font-size="12.00">can&#45;drive:</text>
<text text-anchor="start" x="534" y="-162.4" font-family="Fira Mono Medium" font-size="12.00"> false</text>
</g>
<!-- node_3&#45;&gt;node_5 -->
<g id="edge5" class="edge">
<title>node_3&#45;&gt;node_5</title>
<path fill="none" stroke="black" d="M130,-177.89C136.09,-177.24 142.16,-176.6 148,-176 273.64,-163.08 305.95,-157.97 432,-166 434.41,-166.15 436.85,-166.33 439.32,-166.53"/>
<polygon fill="black" stroke="black" points="439.27,-170.04 449.54,-167.45 439.89,-163.07 439.27,-170.04"/>
<text text-anchor="middle" x="290" y="-171" font-family="Fira Mono Medium" font-size="10.00">not&#45;equal</text>
</g>
<!-- node_4&#45;&gt;node_1 -->
<g id="edge9" class="edge">
<title>node_4&#45;&gt;node_1</title>
<path fill="none" stroke="black" d="M359.16,-217.63C442.34,-225.73 582.51,-239.38 668.48,-247.75"/>
<polygon fill="black" stroke="black" points="668.39,-251.25 678.68,-248.74 669.07,-244.29 668.39,-251.25"/>
<text text-anchor="middle" x="519" y="-242" font-family="Fira Mono Medium" font-size="10.00">at</text>
</g>
<!-- node_4&#45;&gt;node_3 -->
<g id="edge7" class="edge">
<title>node_4&#45;&gt;node_3</title>
<path fill="none" stroke="black" d="M226.58,-188.99C218.73,-186.94 210.73,-185.19 203,-184 182.79,-180.9 160.7,-180 140.27,-180.16"/>
<polygon fill="black" stroke="black" points="140.02,-176.67 130.08,-180.33 140.14,-183.66 140.02,-176.67"/>
<text text-anchor="middle" x="175.5" y="-187" font-family="Fira Mono Medium" font-size="10.00">not&#45;equal</text>
</g>
<!-- node_4&#45;&gt;node_5 -->
<g id="edge8" class="edge">
<title>node_4&#45;&gt;node_5</title>
<path fill="none" stroke="black" d="M359.11,-200.8C384.58,-196.98 413.71,-192.62 440.01,-188.68"/>
<polygon fill="black" stroke="black" points="440.57,-192.14 449.94,-187.19 439.53,-185.21 440.57,-192.14"/>
<text text-anchor="middle" x="404.5" y="-201" font-family="Fira Mono Medium" font-size="10.00">not&#45;equal</text>
</g>
<!-- node_5&#45;&gt;node_1 -->
<g id="edge12" class="edge">
<title>node_5&#45;&gt;node_1</title>
<path fill="none" stroke="black" d="M588.13,-189.73C611.61,-195.09 637.83,-202.16 661,-211 675.72,-216.62 691.12,-224.34 704.55,-231.74"/>
<polygon fill="black" stroke="black" points="703.07,-234.93 713.5,-236.79 706.51,-228.83 703.07,-234.93"/>
<text text-anchor="middle" x="633.5" y="-214" font-family="Fira Mono Medium" font-size="10.00">at</text>
</g>
<!-- node_5&#45;&gt;node_3 -->
<g id="edge10" class="edge">
<title>node_5&#45;&gt;node_3</title>
<path fill="none" stroke="black" d="M449.99,-162.48C443.91,-161.27 437.85,-160.09 432,-159 339.67,-141.76 314.25,-135.74 221,-147 194.29,-150.23 165.54,-156.47 140.14,-162.98"/>
<polygon fill="black" stroke="black" points="139,-159.66 130.22,-165.58 140.78,-166.44 139,-159.66"/>
<text text-anchor="middle" x="290" y="-150" font-family="Fira Mono Medium" font-size="10.00">not&#45;equal</text>
</g>
<!-- node_5&#45;&gt;node_4 -->
<g id="edge11" class="edge">
<title>node_5&#45;&gt;node_4</title>
<path fill="none" stroke="black" d="M449.72,-171.05C426.46,-170.47 400.42,-171.42 377,-176 366.57,-178.04 355.81,-181.35 345.58,-185.14"/>
<polygon fill="black" stroke="black" points="344,-182 335.96,-188.9 346.55,-188.52 344,-182"/>
<text text-anchor="middle" x="404.5" y="-179" font-family="Fira Mono Medium" font-size="10.00">not&#45;equal</text>
</g>
<!-- node_6 -->
<g id="node7" class="node">
<title>node_6</title>
<polygon fill="none" stroke="black" points="358.5,-69 221.5,-69 221.5,-25 358.5,-25 358.5,-69"/>
<text text-anchor="start" x="271" y="-56.4" font-family="Fira Mono Medium" font-weight="bold" font-size="12.00">human</text>
<text text-anchor="start" x="229.5" y="-44.4" font-family="Fira Mono Medium" font-style="italic" font-size="12.00">kind:</text>
<text text-anchor="start" x="267.5" y="-44.4" font-family="Fira Mono Medium" font-size="12.00"> missionary</text>
<text text-anchor="start" x="233" y="-32.4" font-family="Fira Mono Medium" font-style="italic" font-size="12.00">can&#45;drive:</text>
<text text-anchor="start" x="309" y="-32.4" font-family="Fira Mono Medium" font-size="12.00"> true</text>
</g>
<!-- node_6&#45;&gt;node_1 -->
<g id="edge14" class="edge">
<title>node_6&#45;&gt;node_1</title>
<path fill="none" stroke="black" d="M358.75,-59.83C420.69,-73.21 513.68,-97.54 588,-135 624.27,-153.28 628.86,-165.16 661,-190 678.1,-203.22 697.02,-218.19 712.37,-230.43"/>
<polygon fill="black" stroke="black" points="710.5,-233.41 720.49,-236.92 714.86,-227.94 710.5,-233.41"/>
<text text-anchor="middle" x="519" y="-138" font-family="Fira Mono Medium" font-size="10.00">at</text>
</g>
<!-- node_7 -->
<g id="node8" class="node">
<title>node_7</title>
<polygon fill="none" stroke="black" points="587.5,-44 450.5,-44 450.5,0 587.5,0 587.5,-44"/>
<text text-anchor="start" x="500" y="-31.4" font-family="Fira Mono Medium" font-weight="bold" font-size="12.00">human</text>
<text text-anchor="start" x="458.5" y="-19.4" font-family="Fira Mono Medium" font-style="italic" font-size="12.00">kind:</text>
<text text-anchor="start" x="496.5" y="-19.4" font-family="Fira Mono Medium" font-size="12.00"> missionary</text>
<text text-anchor="start" x="462" y="-7.4" font-family="Fira Mono Medium" font-style="italic" font-size="12.00">can&#45;drive:</text>
<text text-anchor="start" x="538" y="-7.4" font-family="Fira Mono Medium" font-size="12.00"> true</text>
</g>
<!-- node_6&#45;&gt;node_7 -->
<g id="edge13" class="edge">
<title>node_6&#45;&gt;node_7</title>
<path fill="none" stroke="black" d="M358.8,-39.53C384.4,-36.71 413.73,-33.48 440.18,-30.57"/>
<polygon fill="black" stroke="black" points="440.6,-34.05 450.16,-29.47 439.83,-27.09 440.6,-34.05"/>
<text text-anchor="middle" x="404.5" y="-41" font-family="Fira Mono Medium" font-size="10.00">not&#45;equal</text>
</g>
<!-- node_7&#45;&gt;node_1 -->
<g id="edge16" class="edge">
<title>node_7&#45;&gt;node_1</title>
<path fill="none" stroke="black" d="M587.61,-24.91C613.06,-29.09 640.72,-37.71 661,-55 713.51,-99.75 732.89,-183.37 739.64,-226.95"/>
<polygon fill="black" stroke="black" points="736.18,-227.47 741.07,-236.87 743.11,-226.48 736.18,-227.47"/>
<text text-anchor="middle" x="633.5" y="-58" font-family="Fira Mono Medium" font-size="10.00">at</text>
</g>
<!-- node_7&#45;&gt;node_6 -->
<g id="edge15" class="edge">
<title>node_7&#45;&gt;node_6</title>
<path fill="none" stroke="black" d="M450.21,-14.06C426.88,-12.78 400.67,-12.99 377,-17 369.82,-18.22 362.44,-19.97 355.16,-22.02"/>
<polygon fill="black" stroke="black" points="353.89,-18.74 345.33,-24.98 355.92,-25.45 353.89,-18.74"/>
<text text-anchor="middle" x="404.5" y="-20" font-family="Fira Mono Medium" font-size="10.00">not&#45;equal</text>
</g>
</g>
</svg>
