<?xml version="1.0" encoding="UTF-8" standalone="no"?>
<!DOCTYPE svg PUBLIC "-//W3C//DTD SVG 1.1//EN"
 "http://www.w3.org/Graphics/SVG/1.1/DTD/svg11.dtd">
<!-- Generated by graphviz version 2.43.0 (0)
 -->
<!-- Title: %3 Pages: 1 -->
<svg width="1052pt" height="319pt"
 viewBox="0.00 0.00 1052.00 318.93" xmlns="http://www.w3.org/2000/svg" xmlns:xlink="http://www.w3.org/1999/xlink">
<g id="graph0" class="graph" transform="scale(1 1) rotate(0) translate(4 314.93)">
<title>%3</title>
<polygon fill="white" stroke="transparent" points="-4,4 -4,-314.93 1048,-314.93 1048,4 -4,4"/>
<!-- node_0 -->
<g id="node1" class="node">
<title>node_0</title>
<polygon fill="none" stroke="black" points="815,-144.93 693,-144.93 693,-108.93 815,-108.93 815,-144.93"/>
<text text-anchor="start" x="738.5" y="-130.33" font-family="Fira Mono Medium" font-weight="bold" font-size="12.00">bank</text>
<text text-anchor="start" x="701" y="-118.33" font-family="Fira Mono Medium" font-style="italic" font-size="12.00">location:</text>
<text text-anchor="start" x="769" y="-118.33" font-family="Fira Mono Medium" font-size="12.00"> left</text>
</g>
<!-- node_1 -->
<g id="node2" class="node">
<title>node_1</title>
<polygon fill="none" stroke="black" points="1044,-217.93 914,-217.93 914,-181.93 1044,-181.93 1044,-217.93"/>
<text text-anchor="start" x="963.5" y="-203.33" font-family="Fira Mono Medium" font-weight="bold" font-size="12.00">bank</text>
<text text-anchor="start" x="922" y="-191.33" font-family="Fira Mono Medium" font-style="italic" font-size="12.00">location:</text>
<text text-anchor="start" x="990" y="-191.33" font-family="Fira Mono Medium" font-size="12.00"> right</text>
</g>
<!-- node_0&#45;&gt;node_1 -->
<g id="edge1" class="edge">
<title>node_0&#45;&gt;node_1</title>
<path fill="none" stroke="black" d="M810.12,-144.98C841.22,-155.16 880.24,-167.93 912.84,-178.61"/>
<polygon fill="black" stroke="black" points="912.15,-182.06 922.74,-181.84 914.32,-175.41 912.15,-182.06"/>
<text text-anchor="middle" x="868.5" y="-174.93" font-family="Fira Mono Medium" font-size="10.00">not&#45;equal</text>
</g>
<!-- node_1&#45;&gt;node_0 -->
<g id="edge2" class="edge">
<title>node_1&#45;&gt;node_0</title>
<path fill="none" stroke="black" d="M959.18,-181.91C943.57,-168.15 920.12,-150.05 896,-140.93 873.85,-132.56 848.42,-128.51 825.31,-126.71"/>
<polygon fill="black" stroke="black" points="825.43,-123.21 815.23,-126.05 824.98,-130.19 825.43,-123.21"/>
<text text-anchor="middle" x="868.5" y="-143.93" font-family="Fira Mono Medium" font-size="10.00">not&#45;equal</text>
</g>
<!-- node_2 -->
<g id="node3" class="node">
<title>node_2</title>
<polygon fill="none" stroke="black" points="552.5,-87.93 498.5,-87.93 498.5,-51.93 552.5,-51.93 552.5,-87.93"/>
<text text-anchor="start" x="510" y="-67.83" font-family="Fira Mono Medium" font-weight="bold" font-size="12.00">boat</text>
</g>
<!-- node_2&#45;&gt;node_0 -->
<g id="edge3" class="edge">
<title>node_2&#45;&gt;node_0</title>
<path fill="none" stroke="black" d="M552.93,-76.59C584.6,-84.56 638.94,-98.23 682.99,-109.32"/>
<polygon fill="black" stroke="black" points="682.25,-112.74 692.8,-111.79 683.96,-105.95 682.25,-112.74"/>
<text text-anchor="middle" x="639.5" y="-107.93" font-family="Fira Mono Medium" font-size="10.00">at</text>
</g>
<!-- node_3 -->
<g id="node4" class="node">
<title>node_3</title>
<polygon fill="none" stroke="black" points="590.5,-216.93 460.5,-216.93 460.5,-172.93 590.5,-172.93 590.5,-216.93"/>
<text text-anchor="start" x="506.5" y="-204.33" font-family="Fira Mono Medium" font-weight="bold" font-size="12.00">human</text>
<text text-anchor="start" x="472.5" y="-192.33" font-family="Fira Mono Medium" font-style="italic" font-size="12.00">kind:</text>
<text text-anchor="start" x="510.5" y="-192.33" font-family="Fira Mono Medium" font-size="12.00"> cannibal</text>
<text text-anchor="start" x="468.5" y="-180.33" font-family="Fira Mono Medium" font-style="italic" font-size="12.00">can&#45;drive:</text>
<text text-anchor="start" x="544.5" y="-180.33" font-family="Fira Mono Medium" font-size="12.00"> true</text>
</g>
<!-- node_3&#45;&gt;node_0 -->
<g id="edge6" class="edge">
<title>node_3&#45;&gt;node_0</title>
<path fill="none" stroke="black" d="M590.8,-175.63C619.59,-166.99 653.6,-156.78 683.03,-147.94"/>
<polygon fill="black" stroke="black" points="684.25,-151.23 692.82,-145 682.23,-144.53 684.25,-151.23"/>
<text text-anchor="middle" x="639.5" y="-171.93" font-family="Fira Mono Medium" font-size="10.00">at</text>
</g>
<!-- node_4 -->
<g id="node5" class="node">
<title>node_4</title>
<polygon fill="none" stroke="black" points="366,-276.93 228,-276.93 228,-232.93 366,-232.93 366,-276.93"/>
<text text-anchor="start" x="278" y="-264.33" font-family="Fira Mono Medium" font-weight="bold" font-size="12.00">human</text>
<text text-anchor="start" x="244" y="-252.33" font-family="Fira Mono Medium" font-style="italic" font-size="12.00">kind:</text>
<text text-anchor="start" x="282" y="-252.33" font-family="Fira Mono Medium" font-size="12.00"> cannibal</text>
<text text-anchor="start" x="236" y="-240.33" font-family="Fira Mono Medium" font-style="italic" font-size="12.00">can&#45;drive:</text>
<text text-anchor="start" x="312" y="-240.33" font-family="Fira Mono Medium" font-size="12.00"> false</text>
</g>
<!-- node_3&#45;&gt;node_4 -->
<g id="edge4" class="edge">
<title>node_3&#45;&gt;node_4</title>
<path fill="none" stroke="black" d="M460.32,-187.54C435.93,-186.75 408.2,-188.34 384,-195.93 364.32,-202.11 345.13,-214.47 329.89,-226.29"/>
<polygon fill="black" stroke="black" points="327.44,-223.76 321.85,-232.76 331.83,-229.22 327.44,-223.76"/>
<text text-anchor="middle" x="411.5" y="-198.93" font-family="Fira Mono Medium" font-size="10.00">not&#45;equal</text>
</g>
<!-- node_5 -->
<g id="node6" class="node">
<title>node_5</title>
<polygon fill="none" stroke="black" points="823,-250.93 685,-250.93 685,-206.93 823,-206.93 823,-250.93"/>
<text text-anchor="start" x="735" y="-238.33" font-family="Fira Mono Medium" font-weight="bold" font-size="12.00">human</text>
<text text-anchor="start" x="701" y="-226.33" font-family="Fira Mono Medium" font-style="italic" font-size="12.00">kind:</text>
<text text-anchor="start" x="739" y="-226.33" font-family="Fira Mono Medium" font-size="12.00"> cannibal</text>
<text text-anchor="start" x="693" y="-214.33" font-family="Fira Mono Medium" font-style="italic" font-size="12.00">can&#45;drive:</text>
<text text-anchor="start" x="769" y="-214.33" font-family="Fira Mono Medium" font-size="12.00"> false</text>
</g>
<!-- node_3&#45;&gt;node_5 -->
<g id="edge5" class="edge">
<title>node_3&#45;&gt;node_5</title>
<path fill="none" stroke="black" d="M590.61,-190.58C614.75,-190.2 642.31,-191.27 667,-195.93 676.12,-197.66 685.52,-200.29 694.61,-203.34"/>
<polygon fill="black" stroke="black" points="693.72,-206.74 704.32,-206.79 696.06,-200.15 693.72,-206.74"/>
<text text-anchor="middle" x="639.5" y="-198.93" font-family="Fira Mono Medium" font-size="10.00">not&#45;equal</text>
</g>
<!-- node_4&#45;&gt;node_1 -->
<g id="edge9" class="edge">
<title>node_4&#45;&gt;node_1</title>
<path fill="none" stroke="black" d="M349.65,-277.08C360.81,-281.21 372.67,-285.11 384,-287.93 415.72,-295.85 424.37,-294.93 457,-296.93 620.19,-306.96 665.38,-303.36 823,-259.93 859.15,-249.98 898.53,-234.67 928.56,-222.01"/>
<polygon fill="black" stroke="black" points="930.13,-225.14 937.96,-218 927.39,-218.7 930.13,-225.14"/>
<text text-anchor="middle" x="639.5" y="-302.93" font-family="Fira Mono Medium" font-size="10.00">at</text>
</g>
<!-- node_4&#45;&gt;node_3 -->
<g id="edge7" class="edge">
<title>node_4&#45;&gt;node_3</title>
<path fill="none" stroke="black" d="M366,-234.9C372.08,-233.19 378.15,-231.51 384,-229.93 405.57,-224.11 429.1,-218.12 450.63,-212.77"/>
<polygon fill="black" stroke="black" points="451.5,-216.16 460.37,-210.36 449.82,-209.36 451.5,-216.16"/>
<text text-anchor="middle" x="411.5" y="-232.93" font-family="Fira Mono Medium" font-size="10.00">not&#45;equal</text>
</g>
<!-- node_4&#45;&gt;node_5 -->
<g id="edge8" class="edge">
<title>node_4&#45;&gt;node_5</title>
<path fill="none" stroke="black" d="M366.32,-268.02C441.14,-279.94 564.19,-292.41 667,-268.93 679.92,-265.98 693.22,-260.94 705.38,-255.4"/>
<polygon fill="black" stroke="black" points="706.9,-258.55 714.43,-251.1 703.89,-252.23 706.9,-258.55"/>
<text text-anchor="middle" x="525.5" y="-284.93" font-family="Fira Mono Medium" font-size="10.00">not&#45;equal</text>
</g>
<!-- node_5&#45;&gt;node_1 -->
<g id="edge12" class="edge">
<title>node_5&#45;&gt;node_1</title>
<path fill="none" stroke="black" d="M823.12,-220.08C848.56,-216.77 877.57,-212.99 903.56,-209.62"/>
<polygon fill="black" stroke="black" points="904.26,-213.05 913.73,-208.29 903.36,-206.11 904.26,-213.05"/>
<text text-anchor="middle" x="868.5" y="-219.93" font-family="Fira Mono Medium" font-size="10.00">at</text>
</g>
<!-- node_5&#45;&gt;node_3 -->
<g id="edge10" class="edge">
<title>node_5&#45;&gt;node_3</title>
<path fill="none" stroke="black" d="M684.98,-218.72C658.5,-214.75 628.07,-210.18 601,-206.12"/>
<polygon fill="black" stroke="black" points="601.21,-202.61 590.8,-204.59 600.17,-209.53 601.21,-202.61"/>
<text text-anchor="middle" x="639.5" y="-218.93" font-family="Fira Mono Medium" font-size="10.00">not&#45;equal</text>
</g>
<!-- node_5&#45;&gt;node_4 -->
<g id="edge11" class="edge">
<title>node_5&#45;&gt;node_4</title>
<path fill="none" stroke="black" d="M684.79,-232.83C602.12,-237.56 463.11,-245.5 376.19,-250.47"/>
<polygon fill="black" stroke="black" points="375.9,-246.98 366.12,-251.04 376.3,-253.97 375.9,-246.98"/>
<text text-anchor="middle" x="525.5" y="-247.93" font-family="Fira Mono Medium" font-size="10.00">not&#45;equal</text>
</g>
<!-- node_6 -->
<g id="node7" class="node">
<title>node_6</title>
<polygon fill="none" stroke="black" points="137,-110.93 0,-110.93 0,-66.93 137,-66.93 137,-110.93"/>
<text text-anchor="start" x="49.5" y="-98.33" font-family="Fira Mono Medium" font-weight="bold" font-size="12.00">human</text>
<text text-anchor="start" x="8" y="-86.33" font-family="Fira Mono Medium" font-style="italic" font-size="12.00">kind:</text>
<text text-anchor="start" x="46" y="-86.33" font-family="Fira Mono Medium" font-size="12.00"> missionary</text>
<text text-anchor="start" x="11.5" y="-74.33" font-family="Fira Mono Medium" font-style="italic" font-size="12.00">can&#45;drive:</text>
<text text-anchor="start" x="87.5" y="-74.33" font-family="Fira Mono Medium" font-size="12.00"> true</text>
</g>
<!-- node_6&#45;&gt;node_0 -->
<g id="edge15" class="edge">
<title>node_6&#45;&gt;node_0</title>
<path fill="none" stroke="black" d="M111.07,-66.82C124.83,-59.95 140.38,-52.68 155,-46.93 186.54,-34.53 194.75,-31.48 228,-24.93 387.65,6.48 432.74,5.76 594,-15.93 627.02,-20.38 638.25,-16.11 667,-32.93 695.53,-49.62 720.05,-78.85 735.52,-100.3"/>
<polygon fill="black" stroke="black" points="732.79,-102.49 741.39,-108.67 738.52,-98.47 732.79,-102.49"/>
<text text-anchor="middle" x="411.5" y="-4.93" font-family="Fira Mono Medium" font-size="10.00">at</text>
</g>
<!-- node_7 -->
<g id="node8" class="node">
<title>node_7</title>
<polygon fill="none" stroke="black" points="365.5,-77.93 228.5,-77.93 228.5,-33.93 365.5,-33.93 365.5,-77.93"/>
<text text-anchor="start" x="278" y="-65.33" font-family="Fira Mono Medium" font-weight="bold" font-size="12.00">human</text>
<text text-anchor="start" x="236.5" y="-53.33" font-family="Fira Mono Medium" font-style="italic" font-size="12.00">kind:</text>
<text text-anchor="start" x="274.5" y="-53.33" font-family="Fira Mono Medium" font-size="12.00"> missionary</text>
<text text-anchor="start" x="240" y="-41.33" font-family="Fira Mono Medium" font-style="italic" font-size="12.00">can&#45;drive:</text>
<text text-anchor="start" x="316" y="-41.33" font-family="Fira Mono Medium" font-size="12.00"> true</text>
</g>
<!-- node_6&#45;&gt;node_7 -->
<g id="edge13" class="edge">
<title>node_6&#45;&gt;node_7</title>
<path fill="none" stroke="black" d="M117.43,-66.89C129.44,-62.36 142.49,-58.27 155,-55.93 175.37,-52.14 197.69,-50.85 218.43,-50.83"/>
<polygon fill="black" stroke="black" points="218.45,-54.33 228.48,-50.92 218.51,-47.33 218.45,-54.33"/>
<text text-anchor="middle" x="182.5" y="-58.93" font-family="Fira Mono Medium" font-size="10.00">not&#45;equal</text>
</g>
<!-- node_8 -->
<g id="node9" class="node">
<title>node_8</title>
<polygon fill="none" stroke="black" points="594,-149.93 457,-149.93 457,-105.93 594,-105.93 594,-149.93"/>
<text text-anchor="start" x="506.5" y="-137.33" font-family="Fira Mono Medium" font-weight="bold" font-size="12.00">human</text>
<text text-anchor="start" x="465" y="-125.33" font-family="Fira Mono Medium" font-style="italic" font-size="12.00">kind:</text>
<text text-anchor="start" x="503" y="-125.33" font-family="Fira Mono Medium" font-size="12.00"> missionary</text>
<text text-anchor="start" x="468.5" y="-113.33" font-family="Fira Mono Medium" font-style="italic" font-size="12.00">can&#45;drive:</text>
<text text-anchor="start" x="544.5" y="-113.33" font-family="Fira Mono Medium" font-size="12.00"> true</text>
</g>
<!-- node_6&#45;&gt;node_8 -->
<g id="edge14" class="edge">
<title>node_6&#45;&gt;node_8</title>
<path fill="none" stroke="black" d="M107.83,-111.1C122.16,-118.22 138.87,-125.23 155,-128.93 253.53,-151.55 370.77,-145.95 446.35,-138.29"/>
<polygon fill="black" stroke="black" points="447.15,-141.73 456.73,-137.2 446.42,-134.77 447.15,-141.73"/>
<text text-anchor="middle" x="297" y="-147.93" font-family="Fira Mono Medium" font-size="10.00">not&#45;equal</text>
</g>
<!-- node_7&#45;&gt;node_0 -->
<g id="edge18" class="edge">
<title>node_7&#45;&gt;node_0</title>
<path fill="none" stroke="black" d="M365.67,-37.35C426.49,-23.7 517.71,-10.88 594,-31.93 643.58,-45.62 693.28,-79.29 723.59,-102.63"/>
<polygon fill="black" stroke="black" points="721.58,-105.5 731.61,-108.92 725.9,-99.99 721.58,-105.5"/>
<text text-anchor="middle" x="525.5" y="-34.93" font-family="Fira Mono Medium" font-size="10.00">at</text>
</g>
<!-- node_7&#45;&gt;node_6 -->
<g id="edge16" class="edge">
<title>node_7&#45;&gt;node_6</title>
<path fill="none" stroke="black" d="M228.31,-65.8C202.76,-69.52 173.5,-73.78 147.11,-77.63"/>
<polygon fill="black" stroke="black" points="146.54,-74.17 137.15,-79.08 147.55,-81.1 146.54,-74.17"/>
<text text-anchor="middle" x="182.5" y="-78.93" font-family="Fira Mono Medium" font-size="10.00">not&#45;equal</text>
</g>
<!-- node_7&#45;&gt;node_8 -->
<g id="edge17" class="edge">
<title>node_7&#45;&gt;node_8</title>
<path fill="none" stroke="black" d="M365.71,-70.35C389.17,-75.97 415.46,-82.98 439,-90.93 448.42,-94.12 458.25,-97.91 467.75,-101.83"/>
<polygon fill="black" stroke="black" points="466.54,-105.12 477.11,-105.78 469.26,-98.67 466.54,-105.12"/>
<text text-anchor="middle" x="411.5" y="-93.93" font-family="Fira Mono Medium" font-size="10.00">not&#45;equal</text>
</g>
<!-- node_8&#45;&gt;node_0 -->
<g id="edge21" class="edge">
<title>node_8&#45;&gt;node_0</title>
<path fill="none" stroke="black" d="M594.15,-127.64C622.01,-127.51 654.3,-127.37 682.46,-127.25"/>
<polygon fill="black" stroke="black" points="682.64,-130.75 692.63,-127.2 682.61,-123.75 682.64,-130.75"/>
<text text-anchor="middle" x="639.5" y="-129.93" font-family="Fira Mono Medium" font-size="10.00">at</text>
</g>
<!-- node_8&#45;&gt;node_6 -->
<g id="edge19" class="edge">
<title>node_8&#45;&gt;node_6</title>
<path fill="none" stroke="black" d="M456.87,-122.14C374.12,-115.05 234.31,-103.06 147.22,-95.6"/>
<polygon fill="black" stroke="black" points="147.39,-92.1 137.13,-94.73 146.79,-99.07 147.39,-92.1"/>
<text text-anchor="middle" x="297" y="-116.93" font-family="Fira Mono Medium" font-size="10.00">not&#45;equal</text>
</g>
<!-- node_8&#45;&gt;node_7 -->
<g id="edge20" class="edge">
<title>node_8&#45;&gt;node_7</title>
<path fill="none" stroke="black" d="M467.98,-105.79C464.04,-103.13 460.32,-100.18 457,-96.93 443.93,-84.15 454.36,-69.85 439,-59.93 420.62,-48.07 397.89,-44 376.09,-43.73"/>
<polygon fill="black" stroke="black" points="375.77,-40.23 365.82,-43.87 375.87,-47.23 375.77,-40.23"/>
<text text-anchor="middle" x="411.5" y="-62.93" font-family="Fira Mono Medium" font-size="10.00">not&#45;equal</text>
</g>
</g>
</svg>
