<?xml version="1.0" encoding="UTF-8" standalone="no"?>
<!DOCTYPE svg PUBLIC "-//W3C//DTD SVG 1.1//EN"
 "http://www.w3.org/Graphics/SVG/1.1/DTD/svg11.dtd">
<!-- Generated by graphviz version 2.43.0 (0)
 -->
<!-- Title: %3 Pages: 1 -->
<svg width="1052pt" height="378pt"
 viewBox="0.00 0.00 1052.00 378.00" xmlns="http://www.w3.org/2000/svg" xmlns:xlink="http://www.w3.org/1999/xlink">
<g id="graph0" class="graph" transform="scale(1 1) rotate(0) translate(4 374)">
<title>%3</title>
<polygon fill="white" stroke="transparent" points="-4,4 -4,-374 1048,-374 1048,4 -4,4"/>
<!-- node_0 -->
<g id="node1" class="node">
<title>node_0</title>
<polygon fill="none" stroke="black" points="815,-339 693,-339 693,-303 815,-303 815,-339"/>
<text text-anchor="start" x="738.5" y="-324.4" font-family="Fira Mono Medium" font-weight="bold" font-size="12.00">bank</text>
<text text-anchor="start" x="701" y="-312.4" font-family="Fira Mono Medium" font-style="italic" font-size="12.00">location:</text>
<text text-anchor="start" x="769" y="-312.4" font-family="Fira Mono Medium" font-size="12.00"> left</text>
</g>
<!-- node_1 -->
<g id="node2" class="node">
<title>node_1</title>
<polygon fill="none" stroke="black" points="1044,-255 914,-255 914,-219 1044,-219 1044,-255"/>
<text text-anchor="start" x="963.5" y="-240.4" font-family="Fira Mono Medium" font-weight="bold" font-size="12.00">bank</text>
<text text-anchor="start" x="922" y="-228.4" font-family="Fira Mono Medium" font-style="italic" font-size="12.00">location:</text>
<text text-anchor="start" x="990" y="-228.4" font-family="Fira Mono Medium" font-size="12.00"> right</text>
</g>
<!-- node_0&#45;&gt;node_1 -->
<g id="edge1" class="edge">
<title>node_0&#45;&gt;node_1</title>
<path fill="none" stroke="black" d="M815.12,-318.75C840.85,-316.11 870.71,-310.74 896,-300 917.11,-291.04 937.57,-275.34 952.77,-261.85"/>
<polygon fill="black" stroke="black" points="955.19,-264.38 960.22,-255.05 950.47,-259.21 955.19,-264.38"/>
<text text-anchor="middle" x="868.5" y="-317" font-family="Fira Mono Medium" font-size="10.00">not&#45;equal</text>
</g>
<!-- node_1&#45;&gt;node_0 -->
<g id="edge2" class="edge">
<title>node_1&#45;&gt;node_0</title>
<path fill="none" stroke="black" d="M927.46,-255.08C901.54,-264.45 869.52,-276.16 841,-287 834.54,-289.46 822.7,-294.11 809.82,-299.2"/>
<polygon fill="black" stroke="black" points="808.34,-296.02 800.33,-302.96 810.91,-302.53 808.34,-296.02"/>
<text text-anchor="middle" x="868.5" y="-290" font-family="Fira Mono Medium" font-size="10.00">not&#45;equal</text>
</g>
<!-- node_2 -->
<g id="node3" class="node">
<title>node_2</title>
<polygon fill="none" stroke="black" points="781,-285 727,-285 727,-249 781,-249 781,-285"/>
<text text-anchor="start" x="738.5" y="-264.9" font-family="Fira Mono Medium" font-weight="bold" font-size="12.00">boat</text>
</g>
<!-- node_2&#45;&gt;node_1 -->
<g id="edge3" class="edge">
<title>node_2&#45;&gt;node_1</title>
<path fill="none" stroke="black" d="M781.34,-263.27C798.36,-260.87 820.98,-257.71 841,-255 861.34,-252.25 883.38,-249.32 903.72,-246.65"/>
<polygon fill="black" stroke="black" points="904.4,-250.09 913.86,-245.32 903.49,-243.15 904.4,-250.09"/>
<text text-anchor="middle" x="868.5" y="-258" font-family="Fira Mono Medium" font-size="10.00">at</text>
</g>
<!-- node_3 -->
<g id="node4" class="node">
<title>node_3</title>
<polygon fill="none" stroke="black" points="361.5,-149 231.5,-149 231.5,-105 361.5,-105 361.5,-149"/>
<text text-anchor="start" x="277.5" y="-136.4" font-family="Fira Mono Medium" font-weight="bold" font-size="12.00">human</text>
<text text-anchor="start" x="243.5" y="-124.4" font-family="Fira Mono Medium" font-style="italic" font-size="12.00">kind:</text>
<text text-anchor="start" x="281.5" y="-124.4" font-family="Fira Mono Medium" font-size="12.00"> cannibal</text>
<text text-anchor="start" x="239.5" y="-112.4" font-family="Fira Mono Medium" font-style="italic" font-size="12.00">can&#45;drive:</text>
<text text-anchor="start" x="315.5" y="-112.4" font-family="Fira Mono Medium" font-size="12.00"> true</text>
</g>
<!-- node_3&#45;&gt;node_1 -->
<g id="edge6" class="edge">
<title>node_3&#45;&gt;node_1</title>
<path fill="none" stroke="black" d="M347.87,-149.09C378.52,-161.52 418.82,-176.1 456,-184 613.21,-217.41 801.68,-229.94 903.64,-234.51"/>
<polygon fill="black" stroke="black" points="903.69,-238.01 913.83,-234.95 903.99,-231.02 903.69,-238.01"/>
<text text-anchor="middle" x="639.5" y="-220" font-family="Fira Mono Medium" font-size="10.00">at</text>
</g>
<!-- node_4 -->
<g id="node5" class="node">
<title>node_4</title>
<polygon fill="none" stroke="black" points="594,-175 456,-175 456,-131 594,-131 594,-175"/>
<text text-anchor="start" x="506" y="-162.4" font-family="Fira Mono Medium" font-weight="bold" font-size="12.00">human</text>
<text text-anchor="start" x="472" y="-150.4" font-family="Fira Mono Medium" font-style="italic" font-size="12.00">kind:</text>
<text text-anchor="start" x="510" y="-150.4" font-family="Fira Mono Medium" font-size="12.00"> cannibal</text>
<text text-anchor="start" x="464" y="-138.4" font-family="Fira Mono Medium" font-style="italic" font-size="12.00">can&#45;drive:</text>
<text text-anchor="start" x="540" y="-138.4" font-family="Fira Mono Medium" font-size="12.00"> false</text>
</g>
<!-- node_3&#45;&gt;node_4 -->
<g id="edge4" class="edge">
<title>node_3&#45;&gt;node_4</title>
<path fill="none" stroke="black" d="M361.78,-123.75C385.81,-123.51 413.26,-124.39 438,-128 440.65,-128.39 443.33,-128.83 446.03,-129.33"/>
<polygon fill="black" stroke="black" points="445.34,-132.77 455.84,-131.35 446.75,-125.91 445.34,-132.77"/>
<text text-anchor="middle" x="410.5" y="-131" font-family="Fira Mono Medium" font-size="10.00">not&#45;equal</text>
</g>
<!-- node_5 -->
<g id="node6" class="node">
<title>node_5</title>
<polygon fill="none" stroke="black" points="823,-141 685,-141 685,-97 823,-97 823,-141"/>
<text text-anchor="start" x="735" y="-128.4" font-family="Fira Mono Medium" font-weight="bold" font-size="12.00">human</text>
<text text-anchor="start" x="701" y="-116.4" font-family="Fira Mono Medium" font-style="italic" font-size="12.00">kind:</text>
<text text-anchor="start" x="739" y="-116.4" font-family="Fira Mono Medium" font-size="12.00"> cannibal</text>
<text text-anchor="start" x="693" y="-104.4" font-family="Fira Mono Medium" font-style="italic" font-size="12.00">can&#45;drive:</text>
<text text-anchor="start" x="769" y="-104.4" font-family="Fira Mono Medium" font-size="12.00"> false</text>
</g>
<!-- node_3&#45;&gt;node_5 -->
<g id="edge5" class="edge">
<title>node_3&#45;&gt;node_5</title>
<path fill="none" stroke="black" d="M333.14,-104.82C348.13,-96.18 366,-86.76 383,-80 414.15,-67.61 422.75,-65.26 456,-61 549.15,-49.08 578.01,-42.03 667,-72 681.67,-76.94 696.78,-84.31 710.16,-91.75"/>
<polygon fill="black" stroke="black" points="708.71,-94.95 719.12,-96.89 712.19,-88.88 708.71,-94.95"/>
<text text-anchor="middle" x="525" y="-64" font-family="Fira Mono Medium" font-size="10.00">not&#45;equal</text>
</g>
<!-- node_4&#45;&gt;node_0 -->
<g id="edge9" class="edge">
<title>node_4&#45;&gt;node_0</title>
<path fill="none" stroke="black" d="M594.31,-154.54C620.49,-158.68 648.48,-168.03 667,-188 699.5,-223.03 654.93,-256.86 685,-294 685.59,-294.73 686.21,-295.45 686.85,-296.14"/>
<polygon fill="black" stroke="black" points="684.61,-298.84 694.41,-302.88 689.27,-293.61 684.61,-298.84"/>
<text text-anchor="middle" x="639.5" y="-191" font-family="Fira Mono Medium" font-size="10.00">at</text>
</g>
<!-- node_4&#45;&gt;node_3 -->
<g id="edge7" class="edge">
<title>node_4&#45;&gt;node_3</title>
<path fill="none" stroke="black" d="M455.81,-146.79C432.67,-144.53 406.69,-141.84 383,-139 379.36,-138.56 375.64,-138.1 371.88,-137.62"/>
<polygon fill="black" stroke="black" points="372.26,-134.14 361.89,-136.32 371.35,-141.08 372.26,-134.14"/>
<text text-anchor="middle" x="410.5" y="-148" font-family="Fira Mono Medium" font-size="10.00">not&#45;equal</text>
</g>
<!-- node_4&#45;&gt;node_5 -->
<g id="edge8" class="edge">
<title>node_4&#45;&gt;node_5</title>
<path fill="none" stroke="black" d="M574.68,-130.85C586.64,-126.39 599.59,-122.35 612,-120 632.06,-116.21 654.02,-114.78 674.51,-114.58"/>
<polygon fill="black" stroke="black" points="674.75,-118.08 684.75,-114.58 674.75,-111.08 674.75,-118.08"/>
<text text-anchor="middle" x="639.5" y="-123" font-family="Fira Mono Medium" font-size="10.00">not&#45;equal</text>
</g>
<!-- node_5&#45;&gt;node_1 -->
<g id="edge12" class="edge">
<title>node_5&#45;&gt;node_1</title>
<path fill="none" stroke="black" d="M796.68,-141.06C836.1,-161.91 894.98,-193.07 934.87,-214.18"/>
<polygon fill="black" stroke="black" points="933.35,-217.33 943.82,-218.91 936.62,-211.14 933.35,-217.33"/>
<text text-anchor="middle" x="868.5" y="-196" font-family="Fira Mono Medium" font-size="10.00">at</text>
</g>
<!-- node_5&#45;&gt;node_3 -->
<g id="edge10" class="edge">
<title>node_5&#45;&gt;node_3</title>
<path fill="none" stroke="black" d="M684.97,-112.08C678.9,-111.65 672.84,-111.27 667,-111 573.32,-106.65 549.66,-106.28 456,-111 428.45,-112.39 398.3,-115.12 371.76,-117.95"/>
<polygon fill="black" stroke="black" points="371.35,-114.47 361.78,-119.03 372.1,-121.43 371.35,-114.47"/>
<text text-anchor="middle" x="525" y="-114" font-family="Fira Mono Medium" font-size="10.00">not&#45;equal</text>
</g>
<!-- node_5&#45;&gt;node_4 -->
<g id="edge11" class="edge">
<title>node_5&#45;&gt;node_4</title>
<path fill="none" stroke="black" d="M684.94,-129.19C659.47,-133.01 630.34,-137.37 604.04,-141.31"/>
<polygon fill="black" stroke="black" points="603.48,-137.86 594.11,-142.8 604.52,-144.78 603.48,-137.86"/>
<text text-anchor="middle" x="639.5" y="-144" font-family="Fira Mono Medium" font-size="10.00">not&#45;equal</text>
</g>
<!-- node_6 -->
<g id="node7" class="node">
<title>node_6</title>
<polygon fill="none" stroke="black" points="137,-356 0,-356 0,-312 137,-312 137,-356"/>
<text text-anchor="start" x="49.5" y="-343.4" font-family="Fira Mono Medium" font-weight="bold" font-size="12.00">human</text>
<text text-anchor="start" x="8" y="-331.4" font-family="Fira Mono Medium" font-style="italic" font-size="12.00">kind:</text>
<text text-anchor="start" x="46" y="-331.4" font-family="Fira Mono Medium" font-size="12.00"> missionary</text>
<text text-anchor="start" x="11.5" y="-319.4" font-family="Fira Mono Medium" font-style="italic" font-size="12.00">can&#45;drive:</text>
<text text-anchor="start" x="87.5" y="-319.4" font-family="Fira Mono Medium" font-size="12.00"> true</text>
</g>
<!-- node_6&#45;&gt;node_1 -->
<g id="edge15" class="edge">
<title>node_6&#45;&gt;node_1</title>
<path fill="none" stroke="black" d="M73.3,-311.83C87.48,-237.23 144.45,0 295.5,0 295.5,0 295.5,0 755,0 868.72,0 941.48,-146.53 967.38,-209.16"/>
<polygon fill="black" stroke="black" points="964.28,-210.83 971.27,-218.8 970.78,-208.21 964.28,-210.83"/>
<text text-anchor="middle" x="525" y="-3" font-family="Fira Mono Medium" font-size="10.00">at</text>
</g>
<!-- node_7 -->
<g id="node8" class="node">
<title>node_7</title>
<polygon fill="none" stroke="black" points="365,-322 228,-322 228,-278 365,-278 365,-322"/>
<text text-anchor="start" x="277.5" y="-309.4" font-family="Fira Mono Medium" font-weight="bold" font-size="12.00">human</text>
<text text-anchor="start" x="236" y="-297.4" font-family="Fira Mono Medium" font-style="italic" font-size="12.00">kind:</text>
<text text-anchor="start" x="274" y="-297.4" font-family="Fira Mono Medium" font-size="12.00"> missionary</text>
<text text-anchor="start" x="239.5" y="-285.4" font-family="Fira Mono Medium" font-style="italic" font-size="12.00">can&#45;drive:</text>
<text text-anchor="start" x="315.5" y="-285.4" font-family="Fira Mono Medium" font-size="12.00"> true</text>
</g>
<!-- node_6&#45;&gt;node_7 -->
<g id="edge13" class="edge">
<title>node_6&#45;&gt;node_7</title>
<path fill="none" stroke="black" d="M137,-323.84C162.49,-320.01 191.69,-315.62 218.02,-311.66"/>
<polygon fill="black" stroke="black" points="218.59,-315.11 227.96,-310.16 217.55,-308.19 218.59,-315.11"/>
<text text-anchor="middle" x="182.5" y="-324" font-family="Fira Mono Medium" font-size="10.00">not&#45;equal</text>
</g>
<!-- node_8 -->
<g id="node9" class="node">
<title>node_8</title>
<polygon fill="none" stroke="black" points="593.5,-356 456.5,-356 456.5,-312 593.5,-312 593.5,-356"/>
<text text-anchor="start" x="506" y="-343.4" font-family="Fira Mono Medium" font-weight="bold" font-size="12.00">human</text>
<text text-anchor="start" x="464.5" y="-331.4" font-family="Fira Mono Medium" font-style="italic" font-size="12.00">kind:</text>
<text text-anchor="start" x="502.5" y="-331.4" font-family="Fira Mono Medium" font-size="12.00"> missionary</text>
<text text-anchor="start" x="468" y="-319.4" font-family="Fira Mono Medium" font-style="italic" font-size="12.00">can&#45;drive:</text>
<text text-anchor="start" x="544" y="-319.4" font-family="Fira Mono Medium" font-size="12.00"> true</text>
</g>
<!-- node_6&#45;&gt;node_8 -->
<g id="edge14" class="edge">
<title>node_6&#45;&gt;node_8</title>
<path fill="none" stroke="black" d="M137.17,-335.73C143.2,-335.84 149.21,-335.93 155,-336 280.77,-337.47 312.23,-337.46 438,-336 440.71,-335.97 443.46,-335.93 446.24,-335.89"/>
<polygon fill="black" stroke="black" points="446.46,-339.39 456.4,-335.72 446.34,-332.39 446.46,-339.39"/>
<text text-anchor="middle" x="296.5" y="-340" font-family="Fira Mono Medium" font-size="10.00">not&#45;equal</text>
</g>
<!-- node_7&#45;&gt;node_0 -->
<g id="edge18" class="edge">
<title>node_7&#45;&gt;node_0</title>
<path fill="none" stroke="black" d="M365.1,-290.49C371.14,-289.89 377.18,-289.37 383,-289 429.64,-286.01 553.99,-287.99 594,-292 623.34,-294.94 655.39,-300.35 682.98,-305.71"/>
<polygon fill="black" stroke="black" points="682.43,-309.17 692.92,-307.68 683.79,-302.31 682.43,-309.17"/>
<text text-anchor="middle" x="525" y="-295" font-family="Fira Mono Medium" font-size="10.00">at</text>
</g>
<!-- node_7&#45;&gt;node_6 -->
<g id="edge16" class="edge">
<title>node_7&#45;&gt;node_6</title>
<path fill="none" stroke="black" d="M227.81,-294.05C204.54,-293.45 178.46,-294.39 155,-299 144.62,-301.04 133.92,-304.35 123.75,-308.14"/>
<polygon fill="black" stroke="black" points="122.21,-304.99 114.19,-311.9 124.77,-311.5 122.21,-304.99"/>
<text text-anchor="middle" x="182.5" y="-302" font-family="Fira Mono Medium" font-size="10.00">not&#45;equal</text>
</g>
<!-- node_7&#45;&gt;node_8 -->
<g id="edge17" class="edge">
<title>node_7&#45;&gt;node_8</title>
<path fill="none" stroke="black" d="M365.15,-310.16C390.7,-313.99 419.96,-318.38 446.35,-322.34"/>
<polygon fill="black" stroke="black" points="445.9,-325.82 456.31,-323.84 446.94,-318.89 445.9,-325.82"/>
<text text-anchor="middle" x="410.5" y="-324" font-family="Fira Mono Medium" font-size="10.00">not&#45;equal</text>
</g>
<!-- node_8&#45;&gt;node_0 -->
<g id="edge21" class="edge">
<title>node_8&#45;&gt;node_0</title>
<path fill="none" stroke="black" d="M593.8,-330.12C621.84,-328.51 654.35,-326.65 682.65,-325.03"/>
<polygon fill="black" stroke="black" points="683.09,-328.51 692.87,-324.44 682.69,-321.52 683.09,-328.51"/>
<text text-anchor="middle" x="639.5" y="-332" font-family="Fira Mono Medium" font-size="10.00">at</text>
</g>
<!-- node_8&#45;&gt;node_6 -->
<g id="edge19" class="edge">
<title>node_8&#45;&gt;node_6</title>
<path fill="none" stroke="black" d="M456.08,-347.65C449.98,-348.57 443.89,-349.38 438,-350 312.92,-363.27 280.07,-363.33 155,-350 152.35,-349.72 149.65,-349.4 146.93,-349.05"/>
<polygon fill="black" stroke="black" points="147.42,-345.58 137.03,-347.65 146.44,-352.51 147.42,-345.58"/>
<text text-anchor="middle" x="296.5" y="-362" font-family="Fira Mono Medium" font-size="10.00">not&#45;equal</text>
</g>
<!-- node_8&#45;&gt;node_7 -->
<g id="edge20" class="edge">
<title>node_8&#45;&gt;node_7</title>
<path fill="none" stroke="black" d="M479.04,-311.9C466.1,-306.6 451.76,-301.69 438,-299 417.93,-295.07 395.94,-293.82 375.43,-293.92"/>
<polygon fill="black" stroke="black" points="375.13,-290.43 365.19,-294.08 375.24,-297.43 375.13,-290.43"/>
<text text-anchor="middle" x="410.5" y="-302" font-family="Fira Mono Medium" font-size="10.00">not&#45;equal</text>
</g>
</g>
</svg>
