<?xml version="1.0" encoding="UTF-8" standalone="no"?>
<!DOCTYPE svg PUBLIC "-//W3C//DTD SVG 1.1//EN"
 "http://www.w3.org/Graphics/SVG/1.1/DTD/svg11.dtd">
<!-- Generated by graphviz version 2.43.0 (0)
 -->
<!-- Title: %3 Pages: 1 -->
<svg width="824pt" height="369pt"
 viewBox="0.00 0.00 824.00 369.00" xmlns="http://www.w3.org/2000/svg" xmlns:xlink="http://www.w3.org/1999/xlink">
<g id="graph0" class="graph" transform="scale(1 1) rotate(0) translate(4 365)">
<title>%3</title>
<polygon fill="white" stroke="transparent" points="-4,4 -4,-365 820,-365 820,4 -4,4"/>
<!-- node_0 -->
<g id="node1" class="node">
<title>node_0</title>
<polygon fill="none" stroke="black" points="587,-133 465,-133 465,-97 587,-97 587,-133"/>
<text text-anchor="start" x="510.5" y="-118.4" font-family="Fira Mono Medium" font-weight="bold" font-size="12.00">bank</text>
<text text-anchor="start" x="473" y="-106.4" font-family="Fira Mono Medium" font-style="italic" font-size="12.00">location:</text>
<text text-anchor="start" x="541" y="-106.4" font-family="Fira Mono Medium" font-size="12.00"> left</text>
</g>
<!-- node_1 -->
<g id="node2" class="node">
<title>node_1</title>
<polygon fill="none" stroke="black" points="816,-260 686,-260 686,-224 816,-224 816,-260"/>
<text text-anchor="start" x="735.5" y="-245.4" font-family="Fira Mono Medium" font-weight="bold" font-size="12.00">bank</text>
<text text-anchor="start" x="694" y="-233.4" font-family="Fira Mono Medium" font-style="italic" font-size="12.00">location:</text>
<text text-anchor="start" x="762" y="-233.4" font-family="Fira Mono Medium" font-size="12.00"> right</text>
</g>
<!-- node_0&#45;&gt;node_1 -->
<g id="edge1" class="edge">
<title>node_0&#45;&gt;node_1</title>
<path fill="none" stroke="black" d="M558.95,-133.2C598.53,-155.74 666.01,-194.16 709.26,-218.8"/>
<polygon fill="black" stroke="black" points="707.69,-221.93 718.11,-223.84 711.15,-215.85 707.69,-221.93"/>
<text text-anchor="middle" x="640.5" y="-196" font-family="Fira Mono Medium" font-size="10.00">not&#45;equal</text>
</g>
<!-- node_1&#45;&gt;node_0 -->
<g id="edge2" class="edge">
<title>node_1&#45;&gt;node_0</title>
<path fill="none" stroke="black" d="M738.36,-223.93C724.2,-203.4 698.38,-170.39 668,-152 646.69,-139.1 620.92,-130.65 597.27,-125.14"/>
<polygon fill="black" stroke="black" points="597.8,-121.67 587.28,-122.95 596.3,-128.51 597.8,-121.67"/>
<text text-anchor="middle" x="640.5" y="-155" font-family="Fira Mono Medium" font-size="10.00">not&#45;equal</text>
</g>
<!-- node_2 -->
<g id="node3" class="node">
<title>node_2</title>
<polygon fill="none" stroke="black" points="553,-361 499,-361 499,-325 553,-325 553,-361"/>
<text text-anchor="start" x="510.5" y="-340.9" font-family="Fira Mono Medium" font-weight="bold" font-size="12.00">boat</text>
</g>
<!-- node_2&#45;&gt;node_1 -->
<g id="edge3" class="edge">
<title>node_2&#45;&gt;node_1</title>
<path fill="none" stroke="black" d="M553.19,-340.79C582.48,-337.5 630.69,-329.55 668,-311 689.85,-300.14 710.83,-282.3 726.1,-267.48"/>
<polygon fill="black" stroke="black" points="728.93,-269.6 733.54,-260.06 723.99,-264.64 728.93,-269.6"/>
<text text-anchor="middle" x="640.5" y="-332" font-family="Fira Mono Medium" font-size="10.00">at</text>
</g>
<!-- node_3 -->
<g id="node4" class="node">
<title>node_3</title>
<polygon fill="none" stroke="black" points="133.5,-229 3.5,-229 3.5,-185 133.5,-185 133.5,-229"/>
<text text-anchor="start" x="49.5" y="-216.4" font-family="Fira Mono Medium" font-weight="bold" font-size="12.00">human</text>
<text text-anchor="start" x="15.5" y="-204.4" font-family="Fira Mono Medium" font-style="italic" font-size="12.00">kind:</text>
<text text-anchor="start" x="53.5" y="-204.4" font-family="Fira Mono Medium" font-size="12.00"> cannibal</text>
<text text-anchor="start" x="11.5" y="-192.4" font-family="Fira Mono Medium" font-style="italic" font-size="12.00">can&#45;drive:</text>
<text text-anchor="start" x="87.5" y="-192.4" font-family="Fira Mono Medium" font-size="12.00"> true</text>
</g>
<!-- node_3&#45;&gt;node_1 -->
<g id="edge6" class="edge">
<title>node_3&#45;&gt;node_1</title>
<path fill="none" stroke="black" d="M116.85,-229.11C147.73,-242.25 189.35,-257.56 228,-264 385.65,-290.25 573.57,-269.94 675.41,-254.73"/>
<polygon fill="black" stroke="black" points="676.23,-258.15 685.59,-253.18 675.18,-251.23 676.23,-258.15"/>
<text text-anchor="middle" x="411.5" y="-279" font-family="Fira Mono Medium" font-size="10.00">at</text>
</g>
<!-- node_4 -->
<g id="node5" class="node">
<title>node_4</title>
<polygon fill="none" stroke="black" points="366,-255 228,-255 228,-211 366,-211 366,-255"/>
<text text-anchor="start" x="278" y="-242.4" font-family="Fira Mono Medium" font-weight="bold" font-size="12.00">human</text>
<text text-anchor="start" x="244" y="-230.4" font-family="Fira Mono Medium" font-style="italic" font-size="12.00">kind:</text>
<text text-anchor="start" x="282" y="-230.4" font-family="Fira Mono Medium" font-size="12.00"> cannibal</text>
<text text-anchor="start" x="236" y="-218.4" font-family="Fira Mono Medium" font-style="italic" font-size="12.00">can&#45;drive:</text>
<text text-anchor="start" x="312" y="-218.4" font-family="Fira Mono Medium" font-size="12.00"> false</text>
</g>
<!-- node_3&#45;&gt;node_4 -->
<g id="edge4" class="edge">
<title>node_3&#45;&gt;node_4</title>
<path fill="none" stroke="black" d="M133.89,-216.32C141.01,-217.27 148.15,-218.18 155,-219 175.27,-221.43 197.21,-223.75 217.61,-225.79"/>
<polygon fill="black" stroke="black" points="217.51,-229.29 227.81,-226.79 218.2,-222.33 217.51,-229.29"/>
<text text-anchor="middle" x="182.5" y="-227" font-family="Fira Mono Medium" font-size="10.00">not&#45;equal</text>
</g>
<!-- node_5 -->
<g id="node6" class="node">
<title>node_5</title>
<polygon fill="none" stroke="black" points="595,-221 457,-221 457,-177 595,-177 595,-221"/>
<text text-anchor="start" x="507" y="-208.4" font-family="Fira Mono Medium" font-weight="bold" font-size="12.00">human</text>
<text text-anchor="start" x="473" y="-196.4" font-family="Fira Mono Medium" font-style="italic" font-size="12.00">kind:</text>
<text text-anchor="start" x="511" y="-196.4" font-family="Fira Mono Medium" font-size="12.00"> cannibal</text>
<text text-anchor="start" x="465" y="-184.4" font-family="Fira Mono Medium" font-style="italic" font-size="12.00">can&#45;drive:</text>
<text text-anchor="start" x="541" y="-184.4" font-family="Fira Mono Medium" font-size="12.00"> false</text>
</g>
<!-- node_3&#45;&gt;node_5 -->
<g id="edge5" class="edge">
<title>node_3&#45;&gt;node_5</title>
<path fill="none" stroke="black" d="M133.61,-199.24C207.32,-191.34 331.95,-181.18 439,-188 441.41,-188.15 443.85,-188.33 446.32,-188.53"/>
<polygon fill="black" stroke="black" points="446.27,-192.04 456.54,-189.45 446.89,-185.07 446.27,-192.04"/>
<text text-anchor="middle" x="297" y="-193" font-family="Fira Mono Medium" font-size="10.00">not&#45;equal</text>
</g>
<!-- node_4&#45;&gt;node_1 -->
<g id="edge9" class="edge">
<title>node_4&#45;&gt;node_1</title>
<path fill="none" stroke="black" d="M366.07,-234.59C372.13,-234.73 378.18,-234.87 384,-235 485.78,-237.29 511.21,-238.15 613,-240 633.35,-240.37 655.39,-240.72 675.73,-241.01"/>
<polygon fill="black" stroke="black" points="675.83,-244.52 685.88,-241.16 675.93,-237.52 675.83,-244.52"/>
<text text-anchor="middle" x="526" y="-242" font-family="Fira Mono Medium" font-size="10.00">at</text>
</g>
<!-- node_4&#45;&gt;node_3 -->
<g id="edge7" class="edge">
<title>node_4&#45;&gt;node_3</title>
<path fill="none" stroke="black" d="M233.58,-210.99C225.73,-208.94 217.73,-207.19 210,-206 188.66,-202.73 165.29,-201.84 143.84,-202.07"/>
<polygon fill="black" stroke="black" points="143.74,-198.58 133.81,-202.27 143.87,-205.57 143.74,-198.58"/>
<text text-anchor="middle" x="182.5" y="-209" font-family="Fira Mono Medium" font-size="10.00">not&#45;equal</text>
</g>
<!-- node_4&#45;&gt;node_5 -->
<g id="edge8" class="edge">
<title>node_4&#45;&gt;node_5</title>
<path fill="none" stroke="black" d="M366.11,-222.8C391.58,-218.98 420.71,-214.62 447.01,-210.68"/>
<polygon fill="black" stroke="black" points="447.57,-214.14 456.94,-209.19 446.53,-207.21 447.57,-214.14"/>
<text text-anchor="middle" x="411.5" y="-223" font-family="Fira Mono Medium" font-size="10.00">not&#45;equal</text>
</g>
<!-- node_5&#45;&gt;node_1 -->
<g id="edge12" class="edge">
<title>node_5&#45;&gt;node_1</title>
<path fill="none" stroke="black" d="M595.12,-212.14C620.67,-217.06 649.83,-222.68 675.9,-227.71"/>
<polygon fill="black" stroke="black" points="675.25,-231.15 685.73,-229.61 676.57,-224.28 675.25,-231.15"/>
<text text-anchor="middle" x="640.5" y="-228" font-family="Fira Mono Medium" font-size="10.00">at</text>
</g>
<!-- node_5&#45;&gt;node_3 -->
<g id="edge10" class="edge">
<title>node_5&#45;&gt;node_3</title>
<path fill="none" stroke="black" d="M456.53,-184.3C450.61,-183.14 444.71,-182.03 439,-181 346.58,-164.38 321.29,-159.26 228,-170 200.12,-173.21 170.02,-179.5 143.61,-185.99"/>
<polygon fill="black" stroke="black" points="142.53,-182.66 133.69,-188.49 144.24,-189.44 142.53,-182.66"/>
<text text-anchor="middle" x="297" y="-173" font-family="Fira Mono Medium" font-size="10.00">not&#45;equal</text>
</g>
<!-- node_5&#45;&gt;node_4 -->
<g id="edge11" class="edge">
<title>node_5&#45;&gt;node_4</title>
<path fill="none" stroke="black" d="M456.72,-193.05C433.46,-192.47 407.42,-193.42 384,-198 373.57,-200.04 362.81,-203.35 352.58,-207.14"/>
<polygon fill="black" stroke="black" points="351,-204 342.96,-210.9 353.55,-210.52 351,-204"/>
<text text-anchor="middle" x="411.5" y="-201" font-family="Fira Mono Medium" font-size="10.00">not&#45;equal</text>
</g>
<!-- node_6 -->
<g id="node7" class="node">
<title>node_6</title>
<polygon fill="none" stroke="black" points="137,-76 0,-76 0,-32 137,-32 137,-76"/>
<text text-anchor="start" x="49.5" y="-63.4" font-family="Fira Mono Medium" font-weight="bold" font-size="12.00">human</text>
<text text-anchor="start" x="8" y="-51.4" font-family="Fira Mono Medium" font-style="italic" font-size="12.00">kind:</text>
<text text-anchor="start" x="46" y="-51.4" font-family="Fira Mono Medium" font-size="12.00"> missionary</text>
<text text-anchor="start" x="11.5" y="-39.4" font-family="Fira Mono Medium" font-style="italic" font-size="12.00">can&#45;drive:</text>
<text text-anchor="start" x="87.5" y="-39.4" font-family="Fira Mono Medium" font-size="12.00"> true</text>
</g>
<!-- node_6&#45;&gt;node_0 -->
<g id="edge14" class="edge">
<title>node_6&#45;&gt;node_0</title>
<path fill="none" stroke="black" d="M137.2,-63.07C222.54,-74.5 368.52,-94.04 454.95,-105.62"/>
<polygon fill="black" stroke="black" points="454.56,-109.1 464.93,-106.96 455.49,-102.16 454.56,-109.1"/>
<text text-anchor="middle" x="297" y="-96" font-family="Fira Mono Medium" font-size="10.00">at</text>
</g>
<!-- node_7 -->
<g id="node8" class="node">
<title>node_7</title>
<polygon fill="none" stroke="black" points="365.5,-44 228.5,-44 228.5,0 365.5,0 365.5,-44"/>
<text text-anchor="start" x="278" y="-31.4" font-family="Fira Mono Medium" font-weight="bold" font-size="12.00">human</text>
<text text-anchor="start" x="236.5" y="-19.4" font-family="Fira Mono Medium" font-style="italic" font-size="12.00">kind:</text>
<text text-anchor="start" x="274.5" y="-19.4" font-family="Fira Mono Medium" font-size="12.00"> missionary</text>
<text text-anchor="start" x="240" y="-7.4" font-family="Fira Mono Medium" font-style="italic" font-size="12.00">can&#45;drive:</text>
<text text-anchor="start" x="316" y="-7.4" font-family="Fira Mono Medium" font-size="12.00"> true</text>
</g>
<!-- node_6&#45;&gt;node_7 -->
<g id="edge13" class="edge">
<title>node_6&#45;&gt;node_7</title>
<path fill="none" stroke="black" d="M137.15,-44.44C162.7,-40.83 191.96,-36.7 218.35,-32.97"/>
<polygon fill="black" stroke="black" points="218.89,-36.43 228.31,-31.56 217.92,-29.5 218.89,-36.43"/>
<text text-anchor="middle" x="182.5" y="-44" font-family="Fira Mono Medium" font-size="10.00">not&#45;equal</text>
</g>
<!-- node_7&#45;&gt;node_0 -->
<g id="edge16" class="edge">
<title>node_7&#45;&gt;node_0</title>
<path fill="none" stroke="black" d="M365.69,-32.42C389.5,-37.48 416.04,-44.76 439,-55 459.39,-64.09 479.98,-78.24 495.9,-90.52"/>
<polygon fill="black" stroke="black" points="493.75,-93.28 503.77,-96.73 498.09,-87.79 493.75,-93.28"/>
<text text-anchor="middle" x="411.5" y="-58" font-family="Fira Mono Medium" font-size="10.00">at</text>
</g>
<!-- node_7&#45;&gt;node_6 -->
<g id="edge15" class="edge">
<title>node_7&#45;&gt;node_6</title>
<path fill="none" stroke="black" d="M228.43,-14.7C204.99,-13.72 178.66,-14.34 155,-19 144.62,-21.04 133.92,-24.35 123.75,-28.14"/>
<polygon fill="black" stroke="black" points="122.21,-24.99 114.19,-31.9 124.77,-31.5 122.21,-24.99"/>
<text text-anchor="middle" x="182.5" y="-22" font-family="Fira Mono Medium" font-size="10.00">not&#45;equal</text>
</g>
</g>
</svg>
