<?xml version="1.0" encoding="UTF-8" standalone="no"?>
<!DOCTYPE svg PUBLIC "-//W3C//DTD SVG 1.1//EN"
 "http://www.w3.org/Graphics/SVG/1.1/DTD/svg11.dtd">
<!-- Generated by graphviz version 2.43.0 (0)
 -->
<!-- Title: %3 Pages: 1 -->
<svg width="988pt" height="310pt"
 viewBox="0.00 0.00 988.00 310.00" xmlns="http://www.w3.org/2000/svg" xmlns:xlink="http://www.w3.org/1999/xlink">
<g id="graph0" class="graph" transform="scale(1 1) rotate(0) translate(4 306)">
<title>%3</title>
<polygon fill="white" stroke="transparent" points="-4,4 -4,-306 984,-306 984,4 -4,4"/>
<!-- node_0 -->
<g id="node1" class="node">
<title>node_0</title>
<polygon fill="none" stroke="black" points="759,-152 637,-152 637,-116 759,-116 759,-152"/>
<text text-anchor="start" x="682.5" y="-137.4" font-family="Fira Mono Medium" font-weight="bold" font-size="12.00">bank</text>
<text text-anchor="start" x="645" y="-125.4" font-family="Fira Mono Medium" font-style="italic" font-size="12.00">location:</text>
<text text-anchor="start" x="713" y="-125.4" font-family="Fira Mono Medium" font-size="12.00"> left</text>
</g>
<!-- node_1 -->
<g id="node2" class="node">
<title>node_1</title>
<polygon fill="none" stroke="black" points="980,-236 850,-236 850,-200 980,-200 980,-236"/>
<text text-anchor="start" x="899.5" y="-221.4" font-family="Fira Mono Medium" font-weight="bold" font-size="12.00">bank</text>
<text text-anchor="start" x="858" y="-209.4" font-family="Fira Mono Medium" font-style="italic" font-size="12.00">location:</text>
<text text-anchor="start" x="926" y="-209.4" font-family="Fira Mono Medium" font-size="12.00"> right</text>
</g>
<!-- node_0&#45;&gt;node_1 -->
<g id="edge1" class="edge">
<title>node_0&#45;&gt;node_1</title>
<path fill="none" stroke="black" d="M745.12,-152.02C778.17,-164.93 822.85,-182.39 857.95,-196.1"/>
<polygon fill="black" stroke="black" points="856.99,-199.49 867.58,-199.86 859.54,-192.97 856.99,-199.49"/>
<text text-anchor="middle" x="804.5" y="-186" font-family="Fira Mono Medium" font-size="10.00">not&#45;equal</text>
</g>
<!-- node_1&#45;&gt;node_0 -->
<g id="edge2" class="edge">
<title>node_1&#45;&gt;node_0</title>
<path fill="none" stroke="black" d="M897.71,-199.89C882.4,-184.16 858.01,-162.18 832,-151 812.52,-142.62 790.06,-138.06 769.21,-135.65"/>
<polygon fill="black" stroke="black" points="769.43,-132.15 759.13,-134.63 768.73,-139.12 769.43,-132.15"/>
<text text-anchor="middle" x="804.5" y="-154" font-family="Fira Mono Medium" font-size="10.00">not&#45;equal</text>
</g>
<!-- node_2 -->
<g id="node3" class="node">
<title>node_2</title>
<polygon fill="none" stroke="black" points="546,-145 492,-145 492,-109 546,-109 546,-145"/>
<text text-anchor="start" x="503.5" y="-124.9" font-family="Fira Mono Medium" font-weight="bold" font-size="12.00">boat</text>
</g>
<!-- node_2&#45;&gt;node_0 -->
<g id="edge3" class="edge">
<title>node_2&#45;&gt;node_0</title>
<path fill="none" stroke="black" d="M546.12,-128.03C567.27,-128.87 598.1,-130.09 626.39,-131.21"/>
<polygon fill="black" stroke="black" points="626.54,-134.72 636.67,-131.61 626.82,-127.72 626.54,-134.72"/>
<text text-anchor="middle" x="612.5" y="-133" font-family="Fira Mono Medium" font-size="10.00">at</text>
</g>
<!-- node_3 -->
<g id="node4" class="node">
<title>node_3</title>
<polygon fill="none" stroke="black" points="130,-207 0,-207 0,-163 130,-163 130,-207"/>
<text text-anchor="start" x="46" y="-194.4" font-family="Fira Mono Medium" font-weight="bold" font-size="12.00">human</text>
<text text-anchor="start" x="12" y="-182.4" font-family="Fira Mono Medium" font-style="italic" font-size="12.00">kind:</text>
<text text-anchor="start" x="50" y="-182.4" font-family="Fira Mono Medium" font-size="12.00"> cannibal</text>
<text text-anchor="start" x="8" y="-170.4" font-family="Fira Mono Medium" font-style="italic" font-size="12.00">can&#45;drive:</text>
<text text-anchor="start" x="84" y="-170.4" font-family="Fira Mono Medium" font-size="12.00"> true</text>
</g>
<!-- node_3&#45;&gt;node_1 -->
<g id="edge6" class="edge">
<title>node_3&#45;&gt;node_1</title>
<path fill="none" stroke="black" d="M92.56,-207.22C132.5,-238.3 211.63,-291 289,-291 289,-291 289,-291 699,-291 762.4,-291 831,-262.19 873.24,-240.76"/>
<polygon fill="black" stroke="black" points="875.09,-243.75 882.36,-236.04 871.87,-237.53 875.09,-243.75"/>
<text text-anchor="middle" x="519" y="-294" font-family="Fira Mono Medium" font-size="10.00">at</text>
</g>
<!-- node_4 -->
<g id="node5" class="node">
<title>node_4</title>
<polygon fill="none" stroke="black" points="359,-241 221,-241 221,-197 359,-197 359,-241"/>
<text text-anchor="start" x="271" y="-228.4" font-family="Fira Mono Medium" font-weight="bold" font-size="12.00">human</text>
<text text-anchor="start" x="237" y="-216.4" font-family="Fira Mono Medium" font-style="italic" font-size="12.00">kind:</text>
<text text-anchor="start" x="275" y="-216.4" font-family="Fira Mono Medium" font-size="12.00"> cannibal</text>
<text text-anchor="start" x="229" y="-204.4" font-family="Fira Mono Medium" font-style="italic" font-size="12.00">can&#45;drive:</text>
<text text-anchor="start" x="305" y="-204.4" font-family="Fira Mono Medium" font-size="12.00"> false</text>
</g>
<!-- node_3&#45;&gt;node_4 -->
<g id="edge4" class="edge">
<title>node_3&#45;&gt;node_4</title>
<path fill="none" stroke="black" d="M130.2,-194.79C155.42,-198.63 184.59,-203.08 211,-207.11"/>
<polygon fill="black" stroke="black" points="210.56,-210.58 220.98,-208.63 211.62,-203.66 210.56,-210.58"/>
<text text-anchor="middle" x="175.5" y="-208" font-family="Fira Mono Medium" font-size="10.00">not&#45;equal</text>
</g>
<!-- node_5 -->
<g id="node6" class="node">
<title>node_5</title>
<polygon fill="none" stroke="black" points="588,-207 450,-207 450,-163 588,-163 588,-207"/>
<text text-anchor="start" x="500" y="-194.4" font-family="Fira Mono Medium" font-weight="bold" font-size="12.00">human</text>
<text text-anchor="start" x="466" y="-182.4" font-family="Fira Mono Medium" font-style="italic" font-size="12.00">kind:</text>
<text text-anchor="start" x="504" y="-182.4" font-family="Fira Mono Medium" font-size="12.00"> cannibal</text>
<text text-anchor="start" x="458" y="-170.4" font-family="Fira Mono Medium" font-style="italic" font-size="12.00">can&#45;drive:</text>
<text text-anchor="start" x="534" y="-170.4" font-family="Fira Mono Medium" font-size="12.00"> false</text>
</g>
<!-- node_3&#45;&gt;node_5 -->
<g id="edge5" class="edge">
<title>node_3&#45;&gt;node_5</title>
<path fill="none" stroke="black" d="M130.39,-176.43C136.34,-175.85 142.27,-175.36 148,-175 273.97,-167.07 306.03,-165.98 432,-174 434.41,-174.15 436.85,-174.33 439.32,-174.53"/>
<polygon fill="black" stroke="black" points="439.27,-178.04 449.54,-175.45 439.89,-171.07 439.27,-178.04"/>
<text text-anchor="middle" x="290" y="-173" font-family="Fira Mono Medium" font-size="10.00">not&#45;equal</text>
</g>
<!-- node_4&#45;&gt;node_1 -->
<g id="edge9" class="edge">
<title>node_4&#45;&gt;node_1</title>
<path fill="none" stroke="black" d="M359.07,-220.73C365.13,-220.84 371.18,-220.93 377,-221 401.44,-221.28 407.56,-221.08 432,-221 576.32,-220.55 744.95,-219.35 839.63,-218.61"/>
<polygon fill="black" stroke="black" points="839.71,-222.11 849.68,-218.53 839.65,-215.11 839.71,-222.11"/>
<text text-anchor="middle" x="612.5" y="-223" font-family="Fira Mono Medium" font-size="10.00">at</text>
</g>
<!-- node_4&#45;&gt;node_3 -->
<g id="edge7" class="edge">
<title>node_4&#45;&gt;node_3</title>
<path fill="none" stroke="black" d="M244.04,-196.9C231.1,-191.6 216.76,-186.69 203,-184 182.93,-180.07 160.89,-178.9 140.47,-179.07"/>
<polygon fill="black" stroke="black" points="140.2,-175.57 130.27,-179.26 140.33,-182.57 140.2,-175.57"/>
<text text-anchor="middle" x="175.5" y="-187" font-family="Fira Mono Medium" font-size="10.00">not&#45;equal</text>
</g>
<!-- node_4&#45;&gt;node_5 -->
<g id="edge8" class="edge">
<title>node_4&#45;&gt;node_5</title>
<path fill="none" stroke="black" d="M359.11,-208.8C384.58,-204.98 413.71,-200.62 440.01,-196.68"/>
<polygon fill="black" stroke="black" points="440.57,-200.14 449.94,-195.19 439.53,-193.21 440.57,-200.14"/>
<text text-anchor="middle" x="404.5" y="-209" font-family="Fira Mono Medium" font-size="10.00">not&#45;equal</text>
</g>
<!-- node_5&#45;&gt;node_0 -->
<g id="edge12" class="edge">
<title>node_5&#45;&gt;node_0</title>
<path fill="none" stroke="black" d="M588.18,-165.36C600.98,-161.67 614.39,-157.8 627.24,-154.1"/>
<polygon fill="black" stroke="black" points="628.3,-157.44 636.94,-151.3 626.36,-150.71 628.3,-157.44"/>
<text text-anchor="middle" x="612.5" y="-162" font-family="Fira Mono Medium" font-size="10.00">at</text>
</g>
<!-- node_5&#45;&gt;node_3 -->
<g id="edge10" class="edge">
<title>node_5&#45;&gt;node_3</title>
<path fill="none" stroke="black" d="M449.99,-169.7C443.91,-168.42 437.85,-167.17 432,-166 339.86,-147.63 314.53,-144.11 221,-153 188.11,-156.13 180.36,-160.35 148,-167 145.5,-167.51 142.96,-168.04 140.4,-168.58"/>
<polygon fill="black" stroke="black" points="139.48,-165.19 130.42,-170.69 140.93,-172.04 139.48,-165.19"/>
<text text-anchor="middle" x="290" y="-156" font-family="Fira Mono Medium" font-size="10.00">not&#45;equal</text>
</g>
<!-- node_5&#45;&gt;node_4 -->
<g id="edge11" class="edge">
<title>node_5&#45;&gt;node_4</title>
<path fill="none" stroke="black" d="M449.72,-179.05C426.46,-178.47 400.42,-179.42 377,-184 366.57,-186.04 355.81,-189.35 345.58,-193.14"/>
<polygon fill="black" stroke="black" points="344,-190 335.96,-196.9 346.55,-196.52 344,-190"/>
<text text-anchor="middle" x="404.5" y="-187" font-family="Fira Mono Medium" font-size="10.00">not&#45;equal</text>
</g>
<!-- node_6 -->
<g id="node7" class="node">
<title>node_6</title>
<polygon fill="none" stroke="black" points="358.5,-69 221.5,-69 221.5,-25 358.5,-25 358.5,-69"/>
<text text-anchor="start" x="271" y="-56.4" font-family="Fira Mono Medium" font-weight="bold" font-size="12.00">human</text>
<text text-anchor="start" x="229.5" y="-44.4" font-family="Fira Mono Medium" font-style="italic" font-size="12.00">kind:</text>
<text text-anchor="start" x="267.5" y="-44.4" font-family="Fira Mono Medium" font-size="12.00"> missionary</text>
<text text-anchor="start" x="233" y="-32.4" font-family="Fira Mono Medium" font-style="italic" font-size="12.00">can&#45;drive:</text>
<text text-anchor="start" x="309" y="-32.4" font-family="Fira Mono Medium" font-size="12.00"> true</text>
</g>
<!-- node_6&#45;&gt;node_0 -->
<g id="edge14" class="edge">
<title>node_6&#45;&gt;node_0</title>
<path fill="none" stroke="black" d="M358.62,-51.7C419.46,-57.07 510.88,-67.99 588,-89 609.12,-94.76 631.62,-103.55 650.65,-111.85"/>
<polygon fill="black" stroke="black" points="649.42,-115.13 659.98,-115.99 652.26,-108.74 649.42,-115.13"/>
<text text-anchor="middle" x="519" y="-92" font-family="Fira Mono Medium" font-size="10.00">at</text>
</g>
<!-- node_7 -->
<g id="node8" class="node">
<title>node_7</title>
<polygon fill="none" stroke="black" points="587.5,-44 450.5,-44 450.5,0 587.5,0 587.5,-44"/>
<text text-anchor="start" x="500" y="-31.4" font-family="Fira Mono Medium" font-weight="bold" font-size="12.00">human</text>
<text text-anchor="start" x="458.5" y="-19.4" font-family="Fira Mono Medium" font-style="italic" font-size="12.00">kind:</text>
<text text-anchor="start" x="496.5" y="-19.4" font-family="Fira Mono Medium" font-size="12.00"> missionary</text>
<text text-anchor="start" x="462" y="-7.4" font-family="Fira Mono Medium" font-style="italic" font-size="12.00">can&#45;drive:</text>
<text text-anchor="start" x="538" y="-7.4" font-family="Fira Mono Medium" font-size="12.00"> true</text>
</g>
<!-- node_6&#45;&gt;node_7 -->
<g id="edge13" class="edge">
<title>node_6&#45;&gt;node_7</title>
<path fill="none" stroke="black" d="M358.8,-39.53C384.4,-36.71 413.73,-33.48 440.18,-30.57"/>
<polygon fill="black" stroke="black" points="440.6,-34.05 450.16,-29.47 439.83,-27.09 440.6,-34.05"/>
<text text-anchor="middle" x="404.5" y="-41" font-family="Fira Mono Medium" font-size="10.00">not&#45;equal</text>
</g>
<!-- node_7&#45;&gt;node_0 -->
<g id="edge16" class="edge">
<title>node_7&#45;&gt;node_0</title>
<path fill="none" stroke="black" d="M587.7,-39.8C598.57,-43.99 609.39,-49.02 619,-55 641.5,-69 662.33,-90.76 676.8,-107.89"/>
<polygon fill="black" stroke="black" points="674.31,-110.38 683.37,-115.88 679.72,-105.93 674.31,-110.38"/>
<text text-anchor="middle" x="612.5" y="-58" font-family="Fira Mono Medium" font-size="10.00">at</text>
</g>
<!-- node_7&#45;&gt;node_6 -->
<g id="edge15" class="edge">
<title>node_7&#45;&gt;node_6</title>
<path fill="none" stroke="black" d="M450.21,-14.06C426.88,-12.78 400.67,-12.99 377,-17 369.82,-18.22 362.44,-19.97 355.16,-22.02"/>
<polygon fill="black" stroke="black" points="353.89,-18.74 345.33,-24.98 355.92,-25.45 353.89,-18.74"/>
<text text-anchor="middle" x="404.5" y="-20" font-family="Fira Mono Medium" font-size="10.00">not&#45;equal</text>
</g>
</g>
</svg>
