<?xml version="1.0" encoding="UTF-8" standalone="no"?>
<!DOCTYPE svg PUBLIC "-//W3C//DTD SVG 1.1//EN"
 "http://www.w3.org/Graphics/SVG/1.1/DTD/svg11.dtd">
<!-- Generated by graphviz version 2.43.0 (0)
 -->
<!-- Title: %3 Pages: 1 -->
<svg width="1045pt" height="377pt"
 viewBox="0.00 0.00 1045.00 377.29" xmlns="http://www.w3.org/2000/svg" xmlns:xlink="http://www.w3.org/1999/xlink">
<g id="graph0" class="graph" transform="scale(1 1) rotate(0) translate(4 373.29)">
<title>%3</title>
<polygon fill="white" stroke="transparent" points="-4,4 -4,-373.29 1041,-373.29 1041,4 -4,4"/>
<!-- node_0 -->
<g id="node1" class="node">
<title>node_0</title>
<polygon fill="none" stroke="black" points="808.5,-218.29 686.5,-218.29 686.5,-182.29 808.5,-182.29 808.5,-218.29"/>
<text text-anchor="start" x="732" y="-203.69" font-family="Fira Mono Medium" font-weight="bold" font-size="12.00">bank</text>
<text text-anchor="start" x="694.5" y="-191.69" font-family="Fira Mono Medium" font-style="italic" font-size="12.00">location:</text>
<text text-anchor="start" x="762.5" y="-191.69" font-family="Fira Mono Medium" font-size="12.00"> left</text>
</g>
<!-- node_1 -->
<g id="node2" class="node">
<title>node_1</title>
<polygon fill="none" stroke="black" points="1037,-184.29 907,-184.29 907,-148.29 1037,-148.29 1037,-184.29"/>
<text text-anchor="start" x="956.5" y="-169.69" font-family="Fira Mono Medium" font-weight="bold" font-size="12.00">bank</text>
<text text-anchor="start" x="915" y="-157.69" font-family="Fira Mono Medium" font-style="italic" font-size="12.00">location:</text>
<text text-anchor="start" x="983" y="-157.69" font-family="Fira Mono Medium" font-size="12.00"> right</text>
</g>
<!-- node_0&#45;&gt;node_1 -->
<g id="edge1" class="edge">
<title>node_0&#45;&gt;node_1</title>
<path fill="none" stroke="black" d="M808.71,-191.09C835.88,-186.94 868.24,-181.99 896.88,-177.62"/>
<polygon fill="black" stroke="black" points="897.49,-181.07 906.84,-176.1 896.43,-174.15 897.49,-181.07"/>
<text text-anchor="middle" x="861.5" y="-189.29" font-family="Fira Mono Medium" font-size="10.00">not&#45;equal</text>
</g>
<!-- node_1&#45;&gt;node_0 -->
<g id="edge2" class="edge">
<title>node_1&#45;&gt;node_0</title>
<path fill="none" stroke="black" d="M906.73,-160.53C883.61,-159.84 857.45,-160.68 834,-165.29 820.33,-167.98 806.09,-172.87 793.25,-178.17"/>
<polygon fill="black" stroke="black" points="791.53,-175.1 783.73,-182.26 794.3,-181.53 791.53,-175.1"/>
<text text-anchor="middle" x="861.5" y="-168.29" font-family="Fira Mono Medium" font-size="10.00">not&#45;equal</text>
</g>
<!-- node_2 -->
<g id="node3" class="node">
<title>node_2</title>
<polygon fill="none" stroke="black" points="774.5,-369.29 720.5,-369.29 720.5,-333.29 774.5,-333.29 774.5,-369.29"/>
<text text-anchor="start" x="732" y="-349.19" font-family="Fira Mono Medium" font-weight="bold" font-size="12.00">boat</text>
</g>
<!-- node_2&#45;&gt;node_1 -->
<g id="edge3" class="edge">
<title>node_2&#45;&gt;node_1</title>
<path fill="none" stroke="black" d="M774.5,-351.6C804.92,-350.66 855.38,-344.92 889,-319.29 930.38,-287.75 953.24,-229.17 963.74,-194.36"/>
<polygon fill="black" stroke="black" points="967.21,-194.96 966.61,-184.38 960.48,-193.02 967.21,-194.96"/>
<text text-anchor="middle" x="861.5" y="-346.29" font-family="Fira Mono Medium" font-size="10.00">at</text>
</g>
<!-- node_3 -->
<g id="node4" class="node">
<title>node_3</title>
<polygon fill="none" stroke="black" points="130,-259.29 0,-259.29 0,-215.29 130,-215.29 130,-259.29"/>
<text text-anchor="start" x="46" y="-246.69" font-family="Fira Mono Medium" font-weight="bold" font-size="12.00">human</text>
<text text-anchor="start" x="12" y="-234.69" font-family="Fira Mono Medium" font-style="italic" font-size="12.00">kind:</text>
<text text-anchor="start" x="50" y="-234.69" font-family="Fira Mono Medium" font-size="12.00"> cannibal</text>
<text text-anchor="start" x="8" y="-222.69" font-family="Fira Mono Medium" font-style="italic" font-size="12.00">can&#45;drive:</text>
<text text-anchor="start" x="84" y="-222.69" font-family="Fira Mono Medium" font-size="12.00"> true</text>
</g>
<!-- node_3&#45;&gt;node_1 -->
<g id="edge6" class="edge">
<title>node_3&#45;&gt;node_1</title>
<path fill="none" stroke="black" d="M110.48,-259.37C154.65,-279.22 224.85,-305.29 289,-305.29 289,-305.29 289,-305.29 748.5,-305.29 833.05,-305.29 911.97,-232.21 948.97,-192.03"/>
<polygon fill="black" stroke="black" points="951.7,-194.23 955.8,-184.46 946.5,-189.54 951.7,-194.23"/>
<text text-anchor="middle" x="519" y="-308.29" font-family="Fira Mono Medium" font-size="10.00">at</text>
</g>
<!-- node_4 -->
<g id="node5" class="node">
<title>node_4</title>
<polygon fill="none" stroke="black" points="359,-277.29 221,-277.29 221,-233.29 359,-233.29 359,-277.29"/>
<text text-anchor="start" x="271" y="-264.69" font-family="Fira Mono Medium" font-weight="bold" font-size="12.00">human</text>
<text text-anchor="start" x="237" y="-252.69" font-family="Fira Mono Medium" font-style="italic" font-size="12.00">kind:</text>
<text text-anchor="start" x="275" y="-252.69" font-family="Fira Mono Medium" font-size="12.00"> cannibal</text>
<text text-anchor="start" x="229" y="-240.69" font-family="Fira Mono Medium" font-style="italic" font-size="12.00">can&#45;drive:</text>
<text text-anchor="start" x="305" y="-240.69" font-family="Fira Mono Medium" font-size="12.00"> false</text>
</g>
<!-- node_3&#45;&gt;node_4 -->
<g id="edge4" class="edge">
<title>node_3&#45;&gt;node_4</title>
<path fill="none" stroke="black" d="M130.38,-247.35C136.33,-248.09 142.27,-248.75 148,-249.29 168.24,-251.2 190.18,-252.5 210.58,-253.39"/>
<polygon fill="black" stroke="black" points="210.64,-256.89 220.77,-253.8 210.92,-249.9 210.64,-256.89"/>
<text text-anchor="middle" x="175.5" y="-255.29" font-family="Fira Mono Medium" font-size="10.00">not&#45;equal</text>
</g>
<!-- node_5 -->
<g id="node6" class="node">
<title>node_5</title>
<polygon fill="none" stroke="black" points="588,-222.29 450,-222.29 450,-178.29 588,-178.29 588,-222.29"/>
<text text-anchor="start" x="500" y="-209.69" font-family="Fira Mono Medium" font-weight="bold" font-size="12.00">human</text>
<text text-anchor="start" x="466" y="-197.69" font-family="Fira Mono Medium" font-style="italic" font-size="12.00">kind:</text>
<text text-anchor="start" x="504" y="-197.69" font-family="Fira Mono Medium" font-size="12.00"> cannibal</text>
<text text-anchor="start" x="458" y="-185.69" font-family="Fira Mono Medium" font-style="italic" font-size="12.00">can&#45;drive:</text>
<text text-anchor="start" x="534" y="-185.69" font-family="Fira Mono Medium" font-size="12.00"> false</text>
</g>
<!-- node_3&#45;&gt;node_5 -->
<g id="edge5" class="edge">
<title>node_3&#45;&gt;node_5</title>
<path fill="none" stroke="black" d="M130.32,-226.11C158.13,-221.59 191.1,-216.65 221,-213.29 290.07,-205.52 307.56,-205.23 377,-202.29 397.3,-201.43 419.25,-200.92 439.65,-200.62"/>
<polygon fill="black" stroke="black" points="439.89,-204.12 449.85,-200.49 439.8,-197.12 439.89,-204.12"/>
<text text-anchor="middle" x="290" y="-216.29" font-family="Fira Mono Medium" font-size="10.00">not&#45;equal</text>
</g>
<!-- node_4&#45;&gt;node_0 -->
<g id="edge9" class="edge">
<title>node_4&#45;&gt;node_0</title>
<path fill="none" stroke="black" d="M359.07,-256.16C365.13,-256.21 371.18,-256.26 377,-256.29 401.44,-256.43 407.63,-258.23 432,-256.29 502,-250.72 518.87,-243.59 588,-231.29 617.01,-226.13 648.92,-219.98 676.45,-214.53"/>
<polygon fill="black" stroke="black" points="677.25,-217.94 686.38,-212.55 675.89,-211.07 677.25,-217.94"/>
<text text-anchor="middle" x="519" y="-257.29" font-family="Fira Mono Medium" font-size="10.00">at</text>
</g>
<!-- node_4&#45;&gt;node_3 -->
<g id="edge7" class="edge">
<title>node_4&#45;&gt;node_3</title>
<path fill="none" stroke="black" d="M220.69,-238.79C214.73,-237.78 208.78,-236.92 203,-236.29 182.77,-234.08 160.77,-233.46 140.43,-233.62"/>
<polygon fill="black" stroke="black" points="140.23,-230.12 130.28,-233.76 140.32,-237.12 140.23,-230.12"/>
<text text-anchor="middle" x="175.5" y="-239.29" font-family="Fira Mono Medium" font-size="10.00">not&#45;equal</text>
</g>
<!-- node_4&#45;&gt;node_5 -->
<g id="edge8" class="edge">
<title>node_4&#45;&gt;node_5</title>
<path fill="none" stroke="black" d="M359.25,-245.46C382.51,-241.51 408.55,-236.42 432,-230.29 437.59,-228.83 443.33,-227.18 449.07,-225.42"/>
<polygon fill="black" stroke="black" points="450.23,-228.72 458.7,-222.36 448.11,-222.05 450.23,-228.72"/>
<text text-anchor="middle" x="404.5" y="-244.29" font-family="Fira Mono Medium" font-size="10.00">not&#45;equal</text>
</g>
<!-- node_5&#45;&gt;node_0 -->
<g id="edge12" class="edge">
<title>node_5&#45;&gt;node_0</title>
<path fill="none" stroke="black" d="M588.26,-200.29C616.11,-200.29 648.28,-200.29 676.32,-200.29"/>
<polygon fill="black" stroke="black" points="676.44,-203.79 686.44,-200.29 676.44,-196.79 676.44,-203.79"/>
<text text-anchor="middle" x="633.5" y="-203.29" font-family="Fira Mono Medium" font-size="10.00">at</text>
</g>
<!-- node_5&#45;&gt;node_3 -->
<g id="edge10" class="edge">
<title>node_5&#45;&gt;node_3</title>
<path fill="none" stroke="black" d="M449.74,-189.64C389.26,-182.02 298.75,-175.06 221,-187.29 190.27,-192.13 157.32,-202.04 129.74,-211.78"/>
<polygon fill="black" stroke="black" points="128.44,-208.52 120.22,-215.2 130.81,-215.11 128.44,-208.52"/>
<text text-anchor="middle" x="290" y="-190.29" font-family="Fira Mono Medium" font-size="10.00">not&#45;equal</text>
</g>
<!-- node_5&#45;&gt;node_4 -->
<g id="edge11" class="edge">
<title>node_5&#45;&gt;node_4</title>
<path fill="none" stroke="black" d="M449.8,-204.41C426.42,-206.9 400.3,-210.89 377,-217.29 365.92,-220.33 354.43,-224.58 343.6,-229.13"/>
<polygon fill="black" stroke="black" points="342.05,-225.99 334.27,-233.19 344.84,-232.41 342.05,-225.99"/>
<text text-anchor="middle" x="404.5" y="-220.29" font-family="Fira Mono Medium" font-size="10.00">not&#45;equal</text>
</g>
<!-- node_6 -->
<g id="node7" class="node">
<title>node_6</title>
<polygon fill="none" stroke="black" points="358.5,-56.29 221.5,-56.29 221.5,-12.29 358.5,-12.29 358.5,-56.29"/>
<text text-anchor="start" x="271" y="-43.69" font-family="Fira Mono Medium" font-weight="bold" font-size="12.00">human</text>
<text text-anchor="start" x="229.5" y="-31.69" font-family="Fira Mono Medium" font-style="italic" font-size="12.00">kind:</text>
<text text-anchor="start" x="267.5" y="-31.69" font-family="Fira Mono Medium" font-size="12.00"> missionary</text>
<text text-anchor="start" x="233" y="-19.69" font-family="Fira Mono Medium" font-style="italic" font-size="12.00">can&#45;drive:</text>
<text text-anchor="start" x="309" y="-19.69" font-family="Fira Mono Medium" font-size="12.00"> true</text>
</g>
<!-- node_6&#45;&gt;node_1 -->
<g id="edge15" class="edge">
<title>node_6&#45;&gt;node_1</title>
<path fill="none" stroke="black" d="M335.81,-56.42C367.07,-70.91 410.16,-88.99 450,-99.29 471.35,-104.81 757.82,-140.23 896.63,-157.22"/>
<polygon fill="black" stroke="black" points="896.41,-160.72 906.76,-158.47 897.26,-153.78 896.41,-160.72"/>
<text text-anchor="middle" x="633.5" y="-130.29" font-family="Fira Mono Medium" font-size="10.00">at</text>
</g>
<!-- node_7 -->
<g id="node8" class="node">
<title>node_7</title>
<polygon fill="none" stroke="black" points="587.5,-90.29 450.5,-90.29 450.5,-46.29 587.5,-46.29 587.5,-90.29"/>
<text text-anchor="start" x="500" y="-77.69" font-family="Fira Mono Medium" font-weight="bold" font-size="12.00">human</text>
<text text-anchor="start" x="458.5" y="-65.69" font-family="Fira Mono Medium" font-style="italic" font-size="12.00">kind:</text>
<text text-anchor="start" x="496.5" y="-65.69" font-family="Fira Mono Medium" font-size="12.00"> missionary</text>
<text text-anchor="start" x="462" y="-53.69" font-family="Fira Mono Medium" font-style="italic" font-size="12.00">can&#45;drive:</text>
<text text-anchor="start" x="538" y="-53.69" font-family="Fira Mono Medium" font-size="12.00"> true</text>
</g>
<!-- node_6&#45;&gt;node_7 -->
<g id="edge13" class="edge">
<title>node_6&#45;&gt;node_7</title>
<path fill="none" stroke="black" d="M358.8,-44.45C384.4,-48.28 413.73,-52.67 440.18,-56.64"/>
<polygon fill="black" stroke="black" points="439.75,-60.11 450.16,-58.13 440.79,-53.19 439.75,-60.11"/>
<text text-anchor="middle" x="404.5" y="-58.29" font-family="Fira Mono Medium" font-size="10.00">not&#45;equal</text>
</g>
<!-- node_8 -->
<g id="node9" class="node">
<title>node_8</title>
<polygon fill="none" stroke="black" points="816,-56.29 679,-56.29 679,-12.29 816,-12.29 816,-56.29"/>
<text text-anchor="start" x="728.5" y="-43.69" font-family="Fira Mono Medium" font-weight="bold" font-size="12.00">human</text>
<text text-anchor="start" x="687" y="-31.69" font-family="Fira Mono Medium" font-style="italic" font-size="12.00">kind:</text>
<text text-anchor="start" x="725" y="-31.69" font-family="Fira Mono Medium" font-size="12.00"> missionary</text>
<text text-anchor="start" x="690.5" y="-19.69" font-family="Fira Mono Medium" font-style="italic" font-size="12.00">can&#45;drive:</text>
<text text-anchor="start" x="766.5" y="-19.69" font-family="Fira Mono Medium" font-size="12.00"> true</text>
</g>
<!-- node_6&#45;&gt;node_8 -->
<g id="edge14" class="edge">
<title>node_6&#45;&gt;node_8</title>
<path fill="none" stroke="black" d="M358.54,-25.69C364.77,-25.12 371,-24.64 377,-24.29 503.01,-16.99 534.99,-16.95 661,-24.29 663.55,-24.44 666.13,-24.61 668.74,-24.81"/>
<polygon fill="black" stroke="black" points="668.64,-28.31 678.89,-25.65 669.21,-21.33 668.64,-28.31"/>
<text text-anchor="middle" x="519" y="-24.29" font-family="Fira Mono Medium" font-size="10.00">not&#45;equal</text>
</g>
<!-- node_7&#45;&gt;node_1 -->
<g id="edge18" class="edge">
<title>node_7&#45;&gt;node_1</title>
<path fill="none" stroke="black" d="M587.5,-69.7C662.94,-73.06 787.77,-84.05 889,-119.29 905.4,-125 922.25,-134.02 936.38,-142.64"/>
<polygon fill="black" stroke="black" points="934.91,-145.85 945.24,-148.21 938.63,-139.92 934.91,-145.85"/>
<text text-anchor="middle" x="747.5" y="-100.29" font-family="Fira Mono Medium" font-size="10.00">at</text>
</g>
<!-- node_7&#45;&gt;node_6 -->
<g id="edge16" class="edge">
<title>node_7&#45;&gt;node_6</title>
<path fill="none" stroke="black" d="M473.04,-46.19C460.1,-40.89 445.76,-35.99 432,-33.29 411.66,-29.31 389.36,-28.07 368.61,-28.2"/>
<polygon fill="black" stroke="black" points="368.51,-24.7 358.57,-28.36 368.63,-31.7 368.51,-24.7"/>
<text text-anchor="middle" x="404.5" y="-36.29" font-family="Fira Mono Medium" font-size="10.00">not&#45;equal</text>
</g>
<!-- node_7&#45;&gt;node_8 -->
<g id="edge17" class="edge">
<title>node_7&#45;&gt;node_8</title>
<path fill="none" stroke="black" d="M587.65,-58.14C613.2,-54.3 642.46,-49.91 668.85,-45.95"/>
<polygon fill="black" stroke="black" points="669.44,-49.4 678.81,-44.45 668.4,-42.48 669.44,-49.4"/>
<text text-anchor="middle" x="633.5" y="-58.29" font-family="Fira Mono Medium" font-size="10.00">not&#45;equal</text>
</g>
<!-- node_8&#45;&gt;node_1 -->
<g id="edge21" class="edge">
<title>node_8&#45;&gt;node_1</title>
<path fill="none" stroke="black" d="M816.22,-42.35C840.5,-47.44 867.23,-55.75 889,-69.29 917.3,-86.9 940.77,-117.54 955.25,-139.68"/>
<polygon fill="black" stroke="black" points="952.4,-141.72 960.71,-148.29 958.31,-137.97 952.4,-141.72"/>
<text text-anchor="middle" x="861.5" y="-72.29" font-family="Fira Mono Medium" font-size="10.00">at</text>
</g>
<!-- node_8&#45;&gt;node_6 -->
<g id="edge19" class="edge">
<title>node_8&#45;&gt;node_6</title>
<path fill="none" stroke="black" d="M678.63,-18.56C650.72,-12.84 617.97,-7.1 588,-4.29 526.93,1.44 511.07,1.42 450,-4.29 423.33,-6.79 394.47,-11.58 368.76,-16.62"/>
<polygon fill="black" stroke="black" points="367.81,-13.24 358.69,-18.64 369.19,-20.11 367.81,-13.24"/>
<text text-anchor="middle" x="519" y="-7.29" font-family="Fira Mono Medium" font-size="10.00">not&#45;equal</text>
</g>
<!-- node_8&#45;&gt;node_7 -->
<g id="edge20" class="edge">
<title>node_8&#45;&gt;node_7</title>
<path fill="none" stroke="black" d="M678.81,-28.37C655.55,-27.77 629.46,-28.7 606,-33.29 595.57,-35.33 584.81,-38.64 574.58,-42.44"/>
<polygon fill="black" stroke="black" points="573,-39.29 564.96,-46.19 575.55,-45.81 573,-39.29"/>
<text text-anchor="middle" x="633.5" y="-36.29" font-family="Fira Mono Medium" font-size="10.00">not&#45;equal</text>
</g>
</g>
</svg>
