<?xml version="1.0" encoding="UTF-8" standalone="no"?>
<!DOCTYPE svg PUBLIC "-//W3C//DTD SVG 1.1//EN"
 "http://www.w3.org/Graphics/SVG/1.1/DTD/svg11.dtd">
<!-- Generated by graphviz version 2.43.0 (0)
 -->
<!-- Title: %3 Pages: 1 -->
<svg width="988pt" height="355pt"
 viewBox="0.00 0.00 988.00 355.00" xmlns="http://www.w3.org/2000/svg" xmlns:xlink="http://www.w3.org/1999/xlink">
<g id="graph0" class="graph" transform="scale(1 1) rotate(0) translate(4 351)">
<title>%3</title>
<polygon fill="white" stroke="transparent" points="-4,4 -4,-351 984,-351 984,4 -4,4"/>
<!-- node_0 -->
<g id="node1" class="node">
<title>node_0</title>
<polygon fill="none" stroke="black" points="759,-178 637,-178 637,-142 759,-142 759,-178"/>
<text text-anchor="start" x="682.5" y="-163.4" font-family="Fira Mono Medium" font-weight="bold" font-size="12.00">bank</text>
<text text-anchor="start" x="645" y="-151.4" font-family="Fira Mono Medium" font-style="italic" font-size="12.00">location:</text>
<text text-anchor="start" x="713" y="-151.4" font-family="Fira Mono Medium" font-size="12.00"> left</text>
</g>
<!-- node_1 -->
<g id="node2" class="node">
<title>node_1</title>
<polygon fill="none" stroke="black" points="980,-255 850,-255 850,-219 980,-219 980,-255"/>
<text text-anchor="start" x="899.5" y="-240.4" font-family="Fira Mono Medium" font-weight="bold" font-size="12.00">bank</text>
<text text-anchor="start" x="858" y="-228.4" font-family="Fira Mono Medium" font-style="italic" font-size="12.00">location:</text>
<text text-anchor="start" x="926" y="-228.4" font-family="Fira Mono Medium" font-size="12.00"> right</text>
</g>
<!-- node_0&#45;&gt;node_1 -->
<g id="edge1" class="edge">
<title>node_0&#45;&gt;node_1</title>
<path fill="none" stroke="black" d="M749.41,-178.05C780.7,-189.26 821.08,-203.72 854.02,-215.52"/>
<polygon fill="black" stroke="black" points="852.94,-218.85 863.54,-218.93 855.3,-212.26 852.94,-218.85"/>
<text text-anchor="middle" x="804.5" y="-208" font-family="Fira Mono Medium" font-size="10.00">not&#45;equal</text>
</g>
<!-- node_1&#45;&gt;node_0 -->
<g id="edge2" class="edge">
<title>node_1&#45;&gt;node_0</title>
<path fill="none" stroke="black" d="M896.64,-218.97C881.18,-204.17 857.17,-184.05 832,-174 812.45,-166.19 790.07,-162.16 769.31,-160.21"/>
<polygon fill="black" stroke="black" points="769.51,-156.71 759.27,-159.41 768.96,-163.69 769.51,-156.71"/>
<text text-anchor="middle" x="804.5" y="-177" font-family="Fira Mono Medium" font-size="10.00">not&#45;equal</text>
</g>
<!-- node_2 -->
<g id="node3" class="node">
<title>node_2</title>
<polygon fill="none" stroke="black" points="725,-347 671,-347 671,-311 725,-311 725,-347"/>
<text text-anchor="start" x="682.5" y="-326.9" font-family="Fira Mono Medium" font-weight="bold" font-size="12.00">boat</text>
</g>
<!-- node_2&#45;&gt;node_1 -->
<g id="edge3" class="edge">
<title>node_2&#45;&gt;node_1</title>
<path fill="none" stroke="black" d="M725.25,-325.81C752.83,-321.75 796.98,-313.22 832,-297 851.45,-287.99 870.9,-274.02 885.98,-261.82"/>
<polygon fill="black" stroke="black" points="888.42,-264.35 893.88,-255.27 883.95,-258.96 888.42,-264.35"/>
<text text-anchor="middle" x="804.5" y="-318" font-family="Fira Mono Medium" font-size="10.00">at</text>
</g>
<!-- node_3 -->
<g id="node4" class="node">
<title>node_3</title>
<polygon fill="none" stroke="black" points="130,-207 0,-207 0,-163 130,-163 130,-207"/>
<text text-anchor="start" x="46" y="-194.4" font-family="Fira Mono Medium" font-weight="bold" font-size="12.00">human</text>
<text text-anchor="start" x="12" y="-182.4" font-family="Fira Mono Medium" font-style="italic" font-size="12.00">kind:</text>
<text text-anchor="start" x="50" y="-182.4" font-family="Fira Mono Medium" font-size="12.00"> cannibal</text>
<text text-anchor="start" x="8" y="-170.4" font-family="Fira Mono Medium" font-style="italic" font-size="12.00">can&#45;drive:</text>
<text text-anchor="start" x="84" y="-170.4" font-family="Fira Mono Medium" font-size="12.00"> true</text>
</g>
<!-- node_3&#45;&gt;node_1 -->
<g id="edge6" class="edge">
<title>node_3&#45;&gt;node_1</title>
<path fill="none" stroke="black" d="M95.22,-207.24C136.2,-236.15 214.15,-283 289,-283 289,-283 289,-283 699,-283 750.88,-283 808.27,-270.03 850.7,-257.87"/>
<polygon fill="black" stroke="black" points="851.72,-261.22 860.34,-255.05 849.76,-254.5 851.72,-261.22"/>
<text text-anchor="middle" x="519" y="-286" font-family="Fira Mono Medium" font-size="10.00">at</text>
</g>
<!-- node_4 -->
<g id="node5" class="node">
<title>node_4</title>
<polygon fill="none" stroke="black" points="359,-233 221,-233 221,-189 359,-189 359,-233"/>
<text text-anchor="start" x="271" y="-220.4" font-family="Fira Mono Medium" font-weight="bold" font-size="12.00">human</text>
<text text-anchor="start" x="237" y="-208.4" font-family="Fira Mono Medium" font-style="italic" font-size="12.00">kind:</text>
<text text-anchor="start" x="275" y="-208.4" font-family="Fira Mono Medium" font-size="12.00"> cannibal</text>
<text text-anchor="start" x="229" y="-196.4" font-family="Fira Mono Medium" font-style="italic" font-size="12.00">can&#45;drive:</text>
<text text-anchor="start" x="305" y="-196.4" font-family="Fira Mono Medium" font-size="12.00"> false</text>
</g>
<!-- node_3&#45;&gt;node_4 -->
<g id="edge4" class="edge">
<title>node_3&#45;&gt;node_4</title>
<path fill="none" stroke="black" d="M130.42,-194.72C136.36,-195.52 142.29,-196.3 148,-197 168.26,-199.49 190.2,-201.83 210.6,-203.87"/>
<polygon fill="black" stroke="black" points="210.5,-207.37 220.8,-204.87 211.19,-200.41 210.5,-207.37"/>
<text text-anchor="middle" x="175.5" y="-206" font-family="Fira Mono Medium" font-size="10.00">not&#45;equal</text>
</g>
<!-- node_5 -->
<g id="node6" class="node">
<title>node_5</title>
<polygon fill="none" stroke="black" points="588,-182 450,-182 450,-138 588,-138 588,-182"/>
<text text-anchor="start" x="500" y="-169.4" font-family="Fira Mono Medium" font-weight="bold" font-size="12.00">human</text>
<text text-anchor="start" x="466" y="-157.4" font-family="Fira Mono Medium" font-style="italic" font-size="12.00">kind:</text>
<text text-anchor="start" x="504" y="-157.4" font-family="Fira Mono Medium" font-size="12.00"> cannibal</text>
<text text-anchor="start" x="458" y="-145.4" font-family="Fira Mono Medium" font-style="italic" font-size="12.00">can&#45;drive:</text>
<text text-anchor="start" x="534" y="-145.4" font-family="Fira Mono Medium" font-size="12.00"> false</text>
</g>
<!-- node_3&#45;&gt;node_5 -->
<g id="edge5" class="edge">
<title>node_3&#45;&gt;node_5</title>
<path fill="none" stroke="black" d="M130,-177.89C136.09,-177.24 142.16,-176.6 148,-176 180.42,-172.67 188.49,-171.29 221,-169 290.23,-164.13 307.63,-164.05 377,-162 397.31,-161.4 419.26,-160.98 439.67,-160.68"/>
<polygon fill="black" stroke="black" points="439.91,-164.18 449.86,-160.55 439.81,-157.18 439.91,-164.18"/>
<text text-anchor="middle" x="290" y="-172" font-family="Fira Mono Medium" font-size="10.00">not&#45;equal</text>
</g>
<!-- node_4&#45;&gt;node_1 -->
<g id="edge9" class="edge">
<title>node_4&#45;&gt;node_1</title>
<path fill="none" stroke="black" d="M359.16,-213.84C476.93,-218.76 717.59,-228.8 839.57,-233.89"/>
<polygon fill="black" stroke="black" points="839.44,-237.39 849.58,-234.31 839.73,-230.4 839.44,-237.39"/>
<text text-anchor="middle" x="612.5" y="-227" font-family="Fira Mono Medium" font-size="10.00">at</text>
</g>
<!-- node_4&#45;&gt;node_3 -->
<g id="edge7" class="edge">
<title>node_4&#45;&gt;node_3</title>
<path fill="none" stroke="black" d="M226.58,-188.99C218.73,-186.94 210.73,-185.19 203,-184 182.79,-180.9 160.7,-180 140.27,-180.16"/>
<polygon fill="black" stroke="black" points="140.02,-176.67 130.08,-180.33 140.14,-183.66 140.02,-176.67"/>
<text text-anchor="middle" x="175.5" y="-187" font-family="Fira Mono Medium" font-size="10.00">not&#45;equal</text>
</g>
<!-- node_4&#45;&gt;node_5 -->
<g id="edge8" class="edge">
<title>node_4&#45;&gt;node_5</title>
<path fill="none" stroke="black" d="M359.24,-202.75C382.49,-199.3 408.54,-194.74 432,-189 436.94,-187.79 442.01,-186.42 447.08,-184.96"/>
<polygon fill="black" stroke="black" points="448.26,-188.26 456.83,-182.04 446.25,-181.56 448.26,-188.26"/>
<text text-anchor="middle" x="404.5" y="-202" font-family="Fira Mono Medium" font-size="10.00">not&#45;equal</text>
</g>
<!-- node_5&#45;&gt;node_0 -->
<g id="edge12" class="edge">
<title>node_5&#45;&gt;node_0</title>
<path fill="none" stroke="black" d="M588.18,-160C600.86,-160 614.13,-160 626.86,-160"/>
<polygon fill="black" stroke="black" points="626.94,-163.5 636.94,-160 626.94,-156.5 626.94,-163.5"/>
<text text-anchor="middle" x="612.5" y="-163" font-family="Fira Mono Medium" font-size="10.00">at</text>
</g>
<!-- node_5&#45;&gt;node_3 -->
<g id="edge10" class="edge">
<title>node_5&#45;&gt;node_3</title>
<path fill="none" stroke="black" d="M449.93,-150.71C389.58,-143.98 299.14,-137.56 221,-147 194.29,-150.23 165.54,-156.47 140.14,-162.98"/>
<polygon fill="black" stroke="black" points="139,-159.66 130.22,-165.58 140.78,-166.44 139,-159.66"/>
<text text-anchor="middle" x="290" y="-150" font-family="Fira Mono Medium" font-size="10.00">not&#45;equal</text>
</g>
<!-- node_5&#45;&gt;node_4 -->
<g id="edge11" class="edge">
<title>node_5&#45;&gt;node_4</title>
<path fill="none" stroke="black" d="M449.9,-163.94C426.54,-166.29 400.39,-170.03 377,-176 367.51,-178.42 357.68,-181.66 348.21,-185.2"/>
<polygon fill="black" stroke="black" points="346.94,-181.94 338.88,-188.82 349.47,-188.47 346.94,-181.94"/>
<text text-anchor="middle" x="404.5" y="-179" font-family="Fira Mono Medium" font-size="10.00">not&#45;equal</text>
</g>
<!-- node_6 -->
<g id="node7" class="node">
<title>node_6</title>
<polygon fill="none" stroke="black" points="358.5,-69 221.5,-69 221.5,-25 358.5,-25 358.5,-69"/>
<text text-anchor="start" x="271" y="-56.4" font-family="Fira Mono Medium" font-weight="bold" font-size="12.00">human</text>
<text text-anchor="start" x="229.5" y="-44.4" font-family="Fira Mono Medium" font-style="italic" font-size="12.00">kind:</text>
<text text-anchor="start" x="267.5" y="-44.4" font-family="Fira Mono Medium" font-size="12.00"> missionary</text>
<text text-anchor="start" x="233" y="-32.4" font-family="Fira Mono Medium" font-style="italic" font-size="12.00">can&#45;drive:</text>
<text text-anchor="start" x="309" y="-32.4" font-family="Fira Mono Medium" font-size="12.00"> true</text>
</g>
<!-- node_6&#45;&gt;node_0 -->
<g id="edge14" class="edge">
<title>node_6&#45;&gt;node_0</title>
<path fill="none" stroke="black" d="M358.63,-60.48C419.28,-73.21 510.41,-93.9 588,-118 606.63,-123.79 626.65,-131.16 644.38,-138.1"/>
<polygon fill="black" stroke="black" points="643.39,-141.47 653.97,-141.9 645.97,-134.96 643.39,-141.47"/>
<text text-anchor="middle" x="519" y="-121" font-family="Fira Mono Medium" font-size="10.00">at</text>
</g>
<!-- node_7 -->
<g id="node8" class="node">
<title>node_7</title>
<polygon fill="none" stroke="black" points="587.5,-44 450.5,-44 450.5,0 587.5,0 587.5,-44"/>
<text text-anchor="start" x="500" y="-31.4" font-family="Fira Mono Medium" font-weight="bold" font-size="12.00">human</text>
<text text-anchor="start" x="458.5" y="-19.4" font-family="Fira Mono Medium" font-style="italic" font-size="12.00">kind:</text>
<text text-anchor="start" x="496.5" y="-19.4" font-family="Fira Mono Medium" font-size="12.00"> missionary</text>
<text text-anchor="start" x="462" y="-7.4" font-family="Fira Mono Medium" font-style="italic" font-size="12.00">can&#45;drive:</text>
<text text-anchor="start" x="538" y="-7.4" font-family="Fira Mono Medium" font-size="12.00"> true</text>
</g>
<!-- node_6&#45;&gt;node_7 -->
<g id="edge13" class="edge">
<title>node_6&#45;&gt;node_7</title>
<path fill="none" stroke="black" d="M358.8,-39.53C384.4,-36.71 413.73,-33.48 440.18,-30.57"/>
<polygon fill="black" stroke="black" points="440.6,-34.05 450.16,-29.47 439.83,-27.09 440.6,-34.05"/>
<text text-anchor="middle" x="404.5" y="-41" font-family="Fira Mono Medium" font-size="10.00">not&#45;equal</text>
</g>
<!-- node_7&#45;&gt;node_0 -->
<g id="edge16" class="edge">
<title>node_7&#45;&gt;node_0</title>
<path fill="none" stroke="black" d="M587.68,-38.37C598.73,-42.74 609.61,-48.2 619,-55 647.25,-75.46 669.68,-109.17 683.11,-132.87"/>
<polygon fill="black" stroke="black" points="680.09,-134.64 687.97,-141.72 686.22,-131.27 680.09,-134.64"/>
<text text-anchor="middle" x="612.5" y="-58" font-family="Fira Mono Medium" font-size="10.00">at</text>
</g>
<!-- node_7&#45;&gt;node_6 -->
<g id="edge15" class="edge">
<title>node_7&#45;&gt;node_6</title>
<path fill="none" stroke="black" d="M450.21,-14.06C426.88,-12.78 400.67,-12.99 377,-17 369.82,-18.22 362.44,-19.97 355.16,-22.02"/>
<polygon fill="black" stroke="black" points="353.89,-18.74 345.33,-24.98 355.92,-25.45 353.89,-18.74"/>
<text text-anchor="middle" x="404.5" y="-20" font-family="Fira Mono Medium" font-size="10.00">not&#45;equal</text>
</g>
</g>
</svg>
