<?xml version="1.0" encoding="UTF-8" standalone="no"?>
<!DOCTYPE svg PUBLIC "-//W3C//DTD SVG 1.1//EN"
 "http://www.w3.org/Graphics/SVG/1.1/DTD/svg11.dtd">
<!-- Generated by graphviz version 2.43.0 (0)
 -->
<!-- Title: %3 Pages: 1 -->
<svg width="995pt" height="413pt"
 viewBox="0.00 0.00 995.00 413.00" xmlns="http://www.w3.org/2000/svg" xmlns:xlink="http://www.w3.org/1999/xlink">
<g id="graph0" class="graph" transform="scale(1 1) rotate(0) translate(4 409)">
<title>%3</title>
<polygon fill="white" stroke="transparent" points="-4,4 -4,-409 991,-409 991,4 -4,4"/>
<!-- node_0 -->
<g id="node1" class="node">
<title>node_0</title>
<polygon fill="none" stroke="black" points="766,-220 644,-220 644,-184 766,-184 766,-220"/>
<text text-anchor="start" x="689.5" y="-205.4" font-family="Fira Mono Medium" font-weight="bold" font-size="12.00">bank</text>
<text text-anchor="start" x="652" y="-193.4" font-family="Fira Mono Medium" font-style="italic" font-size="12.00">location:</text>
<text text-anchor="start" x="720" y="-193.4" font-family="Fira Mono Medium" font-size="12.00"> left</text>
</g>
<!-- node_1 -->
<g id="node2" class="node">
<title>node_1</title>
<polygon fill="none" stroke="black" points="987,-220 857,-220 857,-184 987,-184 987,-220"/>
<text text-anchor="start" x="906.5" y="-205.4" font-family="Fira Mono Medium" font-weight="bold" font-size="12.00">bank</text>
<text text-anchor="start" x="865" y="-193.4" font-family="Fira Mono Medium" font-style="italic" font-size="12.00">location:</text>
<text text-anchor="start" x="933" y="-193.4" font-family="Fira Mono Medium" font-size="12.00"> right</text>
</g>
<!-- node_0&#45;&gt;node_1 -->
<g id="edge1" class="edge">
<title>node_0&#45;&gt;node_1</title>
<path fill="none" stroke="black" d="M766.18,-202C791.07,-202 820.2,-202 846.43,-202"/>
<polygon fill="black" stroke="black" points="846.7,-205.5 856.7,-202 846.7,-198.5 846.7,-205.5"/>
<text text-anchor="middle" x="811.5" y="-205" font-family="Fira Mono Medium" font-size="10.00">not&#45;equal</text>
</g>
<!-- node_1&#45;&gt;node_0 -->
<g id="edge2" class="edge">
<title>node_1&#45;&gt;node_0</title>
<path fill="none" stroke="black" d="M856.69,-189.1C850.73,-188.25 844.77,-187.52 839,-187 814.66,-184.79 808.33,-184.68 784,-187 781.48,-187.24 778.92,-187.52 776.33,-187.84"/>
<polygon fill="black" stroke="black" points="775.73,-184.39 766.3,-189.23 776.69,-191.33 775.73,-184.39"/>
<text text-anchor="middle" x="811.5" y="-190" font-family="Fira Mono Medium" font-size="10.00">not&#45;equal</text>
</g>
<!-- node_2 -->
<g id="node3" class="node">
<title>node_2</title>
<polygon fill="none" stroke="black" points="553,-166 499,-166 499,-130 553,-130 553,-166"/>
<text text-anchor="start" x="510.5" y="-145.9" font-family="Fira Mono Medium" font-weight="bold" font-size="12.00">boat</text>
</g>
<!-- node_2&#45;&gt;node_0 -->
<g id="edge3" class="edge">
<title>node_2&#45;&gt;node_0</title>
<path fill="none" stroke="black" d="M553.11,-155.45C573.1,-161.21 601.34,-169.44 626,-177 630.05,-178.24 634.22,-179.54 638.42,-180.85"/>
<polygon fill="black" stroke="black" points="637.65,-184.28 648.24,-183.94 639.75,-177.6 637.65,-184.28"/>
<text text-anchor="middle" x="619.5" y="-180" font-family="Fira Mono Medium" font-size="10.00">at</text>
</g>
<!-- node_3 -->
<g id="node4" class="node">
<title>node_3</title>
<polygon fill="none" stroke="black" points="133.5,-326 3.5,-326 3.5,-282 133.5,-282 133.5,-326"/>
<text text-anchor="start" x="49.5" y="-313.4" font-family="Fira Mono Medium" font-weight="bold" font-size="12.00">human</text>
<text text-anchor="start" x="15.5" y="-301.4" font-family="Fira Mono Medium" font-style="italic" font-size="12.00">kind:</text>
<text text-anchor="start" x="53.5" y="-301.4" font-family="Fira Mono Medium" font-size="12.00"> cannibal</text>
<text text-anchor="start" x="11.5" y="-289.4" font-family="Fira Mono Medium" font-style="italic" font-size="12.00">can&#45;drive:</text>
<text text-anchor="start" x="87.5" y="-289.4" font-family="Fira Mono Medium" font-size="12.00"> true</text>
</g>
<!-- node_3&#45;&gt;node_1 -->
<g id="edge6" class="edge">
<title>node_3&#45;&gt;node_1</title>
<path fill="none" stroke="black" d="M102.03,-326.02C144.65,-352.66 222.59,-394 296,-394 296,-394 296,-394 706,-394 803.96,-394 877.82,-281.74 907.16,-228.9"/>
<polygon fill="black" stroke="black" points="910.26,-230.52 911.95,-220.06 904.11,-227.18 910.26,-230.52"/>
<text text-anchor="middle" x="526" y="-397" font-family="Fira Mono Medium" font-size="10.00">at</text>
</g>
<!-- node_4 -->
<g id="node5" class="node">
<title>node_4</title>
<polygon fill="none" stroke="black" points="366,-344 228,-344 228,-300 366,-300 366,-344"/>
<text text-anchor="start" x="278" y="-331.4" font-family="Fira Mono Medium" font-weight="bold" font-size="12.00">human</text>
<text text-anchor="start" x="244" y="-319.4" font-family="Fira Mono Medium" font-style="italic" font-size="12.00">kind:</text>
<text text-anchor="start" x="282" y="-319.4" font-family="Fira Mono Medium" font-size="12.00"> cannibal</text>
<text text-anchor="start" x="236" y="-307.4" font-family="Fira Mono Medium" font-style="italic" font-size="12.00">can&#45;drive:</text>
<text text-anchor="start" x="312" y="-307.4" font-family="Fira Mono Medium" font-size="12.00"> false</text>
</g>
<!-- node_3&#45;&gt;node_4 -->
<g id="edge4" class="edge">
<title>node_3&#45;&gt;node_4</title>
<path fill="none" stroke="black" d="M133.85,-313.71C140.97,-314.58 148.13,-315.37 155,-316 175.25,-317.85 197.18,-319.13 217.59,-320.01"/>
<polygon fill="black" stroke="black" points="217.65,-323.52 227.78,-320.43 217.93,-316.53 217.65,-323.52"/>
<text text-anchor="middle" x="182.5" y="-322" font-family="Fira Mono Medium" font-size="10.00">not&#45;equal</text>
</g>
<!-- node_5 -->
<g id="node6" class="node">
<title>node_5</title>
<polygon fill="none" stroke="black" points="595,-276 457,-276 457,-232 595,-232 595,-276"/>
<text text-anchor="start" x="507" y="-263.4" font-family="Fira Mono Medium" font-weight="bold" font-size="12.00">human</text>
<text text-anchor="start" x="473" y="-251.4" font-family="Fira Mono Medium" font-style="italic" font-size="12.00">kind:</text>
<text text-anchor="start" x="511" y="-251.4" font-family="Fira Mono Medium" font-size="12.00"> cannibal</text>
<text text-anchor="start" x="465" y="-239.4" font-family="Fira Mono Medium" font-style="italic" font-size="12.00">can&#45;drive:</text>
<text text-anchor="start" x="541" y="-239.4" font-family="Fira Mono Medium" font-size="12.00"> false</text>
</g>
<!-- node_3&#45;&gt;node_5 -->
<g id="edge5" class="edge">
<title>node_3&#45;&gt;node_5</title>
<path fill="none" stroke="black" d="M133.77,-293.33C162.54,-288.8 196.91,-283.71 228,-280 301.97,-271.17 386.64,-264.05 446.6,-259.51"/>
<polygon fill="black" stroke="black" points="447.04,-262.99 456.75,-258.75 446.52,-256.01 447.04,-262.99"/>
<text text-anchor="middle" x="297" y="-283" font-family="Fira Mono Medium" font-size="10.00">not&#45;equal</text>
</g>
<!-- node_4&#45;&gt;node_0 -->
<g id="edge9" class="edge">
<title>node_4&#45;&gt;node_0</title>
<path fill="none" stroke="black" d="M366.05,-326.32C372.12,-326.6 378.17,-326.83 384,-327 479.58,-329.78 509.19,-327.18 595,-285 625.85,-269.83 656.61,-245.34 677.55,-226.88"/>
<polygon fill="black" stroke="black" points="679.96,-229.41 685.07,-220.13 675.29,-224.2 679.96,-229.41"/>
<text text-anchor="middle" x="526" y="-330" font-family="Fira Mono Medium" font-size="10.00">at</text>
</g>
<!-- node_4&#45;&gt;node_3 -->
<g id="edge7" class="edge">
<title>node_4&#45;&gt;node_3</title>
<path fill="none" stroke="black" d="M227.69,-305.5C221.73,-304.49 215.78,-303.63 210,-303 188.54,-300.66 165.13,-300.05 143.68,-300.27"/>
<polygon fill="black" stroke="black" points="143.6,-296.77 133.66,-300.43 143.71,-303.77 143.6,-296.77"/>
<text text-anchor="middle" x="182.5" y="-306" font-family="Fira Mono Medium" font-size="10.00">not&#45;equal</text>
</g>
<!-- node_4&#45;&gt;node_5 -->
<g id="edge8" class="edge">
<title>node_4&#45;&gt;node_5</title>
<path fill="none" stroke="black" d="M350.34,-299.96C361.35,-295.7 372.98,-291.49 384,-288 404.12,-281.63 426.17,-275.79 446.73,-270.81"/>
<polygon fill="black" stroke="black" points="447.78,-274.16 456.7,-268.44 446.16,-267.35 447.78,-274.16"/>
<text text-anchor="middle" x="411.5" y="-291" font-family="Fira Mono Medium" font-size="10.00">not&#45;equal</text>
</g>
<!-- node_5&#45;&gt;node_0 -->
<g id="edge12" class="edge">
<title>node_5&#45;&gt;node_0</title>
<path fill="none" stroke="black" d="M595.18,-233.97C607.98,-230.21 621.39,-226.27 634.24,-222.49"/>
<polygon fill="black" stroke="black" points="635.33,-225.82 643.94,-219.64 633.36,-219.1 635.33,-225.82"/>
<text text-anchor="middle" x="619.5" y="-231" font-family="Fira Mono Medium" font-size="10.00">at</text>
</g>
<!-- node_5&#45;&gt;node_3 -->
<g id="edge10" class="edge">
<title>node_5&#45;&gt;node_3</title>
<path fill="none" stroke="black" d="M456.97,-246.75C396.45,-241.86 305.74,-238.35 228,-251 195.07,-256.36 159.74,-267.6 130.81,-278.36"/>
<polygon fill="black" stroke="black" points="129.37,-275.16 121.26,-281.97 131.85,-281.7 129.37,-275.16"/>
<text text-anchor="middle" x="297" y="-254" font-family="Fira Mono Medium" font-size="10.00">not&#45;equal</text>
</g>
<!-- node_5&#45;&gt;node_4 -->
<g id="edge11" class="edge">
<title>node_5&#45;&gt;node_4</title>
<path fill="none" stroke="black" d="M488.9,-276.19C473.93,-284.5 456.1,-293.3 439,-299 419.08,-305.64 396.92,-310.41 376.18,-313.81"/>
<polygon fill="black" stroke="black" points="375.47,-310.38 366.12,-315.37 376.54,-317.29 375.47,-310.38"/>
<text text-anchor="middle" x="411.5" y="-315" font-family="Fira Mono Medium" font-size="10.00">not&#45;equal</text>
</g>
<!-- node_6 -->
<g id="node7" class="node">
<title>node_6</title>
<polygon fill="none" stroke="black" points="365.5,-182 228.5,-182 228.5,-138 365.5,-138 365.5,-182"/>
<text text-anchor="start" x="278" y="-169.4" font-family="Fira Mono Medium" font-weight="bold" font-size="12.00">human</text>
<text text-anchor="start" x="236.5" y="-157.4" font-family="Fira Mono Medium" font-style="italic" font-size="12.00">kind:</text>
<text text-anchor="start" x="274.5" y="-157.4" font-family="Fira Mono Medium" font-size="12.00"> missionary</text>
<text text-anchor="start" x="240" y="-145.4" font-family="Fira Mono Medium" font-style="italic" font-size="12.00">can&#45;drive:</text>
<text text-anchor="start" x="316" y="-145.4" font-family="Fira Mono Medium" font-size="12.00"> true</text>
</g>
<!-- node_6&#45;&gt;node_0 -->
<g id="edge15" class="edge">
<title>node_6&#45;&gt;node_0</title>
<path fill="none" stroke="black" d="M365.6,-167.08C371.82,-167.73 378.03,-168.38 384,-169 469.95,-177.93 568.9,-188.12 633.73,-194.78"/>
<polygon fill="black" stroke="black" points="633.53,-198.28 643.84,-195.82 634.25,-191.32 633.53,-198.28"/>
<text text-anchor="middle" x="526" y="-193" font-family="Fira Mono Medium" font-size="10.00">at</text>
</g>
<!-- node_7 -->
<g id="node8" class="node">
<title>node_7</title>
<polygon fill="none" stroke="black" points="137,-115 0,-115 0,-71 137,-71 137,-115"/>
<text text-anchor="start" x="49.5" y="-102.4" font-family="Fira Mono Medium" font-weight="bold" font-size="12.00">human</text>
<text text-anchor="start" x="8" y="-90.4" font-family="Fira Mono Medium" font-style="italic" font-size="12.00">kind:</text>
<text text-anchor="start" x="46" y="-90.4" font-family="Fira Mono Medium" font-size="12.00"> missionary</text>
<text text-anchor="start" x="11.5" y="-78.4" font-family="Fira Mono Medium" font-style="italic" font-size="12.00">can&#45;drive:</text>
<text text-anchor="start" x="87.5" y="-78.4" font-family="Fira Mono Medium" font-size="12.00"> true</text>
</g>
<!-- node_6&#45;&gt;node_7 -->
<g id="edge13" class="edge">
<title>node_6&#45;&gt;node_7</title>
<path fill="none" stroke="black" d="M241.78,-137.98C231.32,-134.08 220.38,-130.23 210,-127 189.82,-120.72 167.71,-114.89 147.13,-109.89"/>
<polygon fill="black" stroke="black" points="147.7,-106.43 137.16,-107.51 146.07,-113.24 147.7,-106.43"/>
<text text-anchor="middle" x="182.5" y="-130" font-family="Fira Mono Medium" font-size="10.00">not&#45;equal</text>
</g>
<!-- node_8 -->
<g id="node9" class="node">
<title>node_8</title>
<polygon fill="none" stroke="black" points="594.5,-112 457.5,-112 457.5,-68 594.5,-68 594.5,-112"/>
<text text-anchor="start" x="507" y="-99.4" font-family="Fira Mono Medium" font-weight="bold" font-size="12.00">human</text>
<text text-anchor="start" x="465.5" y="-87.4" font-family="Fira Mono Medium" font-style="italic" font-size="12.00">kind:</text>
<text text-anchor="start" x="503.5" y="-87.4" font-family="Fira Mono Medium" font-size="12.00"> missionary</text>
<text text-anchor="start" x="469" y="-75.4" font-family="Fira Mono Medium" font-style="italic" font-size="12.00">can&#45;drive:</text>
<text text-anchor="start" x="545" y="-75.4" font-family="Fira Mono Medium" font-size="12.00"> true</text>
</g>
<!-- node_6&#45;&gt;node_8 -->
<g id="edge14" class="edge">
<title>node_6&#45;&gt;node_8</title>
<path fill="none" stroke="black" d="M365.77,-157.69C389.84,-154.76 416.53,-149.01 439,-138 448.88,-133.16 447.87,-127.14 457,-121 458.92,-119.71 460.91,-118.44 462.94,-117.21"/>
<polygon fill="black" stroke="black" points="465.12,-120 472.08,-112.01 461.66,-113.91 465.12,-120"/>
<text text-anchor="middle" x="411.5" y="-157" font-family="Fira Mono Medium" font-size="10.00">not&#45;equal</text>
</g>
<!-- node_7&#45;&gt;node_1 -->
<g id="edge18" class="edge">
<title>node_7&#45;&gt;node_1</title>
<path fill="none" stroke="black" d="M100.84,-70.96C143.08,-43.46 221.61,0 296,0 296,0 296,0 706,0 806.74,0 879.6,-119.24 907.95,-174.5"/>
<polygon fill="black" stroke="black" points="904.96,-176.35 912.57,-183.72 911.22,-173.21 904.96,-176.35"/>
<text text-anchor="middle" x="526" y="-3" font-family="Fira Mono Medium" font-size="10.00">at</text>
</g>
<!-- node_7&#45;&gt;node_6 -->
<g id="edge16" class="edge">
<title>node_7&#45;&gt;node_6</title>
<path fill="none" stroke="black" d="M104.94,-115.02C119.9,-123.41 137.8,-132.31 155,-138 175.01,-144.62 197.29,-149.27 218.13,-152.53"/>
<polygon fill="black" stroke="black" points="217.82,-156.02 228.22,-154.02 218.84,-149.1 217.82,-156.02"/>
<text text-anchor="middle" x="182.5" y="-153" font-family="Fira Mono Medium" font-size="10.00">not&#45;equal</text>
</g>
<!-- node_7&#45;&gt;node_8 -->
<g id="edge17" class="edge">
<title>node_7&#45;&gt;node_8</title>
<path fill="none" stroke="black" d="M137.2,-92.55C220.04,-92.01 360.01,-91.09 447.2,-90.51"/>
<polygon fill="black" stroke="black" points="447.32,-94.01 457.3,-90.45 447.28,-87.01 447.32,-94.01"/>
<text text-anchor="middle" x="297" y="-94" font-family="Fira Mono Medium" font-size="10.00">not&#45;equal</text>
</g>
<!-- node_8&#45;&gt;node_0 -->
<g id="edge21" class="edge">
<title>node_8&#45;&gt;node_0</title>
<path fill="none" stroke="black" d="M578.47,-112.05C584.13,-114.89 589.75,-117.9 595,-121 623.32,-137.72 653.14,-160.27 674.41,-177.33"/>
<polygon fill="black" stroke="black" points="672.44,-180.23 682.41,-183.8 676.84,-174.79 672.44,-180.23"/>
<text text-anchor="middle" x="619.5" y="-142" font-family="Fira Mono Medium" font-size="10.00">at</text>
</g>
<!-- node_8&#45;&gt;node_6 -->
<g id="edge19" class="edge">
<title>node_8&#45;&gt;node_6</title>
<path fill="none" stroke="black" d="M457.38,-104.7C433.94,-110.35 407.62,-117.31 384,-125 375.65,-127.72 366.95,-130.87 358.44,-134.14"/>
<polygon fill="black" stroke="black" points="356.97,-130.96 348.94,-137.87 359.53,-137.47 356.97,-130.96"/>
<text text-anchor="middle" x="411.5" y="-128" font-family="Fira Mono Medium" font-size="10.00">not&#45;equal</text>
</g>
<!-- node_8&#45;&gt;node_7 -->
<g id="edge20" class="edge">
<title>node_8&#45;&gt;node_7</title>
<path fill="none" stroke="black" d="M457.39,-82.73C429.17,-80.04 396.04,-77.32 366,-76 304.73,-73.31 289.25,-72.72 228,-76 201.65,-77.41 172.94,-80.13 147.29,-82.98"/>
<polygon fill="black" stroke="black" points="146.79,-79.52 137.25,-84.12 147.58,-86.47 146.79,-79.52"/>
<text text-anchor="middle" x="297" y="-79" font-family="Fira Mono Medium" font-size="10.00">not&#45;equal</text>
</g>
</g>
</svg>
