<?xml version="1.0" encoding="UTF-8" standalone="no"?>
<!DOCTYPE svg PUBLIC "-//W3C//DTD SVG 1.1//EN"
 "http://www.w3.org/Graphics/SVG/1.1/DTD/svg11.dtd">
<!-- Generated by graphviz version 2.43.0 (0)
 -->
<!-- Title: %3 Pages: 1 -->
<svg width="824pt" height="252pt"
 viewBox="0.00 0.00 824.00 252.00" xmlns="http://www.w3.org/2000/svg" xmlns:xlink="http://www.w3.org/1999/xlink">
<g id="graph0" class="graph" transform="scale(1 1) rotate(0) translate(4 248)">
<title>%3</title>
<polygon fill="white" stroke="transparent" points="-4,4 -4,-248 820,-248 820,4 -4,4"/>
<!-- node_0 -->
<g id="node1" class="node">
<title>node_0</title>
<polygon fill="none" stroke="black" points="587,-128 465,-128 465,-92 587,-92 587,-128"/>
<text text-anchor="start" x="510.5" y="-113.4" font-family="Fira Mono Medium" font-weight="bold" font-size="12.00">bank</text>
<text text-anchor="start" x="473" y="-101.4" font-family="Fira Mono Medium" font-style="italic" font-size="12.00">location:</text>
<text text-anchor="start" x="541" y="-101.4" font-family="Fira Mono Medium" font-size="12.00"> left</text>
</g>
<!-- node_1 -->
<g id="node2" class="node">
<title>node_1</title>
<polygon fill="none" stroke="black" points="816,-179 686,-179 686,-143 816,-143 816,-179"/>
<text text-anchor="start" x="735.5" y="-164.4" font-family="Fira Mono Medium" font-weight="bold" font-size="12.00">bank</text>
<text text-anchor="start" x="694" y="-152.4" font-family="Fira Mono Medium" font-style="italic" font-size="12.00">location:</text>
<text text-anchor="start" x="762" y="-152.4" font-family="Fira Mono Medium" font-size="12.00"> right</text>
</g>
<!-- node_0&#45;&gt;node_1 -->
<g id="edge1" class="edge">
<title>node_0&#45;&gt;node_1</title>
<path fill="none" stroke="black" d="M587,-103.41C612.43,-102.41 642.1,-103.63 668,-111 686.5,-116.27 704.98,-126.94 719.7,-137.08"/>
<polygon fill="black" stroke="black" points="717.73,-139.97 727.9,-142.94 721.8,-134.28 717.73,-139.97"/>
<text text-anchor="middle" x="640.5" y="-114" font-family="Fira Mono Medium" font-size="10.00">not&#45;equal</text>
</g>
<!-- node_1&#45;&gt;node_0 -->
<g id="edge2" class="edge">
<title>node_1&#45;&gt;node_0</title>
<path fill="none" stroke="black" d="M685.93,-146.35C658.09,-139.98 625.4,-132.5 596.93,-125.99"/>
<polygon fill="black" stroke="black" points="597.58,-122.55 587.05,-123.73 596.02,-129.38 597.58,-122.55"/>
<text text-anchor="middle" x="640.5" y="-144" font-family="Fira Mono Medium" font-size="10.00">not&#45;equal</text>
</g>
<!-- node_2 -->
<g id="node3" class="node">
<title>node_2</title>
<polygon fill="none" stroke="black" points="324.5,-36 270.5,-36 270.5,0 324.5,0 324.5,-36"/>
<text text-anchor="start" x="282" y="-15.9" font-family="Fira Mono Medium" font-weight="bold" font-size="12.00">boat</text>
</g>
<!-- node_2&#45;&gt;node_0 -->
<g id="edge3" class="edge">
<title>node_2&#45;&gt;node_0</title>
<path fill="none" stroke="black" d="M324.69,-26.66C353.12,-36.26 399.74,-52.56 439,-69 452.38,-74.6 466.69,-81.18 479.72,-87.41"/>
<polygon fill="black" stroke="black" points="478.42,-90.66 488.95,-91.86 481.46,-84.36 478.42,-90.66"/>
<text text-anchor="middle" x="411.5" y="-72" font-family="Fira Mono Medium" font-size="10.00">at</text>
</g>
<!-- node_3 -->
<g id="node4" class="node">
<title>node_3</title>
<polygon fill="none" stroke="black" points="362.5,-166 232.5,-166 232.5,-122 362.5,-122 362.5,-166"/>
<text text-anchor="start" x="278.5" y="-153.4" font-family="Fira Mono Medium" font-weight="bold" font-size="12.00">human</text>
<text text-anchor="start" x="244.5" y="-141.4" font-family="Fira Mono Medium" font-style="italic" font-size="12.00">kind:</text>
<text text-anchor="start" x="282.5" y="-141.4" font-family="Fira Mono Medium" font-size="12.00"> cannibal</text>
<text text-anchor="start" x="240.5" y="-129.4" font-family="Fira Mono Medium" font-style="italic" font-size="12.00">can&#45;drive:</text>
<text text-anchor="start" x="316.5" y="-129.4" font-family="Fira Mono Medium" font-size="12.00"> true</text>
</g>
<!-- node_3&#45;&gt;node_0 -->
<g id="edge6" class="edge">
<title>node_3&#45;&gt;node_0</title>
<path fill="none" stroke="black" d="M346.89,-121.85C358.78,-117.39 371.65,-113.35 384,-111 406.73,-106.68 431.9,-105.42 454.61,-105.54"/>
<polygon fill="black" stroke="black" points="454.8,-109.04 464.85,-105.68 454.9,-102.04 454.8,-109.04"/>
<text text-anchor="middle" x="411.5" y="-114" font-family="Fira Mono Medium" font-size="10.00">at</text>
</g>
<!-- node_4 -->
<g id="node5" class="node">
<title>node_4</title>
<polygon fill="none" stroke="black" points="138,-226 0,-226 0,-182 138,-182 138,-226"/>
<text text-anchor="start" x="50" y="-213.4" font-family="Fira Mono Medium" font-weight="bold" font-size="12.00">human</text>
<text text-anchor="start" x="16" y="-201.4" font-family="Fira Mono Medium" font-style="italic" font-size="12.00">kind:</text>
<text text-anchor="start" x="54" y="-201.4" font-family="Fira Mono Medium" font-size="12.00"> cannibal</text>
<text text-anchor="start" x="8" y="-189.4" font-family="Fira Mono Medium" font-style="italic" font-size="12.00">can&#45;drive:</text>
<text text-anchor="start" x="84" y="-189.4" font-family="Fira Mono Medium" font-size="12.00"> false</text>
</g>
<!-- node_3&#45;&gt;node_4 -->
<g id="edge4" class="edge">
<title>node_3&#45;&gt;node_4</title>
<path fill="none" stroke="black" d="M232.32,-136.6C207.93,-135.81 180.2,-137.4 156,-145 136.32,-151.18 117.13,-163.54 101.89,-175.36"/>
<polygon fill="black" stroke="black" points="99.44,-172.83 93.85,-181.82 103.83,-178.28 99.44,-172.83"/>
<text text-anchor="middle" x="183.5" y="-148" font-family="Fira Mono Medium" font-size="10.00">not&#45;equal</text>
</g>
<!-- node_5 -->
<g id="node6" class="node">
<title>node_5</title>
<polygon fill="none" stroke="black" points="595,-200 457,-200 457,-156 595,-156 595,-200"/>
<text text-anchor="start" x="507" y="-187.4" font-family="Fira Mono Medium" font-weight="bold" font-size="12.00">human</text>
<text text-anchor="start" x="473" y="-175.4" font-family="Fira Mono Medium" font-style="italic" font-size="12.00">kind:</text>
<text text-anchor="start" x="511" y="-175.4" font-family="Fira Mono Medium" font-size="12.00"> cannibal</text>
<text text-anchor="start" x="465" y="-163.4" font-family="Fira Mono Medium" font-style="italic" font-size="12.00">can&#45;drive:</text>
<text text-anchor="start" x="541" y="-163.4" font-family="Fira Mono Medium" font-size="12.00"> false</text>
</g>
<!-- node_3&#45;&gt;node_5 -->
<g id="edge5" class="edge">
<title>node_3&#45;&gt;node_5</title>
<path fill="none" stroke="black" d="M362.8,-153.65C389.01,-157.59 419.55,-162.17 447.01,-166.29"/>
<polygon fill="black" stroke="black" points="446.57,-169.77 456.98,-167.79 447.61,-162.84 446.57,-169.77"/>
<text text-anchor="middle" x="411.5" y="-168" font-family="Fira Mono Medium" font-size="10.00">not&#45;equal</text>
</g>
<!-- node_4&#45;&gt;node_1 -->
<g id="edge9" class="edge">
<title>node_4&#45;&gt;node_1</title>
<path fill="none" stroke="black" d="M138.29,-222.75C144.25,-224 150.21,-225.11 156,-226 188.12,-230.94 196.52,-229.11 229,-230 391.87,-234.46 435.18,-240.71 595,-209 627.52,-202.55 662.9,-191.88 691.64,-182.24"/>
<polygon fill="black" stroke="black" points="692.77,-185.55 701.11,-179.02 690.52,-178.92 692.77,-185.55"/>
<text text-anchor="middle" x="411.5" y="-236" font-family="Fira Mono Medium" font-size="10.00">at</text>
</g>
<!-- node_4&#45;&gt;node_3 -->
<g id="edge7" class="edge">
<title>node_4&#45;&gt;node_3</title>
<path fill="none" stroke="black" d="M138,-183.97C144.08,-182.26 150.15,-180.58 156,-179 177.57,-173.18 201.1,-167.18 222.63,-161.83"/>
<polygon fill="black" stroke="black" points="223.5,-165.22 232.37,-159.42 221.82,-158.43 223.5,-165.22"/>
<text text-anchor="middle" x="183.5" y="-182" font-family="Fira Mono Medium" font-size="10.00">not&#45;equal</text>
</g>
<!-- node_4&#45;&gt;node_5 -->
<g id="edge8" class="edge">
<title>node_4&#45;&gt;node_5</title>
<path fill="none" stroke="black" d="M138.12,-200.11C220.75,-195.39 359.75,-187.44 446.71,-182.47"/>
<polygon fill="black" stroke="black" points="447,-185.96 456.79,-181.9 446.61,-178.97 447,-185.96"/>
<text text-anchor="middle" x="297.5" y="-197" font-family="Fira Mono Medium" font-size="10.00">not&#45;equal</text>
</g>
<!-- node_5&#45;&gt;node_1 -->
<g id="edge12" class="edge">
<title>node_5&#45;&gt;node_1</title>
<path fill="none" stroke="black" d="M595.12,-172.81C620.56,-170.87 649.57,-168.66 675.56,-166.68"/>
<polygon fill="black" stroke="black" points="676.02,-170.15 685.73,-165.9 675.49,-163.17 676.02,-170.15"/>
<text text-anchor="middle" x="640.5" y="-174" font-family="Fira Mono Medium" font-size="10.00">at</text>
</g>
<!-- node_5&#45;&gt;node_3 -->
<g id="edge10" class="edge">
<title>node_5&#45;&gt;node_3</title>
<path fill="none" stroke="black" d="M480.04,-155.9C467.1,-150.6 452.76,-145.69 439,-143 417.71,-138.83 394.26,-137.68 372.72,-137.95"/>
<polygon fill="black" stroke="black" points="372.56,-134.46 362.65,-138.18 372.72,-141.46 372.56,-134.46"/>
<text text-anchor="middle" x="411.5" y="-146" font-family="Fira Mono Medium" font-size="10.00">not&#45;equal</text>
</g>
<!-- node_5&#45;&gt;node_4 -->
<g id="edge11" class="edge">
<title>node_5&#45;&gt;node_4</title>
<path fill="none" stroke="black" d="M456.57,-194.43C450.64,-195.7 444.72,-196.91 439,-198 315.33,-221.66 281.81,-216.11 156,-211 153.45,-210.9 150.85,-210.78 148.23,-210.64"/>
<polygon fill="black" stroke="black" points="148.22,-207.13 138.04,-210.05 147.82,-214.12 148.22,-207.13"/>
<text text-anchor="middle" x="297.5" y="-218" font-family="Fira Mono Medium" font-size="10.00">not&#45;equal</text>
</g>
<!-- node_6 -->
<g id="node7" class="node">
<title>node_6</title>
<polygon fill="none" stroke="black" points="366,-98 229,-98 229,-54 366,-54 366,-98"/>
<text text-anchor="start" x="278.5" y="-85.4" font-family="Fira Mono Medium" font-weight="bold" font-size="12.00">human</text>
<text text-anchor="start" x="237" y="-73.4" font-family="Fira Mono Medium" font-style="italic" font-size="12.00">kind:</text>
<text text-anchor="start" x="275" y="-73.4" font-family="Fira Mono Medium" font-size="12.00"> missionary</text>
<text text-anchor="start" x="240.5" y="-61.4" font-family="Fira Mono Medium" font-style="italic" font-size="12.00">can&#45;drive:</text>
<text text-anchor="start" x="316.5" y="-61.4" font-family="Fira Mono Medium" font-size="12.00"> true</text>
</g>
<!-- node_6&#45;&gt;node_0 -->
<g id="edge13" class="edge">
<title>node_6&#45;&gt;node_0</title>
<path fill="none" stroke="black" d="M366.24,-81.7C389.39,-84.05 415.4,-87.14 439,-91 444.06,-91.83 449.27,-92.76 454.5,-93.76"/>
<polygon fill="black" stroke="black" points="454.06,-97.25 464.55,-95.76 455.43,-90.38 454.06,-97.25"/>
<text text-anchor="middle" x="411.5" y="-94" font-family="Fira Mono Medium" font-size="10.00">at</text>
</g>
</g>
</svg>
