<?xml version="1.0" encoding="UTF-8" standalone="no"?>
<!DOCTYPE svg PUBLIC "-//W3C//DTD SVG 1.1//EN"
 "http://www.w3.org/Graphics/SVG/1.1/DTD/svg11.dtd">
<!-- Generated by graphviz version 2.43.0 (0)
 -->
<!-- Title: %3 Pages: 1 -->
<svg width="1045pt" height="302pt"
 viewBox="0.00 0.00 1045.00 301.94" xmlns="http://www.w3.org/2000/svg" xmlns:xlink="http://www.w3.org/1999/xlink">
<g id="graph0" class="graph" transform="scale(1 1) rotate(0) translate(4 297.94)">
<title>%3</title>
<polygon fill="white" stroke="transparent" points="-4,4 -4,-297.94 1041,-297.94 1041,4 -4,4"/>
<!-- node_0 -->
<g id="node1" class="node">
<title>node_0</title>
<polygon fill="none" stroke="black" points="808.5,-125.94 686.5,-125.94 686.5,-89.94 808.5,-89.94 808.5,-125.94"/>
<text text-anchor="start" x="732" y="-111.34" font-family="Fira Mono Medium" font-weight="bold" font-size="12.00">bank</text>
<text text-anchor="start" x="694.5" y="-99.34" font-family="Fira Mono Medium" font-style="italic" font-size="12.00">location:</text>
<text text-anchor="start" x="762.5" y="-99.34" font-family="Fira Mono Medium" font-size="12.00"> left</text>
</g>
<!-- node_1 -->
<g id="node2" class="node">
<title>node_1</title>
<polygon fill="none" stroke="black" points="1037,-193.94 907,-193.94 907,-157.94 1037,-157.94 1037,-193.94"/>
<text text-anchor="start" x="956.5" y="-179.34" font-family="Fira Mono Medium" font-weight="bold" font-size="12.00">bank</text>
<text text-anchor="start" x="915" y="-167.34" font-family="Fira Mono Medium" font-style="italic" font-size="12.00">location:</text>
<text text-anchor="start" x="983" y="-167.34" font-family="Fira Mono Medium" font-size="12.00"> right</text>
</g>
<!-- node_0&#45;&gt;node_1 -->
<g id="edge1" class="edge">
<title>node_0&#45;&gt;node_1</title>
<path fill="none" stroke="black" d="M807.54,-125.98C836.7,-134.89 872.05,-145.69 902.4,-154.97"/>
<polygon fill="black" stroke="black" points="901.48,-158.35 912.07,-157.93 903.53,-151.66 901.48,-158.35"/>
<text text-anchor="middle" x="861.5" y="-152.94" font-family="Fira Mono Medium" font-size="10.00">not&#45;equal</text>
</g>
<!-- node_1&#45;&gt;node_0 -->
<g id="edge2" class="edge">
<title>node_1&#45;&gt;node_0</title>
<path fill="none" stroke="black" d="M950.75,-157.67C935.09,-144.71 912.22,-128.21 889,-119.94 866.9,-112.06 841.66,-108.4 818.73,-106.91"/>
<polygon fill="black" stroke="black" points="818.89,-103.41 808.72,-106.38 818.52,-110.4 818.89,-103.41"/>
<text text-anchor="middle" x="861.5" y="-122.94" font-family="Fira Mono Medium" font-size="10.00">not&#45;equal</text>
</g>
<!-- node_2 -->
<g id="node3" class="node">
<title>node_2</title>
<polygon fill="none" stroke="black" points="774.5,-293.94 720.5,-293.94 720.5,-257.94 774.5,-257.94 774.5,-293.94"/>
<text text-anchor="start" x="732" y="-273.84" font-family="Fira Mono Medium" font-weight="bold" font-size="12.00">boat</text>
</g>
<!-- node_2&#45;&gt;node_1 -->
<g id="edge3" class="edge">
<title>node_2&#45;&gt;node_1</title>
<path fill="none" stroke="black" d="M774.55,-273.38C803.69,-269.74 851.69,-261.32 889,-242.94 910.34,-232.42 931.07,-215.41 946.34,-201.16"/>
<polygon fill="black" stroke="black" points="949.01,-203.45 953.81,-194.01 944.16,-198.4 949.01,-203.45"/>
<text text-anchor="middle" x="861.5" y="-263.94" font-family="Fira Mono Medium" font-size="10.00">at</text>
</g>
<!-- node_3 -->
<g id="node4" class="node">
<title>node_3</title>
<polygon fill="none" stroke="black" points="130,-58.94 0,-58.94 0,-14.94 130,-14.94 130,-58.94"/>
<text text-anchor="start" x="46" y="-46.34" font-family="Fira Mono Medium" font-weight="bold" font-size="12.00">human</text>
<text text-anchor="start" x="12" y="-34.34" font-family="Fira Mono Medium" font-style="italic" font-size="12.00">kind:</text>
<text text-anchor="start" x="50" y="-34.34" font-family="Fira Mono Medium" font-size="12.00"> cannibal</text>
<text text-anchor="start" x="8" y="-22.34" font-family="Fira Mono Medium" font-style="italic" font-size="12.00">can&#45;drive:</text>
<text text-anchor="start" x="84" y="-22.34" font-family="Fira Mono Medium" font-size="12.00"> true</text>
</g>
<!-- node_3&#45;&gt;node_0 -->
<g id="edge6" class="edge">
<title>node_3&#45;&gt;node_0</title>
<path fill="none" stroke="black" d="M106.73,-58.98C137.22,-74.24 180.48,-93.29 221,-101.94 380.81,-136.04 574.22,-125.36 675.99,-115.87"/>
<polygon fill="black" stroke="black" points="676.53,-119.33 686.15,-114.9 675.86,-112.37 676.53,-119.33"/>
<text text-anchor="middle" x="404.5" y="-126.94" font-family="Fira Mono Medium" font-size="10.00">at</text>
</g>
<!-- node_4 -->
<g id="node5" class="node">
<title>node_4</title>
<polygon fill="none" stroke="black" points="359,-92.94 221,-92.94 221,-48.94 359,-48.94 359,-92.94"/>
<text text-anchor="start" x="271" y="-80.34" font-family="Fira Mono Medium" font-weight="bold" font-size="12.00">human</text>
<text text-anchor="start" x="237" y="-68.34" font-family="Fira Mono Medium" font-style="italic" font-size="12.00">kind:</text>
<text text-anchor="start" x="275" y="-68.34" font-family="Fira Mono Medium" font-size="12.00"> cannibal</text>
<text text-anchor="start" x="229" y="-56.34" font-family="Fira Mono Medium" font-style="italic" font-size="12.00">can&#45;drive:</text>
<text text-anchor="start" x="305" y="-56.34" font-family="Fira Mono Medium" font-size="12.00"> false</text>
</g>
<!-- node_3&#45;&gt;node_4 -->
<g id="edge4" class="edge">
<title>node_3&#45;&gt;node_4</title>
<path fill="none" stroke="black" d="M130.2,-46.72C155.42,-50.57 184.59,-55.02 211,-59.04"/>
<polygon fill="black" stroke="black" points="210.56,-62.52 220.98,-60.56 211.62,-55.6 210.56,-62.52"/>
<text text-anchor="middle" x="175.5" y="-59.94" font-family="Fira Mono Medium" font-size="10.00">not&#45;equal</text>
</g>
<!-- node_5 -->
<g id="node6" class="node">
<title>node_5</title>
<polygon fill="none" stroke="black" points="588,-58.94 450,-58.94 450,-14.94 588,-14.94 588,-58.94"/>
<text text-anchor="start" x="500" y="-46.34" font-family="Fira Mono Medium" font-weight="bold" font-size="12.00">human</text>
<text text-anchor="start" x="466" y="-34.34" font-family="Fira Mono Medium" font-style="italic" font-size="12.00">kind:</text>
<text text-anchor="start" x="504" y="-34.34" font-family="Fira Mono Medium" font-size="12.00"> cannibal</text>
<text text-anchor="start" x="458" y="-22.34" font-family="Fira Mono Medium" font-style="italic" font-size="12.00">can&#45;drive:</text>
<text text-anchor="start" x="534" y="-22.34" font-family="Fira Mono Medium" font-size="12.00"> false</text>
</g>
<!-- node_3&#45;&gt;node_5 -->
<g id="edge5" class="edge">
<title>node_3&#45;&gt;node_5</title>
<path fill="none" stroke="black" d="M130.39,-28.36C136.34,-27.79 142.27,-27.3 148,-26.94 273.97,-19.01 306.03,-17.91 432,-25.94 434.41,-26.09 436.85,-26.27 439.32,-26.46"/>
<polygon fill="black" stroke="black" points="439.27,-29.97 449.54,-27.38 439.89,-23 439.27,-29.97"/>
<text text-anchor="middle" x="290" y="-24.94" font-family="Fira Mono Medium" font-size="10.00">not&#45;equal</text>
</g>
<!-- node_4&#45;&gt;node_0 -->
<g id="edge9" class="edge">
<title>node_4&#45;&gt;node_0</title>
<path fill="none" stroke="black" d="M359.19,-76.48C444.45,-83.4 589.66,-95.2 675.99,-102.21"/>
<polygon fill="black" stroke="black" points="675.97,-105.72 686.22,-103.04 676.54,-98.74 675.97,-105.72"/>
<text text-anchor="middle" x="519" y="-96.94" font-family="Fira Mono Medium" font-size="10.00">at</text>
</g>
<!-- node_4&#45;&gt;node_3 -->
<g id="edge7" class="edge">
<title>node_4&#45;&gt;node_3</title>
<path fill="none" stroke="black" d="M244.04,-48.84C231.1,-43.53 216.76,-38.63 203,-35.94 182.93,-32.01 160.89,-30.83 140.47,-31"/>
<polygon fill="black" stroke="black" points="140.2,-27.51 130.27,-31.2 140.33,-34.5 140.2,-27.51"/>
<text text-anchor="middle" x="175.5" y="-38.94" font-family="Fira Mono Medium" font-size="10.00">not&#45;equal</text>
</g>
<!-- node_4&#45;&gt;node_5 -->
<g id="edge8" class="edge">
<title>node_4&#45;&gt;node_5</title>
<path fill="none" stroke="black" d="M359.11,-60.73C384.58,-56.92 413.71,-52.56 440.01,-48.62"/>
<polygon fill="black" stroke="black" points="440.57,-52.07 449.94,-47.13 439.53,-45.15 440.57,-52.07"/>
<text text-anchor="middle" x="404.5" y="-60.94" font-family="Fira Mono Medium" font-size="10.00">not&#45;equal</text>
</g>
<!-- node_5&#45;&gt;node_0 -->
<g id="edge12" class="edge">
<title>node_5&#45;&gt;node_0</title>
<path fill="none" stroke="black" d="M588.03,-51.57C611.38,-57.18 637.54,-64.14 661,-71.94 673.06,-75.94 685.81,-80.9 697.67,-85.84"/>
<polygon fill="black" stroke="black" points="696.4,-89.1 706.97,-89.78 699.13,-82.66 696.4,-89.1"/>
<text text-anchor="middle" x="633.5" y="-74.94" font-family="Fira Mono Medium" font-size="10.00">at</text>
</g>
<!-- node_5&#45;&gt;node_3 -->
<g id="edge10" class="edge">
<title>node_5&#45;&gt;node_3</title>
<path fill="none" stroke="black" d="M449.99,-21.64C443.91,-20.35 437.85,-19.1 432,-17.94 339.86,0.44 314.53,3.95 221,-4.94 188.11,-8.06 180.36,-12.28 148,-18.94 145.5,-19.45 142.96,-19.98 140.4,-20.51"/>
<polygon fill="black" stroke="black" points="139.48,-17.13 130.42,-22.62 140.93,-23.98 139.48,-17.13"/>
<text text-anchor="middle" x="290" y="-7.94" font-family="Fira Mono Medium" font-size="10.00">not&#45;equal</text>
</g>
<!-- node_5&#45;&gt;node_4 -->
<g id="edge11" class="edge">
<title>node_5&#45;&gt;node_4</title>
<path fill="none" stroke="black" d="M449.72,-30.99C426.46,-30.4 400.42,-31.35 377,-35.94 366.57,-37.98 355.81,-41.29 345.58,-45.08"/>
<polygon fill="black" stroke="black" points="344,-41.94 335.96,-48.84 346.55,-48.46 344,-41.94"/>
<text text-anchor="middle" x="404.5" y="-38.94" font-family="Fira Mono Medium" font-size="10.00">not&#45;equal</text>
</g>
<!-- node_6 -->
<g id="node7" class="node">
<title>node_6</title>
<polygon fill="none" stroke="black" points="587.5,-224.94 450.5,-224.94 450.5,-180.94 587.5,-180.94 587.5,-224.94"/>
<text text-anchor="start" x="500" y="-212.34" font-family="Fira Mono Medium" font-weight="bold" font-size="12.00">human</text>
<text text-anchor="start" x="458.5" y="-200.34" font-family="Fira Mono Medium" font-style="italic" font-size="12.00">kind:</text>
<text text-anchor="start" x="496.5" y="-200.34" font-family="Fira Mono Medium" font-size="12.00"> missionary</text>
<text text-anchor="start" x="462" y="-188.34" font-family="Fira Mono Medium" font-style="italic" font-size="12.00">can&#45;drive:</text>
<text text-anchor="start" x="538" y="-188.34" font-family="Fira Mono Medium" font-size="12.00"> true</text>
</g>
<!-- node_6&#45;&gt;node_1 -->
<g id="edge14" class="edge">
<title>node_6&#45;&gt;node_1</title>
<path fill="none" stroke="black" d="M587.6,-204.66C593.82,-204.77 600.03,-204.87 606,-204.94 699.34,-206.02 723.06,-210.58 816,-201.94 842.5,-199.47 871.31,-195.11 896.83,-190.65"/>
<polygon fill="black" stroke="black" points="897.57,-194.08 906.8,-188.88 896.34,-187.18 897.57,-194.08"/>
<text text-anchor="middle" x="747.5" y="-209.94" font-family="Fira Mono Medium" font-size="10.00">at</text>
</g>
<!-- node_7 -->
<g id="node8" class="node">
<title>node_7</title>
<polygon fill="none" stroke="black" points="816,-192.94 679,-192.94 679,-148.94 816,-148.94 816,-192.94"/>
<text text-anchor="start" x="728.5" y="-180.34" font-family="Fira Mono Medium" font-weight="bold" font-size="12.00">human</text>
<text text-anchor="start" x="687" y="-168.34" font-family="Fira Mono Medium" font-style="italic" font-size="12.00">kind:</text>
<text text-anchor="start" x="725" y="-168.34" font-family="Fira Mono Medium" font-size="12.00"> missionary</text>
<text text-anchor="start" x="690.5" y="-156.34" font-family="Fira Mono Medium" font-style="italic" font-size="12.00">can&#45;drive:</text>
<text text-anchor="start" x="766.5" y="-156.34" font-family="Fira Mono Medium" font-size="12.00"> true</text>
</g>
<!-- node_6&#45;&gt;node_7 -->
<g id="edge13" class="edge">
<title>node_6&#45;&gt;node_7</title>
<path fill="none" stroke="black" d="M587.65,-193.38C613.2,-189.77 642.46,-185.64 668.85,-181.91"/>
<polygon fill="black" stroke="black" points="669.39,-185.36 678.81,-180.5 668.42,-178.43 669.39,-185.36"/>
<text text-anchor="middle" x="633.5" y="-192.94" font-family="Fira Mono Medium" font-size="10.00">not&#45;equal</text>
</g>
<!-- node_7&#45;&gt;node_1 -->
<g id="edge16" class="edge">
<title>node_7&#45;&gt;node_1</title>
<path fill="none" stroke="black" d="M816.16,-172.46C841.56,-173.03 870.55,-173.68 896.53,-174.26"/>
<polygon fill="black" stroke="black" points="896.63,-177.77 906.71,-174.49 896.79,-170.77 896.63,-177.77"/>
<text text-anchor="middle" x="861.5" y="-176.94" font-family="Fira Mono Medium" font-size="10.00">at</text>
</g>
<!-- node_7&#45;&gt;node_6 -->
<g id="edge15" class="edge">
<title>node_7&#45;&gt;node_6</title>
<path fill="none" stroke="black" d="M678.82,-163.67C655.55,-162.71 629.46,-163.34 606,-167.94 595.57,-169.98 584.81,-173.29 574.58,-177.08"/>
<polygon fill="black" stroke="black" points="573,-173.94 564.96,-180.84 575.55,-180.46 573,-173.94"/>
<text text-anchor="middle" x="633.5" y="-170.94" font-family="Fira Mono Medium" font-size="10.00">not&#45;equal</text>
</g>
</g>
</svg>
