<?xml version="1.0" encoding="UTF-8" standalone="no"?>
<!DOCTYPE svg PUBLIC "-//W3C//DTD SVG 1.1//EN"
 "http://www.w3.org/Graphics/SVG/1.1/DTD/svg11.dtd">
<!-- Generated by graphviz version 2.43.0 (0)
 -->
<!-- Title: %3 Pages: 1 -->
<svg width="824pt" height="390pt"
 viewBox="0.00 0.00 824.00 390.35" xmlns="http://www.w3.org/2000/svg" xmlns:xlink="http://www.w3.org/1999/xlink">
<g id="graph0" class="graph" transform="scale(1 1) rotate(0) translate(4 386.35)">
<title>%3</title>
<polygon fill="white" stroke="transparent" points="-4,4 -4,-386.35 820,-386.35 820,4 -4,4"/>
<!-- node_0 -->
<g id="node1" class="node">
<title>node_0</title>
<polygon fill="none" stroke="black" points="587,-111.35 465,-111.35 465,-75.35 587,-75.35 587,-111.35"/>
<text text-anchor="start" x="510.5" y="-96.75" font-family="Fira Mono Medium" font-weight="bold" font-size="12.00">bank</text>
<text text-anchor="start" x="473" y="-84.75" font-family="Fira Mono Medium" font-style="italic" font-size="12.00">location:</text>
<text text-anchor="start" x="541" y="-84.75" font-family="Fira Mono Medium" font-size="12.00"> left</text>
</g>
<!-- node_1 -->
<g id="node2" class="node">
<title>node_1</title>
<polygon fill="none" stroke="black" points="816,-182.35 686,-182.35 686,-146.35 816,-146.35 816,-182.35"/>
<text text-anchor="start" x="735.5" y="-167.75" font-family="Fira Mono Medium" font-weight="bold" font-size="12.00">bank</text>
<text text-anchor="start" x="694" y="-155.75" font-family="Fira Mono Medium" font-style="italic" font-size="12.00">location:</text>
<text text-anchor="start" x="762" y="-155.75" font-family="Fira Mono Medium" font-size="12.00"> right</text>
</g>
<!-- node_0&#45;&gt;node_1 -->
<g id="edge1" class="edge">
<title>node_0&#45;&gt;node_1</title>
<path fill="none" stroke="black" d="M587.3,-97C612.77,-99.89 642.41,-105.08 668,-114.35 685.4,-120.66 703.12,-130.89 717.61,-140.46"/>
<polygon fill="black" stroke="black" points="715.96,-143.57 726.19,-146.3 719.89,-137.78 715.96,-143.57"/>
<text text-anchor="middle" x="640.5" y="-117.35" font-family="Fira Mono Medium" font-size="10.00">not&#45;equal</text>
</g>
<!-- node_1&#45;&gt;node_0 -->
<g id="edge2" class="edge">
<title>node_1&#45;&gt;node_0</title>
<path fill="none" stroke="black" d="M737.75,-146.13C723.57,-126.84 698.25,-97.55 668,-85.35 646.01,-76.48 620.52,-75.46 597.31,-77.61"/>
<polygon fill="black" stroke="black" points="596.71,-74.16 587.17,-78.76 597.5,-81.11 596.71,-74.16"/>
<text text-anchor="middle" x="640.5" y="-88.35" font-family="Fira Mono Medium" font-size="10.00">not&#45;equal</text>
</g>
<!-- node_2 -->
<g id="node3" class="node">
<title>node_2</title>
<polygon fill="none" stroke="black" points="553,-382.35 499,-382.35 499,-346.35 553,-346.35 553,-382.35"/>
<text text-anchor="start" x="510.5" y="-362.25" font-family="Fira Mono Medium" font-weight="bold" font-size="12.00">boat</text>
</g>
<!-- node_2&#45;&gt;node_1 -->
<g id="edge3" class="edge">
<title>node_2&#45;&gt;node_1</title>
<path fill="none" stroke="black" d="M553.26,-364.9C583.95,-364.2 634.75,-358.69 668,-332.35 713,-296.71 734.96,-230.12 744.24,-192.37"/>
<polygon fill="black" stroke="black" points="747.67,-193.06 746.53,-182.53 740.85,-191.48 747.67,-193.06"/>
<text text-anchor="middle" x="640.5" y="-359.35" font-family="Fira Mono Medium" font-size="10.00">at</text>
</g>
<!-- node_3 -->
<g id="node4" class="node">
<title>node_3</title>
<polygon fill="none" stroke="black" points="133.5,-266.35 3.5,-266.35 3.5,-222.35 133.5,-222.35 133.5,-266.35"/>
<text text-anchor="start" x="49.5" y="-253.75" font-family="Fira Mono Medium" font-weight="bold" font-size="12.00">human</text>
<text text-anchor="start" x="15.5" y="-241.75" font-family="Fira Mono Medium" font-style="italic" font-size="12.00">kind:</text>
<text text-anchor="start" x="53.5" y="-241.75" font-family="Fira Mono Medium" font-size="12.00"> cannibal</text>
<text text-anchor="start" x="11.5" y="-229.75" font-family="Fira Mono Medium" font-style="italic" font-size="12.00">can&#45;drive:</text>
<text text-anchor="start" x="87.5" y="-229.75" font-family="Fira Mono Medium" font-size="12.00"> true</text>
</g>
<!-- node_3&#45;&gt;node_1 -->
<g id="edge6" class="edge">
<title>node_3&#45;&gt;node_1</title>
<path fill="none" stroke="black" d="M124.21,-266.38C154.28,-277.18 192.57,-288.82 228,-293.35 389.99,-314.09 441.59,-331.34 595,-275.35 646.16,-256.68 695.58,-216.16 724.37,-189.59"/>
<polygon fill="black" stroke="black" points="727.03,-191.89 731.93,-182.49 722.24,-186.78 727.03,-191.89"/>
<text text-anchor="middle" x="411.5" y="-315.35" font-family="Fira Mono Medium" font-size="10.00">at</text>
</g>
<!-- node_4 -->
<g id="node5" class="node">
<title>node_4</title>
<polygon fill="none" stroke="black" points="366,-284.35 228,-284.35 228,-240.35 366,-240.35 366,-284.35"/>
<text text-anchor="start" x="278" y="-271.75" font-family="Fira Mono Medium" font-weight="bold" font-size="12.00">human</text>
<text text-anchor="start" x="244" y="-259.75" font-family="Fira Mono Medium" font-style="italic" font-size="12.00">kind:</text>
<text text-anchor="start" x="282" y="-259.75" font-family="Fira Mono Medium" font-size="12.00"> cannibal</text>
<text text-anchor="start" x="236" y="-247.75" font-family="Fira Mono Medium" font-style="italic" font-size="12.00">can&#45;drive:</text>
<text text-anchor="start" x="312" y="-247.75" font-family="Fira Mono Medium" font-size="12.00"> false</text>
</g>
<!-- node_3&#45;&gt;node_4 -->
<g id="edge4" class="edge">
<title>node_3&#45;&gt;node_4</title>
<path fill="none" stroke="black" d="M133.85,-254.06C140.97,-254.94 148.13,-255.73 155,-256.35 175.25,-258.2 197.18,-259.48 217.59,-260.37"/>
<polygon fill="black" stroke="black" points="217.65,-263.87 227.78,-260.78 217.93,-256.88 217.65,-263.87"/>
<text text-anchor="middle" x="182.5" y="-262.35" font-family="Fira Mono Medium" font-size="10.00">not&#45;equal</text>
</g>
<!-- node_5 -->
<g id="node6" class="node">
<title>node_5</title>
<polygon fill="none" stroke="black" points="595,-211.35 457,-211.35 457,-167.35 595,-167.35 595,-211.35"/>
<text text-anchor="start" x="507" y="-198.75" font-family="Fira Mono Medium" font-weight="bold" font-size="12.00">human</text>
<text text-anchor="start" x="473" y="-186.75" font-family="Fira Mono Medium" font-style="italic" font-size="12.00">kind:</text>
<text text-anchor="start" x="511" y="-186.75" font-family="Fira Mono Medium" font-size="12.00"> cannibal</text>
<text text-anchor="start" x="465" y="-174.75" font-family="Fira Mono Medium" font-style="italic" font-size="12.00">can&#45;drive:</text>
<text text-anchor="start" x="541" y="-174.75" font-family="Fira Mono Medium" font-size="12.00"> false</text>
</g>
<!-- node_3&#45;&gt;node_5 -->
<g id="edge5" class="edge">
<title>node_3&#45;&gt;node_5</title>
<path fill="none" stroke="black" d="M133.81,-233.99C162.58,-229.52 196.95,-224.39 228,-220.35 297.16,-211.35 314.63,-210.57 384,-203.35 404.3,-201.24 426.26,-199.02 446.66,-197"/>
<polygon fill="black" stroke="black" points="447.25,-200.45 456.86,-195.98 446.56,-193.49 447.25,-200.45"/>
<text text-anchor="middle" x="297" y="-223.35" font-family="Fira Mono Medium" font-size="10.00">not&#45;equal</text>
</g>
<!-- node_4&#45;&gt;node_1 -->
<g id="edge9" class="edge">
<title>node_4&#45;&gt;node_1</title>
<path fill="none" stroke="black" d="M366.02,-266.71C389.26,-267.17 415.35,-266.55 439,-263.35 533.87,-250.52 638.99,-211.5 699.5,-186.45"/>
<polygon fill="black" stroke="black" points="700.94,-189.64 708.82,-182.56 698.24,-183.18 700.94,-189.64"/>
<text text-anchor="middle" x="526" y="-263.35" font-family="Fira Mono Medium" font-size="10.00">at</text>
</g>
<!-- node_4&#45;&gt;node_3 -->
<g id="edge7" class="edge">
<title>node_4&#45;&gt;node_3</title>
<path fill="none" stroke="black" d="M227.69,-245.85C221.73,-244.84 215.78,-243.98 210,-243.35 188.54,-241.01 165.13,-240.41 143.68,-240.62"/>
<polygon fill="black" stroke="black" points="143.6,-237.12 133.66,-240.78 143.71,-244.12 143.6,-237.12"/>
<text text-anchor="middle" x="182.5" y="-246.35" font-family="Fira Mono Medium" font-size="10.00">not&#45;equal</text>
</g>
<!-- node_4&#45;&gt;node_5 -->
<g id="edge8" class="edge">
<title>node_4&#45;&gt;node_5</title>
<path fill="none" stroke="black" d="M366.12,-252.88C389.6,-248.56 415.82,-242.53 439,-234.35 452.56,-229.57 466.62,-222.98 479.36,-216.32"/>
<polygon fill="black" stroke="black" points="481.22,-219.29 488.37,-211.48 477.91,-213.12 481.22,-219.29"/>
<text text-anchor="middle" x="411.5" y="-251.35" font-family="Fira Mono Medium" font-size="10.00">not&#45;equal</text>
</g>
<!-- node_5&#45;&gt;node_1 -->
<g id="edge12" class="edge">
<title>node_5&#45;&gt;node_1</title>
<path fill="none" stroke="black" d="M595.12,-181.71C620.56,-178.86 649.57,-175.61 675.56,-172.7"/>
<polygon fill="black" stroke="black" points="676.18,-176.15 685.73,-171.56 675.4,-169.19 676.18,-176.15"/>
<text text-anchor="middle" x="640.5" y="-181.35" font-family="Fira Mono Medium" font-size="10.00">at</text>
</g>
<!-- node_5&#45;&gt;node_3 -->
<g id="edge10" class="edge">
<title>node_5&#45;&gt;node_3</title>
<path fill="none" stroke="black" d="M456.94,-182.96C396.39,-178.79 305.67,-176.26 228,-189.35 194.32,-195.03 158.25,-207.04 129.04,-218.4"/>
<polygon fill="black" stroke="black" points="127.41,-215.28 119.4,-222.21 129.99,-221.78 127.41,-215.28"/>
<text text-anchor="middle" x="297" y="-192.35" font-family="Fira Mono Medium" font-size="10.00">not&#45;equal</text>
</g>
<!-- node_5&#45;&gt;node_4 -->
<g id="edge11" class="edge">
<title>node_5&#45;&gt;node_4</title>
<path fill="none" stroke="black" d="M456.73,-201.66C433.35,-206.71 407.24,-213.29 384,-221.35 372.4,-225.38 360.3,-230.51 348.96,-235.78"/>
<polygon fill="black" stroke="black" points="347.17,-232.76 339.65,-240.21 350.18,-239.08 347.17,-232.76"/>
<text text-anchor="middle" x="411.5" y="-224.35" font-family="Fira Mono Medium" font-size="10.00">not&#45;equal</text>
</g>
<!-- node_6 -->
<g id="node7" class="node">
<title>node_6</title>
<polygon fill="none" stroke="black" points="137,-57.35 0,-57.35 0,-13.35 137,-13.35 137,-57.35"/>
<text text-anchor="start" x="49.5" y="-44.75" font-family="Fira Mono Medium" font-weight="bold" font-size="12.00">human</text>
<text text-anchor="start" x="8" y="-32.75" font-family="Fira Mono Medium" font-style="italic" font-size="12.00">kind:</text>
<text text-anchor="start" x="46" y="-32.75" font-family="Fira Mono Medium" font-size="12.00"> missionary</text>
<text text-anchor="start" x="11.5" y="-20.75" font-family="Fira Mono Medium" font-style="italic" font-size="12.00">can&#45;drive:</text>
<text text-anchor="start" x="87.5" y="-20.75" font-family="Fira Mono Medium" font-size="12.00"> true</text>
</g>
<!-- node_6&#45;&gt;node_1 -->
<g id="edge15" class="edge">
<title>node_6&#45;&gt;node_1</title>
<path fill="none" stroke="black" d="M114.88,-57.44C145.99,-71.63 188.62,-89.25 228,-99.35 384.3,-139.43 573.5,-155.15 675.73,-161.04"/>
<polygon fill="black" stroke="black" points="675.77,-164.55 685.95,-161.61 676.16,-157.56 675.77,-164.55"/>
<text text-anchor="middle" x="411.5" y="-140.35" font-family="Fira Mono Medium" font-size="10.00">at</text>
</g>
<!-- node_7 -->
<g id="node8" class="node">
<title>node_7</title>
<polygon fill="none" stroke="black" points="365.5,-90.35 228.5,-90.35 228.5,-46.35 365.5,-46.35 365.5,-90.35"/>
<text text-anchor="start" x="278" y="-77.75" font-family="Fira Mono Medium" font-weight="bold" font-size="12.00">human</text>
<text text-anchor="start" x="236.5" y="-65.75" font-family="Fira Mono Medium" font-style="italic" font-size="12.00">kind:</text>
<text text-anchor="start" x="274.5" y="-65.75" font-family="Fira Mono Medium" font-size="12.00"> missionary</text>
<text text-anchor="start" x="240" y="-53.75" font-family="Fira Mono Medium" font-style="italic" font-size="12.00">can&#45;drive:</text>
<text text-anchor="start" x="316" y="-53.75" font-family="Fira Mono Medium" font-size="12.00"> true</text>
</g>
<!-- node_6&#45;&gt;node_7 -->
<g id="edge13" class="edge">
<title>node_6&#45;&gt;node_7</title>
<path fill="none" stroke="black" d="M137.15,-45.21C162.7,-48.93 191.96,-53.19 218.35,-57.04"/>
<polygon fill="black" stroke="black" points="217.91,-60.51 228.31,-58.49 218.92,-53.58 217.91,-60.51"/>
<text text-anchor="middle" x="182.5" y="-58.35" font-family="Fira Mono Medium" font-size="10.00">not&#45;equal</text>
</g>
<!-- node_8 -->
<g id="node9" class="node">
<title>node_8</title>
<polygon fill="none" stroke="black" points="594.5,-57.35 457.5,-57.35 457.5,-13.35 594.5,-13.35 594.5,-57.35"/>
<text text-anchor="start" x="507" y="-44.75" font-family="Fira Mono Medium" font-weight="bold" font-size="12.00">human</text>
<text text-anchor="start" x="465.5" y="-32.75" font-family="Fira Mono Medium" font-style="italic" font-size="12.00">kind:</text>
<text text-anchor="start" x="503.5" y="-32.75" font-family="Fira Mono Medium" font-size="12.00"> missionary</text>
<text text-anchor="start" x="469" y="-20.75" font-family="Fira Mono Medium" font-style="italic" font-size="12.00">can&#45;drive:</text>
<text text-anchor="start" x="545" y="-20.75" font-family="Fira Mono Medium" font-size="12.00"> true</text>
</g>
<!-- node_6&#45;&gt;node_8 -->
<g id="edge14" class="edge">
<title>node_6&#45;&gt;node_8</title>
<path fill="none" stroke="black" d="M137.11,-26.71C143.15,-26.16 149.18,-25.69 155,-25.35 281.01,-18.01 312.99,-18.05 439,-25.35 441.72,-25.51 444.49,-25.69 447.28,-25.9"/>
<polygon fill="black" stroke="black" points="447.21,-29.41 457.46,-26.75 447.79,-22.43 447.21,-29.41"/>
<text text-anchor="middle" x="297" y="-24.35" font-family="Fira Mono Medium" font-size="10.00">not&#45;equal</text>
</g>
<!-- node_7&#45;&gt;node_0 -->
<g id="edge18" class="edge">
<title>node_7&#45;&gt;node_0</title>
<path fill="none" stroke="black" d="M365.55,-78.99C371.78,-79.84 378,-80.64 384,-81.35 406.96,-84.06 432.08,-86.4 454.69,-88.27"/>
<polygon fill="black" stroke="black" points="454.63,-91.78 464.88,-89.1 455.2,-84.8 454.63,-91.78"/>
<text text-anchor="middle" x="411.5" y="-89.35" font-family="Fira Mono Medium" font-size="10.00">at</text>
</g>
<!-- node_7&#45;&gt;node_6 -->
<g id="edge16" class="edge">
<title>node_7&#45;&gt;node_6</title>
<path fill="none" stroke="black" d="M249.64,-46.35C237.06,-41.4 223.25,-36.88 210,-34.35 189.91,-30.52 167.91,-29.31 147.41,-29.41"/>
<polygon fill="black" stroke="black" points="147.11,-25.91 137.16,-29.57 147.21,-32.91 147.11,-25.91"/>
<text text-anchor="middle" x="182.5" y="-37.35" font-family="Fira Mono Medium" font-size="10.00">not&#45;equal</text>
</g>
<!-- node_7&#45;&gt;node_8 -->
<g id="edge17" class="edge">
<title>node_7&#45;&gt;node_8</title>
<path fill="none" stroke="black" d="M365.8,-58.5C391.4,-54.77 420.73,-50.51 447.18,-46.67"/>
<polygon fill="black" stroke="black" points="447.76,-50.12 457.16,-45.21 446.76,-43.19 447.76,-50.12"/>
<text text-anchor="middle" x="411.5" y="-58.35" font-family="Fira Mono Medium" font-size="10.00">not&#45;equal</text>
</g>
<!-- node_8&#45;&gt;node_1 -->
<g id="edge21" class="edge">
<title>node_8&#45;&gt;node_1</title>
<path fill="none" stroke="black" d="M594.69,-38.03C619.16,-41.44 646.12,-48.23 668,-61.35 698.28,-79.52 721.88,-113.27 735.83,-137.18"/>
<polygon fill="black" stroke="black" points="732.91,-139.13 740.87,-146.12 739.01,-135.69 732.91,-139.13"/>
<text text-anchor="middle" x="640.5" y="-64.35" font-family="Fira Mono Medium" font-size="10.00">at</text>
</g>
<!-- node_8&#45;&gt;node_6 -->
<g id="edge19" class="edge">
<title>node_8&#45;&gt;node_6</title>
<path fill="none" stroke="black" d="M457.4,-21.95C451.18,-20.73 444.98,-19.52 439,-18.35 406.57,-12.04 398.89,-7.48 366,-4.35 304.94,1.45 289.06,1.45 228,-4.35 195.11,-7.48 187.42,-12.02 155,-18.35 152.38,-18.86 149.71,-19.39 147.01,-19.92"/>
<polygon fill="black" stroke="black" points="146.3,-16.49 137.16,-21.85 147.65,-23.36 146.3,-16.49"/>
<text text-anchor="middle" x="297" y="-7.35" font-family="Fira Mono Medium" font-size="10.00">not&#45;equal</text>
</g>
<!-- node_8&#45;&gt;node_7 -->
<g id="edge20" class="edge">
<title>node_8&#45;&gt;node_7</title>
<path fill="none" stroke="black" d="M457.46,-29.56C434.02,-28.95 407.69,-29.84 384,-34.35 374.06,-36.24 363.81,-39.26 354,-42.74"/>
<polygon fill="black" stroke="black" points="352.5,-39.57 344.36,-46.35 354.95,-46.12 352.5,-39.57"/>
<text text-anchor="middle" x="411.5" y="-37.35" font-family="Fira Mono Medium" font-size="10.00">not&#45;equal</text>
</g>
</g>
</svg>
