<?xml version="1.0" encoding="UTF-8" standalone="no"?>
<!DOCTYPE svg PUBLIC "-//W3C//DTD SVG 1.1//EN"
 "http://www.w3.org/Graphics/SVG/1.1/DTD/svg11.dtd">
<!-- Generated by graphviz version 2.43.0 (0)
 -->
<!-- Title: %3 Pages: 1 -->
<svg width="1045pt" height="262pt"
 viewBox="0.00 0.00 1045.00 262.00" xmlns="http://www.w3.org/2000/svg" xmlns:xlink="http://www.w3.org/1999/xlink">
<g id="graph0" class="graph" transform="scale(1 1) rotate(0) translate(4 258)">
<title>%3</title>
<polygon fill="white" stroke="transparent" points="-4,4 -4,-258 1041,-258 1041,4 -4,4"/>
<!-- node_0 -->
<g id="node1" class="node">
<title>node_0</title>
<polygon fill="none" stroke="black" points="808.5,-155 686.5,-155 686.5,-119 808.5,-119 808.5,-155"/>
<text text-anchor="start" x="732" y="-140.4" font-family="Fira Mono Medium" font-weight="bold" font-size="12.00">bank</text>
<text text-anchor="start" x="694.5" y="-128.4" font-family="Fira Mono Medium" font-style="italic" font-size="12.00">location:</text>
<text text-anchor="start" x="762.5" y="-128.4" font-family="Fira Mono Medium" font-size="12.00"> left</text>
</g>
<!-- node_1 -->
<g id="node2" class="node">
<title>node_1</title>
<polygon fill="none" stroke="black" points="1037,-159 907,-159 907,-123 1037,-123 1037,-159"/>
<text text-anchor="start" x="956.5" y="-144.4" font-family="Fira Mono Medium" font-weight="bold" font-size="12.00">bank</text>
<text text-anchor="start" x="915" y="-132.4" font-family="Fira Mono Medium" font-style="italic" font-size="12.00">location:</text>
<text text-anchor="start" x="983" y="-132.4" font-family="Fira Mono Medium" font-size="12.00"> right</text>
</g>
<!-- node_0&#45;&gt;node_1 -->
<g id="edge1" class="edge">
<title>node_0&#45;&gt;node_1</title>
<path fill="none" stroke="black" d="M808.71,-138.08C835.76,-138.57 867.95,-139.15 896.51,-139.66"/>
<polygon fill="black" stroke="black" points="896.78,-143.17 906.84,-139.85 896.91,-136.17 896.78,-143.17"/>
<text text-anchor="middle" x="861.5" y="-142" font-family="Fira Mono Medium" font-size="10.00">not&#45;equal</text>
</g>
<!-- node_1&#45;&gt;node_0 -->
<g id="edge2" class="edge">
<title>node_1&#45;&gt;node_0</title>
<path fill="none" stroke="black" d="M906.76,-125.52C900.78,-124.5 894.8,-123.63 889,-123 866.18,-120.52 841.25,-121.73 818.81,-124.26"/>
<polygon fill="black" stroke="black" points="818.19,-120.81 808.69,-125.51 819.04,-127.76 818.19,-120.81"/>
<text text-anchor="middle" x="861.5" y="-126" font-family="Fira Mono Medium" font-size="10.00">not&#45;equal</text>
</g>
<!-- node_2 -->
<g id="node3" class="node">
<title>node_2</title>
<polygon fill="none" stroke="black" points="774.5,-254 720.5,-254 720.5,-218 774.5,-218 774.5,-254"/>
<text text-anchor="start" x="732" y="-233.9" font-family="Fira Mono Medium" font-weight="bold" font-size="12.00">boat</text>
</g>
<!-- node_2&#45;&gt;node_1 -->
<g id="edge3" class="edge">
<title>node_2&#45;&gt;node_1</title>
<path fill="none" stroke="black" d="M774.71,-233.44C803.79,-229.83 851.53,-221.62 889,-204 909.48,-194.37 929.66,-178.96 944.89,-165.78"/>
<polygon fill="black" stroke="black" points="947.21,-168.4 952.37,-159.14 942.57,-163.16 947.21,-168.4"/>
<text text-anchor="middle" x="861.5" y="-224" font-family="Fira Mono Medium" font-size="10.00">at</text>
</g>
<!-- node_3 -->
<g id="node4" class="node">
<title>node_3</title>
<polygon fill="none" stroke="black" points="130,-105 0,-105 0,-61 130,-61 130,-105"/>
<text text-anchor="start" x="46" y="-92.4" font-family="Fira Mono Medium" font-weight="bold" font-size="12.00">human</text>
<text text-anchor="start" x="12" y="-80.4" font-family="Fira Mono Medium" font-style="italic" font-size="12.00">kind:</text>
<text text-anchor="start" x="50" y="-80.4" font-family="Fira Mono Medium" font-size="12.00"> cannibal</text>
<text text-anchor="start" x="8" y="-68.4" font-family="Fira Mono Medium" font-style="italic" font-size="12.00">can&#45;drive:</text>
<text text-anchor="start" x="84" y="-68.4" font-family="Fira Mono Medium" font-size="12.00"> true</text>
</g>
<!-- node_3&#45;&gt;node_1 -->
<g id="edge6" class="edge">
<title>node_3&#45;&gt;node_1</title>
<path fill="none" stroke="black" d="M92.19,-105.17C131.98,-136.51 211.28,-190 289,-190 289,-190 289,-190 748.5,-190 803.84,-190 865.16,-175.36 909.38,-162.09"/>
<polygon fill="black" stroke="black" points="910.58,-165.38 919.11,-159.11 908.52,-158.69 910.58,-165.38"/>
<text text-anchor="middle" x="519" y="-193" font-family="Fira Mono Medium" font-size="10.00">at</text>
</g>
<!-- node_4 -->
<g id="node5" class="node">
<title>node_4</title>
<polygon fill="none" stroke="black" points="359,-139 221,-139 221,-95 359,-95 359,-139"/>
<text text-anchor="start" x="271" y="-126.4" font-family="Fira Mono Medium" font-weight="bold" font-size="12.00">human</text>
<text text-anchor="start" x="237" y="-114.4" font-family="Fira Mono Medium" font-style="italic" font-size="12.00">kind:</text>
<text text-anchor="start" x="275" y="-114.4" font-family="Fira Mono Medium" font-size="12.00"> cannibal</text>
<text text-anchor="start" x="229" y="-102.4" font-family="Fira Mono Medium" font-style="italic" font-size="12.00">can&#45;drive:</text>
<text text-anchor="start" x="305" y="-102.4" font-family="Fira Mono Medium" font-size="12.00"> false</text>
</g>
<!-- node_3&#45;&gt;node_4 -->
<g id="edge4" class="edge">
<title>node_3&#45;&gt;node_4</title>
<path fill="none" stroke="black" d="M130.2,-92.79C155.42,-96.63 184.59,-101.08 211,-105.11"/>
<polygon fill="black" stroke="black" points="210.56,-108.58 220.98,-106.63 211.62,-101.66 210.56,-108.58"/>
<text text-anchor="middle" x="175.5" y="-106" font-family="Fira Mono Medium" font-size="10.00">not&#45;equal</text>
</g>
<!-- node_5 -->
<g id="node6" class="node">
<title>node_5</title>
<polygon fill="none" stroke="black" points="588,-106 450,-106 450,-62 588,-62 588,-106"/>
<text text-anchor="start" x="500" y="-93.4" font-family="Fira Mono Medium" font-weight="bold" font-size="12.00">human</text>
<text text-anchor="start" x="466" y="-81.4" font-family="Fira Mono Medium" font-style="italic" font-size="12.00">kind:</text>
<text text-anchor="start" x="504" y="-81.4" font-family="Fira Mono Medium" font-size="12.00"> cannibal</text>
<text text-anchor="start" x="458" y="-69.4" font-family="Fira Mono Medium" font-style="italic" font-size="12.00">can&#45;drive:</text>
<text text-anchor="start" x="534" y="-69.4" font-family="Fira Mono Medium" font-size="12.00"> false</text>
</g>
<!-- node_3&#45;&gt;node_5 -->
<g id="edge5" class="edge">
<title>node_3&#45;&gt;node_5</title>
<path fill="none" stroke="black" d="M130.39,-74.4C136.34,-73.83 142.27,-73.35 148,-73 273.99,-65.35 306.03,-64.98 432,-73 434.41,-73.15 436.85,-73.33 439.32,-73.53"/>
<polygon fill="black" stroke="black" points="439.27,-77.04 449.54,-74.45 439.89,-70.07 439.27,-77.04"/>
<text text-anchor="middle" x="290" y="-71" font-family="Fira Mono Medium" font-size="10.00">not&#45;equal</text>
</g>
<!-- node_4&#45;&gt;node_0 -->
<g id="edge9" class="edge">
<title>node_4&#45;&gt;node_0</title>
<path fill="none" stroke="black" d="M359.19,-119.99C444.45,-123.74 589.66,-130.11 675.99,-133.9"/>
<polygon fill="black" stroke="black" points="676.08,-137.41 686.22,-134.35 676.38,-130.42 676.08,-137.41"/>
<text text-anchor="middle" x="519" y="-132" font-family="Fira Mono Medium" font-size="10.00">at</text>
</g>
<!-- node_4&#45;&gt;node_3 -->
<g id="edge7" class="edge">
<title>node_4&#45;&gt;node_3</title>
<path fill="none" stroke="black" d="M244.04,-94.9C231.1,-89.6 216.76,-84.69 203,-82 182.93,-78.07 160.89,-76.9 140.47,-77.07"/>
<polygon fill="black" stroke="black" points="140.2,-73.57 130.27,-77.26 140.33,-80.57 140.2,-73.57"/>
<text text-anchor="middle" x="175.5" y="-85" font-family="Fira Mono Medium" font-size="10.00">not&#45;equal</text>
</g>
<!-- node_4&#45;&gt;node_5 -->
<g id="edge8" class="edge">
<title>node_4&#45;&gt;node_5</title>
<path fill="none" stroke="black" d="M359.11,-107.1C384.58,-103.4 413.71,-99.16 440.01,-95.34"/>
<polygon fill="black" stroke="black" points="440.55,-98.8 449.94,-93.89 439.54,-91.87 440.55,-98.8"/>
<text text-anchor="middle" x="404.5" y="-107" font-family="Fira Mono Medium" font-size="10.00">not&#45;equal</text>
</g>
<!-- node_5&#45;&gt;node_0 -->
<g id="edge12" class="edge">
<title>node_5&#45;&gt;node_0</title>
<path fill="none" stroke="black" d="M588.26,-99.97C616.23,-106.52 648.56,-114.08 676.69,-120.66"/>
<polygon fill="black" stroke="black" points="675.91,-124.08 686.44,-122.95 677.5,-117.26 675.91,-124.08"/>
<text text-anchor="middle" x="633.5" y="-119" font-family="Fira Mono Medium" font-size="10.00">at</text>
</g>
<!-- node_5&#45;&gt;node_3 -->
<g id="edge10" class="edge">
<title>node_5&#45;&gt;node_3</title>
<path fill="none" stroke="black" d="M449.99,-68.7C443.91,-67.42 437.85,-66.17 432,-65 339.86,-46.63 314.59,-43.73 221,-52 188.17,-54.9 180.32,-58.58 148,-65 145.5,-65.5 142.96,-66.01 140.39,-66.54"/>
<polygon fill="black" stroke="black" points="139.49,-63.15 130.41,-68.61 140.91,-70 139.49,-63.15"/>
<text text-anchor="middle" x="290" y="-55" font-family="Fira Mono Medium" font-size="10.00">not&#45;equal</text>
</g>
<!-- node_5&#45;&gt;node_4 -->
<g id="edge11" class="edge">
<title>node_5&#45;&gt;node_4</title>
<path fill="none" stroke="black" d="M449.72,-77.38C426.46,-76.61 400.43,-77.42 377,-82 366.57,-84.04 355.81,-87.35 345.58,-91.14"/>
<polygon fill="black" stroke="black" points="344,-88 335.96,-94.9 346.55,-94.52 344,-88"/>
<text text-anchor="middle" x="404.5" y="-85" font-family="Fira Mono Medium" font-size="10.00">not&#45;equal</text>
</g>
<!-- node_6 -->
<g id="node7" class="node">
<title>node_6</title>
<polygon fill="none" stroke="black" points="587.5,-44 450.5,-44 450.5,0 587.5,0 587.5,-44"/>
<text text-anchor="start" x="500" y="-31.4" font-family="Fira Mono Medium" font-weight="bold" font-size="12.00">human</text>
<text text-anchor="start" x="458.5" y="-19.4" font-family="Fira Mono Medium" font-style="italic" font-size="12.00">kind:</text>
<text text-anchor="start" x="496.5" y="-19.4" font-family="Fira Mono Medium" font-size="12.00"> missionary</text>
<text text-anchor="start" x="462" y="-7.4" font-family="Fira Mono Medium" font-style="italic" font-size="12.00">can&#45;drive:</text>
<text text-anchor="start" x="538" y="-7.4" font-family="Fira Mono Medium" font-size="12.00"> true</text>
</g>
<!-- node_6&#45;&gt;node_1 -->
<g id="edge14" class="edge">
<title>node_6&#45;&gt;node_1</title>
<path fill="none" stroke="black" d="M587.51,-38.68C661.63,-57.15 784.08,-88.15 889,-117 892.75,-118.03 896.6,-119.11 900.48,-120.2"/>
<polygon fill="black" stroke="black" points="899.59,-123.58 910.16,-122.95 901.5,-116.85 899.59,-123.58"/>
<text text-anchor="middle" x="747.5" y="-98" font-family="Fira Mono Medium" font-size="10.00">at</text>
</g>
<!-- node_7 -->
<g id="node8" class="node">
<title>node_7</title>
<polygon fill="none" stroke="black" points="816,-48 679,-48 679,-4 816,-4 816,-48"/>
<text text-anchor="start" x="728.5" y="-35.4" font-family="Fira Mono Medium" font-weight="bold" font-size="12.00">human</text>
<text text-anchor="start" x="687" y="-23.4" font-family="Fira Mono Medium" font-style="italic" font-size="12.00">kind:</text>
<text text-anchor="start" x="725" y="-23.4" font-family="Fira Mono Medium" font-size="12.00"> missionary</text>
<text text-anchor="start" x="690.5" y="-11.4" font-family="Fira Mono Medium" font-style="italic" font-size="12.00">can&#45;drive:</text>
<text text-anchor="start" x="766.5" y="-11.4" font-family="Fira Mono Medium" font-size="12.00"> true</text>
</g>
<!-- node_6&#45;&gt;node_7 -->
<g id="edge13" class="edge">
<title>node_6&#45;&gt;node_7</title>
<path fill="none" stroke="black" d="M587.65,-23.19C613.08,-23.64 642.2,-24.16 668.5,-24.62"/>
<polygon fill="black" stroke="black" points="668.75,-28.13 678.81,-24.8 668.87,-21.13 668.75,-28.13"/>
<text text-anchor="middle" x="633.5" y="-27" font-family="Fira Mono Medium" font-size="10.00">not&#45;equal</text>
</g>
<!-- node_7&#45;&gt;node_1 -->
<g id="edge16" class="edge">
<title>node_7&#45;&gt;node_1</title>
<path fill="none" stroke="black" d="M816.33,-34.1C840.36,-38.96 866.89,-46.69 889,-59 913.86,-72.84 936.27,-96.4 951.35,-114.72"/>
<polygon fill="black" stroke="black" points="948.77,-117.1 957.75,-122.72 954.24,-112.72 948.77,-117.1"/>
<text text-anchor="middle" x="861.5" y="-62" font-family="Fira Mono Medium" font-size="10.00">at</text>
</g>
<!-- node_7&#45;&gt;node_6 -->
<g id="edge15" class="edge">
<title>node_7&#45;&gt;node_6</title>
<path fill="none" stroke="black" d="M678.56,-10.37C672.65,-9.41 666.73,-8.6 661,-8 640.5,-5.87 618.31,-6.63 597.74,-8.62"/>
<polygon fill="black" stroke="black" points="597.36,-5.14 587.79,-9.69 598.1,-12.1 597.36,-5.14"/>
<text text-anchor="middle" x="633.5" y="-11" font-family="Fira Mono Medium" font-size="10.00">not&#45;equal</text>
</g>
</g>
</svg>
