<?xml version="1.0" encoding="UTF-8" standalone="no"?>
<!DOCTYPE svg PUBLIC "-//W3C//DTD SVG 1.1//EN"
 "http://www.w3.org/Graphics/SVG/1.1/DTD/svg11.dtd">
<!-- Generated by graphviz version 2.43.0 (0)
 -->
<!-- Title: %3 Pages: 1 -->
<svg width="995pt" height="275pt"
 viewBox="0.00 0.00 995.00 275.00" xmlns="http://www.w3.org/2000/svg" xmlns:xlink="http://www.w3.org/1999/xlink">
<g id="graph0" class="graph" transform="scale(1 1) rotate(0) translate(4 271)">
<title>%3</title>
<polygon fill="white" stroke="transparent" points="-4,4 -4,-271 991,-271 991,4 -4,4"/>
<!-- node_0 -->
<g id="node1" class="node">
<title>node_0</title>
<polygon fill="none" stroke="black" points="766,-171 644,-171 644,-135 766,-135 766,-171"/>
<text text-anchor="start" x="689.5" y="-156.4" font-family="Fira Mono Medium" font-weight="bold" font-size="12.00">bank</text>
<text text-anchor="start" x="652" y="-144.4" font-family="Fira Mono Medium" font-style="italic" font-size="12.00">location:</text>
<text text-anchor="start" x="720" y="-144.4" font-family="Fira Mono Medium" font-size="12.00"> left</text>
</g>
<!-- node_1 -->
<g id="node2" class="node">
<title>node_1</title>
<polygon fill="none" stroke="black" points="987,-103 857,-103 857,-67 987,-67 987,-103"/>
<text text-anchor="start" x="906.5" y="-88.4" font-family="Fira Mono Medium" font-weight="bold" font-size="12.00">bank</text>
<text text-anchor="start" x="865" y="-76.4" font-family="Fira Mono Medium" font-style="italic" font-size="12.00">location:</text>
<text text-anchor="start" x="933" y="-76.4" font-family="Fira Mono Medium" font-size="12.00"> right</text>
</g>
<!-- node_0&#45;&gt;node_1 -->
<g id="edge1" class="edge">
<title>node_0&#45;&gt;node_1</title>
<path fill="none" stroke="black" d="M745.64,-134.87C757.8,-129.68 771.32,-124.27 784,-120 804.19,-113.19 826.44,-106.98 847.03,-101.74"/>
<polygon fill="black" stroke="black" points="848.14,-105.07 856.99,-99.24 846.44,-98.28 848.14,-105.07"/>
<text text-anchor="middle" x="811.5" y="-123" font-family="Fira Mono Medium" font-size="10.00">not&#45;equal</text>
</g>
<!-- node_1&#45;&gt;node_0 -->
<g id="edge2" class="edge">
<title>node_1&#45;&gt;node_0</title>
<path fill="none" stroke="black" d="M894.42,-103.04C878.89,-112.76 858.56,-124.13 839,-131 819.07,-137.99 796.67,-142.79 776.01,-146.07"/>
<polygon fill="black" stroke="black" points="775.4,-142.62 766.03,-147.56 776.44,-149.55 775.4,-142.62"/>
<text text-anchor="middle" x="811.5" y="-147" font-family="Fira Mono Medium" font-size="10.00">not&#45;equal</text>
</g>
<!-- node_2 -->
<g id="node3" class="node">
<title>node_2</title>
<polygon fill="none" stroke="black" points="732,-103 678,-103 678,-67 732,-67 732,-103"/>
<text text-anchor="start" x="689.5" y="-82.9" font-family="Fira Mono Medium" font-weight="bold" font-size="12.00">boat</text>
</g>
<!-- node_2&#45;&gt;node_1 -->
<g id="edge3" class="edge">
<title>node_2&#45;&gt;node_1</title>
<path fill="none" stroke="black" d="M732.36,-85C760.73,-85 807.12,-85 846.79,-85"/>
<polygon fill="black" stroke="black" points="846.98,-88.5 856.98,-85 846.98,-81.5 846.98,-88.5"/>
<text text-anchor="middle" x="811.5" y="-88" font-family="Fira Mono Medium" font-size="10.00">at</text>
</g>
<!-- node_3 -->
<g id="node4" class="node">
<title>node_3</title>
<polygon fill="none" stroke="black" points="362.5,-267 232.5,-267 232.5,-223 362.5,-223 362.5,-267"/>
<text text-anchor="start" x="278.5" y="-254.4" font-family="Fira Mono Medium" font-weight="bold" font-size="12.00">human</text>
<text text-anchor="start" x="244.5" y="-242.4" font-family="Fira Mono Medium" font-style="italic" font-size="12.00">kind:</text>
<text text-anchor="start" x="282.5" y="-242.4" font-family="Fira Mono Medium" font-size="12.00"> cannibal</text>
<text text-anchor="start" x="240.5" y="-230.4" font-family="Fira Mono Medium" font-style="italic" font-size="12.00">can&#45;drive:</text>
<text text-anchor="start" x="316.5" y="-230.4" font-family="Fira Mono Medium" font-size="12.00"> true</text>
</g>
<!-- node_3&#45;&gt;node_0 -->
<g id="edge6" class="edge">
<title>node_3&#45;&gt;node_0</title>
<path fill="none" stroke="black" d="M362.7,-251.7C386.72,-253.04 414.19,-253.21 439,-250 510.1,-240.81 528.06,-234.64 595,-209 618.78,-199.89 644.14,-187.06 664.42,-175.98"/>
<polygon fill="black" stroke="black" points="666.3,-178.94 673.35,-171.03 662.91,-172.82 666.3,-178.94"/>
<text text-anchor="middle" x="526" y="-250" font-family="Fira Mono Medium" font-size="10.00">at</text>
</g>
<!-- node_4 -->
<g id="node5" class="node">
<title>node_4</title>
<polygon fill="none" stroke="black" points="138,-200 0,-200 0,-156 138,-156 138,-200"/>
<text text-anchor="start" x="50" y="-187.4" font-family="Fira Mono Medium" font-weight="bold" font-size="12.00">human</text>
<text text-anchor="start" x="16" y="-175.4" font-family="Fira Mono Medium" font-style="italic" font-size="12.00">kind:</text>
<text text-anchor="start" x="54" y="-175.4" font-family="Fira Mono Medium" font-size="12.00"> cannibal</text>
<text text-anchor="start" x="8" y="-163.4" font-family="Fira Mono Medium" font-style="italic" font-size="12.00">can&#45;drive:</text>
<text text-anchor="start" x="84" y="-163.4" font-family="Fira Mono Medium" font-size="12.00"> false</text>
</g>
<!-- node_3&#45;&gt;node_4 -->
<g id="edge4" class="edge">
<title>node_3&#45;&gt;node_4</title>
<path fill="none" stroke="black" d="M242.6,-222.96C232.2,-219.06 221.33,-215.22 211,-212 190.86,-205.71 168.8,-199.9 148.23,-194.92"/>
<polygon fill="black" stroke="black" points="148.81,-191.46 138.27,-192.55 147.19,-198.27 148.81,-191.46"/>
<text text-anchor="middle" x="183.5" y="-215" font-family="Fira Mono Medium" font-size="10.00">not&#45;equal</text>
</g>
<!-- node_5 -->
<g id="node6" class="node">
<title>node_5</title>
<polygon fill="none" stroke="black" points="595,-200 457,-200 457,-156 595,-156 595,-200"/>
<text text-anchor="start" x="507" y="-187.4" font-family="Fira Mono Medium" font-weight="bold" font-size="12.00">human</text>
<text text-anchor="start" x="473" y="-175.4" font-family="Fira Mono Medium" font-style="italic" font-size="12.00">kind:</text>
<text text-anchor="start" x="511" y="-175.4" font-family="Fira Mono Medium" font-size="12.00"> cannibal</text>
<text text-anchor="start" x="465" y="-163.4" font-family="Fira Mono Medium" font-style="italic" font-size="12.00">can&#45;drive:</text>
<text text-anchor="start" x="541" y="-163.4" font-family="Fira Mono Medium" font-size="12.00"> false</text>
</g>
<!-- node_3&#45;&gt;node_5 -->
<g id="edge5" class="edge">
<title>node_3&#45;&gt;node_5</title>
<path fill="none" stroke="black" d="M362.84,-239.4C387.12,-236.14 414.73,-231.01 439,-223 452.91,-218.41 467.28,-211.75 480.21,-204.96"/>
<polygon fill="black" stroke="black" points="482.21,-207.85 489.33,-200.01 478.87,-201.7 482.21,-207.85"/>
<text text-anchor="middle" x="411.5" y="-238" font-family="Fira Mono Medium" font-size="10.00">not&#45;equal</text>
</g>
<!-- node_4&#45;&gt;node_1 -->
<g id="edge9" class="edge">
<title>node_4&#45;&gt;node_1</title>
<path fill="none" stroke="black" d="M83.65,-155.82C114.9,-108.1 196.72,0 296.5,0 296.5,0 296.5,0 706,0 773.31,0 844.69,-36.47 885.93,-61.64"/>
<polygon fill="black" stroke="black" points="884.17,-64.66 894.51,-66.97 887.87,-58.72 884.17,-64.66"/>
<text text-anchor="middle" x="526" y="-3" font-family="Fira Mono Medium" font-size="10.00">at</text>
</g>
<!-- node_4&#45;&gt;node_3 -->
<g id="edge7" class="edge">
<title>node_4&#45;&gt;node_3</title>
<path fill="none" stroke="black" d="M105.67,-200.01C120.71,-208.4 138.72,-217.3 156,-223 176.95,-229.91 200.39,-234.68 222.03,-237.96"/>
<polygon fill="black" stroke="black" points="221.77,-241.45 232.16,-239.4 222.76,-234.52 221.77,-241.45"/>
<text text-anchor="middle" x="183.5" y="-238" font-family="Fira Mono Medium" font-size="10.00">not&#45;equal</text>
</g>
<!-- node_4&#45;&gt;node_5 -->
<g id="edge8" class="edge">
<title>node_4&#45;&gt;node_5</title>
<path fill="none" stroke="black" d="M138.12,-178C220.75,-178 359.75,-178 446.71,-178"/>
<polygon fill="black" stroke="black" points="446.79,-181.5 456.79,-178 446.79,-174.5 446.79,-181.5"/>
<text text-anchor="middle" x="297.5" y="-181" font-family="Fira Mono Medium" font-size="10.00">not&#45;equal</text>
</g>
<!-- node_5&#45;&gt;node_0 -->
<g id="edge12" class="edge">
<title>node_5&#45;&gt;node_0</title>
<path fill="none" stroke="black" d="M595.18,-168.37C607.86,-166.58 621.13,-164.71 633.86,-162.91"/>
<polygon fill="black" stroke="black" points="634.53,-166.35 643.94,-161.48 633.55,-159.42 634.53,-166.35"/>
<text text-anchor="middle" x="619.5" y="-168" font-family="Fira Mono Medium" font-size="10.00">at</text>
</g>
<!-- node_5&#45;&gt;node_3 -->
<g id="edge10" class="edge">
<title>node_5&#45;&gt;node_3</title>
<path fill="none" stroke="black" d="M456.98,-191.06C433.62,-196.17 407.46,-202.59 384,-210 375.55,-212.67 366.77,-215.81 358.2,-219.1"/>
<polygon fill="black" stroke="black" points="356.65,-215.95 348.63,-222.87 359.21,-222.46 356.65,-215.95"/>
<text text-anchor="middle" x="411.5" y="-213" font-family="Fira Mono Medium" font-size="10.00">not&#45;equal</text>
</g>
<!-- node_5&#45;&gt;node_4 -->
<g id="edge11" class="edge">
<title>node_5&#45;&gt;node_4</title>
<path fill="none" stroke="black" d="M456.62,-170.13C428.58,-167.27 395.77,-164.4 366,-163 305.18,-160.14 289.82,-160.14 229,-163 202.72,-164.24 174.07,-166.62 148.42,-169.13"/>
<polygon fill="black" stroke="black" points="147.98,-165.65 138.38,-170.13 148.68,-172.62 147.98,-165.65"/>
<text text-anchor="middle" x="297.5" y="-166" font-family="Fira Mono Medium" font-size="10.00">not&#45;equal</text>
</g>
<!-- node_6 -->
<g id="node7" class="node">
<title>node_6</title>
<polygon fill="none" stroke="black" points="594.5,-128 457.5,-128 457.5,-84 594.5,-84 594.5,-128"/>
<text text-anchor="start" x="507" y="-115.4" font-family="Fira Mono Medium" font-weight="bold" font-size="12.00">human</text>
<text text-anchor="start" x="465.5" y="-103.4" font-family="Fira Mono Medium" font-style="italic" font-size="12.00">kind:</text>
<text text-anchor="start" x="503.5" y="-103.4" font-family="Fira Mono Medium" font-size="12.00"> missionary</text>
<text text-anchor="start" x="469" y="-91.4" font-family="Fira Mono Medium" font-style="italic" font-size="12.00">can&#45;drive:</text>
<text text-anchor="start" x="545" y="-91.4" font-family="Fira Mono Medium" font-size="12.00"> true</text>
</g>
<!-- node_6&#45;&gt;node_0 -->
<g id="edge14" class="edge">
<title>node_6&#45;&gt;node_0</title>
<path fill="none" stroke="black" d="M594.67,-123.97C607.58,-127.4 621.12,-130.99 634.1,-134.44"/>
<polygon fill="black" stroke="black" points="633.33,-137.86 643.89,-137.04 635.13,-131.09 633.33,-137.86"/>
<text text-anchor="middle" x="619.5" y="-133" font-family="Fira Mono Medium" font-size="10.00">at</text>
</g>
<!-- node_7 -->
<g id="node8" class="node">
<title>node_7</title>
<polygon fill="none" stroke="black" points="366,-94 229,-94 229,-50 366,-50 366,-94"/>
<text text-anchor="start" x="278.5" y="-81.4" font-family="Fira Mono Medium" font-weight="bold" font-size="12.00">human</text>
<text text-anchor="start" x="237" y="-69.4" font-family="Fira Mono Medium" font-style="italic" font-size="12.00">kind:</text>
<text text-anchor="start" x="275" y="-69.4" font-family="Fira Mono Medium" font-size="12.00"> missionary</text>
<text text-anchor="start" x="240.5" y="-57.4" font-family="Fira Mono Medium" font-style="italic" font-size="12.00">can&#45;drive:</text>
<text text-anchor="start" x="316.5" y="-57.4" font-family="Fira Mono Medium" font-size="12.00"> true</text>
</g>
<!-- node_6&#45;&gt;node_7 -->
<g id="edge13" class="edge">
<title>node_6&#45;&gt;node_7</title>
<path fill="none" stroke="black" d="M476.32,-83.85C464.36,-79.39 451.41,-75.35 439,-73 418.91,-69.2 396.9,-67.79 376.4,-67.6"/>
<polygon fill="black" stroke="black" points="376.15,-64.1 366.15,-67.6 376.15,-71.1 376.15,-64.1"/>
<text text-anchor="middle" x="411.5" y="-76" font-family="Fira Mono Medium" font-size="10.00">not&#45;equal</text>
</g>
<!-- node_7&#45;&gt;node_1 -->
<g id="edge16" class="edge">
<title>node_7&#45;&gt;node_1</title>
<path fill="none" stroke="black" d="M366.13,-64.34C372.17,-63.82 378.19,-63.36 384,-63 553.47,-52.47 596.84,-43.38 766,-58 792.55,-60.29 821.37,-64.76 846.88,-69.41"/>
<polygon fill="black" stroke="black" points="846.38,-72.88 856.85,-71.27 847.66,-66 846.38,-72.88"/>
<text text-anchor="middle" x="619.5" y="-53" font-family="Fira Mono Medium" font-size="10.00">at</text>
</g>
<!-- node_7&#45;&gt;node_6 -->
<g id="edge15" class="edge">
<title>node_7&#45;&gt;node_6</title>
<path fill="none" stroke="black" d="M366.15,-82.16C391.7,-85.99 420.96,-90.38 447.35,-94.34"/>
<polygon fill="black" stroke="black" points="446.9,-97.82 457.31,-95.84 447.94,-90.89 446.9,-97.82"/>
<text text-anchor="middle" x="411.5" y="-96" font-family="Fira Mono Medium" font-size="10.00">not&#45;equal</text>
</g>
</g>
</svg>
