<?xml version="1.0" encoding="UTF-8" standalone="no"?>
<!DOCTYPE svg PUBLIC "-//W3C//DTD SVG 1.1//EN"
 "http://www.w3.org/Graphics/SVG/1.1/DTD/svg11.dtd">
<!-- Generated by graphviz version 2.43.0 (0)
 -->
<!-- Title: %3 Pages: 1 -->
<svg width="995pt" height="379pt"
 viewBox="0.00 0.00 995.00 379.35" xmlns="http://www.w3.org/2000/svg" xmlns:xlink="http://www.w3.org/1999/xlink">
<g id="graph0" class="graph" transform="scale(1 1) rotate(0) translate(4 375.35)">
<title>%3</title>
<polygon fill="white" stroke="transparent" points="-4,4 -4,-375.35 991,-375.35 991,4 -4,4"/>
<!-- node_0 -->
<g id="node1" class="node">
<title>node_0</title>
<polygon fill="none" stroke="black" points="766,-200.35 644,-200.35 644,-164.35 766,-164.35 766,-200.35"/>
<text text-anchor="start" x="689.5" y="-185.75" font-family="Fira Mono Medium" font-weight="bold" font-size="12.00">bank</text>
<text text-anchor="start" x="652" y="-173.75" font-family="Fira Mono Medium" font-style="italic" font-size="12.00">location:</text>
<text text-anchor="start" x="720" y="-173.75" font-family="Fira Mono Medium" font-size="12.00"> left</text>
</g>
<!-- node_1 -->
<g id="node2" class="node">
<title>node_1</title>
<polygon fill="none" stroke="black" points="987,-303.35 857,-303.35 857,-267.35 987,-267.35 987,-303.35"/>
<text text-anchor="start" x="906.5" y="-288.75" font-family="Fira Mono Medium" font-weight="bold" font-size="12.00">bank</text>
<text text-anchor="start" x="865" y="-276.75" font-family="Fira Mono Medium" font-style="italic" font-size="12.00">location:</text>
<text text-anchor="start" x="933" y="-276.75" font-family="Fira Mono Medium" font-size="12.00"> right</text>
</g>
<!-- node_0&#45;&gt;node_1 -->
<g id="edge1" class="edge">
<title>node_0&#45;&gt;node_1</title>
<path fill="none" stroke="black" d="M741.63,-200.41C754.89,-207.07 770.1,-214.63 784,-221.35 813.15,-235.45 846.02,-250.82 872.25,-262.96"/>
<polygon fill="black" stroke="black" points="871.05,-266.26 881.6,-267.28 873.99,-259.91 871.05,-266.26"/>
<text text-anchor="middle" x="811.5" y="-248.35" font-family="Fira Mono Medium" font-size="10.00">not&#45;equal</text>
</g>
<!-- node_1&#45;&gt;node_0 -->
<g id="edge2" class="edge">
<title>node_1&#45;&gt;node_0</title>
<path fill="none" stroke="black" d="M907.48,-267.12C892.78,-248.69 867.51,-220.93 839,-206.35 819.7,-196.48 797.02,-190.61 775.9,-187.14"/>
<polygon fill="black" stroke="black" points="776.41,-183.68 766,-185.66 775.38,-190.6 776.41,-183.68"/>
<text text-anchor="middle" x="811.5" y="-209.35" font-family="Fira Mono Medium" font-size="10.00">not&#45;equal</text>
</g>
<!-- node_2 -->
<g id="node3" class="node">
<title>node_2</title>
<polygon fill="none" stroke="black" points="553,-200.35 499,-200.35 499,-164.35 553,-164.35 553,-200.35"/>
<text text-anchor="start" x="510.5" y="-180.25" font-family="Fira Mono Medium" font-weight="bold" font-size="12.00">boat</text>
</g>
<!-- node_2&#45;&gt;node_0 -->
<g id="edge3" class="edge">
<title>node_2&#45;&gt;node_0</title>
<path fill="none" stroke="black" d="M553.12,-182.35C574.27,-182.35 605.1,-182.35 633.39,-182.35"/>
<polygon fill="black" stroke="black" points="633.67,-185.85 643.67,-182.35 633.67,-178.85 633.67,-185.85"/>
<text text-anchor="middle" x="619.5" y="-185.35" font-family="Fira Mono Medium" font-size="10.00">at</text>
</g>
<!-- node_3 -->
<g id="node4" class="node">
<title>node_3</title>
<polygon fill="none" stroke="black" points="133.5,-59.35 3.5,-59.35 3.5,-15.35 133.5,-15.35 133.5,-59.35"/>
<text text-anchor="start" x="49.5" y="-46.75" font-family="Fira Mono Medium" font-weight="bold" font-size="12.00">human</text>
<text text-anchor="start" x="15.5" y="-34.75" font-family="Fira Mono Medium" font-style="italic" font-size="12.00">kind:</text>
<text text-anchor="start" x="53.5" y="-34.75" font-family="Fira Mono Medium" font-size="12.00"> cannibal</text>
<text text-anchor="start" x="11.5" y="-22.75" font-family="Fira Mono Medium" font-style="italic" font-size="12.00">can&#45;drive:</text>
<text text-anchor="start" x="87.5" y="-22.75" font-family="Fira Mono Medium" font-size="12.00"> true</text>
</g>
<!-- node_3&#45;&gt;node_0 -->
<g id="edge6" class="edge">
<title>node_3&#45;&gt;node_0</title>
<path fill="none" stroke="black" d="M114.55,-59.46C145.7,-73.84 188.49,-91.81 228,-102.35 387.23,-144.84 433.26,-123.72 595,-155.35 607.73,-157.84 621.21,-160.86 634.18,-163.97"/>
<polygon fill="black" stroke="black" points="633.44,-167.39 643.99,-166.35 635.1,-160.59 633.44,-167.39"/>
<text text-anchor="middle" x="411.5" y="-137.35" font-family="Fira Mono Medium" font-size="10.00">at</text>
</g>
<!-- node_4 -->
<g id="node5" class="node">
<title>node_4</title>
<polygon fill="none" stroke="black" points="366,-93.35 228,-93.35 228,-49.35 366,-49.35 366,-93.35"/>
<text text-anchor="start" x="278" y="-80.75" font-family="Fira Mono Medium" font-weight="bold" font-size="12.00">human</text>
<text text-anchor="start" x="244" y="-68.75" font-family="Fira Mono Medium" font-style="italic" font-size="12.00">kind:</text>
<text text-anchor="start" x="282" y="-68.75" font-family="Fira Mono Medium" font-size="12.00"> cannibal</text>
<text text-anchor="start" x="236" y="-56.75" font-family="Fira Mono Medium" font-style="italic" font-size="12.00">can&#45;drive:</text>
<text text-anchor="start" x="312" y="-56.75" font-family="Fira Mono Medium" font-size="12.00"> false</text>
</g>
<!-- node_3&#45;&gt;node_4 -->
<g id="edge4" class="edge">
<title>node_3&#45;&gt;node_4</title>
<path fill="none" stroke="black" d="M133.8,-47C160.01,-50.94 190.55,-55.52 218.01,-59.65"/>
<polygon fill="black" stroke="black" points="217.57,-63.12 227.98,-61.14 218.61,-56.2 217.57,-63.12"/>
<text text-anchor="middle" x="182.5" y="-61.35" font-family="Fira Mono Medium" font-size="10.00">not&#45;equal</text>
</g>
<!-- node_5 -->
<g id="node6" class="node">
<title>node_5</title>
<polygon fill="none" stroke="black" points="595,-59.35 457,-59.35 457,-15.35 595,-15.35 595,-59.35"/>
<text text-anchor="start" x="507" y="-46.75" font-family="Fira Mono Medium" font-weight="bold" font-size="12.00">human</text>
<text text-anchor="start" x="473" y="-34.75" font-family="Fira Mono Medium" font-style="italic" font-size="12.00">kind:</text>
<text text-anchor="start" x="511" y="-34.75" font-family="Fira Mono Medium" font-size="12.00"> cannibal</text>
<text text-anchor="start" x="465" y="-22.75" font-family="Fira Mono Medium" font-style="italic" font-size="12.00">can&#45;drive:</text>
<text text-anchor="start" x="541" y="-22.75" font-family="Fira Mono Medium" font-size="12.00"> false</text>
</g>
<!-- node_3&#45;&gt;node_5 -->
<g id="edge5" class="edge">
<title>node_3&#45;&gt;node_5</title>
<path fill="none" stroke="black" d="M133.84,-28.18C140.97,-27.43 148.13,-26.79 155,-26.35 280.96,-18.28 313.03,-18.33 439,-26.35 441.41,-26.5 443.85,-26.68 446.32,-26.88"/>
<polygon fill="black" stroke="black" points="446.27,-30.39 456.54,-27.8 446.89,-23.42 446.27,-30.39"/>
<text text-anchor="middle" x="297" y="-24.35" font-family="Fira Mono Medium" font-size="10.00">not&#45;equal</text>
</g>
<!-- node_4&#45;&gt;node_0 -->
<g id="edge9" class="edge">
<title>node_4&#45;&gt;node_0</title>
<path fill="none" stroke="black" d="M366.35,-76.54C448.98,-83.74 582.4,-98.63 626,-122.35 643.81,-132.04 661.88,-145.65 676.13,-157.45"/>
<polygon fill="black" stroke="black" points="674.15,-160.37 684.05,-164.15 678.68,-155.02 674.15,-160.37"/>
<text text-anchor="middle" x="526" y="-112.35" font-family="Fira Mono Medium" font-size="10.00">at</text>
</g>
<!-- node_4&#45;&gt;node_3 -->
<g id="edge7" class="edge">
<title>node_4&#45;&gt;node_3</title>
<path fill="none" stroke="black" d="M251.04,-49.25C238.1,-43.95 223.76,-39.04 210,-36.35 188.71,-32.19 165.26,-31.03 143.72,-31.31"/>
<polygon fill="black" stroke="black" points="143.56,-27.81 133.65,-31.54 143.72,-34.81 143.56,-27.81"/>
<text text-anchor="middle" x="182.5" y="-39.35" font-family="Fira Mono Medium" font-size="10.00">not&#45;equal</text>
</g>
<!-- node_4&#45;&gt;node_5 -->
<g id="edge8" class="edge">
<title>node_4&#45;&gt;node_5</title>
<path fill="none" stroke="black" d="M366.11,-61.15C391.58,-57.33 420.71,-52.97 447.01,-49.03"/>
<polygon fill="black" stroke="black" points="447.57,-52.49 456.94,-47.55 446.53,-45.57 447.57,-52.49"/>
<text text-anchor="middle" x="411.5" y="-61.35" font-family="Fira Mono Medium" font-size="10.00">not&#45;equal</text>
</g>
<!-- node_5&#45;&gt;node_0 -->
<g id="edge12" class="edge">
<title>node_5&#45;&gt;node_0</title>
<path fill="none" stroke="black" d="M595.08,-55.12C606.02,-59.71 616.76,-65.37 626,-72.35 655.15,-94.37 677.75,-130.42 690.95,-155.22"/>
<polygon fill="black" stroke="black" points="687.84,-156.83 695.54,-164.11 694.06,-153.62 687.84,-156.83"/>
<text text-anchor="middle" x="619.5" y="-75.35" font-family="Fira Mono Medium" font-size="10.00">at</text>
</g>
<!-- node_5&#45;&gt;node_3 -->
<g id="edge10" class="edge">
<title>node_5&#45;&gt;node_3</title>
<path fill="none" stroke="black" d="M456.97,-22.14C450.9,-20.84 444.84,-19.56 439,-18.35 406.65,-11.68 398.89,-7.48 366,-4.35 304.94,1.45 289.06,1.45 228,-4.35 195.11,-7.48 187.35,-11.66 155,-18.35 151.36,-19.1 147.64,-19.89 143.88,-20.69"/>
<polygon fill="black" stroke="black" points="142.93,-17.31 133.88,-22.83 144.39,-24.16 142.93,-17.31"/>
<text text-anchor="middle" x="297" y="-7.35" font-family="Fira Mono Medium" font-size="10.00">not&#45;equal</text>
</g>
<!-- node_5&#45;&gt;node_4 -->
<g id="edge11" class="edge">
<title>node_5&#45;&gt;node_4</title>
<path fill="none" stroke="black" d="M456.72,-31.4C433.46,-30.82 407.42,-31.77 384,-36.35 373.57,-38.39 362.81,-41.7 352.58,-45.5"/>
<polygon fill="black" stroke="black" points="351,-42.35 342.96,-49.25 353.55,-48.87 351,-42.35"/>
<text text-anchor="middle" x="411.5" y="-39.35" font-family="Fira Mono Medium" font-size="10.00">not&#45;equal</text>
</g>
<!-- node_6 -->
<g id="node7" class="node">
<title>node_6</title>
<polygon fill="none" stroke="black" points="137,-284.35 0,-284.35 0,-240.35 137,-240.35 137,-284.35"/>
<text text-anchor="start" x="49.5" y="-271.75" font-family="Fira Mono Medium" font-weight="bold" font-size="12.00">human</text>
<text text-anchor="start" x="8" y="-259.75" font-family="Fira Mono Medium" font-style="italic" font-size="12.00">kind:</text>
<text text-anchor="start" x="46" y="-259.75" font-family="Fira Mono Medium" font-size="12.00"> missionary</text>
<text text-anchor="start" x="11.5" y="-247.75" font-family="Fira Mono Medium" font-style="italic" font-size="12.00">can&#45;drive:</text>
<text text-anchor="start" x="87.5" y="-247.75" font-family="Fira Mono Medium" font-size="12.00"> true</text>
</g>
<!-- node_6&#45;&gt;node_1 -->
<g id="edge15" class="edge">
<title>node_6&#45;&gt;node_1</title>
<path fill="none" stroke="black" d="M99.23,-284.59C140.92,-313.5 220.16,-360.35 296,-360.35 296,-360.35 296,-360.35 706,-360.35 769.95,-360.35 838.93,-330.4 881.05,-308.36"/>
<polygon fill="black" stroke="black" points="882.96,-311.31 890.13,-303.51 879.66,-305.13 882.96,-311.31"/>
<text text-anchor="middle" x="526" y="-363.35" font-family="Fira Mono Medium" font-size="10.00">at</text>
</g>
<!-- node_7 -->
<g id="node8" class="node">
<title>node_7</title>
<polygon fill="none" stroke="black" points="365.5,-310.35 228.5,-310.35 228.5,-266.35 365.5,-266.35 365.5,-310.35"/>
<text text-anchor="start" x="278" y="-297.75" font-family="Fira Mono Medium" font-weight="bold" font-size="12.00">human</text>
<text text-anchor="start" x="236.5" y="-285.75" font-family="Fira Mono Medium" font-style="italic" font-size="12.00">kind:</text>
<text text-anchor="start" x="274.5" y="-285.75" font-family="Fira Mono Medium" font-size="12.00"> missionary</text>
<text text-anchor="start" x="240" y="-273.75" font-family="Fira Mono Medium" font-style="italic" font-size="12.00">can&#45;drive:</text>
<text text-anchor="start" x="316" y="-273.75" font-family="Fira Mono Medium" font-size="12.00"> true</text>
</g>
<!-- node_6&#45;&gt;node_7 -->
<g id="edge13" class="edge">
<title>node_6&#45;&gt;node_7</title>
<path fill="none" stroke="black" d="M137.14,-272.1C143.18,-272.89 149.2,-273.66 155,-274.35 175.47,-276.8 197.64,-279.15 218.21,-281.2"/>
<polygon fill="black" stroke="black" points="217.87,-284.68 228.17,-282.18 218.56,-277.71 217.87,-284.68"/>
<text text-anchor="middle" x="182.5" y="-282.35" font-family="Fira Mono Medium" font-size="10.00">not&#45;equal</text>
</g>
<!-- node_8 -->
<g id="node9" class="node">
<title>node_8</title>
<polygon fill="none" stroke="black" points="594.5,-262.35 457.5,-262.35 457.5,-218.35 594.5,-218.35 594.5,-262.35"/>
<text text-anchor="start" x="507" y="-249.75" font-family="Fira Mono Medium" font-weight="bold" font-size="12.00">human</text>
<text text-anchor="start" x="465.5" y="-237.75" font-family="Fira Mono Medium" font-style="italic" font-size="12.00">kind:</text>
<text text-anchor="start" x="503.5" y="-237.75" font-family="Fira Mono Medium" font-size="12.00"> missionary</text>
<text text-anchor="start" x="469" y="-225.75" font-family="Fira Mono Medium" font-style="italic" font-size="12.00">can&#45;drive:</text>
<text text-anchor="start" x="545" y="-225.75" font-family="Fira Mono Medium" font-size="12.00"> true</text>
</g>
<!-- node_6&#45;&gt;node_8 -->
<g id="edge14" class="edge">
<title>node_6&#45;&gt;node_8</title>
<path fill="none" stroke="black" d="M137.17,-255.17C143.2,-254.55 149.21,-253.93 155,-253.35 187.43,-250.09 195.48,-248.53 228,-246.35 297.23,-241.7 314.63,-241.69 384,-240.35 404.41,-239.96 426.49,-239.82 446.99,-239.82"/>
<polygon fill="black" stroke="black" points="447.22,-243.32 457.22,-239.82 447.22,-236.32 447.22,-243.32"/>
<text text-anchor="middle" x="297" y="-249.35" font-family="Fira Mono Medium" font-size="10.00">not&#45;equal</text>
</g>
<!-- node_7&#45;&gt;node_1 -->
<g id="edge18" class="edge">
<title>node_7&#45;&gt;node_1</title>
<path fill="none" stroke="black" d="M365.6,-290.93C371.82,-291.1 378.03,-291.25 384,-291.35 408.44,-291.78 414.56,-291.5 439,-291.35 583.33,-290.45 751.95,-288.04 846.63,-286.56"/>
<polygon fill="black" stroke="black" points="846.74,-290.06 856.68,-286.41 846.63,-283.06 846.74,-290.06"/>
<text text-anchor="middle" x="619.5" y="-292.35" font-family="Fira Mono Medium" font-size="10.00">at</text>
</g>
<!-- node_7&#45;&gt;node_6 -->
<g id="edge16" class="edge">
<title>node_7&#45;&gt;node_6</title>
<path fill="none" stroke="black" d="M233.58,-266.34C225.73,-264.29 217.73,-262.54 210,-261.35 189.89,-258.27 167.97,-257.3 147.55,-257.4"/>
<polygon fill="black" stroke="black" points="147.3,-253.9 137.35,-257.53 147.39,-260.9 147.3,-253.9"/>
<text text-anchor="middle" x="182.5" y="-264.35" font-family="Fira Mono Medium" font-size="10.00">not&#45;equal</text>
</g>
<!-- node_7&#45;&gt;node_8 -->
<g id="edge17" class="edge">
<title>node_7&#45;&gt;node_8</title>
<path fill="none" stroke="black" d="M365.78,-279.72C389.12,-276.24 415.33,-271.75 439,-266.35 441.78,-265.72 444.6,-265.04 447.44,-264.33"/>
<polygon fill="black" stroke="black" points="448.36,-267.71 457.16,-261.81 446.61,-260.93 448.36,-267.71"/>
<text text-anchor="middle" x="411.5" y="-279.35" font-family="Fira Mono Medium" font-size="10.00">not&#45;equal</text>
</g>
<!-- node_8&#45;&gt;node_0 -->
<g id="edge21" class="edge">
<title>node_8&#45;&gt;node_0</title>
<path fill="none" stroke="black" d="M594.17,-218.34C609.01,-213.48 624.7,-208.34 639.44,-203.51"/>
<polygon fill="black" stroke="black" points="640.55,-206.83 648.96,-200.39 638.37,-200.17 640.55,-206.83"/>
<text text-anchor="middle" x="619.5" y="-214.35" font-family="Fira Mono Medium" font-size="10.00">at</text>
</g>
<!-- node_8&#45;&gt;node_6 -->
<g id="edge19" class="edge">
<title>node_8&#45;&gt;node_6</title>
<path fill="none" stroke="black" d="M457.27,-230.6C396.94,-223.41 306.34,-216.33 228,-225.35 201.36,-228.42 172.69,-234.3 147.15,-240.48"/>
<polygon fill="black" stroke="black" points="146.03,-237.15 137.16,-242.95 147.71,-243.95 146.03,-237.15"/>
<text text-anchor="middle" x="297" y="-228.35" font-family="Fira Mono Medium" font-size="10.00">not&#45;equal</text>
</g>
<!-- node_8&#45;&gt;node_7 -->
<g id="edge20" class="edge">
<title>node_8&#45;&gt;node_7</title>
<path fill="none" stroke="black" d="M457.27,-242.54C433.82,-244.37 407.52,-247.61 384,-253.35 374.25,-255.73 364.16,-259.02 354.47,-262.64"/>
<polygon fill="black" stroke="black" points="352.98,-259.46 344.93,-266.35 355.52,-265.98 352.98,-259.46"/>
<text text-anchor="middle" x="411.5" y="-256.35" font-family="Fira Mono Medium" font-size="10.00">not&#45;equal</text>
</g>
</g>
</svg>
