<?xml version="1.0" encoding="UTF-8" standalone="no"?>
<!DOCTYPE svg PUBLIC "-//W3C//DTD SVG 1.1//EN"
 "http://www.w3.org/Graphics/SVG/1.1/DTD/svg11.dtd">
<!-- Generated by graphviz version 2.43.0 (0)
 -->
<!-- Title: %3 Pages: 1 -->
<svg width="1052pt" height="360pt"
 viewBox="0.00 0.00 1052.00 359.70" xmlns="http://www.w3.org/2000/svg" xmlns:xlink="http://www.w3.org/1999/xlink">
<g id="graph0" class="graph" transform="scale(1 1) rotate(0) translate(4 355.7)">
<title>%3</title>
<polygon fill="white" stroke="transparent" points="-4,4 -4,-355.7 1048,-355.7 1048,4 -4,4"/>
<!-- node_0 -->
<g id="node1" class="node">
<title>node_0</title>
<polygon fill="none" stroke="black" points="815.5,-241.7 693.5,-241.7 693.5,-205.7 815.5,-205.7 815.5,-241.7"/>
<text text-anchor="start" x="739" y="-227.1" font-family="Fira Mono Medium" font-weight="bold" font-size="12.00">bank</text>
<text text-anchor="start" x="701.5" y="-215.1" font-family="Fira Mono Medium" font-style="italic" font-size="12.00">location:</text>
<text text-anchor="start" x="769.5" y="-215.1" font-family="Fira Mono Medium" font-size="12.00"> left</text>
</g>
<!-- node_1 -->
<g id="node2" class="node">
<title>node_1</title>
<polygon fill="none" stroke="black" points="1044,-184.7 914,-184.7 914,-148.7 1044,-148.7 1044,-184.7"/>
<text text-anchor="start" x="963.5" y="-170.1" font-family="Fira Mono Medium" font-weight="bold" font-size="12.00">bank</text>
<text text-anchor="start" x="922" y="-158.1" font-family="Fira Mono Medium" font-style="italic" font-size="12.00">location:</text>
<text text-anchor="start" x="990" y="-158.1" font-family="Fira Mono Medium" font-size="12.00"> right</text>
</g>
<!-- node_0&#45;&gt;node_1 -->
<g id="edge1" class="edge">
<title>node_0&#45;&gt;node_1</title>
<path fill="none" stroke="black" d="M815.66,-224.03C840.93,-222.77 870.34,-219.46 896,-211.7 912.19,-206.8 928.79,-198.44 942.77,-190.24"/>
<polygon fill="black" stroke="black" points="944.82,-193.09 951.56,-184.92 941.19,-187.11 944.82,-193.09"/>
<text text-anchor="middle" x="868.5" y="-224.7" font-family="Fira Mono Medium" font-size="10.00">not&#45;equal</text>
</g>
<!-- node_1&#45;&gt;node_0 -->
<g id="edge2" class="edge">
<title>node_1&#45;&gt;node_0</title>
<path fill="none" stroke="black" d="M913.7,-180.95C890.7,-186.25 864.62,-192.49 841,-198.7 835.99,-200.02 830.82,-201.42 825.63,-202.86"/>
<polygon fill="black" stroke="black" points="824.32,-199.59 815.64,-205.66 826.22,-206.33 824.32,-199.59"/>
<text text-anchor="middle" x="868.5" y="-201.7" font-family="Fira Mono Medium" font-size="10.00">not&#45;equal</text>
</g>
<!-- node_2 -->
<g id="node3" class="node">
<title>node_2</title>
<polygon fill="none" stroke="black" points="553,-278.7 499,-278.7 499,-242.7 553,-242.7 553,-278.7"/>
<text text-anchor="start" x="510.5" y="-258.6" font-family="Fira Mono Medium" font-weight="bold" font-size="12.00">boat</text>
</g>
<!-- node_2&#45;&gt;node_0 -->
<g id="edge3" class="edge">
<title>node_2&#45;&gt;node_0</title>
<path fill="none" stroke="black" d="M553.43,-256.38C585.04,-251.22 639.21,-242.37 683.22,-235.18"/>
<polygon fill="black" stroke="black" points="683.99,-238.6 693.3,-233.53 682.87,-231.69 683.99,-238.6"/>
<text text-anchor="middle" x="640.5" y="-248.7" font-family="Fira Mono Medium" font-size="10.00">at</text>
</g>
<!-- node_3 -->
<g id="node4" class="node">
<title>node_3</title>
<polygon fill="none" stroke="black" points="362.5,-274.7 232.5,-274.7 232.5,-230.7 362.5,-230.7 362.5,-274.7"/>
<text text-anchor="start" x="278.5" y="-262.1" font-family="Fira Mono Medium" font-weight="bold" font-size="12.00">human</text>
<text text-anchor="start" x="244.5" y="-250.1" font-family="Fira Mono Medium" font-style="italic" font-size="12.00">kind:</text>
<text text-anchor="start" x="282.5" y="-250.1" font-family="Fira Mono Medium" font-size="12.00"> cannibal</text>
<text text-anchor="start" x="240.5" y="-238.1" font-family="Fira Mono Medium" font-style="italic" font-size="12.00">can&#45;drive:</text>
<text text-anchor="start" x="316.5" y="-238.1" font-family="Fira Mono Medium" font-size="12.00"> true</text>
</g>
<!-- node_3&#45;&gt;node_0 -->
<g id="edge6" class="edge">
<title>node_3&#45;&gt;node_0</title>
<path fill="none" stroke="black" d="M362.86,-238.83C369.99,-237.39 377.14,-235.98 384,-234.7 416.32,-228.64 424.23,-225.37 457,-222.7 518.13,-217.71 533.67,-222.51 595,-222.7 623.79,-222.79 655.53,-222.97 682.99,-223.16"/>
<polygon fill="black" stroke="black" points="683.26,-226.66 693.29,-223.23 683.31,-219.66 683.26,-226.66"/>
<text text-anchor="middle" x="526" y="-225.7" font-family="Fira Mono Medium" font-size="10.00">at</text>
</g>
<!-- node_4 -->
<g id="node5" class="node">
<title>node_4</title>
<polygon fill="none" stroke="black" points="138,-308.7 0,-308.7 0,-264.7 138,-264.7 138,-308.7"/>
<text text-anchor="start" x="50" y="-296.1" font-family="Fira Mono Medium" font-weight="bold" font-size="12.00">human</text>
<text text-anchor="start" x="16" y="-284.1" font-family="Fira Mono Medium" font-style="italic" font-size="12.00">kind:</text>
<text text-anchor="start" x="54" y="-284.1" font-family="Fira Mono Medium" font-size="12.00"> cannibal</text>
<text text-anchor="start" x="8" y="-272.1" font-family="Fira Mono Medium" font-style="italic" font-size="12.00">can&#45;drive:</text>
<text text-anchor="start" x="84" y="-272.1" font-family="Fira Mono Medium" font-size="12.00"> false</text>
</g>
<!-- node_3&#45;&gt;node_4 -->
<g id="edge4" class="edge">
<title>node_3&#45;&gt;node_4</title>
<path fill="none" stroke="black" d="M232.25,-262.34C206.1,-266.27 175.64,-270.84 148.22,-274.96"/>
<polygon fill="black" stroke="black" points="147.63,-271.51 138.26,-276.45 148.67,-278.43 147.63,-271.51"/>
<text text-anchor="middle" x="183.5" y="-276.7" font-family="Fira Mono Medium" font-size="10.00">not&#45;equal</text>
</g>
<!-- node_5 -->
<g id="node6" class="node">
<title>node_5</title>
<polygon fill="none" stroke="black" points="595,-340.7 457,-340.7 457,-296.7 595,-296.7 595,-340.7"/>
<text text-anchor="start" x="507" y="-328.1" font-family="Fira Mono Medium" font-weight="bold" font-size="12.00">human</text>
<text text-anchor="start" x="473" y="-316.1" font-family="Fira Mono Medium" font-style="italic" font-size="12.00">kind:</text>
<text text-anchor="start" x="511" y="-316.1" font-family="Fira Mono Medium" font-size="12.00"> cannibal</text>
<text text-anchor="start" x="465" y="-304.1" font-family="Fira Mono Medium" font-style="italic" font-size="12.00">can&#45;drive:</text>
<text text-anchor="start" x="541" y="-304.1" font-family="Fira Mono Medium" font-size="12.00"> false</text>
</g>
<!-- node_3&#45;&gt;node_5 -->
<g id="edge5" class="edge">
<title>node_3&#45;&gt;node_5</title>
<path fill="none" stroke="black" d="M362.85,-239.58C388.22,-237.74 416.58,-240.09 439,-253.7 453.62,-262.57 444.56,-275.97 457,-287.7 458.09,-288.73 459.22,-289.73 460.39,-290.7"/>
<polygon fill="black" stroke="black" points="458.39,-293.57 468.52,-296.68 462.54,-287.94 458.39,-293.57"/>
<text text-anchor="middle" x="411.5" y="-256.7" font-family="Fira Mono Medium" font-size="10.00">not&#45;equal</text>
</g>
<!-- node_4&#45;&gt;node_1 -->
<g id="edge9" class="edge">
<title>node_4&#45;&gt;node_1</title>
<path fill="none" stroke="black" d="M92.98,-264.69C131.67,-230.05 213.73,-166.7 296.5,-166.7 296.5,-166.7 296.5,-166.7 755.5,-166.7 804.85,-166.7 860.36,-166.7 903.59,-166.7"/>
<polygon fill="black" stroke="black" points="903.74,-170.2 913.74,-166.7 903.74,-163.2 903.74,-170.2"/>
<text text-anchor="middle" x="526" y="-169.7" font-family="Fira Mono Medium" font-size="10.00">at</text>
</g>
<!-- node_4&#45;&gt;node_3 -->
<g id="edge7" class="edge">
<title>node_4&#45;&gt;node_3</title>
<path fill="none" stroke="black" d="M114.96,-264.6C127.9,-259.3 142.24,-254.39 156,-251.7 177.29,-247.53 200.74,-246.38 222.28,-246.65"/>
<polygon fill="black" stroke="black" points="222.28,-250.16 232.35,-246.88 222.44,-243.16 222.28,-250.16"/>
<text text-anchor="middle" x="183.5" y="-254.7" font-family="Fira Mono Medium" font-size="10.00">not&#45;equal</text>
</g>
<!-- node_4&#45;&gt;node_5 -->
<g id="edge8" class="edge">
<title>node_4&#45;&gt;node_5</title>
<path fill="none" stroke="black" d="M108.57,-308.86C122.98,-315.99 139.79,-323 156,-326.7 254.15,-349.11 370.81,-341 446.29,-331.39"/>
<polygon fill="black" stroke="black" points="447.2,-334.8 456.66,-330.03 446.29,-327.86 447.2,-334.8"/>
<text text-anchor="middle" x="297.5" y="-343.7" font-family="Fira Mono Medium" font-size="10.00">not&#45;equal</text>
</g>
<!-- node_5&#45;&gt;node_0 -->
<g id="edge12" class="edge">
<title>node_5&#45;&gt;node_0</title>
<path fill="none" stroke="black" d="M581.33,-296.62C607.56,-285.89 639.47,-272.74 668,-260.7 679.29,-255.93 691.39,-250.75 702.83,-245.81"/>
<polygon fill="black" stroke="black" points="704.46,-248.91 712.25,-241.73 701.68,-242.49 704.46,-248.91"/>
<text text-anchor="middle" x="640.5" y="-285.7" font-family="Fira Mono Medium" font-size="10.00">at</text>
</g>
<!-- node_5&#45;&gt;node_3 -->
<g id="edge10" class="edge">
<title>node_5&#45;&gt;node_3</title>
<path fill="none" stroke="black" d="M466.05,-296.56C457.04,-293.43 447.81,-290.38 439,-287.7 417.52,-281.17 393.92,-274.94 372.3,-269.59"/>
<polygon fill="black" stroke="black" points="373.07,-266.17 362.52,-267.19 371.4,-272.97 373.07,-266.17"/>
<text text-anchor="middle" x="411.5" y="-290.7" font-family="Fira Mono Medium" font-size="10.00">not&#45;equal</text>
</g>
<!-- node_5&#45;&gt;node_4 -->
<g id="edge11" class="edge">
<title>node_5&#45;&gt;node_4</title>
<path fill="none" stroke="black" d="M456.79,-313.9C374.12,-308.09 235.11,-298.31 148.19,-292.2"/>
<polygon fill="black" stroke="black" points="148.34,-288.7 138.12,-291.49 147.85,-295.68 148.34,-288.7"/>
<text text-anchor="middle" x="297.5" y="-309.7" font-family="Fira Mono Medium" font-size="10.00">not&#45;equal</text>
</g>
<!-- node_6 -->
<g id="node7" class="node">
<title>node_6</title>
<polygon fill="none" stroke="black" points="594.5,-128.7 457.5,-128.7 457.5,-84.7 594.5,-84.7 594.5,-128.7"/>
<text text-anchor="start" x="507" y="-116.1" font-family="Fira Mono Medium" font-weight="bold" font-size="12.00">human</text>
<text text-anchor="start" x="465.5" y="-104.1" font-family="Fira Mono Medium" font-style="italic" font-size="12.00">kind:</text>
<text text-anchor="start" x="503.5" y="-104.1" font-family="Fira Mono Medium" font-size="12.00"> missionary</text>
<text text-anchor="start" x="469" y="-92.1" font-family="Fira Mono Medium" font-style="italic" font-size="12.00">can&#45;drive:</text>
<text text-anchor="start" x="545" y="-92.1" font-family="Fira Mono Medium" font-size="12.00"> true</text>
</g>
<!-- node_6&#45;&gt;node_0 -->
<g id="edge15" class="edge">
<title>node_6&#45;&gt;node_0</title>
<path fill="none" stroke="black" d="M569.6,-128.71C609.55,-149.34 669.02,-180.06 709.43,-200.94"/>
<polygon fill="black" stroke="black" points="708.02,-204.15 718.51,-205.63 711.23,-197.93 708.02,-204.15"/>
<text text-anchor="middle" x="640.5" y="-181.7" font-family="Fira Mono Medium" font-size="10.00">at</text>
</g>
<!-- node_7 -->
<g id="node8" class="node">
<title>node_7</title>
<polygon fill="none" stroke="black" points="366,-61.7 229,-61.7 229,-17.7 366,-17.7 366,-61.7"/>
<text text-anchor="start" x="278.5" y="-49.1" font-family="Fira Mono Medium" font-weight="bold" font-size="12.00">human</text>
<text text-anchor="start" x="237" y="-37.1" font-family="Fira Mono Medium" font-style="italic" font-size="12.00">kind:</text>
<text text-anchor="start" x="275" y="-37.1" font-family="Fira Mono Medium" font-size="12.00"> missionary</text>
<text text-anchor="start" x="240.5" y="-25.1" font-family="Fira Mono Medium" font-style="italic" font-size="12.00">can&#45;drive:</text>
<text text-anchor="start" x="316.5" y="-25.1" font-family="Fira Mono Medium" font-size="12.00"> true</text>
</g>
<!-- node_6&#45;&gt;node_7 -->
<g id="edge13" class="edge">
<title>node_6&#45;&gt;node_7</title>
<path fill="none" stroke="black" d="M457.22,-100.72C433.65,-97.44 407.29,-92.41 384,-84.7 370.16,-80.12 355.86,-73.46 343.02,-66.67"/>
<polygon fill="black" stroke="black" points="344.4,-63.43 333.94,-61.72 341.05,-69.58 344.4,-63.43"/>
<text text-anchor="middle" x="411.5" y="-99.7" font-family="Fira Mono Medium" font-size="10.00">not&#45;equal</text>
</g>
<!-- node_8 -->
<g id="node9" class="node">
<title>node_8</title>
<polygon fill="none" stroke="black" points="823,-94.7 686,-94.7 686,-50.7 823,-50.7 823,-94.7"/>
<text text-anchor="start" x="735.5" y="-82.1" font-family="Fira Mono Medium" font-weight="bold" font-size="12.00">human</text>
<text text-anchor="start" x="694" y="-70.1" font-family="Fira Mono Medium" font-style="italic" font-size="12.00">kind:</text>
<text text-anchor="start" x="732" y="-70.1" font-family="Fira Mono Medium" font-size="12.00"> missionary</text>
<text text-anchor="start" x="697.5" y="-58.1" font-family="Fira Mono Medium" font-style="italic" font-size="12.00">can&#45;drive:</text>
<text text-anchor="start" x="773.5" y="-58.1" font-family="Fira Mono Medium" font-size="12.00"> true</text>
</g>
<!-- node_6&#45;&gt;node_8 -->
<g id="edge14" class="edge">
<title>node_6&#45;&gt;node_8</title>
<path fill="none" stroke="black" d="M594.65,-96.54C620.2,-92.71 649.46,-88.32 675.85,-84.36"/>
<polygon fill="black" stroke="black" points="676.44,-87.81 685.81,-82.86 675.4,-80.88 676.44,-87.81"/>
<text text-anchor="middle" x="640.5" y="-96.7" font-family="Fira Mono Medium" font-size="10.00">not&#45;equal</text>
</g>
<!-- node_7&#45;&gt;node_1 -->
<g id="edge18" class="edge">
<title>node_7&#45;&gt;node_1</title>
<path fill="none" stroke="black" d="M366.06,-23.76C469.35,-2.86 670.58,23.94 823,-41.7 876.63,-64.8 926.97,-111.83 955.01,-141.16"/>
<polygon fill="black" stroke="black" points="952.58,-143.68 961.98,-148.57 957.68,-138.89 952.58,-143.68"/>
<text text-anchor="middle" x="640.5" y="-6.7" font-family="Fira Mono Medium" font-size="10.00">at</text>
</g>
<!-- node_7&#45;&gt;node_6 -->
<g id="edge16" class="edge">
<title>node_7&#45;&gt;node_6</title>
<path fill="none" stroke="black" d="M366.27,-52.8C389.55,-57.92 415.62,-64.33 439,-71.7 447.58,-74.4 456.51,-77.59 465.22,-80.92"/>
<polygon fill="black" stroke="black" points="463.98,-84.2 474.57,-84.58 466.53,-77.68 463.98,-84.2"/>
<text text-anchor="middle" x="411.5" y="-74.7" font-family="Fira Mono Medium" font-size="10.00">not&#45;equal</text>
</g>
<!-- node_7&#45;&gt;node_8 -->
<g id="edge17" class="edge">
<title>node_7&#45;&gt;node_8</title>
<path fill="none" stroke="black" d="M366.03,-42.33C440.19,-45.54 562.75,-51.81 668,-61.7 670.54,-61.94 673.13,-62.19 675.73,-62.46"/>
<polygon fill="black" stroke="black" points="675.56,-65.97 685.87,-63.56 676.31,-59.01 675.56,-65.97"/>
<text text-anchor="middle" x="526" y="-58.7" font-family="Fira Mono Medium" font-size="10.00">not&#45;equal</text>
</g>
<!-- node_8&#45;&gt;node_1 -->
<g id="edge21" class="edge">
<title>node_8&#45;&gt;node_1</title>
<path fill="none" stroke="black" d="M807.67,-94.74C843.27,-109.78 890.26,-129.63 925.86,-144.67"/>
<polygon fill="black" stroke="black" points="924.54,-147.92 935.12,-148.58 927.27,-141.47 924.54,-147.92"/>
<text text-anchor="middle" x="868.5" y="-133.7" font-family="Fira Mono Medium" font-size="10.00">at</text>
</g>
<!-- node_8&#45;&gt;node_6 -->
<g id="edge19" class="edge">
<title>node_8&#45;&gt;node_6</title>
<path fill="none" stroke="black" d="M685.81,-66.78C662.55,-66.18 636.46,-67.11 613,-71.7 602.57,-73.74 591.81,-77.05 581.58,-80.84"/>
<polygon fill="black" stroke="black" points="580,-77.7 571.96,-84.6 582.55,-84.22 580,-77.7"/>
<text text-anchor="middle" x="640.5" y="-74.7" font-family="Fira Mono Medium" font-size="10.00">not&#45;equal</text>
</g>
<!-- node_8&#45;&gt;node_7 -->
<g id="edge20" class="edge">
<title>node_8&#45;&gt;node_7</title>
<path fill="none" stroke="black" d="M685.94,-51.73C658.07,-44.12 625.28,-36.46 595,-32.7 521.22,-23.53 436.34,-26.93 376.35,-31.64"/>
<polygon fill="black" stroke="black" points="375.88,-28.17 366.2,-32.47 376.45,-35.15 375.88,-28.17"/>
<text text-anchor="middle" x="526" y="-35.7" font-family="Fira Mono Medium" font-size="10.00">not&#45;equal</text>
</g>
</g>
</svg>
