<?xml version="1.0" encoding="UTF-8" standalone="no"?>
<!DOCTYPE svg PUBLIC "-//W3C//DTD SVG 1.1//EN"
 "http://www.w3.org/Graphics/SVG/1.1/DTD/svg11.dtd">
<!-- Generated by graphviz version 2.43.0 (0)
 -->
<!-- Title: %3 Pages: 1 -->
<svg width="824pt" height="298pt"
 viewBox="0.00 0.00 824.00 297.85" xmlns="http://www.w3.org/2000/svg" xmlns:xlink="http://www.w3.org/1999/xlink">
<g id="graph0" class="graph" transform="scale(1 1) rotate(0) translate(4 293.85)">
<title>%3</title>
<polygon fill="white" stroke="transparent" points="-4,4 -4,-293.85 820,-293.85 820,4 -4,4"/>
<!-- node_0 -->
<g id="node1" class="node">
<title>node_0</title>
<polygon fill="none" stroke="black" points="587,-127.85 465,-127.85 465,-91.85 587,-91.85 587,-127.85"/>
<text text-anchor="start" x="510.5" y="-113.25" font-family="Fira Mono Medium" font-weight="bold" font-size="12.00">bank</text>
<text text-anchor="start" x="473" y="-101.25" font-family="Fira Mono Medium" font-style="italic" font-size="12.00">location:</text>
<text text-anchor="start" x="541" y="-101.25" font-family="Fira Mono Medium" font-size="12.00"> left</text>
</g>
<!-- node_1 -->
<g id="node2" class="node">
<title>node_1</title>
<polygon fill="none" stroke="black" points="816,-203.85 686,-203.85 686,-167.85 816,-167.85 816,-203.85"/>
<text text-anchor="start" x="735.5" y="-189.25" font-family="Fira Mono Medium" font-weight="bold" font-size="12.00">bank</text>
<text text-anchor="start" x="694" y="-177.25" font-family="Fira Mono Medium" font-style="italic" font-size="12.00">location:</text>
<text text-anchor="start" x="762" y="-177.25" font-family="Fira Mono Medium" font-size="12.00"> right</text>
</g>
<!-- node_0&#45;&gt;node_1 -->
<g id="edge1" class="edge">
<title>node_0&#45;&gt;node_1</title>
<path fill="none" stroke="black" d="M587.32,-116.04C612.79,-119.9 642.42,-126.07 668,-135.85 685.16,-142.4 702.73,-152.57 717.18,-162.03"/>
<polygon fill="black" stroke="black" points="715.5,-165.12 725.75,-167.79 719.4,-159.31 715.5,-165.12"/>
<text text-anchor="middle" x="640.5" y="-138.85" font-family="Fira Mono Medium" font-size="10.00">not&#45;equal</text>
</g>
<!-- node_1&#45;&gt;node_0 -->
<g id="edge2" class="edge">
<title>node_1&#45;&gt;node_0</title>
<path fill="none" stroke="black" d="M685.68,-169.38C662.56,-162.98 636.42,-155.18 613,-146.85 600.68,-142.46 587.6,-137.18 575.46,-131.99"/>
<polygon fill="black" stroke="black" points="576.53,-128.64 565.96,-127.87 573.75,-135.06 576.53,-128.64"/>
<text text-anchor="middle" x="640.5" y="-165.85" font-family="Fira Mono Medium" font-size="10.00">not&#45;equal</text>
</g>
<!-- node_2 -->
<g id="node3" class="node">
<title>node_2</title>
<polygon fill="none" stroke="black" points="324.5,-129.85 270.5,-129.85 270.5,-93.85 324.5,-93.85 324.5,-129.85"/>
<text text-anchor="start" x="282" y="-109.75" font-family="Fira Mono Medium" font-weight="bold" font-size="12.00">boat</text>
</g>
<!-- node_2&#45;&gt;node_0 -->
<g id="edge3" class="edge">
<title>node_2&#45;&gt;node_0</title>
<path fill="none" stroke="black" d="M324.68,-110.3C341.6,-109.39 364.09,-108.31 384,-107.85 407.03,-107.31 432.18,-107.44 454.77,-107.81"/>
<polygon fill="black" stroke="black" points="454.9,-111.32 464.96,-108 455.03,-104.32 454.9,-111.32"/>
<text text-anchor="middle" x="411.5" y="-110.85" font-family="Fira Mono Medium" font-size="10.00">at</text>
</g>
<!-- node_3 -->
<g id="node4" class="node">
<title>node_3</title>
<polygon fill="none" stroke="black" points="362.5,-196.85 232.5,-196.85 232.5,-152.85 362.5,-152.85 362.5,-196.85"/>
<text text-anchor="start" x="278.5" y="-184.25" font-family="Fira Mono Medium" font-weight="bold" font-size="12.00">human</text>
<text text-anchor="start" x="244.5" y="-172.25" font-family="Fira Mono Medium" font-style="italic" font-size="12.00">kind:</text>
<text text-anchor="start" x="282.5" y="-172.25" font-family="Fira Mono Medium" font-size="12.00"> cannibal</text>
<text text-anchor="start" x="240.5" y="-160.25" font-family="Fira Mono Medium" font-style="italic" font-size="12.00">can&#45;drive:</text>
<text text-anchor="start" x="316.5" y="-160.25" font-family="Fira Mono Medium" font-size="12.00"> true</text>
</g>
<!-- node_3&#45;&gt;node_0 -->
<g id="edge6" class="edge">
<title>node_3&#45;&gt;node_0</title>
<path fill="none" stroke="black" d="M362.8,-156.39C391.59,-148.13 425.6,-138.37 455.03,-129.93"/>
<polygon fill="black" stroke="black" points="456.17,-133.24 464.82,-127.12 454.24,-126.51 456.17,-133.24"/>
<text text-anchor="middle" x="411.5" y="-152.85" font-family="Fira Mono Medium" font-size="10.00">at</text>
</g>
<!-- node_4 -->
<g id="node5" class="node">
<title>node_4</title>
<polygon fill="none" stroke="black" points="138,-256.85 0,-256.85 0,-212.85 138,-212.85 138,-256.85"/>
<text text-anchor="start" x="50" y="-244.25" font-family="Fira Mono Medium" font-weight="bold" font-size="12.00">human</text>
<text text-anchor="start" x="16" y="-232.25" font-family="Fira Mono Medium" font-style="italic" font-size="12.00">kind:</text>
<text text-anchor="start" x="54" y="-232.25" font-family="Fira Mono Medium" font-size="12.00"> cannibal</text>
<text text-anchor="start" x="8" y="-220.25" font-family="Fira Mono Medium" font-style="italic" font-size="12.00">can&#45;drive:</text>
<text text-anchor="start" x="84" y="-220.25" font-family="Fira Mono Medium" font-size="12.00"> false</text>
</g>
<!-- node_3&#45;&gt;node_4 -->
<g id="edge4" class="edge">
<title>node_3&#45;&gt;node_4</title>
<path fill="none" stroke="black" d="M232.32,-167.45C207.93,-166.66 180.2,-168.25 156,-175.85 136.32,-182.02 117.13,-194.39 101.89,-206.2"/>
<polygon fill="black" stroke="black" points="99.44,-203.68 93.85,-212.67 103.83,-209.13 99.44,-203.68"/>
<text text-anchor="middle" x="183.5" y="-178.85" font-family="Fira Mono Medium" font-size="10.00">not&#45;equal</text>
</g>
<!-- node_5 -->
<g id="node6" class="node">
<title>node_5</title>
<polygon fill="none" stroke="black" points="595,-230.85 457,-230.85 457,-186.85 595,-186.85 595,-230.85"/>
<text text-anchor="start" x="507" y="-218.25" font-family="Fira Mono Medium" font-weight="bold" font-size="12.00">human</text>
<text text-anchor="start" x="473" y="-206.25" font-family="Fira Mono Medium" font-style="italic" font-size="12.00">kind:</text>
<text text-anchor="start" x="511" y="-206.25" font-family="Fira Mono Medium" font-size="12.00"> cannibal</text>
<text text-anchor="start" x="465" y="-194.25" font-family="Fira Mono Medium" font-style="italic" font-size="12.00">can&#45;drive:</text>
<text text-anchor="start" x="541" y="-194.25" font-family="Fira Mono Medium" font-size="12.00"> false</text>
</g>
<!-- node_3&#45;&gt;node_5 -->
<g id="edge5" class="edge">
<title>node_3&#45;&gt;node_5</title>
<path fill="none" stroke="black" d="M362.8,-184.5C389.01,-188.43 419.55,-193.02 447.01,-197.14"/>
<polygon fill="black" stroke="black" points="446.57,-200.61 456.98,-198.64 447.61,-193.69 446.57,-200.61"/>
<text text-anchor="middle" x="411.5" y="-198.85" font-family="Fira Mono Medium" font-size="10.00">not&#45;equal</text>
</g>
<!-- node_4&#45;&gt;node_1 -->
<g id="edge9" class="edge">
<title>node_4&#45;&gt;node_1</title>
<path fill="none" stroke="black" d="M121.65,-256.99C132.81,-261.12 144.67,-265.02 156,-267.85 187.72,-275.76 196.37,-274.84 229,-276.85 392.19,-286.87 436.72,-280.82 595,-239.85 628.71,-231.12 665.55,-218.42 694.85,-207.53"/>
<polygon fill="black" stroke="black" points="696.35,-210.71 704.49,-203.92 693.9,-204.15 696.35,-210.71"/>
<text text-anchor="middle" x="411.5" y="-281.85" font-family="Fira Mono Medium" font-size="10.00">at</text>
</g>
<!-- node_4&#45;&gt;node_3 -->
<g id="edge7" class="edge">
<title>node_4&#45;&gt;node_3</title>
<path fill="none" stroke="black" d="M138,-214.82C144.08,-213.11 150.15,-211.43 156,-209.85 177.57,-204.03 201.1,-198.03 222.63,-192.68"/>
<polygon fill="black" stroke="black" points="223.5,-196.07 232.37,-190.27 221.82,-189.27 223.5,-196.07"/>
<text text-anchor="middle" x="183.5" y="-212.85" font-family="Fira Mono Medium" font-size="10.00">not&#45;equal</text>
</g>
<!-- node_4&#45;&gt;node_5 -->
<g id="edge8" class="edge">
<title>node_4&#45;&gt;node_5</title>
<path fill="none" stroke="black" d="M138.32,-247.93C213.14,-259.85 336.19,-272.33 439,-248.85 451.92,-245.9 465.22,-240.85 477.38,-235.31"/>
<polygon fill="black" stroke="black" points="478.9,-238.46 486.43,-231.01 475.89,-232.14 478.9,-238.46"/>
<text text-anchor="middle" x="297.5" y="-264.85" font-family="Fira Mono Medium" font-size="10.00">not&#45;equal</text>
</g>
<!-- node_5&#45;&gt;node_1 -->
<g id="edge12" class="edge">
<title>node_5&#45;&gt;node_1</title>
<path fill="none" stroke="black" d="M595.12,-201.82C620.56,-199.2 649.57,-196.21 675.56,-193.53"/>
<polygon fill="black" stroke="black" points="676.14,-196.98 685.73,-192.48 675.42,-190.02 676.14,-196.98"/>
<text text-anchor="middle" x="640.5" y="-201.85" font-family="Fira Mono Medium" font-size="10.00">at</text>
</g>
<!-- node_5&#45;&gt;node_3 -->
<g id="edge10" class="edge">
<title>node_5&#45;&gt;node_3</title>
<path fill="none" stroke="black" d="M480.04,-186.75C467.1,-181.45 452.76,-176.54 439,-173.85 417.71,-169.68 394.26,-168.53 372.72,-168.8"/>
<polygon fill="black" stroke="black" points="372.56,-165.3 362.65,-169.03 372.72,-172.3 372.56,-165.3"/>
<text text-anchor="middle" x="411.5" y="-176.85" font-family="Fira Mono Medium" font-size="10.00">not&#45;equal</text>
</g>
<!-- node_5&#45;&gt;node_4 -->
<g id="edge11" class="edge">
<title>node_5&#45;&gt;node_4</title>
<path fill="none" stroke="black" d="M456.79,-212.74C374.12,-217.47 235.11,-225.41 148.19,-230.38"/>
<polygon fill="black" stroke="black" points="147.9,-226.89 138.12,-230.95 148.3,-233.88 147.9,-226.89"/>
<text text-anchor="middle" x="297.5" y="-227.85" font-family="Fira Mono Medium" font-size="10.00">not&#45;equal</text>
</g>
<!-- node_6 -->
<g id="node7" class="node">
<title>node_6</title>
<polygon fill="none" stroke="black" points="137.5,-57.85 0.5,-57.85 0.5,-13.85 137.5,-13.85 137.5,-57.85"/>
<text text-anchor="start" x="50" y="-45.25" font-family="Fira Mono Medium" font-weight="bold" font-size="12.00">human</text>
<text text-anchor="start" x="8.5" y="-33.25" font-family="Fira Mono Medium" font-style="italic" font-size="12.00">kind:</text>
<text text-anchor="start" x="46.5" y="-33.25" font-family="Fira Mono Medium" font-size="12.00"> missionary</text>
<text text-anchor="start" x="12" y="-21.25" font-family="Fira Mono Medium" font-style="italic" font-size="12.00">can&#45;drive:</text>
<text text-anchor="start" x="88" y="-21.25" font-family="Fira Mono Medium" font-size="12.00"> true</text>
</g>
<!-- node_6&#45;&gt;node_0 -->
<g id="edge14" class="edge">
<title>node_6&#45;&gt;node_0</title>
<path fill="none" stroke="black" d="M137.74,-17.01C198.61,-3.19 289.86,9.73 366,-11.85 416.19,-26.07 466.09,-61.12 496.24,-85.2"/>
<polygon fill="black" stroke="black" points="494.24,-88.08 504.21,-91.68 498.66,-82.65 494.24,-88.08"/>
<text text-anchor="middle" x="297.5" y="-14.85" font-family="Fira Mono Medium" font-size="10.00">at</text>
</g>
<!-- node_7 -->
<g id="node8" class="node">
<title>node_7</title>
<polygon fill="none" stroke="black" points="366,-75.85 229,-75.85 229,-31.85 366,-31.85 366,-75.85"/>
<text text-anchor="start" x="278.5" y="-63.25" font-family="Fira Mono Medium" font-weight="bold" font-size="12.00">human</text>
<text text-anchor="start" x="237" y="-51.25" font-family="Fira Mono Medium" font-style="italic" font-size="12.00">kind:</text>
<text text-anchor="start" x="275" y="-51.25" font-family="Fira Mono Medium" font-size="12.00"> missionary</text>
<text text-anchor="start" x="240.5" y="-39.25" font-family="Fira Mono Medium" font-style="italic" font-size="12.00">can&#45;drive:</text>
<text text-anchor="start" x="316.5" y="-39.25" font-family="Fira Mono Medium" font-size="12.00"> true</text>
</g>
<!-- node_6&#45;&gt;node_7 -->
<g id="edge13" class="edge">
<title>node_6&#45;&gt;node_7</title>
<path fill="none" stroke="black" d="M137.53,-45.89C143.77,-46.63 149.99,-47.3 156,-47.85 176.28,-49.69 198.26,-50.97 218.68,-51.86"/>
<polygon fill="black" stroke="black" points="218.74,-55.36 228.88,-52.27 219.03,-48.37 218.74,-55.36"/>
<text text-anchor="middle" x="183.5" y="-53.85" font-family="Fira Mono Medium" font-size="10.00">not&#45;equal</text>
</g>
<!-- node_7&#45;&gt;node_0 -->
<g id="edge16" class="edge">
<title>node_7&#45;&gt;node_0</title>
<path fill="none" stroke="black" d="M366.15,-70.57C394.14,-77.49 426.58,-85.51 454.83,-92.5"/>
<polygon fill="black" stroke="black" points="454.08,-95.92 464.63,-94.92 455.76,-89.12 454.08,-95.92"/>
<text text-anchor="middle" x="411.5" y="-90.85" font-family="Fira Mono Medium" font-size="10.00">at</text>
</g>
<!-- node_7&#45;&gt;node_6 -->
<g id="edge15" class="edge">
<title>node_7&#45;&gt;node_6</title>
<path fill="none" stroke="black" d="M228.59,-37.35C222.67,-36.34 216.74,-35.48 211,-34.85 190.6,-32.61 168.44,-31.94 147.86,-32.06"/>
<polygon fill="black" stroke="black" points="147.54,-28.56 137.58,-32.18 147.62,-35.56 147.54,-28.56"/>
<text text-anchor="middle" x="183.5" y="-37.85" font-family="Fira Mono Medium" font-size="10.00">not&#45;equal</text>
</g>
</g>
</svg>
