<?xml version="1.0" encoding="UTF-8" standalone="no"?>
<!DOCTYPE svg PUBLIC "-//W3C//DTD SVG 1.1//EN"
 "http://www.w3.org/Graphics/SVG/1.1/DTD/svg11.dtd">
<!-- Generated by graphviz version 2.43.0 (0)
 -->
<!-- Title: %3 Pages: 1 -->
<svg width="824pt" height="352pt"
 viewBox="0.00 0.00 824.00 352.00" xmlns="http://www.w3.org/2000/svg" xmlns:xlink="http://www.w3.org/1999/xlink">
<g id="graph0" class="graph" transform="scale(1 1) rotate(0) translate(4 348)">
<title>%3</title>
<polygon fill="white" stroke="transparent" points="-4,4 -4,-348 820,-348 820,4 -4,4"/>
<!-- node_0 -->
<g id="node1" class="node">
<title>node_0</title>
<polygon fill="none" stroke="black" points="587,-40 465,-40 465,-4 587,-4 587,-40"/>
<text text-anchor="start" x="510.5" y="-25.4" font-family="Fira Mono Medium" font-weight="bold" font-size="12.00">bank</text>
<text text-anchor="start" x="473" y="-13.4" font-family="Fira Mono Medium" font-style="italic" font-size="12.00">location:</text>
<text text-anchor="start" x="541" y="-13.4" font-family="Fira Mono Medium" font-size="12.00"> left</text>
</g>
<!-- node_1 -->
<g id="node2" class="node">
<title>node_1</title>
<polygon fill="none" stroke="black" points="816,-183 686,-183 686,-147 816,-147 816,-183"/>
<text text-anchor="start" x="735.5" y="-168.4" font-family="Fira Mono Medium" font-weight="bold" font-size="12.00">bank</text>
<text text-anchor="start" x="694" y="-156.4" font-family="Fira Mono Medium" font-style="italic" font-size="12.00">location:</text>
<text text-anchor="start" x="762" y="-156.4" font-family="Fira Mono Medium" font-size="12.00"> right</text>
</g>
<!-- node_0&#45;&gt;node_1 -->
<g id="edge1" class="edge">
<title>node_0&#45;&gt;node_1</title>
<path fill="none" stroke="black" d="M587.29,-25.15C613.77,-28.87 644.18,-36.52 668,-52 700.4,-73.06 724.25,-111.71 737.63,-137.88"/>
<polygon fill="black" stroke="black" points="734.52,-139.48 742.08,-146.9 740.79,-136.38 734.52,-139.48"/>
<text text-anchor="middle" x="640.5" y="-55" font-family="Fira Mono Medium" font-size="10.00">not&#45;equal</text>
</g>
<!-- node_1&#45;&gt;node_0 -->
<g id="edge2" class="edge">
<title>node_1&#45;&gt;node_0</title>
<path fill="none" stroke="black" d="M746.28,-146.87C738.41,-113.88 716.68,-44.77 668,-16 647.05,-3.62 621.14,-1.75 597.26,-4.09"/>
<polygon fill="black" stroke="black" points="596.67,-0.64 587.18,-5.34 597.53,-7.59 596.67,-0.64"/>
<text text-anchor="middle" x="640.5" y="-19" font-family="Fira Mono Medium" font-size="10.00">not&#45;equal</text>
</g>
<!-- node_2 -->
<g id="node3" class="node">
<title>node_2</title>
<polygon fill="none" stroke="black" points="553,-344 499,-344 499,-308 553,-308 553,-344"/>
<text text-anchor="start" x="510.5" y="-323.9" font-family="Fira Mono Medium" font-weight="bold" font-size="12.00">boat</text>
</g>
<!-- node_2&#45;&gt;node_1 -->
<g id="edge3" class="edge">
<title>node_2&#45;&gt;node_1</title>
<path fill="none" stroke="black" d="M553.04,-325.88C583.28,-324.52 633.43,-318.36 668,-294 703.86,-268.73 727.6,-222.3 739.92,-192.58"/>
<polygon fill="black" stroke="black" points="743.21,-193.78 743.66,-183.2 736.71,-191.19 743.21,-193.78"/>
<text text-anchor="middle" x="640.5" y="-320" font-family="Fira Mono Medium" font-size="10.00">at</text>
</g>
<!-- node_3 -->
<g id="node4" class="node">
<title>node_3</title>
<polygon fill="none" stroke="black" points="133.5,-225 3.5,-225 3.5,-181 133.5,-181 133.5,-225"/>
<text text-anchor="start" x="49.5" y="-212.4" font-family="Fira Mono Medium" font-weight="bold" font-size="12.00">human</text>
<text text-anchor="start" x="15.5" y="-200.4" font-family="Fira Mono Medium" font-style="italic" font-size="12.00">kind:</text>
<text text-anchor="start" x="53.5" y="-200.4" font-family="Fira Mono Medium" font-size="12.00"> cannibal</text>
<text text-anchor="start" x="11.5" y="-188.4" font-family="Fira Mono Medium" font-style="italic" font-size="12.00">can&#45;drive:</text>
<text text-anchor="start" x="87.5" y="-188.4" font-family="Fira Mono Medium" font-size="12.00"> true</text>
</g>
<!-- node_3&#45;&gt;node_1 -->
<g id="edge6" class="edge">
<title>node_3&#45;&gt;node_1</title>
<path fill="none" stroke="black" d="M124.21,-225.03C154.28,-235.83 192.57,-247.47 228,-252 389.96,-272.73 436.76,-275.26 595,-235 635.84,-224.61 679.33,-204.04 709.81,-187.88"/>
<polygon fill="black" stroke="black" points="711.69,-190.84 718.83,-183.02 708.37,-184.68 711.69,-190.84"/>
<text text-anchor="middle" x="411.5" y="-269" font-family="Fira Mono Medium" font-size="10.00">at</text>
</g>
<!-- node_4 -->
<g id="node5" class="node">
<title>node_4</title>
<polygon fill="none" stroke="black" points="366,-243 228,-243 228,-199 366,-199 366,-243"/>
<text text-anchor="start" x="278" y="-230.4" font-family="Fira Mono Medium" font-weight="bold" font-size="12.00">human</text>
<text text-anchor="start" x="244" y="-218.4" font-family="Fira Mono Medium" font-style="italic" font-size="12.00">kind:</text>
<text text-anchor="start" x="282" y="-218.4" font-family="Fira Mono Medium" font-size="12.00"> cannibal</text>
<text text-anchor="start" x="236" y="-206.4" font-family="Fira Mono Medium" font-style="italic" font-size="12.00">can&#45;drive:</text>
<text text-anchor="start" x="312" y="-206.4" font-family="Fira Mono Medium" font-size="12.00"> false</text>
</g>
<!-- node_3&#45;&gt;node_4 -->
<g id="edge4" class="edge">
<title>node_3&#45;&gt;node_4</title>
<path fill="none" stroke="black" d="M133.85,-212.71C140.97,-213.58 148.13,-214.37 155,-215 175.25,-216.85 197.18,-218.13 217.59,-219.01"/>
<polygon fill="black" stroke="black" points="217.65,-222.52 227.78,-219.43 217.93,-215.53 217.65,-222.52"/>
<text text-anchor="middle" x="182.5" y="-221" font-family="Fira Mono Medium" font-size="10.00">not&#45;equal</text>
</g>
<!-- node_5 -->
<g id="node6" class="node">
<title>node_5</title>
<polygon fill="none" stroke="black" points="595,-187 457,-187 457,-143 595,-143 595,-187"/>
<text text-anchor="start" x="507" y="-174.4" font-family="Fira Mono Medium" font-weight="bold" font-size="12.00">human</text>
<text text-anchor="start" x="473" y="-162.4" font-family="Fira Mono Medium" font-style="italic" font-size="12.00">kind:</text>
<text text-anchor="start" x="511" y="-162.4" font-family="Fira Mono Medium" font-size="12.00"> cannibal</text>
<text text-anchor="start" x="465" y="-150.4" font-family="Fira Mono Medium" font-style="italic" font-size="12.00">can&#45;drive:</text>
<text text-anchor="start" x="541" y="-150.4" font-family="Fira Mono Medium" font-size="12.00"> false</text>
</g>
<!-- node_3&#45;&gt;node_5 -->
<g id="edge5" class="edge">
<title>node_3&#45;&gt;node_5</title>
<path fill="none" stroke="black" d="M133.74,-192.08C162.5,-187.5 196.88,-182.45 228,-179 297.08,-171.35 314.57,-171.18 384,-168 404.3,-167.07 426.25,-166.43 446.65,-165.98"/>
<polygon fill="black" stroke="black" points="446.92,-169.48 456.85,-165.77 446.78,-162.48 446.92,-169.48"/>
<text text-anchor="middle" x="297" y="-182" font-family="Fira Mono Medium" font-size="10.00">not&#45;equal</text>
</g>
<!-- node_4&#45;&gt;node_1 -->
<g id="edge9" class="edge">
<title>node_4&#45;&gt;node_1</title>
<path fill="none" stroke="black" d="M366.07,-221.86C372.13,-221.92 378.18,-221.97 384,-222 408.44,-222.14 414.64,-224.02 439,-222 509.05,-216.2 525.86,-208.67 595,-196 621.45,-191.15 650.36,-185.47 675.98,-180.31"/>
<polygon fill="black" stroke="black" points="676.88,-183.7 685.99,-178.28 675.49,-176.84 676.88,-183.7"/>
<text text-anchor="middle" x="526" y="-223" font-family="Fira Mono Medium" font-size="10.00">at</text>
</g>
<!-- node_4&#45;&gt;node_3 -->
<g id="edge7" class="edge">
<title>node_4&#45;&gt;node_3</title>
<path fill="none" stroke="black" d="M227.69,-204.5C221.73,-203.49 215.78,-202.63 210,-202 188.54,-199.66 165.13,-199.05 143.68,-199.27"/>
<polygon fill="black" stroke="black" points="143.6,-195.77 133.66,-199.43 143.71,-202.77 143.6,-195.77"/>
<text text-anchor="middle" x="182.5" y="-205" font-family="Fira Mono Medium" font-size="10.00">not&#45;equal</text>
</g>
<!-- node_4&#45;&gt;node_5 -->
<g id="edge8" class="edge">
<title>node_4&#45;&gt;node_5</title>
<path fill="none" stroke="black" d="M366.29,-211.3C389.55,-207.36 415.58,-202.25 439,-196 445.39,-194.3 451.97,-192.33 458.52,-190.22"/>
<polygon fill="black" stroke="black" points="459.68,-193.53 468.07,-187.06 457.48,-186.88 459.68,-193.53"/>
<text text-anchor="middle" x="411.5" y="-210" font-family="Fira Mono Medium" font-size="10.00">not&#45;equal</text>
</g>
<!-- node_5&#45;&gt;node_1 -->
<g id="edge12" class="edge">
<title>node_5&#45;&gt;node_1</title>
<path fill="none" stroke="black" d="M595.12,-165C620.56,-165 649.57,-165 675.56,-165"/>
<polygon fill="black" stroke="black" points="675.73,-168.5 685.73,-165 675.73,-161.5 675.73,-168.5"/>
<text text-anchor="middle" x="640.5" y="-168" font-family="Fira Mono Medium" font-size="10.00">at</text>
</g>
<!-- node_5&#45;&gt;node_3 -->
<g id="edge10" class="edge">
<title>node_5&#45;&gt;node_3</title>
<path fill="none" stroke="black" d="M456.76,-154.83C396.29,-147.57 305.78,-141.02 228,-153 196.62,-157.83 162.94,-167.75 134.73,-177.48"/>
<polygon fill="black" stroke="black" points="133.26,-174.29 124.99,-180.91 135.58,-180.89 133.26,-174.29"/>
<text text-anchor="middle" x="297" y="-156" font-family="Fira Mono Medium" font-size="10.00">not&#45;equal</text>
</g>
<!-- node_5&#45;&gt;node_4 -->
<g id="edge11" class="edge">
<title>node_5&#45;&gt;node_4</title>
<path fill="none" stroke="black" d="M456.79,-169.69C433.42,-172.36 407.3,-176.51 384,-183 372.93,-186.08 361.45,-190.34 350.62,-194.9"/>
<polygon fill="black" stroke="black" points="349.06,-191.76 341.29,-198.96 351.86,-198.17 349.06,-191.76"/>
<text text-anchor="middle" x="411.5" y="-186" font-family="Fira Mono Medium" font-size="10.00">not&#45;equal</text>
</g>
<!-- node_6 -->
<g id="node7" class="node">
<title>node_6</title>
<polygon fill="none" stroke="black" points="137,-73 0,-73 0,-29 137,-29 137,-73"/>
<text text-anchor="start" x="49.5" y="-60.4" font-family="Fira Mono Medium" font-weight="bold" font-size="12.00">human</text>
<text text-anchor="start" x="8" y="-48.4" font-family="Fira Mono Medium" font-style="italic" font-size="12.00">kind:</text>
<text text-anchor="start" x="46" y="-48.4" font-family="Fira Mono Medium" font-size="12.00"> missionary</text>
<text text-anchor="start" x="11.5" y="-36.4" font-family="Fira Mono Medium" font-style="italic" font-size="12.00">can&#45;drive:</text>
<text text-anchor="start" x="87.5" y="-36.4" font-family="Fira Mono Medium" font-size="12.00"> true</text>
</g>
<!-- node_6&#45;&gt;node_1 -->
<g id="edge14" class="edge">
<title>node_6&#45;&gt;node_1</title>
<path fill="none" stroke="black" d="M137.26,-60.8C237.49,-75.5 431.12,-104.68 595,-134 621.35,-138.71 650.13,-144.34 675.65,-149.49"/>
<polygon fill="black" stroke="black" points="675.14,-152.96 685.63,-151.52 676.53,-146.1 675.14,-152.96"/>
<text text-anchor="middle" x="411.5" y="-109" font-family="Fira Mono Medium" font-size="10.00">at</text>
</g>
<!-- node_7 -->
<g id="node8" class="node">
<title>node_7</title>
<polygon fill="none" stroke="black" points="365.5,-44 228.5,-44 228.5,0 365.5,0 365.5,-44"/>
<text text-anchor="start" x="278" y="-31.4" font-family="Fira Mono Medium" font-weight="bold" font-size="12.00">human</text>
<text text-anchor="start" x="236.5" y="-19.4" font-family="Fira Mono Medium" font-style="italic" font-size="12.00">kind:</text>
<text text-anchor="start" x="274.5" y="-19.4" font-family="Fira Mono Medium" font-size="12.00"> missionary</text>
<text text-anchor="start" x="240" y="-7.4" font-family="Fira Mono Medium" font-style="italic" font-size="12.00">can&#45;drive:</text>
<text text-anchor="start" x="316" y="-7.4" font-family="Fira Mono Medium" font-size="12.00"> true</text>
</g>
<!-- node_6&#45;&gt;node_7 -->
<g id="edge13" class="edge">
<title>node_6&#45;&gt;node_7</title>
<path fill="none" stroke="black" d="M137.15,-42.34C162.7,-39.07 191.96,-35.32 218.35,-31.94"/>
<polygon fill="black" stroke="black" points="218.83,-35.41 228.31,-30.67 217.94,-28.47 218.83,-35.41"/>
<text text-anchor="middle" x="182.5" y="-42" font-family="Fira Mono Medium" font-size="10.00">not&#45;equal</text>
</g>
<!-- node_7&#45;&gt;node_0 -->
<g id="edge16" class="edge">
<title>node_7&#45;&gt;node_0</title>
<path fill="none" stroke="black" d="M365.8,-22C393.84,-22 426.35,-22 454.65,-22"/>
<polygon fill="black" stroke="black" points="454.87,-25.5 464.87,-22 454.87,-18.5 454.87,-25.5"/>
<text text-anchor="middle" x="411.5" y="-25" font-family="Fira Mono Medium" font-size="10.00">at</text>
</g>
<!-- node_7&#45;&gt;node_6 -->
<g id="edge15" class="edge">
<title>node_7&#45;&gt;node_6</title>
<path fill="none" stroke="black" d="M228.49,-14.3C205.05,-13.16 178.71,-13.58 155,-18 145.71,-19.73 136.13,-22.43 126.9,-25.56"/>
<polygon fill="black" stroke="black" points="125.66,-22.29 117.43,-28.96 128.02,-28.88 125.66,-22.29"/>
<text text-anchor="middle" x="182.5" y="-21" font-family="Fira Mono Medium" font-size="10.00">not&#45;equal</text>
</g>
</g>
</svg>
