<?xml version="1.0" encoding="UTF-8" standalone="no"?>
<!DOCTYPE svg PUBLIC "-//W3C//DTD SVG 1.1//EN"
 "http://www.w3.org/Graphics/SVG/1.1/DTD/svg11.dtd">
<!-- Generated by graphviz version 2.43.0 (0)
 -->
<!-- Title: %3 Pages: 1 -->
<svg width="995pt" height="402pt"
 viewBox="0.00 0.00 995.00 402.35" xmlns="http://www.w3.org/2000/svg" xmlns:xlink="http://www.w3.org/1999/xlink">
<g id="graph0" class="graph" transform="scale(1 1) rotate(0) translate(4 398.35)">
<title>%3</title>
<polygon fill="white" stroke="transparent" points="-4,4 -4,-398.35 991,-398.35 991,4 -4,4"/>
<!-- node_0 -->
<g id="node1" class="node">
<title>node_0</title>
<polygon fill="none" stroke="black" points="766,-233.35 644,-233.35 644,-197.35 766,-197.35 766,-233.35"/>
<text text-anchor="start" x="689.5" y="-218.75" font-family="Fira Mono Medium" font-weight="bold" font-size="12.00">bank</text>
<text text-anchor="start" x="652" y="-206.75" font-family="Fira Mono Medium" font-style="italic" font-size="12.00">location:</text>
<text text-anchor="start" x="720" y="-206.75" font-family="Fira Mono Medium" font-size="12.00"> left</text>
</g>
<!-- node_1 -->
<g id="node2" class="node">
<title>node_1</title>
<polygon fill="none" stroke="black" points="987,-233.35 857,-233.35 857,-197.35 987,-197.35 987,-233.35"/>
<text text-anchor="start" x="906.5" y="-218.75" font-family="Fira Mono Medium" font-weight="bold" font-size="12.00">bank</text>
<text text-anchor="start" x="865" y="-206.75" font-family="Fira Mono Medium" font-style="italic" font-size="12.00">location:</text>
<text text-anchor="start" x="933" y="-206.75" font-family="Fira Mono Medium" font-size="12.00"> right</text>
</g>
<!-- node_0&#45;&gt;node_1 -->
<g id="edge1" class="edge">
<title>node_0&#45;&gt;node_1</title>
<path fill="none" stroke="black" d="M766.18,-215.35C791.07,-215.35 820.2,-215.35 846.43,-215.35"/>
<polygon fill="black" stroke="black" points="846.7,-218.85 856.7,-215.35 846.7,-211.85 846.7,-218.85"/>
<text text-anchor="middle" x="811.5" y="-218.35" font-family="Fira Mono Medium" font-size="10.00">not&#45;equal</text>
</g>
<!-- node_1&#45;&gt;node_0 -->
<g id="edge2" class="edge">
<title>node_1&#45;&gt;node_0</title>
<path fill="none" stroke="black" d="M856.69,-202.45C850.73,-201.6 844.77,-200.87 839,-200.35 814.66,-198.14 808.33,-198.03 784,-200.35 781.48,-200.59 778.92,-200.87 776.33,-201.19"/>
<polygon fill="black" stroke="black" points="775.73,-197.74 766.3,-202.58 776.69,-204.68 775.73,-197.74"/>
<text text-anchor="middle" x="811.5" y="-203.35" font-family="Fira Mono Medium" font-size="10.00">not&#45;equal</text>
</g>
<!-- node_2 -->
<g id="node3" class="node">
<title>node_2</title>
<polygon fill="none" stroke="black" points="553,-394.35 499,-394.35 499,-358.35 553,-358.35 553,-394.35"/>
<text text-anchor="start" x="510.5" y="-374.25" font-family="Fira Mono Medium" font-weight="bold" font-size="12.00">boat</text>
</g>
<!-- node_2&#45;&gt;node_0 -->
<g id="edge3" class="edge">
<title>node_2&#45;&gt;node_0</title>
<path fill="none" stroke="black" d="M553.37,-373.01C574.83,-369.16 604.9,-361.06 626,-344.35 659.59,-317.75 682.11,-272.42 693.99,-243.19"/>
<polygon fill="black" stroke="black" points="697.37,-244.17 697.75,-233.58 690.85,-241.62 697.37,-244.17"/>
<text text-anchor="middle" x="619.5" y="-354.35" font-family="Fira Mono Medium" font-size="10.00">at</text>
</g>
<!-- node_3 -->
<g id="node4" class="node">
<title>node_3</title>
<polygon fill="none" stroke="black" points="133.5,-275.35 3.5,-275.35 3.5,-231.35 133.5,-231.35 133.5,-275.35"/>
<text text-anchor="start" x="49.5" y="-262.75" font-family="Fira Mono Medium" font-weight="bold" font-size="12.00">human</text>
<text text-anchor="start" x="15.5" y="-250.75" font-family="Fira Mono Medium" font-style="italic" font-size="12.00">kind:</text>
<text text-anchor="start" x="53.5" y="-250.75" font-family="Fira Mono Medium" font-size="12.00"> cannibal</text>
<text text-anchor="start" x="11.5" y="-238.75" font-family="Fira Mono Medium" font-style="italic" font-size="12.00">can&#45;drive:</text>
<text text-anchor="start" x="87.5" y="-238.75" font-family="Fira Mono Medium" font-size="12.00"> true</text>
</g>
<!-- node_3&#45;&gt;node_0 -->
<g id="edge6" class="edge">
<title>node_3&#45;&gt;node_0</title>
<path fill="none" stroke="black" d="M124.21,-275.38C154.28,-286.18 192.57,-297.82 228,-302.35 389.96,-323.08 440.13,-337.1 595,-285.35 624.43,-275.52 653.81,-255.95 674.63,-239.99"/>
<polygon fill="black" stroke="black" points="677.02,-242.57 682.73,-233.64 672.7,-237.06 677.02,-242.57"/>
<text text-anchor="middle" x="411.5" y="-323.35" font-family="Fira Mono Medium" font-size="10.00">at</text>
</g>
<!-- node_4 -->
<g id="node5" class="node">
<title>node_4</title>
<polygon fill="none" stroke="black" points="366,-293.35 228,-293.35 228,-249.35 366,-249.35 366,-293.35"/>
<text text-anchor="start" x="278" y="-280.75" font-family="Fira Mono Medium" font-weight="bold" font-size="12.00">human</text>
<text text-anchor="start" x="244" y="-268.75" font-family="Fira Mono Medium" font-style="italic" font-size="12.00">kind:</text>
<text text-anchor="start" x="282" y="-268.75" font-family="Fira Mono Medium" font-size="12.00"> cannibal</text>
<text text-anchor="start" x="236" y="-256.75" font-family="Fira Mono Medium" font-style="italic" font-size="12.00">can&#45;drive:</text>
<text text-anchor="start" x="312" y="-256.75" font-family="Fira Mono Medium" font-size="12.00"> false</text>
</g>
<!-- node_3&#45;&gt;node_4 -->
<g id="edge4" class="edge">
<title>node_3&#45;&gt;node_4</title>
<path fill="none" stroke="black" d="M133.85,-263.06C140.97,-263.94 148.13,-264.73 155,-265.35 175.25,-267.2 197.18,-268.48 217.59,-269.37"/>
<polygon fill="black" stroke="black" points="217.65,-272.87 227.78,-269.78 217.93,-265.88 217.65,-272.87"/>
<text text-anchor="middle" x="182.5" y="-271.35" font-family="Fira Mono Medium" font-size="10.00">not&#45;equal</text>
</g>
<!-- node_5 -->
<g id="node6" class="node">
<title>node_5</title>
<polygon fill="none" stroke="black" points="595,-237.35 457,-237.35 457,-193.35 595,-193.35 595,-237.35"/>
<text text-anchor="start" x="507" y="-224.75" font-family="Fira Mono Medium" font-weight="bold" font-size="12.00">human</text>
<text text-anchor="start" x="473" y="-212.75" font-family="Fira Mono Medium" font-style="italic" font-size="12.00">kind:</text>
<text text-anchor="start" x="511" y="-212.75" font-family="Fira Mono Medium" font-size="12.00"> cannibal</text>
<text text-anchor="start" x="465" y="-200.75" font-family="Fira Mono Medium" font-style="italic" font-size="12.00">can&#45;drive:</text>
<text text-anchor="start" x="541" y="-200.75" font-family="Fira Mono Medium" font-size="12.00"> false</text>
</g>
<!-- node_3&#45;&gt;node_5 -->
<g id="edge5" class="edge">
<title>node_3&#45;&gt;node_5</title>
<path fill="none" stroke="black" d="M133.74,-242.43C162.5,-237.85 196.88,-232.8 228,-229.35 297.08,-221.7 314.57,-221.54 384,-218.35 404.3,-217.42 426.25,-216.78 446.65,-216.33"/>
<polygon fill="black" stroke="black" points="446.92,-219.83 456.85,-216.13 446.78,-212.83 446.92,-219.83"/>
<text text-anchor="middle" x="297" y="-232.35" font-family="Fira Mono Medium" font-size="10.00">not&#45;equal</text>
</g>
<!-- node_4&#45;&gt;node_0 -->
<g id="edge9" class="edge">
<title>node_4&#45;&gt;node_0</title>
<path fill="none" stroke="black" d="M366.07,-272.22C372.13,-272.27 378.18,-272.32 384,-272.35 408.44,-272.49 414.64,-274.37 439,-272.35 509.05,-266.55 526.42,-261.77 595,-246.35 608.08,-243.41 621.92,-239.84 635.18,-236.18"/>
<polygon fill="black" stroke="black" points="636.51,-239.45 645.19,-233.38 634.62,-232.71 636.51,-239.45"/>
<text text-anchor="middle" x="526" y="-273.35" font-family="Fira Mono Medium" font-size="10.00">at</text>
</g>
<!-- node_4&#45;&gt;node_3 -->
<g id="edge7" class="edge">
<title>node_4&#45;&gt;node_3</title>
<path fill="none" stroke="black" d="M227.69,-254.85C221.73,-253.84 215.78,-252.98 210,-252.35 188.54,-250.01 165.13,-249.41 143.68,-249.62"/>
<polygon fill="black" stroke="black" points="143.6,-246.12 133.66,-249.78 143.71,-253.12 143.6,-246.12"/>
<text text-anchor="middle" x="182.5" y="-255.35" font-family="Fira Mono Medium" font-size="10.00">not&#45;equal</text>
</g>
<!-- node_4&#45;&gt;node_5 -->
<g id="edge8" class="edge">
<title>node_4&#45;&gt;node_5</title>
<path fill="none" stroke="black" d="M366.29,-261.65C389.55,-257.72 415.58,-252.6 439,-246.35 445.39,-244.65 451.97,-242.68 458.52,-240.57"/>
<polygon fill="black" stroke="black" points="459.68,-243.88 468.07,-237.41 457.48,-237.23 459.68,-243.88"/>
<text text-anchor="middle" x="411.5" y="-260.35" font-family="Fira Mono Medium" font-size="10.00">not&#45;equal</text>
</g>
<!-- node_5&#45;&gt;node_0 -->
<g id="edge12" class="edge">
<title>node_5&#45;&gt;node_0</title>
<path fill="none" stroke="black" d="M595.18,-215.35C607.86,-215.35 621.13,-215.35 633.86,-215.35"/>
<polygon fill="black" stroke="black" points="633.94,-218.85 643.94,-215.35 633.94,-211.85 633.94,-218.85"/>
<text text-anchor="middle" x="619.5" y="-218.35" font-family="Fira Mono Medium" font-size="10.00">at</text>
</g>
<!-- node_5&#45;&gt;node_3 -->
<g id="edge10" class="edge">
<title>node_5&#45;&gt;node_3</title>
<path fill="none" stroke="black" d="M456.76,-205.18C396.29,-197.93 305.78,-191.37 228,-203.35 196.62,-208.18 162.94,-218.1 134.73,-227.83"/>
<polygon fill="black" stroke="black" points="133.26,-224.64 124.99,-231.26 135.58,-231.24 133.26,-224.64"/>
<text text-anchor="middle" x="297" y="-206.35" font-family="Fira Mono Medium" font-size="10.00">not&#45;equal</text>
</g>
<!-- node_5&#45;&gt;node_4 -->
<g id="edge11" class="edge">
<title>node_5&#45;&gt;node_4</title>
<path fill="none" stroke="black" d="M456.79,-220.05C433.42,-222.71 407.3,-226.87 384,-233.35 372.93,-236.43 361.45,-240.69 350.62,-245.25"/>
<polygon fill="black" stroke="black" points="349.06,-242.11 341.29,-249.31 351.86,-248.53 349.06,-242.11"/>
<text text-anchor="middle" x="411.5" y="-236.35" font-family="Fira Mono Medium" font-size="10.00">not&#45;equal</text>
</g>
<!-- node_6 -->
<g id="node7" class="node">
<title>node_6</title>
<polygon fill="none" stroke="black" points="137,-59.35 0,-59.35 0,-15.35 137,-15.35 137,-59.35"/>
<text text-anchor="start" x="49.5" y="-46.75" font-family="Fira Mono Medium" font-weight="bold" font-size="12.00">human</text>
<text text-anchor="start" x="8" y="-34.75" font-family="Fira Mono Medium" font-style="italic" font-size="12.00">kind:</text>
<text text-anchor="start" x="46" y="-34.75" font-family="Fira Mono Medium" font-size="12.00"> missionary</text>
<text text-anchor="start" x="11.5" y="-22.75" font-family="Fira Mono Medium" font-style="italic" font-size="12.00">can&#45;drive:</text>
<text text-anchor="start" x="87.5" y="-22.75" font-family="Fira Mono Medium" font-size="12.00"> true</text>
</g>
<!-- node_6&#45;&gt;node_0 -->
<g id="edge15" class="edge">
<title>node_6&#45;&gt;node_0</title>
<path fill="none" stroke="black" d="M116.89,-59.42C147.96,-73.23 189.77,-90.57 228,-102.35 387.72,-151.58 433,-143.25 595,-184.35 607.69,-187.57 621.15,-191.21 634.11,-194.84"/>
<polygon fill="black" stroke="black" points="633.34,-198.25 643.91,-197.6 635.24,-191.52 633.34,-198.25"/>
<text text-anchor="middle" x="411.5" y="-153.35" font-family="Fira Mono Medium" font-size="10.00">at</text>
</g>
<!-- node_7 -->
<g id="node8" class="node">
<title>node_7</title>
<polygon fill="none" stroke="black" points="365.5,-93.35 228.5,-93.35 228.5,-49.35 365.5,-49.35 365.5,-93.35"/>
<text text-anchor="start" x="278" y="-80.75" font-family="Fira Mono Medium" font-weight="bold" font-size="12.00">human</text>
<text text-anchor="start" x="236.5" y="-68.75" font-family="Fira Mono Medium" font-style="italic" font-size="12.00">kind:</text>
<text text-anchor="start" x="274.5" y="-68.75" font-family="Fira Mono Medium" font-size="12.00"> missionary</text>
<text text-anchor="start" x="240" y="-56.75" font-family="Fira Mono Medium" font-style="italic" font-size="12.00">can&#45;drive:</text>
<text text-anchor="start" x="316" y="-56.75" font-family="Fira Mono Medium" font-size="12.00"> true</text>
</g>
<!-- node_6&#45;&gt;node_7 -->
<g id="edge13" class="edge">
<title>node_6&#45;&gt;node_7</title>
<path fill="none" stroke="black" d="M137.15,-47.51C162.7,-51.34 191.96,-55.73 218.35,-59.69"/>
<polygon fill="black" stroke="black" points="217.9,-63.17 228.31,-61.19 218.94,-56.24 217.9,-63.17"/>
<text text-anchor="middle" x="182.5" y="-61.35" font-family="Fira Mono Medium" font-size="10.00">not&#45;equal</text>
</g>
<!-- node_8 -->
<g id="node9" class="node">
<title>node_8</title>
<polygon fill="none" stroke="black" points="594.5,-59.35 457.5,-59.35 457.5,-15.35 594.5,-15.35 594.5,-59.35"/>
<text text-anchor="start" x="507" y="-46.75" font-family="Fira Mono Medium" font-weight="bold" font-size="12.00">human</text>
<text text-anchor="start" x="465.5" y="-34.75" font-family="Fira Mono Medium" font-style="italic" font-size="12.00">kind:</text>
<text text-anchor="start" x="503.5" y="-34.75" font-family="Fira Mono Medium" font-size="12.00"> missionary</text>
<text text-anchor="start" x="469" y="-22.75" font-family="Fira Mono Medium" font-style="italic" font-size="12.00">can&#45;drive:</text>
<text text-anchor="start" x="545" y="-22.75" font-family="Fira Mono Medium" font-size="12.00"> true</text>
</g>
<!-- node_6&#45;&gt;node_8 -->
<g id="edge14" class="edge">
<title>node_6&#45;&gt;node_8</title>
<path fill="none" stroke="black" d="M137.1,-27.84C143.14,-27.24 149.18,-26.72 155,-26.35 280.96,-18.28 313.03,-18.33 439,-26.35 441.72,-26.52 444.49,-26.73 447.28,-26.96"/>
<polygon fill="black" stroke="black" points="447.2,-30.46 457.48,-27.89 447.84,-23.49 447.2,-30.46"/>
<text text-anchor="middle" x="297" y="-24.35" font-family="Fira Mono Medium" font-size="10.00">not&#45;equal</text>
</g>
<!-- node_7&#45;&gt;node_0 -->
<g id="edge18" class="edge">
<title>node_7&#45;&gt;node_0</title>
<path fill="none" stroke="black" d="M365.8,-74.97C449.27,-80.59 585,-93.88 626,-122.35 651.44,-140.02 673.39,-168.06 687.46,-188.74"/>
<polygon fill="black" stroke="black" points="684.55,-190.69 692.99,-197.1 690.39,-186.83 684.55,-190.69"/>
<text text-anchor="middle" x="526" y="-109.35" font-family="Fira Mono Medium" font-size="10.00">at</text>
</g>
<!-- node_7&#45;&gt;node_6 -->
<g id="edge16" class="edge">
<title>node_7&#45;&gt;node_6</title>
<path fill="none" stroke="black" d="M251.04,-49.25C238.1,-43.95 223.76,-39.04 210,-36.35 189.93,-32.42 167.94,-31.18 147.43,-31.27"/>
<polygon fill="black" stroke="black" points="147.13,-27.78 137.19,-31.43 147.24,-34.78 147.13,-27.78"/>
<text text-anchor="middle" x="182.5" y="-39.35" font-family="Fira Mono Medium" font-size="10.00">not&#45;equal</text>
</g>
<!-- node_7&#45;&gt;node_8 -->
<g id="edge17" class="edge">
<title>node_7&#45;&gt;node_8</title>
<path fill="none" stroke="black" d="M365.8,-61.2C391.4,-57.36 420.73,-52.97 447.18,-49.01"/>
<polygon fill="black" stroke="black" points="447.79,-52.46 457.16,-47.51 446.75,-45.53 447.79,-52.46"/>
<text text-anchor="middle" x="411.5" y="-61.35" font-family="Fira Mono Medium" font-size="10.00">not&#45;equal</text>
</g>
<!-- node_8&#45;&gt;node_0 -->
<g id="edge21" class="edge">
<title>node_8&#45;&gt;node_0</title>
<path fill="none" stroke="black" d="M594.52,-53.68C605.82,-58.44 616.84,-64.55 626,-72.35 662.32,-103.3 684.65,-155.58 695.65,-187.62"/>
<polygon fill="black" stroke="black" points="692.37,-188.86 698.83,-197.26 699.02,-186.67 692.37,-188.86"/>
<text text-anchor="middle" x="619.5" y="-75.35" font-family="Fira Mono Medium" font-size="10.00">at</text>
</g>
<!-- node_8&#45;&gt;node_6 -->
<g id="edge19" class="edge">
<title>node_8&#45;&gt;node_6</title>
<path fill="none" stroke="black" d="M457.44,-22.24C451.21,-20.9 444.99,-19.59 439,-18.35 406.65,-11.68 398.89,-7.48 366,-4.35 304.94,1.45 289.06,1.45 228,-4.35 195.11,-7.48 187.35,-11.66 155,-18.35 152.37,-18.9 149.69,-19.46 146.99,-20.03"/>
<polygon fill="black" stroke="black" points="146.18,-16.62 137.13,-22.13 147.64,-23.47 146.18,-16.62"/>
<text text-anchor="middle" x="297" y="-7.35" font-family="Fira Mono Medium" font-size="10.00">not&#45;equal</text>
</g>
<!-- node_8&#45;&gt;node_7 -->
<g id="edge20" class="edge">
<title>node_8&#45;&gt;node_7</title>
<path fill="none" stroke="black" d="M457.43,-31.42C433.99,-30.8 407.66,-31.72 384,-36.35 373.57,-38.39 362.81,-41.7 352.58,-45.5"/>
<polygon fill="black" stroke="black" points="351,-42.35 342.96,-49.25 353.55,-48.87 351,-42.35"/>
<text text-anchor="middle" x="411.5" y="-39.35" font-family="Fira Mono Medium" font-size="10.00">not&#45;equal</text>
</g>
</g>
</svg>
