<?xml version="1.0" encoding="UTF-8" standalone="no"?>
<!DOCTYPE svg PUBLIC "-//W3C//DTD SVG 1.1//EN"
 "http://www.w3.org/Graphics/SVG/1.1/DTD/svg11.dtd">
<!-- Generated by graphviz version 2.43.0 (0)
 -->
<!-- Title: %3 Pages: 1 -->
<svg width="988pt" height="294pt"
 viewBox="0.00 0.00 988.00 293.94" xmlns="http://www.w3.org/2000/svg" xmlns:xlink="http://www.w3.org/1999/xlink">
<g id="graph0" class="graph" transform="scale(1 1) rotate(0) translate(4 289.94)">
<title>%3</title>
<polygon fill="white" stroke="transparent" points="-4,4 -4,-289.94 984,-289.94 984,4 -4,4"/>
<!-- node_0 -->
<g id="node1" class="node">
<title>node_0</title>
<polygon fill="none" stroke="black" points="759,-176.94 637,-176.94 637,-140.94 759,-140.94 759,-176.94"/>
<text text-anchor="start" x="682.5" y="-162.34" font-family="Fira Mono Medium" font-weight="bold" font-size="12.00">bank</text>
<text text-anchor="start" x="645" y="-150.34" font-family="Fira Mono Medium" font-style="italic" font-size="12.00">location:</text>
<text text-anchor="start" x="713" y="-150.34" font-family="Fira Mono Medium" font-size="12.00"> left</text>
</g>
<!-- node_1 -->
<g id="node2" class="node">
<title>node_1</title>
<polygon fill="none" stroke="black" points="980,-210.94 850,-210.94 850,-174.94 980,-174.94 980,-210.94"/>
<text text-anchor="start" x="899.5" y="-196.34" font-family="Fira Mono Medium" font-weight="bold" font-size="12.00">bank</text>
<text text-anchor="start" x="858" y="-184.34" font-family="Fira Mono Medium" font-style="italic" font-size="12.00">location:</text>
<text text-anchor="start" x="926" y="-184.34" font-family="Fira Mono Medium" font-size="12.00"> right</text>
</g>
<!-- node_0&#45;&gt;node_1 -->
<g id="edge1" class="edge">
<title>node_0&#45;&gt;node_1</title>
<path fill="none" stroke="black" d="M759.18,-168.45C784.18,-172.41 813.45,-177.04 839.77,-181.2"/>
<polygon fill="black" stroke="black" points="839.28,-184.66 849.7,-182.77 840.37,-177.75 839.28,-184.66"/>
<text text-anchor="middle" x="804.5" y="-181.94" font-family="Fira Mono Medium" font-size="10.00">not&#45;equal</text>
</g>
<!-- node_1&#45;&gt;node_0 -->
<g id="edge2" class="edge">
<title>node_1&#45;&gt;node_0</title>
<path fill="none" stroke="black" d="M880.29,-174.91C865.85,-168.16 848.53,-161.32 832,-157.94 811.87,-153.82 789.67,-152.69 769.27,-152.96"/>
<polygon fill="black" stroke="black" points="769.01,-149.46 759.1,-153.21 769.18,-156.46 769.01,-149.46"/>
<text text-anchor="middle" x="804.5" y="-160.94" font-family="Fira Mono Medium" font-size="10.00">not&#45;equal</text>
</g>
<!-- node_2 -->
<g id="node3" class="node">
<title>node_2</title>
<polygon fill="none" stroke="black" points="546,-199.94 492,-199.94 492,-163.94 546,-163.94 546,-199.94"/>
<text text-anchor="start" x="503.5" y="-179.84" font-family="Fira Mono Medium" font-weight="bold" font-size="12.00">boat</text>
</g>
<!-- node_2&#45;&gt;node_0 -->
<g id="edge3" class="edge">
<title>node_2&#45;&gt;node_0</title>
<path fill="none" stroke="black" d="M546.12,-178.54C567.27,-175.79 598.1,-171.79 626.39,-168.11"/>
<polygon fill="black" stroke="black" points="627.2,-171.53 636.67,-166.78 626.3,-164.59 627.2,-171.53"/>
<text text-anchor="middle" x="612.5" y="-172.94" font-family="Fira Mono Medium" font-size="10.00">at</text>
</g>
<!-- node_3 -->
<g id="node4" class="node">
<title>node_3</title>
<polygon fill="none" stroke="black" points="130,-58.94 0,-58.94 0,-14.94 130,-14.94 130,-58.94"/>
<text text-anchor="start" x="46" y="-46.34" font-family="Fira Mono Medium" font-weight="bold" font-size="12.00">human</text>
<text text-anchor="start" x="12" y="-34.34" font-family="Fira Mono Medium" font-style="italic" font-size="12.00">kind:</text>
<text text-anchor="start" x="50" y="-34.34" font-family="Fira Mono Medium" font-size="12.00"> cannibal</text>
<text text-anchor="start" x="8" y="-22.34" font-family="Fira Mono Medium" font-style="italic" font-size="12.00">can&#45;drive:</text>
<text text-anchor="start" x="84" y="-22.34" font-family="Fira Mono Medium" font-size="12.00"> true</text>
</g>
<!-- node_3&#45;&gt;node_0 -->
<g id="edge6" class="edge">
<title>node_3&#45;&gt;node_0</title>
<path fill="none" stroke="black" d="M109.27,-59.01C139.73,-73.57 181.89,-91.76 221,-101.94 361.91,-138.6 532.52,-151.77 626.44,-156.44"/>
<polygon fill="black" stroke="black" points="626.51,-159.95 636.67,-156.93 626.85,-152.95 626.51,-159.95"/>
<text text-anchor="middle" x="404.5" y="-141.94" font-family="Fira Mono Medium" font-size="10.00">at</text>
</g>
<!-- node_4 -->
<g id="node5" class="node">
<title>node_4</title>
<polygon fill="none" stroke="black" points="359,-92.94 221,-92.94 221,-48.94 359,-48.94 359,-92.94"/>
<text text-anchor="start" x="271" y="-80.34" font-family="Fira Mono Medium" font-weight="bold" font-size="12.00">human</text>
<text text-anchor="start" x="237" y="-68.34" font-family="Fira Mono Medium" font-style="italic" font-size="12.00">kind:</text>
<text text-anchor="start" x="275" y="-68.34" font-family="Fira Mono Medium" font-size="12.00"> cannibal</text>
<text text-anchor="start" x="229" y="-56.34" font-family="Fira Mono Medium" font-style="italic" font-size="12.00">can&#45;drive:</text>
<text text-anchor="start" x="305" y="-56.34" font-family="Fira Mono Medium" font-size="12.00"> false</text>
</g>
<!-- node_3&#45;&gt;node_4 -->
<g id="edge4" class="edge">
<title>node_3&#45;&gt;node_4</title>
<path fill="none" stroke="black" d="M130.2,-46.72C155.42,-50.57 184.59,-55.02 211,-59.04"/>
<polygon fill="black" stroke="black" points="210.56,-62.52 220.98,-60.56 211.62,-55.6 210.56,-62.52"/>
<text text-anchor="middle" x="175.5" y="-59.94" font-family="Fira Mono Medium" font-size="10.00">not&#45;equal</text>
</g>
<!-- node_5 -->
<g id="node6" class="node">
<title>node_5</title>
<polygon fill="none" stroke="black" points="588,-58.94 450,-58.94 450,-14.94 588,-14.94 588,-58.94"/>
<text text-anchor="start" x="500" y="-46.34" font-family="Fira Mono Medium" font-weight="bold" font-size="12.00">human</text>
<text text-anchor="start" x="466" y="-34.34" font-family="Fira Mono Medium" font-style="italic" font-size="12.00">kind:</text>
<text text-anchor="start" x="504" y="-34.34" font-family="Fira Mono Medium" font-size="12.00"> cannibal</text>
<text text-anchor="start" x="458" y="-22.34" font-family="Fira Mono Medium" font-style="italic" font-size="12.00">can&#45;drive:</text>
<text text-anchor="start" x="534" y="-22.34" font-family="Fira Mono Medium" font-size="12.00"> false</text>
</g>
<!-- node_3&#45;&gt;node_5 -->
<g id="edge5" class="edge">
<title>node_3&#45;&gt;node_5</title>
<path fill="none" stroke="black" d="M130.39,-28.36C136.34,-27.79 142.27,-27.3 148,-26.94 273.97,-19.01 306.03,-17.91 432,-25.94 434.41,-26.09 436.85,-26.27 439.32,-26.46"/>
<polygon fill="black" stroke="black" points="439.27,-29.97 449.54,-27.38 439.89,-23 439.27,-29.97"/>
<text text-anchor="middle" x="290" y="-24.94" font-family="Fira Mono Medium" font-size="10.00">not&#45;equal</text>
</g>
<!-- node_4&#45;&gt;node_0 -->
<g id="edge9" class="edge">
<title>node_4&#45;&gt;node_0</title>
<path fill="none" stroke="black" d="M359.15,-72.23C427.3,-75.63 533.92,-86.77 619,-121.94 629.71,-126.36 641.07,-131.49 651.71,-136.5"/>
<polygon fill="black" stroke="black" points="650.3,-139.7 660.84,-140.84 653.31,-133.38 650.3,-139.7"/>
<text text-anchor="middle" x="519" y="-111.94" font-family="Fira Mono Medium" font-size="10.00">at</text>
</g>
<!-- node_4&#45;&gt;node_3 -->
<g id="edge7" class="edge">
<title>node_4&#45;&gt;node_3</title>
<path fill="none" stroke="black" d="M244.04,-48.84C231.1,-43.53 216.76,-38.63 203,-35.94 182.93,-32.01 160.89,-30.83 140.47,-31"/>
<polygon fill="black" stroke="black" points="140.2,-27.51 130.27,-31.2 140.33,-34.5 140.2,-27.51"/>
<text text-anchor="middle" x="175.5" y="-38.94" font-family="Fira Mono Medium" font-size="10.00">not&#45;equal</text>
</g>
<!-- node_4&#45;&gt;node_5 -->
<g id="edge8" class="edge">
<title>node_4&#45;&gt;node_5</title>
<path fill="none" stroke="black" d="M359.11,-60.73C384.58,-56.92 413.71,-52.56 440.01,-48.62"/>
<polygon fill="black" stroke="black" points="440.57,-52.07 449.94,-47.13 439.53,-45.15 440.57,-52.07"/>
<text text-anchor="middle" x="404.5" y="-60.94" font-family="Fira Mono Medium" font-size="10.00">not&#45;equal</text>
</g>
<!-- node_5&#45;&gt;node_0 -->
<g id="edge12" class="edge">
<title>node_5&#45;&gt;node_0</title>
<path fill="none" stroke="black" d="M588.21,-55.94C598.96,-60.35 609.61,-65.65 619,-71.94 643.12,-88.08 664.65,-113.36 678.94,-132.51"/>
<polygon fill="black" stroke="black" points="676.27,-134.8 684.98,-140.83 681.94,-130.68 676.27,-134.8"/>
<text text-anchor="middle" x="612.5" y="-74.94" font-family="Fira Mono Medium" font-size="10.00">at</text>
</g>
<!-- node_5&#45;&gt;node_3 -->
<g id="edge10" class="edge">
<title>node_5&#45;&gt;node_3</title>
<path fill="none" stroke="black" d="M449.99,-21.64C443.91,-20.35 437.85,-19.1 432,-17.94 339.86,0.44 314.53,3.95 221,-4.94 188.11,-8.06 180.36,-12.28 148,-18.94 145.5,-19.45 142.96,-19.98 140.4,-20.51"/>
<polygon fill="black" stroke="black" points="139.48,-17.13 130.42,-22.62 140.93,-23.98 139.48,-17.13"/>
<text text-anchor="middle" x="290" y="-7.94" font-family="Fira Mono Medium" font-size="10.00">not&#45;equal</text>
</g>
<!-- node_5&#45;&gt;node_4 -->
<g id="edge11" class="edge">
<title>node_5&#45;&gt;node_4</title>
<path fill="none" stroke="black" d="M449.72,-30.99C426.46,-30.4 400.42,-31.35 377,-35.94 366.57,-37.98 355.81,-41.29 345.58,-45.08"/>
<polygon fill="black" stroke="black" points="344,-41.94 335.96,-48.84 346.55,-48.46 344,-41.94"/>
<text text-anchor="middle" x="404.5" y="-38.94" font-family="Fira Mono Medium" font-size="10.00">not&#45;equal</text>
</g>
<!-- node_6 -->
<g id="node7" class="node">
<title>node_6</title>
<polygon fill="none" stroke="black" points="358.5,-285.94 221.5,-285.94 221.5,-241.94 358.5,-241.94 358.5,-285.94"/>
<text text-anchor="start" x="271" y="-273.34" font-family="Fira Mono Medium" font-weight="bold" font-size="12.00">human</text>
<text text-anchor="start" x="229.5" y="-261.34" font-family="Fira Mono Medium" font-style="italic" font-size="12.00">kind:</text>
<text text-anchor="start" x="267.5" y="-261.34" font-family="Fira Mono Medium" font-size="12.00"> missionary</text>
<text text-anchor="start" x="233" y="-249.34" font-family="Fira Mono Medium" font-style="italic" font-size="12.00">can&#45;drive:</text>
<text text-anchor="start" x="309" y="-249.34" font-family="Fira Mono Medium" font-size="12.00"> true</text>
</g>
<!-- node_6&#45;&gt;node_1 -->
<g id="edge14" class="edge">
<title>node_6&#45;&gt;node_1</title>
<path fill="none" stroke="black" d="M358.59,-268.06C364.81,-268.38 371.02,-268.68 377,-268.94 409.43,-270.32 417.55,-270.49 450,-270.94 511.33,-271.78 527.09,-278.12 588,-270.94 679.12,-260.19 781.65,-233.09 846.97,-213.87"/>
<polygon fill="black" stroke="black" points="848.14,-217.17 856.73,-210.97 846.15,-210.46 848.14,-217.17"/>
<text text-anchor="middle" x="612.5" y="-270.94" font-family="Fira Mono Medium" font-size="10.00">at</text>
</g>
<!-- node_7 -->
<g id="node8" class="node">
<title>node_7</title>
<polygon fill="none" stroke="black" points="587.5,-261.94 450.5,-261.94 450.5,-217.94 587.5,-217.94 587.5,-261.94"/>
<text text-anchor="start" x="500" y="-249.34" font-family="Fira Mono Medium" font-weight="bold" font-size="12.00">human</text>
<text text-anchor="start" x="458.5" y="-237.34" font-family="Fira Mono Medium" font-style="italic" font-size="12.00">kind:</text>
<text text-anchor="start" x="496.5" y="-237.34" font-family="Fira Mono Medium" font-size="12.00"> missionary</text>
<text text-anchor="start" x="462" y="-225.34" font-family="Fira Mono Medium" font-style="italic" font-size="12.00">can&#45;drive:</text>
<text text-anchor="start" x="538" y="-225.34" font-family="Fira Mono Medium" font-size="12.00"> true</text>
</g>
<!-- node_6&#45;&gt;node_7 -->
<g id="edge13" class="edge">
<title>node_6&#45;&gt;node_7</title>
<path fill="none" stroke="black" d="M358.8,-256.77C384.4,-254.06 413.73,-250.96 440.18,-248.16"/>
<polygon fill="black" stroke="black" points="440.58,-251.64 450.16,-247.11 439.84,-244.68 440.58,-251.64"/>
<text text-anchor="middle" x="404.5" y="-256.94" font-family="Fira Mono Medium" font-size="10.00">not&#45;equal</text>
</g>
<!-- node_7&#45;&gt;node_0 -->
<g id="edge16" class="edge">
<title>node_7&#45;&gt;node_0</title>
<path fill="none" stroke="black" d="M568.3,-217.93C574.92,-214.91 581.63,-211.85 588,-208.94 607.76,-199.9 629.53,-189.92 648.38,-181.27"/>
<polygon fill="black" stroke="black" points="650.03,-184.36 657.66,-177.01 647.11,-178 650.03,-184.36"/>
<text text-anchor="middle" x="612.5" y="-201.94" font-family="Fira Mono Medium" font-size="10.00">at</text>
</g>
<!-- node_7&#45;&gt;node_6 -->
<g id="edge15" class="edge">
<title>node_7&#45;&gt;node_6</title>
<path fill="none" stroke="black" d="M450.22,-231.32C426.89,-229.86 400.67,-229.93 377,-233.94 369.82,-235.15 362.44,-236.9 355.16,-238.95"/>
<polygon fill="black" stroke="black" points="353.89,-235.68 345.33,-241.92 355.92,-242.38 353.89,-235.68"/>
<text text-anchor="middle" x="404.5" y="-236.94" font-family="Fira Mono Medium" font-size="10.00">not&#45;equal</text>
</g>
</g>
</svg>
