<?xml version="1.0" encoding="UTF-8" standalone="no"?>
<!DOCTYPE svg PUBLIC "-//W3C//DTD SVG 1.1//EN"
 "http://www.w3.org/Graphics/SVG/1.1/DTD/svg11.dtd">
<!-- Generated by graphviz version 2.43.0 (0)
 -->
<!-- Title: %3 Pages: 1 -->
<svg width="824pt" height="307pt"
 viewBox="0.00 0.00 824.00 307.00" xmlns="http://www.w3.org/2000/svg" xmlns:xlink="http://www.w3.org/1999/xlink">
<g id="graph0" class="graph" transform="scale(1 1) rotate(0) translate(4 303)">
<title>%3</title>
<polygon fill="white" stroke="transparent" points="-4,4 -4,-303 820,-303 820,4 -4,4"/>
<!-- node_0 -->
<g id="node1" class="node">
<title>node_0</title>
<polygon fill="none" stroke="black" points="587,-213 465,-213 465,-177 587,-177 587,-213"/>
<text text-anchor="start" x="510.5" y="-198.4" font-family="Fira Mono Medium" font-weight="bold" font-size="12.00">bank</text>
<text text-anchor="start" x="473" y="-186.4" font-family="Fira Mono Medium" font-style="italic" font-size="12.00">location:</text>
<text text-anchor="start" x="541" y="-186.4" font-family="Fira Mono Medium" font-size="12.00"> left</text>
</g>
<!-- node_1 -->
<g id="node2" class="node">
<title>node_1</title>
<polygon fill="none" stroke="black" points="816,-189 686,-189 686,-153 816,-153 816,-189"/>
<text text-anchor="start" x="735.5" y="-174.4" font-family="Fira Mono Medium" font-weight="bold" font-size="12.00">bank</text>
<text text-anchor="start" x="694" y="-162.4" font-family="Fira Mono Medium" font-style="italic" font-size="12.00">location:</text>
<text text-anchor="start" x="762" y="-162.4" font-family="Fira Mono Medium" font-size="12.00"> right</text>
</g>
<!-- node_0&#45;&gt;node_1 -->
<g id="edge1" class="edge">
<title>node_0&#45;&gt;node_1</title>
<path fill="none" stroke="black" d="M586.75,-176.94C595.48,-174.91 604.42,-173.16 613,-172 633.27,-169.26 655.37,-168.25 675.79,-168.11"/>
<polygon fill="black" stroke="black" points="675.98,-171.61 685.99,-168.12 675.99,-164.61 675.98,-171.61"/>
<text text-anchor="middle" x="640.5" y="-175" font-family="Fira Mono Medium" font-size="10.00">not&#45;equal</text>
</g>
<!-- node_1&#45;&gt;node_0 -->
<g id="edge2" class="edge">
<title>node_1&#45;&gt;node_0</title>
<path fill="none" stroke="black" d="M685.59,-180.8C679.65,-181.59 673.72,-182.34 668,-183 645.04,-185.65 619.91,-187.98 597.3,-189.86"/>
<polygon fill="black" stroke="black" points="596.8,-186.39 587.11,-190.69 597.37,-193.36 596.8,-186.39"/>
<text text-anchor="middle" x="640.5" y="-191" font-family="Fira Mono Medium" font-size="10.00">not&#45;equal</text>
</g>
<!-- node_2 -->
<g id="node3" class="node">
<title>node_2</title>
<polygon fill="none" stroke="black" points="553,-267 499,-267 499,-231 553,-231 553,-267"/>
<text text-anchor="start" x="510.5" y="-246.9" font-family="Fira Mono Medium" font-weight="bold" font-size="12.00">boat</text>
</g>
<!-- node_2&#45;&gt;node_1 -->
<g id="edge3" class="edge">
<title>node_2&#45;&gt;node_1</title>
<path fill="none" stroke="black" d="M553.14,-240.96C581.56,-232.11 628.24,-217.23 668,-203 676.97,-199.79 686.43,-196.24 695.62,-192.72"/>
<polygon fill="black" stroke="black" points="697,-195.94 705.06,-189.07 694.47,-189.41 697,-195.94"/>
<text text-anchor="middle" x="640.5" y="-224" font-family="Fira Mono Medium" font-size="10.00">at</text>
</g>
<!-- node_3 -->
<g id="node4" class="node">
<title>node_3</title>
<polygon fill="none" stroke="black" points="362.5,-233 232.5,-233 232.5,-189 362.5,-189 362.5,-233"/>
<text text-anchor="start" x="278.5" y="-220.4" font-family="Fira Mono Medium" font-weight="bold" font-size="12.00">human</text>
<text text-anchor="start" x="244.5" y="-208.4" font-family="Fira Mono Medium" font-style="italic" font-size="12.00">kind:</text>
<text text-anchor="start" x="282.5" y="-208.4" font-family="Fira Mono Medium" font-size="12.00"> cannibal</text>
<text text-anchor="start" x="240.5" y="-196.4" font-family="Fira Mono Medium" font-style="italic" font-size="12.00">can&#45;drive:</text>
<text text-anchor="start" x="316.5" y="-196.4" font-family="Fira Mono Medium" font-size="12.00"> true</text>
</g>
<!-- node_3&#45;&gt;node_0 -->
<g id="edge6" class="edge">
<title>node_3&#45;&gt;node_0</title>
<path fill="none" stroke="black" d="M362.73,-223.01C386.76,-225.79 414.22,-226.93 439,-223 448.77,-221.45 458.94,-218.97 468.72,-216.1"/>
<polygon fill="black" stroke="black" points="469.82,-219.43 478.34,-213.13 467.76,-212.74 469.82,-219.43"/>
<text text-anchor="middle" x="411.5" y="-228" font-family="Fira Mono Medium" font-size="10.00">at</text>
</g>
<!-- node_4 -->
<g id="node5" class="node">
<title>node_4</title>
<polygon fill="none" stroke="black" points="138,-207 0,-207 0,-163 138,-163 138,-207"/>
<text text-anchor="start" x="50" y="-194.4" font-family="Fira Mono Medium" font-weight="bold" font-size="12.00">human</text>
<text text-anchor="start" x="16" y="-182.4" font-family="Fira Mono Medium" font-style="italic" font-size="12.00">kind:</text>
<text text-anchor="start" x="54" y="-182.4" font-family="Fira Mono Medium" font-size="12.00"> cannibal</text>
<text text-anchor="start" x="8" y="-170.4" font-family="Fira Mono Medium" font-style="italic" font-size="12.00">can&#45;drive:</text>
<text text-anchor="start" x="84" y="-170.4" font-family="Fira Mono Medium" font-size="12.00"> false</text>
</g>
<!-- node_3&#45;&gt;node_4 -->
<g id="edge4" class="edge">
<title>node_3&#45;&gt;node_4</title>
<path fill="none" stroke="black" d="M232.5,-190.22C225.31,-188.5 218.04,-187.03 211,-186 190.8,-183.03 168.79,-181.89 148.3,-181.71"/>
<polygon fill="black" stroke="black" points="148.07,-178.21 138.06,-181.69 148.06,-185.21 148.07,-178.21"/>
<text text-anchor="middle" x="183.5" y="-189" font-family="Fira Mono Medium" font-size="10.00">not&#45;equal</text>
</g>
<!-- node_5 -->
<g id="node6" class="node">
<title>node_5</title>
<polygon fill="none" stroke="black" points="595,-159 457,-159 457,-115 595,-115 595,-159"/>
<text text-anchor="start" x="507" y="-146.4" font-family="Fira Mono Medium" font-weight="bold" font-size="12.00">human</text>
<text text-anchor="start" x="473" y="-134.4" font-family="Fira Mono Medium" font-style="italic" font-size="12.00">kind:</text>
<text text-anchor="start" x="511" y="-134.4" font-family="Fira Mono Medium" font-size="12.00"> cannibal</text>
<text text-anchor="start" x="465" y="-122.4" font-family="Fira Mono Medium" font-style="italic" font-size="12.00">can&#45;drive:</text>
<text text-anchor="start" x="541" y="-122.4" font-family="Fira Mono Medium" font-size="12.00"> false</text>
</g>
<!-- node_3&#45;&gt;node_5 -->
<g id="edge5" class="edge">
<title>node_3&#45;&gt;node_5</title>
<path fill="none" stroke="black" d="M362.79,-210.36C387.86,-207.77 416.04,-201.81 439,-189 449.74,-183.01 447.18,-175.39 457,-168 458.59,-166.8 460.24,-165.63 461.93,-164.5"/>
<polygon fill="black" stroke="black" points="464,-167.34 470.67,-159.1 460.32,-161.38 464,-167.34"/>
<text text-anchor="middle" x="411.5" y="-210" font-family="Fira Mono Medium" font-size="10.00">not&#45;equal</text>
</g>
<!-- node_4&#45;&gt;node_1 -->
<g id="edge9" class="edge">
<title>node_4&#45;&gt;node_1</title>
<path fill="none" stroke="black" d="M118.68,-207.02C212.02,-246.26 422.27,-320.22 595,-276 646.81,-262.74 696.05,-223.15 724.62,-196.56"/>
<polygon fill="black" stroke="black" points="727.28,-198.86 732.11,-189.43 722.45,-193.78 727.28,-198.86"/>
<text text-anchor="middle" x="411.5" y="-291" font-family="Fira Mono Medium" font-size="10.00">at</text>
</g>
<!-- node_4&#45;&gt;node_3 -->
<g id="edge7" class="edge">
<title>node_4&#45;&gt;node_3</title>
<path fill="none" stroke="black" d="M138.04,-194.75C144.11,-195.54 150.16,-196.3 156,-197 177.54,-199.57 200.97,-202.04 222.42,-204.17"/>
<polygon fill="black" stroke="black" points="222.15,-207.66 232.44,-205.15 222.83,-200.69 222.15,-207.66"/>
<text text-anchor="middle" x="183.5" y="-205" font-family="Fira Mono Medium" font-size="10.00">not&#45;equal</text>
</g>
<!-- node_4&#45;&gt;node_5 -->
<g id="edge8" class="edge">
<title>node_4&#45;&gt;node_5</title>
<path fill="none" stroke="black" d="M105.87,-162.83C120.94,-154.19 138.92,-144.77 156,-138 187.17,-125.65 195.75,-123.26 229,-119 302.5,-109.59 386.91,-116.45 446.74,-124.26"/>
<polygon fill="black" stroke="black" points="446.49,-127.76 456.87,-125.62 447.42,-120.82 446.49,-127.76"/>
<text text-anchor="middle" x="297.5" y="-122" font-family="Fira Mono Medium" font-size="10.00">not&#45;equal</text>
</g>
<!-- node_5&#45;&gt;node_1 -->
<g id="edge12" class="edge">
<title>node_5&#45;&gt;node_1</title>
<path fill="none" stroke="black" d="M595.33,-143.32C618.47,-145.84 644.43,-149.09 668,-153 670.52,-153.42 673.07,-153.86 675.65,-154.33"/>
<polygon fill="black" stroke="black" points="675.19,-157.8 685.66,-156.22 676.49,-150.93 675.19,-157.8"/>
<text text-anchor="middle" x="640.5" y="-156" font-family="Fira Mono Medium" font-size="10.00">at</text>
</g>
<!-- node_5&#45;&gt;node_3 -->
<g id="edge10" class="edge">
<title>node_5&#45;&gt;node_3</title>
<path fill="none" stroke="black" d="M456.73,-154.13C433.47,-160.43 407.43,-167.99 384,-176 375.84,-178.79 367.34,-181.95 358.99,-185.2"/>
<polygon fill="black" stroke="black" points="357.67,-181.96 349.67,-188.9 360.25,-188.47 357.67,-181.96"/>
<text text-anchor="middle" x="411.5" y="-179" font-family="Fira Mono Medium" font-size="10.00">not&#45;equal</text>
</g>
<!-- node_5&#45;&gt;node_4 -->
<g id="edge11" class="edge">
<title>node_5&#45;&gt;node_4</title>
<path fill="none" stroke="black" d="M456.79,-144.2C374.12,-152.92 235.11,-167.58 148.19,-176.75"/>
<polygon fill="black" stroke="black" points="147.7,-173.28 138.12,-177.81 148.43,-180.25 147.7,-173.28"/>
<text text-anchor="middle" x="297.5" y="-171" font-family="Fira Mono Medium" font-size="10.00">not&#45;equal</text>
</g>
<!-- node_6 -->
<g id="node7" class="node">
<title>node_6</title>
<polygon fill="none" stroke="black" points="366,-69 229,-69 229,-25 366,-25 366,-69"/>
<text text-anchor="start" x="278.5" y="-56.4" font-family="Fira Mono Medium" font-weight="bold" font-size="12.00">human</text>
<text text-anchor="start" x="237" y="-44.4" font-family="Fira Mono Medium" font-style="italic" font-size="12.00">kind:</text>
<text text-anchor="start" x="275" y="-44.4" font-family="Fira Mono Medium" font-size="12.00"> missionary</text>
<text text-anchor="start" x="240.5" y="-32.4" font-family="Fira Mono Medium" font-style="italic" font-size="12.00">can&#45;drive:</text>
<text text-anchor="start" x="316.5" y="-32.4" font-family="Fira Mono Medium" font-size="12.00"> true</text>
</g>
<!-- node_6&#45;&gt;node_1 -->
<g id="edge14" class="edge">
<title>node_6&#45;&gt;node_1</title>
<path fill="none" stroke="black" d="M366.05,-52.22C427.02,-58.26 518.6,-70.68 595,-95 636.28,-108.14 680.36,-130.67 710.92,-147.8"/>
<polygon fill="black" stroke="black" points="709.52,-151.03 719.95,-152.93 712.98,-144.95 709.52,-151.03"/>
<text text-anchor="middle" x="526" y="-98" font-family="Fira Mono Medium" font-size="10.00">at</text>
</g>
<!-- node_7 -->
<g id="node8" class="node">
<title>node_7</title>
<polygon fill="none" stroke="black" points="594.5,-44 457.5,-44 457.5,0 594.5,0 594.5,-44"/>
<text text-anchor="start" x="507" y="-31.4" font-family="Fira Mono Medium" font-weight="bold" font-size="12.00">human</text>
<text text-anchor="start" x="465.5" y="-19.4" font-family="Fira Mono Medium" font-style="italic" font-size="12.00">kind:</text>
<text text-anchor="start" x="503.5" y="-19.4" font-family="Fira Mono Medium" font-size="12.00"> missionary</text>
<text text-anchor="start" x="469" y="-7.4" font-family="Fira Mono Medium" font-style="italic" font-size="12.00">can&#45;drive:</text>
<text text-anchor="start" x="545" y="-7.4" font-family="Fira Mono Medium" font-size="12.00"> true</text>
</g>
<!-- node_6&#45;&gt;node_7 -->
<g id="edge13" class="edge">
<title>node_6&#45;&gt;node_7</title>
<path fill="none" stroke="black" d="M355.33,-24.86C364.77,-22.02 374.57,-19.56 384,-18 404.35,-14.64 426.57,-13.93 447.23,-14.48"/>
<polygon fill="black" stroke="black" points="447.11,-17.98 457.23,-14.85 447.36,-10.98 447.11,-17.98"/>
<text text-anchor="middle" x="411.5" y="-21" font-family="Fira Mono Medium" font-size="10.00">not&#45;equal</text>
</g>
<!-- node_7&#45;&gt;node_1 -->
<g id="edge16" class="edge">
<title>node_7&#45;&gt;node_1</title>
<path fill="none" stroke="black" d="M594.52,-27.71C619.24,-32.29 646.42,-40.47 668,-55 700.79,-77.08 724.67,-117 737.94,-143.75"/>
<polygon fill="black" stroke="black" points="734.87,-145.45 742.35,-152.96 741.19,-142.42 734.87,-145.45"/>
<text text-anchor="middle" x="640.5" y="-58" font-family="Fira Mono Medium" font-size="10.00">at</text>
</g>
<!-- node_7&#45;&gt;node_6 -->
<g id="edge15" class="edge">
<title>node_7&#45;&gt;node_6</title>
<path fill="none" stroke="black" d="M457.31,-29.47C431.76,-32.29 402.5,-35.52 376.11,-38.43"/>
<polygon fill="black" stroke="black" points="375.71,-34.96 366.15,-39.53 376.47,-41.91 375.71,-34.96"/>
<text text-anchor="middle" x="411.5" y="-41" font-family="Fira Mono Medium" font-size="10.00">not&#45;equal</text>
</g>
</g>
</svg>
