<?xml version="1.0" encoding="UTF-8" standalone="no"?>
<!DOCTYPE svg PUBLIC "-//W3C//DTD SVG 1.1//EN"
 "http://www.w3.org/Graphics/SVG/1.1/DTD/svg11.dtd">
<!-- Generated by graphviz version 2.43.0 (0)
 -->
<!-- Title: %3 Pages: 1 -->
<svg width="988pt" height="311pt"
 viewBox="0.00 0.00 988.00 311.00" xmlns="http://www.w3.org/2000/svg" xmlns:xlink="http://www.w3.org/1999/xlink">
<g id="graph0" class="graph" transform="scale(1 1) rotate(0) translate(4 307)">
<title>%3</title>
<polygon fill="white" stroke="transparent" points="-4,4 -4,-307 984,-307 984,4 -4,4"/>
<!-- node_0 -->
<g id="node1" class="node">
<title>node_0</title>
<polygon fill="none" stroke="black" points="759,-174 637,-174 637,-138 759,-138 759,-174"/>
<text text-anchor="start" x="682.5" y="-159.4" font-family="Fira Mono Medium" font-weight="bold" font-size="12.00">bank</text>
<text text-anchor="start" x="645" y="-147.4" font-family="Fira Mono Medium" font-style="italic" font-size="12.00">location:</text>
<text text-anchor="start" x="713" y="-147.4" font-family="Fira Mono Medium" font-size="12.00"> left</text>
</g>
<!-- node_1 -->
<g id="node2" class="node">
<title>node_1</title>
<polygon fill="none" stroke="black" points="980,-208 850,-208 850,-172 980,-172 980,-208"/>
<text text-anchor="start" x="899.5" y="-193.4" font-family="Fira Mono Medium" font-weight="bold" font-size="12.00">bank</text>
<text text-anchor="start" x="858" y="-181.4" font-family="Fira Mono Medium" font-style="italic" font-size="12.00">location:</text>
<text text-anchor="start" x="926" y="-181.4" font-family="Fira Mono Medium" font-size="12.00"> right</text>
</g>
<!-- node_0&#45;&gt;node_1 -->
<g id="edge1" class="edge">
<title>node_0&#45;&gt;node_1</title>
<path fill="none" stroke="black" d="M759.18,-165.52C784.18,-169.47 813.45,-174.1 839.77,-178.26"/>
<polygon fill="black" stroke="black" points="839.28,-181.73 849.7,-179.83 840.37,-174.81 839.28,-181.73"/>
<text text-anchor="middle" x="804.5" y="-179" font-family="Fira Mono Medium" font-size="10.00">not&#45;equal</text>
</g>
<!-- node_1&#45;&gt;node_0 -->
<g id="edge2" class="edge">
<title>node_1&#45;&gt;node_0</title>
<path fill="none" stroke="black" d="M880.29,-171.98C865.85,-165.23 848.53,-158.38 832,-155 811.87,-150.88 789.67,-149.75 769.27,-150.02"/>
<polygon fill="black" stroke="black" points="769.01,-146.53 759.1,-150.27 769.18,-153.52 769.01,-146.53"/>
<text text-anchor="middle" x="804.5" y="-158" font-family="Fira Mono Medium" font-size="10.00">not&#45;equal</text>
</g>
<!-- node_2 -->
<g id="node3" class="node">
<title>node_2</title>
<polygon fill="none" stroke="black" points="546,-145 492,-145 492,-109 546,-109 546,-145"/>
<text text-anchor="start" x="503.5" y="-124.9" font-family="Fira Mono Medium" font-weight="bold" font-size="12.00">boat</text>
</g>
<!-- node_2&#45;&gt;node_0 -->
<g id="edge3" class="edge">
<title>node_2&#45;&gt;node_0</title>
<path fill="none" stroke="black" d="M546.13,-129.91C566.14,-132.27 594.38,-135.86 619,-140 621.5,-140.42 624.05,-140.86 626.62,-141.32"/>
<polygon fill="black" stroke="black" points="626.14,-144.79 636.61,-143.17 627.41,-137.91 626.14,-144.79"/>
<text text-anchor="middle" x="612.5" y="-143" font-family="Fira Mono Medium" font-size="10.00">at</text>
</g>
<!-- node_3 -->
<g id="node4" class="node">
<title>node_3</title>
<polygon fill="none" stroke="black" points="130,-207 0,-207 0,-163 130,-163 130,-207"/>
<text text-anchor="start" x="46" y="-194.4" font-family="Fira Mono Medium" font-weight="bold" font-size="12.00">human</text>
<text text-anchor="start" x="12" y="-182.4" font-family="Fira Mono Medium" font-style="italic" font-size="12.00">kind:</text>
<text text-anchor="start" x="50" y="-182.4" font-family="Fira Mono Medium" font-size="12.00"> cannibal</text>
<text text-anchor="start" x="8" y="-170.4" font-family="Fira Mono Medium" font-style="italic" font-size="12.00">can&#45;drive:</text>
<text text-anchor="start" x="84" y="-170.4" font-family="Fira Mono Medium" font-size="12.00"> true</text>
</g>
<!-- node_3&#45;&gt;node_1 -->
<g id="edge6" class="edge">
<title>node_3&#45;&gt;node_1</title>
<path fill="none" stroke="black" d="M92.19,-207.17C131.98,-238.51 211.28,-292 289,-292 289,-292 289,-292 699,-292 771.32,-292 845.26,-244.31 884.8,-214.15"/>
<polygon fill="black" stroke="black" points="886.95,-216.9 892.7,-208 882.65,-211.38 886.95,-216.9"/>
<text text-anchor="middle" x="519" y="-295" font-family="Fira Mono Medium" font-size="10.00">at</text>
</g>
<!-- node_4 -->
<g id="node5" class="node">
<title>node_4</title>
<polygon fill="none" stroke="black" points="359,-241 221,-241 221,-197 359,-197 359,-241"/>
<text text-anchor="start" x="271" y="-228.4" font-family="Fira Mono Medium" font-weight="bold" font-size="12.00">human</text>
<text text-anchor="start" x="237" y="-216.4" font-family="Fira Mono Medium" font-style="italic" font-size="12.00">kind:</text>
<text text-anchor="start" x="275" y="-216.4" font-family="Fira Mono Medium" font-size="12.00"> cannibal</text>
<text text-anchor="start" x="229" y="-204.4" font-family="Fira Mono Medium" font-style="italic" font-size="12.00">can&#45;drive:</text>
<text text-anchor="start" x="305" y="-204.4" font-family="Fira Mono Medium" font-size="12.00"> false</text>
</g>
<!-- node_3&#45;&gt;node_4 -->
<g id="edge4" class="edge">
<title>node_3&#45;&gt;node_4</title>
<path fill="none" stroke="black" d="M130.2,-194.79C155.42,-198.63 184.59,-203.08 211,-207.11"/>
<polygon fill="black" stroke="black" points="210.56,-210.58 220.98,-208.63 211.62,-203.66 210.56,-210.58"/>
<text text-anchor="middle" x="175.5" y="-208" font-family="Fira Mono Medium" font-size="10.00">not&#45;equal</text>
</g>
<!-- node_5 -->
<g id="node6" class="node">
<title>node_5</title>
<polygon fill="none" stroke="black" points="588,-207 450,-207 450,-163 588,-163 588,-207"/>
<text text-anchor="start" x="500" y="-194.4" font-family="Fira Mono Medium" font-weight="bold" font-size="12.00">human</text>
<text text-anchor="start" x="466" y="-182.4" font-family="Fira Mono Medium" font-style="italic" font-size="12.00">kind:</text>
<text text-anchor="start" x="504" y="-182.4" font-family="Fira Mono Medium" font-size="12.00"> cannibal</text>
<text text-anchor="start" x="458" y="-170.4" font-family="Fira Mono Medium" font-style="italic" font-size="12.00">can&#45;drive:</text>
<text text-anchor="start" x="534" y="-170.4" font-family="Fira Mono Medium" font-size="12.00"> false</text>
</g>
<!-- node_3&#45;&gt;node_5 -->
<g id="edge5" class="edge">
<title>node_3&#45;&gt;node_5</title>
<path fill="none" stroke="black" d="M130.39,-176.43C136.34,-175.85 142.27,-175.36 148,-175 273.97,-167.07 306.03,-165.98 432,-174 434.41,-174.15 436.85,-174.33 439.32,-174.53"/>
<polygon fill="black" stroke="black" points="439.27,-178.04 449.54,-175.45 439.89,-171.07 439.27,-178.04"/>
<text text-anchor="middle" x="290" y="-173" font-family="Fira Mono Medium" font-size="10.00">not&#45;equal</text>
</g>
<!-- node_4&#45;&gt;node_0 -->
<g id="edge9" class="edge">
<title>node_4&#45;&gt;node_0</title>
<path fill="none" stroke="black" d="M359.3,-228.04C420.39,-233.85 511.79,-236.9 588,-216 615.16,-208.55 642.93,-193.13 663.64,-179.79"/>
<polygon fill="black" stroke="black" points="665.64,-182.65 672.06,-174.22 661.79,-176.81 665.64,-182.65"/>
<text text-anchor="middle" x="519" y="-235" font-family="Fira Mono Medium" font-size="10.00">at</text>
</g>
<!-- node_4&#45;&gt;node_3 -->
<g id="edge7" class="edge">
<title>node_4&#45;&gt;node_3</title>
<path fill="none" stroke="black" d="M244.04,-196.9C231.1,-191.6 216.76,-186.69 203,-184 182.93,-180.07 160.89,-178.9 140.47,-179.07"/>
<polygon fill="black" stroke="black" points="140.2,-175.57 130.27,-179.26 140.33,-182.57 140.2,-175.57"/>
<text text-anchor="middle" x="175.5" y="-187" font-family="Fira Mono Medium" font-size="10.00">not&#45;equal</text>
</g>
<!-- node_4&#45;&gt;node_5 -->
<g id="edge8" class="edge">
<title>node_4&#45;&gt;node_5</title>
<path fill="none" stroke="black" d="M359.11,-208.8C384.58,-204.98 413.71,-200.62 440.01,-196.68"/>
<polygon fill="black" stroke="black" points="440.57,-200.14 449.94,-195.19 439.53,-193.21 440.57,-200.14"/>
<text text-anchor="middle" x="404.5" y="-209" font-family="Fira Mono Medium" font-size="10.00">not&#45;equal</text>
</g>
<!-- node_5&#45;&gt;node_0 -->
<g id="edge12" class="edge">
<title>node_5&#45;&gt;node_0</title>
<path fill="none" stroke="black" d="M588.18,-173.83C600.86,-171.75 614.13,-169.58 626.86,-167.49"/>
<polygon fill="black" stroke="black" points="627.64,-170.91 636.94,-165.84 626.51,-164 627.64,-170.91"/>
<text text-anchor="middle" x="612.5" y="-173" font-family="Fira Mono Medium" font-size="10.00">at</text>
</g>
<!-- node_5&#45;&gt;node_3 -->
<g id="edge10" class="edge">
<title>node_5&#45;&gt;node_3</title>
<path fill="none" stroke="black" d="M449.99,-169.7C443.91,-168.42 437.85,-167.17 432,-166 339.86,-147.63 314.53,-144.11 221,-153 188.11,-156.13 180.36,-160.35 148,-167 145.5,-167.51 142.96,-168.04 140.4,-168.58"/>
<polygon fill="black" stroke="black" points="139.48,-165.19 130.42,-170.69 140.93,-172.04 139.48,-165.19"/>
<text text-anchor="middle" x="290" y="-156" font-family="Fira Mono Medium" font-size="10.00">not&#45;equal</text>
</g>
<!-- node_5&#45;&gt;node_4 -->
<g id="edge11" class="edge">
<title>node_5&#45;&gt;node_4</title>
<path fill="none" stroke="black" d="M449.72,-179.05C426.46,-178.47 400.42,-179.42 377,-184 366.57,-186.04 355.81,-189.35 345.58,-193.14"/>
<polygon fill="black" stroke="black" points="344,-190 335.96,-196.9 346.55,-196.52 344,-190"/>
<text text-anchor="middle" x="404.5" y="-187" font-family="Fira Mono Medium" font-size="10.00">not&#45;equal</text>
</g>
<!-- node_6 -->
<g id="node7" class="node">
<title>node_6</title>
<polygon fill="none" stroke="black" points="358.5,-69 221.5,-69 221.5,-25 358.5,-25 358.5,-69"/>
<text text-anchor="start" x="271" y="-56.4" font-family="Fira Mono Medium" font-weight="bold" font-size="12.00">human</text>
<text text-anchor="start" x="229.5" y="-44.4" font-family="Fira Mono Medium" font-style="italic" font-size="12.00">kind:</text>
<text text-anchor="start" x="267.5" y="-44.4" font-family="Fira Mono Medium" font-size="12.00"> missionary</text>
<text text-anchor="start" x="233" y="-32.4" font-family="Fira Mono Medium" font-style="italic" font-size="12.00">can&#45;drive:</text>
<text text-anchor="start" x="309" y="-32.4" font-family="Fira Mono Medium" font-size="12.00"> true</text>
</g>
<!-- node_6&#45;&gt;node_0 -->
<g id="edge14" class="edge">
<title>node_6&#45;&gt;node_0</title>
<path fill="none" stroke="black" d="M358.56,-53.32C432.83,-60.84 547.03,-74.24 588,-89 616.1,-99.12 644.76,-117.1 665.63,-131.88"/>
<polygon fill="black" stroke="black" points="663.64,-134.76 673.79,-137.78 667.74,-129.09 663.64,-134.76"/>
<text text-anchor="middle" x="519" y="-92" font-family="Fira Mono Medium" font-size="10.00">at</text>
</g>
<!-- node_7 -->
<g id="node8" class="node">
<title>node_7</title>
<polygon fill="none" stroke="black" points="587.5,-44 450.5,-44 450.5,0 587.5,0 587.5,-44"/>
<text text-anchor="start" x="500" y="-31.4" font-family="Fira Mono Medium" font-weight="bold" font-size="12.00">human</text>
<text text-anchor="start" x="458.5" y="-19.4" font-family="Fira Mono Medium" font-style="italic" font-size="12.00">kind:</text>
<text text-anchor="start" x="496.5" y="-19.4" font-family="Fira Mono Medium" font-size="12.00"> missionary</text>
<text text-anchor="start" x="462" y="-7.4" font-family="Fira Mono Medium" font-style="italic" font-size="12.00">can&#45;drive:</text>
<text text-anchor="start" x="538" y="-7.4" font-family="Fira Mono Medium" font-size="12.00"> true</text>
</g>
<!-- node_6&#45;&gt;node_7 -->
<g id="edge13" class="edge">
<title>node_6&#45;&gt;node_7</title>
<path fill="none" stroke="black" d="M358.8,-39.53C384.4,-36.71 413.73,-33.48 440.18,-30.57"/>
<polygon fill="black" stroke="black" points="440.6,-34.05 450.16,-29.47 439.83,-27.09 440.6,-34.05"/>
<text text-anchor="middle" x="404.5" y="-41" font-family="Fira Mono Medium" font-size="10.00">not&#45;equal</text>
</g>
<!-- node_7&#45;&gt;node_0 -->
<g id="edge16" class="edge">
<title>node_7&#45;&gt;node_0</title>
<path fill="none" stroke="black" d="M587.58,-38.52C598.63,-42.87 609.55,-48.29 619,-55 646.31,-74.39 668.56,-106.1 682.21,-128.82"/>
<polygon fill="black" stroke="black" points="679.29,-130.76 687.35,-137.64 685.34,-127.24 679.29,-130.76"/>
<text text-anchor="middle" x="612.5" y="-58" font-family="Fira Mono Medium" font-size="10.00">at</text>
</g>
<!-- node_7&#45;&gt;node_6 -->
<g id="edge15" class="edge">
<title>node_7&#45;&gt;node_6</title>
<path fill="none" stroke="black" d="M450.21,-14.06C426.88,-12.78 400.67,-12.99 377,-17 369.82,-18.22 362.44,-19.97 355.16,-22.02"/>
<polygon fill="black" stroke="black" points="353.89,-18.74 345.33,-24.98 355.92,-25.45 353.89,-18.74"/>
<text text-anchor="middle" x="404.5" y="-20" font-family="Fira Mono Medium" font-size="10.00">not&#45;equal</text>
</g>
</g>
</svg>
