<?xml version="1.0" encoding="UTF-8" standalone="no"?>
<!DOCTYPE svg PUBLIC "-//W3C//DTD SVG 1.1//EN"
 "http://www.w3.org/Graphics/SVG/1.1/DTD/svg11.dtd">
<!-- Generated by graphviz version 2.43.0 (0)
 -->
<!-- Title: %3 Pages: 1 -->
<svg width="817pt" height="256pt"
 viewBox="0.00 0.00 817.00 255.90" xmlns="http://www.w3.org/2000/svg" xmlns:xlink="http://www.w3.org/1999/xlink">
<g id="graph0" class="graph" transform="scale(1 1) rotate(0) translate(4 251.9)">
<title>%3</title>
<polygon fill="white" stroke="transparent" points="-4,4 -4,-251.9 813,-251.9 813,4 -4,4"/>
<!-- node_0 -->
<g id="node1" class="node">
<title>node_0</title>
<polygon fill="none" stroke="black" points="580,-151.9 458,-151.9 458,-115.9 580,-115.9 580,-151.9"/>
<text text-anchor="start" x="503.5" y="-137.3" font-family="Fira Mono Medium" font-weight="bold" font-size="12.00">bank</text>
<text text-anchor="start" x="466" y="-125.3" font-family="Fira Mono Medium" font-style="italic" font-size="12.00">location:</text>
<text text-anchor="start" x="534" y="-125.3" font-family="Fira Mono Medium" font-size="12.00"> left</text>
</g>
<!-- node_1 -->
<g id="node2" class="node">
<title>node_1</title>
<polygon fill="none" stroke="black" points="809,-100.9 679,-100.9 679,-64.9 809,-64.9 809,-100.9"/>
<text text-anchor="start" x="728.5" y="-86.3" font-family="Fira Mono Medium" font-weight="bold" font-size="12.00">bank</text>
<text text-anchor="start" x="687" y="-74.3" font-family="Fira Mono Medium" font-style="italic" font-size="12.00">location:</text>
<text text-anchor="start" x="755" y="-74.3" font-family="Fira Mono Medium" font-size="12.00"> right</text>
</g>
<!-- node_0&#45;&gt;node_1 -->
<g id="edge1" class="edge">
<title>node_0&#45;&gt;node_1</title>
<path fill="none" stroke="black" d="M580.18,-127.01C605.37,-123.49 634.82,-118.52 661,-111.9 669.51,-109.76 678.38,-107.09 687.01,-104.25"/>
<polygon fill="black" stroke="black" points="688.28,-107.51 696.63,-100.98 686.03,-100.88 688.28,-107.51"/>
<text text-anchor="middle" x="633.5" y="-124.9" font-family="Fira Mono Medium" font-size="10.00">not&#45;equal</text>
</g>
<!-- node_1&#45;&gt;node_0 -->
<g id="edge2" class="edge">
<title>node_1&#45;&gt;node_0</title>
<path fill="none" stroke="black" d="M678.91,-86.78C655.69,-89.13 629.43,-92.89 606,-98.9 593.31,-102.16 580.01,-106.88 567.77,-111.8"/>
<polygon fill="black" stroke="black" points="566.1,-108.7 558.2,-115.77 568.78,-115.17 566.1,-108.7"/>
<text text-anchor="middle" x="633.5" y="-101.9" font-family="Fira Mono Medium" font-size="10.00">not&#45;equal</text>
</g>
<!-- node_2 -->
<g id="node3" class="node">
<title>node_2</title>
<polygon fill="none" stroke="black" points="317,-185.9 263,-185.9 263,-149.9 317,-149.9 317,-185.9"/>
<text text-anchor="start" x="274.5" y="-165.8" font-family="Fira Mono Medium" font-weight="bold" font-size="12.00">boat</text>
</g>
<!-- node_2&#45;&gt;node_0 -->
<g id="edge3" class="edge">
<title>node_2&#45;&gt;node_0</title>
<path fill="none" stroke="black" d="M317.04,-164C348.7,-159.26 403.38,-151.07 447.72,-144.43"/>
<polygon fill="black" stroke="black" points="448.51,-147.85 457.88,-142.91 447.47,-140.93 448.51,-147.85"/>
<text text-anchor="middle" x="404.5" y="-157.9" font-family="Fira Mono Medium" font-size="10.00">at</text>
</g>
<!-- node_3 -->
<g id="node4" class="node">
<title>node_3</title>
<polygon fill="none" stroke="black" points="130,-54.9 0,-54.9 0,-10.9 130,-10.9 130,-54.9"/>
<text text-anchor="start" x="46" y="-42.3" font-family="Fira Mono Medium" font-weight="bold" font-size="12.00">human</text>
<text text-anchor="start" x="12" y="-30.3" font-family="Fira Mono Medium" font-style="italic" font-size="12.00">kind:</text>
<text text-anchor="start" x="50" y="-30.3" font-family="Fira Mono Medium" font-size="12.00"> cannibal</text>
<text text-anchor="start" x="8" y="-18.3" font-family="Fira Mono Medium" font-style="italic" font-size="12.00">can&#45;drive:</text>
<text text-anchor="start" x="84" y="-18.3" font-family="Fira Mono Medium" font-size="12.00"> true</text>
</g>
<!-- node_3&#45;&gt;node_1 -->
<g id="edge6" class="edge">
<title>node_3&#45;&gt;node_1</title>
<path fill="none" stroke="black" d="M130.28,-18.4C136.24,-17.41 142.22,-16.55 148,-15.9 342.53,5.77 397.12,8.45 588,-34.9 619.45,-42.05 653.78,-52.4 682.11,-61.67"/>
<polygon fill="black" stroke="black" points="681.28,-65.08 691.87,-64.89 683.48,-58.43 681.28,-65.08"/>
<text text-anchor="middle" x="404.5" y="-8.9" font-family="Fira Mono Medium" font-size="10.00">at</text>
</g>
<!-- node_4 -->
<g id="node5" class="node">
<title>node_4</title>
<polygon fill="none" stroke="black" points="359,-121.9 221,-121.9 221,-77.9 359,-77.9 359,-121.9"/>
<text text-anchor="start" x="271" y="-109.3" font-family="Fira Mono Medium" font-weight="bold" font-size="12.00">human</text>
<text text-anchor="start" x="237" y="-97.3" font-family="Fira Mono Medium" font-style="italic" font-size="12.00">kind:</text>
<text text-anchor="start" x="275" y="-97.3" font-family="Fira Mono Medium" font-size="12.00"> cannibal</text>
<text text-anchor="start" x="229" y="-85.3" font-family="Fira Mono Medium" font-style="italic" font-size="12.00">can&#45;drive:</text>
<text text-anchor="start" x="305" y="-85.3" font-family="Fira Mono Medium" font-size="12.00"> false</text>
</g>
<!-- node_3&#45;&gt;node_4 -->
<g id="edge4" class="edge">
<title>node_3&#45;&gt;node_4</title>
<path fill="none" stroke="black" d="M130.23,-47.12C153.35,-52.68 179.51,-59.51 203,-66.9 210.03,-69.12 217.31,-71.6 224.53,-74.19"/>
<polygon fill="black" stroke="black" points="223.71,-77.61 234.3,-77.76 226.11,-71.04 223.71,-77.61"/>
<text text-anchor="middle" x="175.5" y="-69.9" font-family="Fira Mono Medium" font-size="10.00">not&#45;equal</text>
</g>
<!-- node_5 -->
<g id="node6" class="node">
<title>node_5</title>
<polygon fill="none" stroke="black" points="588,-87.9 450,-87.9 450,-43.9 588,-43.9 588,-87.9"/>
<text text-anchor="start" x="500" y="-75.3" font-family="Fira Mono Medium" font-weight="bold" font-size="12.00">human</text>
<text text-anchor="start" x="466" y="-63.3" font-family="Fira Mono Medium" font-style="italic" font-size="12.00">kind:</text>
<text text-anchor="start" x="504" y="-63.3" font-family="Fira Mono Medium" font-size="12.00"> cannibal</text>
<text text-anchor="start" x="458" y="-51.3" font-family="Fira Mono Medium" font-style="italic" font-size="12.00">can&#45;drive:</text>
<text text-anchor="start" x="534" y="-51.3" font-family="Fira Mono Medium" font-size="12.00"> false</text>
</g>
<!-- node_3&#45;&gt;node_5 -->
<g id="edge5" class="edge">
<title>node_3&#45;&gt;node_5</title>
<path fill="none" stroke="black" d="M130.23,-35.46C203.39,-38.67 326.48,-45 432,-54.9 434.56,-55.14 437.16,-55.4 439.78,-55.67"/>
<polygon fill="black" stroke="black" points="439.66,-59.18 449.98,-56.78 440.41,-52.22 439.66,-59.18"/>
<text text-anchor="middle" x="290" y="-50.9" font-family="Fira Mono Medium" font-size="10.00">not&#45;equal</text>
</g>
<!-- node_4&#45;&gt;node_0 -->
<g id="edge9" class="edge">
<title>node_4&#45;&gt;node_0</title>
<path fill="none" stroke="black" d="M359.11,-110.11C387.02,-114.29 419.32,-119.12 447.48,-123.34"/>
<polygon fill="black" stroke="black" points="447.24,-126.85 457.65,-124.87 448.28,-119.92 447.24,-126.85"/>
<text text-anchor="middle" x="404.5" y="-123.9" font-family="Fira Mono Medium" font-size="10.00">at</text>
</g>
<!-- node_4&#45;&gt;node_3 -->
<g id="edge7" class="edge">
<title>node_4&#45;&gt;node_3</title>
<path fill="none" stroke="black" d="M220.79,-94.11C197.3,-90.84 171.1,-85.77 148,-77.9 134.64,-73.35 120.9,-66.71 108.58,-59.91"/>
<polygon fill="black" stroke="black" points="110.31,-56.87 99.89,-54.96 106.85,-62.95 110.31,-56.87"/>
<text text-anchor="middle" x="175.5" y="-93.9" font-family="Fira Mono Medium" font-size="10.00">not&#45;equal</text>
</g>
<!-- node_4&#45;&gt;node_5 -->
<g id="edge8" class="edge">
<title>node_4&#45;&gt;node_5</title>
<path fill="none" stroke="black" d="M359.11,-89.7C384.58,-85.89 413.71,-81.52 440.01,-77.59"/>
<polygon fill="black" stroke="black" points="440.57,-81.04 449.94,-76.1 439.53,-74.12 440.57,-81.04"/>
<text text-anchor="middle" x="404.5" y="-89.9" font-family="Fira Mono Medium" font-size="10.00">not&#45;equal</text>
</g>
<!-- node_5&#45;&gt;node_1 -->
<g id="edge12" class="edge">
<title>node_5&#45;&gt;node_1</title>
<path fill="none" stroke="black" d="M588.27,-63.84C611.41,-63.82 637.37,-64.54 661,-66.9 663.53,-67.16 666.09,-67.45 668.67,-67.78"/>
<polygon fill="black" stroke="black" points="668.32,-71.26 678.71,-69.19 669.3,-64.33 668.32,-71.26"/>
<text text-anchor="middle" x="633.5" y="-69.9" font-family="Fira Mono Medium" font-size="10.00">at</text>
</g>
<!-- node_5&#45;&gt;node_3 -->
<g id="edge10" class="edge">
<title>node_5&#45;&gt;node_3</title>
<path fill="none" stroke="black" d="M449.86,-44.31C422,-36.54 389.26,-28.74 359,-24.9 284.91,-15.51 199.48,-19.51 140.05,-24.64"/>
<polygon fill="black" stroke="black" points="139.66,-21.16 130.01,-25.54 140.28,-28.14 139.66,-21.16"/>
<text text-anchor="middle" x="290" y="-27.9" font-family="Fira Mono Medium" font-size="10.00">not&#45;equal</text>
</g>
<!-- node_5&#45;&gt;node_4 -->
<g id="edge11" class="edge">
<title>node_5&#45;&gt;node_4</title>
<path fill="none" stroke="black" d="M449.72,-59.96C426.46,-59.37 400.42,-60.32 377,-64.9 366.57,-66.95 355.81,-70.26 345.58,-74.05"/>
<polygon fill="black" stroke="black" points="344,-70.91 335.96,-77.81 346.55,-77.43 344,-70.91"/>
<text text-anchor="middle" x="404.5" y="-67.9" font-family="Fira Mono Medium" font-size="10.00">not&#45;equal</text>
</g>
<!-- node_6 -->
<g id="node7" class="node">
<title>node_6</title>
<polygon fill="none" stroke="black" points="358.5,-247.9 221.5,-247.9 221.5,-203.9 358.5,-203.9 358.5,-247.9"/>
<text text-anchor="start" x="271" y="-235.3" font-family="Fira Mono Medium" font-weight="bold" font-size="12.00">human</text>
<text text-anchor="start" x="229.5" y="-223.3" font-family="Fira Mono Medium" font-style="italic" font-size="12.00">kind:</text>
<text text-anchor="start" x="267.5" y="-223.3" font-family="Fira Mono Medium" font-size="12.00"> missionary</text>
<text text-anchor="start" x="233" y="-211.3" font-family="Fira Mono Medium" font-style="italic" font-size="12.00">can&#45;drive:</text>
<text text-anchor="start" x="309" y="-211.3" font-family="Fira Mono Medium" font-size="12.00"> true</text>
</g>
<!-- node_6&#45;&gt;node_0 -->
<g id="edge13" class="edge">
<title>node_6&#45;&gt;node_0</title>
<path fill="none" stroke="black" d="M347.36,-203.8C373.2,-193.59 404.2,-181.24 432,-169.9 443.01,-165.42 454.78,-160.54 465.96,-155.87"/>
<polygon fill="black" stroke="black" points="467.32,-159.09 475.19,-152.01 464.62,-152.64 467.32,-159.09"/>
<text text-anchor="middle" x="404.5" y="-193.9" font-family="Fira Mono Medium" font-size="10.00">at</text>
</g>
</g>
</svg>
