<?xml version="1.0" encoding="UTF-8" standalone="no"?>
<!DOCTYPE svg PUBLIC "-//W3C//DTD SVG 1.1//EN"
 "http://www.w3.org/Graphics/SVG/1.1/DTD/svg11.dtd">
<!-- Generated by graphviz version 2.43.0 (0)
 -->
<!-- Title: %3 Pages: 1 -->
<svg width="988pt" height="336pt"
 viewBox="0.00 0.00 988.00 336.00" xmlns="http://www.w3.org/2000/svg" xmlns:xlink="http://www.w3.org/1999/xlink">
<g id="graph0" class="graph" transform="scale(1 1) rotate(0) translate(4 332)">
<title>%3</title>
<polygon fill="white" stroke="transparent" points="-4,4 -4,-332 984,-332 984,4 -4,4"/>
<!-- node_0 -->
<g id="node1" class="node">
<title>node_0</title>
<polygon fill="none" stroke="black" points="759,-155 637,-155 637,-119 759,-119 759,-155"/>
<text text-anchor="start" x="682.5" y="-140.4" font-family="Fira Mono Medium" font-weight="bold" font-size="12.00">bank</text>
<text text-anchor="start" x="645" y="-128.4" font-family="Fira Mono Medium" font-style="italic" font-size="12.00">location:</text>
<text text-anchor="start" x="713" y="-128.4" font-family="Fira Mono Medium" font-size="12.00"> left</text>
</g>
<!-- node_1 -->
<g id="node2" class="node">
<title>node_1</title>
<polygon fill="none" stroke="black" points="980,-85 850,-85 850,-49 980,-49 980,-85"/>
<text text-anchor="start" x="899.5" y="-70.4" font-family="Fira Mono Medium" font-weight="bold" font-size="12.00">bank</text>
<text text-anchor="start" x="858" y="-58.4" font-family="Fira Mono Medium" font-style="italic" font-size="12.00">location:</text>
<text text-anchor="start" x="926" y="-58.4" font-family="Fira Mono Medium" font-size="12.00"> right</text>
</g>
<!-- node_0&#45;&gt;node_1 -->
<g id="edge1" class="edge">
<title>node_0&#45;&gt;node_1</title>
<path fill="none" stroke="black" d="M759.02,-121.82C782.02,-115.61 808.39,-108.01 832,-100 841.91,-96.64 852.36,-92.73 862.36,-88.79"/>
<polygon fill="black" stroke="black" points="863.79,-91.99 871.78,-85.04 861.19,-85.49 863.79,-91.99"/>
<text text-anchor="middle" x="804.5" y="-120" font-family="Fira Mono Medium" font-size="10.00">not&#45;equal</text>
</g>
<!-- node_1&#45;&gt;node_0 -->
<g id="edge2" class="edge">
<title>node_1&#45;&gt;node_0</title>
<path fill="none" stroke="black" d="M849.78,-69.36C826.31,-71.79 799.91,-76.4 777,-85 759.71,-91.49 742.43,-102.44 728.54,-112.63"/>
<polygon fill="black" stroke="black" points="726.22,-109.99 720.36,-118.82 730.45,-115.57 726.22,-109.99"/>
<text text-anchor="middle" x="804.5" y="-88" font-family="Fira Mono Medium" font-size="10.00">not&#45;equal</text>
</g>
<!-- node_2 -->
<g id="node3" class="node">
<title>node_2</title>
<polygon fill="none" stroke="black" points="546,-328 492,-328 492,-292 546,-292 546,-328"/>
<text text-anchor="start" x="503.5" y="-307.9" font-family="Fira Mono Medium" font-weight="bold" font-size="12.00">boat</text>
</g>
<!-- node_2&#45;&gt;node_0 -->
<g id="edge3" class="edge">
<title>node_2&#45;&gt;node_0</title>
<path fill="none" stroke="black" d="M546.1,-306.63C567.68,-302.69 598.08,-294.34 619,-277 654.95,-247.2 677.29,-196.3 688.41,-164.77"/>
<polygon fill="black" stroke="black" points="691.74,-165.86 691.63,-155.27 685.11,-163.62 691.74,-165.86"/>
<text text-anchor="middle" x="612.5" y="-288" font-family="Fira Mono Medium" font-size="10.00">at</text>
</g>
<!-- node_3 -->
<g id="node4" class="node">
<title>node_3</title>
<polygon fill="none" stroke="black" points="130,-196 0,-196 0,-152 130,-152 130,-196"/>
<text text-anchor="start" x="46" y="-183.4" font-family="Fira Mono Medium" font-weight="bold" font-size="12.00">human</text>
<text text-anchor="start" x="12" y="-171.4" font-family="Fira Mono Medium" font-style="italic" font-size="12.00">kind:</text>
<text text-anchor="start" x="50" y="-171.4" font-family="Fira Mono Medium" font-size="12.00"> cannibal</text>
<text text-anchor="start" x="8" y="-159.4" font-family="Fira Mono Medium" font-style="italic" font-size="12.00">can&#45;drive:</text>
<text text-anchor="start" x="84" y="-159.4" font-family="Fira Mono Medium" font-size="12.00"> true</text>
</g>
<!-- node_3&#45;&gt;node_1 -->
<g id="edge6" class="edge">
<title>node_3&#45;&gt;node_1</title>
<path fill="none" stroke="black" d="M79.71,-151.96C110.73,-105.14 191.28,0 289,0 289,0 289,0 699,0 760.25,0 827.04,-25.09 869.66,-44.56"/>
<polygon fill="black" stroke="black" points="868.36,-47.82 878.91,-48.87 871.32,-41.47 868.36,-47.82"/>
<text text-anchor="middle" x="519" y="-3" font-family="Fira Mono Medium" font-size="10.00">at</text>
</g>
<!-- node_4 -->
<g id="node5" class="node">
<title>node_4</title>
<polygon fill="none" stroke="black" points="359,-259 221,-259 221,-215 359,-215 359,-259"/>
<text text-anchor="start" x="271" y="-246.4" font-family="Fira Mono Medium" font-weight="bold" font-size="12.00">human</text>
<text text-anchor="start" x="237" y="-234.4" font-family="Fira Mono Medium" font-style="italic" font-size="12.00">kind:</text>
<text text-anchor="start" x="275" y="-234.4" font-family="Fira Mono Medium" font-size="12.00"> cannibal</text>
<text text-anchor="start" x="229" y="-222.4" font-family="Fira Mono Medium" font-style="italic" font-size="12.00">can&#45;drive:</text>
<text text-anchor="start" x="305" y="-222.4" font-family="Fira Mono Medium" font-size="12.00"> false</text>
</g>
<!-- node_3&#45;&gt;node_4 -->
<g id="edge4" class="edge">
<title>node_3&#45;&gt;node_4</title>
<path fill="none" stroke="black" d="M99.41,-196.06C113.8,-204.55 131.17,-213.53 148,-219 167.87,-225.46 190.01,-229.62 210.75,-232.29"/>
<polygon fill="black" stroke="black" points="210.47,-235.78 220.81,-233.48 211.29,-228.83 210.47,-235.78"/>
<text text-anchor="middle" x="175.5" y="-233" font-family="Fira Mono Medium" font-size="10.00">not&#45;equal</text>
</g>
<!-- node_5 -->
<g id="node6" class="node">
<title>node_5</title>
<polygon fill="none" stroke="black" points="588,-192 450,-192 450,-148 588,-148 588,-192"/>
<text text-anchor="start" x="500" y="-179.4" font-family="Fira Mono Medium" font-weight="bold" font-size="12.00">human</text>
<text text-anchor="start" x="466" y="-167.4" font-family="Fira Mono Medium" font-style="italic" font-size="12.00">kind:</text>
<text text-anchor="start" x="504" y="-167.4" font-family="Fira Mono Medium" font-size="12.00"> cannibal</text>
<text text-anchor="start" x="458" y="-155.4" font-family="Fira Mono Medium" font-style="italic" font-size="12.00">can&#45;drive:</text>
<text text-anchor="start" x="534" y="-155.4" font-family="Fira Mono Medium" font-size="12.00"> false</text>
</g>
<!-- node_3&#45;&gt;node_5 -->
<g id="edge5" class="edge">
<title>node_3&#45;&gt;node_5</title>
<path fill="none" stroke="black" d="M130.28,-173.43C211.75,-172.71 352.1,-171.47 439.72,-170.69"/>
<polygon fill="black" stroke="black" points="439.91,-174.19 449.88,-170.6 439.85,-167.19 439.91,-174.19"/>
<text text-anchor="middle" x="290" y="-175" font-family="Fira Mono Medium" font-size="10.00">not&#45;equal</text>
</g>
<!-- node_4&#45;&gt;node_0 -->
<g id="edge9" class="edge">
<title>node_4&#45;&gt;node_0</title>
<path fill="none" stroke="black" d="M359.05,-241.32C365.12,-241.6 371.17,-241.83 377,-242 472.49,-244.77 499.79,-237.67 588,-201 614.06,-190.17 641.45,-174.06 662.26,-160.72"/>
<polygon fill="black" stroke="black" points="664.27,-163.58 670.75,-155.19 660.46,-157.71 664.27,-163.58"/>
<text text-anchor="middle" x="519" y="-244" font-family="Fira Mono Medium" font-size="10.00">at</text>
</g>
<!-- node_4&#45;&gt;node_3 -->
<g id="edge7" class="edge">
<title>node_4&#45;&gt;node_3</title>
<path fill="none" stroke="black" d="M230.55,-214.9C221.39,-211.74 211.98,-208.66 203,-206 182.77,-200.01 160.6,-194.42 140.1,-189.65"/>
<polygon fill="black" stroke="black" points="140.71,-186.2 130.18,-187.37 139.14,-193.02 140.71,-186.2"/>
<text text-anchor="middle" x="175.5" y="-209" font-family="Fira Mono Medium" font-size="10.00">not&#45;equal</text>
</g>
<!-- node_4&#45;&gt;node_5 -->
<g id="edge8" class="edge">
<title>node_4&#45;&gt;node_5</title>
<path fill="none" stroke="black" d="M359.12,-230.94C382.61,-227.66 408.82,-222.64 432,-215 445.91,-210.42 460.28,-203.76 473.21,-196.96"/>
<polygon fill="black" stroke="black" points="475.21,-199.86 482.33,-192.02 471.87,-193.7 475.21,-199.86"/>
<text text-anchor="middle" x="404.5" y="-230" font-family="Fira Mono Medium" font-size="10.00">not&#45;equal</text>
</g>
<!-- node_5&#45;&gt;node_0 -->
<g id="edge12" class="edge">
<title>node_5&#45;&gt;node_0</title>
<path fill="none" stroke="black" d="M588.18,-157.29C600.86,-154.92 614.13,-152.45 626.86,-150.08"/>
<polygon fill="black" stroke="black" points="627.75,-153.47 636.94,-148.2 626.47,-146.59 627.75,-153.47"/>
<text text-anchor="middle" x="612.5" y="-156" font-family="Fira Mono Medium" font-size="10.00">at</text>
</g>
<!-- node_5&#45;&gt;node_3 -->
<g id="edge10" class="edge">
<title>node_5&#45;&gt;node_3</title>
<path fill="none" stroke="black" d="M450,-162.69C421.87,-160.01 388.9,-157.31 359,-156 297.73,-153.31 282.23,-152.46 221,-156 194.62,-157.53 165.83,-160.5 140.31,-163.6"/>
<polygon fill="black" stroke="black" points="139.83,-160.14 130.33,-164.84 140.69,-167.08 139.83,-160.14"/>
<text text-anchor="middle" x="290" y="-159" font-family="Fira Mono Medium" font-size="10.00">not&#45;equal</text>
</g>
<!-- node_5&#45;&gt;node_4 -->
<g id="edge11" class="edge">
<title>node_5&#45;&gt;node_4</title>
<path fill="none" stroke="black" d="M449.98,-183.08C426.63,-188.2 400.47,-194.62 377,-202 368.42,-204.7 359.49,-207.89 350.78,-211.22"/>
<polygon fill="black" stroke="black" points="349.47,-207.97 341.43,-214.88 352.02,-214.49 349.47,-207.97"/>
<text text-anchor="middle" x="404.5" y="-205" font-family="Fira Mono Medium" font-size="10.00">not&#45;equal</text>
</g>
<!-- node_6 -->
<g id="node7" class="node">
<title>node_6</title>
<polygon fill="none" stroke="black" points="358.5,-91 221.5,-91 221.5,-47 358.5,-47 358.5,-91"/>
<text text-anchor="start" x="271" y="-78.4" font-family="Fira Mono Medium" font-weight="bold" font-size="12.00">human</text>
<text text-anchor="start" x="229.5" y="-66.4" font-family="Fira Mono Medium" font-style="italic" font-size="12.00">kind:</text>
<text text-anchor="start" x="267.5" y="-66.4" font-family="Fira Mono Medium" font-size="12.00"> missionary</text>
<text text-anchor="start" x="233" y="-54.4" font-family="Fira Mono Medium" font-style="italic" font-size="12.00">can&#45;drive:</text>
<text text-anchor="start" x="309" y="-54.4" font-family="Fira Mono Medium" font-size="12.00"> true</text>
</g>
<!-- node_6&#45;&gt;node_1 -->
<g id="edge14" class="edge">
<title>node_6&#45;&gt;node_1</title>
<path fill="none" stroke="black" d="M358.57,-62.98C364.8,-62.58 371.01,-62.24 377,-62 401.42,-61.01 407.56,-61.87 432,-62 576.33,-62.75 744.95,-64.76 839.63,-65.99"/>
<polygon fill="black" stroke="black" points="839.64,-69.49 849.68,-66.12 839.73,-62.49 839.64,-69.49"/>
<text text-anchor="middle" x="612.5" y="-67" font-family="Fira Mono Medium" font-size="10.00">at</text>
</g>
<!-- node_7 -->
<g id="node8" class="node">
<title>node_7</title>
<polygon fill="none" stroke="black" points="587.5,-128 450.5,-128 450.5,-84 587.5,-84 587.5,-128"/>
<text text-anchor="start" x="500" y="-115.4" font-family="Fira Mono Medium" font-weight="bold" font-size="12.00">human</text>
<text text-anchor="start" x="458.5" y="-103.4" font-family="Fira Mono Medium" font-style="italic" font-size="12.00">kind:</text>
<text text-anchor="start" x="496.5" y="-103.4" font-family="Fira Mono Medium" font-size="12.00"> missionary</text>
<text text-anchor="start" x="462" y="-91.4" font-family="Fira Mono Medium" font-style="italic" font-size="12.00">can&#45;drive:</text>
<text text-anchor="start" x="538" y="-91.4" font-family="Fira Mono Medium" font-size="12.00"> true</text>
</g>
<!-- node_6&#45;&gt;node_7 -->
<g id="edge13" class="edge">
<title>node_6&#45;&gt;node_7</title>
<path fill="none" stroke="black" d="M358.58,-80.91C364.81,-81.97 371.02,-83.01 377,-84 397.48,-87.38 419.66,-90.91 440.23,-94.12"/>
<polygon fill="black" stroke="black" points="439.77,-97.59 450.19,-95.67 440.84,-90.67 439.77,-97.59"/>
<text text-anchor="middle" x="404.5" y="-96" font-family="Fira Mono Medium" font-size="10.00">not&#45;equal</text>
</g>
<!-- node_7&#45;&gt;node_0 -->
<g id="edge16" class="edge">
<title>node_7&#45;&gt;node_0</title>
<path fill="none" stroke="black" d="M587.67,-117.85C600.46,-120.09 613.85,-122.44 626.72,-124.69"/>
<polygon fill="black" stroke="black" points="626.44,-128.2 636.89,-126.47 627.65,-121.3 626.44,-128.2"/>
<text text-anchor="middle" x="612.5" y="-126" font-family="Fira Mono Medium" font-size="10.00">at</text>
</g>
<!-- node_7&#45;&gt;node_6 -->
<g id="edge15" class="edge">
<title>node_7&#45;&gt;node_6</title>
<path fill="none" stroke="black" d="M472.57,-83.85C459.75,-78.61 445.59,-73.76 432,-71 411.69,-66.88 389.4,-65.26 368.65,-64.95"/>
<polygon fill="black" stroke="black" points="368.62,-61.45 358.61,-64.89 368.59,-68.45 368.62,-61.45"/>
<text text-anchor="middle" x="404.5" y="-74" font-family="Fira Mono Medium" font-size="10.00">not&#45;equal</text>
</g>
</g>
</svg>
