<?xml version="1.0" encoding="UTF-8" standalone="no"?>
<!DOCTYPE svg PUBLIC "-//W3C//DTD SVG 1.1//EN"
 "http://www.w3.org/Graphics/SVG/1.1/DTD/svg11.dtd">
<!-- Generated by graphviz version 2.43.0 (0)
 -->
<!-- Title: %3 Pages: 1 -->
<svg width="817pt" height="309pt"
 viewBox="0.00 0.00 817.00 309.00" xmlns="http://www.w3.org/2000/svg" xmlns:xlink="http://www.w3.org/1999/xlink">
<g id="graph0" class="graph" transform="scale(1 1) rotate(0) translate(4 305)">
<title>%3</title>
<polygon fill="white" stroke="transparent" points="-4,4 -4,-305 813,-305 813,4 -4,4"/>
<!-- node_0 -->
<g id="node1" class="node">
<title>node_0</title>
<polygon fill="none" stroke="black" points="580,-301 458,-301 458,-265 580,-265 580,-301"/>
<text text-anchor="start" x="503.5" y="-286.4" font-family="Fira Mono Medium" font-weight="bold" font-size="12.00">bank</text>
<text text-anchor="start" x="466" y="-274.4" font-family="Fira Mono Medium" font-style="italic" font-size="12.00">location:</text>
<text text-anchor="start" x="534" y="-274.4" font-family="Fira Mono Medium" font-size="12.00"> left</text>
</g>
<!-- node_1 -->
<g id="node2" class="node">
<title>node_1</title>
<polygon fill="none" stroke="black" points="809,-200 679,-200 679,-164 809,-164 809,-200"/>
<text text-anchor="start" x="728.5" y="-185.4" font-family="Fira Mono Medium" font-weight="bold" font-size="12.00">bank</text>
<text text-anchor="start" x="687" y="-173.4" font-family="Fira Mono Medium" font-style="italic" font-size="12.00">location:</text>
<text text-anchor="start" x="755" y="-173.4" font-family="Fira Mono Medium" font-size="12.00"> right</text>
</g>
<!-- node_0&#45;&gt;node_1 -->
<g id="edge1" class="edge">
<title>node_0&#45;&gt;node_1</title>
<path fill="none" stroke="black" d="M580.06,-281.66C606.05,-279.09 636.15,-273.34 661,-261 686.03,-248.58 708.42,-225.79 723.45,-207.87"/>
<polygon fill="black" stroke="black" points="726.23,-210 729.82,-200.03 720.8,-205.58 726.23,-210"/>
<text text-anchor="middle" x="633.5" y="-280" font-family="Fira Mono Medium" font-size="10.00">not&#45;equal</text>
</g>
<!-- node_1&#45;&gt;node_0 -->
<g id="edge2" class="edge">
<title>node_1&#45;&gt;node_0</title>
<path fill="none" stroke="black" d="M708.96,-200.13C694.32,-207.74 676.94,-216.55 661,-224 629.07,-238.93 620.52,-241.4 588,-255 583.26,-256.98 578.34,-259.03 573.4,-261.08"/>
<polygon fill="black" stroke="black" points="571.83,-257.94 563.92,-265 574.5,-264.41 571.83,-257.94"/>
<text text-anchor="middle" x="633.5" y="-250" font-family="Fira Mono Medium" font-size="10.00">not&#45;equal</text>
</g>
<!-- node_2 -->
<g id="node3" class="node">
<title>node_2</title>
<polygon fill="none" stroke="black" points="546,-246 492,-246 492,-210 546,-210 546,-246"/>
<text text-anchor="start" x="503.5" y="-225.9" font-family="Fira Mono Medium" font-weight="bold" font-size="12.00">boat</text>
</g>
<!-- node_2&#45;&gt;node_1 -->
<g id="edge3" class="edge">
<title>node_2&#45;&gt;node_1</title>
<path fill="none" stroke="black" d="M546.02,-222.63C575.91,-216.47 626.28,-206.08 668.6,-197.35"/>
<polygon fill="black" stroke="black" points="669.52,-200.73 678.61,-195.28 668.1,-193.88 669.52,-200.73"/>
<text text-anchor="middle" x="633.5" y="-212" font-family="Fira Mono Medium" font-size="10.00">at</text>
</g>
<!-- node_3 -->
<g id="node4" class="node">
<title>node_3</title>
<polygon fill="none" stroke="black" points="130,-105 0,-105 0,-61 130,-61 130,-105"/>
<text text-anchor="start" x="46" y="-92.4" font-family="Fira Mono Medium" font-weight="bold" font-size="12.00">human</text>
<text text-anchor="start" x="12" y="-80.4" font-family="Fira Mono Medium" font-style="italic" font-size="12.00">kind:</text>
<text text-anchor="start" x="50" y="-80.4" font-family="Fira Mono Medium" font-size="12.00"> cannibal</text>
<text text-anchor="start" x="8" y="-68.4" font-family="Fira Mono Medium" font-style="italic" font-size="12.00">can&#45;drive:</text>
<text text-anchor="start" x="84" y="-68.4" font-family="Fira Mono Medium" font-size="12.00"> true</text>
</g>
<!-- node_3&#45;&gt;node_1 -->
<g id="edge6" class="edge">
<title>node_3&#45;&gt;node_1</title>
<path fill="none" stroke="black" d="M108.51,-105.16C138.97,-119.95 181.45,-138.38 221,-148 376.91,-185.91 566.26,-187.69 668.62,-185.15"/>
<polygon fill="black" stroke="black" points="668.95,-188.64 678.86,-184.87 668.77,-181.64 668.95,-188.64"/>
<text text-anchor="middle" x="404.5" y="-182" font-family="Fira Mono Medium" font-size="10.00">at</text>
</g>
<!-- node_4 -->
<g id="node5" class="node">
<title>node_4</title>
<polygon fill="none" stroke="black" points="359,-139 221,-139 221,-95 359,-95 359,-139"/>
<text text-anchor="start" x="271" y="-126.4" font-family="Fira Mono Medium" font-weight="bold" font-size="12.00">human</text>
<text text-anchor="start" x="237" y="-114.4" font-family="Fira Mono Medium" font-style="italic" font-size="12.00">kind:</text>
<text text-anchor="start" x="275" y="-114.4" font-family="Fira Mono Medium" font-size="12.00"> cannibal</text>
<text text-anchor="start" x="229" y="-102.4" font-family="Fira Mono Medium" font-style="italic" font-size="12.00">can&#45;drive:</text>
<text text-anchor="start" x="305" y="-102.4" font-family="Fira Mono Medium" font-size="12.00"> false</text>
</g>
<!-- node_3&#45;&gt;node_4 -->
<g id="edge4" class="edge">
<title>node_3&#45;&gt;node_4</title>
<path fill="none" stroke="black" d="M130.2,-92.79C155.42,-96.63 184.59,-101.08 211,-105.11"/>
<polygon fill="black" stroke="black" points="210.56,-108.58 220.98,-106.63 211.62,-101.66 210.56,-108.58"/>
<text text-anchor="middle" x="175.5" y="-106" font-family="Fira Mono Medium" font-size="10.00">not&#45;equal</text>
</g>
<!-- node_5 -->
<g id="node6" class="node">
<title>node_5</title>
<polygon fill="none" stroke="black" points="588,-106 450,-106 450,-62 588,-62 588,-106"/>
<text text-anchor="start" x="500" y="-93.4" font-family="Fira Mono Medium" font-weight="bold" font-size="12.00">human</text>
<text text-anchor="start" x="466" y="-81.4" font-family="Fira Mono Medium" font-style="italic" font-size="12.00">kind:</text>
<text text-anchor="start" x="504" y="-81.4" font-family="Fira Mono Medium" font-size="12.00"> cannibal</text>
<text text-anchor="start" x="458" y="-69.4" font-family="Fira Mono Medium" font-style="italic" font-size="12.00">can&#45;drive:</text>
<text text-anchor="start" x="534" y="-69.4" font-family="Fira Mono Medium" font-size="12.00"> false</text>
</g>
<!-- node_3&#45;&gt;node_5 -->
<g id="edge5" class="edge">
<title>node_3&#45;&gt;node_5</title>
<path fill="none" stroke="black" d="M130.39,-74.4C136.34,-73.83 142.27,-73.35 148,-73 273.99,-65.35 306.03,-64.98 432,-73 434.41,-73.15 436.85,-73.33 439.32,-73.53"/>
<polygon fill="black" stroke="black" points="439.27,-77.04 449.54,-74.45 439.89,-70.07 439.27,-77.04"/>
<text text-anchor="middle" x="290" y="-71" font-family="Fira Mono Medium" font-size="10.00">not&#45;equal</text>
</g>
<!-- node_4&#45;&gt;node_1 -->
<g id="edge9" class="edge">
<title>node_4&#45;&gt;node_1</title>
<path fill="none" stroke="black" d="M359.33,-125.49C433.69,-134.94 556,-151.13 661,-168 663.5,-168.4 666.03,-168.81 668.59,-169.23"/>
<polygon fill="black" stroke="black" points="668.13,-172.7 678.56,-170.88 669.27,-165.79 668.13,-172.7"/>
<text text-anchor="middle" x="519" y="-158" font-family="Fira Mono Medium" font-size="10.00">at</text>
</g>
<!-- node_4&#45;&gt;node_3 -->
<g id="edge7" class="edge">
<title>node_4&#45;&gt;node_3</title>
<path fill="none" stroke="black" d="M244.04,-94.9C231.1,-89.6 216.76,-84.69 203,-82 182.93,-78.07 160.89,-76.9 140.47,-77.07"/>
<polygon fill="black" stroke="black" points="140.2,-73.57 130.27,-77.26 140.33,-80.57 140.2,-73.57"/>
<text text-anchor="middle" x="175.5" y="-85" font-family="Fira Mono Medium" font-size="10.00">not&#45;equal</text>
</g>
<!-- node_4&#45;&gt;node_5 -->
<g id="edge8" class="edge">
<title>node_4&#45;&gt;node_5</title>
<path fill="none" stroke="black" d="M359.11,-107.1C384.58,-103.4 413.71,-99.16 440.01,-95.34"/>
<polygon fill="black" stroke="black" points="440.55,-98.8 449.94,-93.89 439.54,-91.87 440.55,-98.8"/>
<text text-anchor="middle" x="404.5" y="-107" font-family="Fira Mono Medium" font-size="10.00">not&#45;equal</text>
</g>
<!-- node_5&#45;&gt;node_1 -->
<g id="edge12" class="edge">
<title>node_5&#45;&gt;node_1</title>
<path fill="none" stroke="black" d="M588,-94.3C611.85,-99.47 638.32,-107.05 661,-118 681.64,-127.96 701.96,-143.77 717.21,-157.18"/>
<polygon fill="black" stroke="black" points="714.93,-159.84 724.7,-163.93 719.62,-154.64 714.93,-159.84"/>
<text text-anchor="middle" x="633.5" y="-121" font-family="Fira Mono Medium" font-size="10.00">at</text>
</g>
<!-- node_5&#45;&gt;node_3 -->
<g id="edge10" class="edge">
<title>node_5&#45;&gt;node_3</title>
<path fill="none" stroke="black" d="M449.99,-68.7C443.91,-67.42 437.85,-66.17 432,-65 339.86,-46.63 314.59,-43.73 221,-52 188.17,-54.9 180.32,-58.58 148,-65 145.5,-65.5 142.96,-66.01 140.39,-66.54"/>
<polygon fill="black" stroke="black" points="139.49,-63.15 130.41,-68.61 140.91,-70 139.49,-63.15"/>
<text text-anchor="middle" x="290" y="-55" font-family="Fira Mono Medium" font-size="10.00">not&#45;equal</text>
</g>
<!-- node_5&#45;&gt;node_4 -->
<g id="edge11" class="edge">
<title>node_5&#45;&gt;node_4</title>
<path fill="none" stroke="black" d="M449.72,-77.38C426.46,-76.61 400.43,-77.42 377,-82 366.57,-84.04 355.81,-87.35 345.58,-91.14"/>
<polygon fill="black" stroke="black" points="344,-88 335.96,-94.9 346.55,-94.52 344,-88"/>
<text text-anchor="middle" x="404.5" y="-85" font-family="Fira Mono Medium" font-size="10.00">not&#45;equal</text>
</g>
<!-- node_6 -->
<g id="node7" class="node">
<title>node_6</title>
<polygon fill="none" stroke="black" points="587.5,-44 450.5,-44 450.5,0 587.5,0 587.5,-44"/>
<text text-anchor="start" x="500" y="-31.4" font-family="Fira Mono Medium" font-weight="bold" font-size="12.00">human</text>
<text text-anchor="start" x="458.5" y="-19.4" font-family="Fira Mono Medium" font-style="italic" font-size="12.00">kind:</text>
<text text-anchor="start" x="496.5" y="-19.4" font-family="Fira Mono Medium" font-size="12.00"> missionary</text>
<text text-anchor="start" x="462" y="-7.4" font-family="Fira Mono Medium" font-style="italic" font-size="12.00">can&#45;drive:</text>
<text text-anchor="start" x="538" y="-7.4" font-family="Fira Mono Medium" font-size="12.00"> true</text>
</g>
<!-- node_6&#45;&gt;node_1 -->
<g id="edge13" class="edge">
<title>node_6&#45;&gt;node_1</title>
<path fill="none" stroke="black" d="M586.93,-44.1C611.59,-54.06 638.87,-67.38 661,-84 687.5,-103.91 711,-133.96 725.98,-155.53"/>
<polygon fill="black" stroke="black" points="723.15,-157.61 731.66,-163.92 728.95,-153.68 723.15,-157.61"/>
<text text-anchor="middle" x="633.5" y="-87" font-family="Fira Mono Medium" font-size="10.00">at</text>
</g>
</g>
</svg>
