<?xml version="1.0" encoding="UTF-8" standalone="no"?>
<!DOCTYPE svg PUBLIC "-//W3C//DTD SVG 1.1//EN"
 "http://www.w3.org/Graphics/SVG/1.1/DTD/svg11.dtd">
<!-- Generated by graphviz version 2.43.0 (0)
 -->
<!-- Title: %3 Pages: 1 -->
<svg width="1052pt" height="424pt"
 viewBox="0.00 0.00 1052.00 424.32" xmlns="http://www.w3.org/2000/svg" xmlns:xlink="http://www.w3.org/1999/xlink">
<g id="graph0" class="graph" transform="scale(1 1) rotate(0) translate(4 420.32)">
<title>%3</title>
<polygon fill="white" stroke="transparent" points="-4,4 -4,-420.32 1048,-420.32 1048,4 -4,4"/>
<!-- node_0 -->
<g id="node1" class="node">
<title>node_0</title>
<polygon fill="none" stroke="black" points="815,-154.32 693,-154.32 693,-118.32 815,-118.32 815,-154.32"/>
<text text-anchor="start" x="738.5" y="-139.72" font-family="Fira Mono Medium" font-weight="bold" font-size="12.00">bank</text>
<text text-anchor="start" x="701" y="-127.72" font-family="Fira Mono Medium" font-style="italic" font-size="12.00">location:</text>
<text text-anchor="start" x="769" y="-127.72" font-family="Fira Mono Medium" font-size="12.00"> left</text>
</g>
<!-- node_1 -->
<g id="node2" class="node">
<title>node_1</title>
<polygon fill="none" stroke="black" points="1044,-309.32 914,-309.32 914,-273.32 1044,-273.32 1044,-309.32"/>
<text text-anchor="start" x="963.5" y="-294.72" font-family="Fira Mono Medium" font-weight="bold" font-size="12.00">bank</text>
<text text-anchor="start" x="922" y="-282.72" font-family="Fira Mono Medium" font-style="italic" font-size="12.00">location:</text>
<text text-anchor="start" x="990" y="-282.72" font-family="Fira Mono Medium" font-size="12.00"> right</text>
</g>
<!-- node_0&#45;&gt;node_1 -->
<g id="edge1" class="edge">
<title>node_0&#45;&gt;node_1</title>
<path fill="none" stroke="black" d="M781.02,-154.4C821.28,-182.39 898.7,-236.2 943.56,-267.38"/>
<polygon fill="black" stroke="black" points="941.59,-270.28 951.8,-273.11 945.59,-264.53 941.59,-270.28"/>
<text text-anchor="middle" x="868.5" y="-234.32" font-family="Fira Mono Medium" font-size="10.00">not&#45;equal</text>
</g>
<!-- node_1&#45;&gt;node_0 -->
<g id="edge2" class="edge">
<title>node_1&#45;&gt;node_0</title>
<path fill="none" stroke="black" d="M968.56,-273.13C955.37,-249.43 929.27,-208.2 896,-184.32 875.04,-169.28 849.01,-158.67 825.04,-151.33"/>
<polygon fill="black" stroke="black" points="825.84,-147.92 815.26,-148.47 823.88,-154.64 825.84,-147.92"/>
<text text-anchor="middle" x="868.5" y="-187.32" font-family="Fira Mono Medium" font-size="10.00">not&#45;equal</text>
</g>
<!-- node_2 -->
<g id="node3" class="node">
<title>node_2</title>
<polygon fill="none" stroke="black" points="781,-416.32 727,-416.32 727,-380.32 781,-380.32 781,-416.32"/>
<text text-anchor="start" x="738.5" y="-396.22" font-family="Fira Mono Medium" font-weight="bold" font-size="12.00">boat</text>
</g>
<!-- node_2&#45;&gt;node_1 -->
<g id="edge3" class="edge">
<title>node_2&#45;&gt;node_1</title>
<path fill="none" stroke="black" d="M781.07,-396.43C810.46,-393.4 858.97,-385.69 896,-366.32 919.36,-354.1 941.14,-333.56 956.38,-317.06"/>
<polygon fill="black" stroke="black" points="959.23,-319.12 963.31,-309.34 954.03,-314.44 959.23,-319.12"/>
<text text-anchor="middle" x="868.5" y="-388.32" font-family="Fira Mono Medium" font-size="10.00">at</text>
</g>
<!-- node_3 -->
<g id="node4" class="node">
<title>node_3</title>
<polygon fill="none" stroke="black" points="361.5,-284.32 231.5,-284.32 231.5,-240.32 361.5,-240.32 361.5,-284.32"/>
<text text-anchor="start" x="277.5" y="-271.72" font-family="Fira Mono Medium" font-weight="bold" font-size="12.00">human</text>
<text text-anchor="start" x="243.5" y="-259.72" font-family="Fira Mono Medium" font-style="italic" font-size="12.00">kind:</text>
<text text-anchor="start" x="281.5" y="-259.72" font-family="Fira Mono Medium" font-size="12.00"> cannibal</text>
<text text-anchor="start" x="239.5" y="-247.72" font-family="Fira Mono Medium" font-style="italic" font-size="12.00">can&#45;drive:</text>
<text text-anchor="start" x="315.5" y="-247.72" font-family="Fira Mono Medium" font-size="12.00"> true</text>
</g>
<!-- node_3&#45;&gt;node_1 -->
<g id="edge6" class="edge">
<title>node_3&#45;&gt;node_1</title>
<path fill="none" stroke="black" d="M344.85,-284.43C375.73,-297.57 417.35,-312.88 456,-319.32 613.9,-345.61 802.01,-322.38 903.74,-305.39"/>
<polygon fill="black" stroke="black" points="904.34,-308.84 913.62,-303.72 903.17,-301.94 904.34,-308.84"/>
<text text-anchor="middle" x="639.5" y="-333.32" font-family="Fira Mono Medium" font-size="10.00">at</text>
</g>
<!-- node_4 -->
<g id="node5" class="node">
<title>node_4</title>
<polygon fill="none" stroke="black" points="594,-310.32 456,-310.32 456,-266.32 594,-266.32 594,-310.32"/>
<text text-anchor="start" x="506" y="-297.72" font-family="Fira Mono Medium" font-weight="bold" font-size="12.00">human</text>
<text text-anchor="start" x="472" y="-285.72" font-family="Fira Mono Medium" font-style="italic" font-size="12.00">kind:</text>
<text text-anchor="start" x="510" y="-285.72" font-family="Fira Mono Medium" font-size="12.00"> cannibal</text>
<text text-anchor="start" x="464" y="-273.72" font-family="Fira Mono Medium" font-style="italic" font-size="12.00">can&#45;drive:</text>
<text text-anchor="start" x="540" y="-273.72" font-family="Fira Mono Medium" font-size="12.00"> false</text>
</g>
<!-- node_3&#45;&gt;node_4 -->
<g id="edge4" class="edge">
<title>node_3&#45;&gt;node_4</title>
<path fill="none" stroke="black" d="M361.89,-271.64C369.01,-272.59 376.15,-273.5 383,-274.32 403.27,-276.75 425.21,-279.07 445.61,-281.11"/>
<polygon fill="black" stroke="black" points="445.51,-284.61 455.81,-282.11 446.2,-277.65 445.51,-284.61"/>
<text text-anchor="middle" x="410.5" y="-282.32" font-family="Fira Mono Medium" font-size="10.00">not&#45;equal</text>
</g>
<!-- node_5 -->
<g id="node6" class="node">
<title>node_5</title>
<polygon fill="none" stroke="black" points="823,-276.32 685,-276.32 685,-232.32 823,-232.32 823,-276.32"/>
<text text-anchor="start" x="735" y="-263.72" font-family="Fira Mono Medium" font-weight="bold" font-size="12.00">human</text>
<text text-anchor="start" x="701" y="-251.72" font-family="Fira Mono Medium" font-style="italic" font-size="12.00">kind:</text>
<text text-anchor="start" x="739" y="-251.72" font-family="Fira Mono Medium" font-size="12.00"> cannibal</text>
<text text-anchor="start" x="693" y="-239.72" font-family="Fira Mono Medium" font-style="italic" font-size="12.00">can&#45;drive:</text>
<text text-anchor="start" x="769" y="-239.72" font-family="Fira Mono Medium" font-size="12.00"> false</text>
</g>
<!-- node_3&#45;&gt;node_5 -->
<g id="edge5" class="edge">
<title>node_3&#45;&gt;node_5</title>
<path fill="none" stroke="black" d="M361.61,-254.56C435.32,-246.66 559.95,-236.5 667,-243.32 669.41,-243.47 671.85,-243.65 674.32,-243.85"/>
<polygon fill="black" stroke="black" points="674.27,-247.36 684.54,-244.77 674.89,-240.39 674.27,-247.36"/>
<text text-anchor="middle" x="525" y="-248.32" font-family="Fira Mono Medium" font-size="10.00">not&#45;equal</text>
</g>
<!-- node_4&#45;&gt;node_1 -->
<g id="edge9" class="edge">
<title>node_4&#45;&gt;node_1</title>
<path fill="none" stroke="black" d="M594.07,-290.02C600.13,-290.14 606.18,-290.24 612,-290.32 713.04,-291.72 829.77,-291.76 903.72,-291.6"/>
<polygon fill="black" stroke="black" points="903.87,-295.1 913.86,-291.57 903.86,-288.1 903.87,-295.1"/>
<text text-anchor="middle" x="754" y="-294.32" font-family="Fira Mono Medium" font-size="10.00">at</text>
</g>
<!-- node_4&#45;&gt;node_3 -->
<g id="edge7" class="edge">
<title>node_4&#45;&gt;node_3</title>
<path fill="none" stroke="black" d="M461.58,-266.31C453.73,-264.26 445.73,-262.51 438,-261.32 416.66,-258.05 393.29,-257.16 371.84,-257.39"/>
<polygon fill="black" stroke="black" points="371.74,-253.9 361.81,-257.59 371.87,-260.89 371.74,-253.9"/>
<text text-anchor="middle" x="410.5" y="-264.32" font-family="Fira Mono Medium" font-size="10.00">not&#45;equal</text>
</g>
<!-- node_4&#45;&gt;node_5 -->
<g id="edge8" class="edge">
<title>node_4&#45;&gt;node_5</title>
<path fill="none" stroke="black" d="M594.11,-278.12C619.58,-274.3 648.71,-269.94 675.01,-266"/>
<polygon fill="black" stroke="black" points="675.57,-269.46 684.94,-264.51 674.53,-262.53 675.57,-269.46"/>
<text text-anchor="middle" x="639.5" y="-278.32" font-family="Fira Mono Medium" font-size="10.00">not&#45;equal</text>
</g>
<!-- node_5&#45;&gt;node_1 -->
<g id="edge12" class="edge">
<title>node_5&#45;&gt;node_1</title>
<path fill="none" stroke="black" d="M823.12,-265.62C848.56,-269.84 877.57,-274.66 903.56,-278.97"/>
<polygon fill="black" stroke="black" points="903.29,-282.47 913.73,-280.66 904.44,-275.57 903.29,-282.47"/>
<text text-anchor="middle" x="868.5" y="-279.32" font-family="Fira Mono Medium" font-size="10.00">at</text>
</g>
<!-- node_5&#45;&gt;node_3 -->
<g id="edge10" class="edge">
<title>node_5&#45;&gt;node_3</title>
<path fill="none" stroke="black" d="M684.53,-239.62C678.61,-238.46 672.71,-237.35 667,-236.32 574.58,-219.7 549.29,-214.58 456,-225.32 428.12,-228.53 398.02,-234.82 371.61,-241.31"/>
<polygon fill="black" stroke="black" points="370.53,-237.98 361.69,-243.81 372.24,-244.76 370.53,-237.98"/>
<text text-anchor="middle" x="525" y="-228.32" font-family="Fira Mono Medium" font-size="10.00">not&#45;equal</text>
</g>
<!-- node_5&#45;&gt;node_4 -->
<g id="edge11" class="edge">
<title>node_5&#45;&gt;node_4</title>
<path fill="none" stroke="black" d="M684.72,-248.37C661.46,-247.79 635.42,-248.74 612,-253.32 601.57,-255.36 590.81,-258.67 580.58,-262.46"/>
<polygon fill="black" stroke="black" points="579,-259.32 570.96,-266.22 581.55,-265.84 579,-259.32"/>
<text text-anchor="middle" x="639.5" y="-256.32" font-family="Fira Mono Medium" font-size="10.00">not&#45;equal</text>
</g>
<!-- node_6 -->
<g id="node7" class="node">
<title>node_6</title>
<polygon fill="none" stroke="black" points="137,-59.32 0,-59.32 0,-15.32 137,-15.32 137,-59.32"/>
<text text-anchor="start" x="49.5" y="-46.72" font-family="Fira Mono Medium" font-weight="bold" font-size="12.00">human</text>
<text text-anchor="start" x="8" y="-34.72" font-family="Fira Mono Medium" font-style="italic" font-size="12.00">kind:</text>
<text text-anchor="start" x="46" y="-34.72" font-family="Fira Mono Medium" font-size="12.00"> missionary</text>
<text text-anchor="start" x="11.5" y="-22.72" font-family="Fira Mono Medium" font-style="italic" font-size="12.00">can&#45;drive:</text>
<text text-anchor="start" x="87.5" y="-22.72" font-family="Fira Mono Medium" font-size="12.00"> true</text>
</g>
<!-- node_6&#45;&gt;node_0 -->
<g id="edge15" class="edge">
<title>node_6&#45;&gt;node_0</title>
<path fill="none" stroke="black" d="M112.68,-59.35C143.88,-74.17 187.49,-92.71 228,-102.32 387.38,-140.11 581.11,-141.64 682.84,-139.17"/>
<polygon fill="black" stroke="black" points="683.09,-142.66 692.99,-138.9 682.9,-135.66 683.09,-142.66"/>
<text text-anchor="middle" x="410.5" y="-135.32" font-family="Fira Mono Medium" font-size="10.00">at</text>
</g>
<!-- node_7 -->
<g id="node8" class="node">
<title>node_7</title>
<polygon fill="none" stroke="black" points="365,-93.32 228,-93.32 228,-49.32 365,-49.32 365,-93.32"/>
<text text-anchor="start" x="277.5" y="-80.72" font-family="Fira Mono Medium" font-weight="bold" font-size="12.00">human</text>
<text text-anchor="start" x="236" y="-68.72" font-family="Fira Mono Medium" font-style="italic" font-size="12.00">kind:</text>
<text text-anchor="start" x="274" y="-68.72" font-family="Fira Mono Medium" font-size="12.00"> missionary</text>
<text text-anchor="start" x="239.5" y="-56.72" font-family="Fira Mono Medium" font-style="italic" font-size="12.00">can&#45;drive:</text>
<text text-anchor="start" x="315.5" y="-56.72" font-family="Fira Mono Medium" font-size="12.00"> true</text>
</g>
<!-- node_6&#45;&gt;node_7 -->
<g id="edge13" class="edge">
<title>node_6&#45;&gt;node_7</title>
<path fill="none" stroke="black" d="M137,-47.48C162.49,-51.31 191.69,-55.7 218.02,-59.66"/>
<polygon fill="black" stroke="black" points="217.55,-63.13 227.96,-61.16 218.59,-56.21 217.55,-63.13"/>
<text text-anchor="middle" x="182.5" y="-61.32" font-family="Fira Mono Medium" font-size="10.00">not&#45;equal</text>
</g>
<!-- node_8 -->
<g id="node9" class="node">
<title>node_8</title>
<polygon fill="none" stroke="black" points="593.5,-59.32 456.5,-59.32 456.5,-15.32 593.5,-15.32 593.5,-59.32"/>
<text text-anchor="start" x="506" y="-46.72" font-family="Fira Mono Medium" font-weight="bold" font-size="12.00">human</text>
<text text-anchor="start" x="464.5" y="-34.72" font-family="Fira Mono Medium" font-style="italic" font-size="12.00">kind:</text>
<text text-anchor="start" x="502.5" y="-34.72" font-family="Fira Mono Medium" font-size="12.00"> missionary</text>
<text text-anchor="start" x="468" y="-22.72" font-family="Fira Mono Medium" font-style="italic" font-size="12.00">can&#45;drive:</text>
<text text-anchor="start" x="544" y="-22.72" font-family="Fira Mono Medium" font-size="12.00"> true</text>
</g>
<!-- node_6&#45;&gt;node_8 -->
<g id="edge14" class="edge">
<title>node_6&#45;&gt;node_8</title>
<path fill="none" stroke="black" d="M137.1,-27.81C143.14,-27.21 149.18,-26.69 155,-26.32 280.52,-18.28 312.48,-18.32 438,-26.32 440.72,-26.49 443.49,-26.7 446.28,-26.93"/>
<polygon fill="black" stroke="black" points="446.2,-30.43 456.48,-27.86 446.84,-23.46 446.2,-30.43"/>
<text text-anchor="middle" x="296.5" y="-24.32" font-family="Fira Mono Medium" font-size="10.00">not&#45;equal</text>
</g>
<!-- node_7&#45;&gt;node_0 -->
<g id="edge18" class="edge">
<title>node_7&#45;&gt;node_0</title>
<path fill="none" stroke="black" d="M365.03,-79.89C439.2,-89.47 561.76,-105.83 667,-122.32 672.1,-123.12 677.37,-123.95 682.67,-124.8"/>
<polygon fill="black" stroke="black" points="682.44,-128.31 692.87,-126.44 683.55,-121.4 682.44,-128.31"/>
<text text-anchor="middle" x="525" y="-113.32" font-family="Fira Mono Medium" font-size="10.00">at</text>
</g>
<!-- node_7&#45;&gt;node_6 -->
<g id="edge16" class="edge">
<title>node_7&#45;&gt;node_6</title>
<path fill="none" stroke="black" d="M250.81,-49.22C237.95,-43.92 223.69,-39.01 210,-36.32 189.93,-32.37 167.94,-31.12 147.44,-31.21"/>
<polygon fill="black" stroke="black" points="147.14,-27.72 137.19,-31.37 147.24,-34.72 147.14,-27.72"/>
<text text-anchor="middle" x="182.5" y="-39.32" font-family="Fira Mono Medium" font-size="10.00">not&#45;equal</text>
</g>
<!-- node_7&#45;&gt;node_8 -->
<g id="edge17" class="edge">
<title>node_7&#45;&gt;node_8</title>
<path fill="none" stroke="black" d="M365.15,-61.16C390.7,-57.33 419.96,-52.94 446.35,-48.98"/>
<polygon fill="black" stroke="black" points="446.94,-52.43 456.31,-47.48 445.9,-45.5 446.94,-52.43"/>
<text text-anchor="middle" x="410.5" y="-61.32" font-family="Fira Mono Medium" font-size="10.00">not&#45;equal</text>
</g>
<!-- node_8&#45;&gt;node_0 -->
<g id="edge21" class="edge">
<title>node_8&#45;&gt;node_0</title>
<path fill="none" stroke="black" d="M593.5,-48.38C617.43,-53.77 644.08,-61.49 667,-72.32 688.21,-82.34 709.38,-98.01 725.41,-111.33"/>
<polygon fill="black" stroke="black" points="723.41,-114.23 733.29,-118.04 727.95,-108.9 723.41,-114.23"/>
<text text-anchor="middle" x="639.5" y="-75.32" font-family="Fira Mono Medium" font-size="10.00">at</text>
</g>
<!-- node_8&#45;&gt;node_6 -->
<g id="edge19" class="edge">
<title>node_8&#45;&gt;node_6</title>
<path fill="none" stroke="black" d="M456.44,-22.21C450.21,-20.87 443.99,-19.56 438,-18.32 405.65,-11.64 397.89,-7.45 365,-4.32 304.38,1.44 288.62,1.44 228,-4.32 195.11,-7.45 187.35,-11.62 155,-18.32 152.37,-18.86 149.69,-19.42 146.99,-20"/>
<polygon fill="black" stroke="black" points="146.18,-16.59 137.13,-22.1 147.64,-23.43 146.18,-16.59"/>
<text text-anchor="middle" x="296.5" y="-7.32" font-family="Fira Mono Medium" font-size="10.00">not&#45;equal</text>
</g>
<!-- node_8&#45;&gt;node_7 -->
<g id="edge20" class="edge">
<title>node_8&#45;&gt;node_7</title>
<path fill="none" stroke="black" d="M456.43,-31.36C432.99,-30.74 406.66,-31.66 383,-36.32 372.62,-38.36 361.92,-41.67 351.75,-45.46"/>
<polygon fill="black" stroke="black" points="350.21,-42.31 342.19,-49.22 352.77,-48.82 350.21,-42.31"/>
<text text-anchor="middle" x="410.5" y="-39.32" font-family="Fira Mono Medium" font-size="10.00">not&#45;equal</text>
</g>
</g>
</svg>
