<?xml version="1.0" encoding="UTF-8" standalone="no"?>
<!DOCTYPE svg PUBLIC "-//W3C//DTD SVG 1.1//EN"
 "http://www.w3.org/Graphics/SVG/1.1/DTD/svg11.dtd">
<!-- Generated by graphviz version 2.43.0 (0)
 -->
<!-- Title: %3 Pages: 1 -->
<svg width="366pt" height="260pt"
 viewBox="0.00 0.00 366.00 260.00" xmlns="http://www.w3.org/2000/svg" xmlns:xlink="http://www.w3.org/1999/xlink">
<g id="graph0" class="graph" transform="scale(1 1) rotate(0) translate(4 256)">
<title>%3</title>
<polygon fill="white" stroke="transparent" points="-4,4 -4,-256 362,-256 362,4 -4,4"/>
<!-- node_0 -->
<g id="node1" class="node">
<title>node_0</title>
<polygon fill="none" stroke="black" points="115,-144 0,-144 0,-108 115,-108 115,-144"/>
<text text-anchor="start" x="34.5" y="-129.4" font-family="Fira Mono Medium" font-weight="bold" font-size="12.00">family</text>
<text text-anchor="start" x="8" y="-117.4" font-family="Fira Mono Medium" font-style="italic" font-size="12.00">name:</text>
<text text-anchor="start" x="46" y="-117.4" font-family="Fira Mono Medium" font-size="12.00"> Simpson</text>
</g>
<!-- node_1 -->
<g id="node2" class="node">
<title>node_1</title>
<polygon fill="none" stroke="black" points="350.5,-252 213.5,-252 213.5,-216 350.5,-216 350.5,-252"/>
<text text-anchor="start" x="233" y="-237.4" font-family="Fira Mono Medium" font-weight="bold" font-size="12.00">family&#45;member</text>
<text text-anchor="start" x="221.5" y="-225.4" font-family="Fira Mono Medium" font-style="italic" font-size="12.00">given&#45;name:</text>
<text text-anchor="start" x="304.5" y="-225.4" font-family="Fira Mono Medium" font-size="12.00"> Lisa</text>
</g>
<!-- node_0&#45;&gt;node_1 -->
<g id="edge1" class="edge">
<title>node_0&#45;&gt;node_1</title>
<path fill="none" stroke="black" d="M87.18,-144.1C100.89,-152.56 117.62,-162.58 133,-171 164.73,-188.37 172.71,-192.85 206,-207 210.12,-208.75 214.4,-210.49 218.73,-212.2"/>
<polygon fill="black" stroke="black" points="217.67,-215.54 228.26,-215.86 220.18,-209 217.67,-215.54"/>
<text text-anchor="middle" x="160.5" y="-201" font-family="Fira Mono Medium" font-size="10.00">daughters</text>
</g>
<!-- node_2 -->
<g id="node3" class="node">
<title>node_2</title>
<polygon fill="none" stroke="black" points="358,-198 206,-198 206,-162 358,-162 358,-198"/>
<text text-anchor="start" x="233" y="-183.4" font-family="Fira Mono Medium" font-weight="bold" font-size="12.00">family&#45;member</text>
<text text-anchor="start" x="214" y="-171.4" font-family="Fira Mono Medium" font-style="italic" font-size="12.00">given&#45;name:</text>
<text text-anchor="start" x="297" y="-171.4" font-family="Fira Mono Medium" font-size="12.00"> Maggie</text>
</g>
<!-- node_0&#45;&gt;node_2 -->
<g id="edge2" class="edge">
<title>node_0&#45;&gt;node_2</title>
<path fill="none" stroke="black" d="M115.22,-139.77C139.99,-145.78 169.55,-152.95 196.8,-159.57"/>
<polygon fill="black" stroke="black" points="196.18,-163.02 206.73,-161.97 197.83,-156.21 196.18,-163.02"/>
<text text-anchor="middle" x="160.5" y="-159" font-family="Fira Mono Medium" font-size="10.00">daughters</text>
</g>
<!-- node_3 -->
<g id="node4" class="node">
<title>node_3</title>
<polygon fill="none" stroke="black" points="354.5,-144 209.5,-144 209.5,-108 354.5,-108 354.5,-144"/>
<text text-anchor="start" x="233" y="-129.4" font-family="Fira Mono Medium" font-weight="bold" font-size="12.00">family&#45;member</text>
<text text-anchor="start" x="217.5" y="-117.4" font-family="Fira Mono Medium" font-style="italic" font-size="12.00">given&#45;name:</text>
<text text-anchor="start" x="300.5" y="-117.4" font-family="Fira Mono Medium" font-size="12.00"> Homer</text>
</g>
<!-- node_0&#45;&gt;node_3 -->
<g id="edge3" class="edge">
<title>node_0&#45;&gt;node_3</title>
<path fill="none" stroke="black" d="M115.22,-126C140.68,-126 171.2,-126 199.07,-126"/>
<polygon fill="black" stroke="black" points="199.2,-129.5 209.2,-126 199.2,-122.5 199.2,-129.5"/>
<text text-anchor="middle" x="160.5" y="-129" font-family="Fira Mono Medium" font-size="10.00">father</text>
</g>
<!-- node_4 -->
<g id="node5" class="node">
<title>node_4</title>
<polygon fill="none" stroke="black" points="354.5,-90 209.5,-90 209.5,-54 354.5,-54 354.5,-90"/>
<text text-anchor="start" x="233" y="-75.4" font-family="Fira Mono Medium" font-weight="bold" font-size="12.00">family&#45;member</text>
<text text-anchor="start" x="217.5" y="-63.4" font-family="Fira Mono Medium" font-style="italic" font-size="12.00">given&#45;name:</text>
<text text-anchor="start" x="300.5" y="-63.4" font-family="Fira Mono Medium" font-size="12.00"> Marge</text>
</g>
<!-- node_0&#45;&gt;node_4 -->
<g id="edge4" class="edge">
<title>node_0&#45;&gt;node_4</title>
<path fill="none" stroke="black" d="M115.22,-112.23C140.79,-106.03 171.46,-98.58 199.44,-91.8"/>
<polygon fill="black" stroke="black" points="200.31,-95.18 209.2,-89.42 198.66,-88.38 200.31,-95.18"/>
<text text-anchor="middle" x="160.5" y="-109" font-family="Fira Mono Medium" font-size="10.00">mother</text>
</g>
<!-- node_5 -->
<g id="node6" class="node">
<title>node_5</title>
<polygon fill="none" stroke="black" points="350.5,-36 213.5,-36 213.5,0 350.5,0 350.5,-36"/>
<text text-anchor="start" x="233" y="-21.4" font-family="Fira Mono Medium" font-weight="bold" font-size="12.00">family&#45;member</text>
<text text-anchor="start" x="221.5" y="-9.4" font-family="Fira Mono Medium" font-style="italic" font-size="12.00">given&#45;name:</text>
<text text-anchor="start" x="304.5" y="-9.4" font-family="Fira Mono Medium" font-size="12.00"> Bart</text>
</g>
<!-- node_0&#45;&gt;node_5 -->
<g id="edge5" class="edge">
<title>node_0&#45;&gt;node_5</title>
<path fill="none" stroke="black" d="M86.38,-107.81C100.2,-99.05 117.26,-88.6 133,-80 164.57,-62.75 172.81,-58.89 206,-45 210.21,-43.24 214.57,-41.49 218.99,-39.76"/>
<polygon fill="black" stroke="black" points="220.6,-42.9 228.69,-36.06 218.1,-36.36 220.6,-42.9"/>
<text text-anchor="middle" x="160.5" y="-83" font-family="Fira Mono Medium" font-size="10.00">sons</text>
</g>
</g>
</svg>
